<svg width="1130" height="793" viewBox="0 0 1130 793" fill="none" xmlns="http://www.w3.org/2000/svg">
<path d="M1067.31 502.433C1067.31 502.433 1058.47 492.969 1060.95 493.29C1063.43 493.611 1068.08 500.669 1068.08 500.669C1068.08 500.669 1068.08 485.109 1070.41 488.477C1072.58 491.846 1069.94 500.669 1069.94 500.669C1069.94 500.669 1076.14 490.563 1076.14 492.167C1076.14 497.3 1071.34 501.311 1071.34 501.311C1071.34 501.311 1081.42 493.611 1079.71 496.659C1078.01 499.706 1071.65 502.754 1071.65 502.754C1071.65 502.754 1083.28 500.348 1079.09 502.113C1074.9 503.877 1071.03 505 1071.03 505H1067.77C1067.77 505 1056.76 499.386 1060.95 500.188C1065.14 501.15 1067.31 502.433 1067.31 502.433Z" fill="#0FAA61"/>
<path d="M1083.86 432.159C1083.86 451.631 1073.02 453.044 1059.52 453.044C1046.01 453.044 1035.18 451.631 1035.18 432.159C1035.18 412.688 1046.01 372.175 1059.52 372.175C1073.02 372.175 1083.86 412.845 1083.86 432.159Z" fill="#92E3A9"/>
<path opacity="0.5" d="M1083.86 432.159C1083.86 451.631 1073.02 453.044 1059.52 453.044C1046.01 453.044 1035.18 451.631 1035.18 432.159C1035.18 412.688 1046.01 372.175 1059.52 372.175C1073.02 372.175 1083.86 412.845 1083.86 432.159Z" fill="white"/>
<path d="M1067.84 440.953L1063.76 441.267L1074.28 434.201L1066.74 437.97L1067.84 434.986L1064.39 439.226L1060.3 441.267L1059.99 427.292L1062.19 422.11L1059.99 425.093L1059.83 416.928L1066.43 408.134L1059.68 414.887L1059.36 397.142L1059.05 408.448L1054.65 403.738L1058.89 410.647L1058.42 428.705L1054.65 426.35L1051.2 420.382L1052.61 424.936L1045.86 420.697L1058.26 431.217L1056.38 490.574H1061.56L1060.46 443.623L1061.56 442.837L1067.84 440.953Z" fill="#263238"/>
<path d="M1045.67 550.433C1045.67 550.433 1036.39 540.969 1039 541.29C1041.6 541.611 1046.49 548.669 1046.49 548.669C1046.49 548.669 1046.49 533.109 1048.93 536.477C1051.37 539.846 1048.44 548.669 1048.44 548.669C1048.44 548.669 1054.95 538.563 1054.95 540.167C1054.95 545.3 1049.91 549.31 1049.91 549.31C1049.91 549.31 1060.49 541.611 1058.7 544.659C1056.91 547.706 1050.23 550.754 1050.23 550.754C1050.23 550.754 1062.44 548.348 1058.05 550.113C1053.65 551.877 1049.58 553 1049.58 553H1046.16C1046.16 553 1034.6 547.386 1039 548.188C1043.23 549.15 1045.67 550.433 1045.67 550.433Z" fill="#0FAA61"/>
<path d="M1123.52 257.633C1110.11 209.445 1021.04 261.875 1021.04 261.875L1044.28 219.626C1047 215.384 1049.54 210.972 1051.75 206.221C1063.45 180.091 1063.28 151.925 1051.75 127.661C1048.52 112.9 1038.85 91.6901 1012.21 68.4445C961.479 24.3287 792.142 -5.70392 743.106 0.913439C694.07 7.5308 787.731 28.2313 787.731 28.2313H780.265C637.567 13.1301 493.852 11.094 351.324 14.1482C315.523 14.8269 279.721 16.0146 244.768 22.1229C234.757 23.8197 223.898 26.5345 217.959 34.679C191.32 70.8199 300.252 74.2134 317.219 73.5347C242.392 83.2063 159.421 86.2604 89.8535 115.105C80.182 119.178 70.5105 123.929 63.2144 131.394C55.9183 138.86 51.1674 149.38 52.6945 160.069C57.4454 190.95 100.034 200.113 124.128 206.9C124.128 206.9 -14.4972 299.034 1.7917 345.865C8.57873 365.208 18.5896 385.569 37.254 405.591C26.5644 418.995 17.2322 432.908 9.93614 447.84C5.52457 456.833 -0.244417 469.389 4.67619 479.739C30.1276 532.847 413.086 715.249 720.03 663.328C801.644 649.415 882.749 626.678 954.183 586.126C1025.28 545.913 1097.73 479.4 1115.71 395.58C1116.22 392.865 1116.73 390.15 1117.07 387.605C1128.1 348.749 1134.72 297.846 1123.52 257.633Z" fill="#EFEFEF" fill-opacity="0.04"/>
<path d="M875.455 205.033C875.455 205.033 877.152 199.773 885.805 198.076C894.459 196.38 904.809 205.882 904.809 205.882C904.809 205.882 911.766 191.968 918.722 191.12C925.679 190.271 933.484 196.38 933.484 196.38" stroke="white" stroke-opacity="0.36" stroke-miterlimit="10"/>
<path d="M852.889 237.781C852.889 237.781 854.585 232.521 863.239 230.824C871.892 229.127 882.243 238.629 882.243 238.629C882.243 238.629 889.199 224.716 896.156 223.867C903.113 223.019 910.918 229.127 910.918 229.127" stroke="white" stroke-opacity="0.45" stroke-miterlimit="10"/>
<path d="M935.182 238.12C935.182 238.12 936.539 234.217 943.156 232.86C949.774 231.503 957.579 238.799 957.579 238.799C957.579 238.799 962.839 228.279 968.099 227.6C973.359 226.921 979.297 231.503 979.297 231.503" stroke="white" stroke-opacity="0.36" stroke-miterlimit="10"/>
<path d="M1031.22 272.903C1031.22 272.903 1032.07 270.358 1036.48 269.51C1040.72 268.662 1045.98 273.413 1045.98 273.413C1045.98 273.413 1049.37 266.456 1052.94 266.116C1056.33 265.607 1060.23 268.662 1060.23 268.662" stroke="white" stroke-opacity="0.36" stroke-miterlimit="10"/>
<path d="M569.925 195.726C560.931 155.619 514.604 125.836 474.217 131.42C464.205 132.774 454.363 136.666 446.726 143.604C436.375 153.081 438.921 163.742 433.83 175.588C432.472 178.803 429.587 181.68 426.193 182.357C416.181 184.049 408.036 174.065 397.854 174.065C390.218 174.065 380.545 178.126 376.303 184.726C372.4 190.818 375.115 201.479 367.988 205.541C360.012 210.11 350.34 201.479 341.855 204.526C331.164 208.418 336.085 216.202 332.182 220.94C328.279 225.848 320.474 223.817 309.783 222.802C299.092 221.786 290.438 234.478 290.438 234.478H627.282C627.282 234.478 630.167 229.571 617.609 210.279C605.052 190.988 587.573 204.526 579.767 204.526C571.961 204.356 569.925 195.726 569.925 195.726Z" stroke="white" stroke-opacity="0.49" stroke-miterlimit="10"/>
<path d="M604.769 128.722C601.479 113.839 584.247 102.717 569.364 104.91C565.604 105.38 562.001 106.79 559.181 109.453C555.421 112.899 556.205 116.973 554.325 121.359C553.855 122.612 552.758 123.709 551.505 123.866C547.745 124.492 544.769 120.732 541.009 120.732C538.189 120.732 534.586 122.299 533.019 124.649C531.609 126.842 532.549 130.915 529.886 132.325C526.909 134.048 523.306 130.759 520.173 132.012C516.257 133.422 517.98 136.398 516.57 138.122C515.16 139.845 512.183 139.218 508.267 138.905C504.35 138.592 501.061 143.291 501.061 143.291H625.762C625.762 143.291 626.858 141.568 622.159 134.362C617.459 127.155 611.036 132.169 608.059 132.169C605.553 132.012 604.769 128.722 604.769 128.722Z" stroke="white" stroke-opacity="0.45" stroke-miterlimit="10"/>
<path d="M952.668 328.812C949.108 312.588 930.459 300.463 914.354 302.854C910.285 303.367 906.386 304.904 903.334 307.807C899.265 311.564 900.113 316.004 898.079 320.786C897.57 322.152 896.383 323.347 895.027 323.518C890.958 324.201 887.737 320.103 883.668 320.103C880.617 320.103 876.717 321.81 875.022 324.372C873.496 326.763 874.514 331.203 871.632 332.74C868.41 334.618 864.511 331.032 861.12 332.398C856.882 333.935 858.747 337.18 857.221 339.059C855.695 340.937 852.474 340.254 848.236 339.912C843.998 339.571 840.438 344.694 840.438 344.694H975.386C975.386 344.694 976.572 342.816 971.486 334.96C966.4 327.104 959.45 332.569 956.228 332.569C953.516 332.228 952.668 328.812 952.668 328.812Z" stroke="white" stroke-opacity="0.47" stroke-miterlimit="10"/>
<path d="M735.578 311.207C730.141 286.427 701.599 268.097 676.795 271.661C670.679 272.51 664.563 274.886 659.976 279.129C653.69 284.9 655.219 291.519 651.991 298.817C651.141 300.854 649.442 302.551 647.234 302.891C641.118 303.909 636.021 297.799 629.905 297.799C625.148 297.799 619.201 300.345 616.653 304.418C614.275 308.152 615.973 314.772 611.556 317.148C606.629 319.863 600.683 314.602 595.416 316.469C588.791 318.845 591.849 323.597 589.47 326.653C587.092 329.708 582.335 328.52 575.709 327.841C569.083 327.162 563.816 334.969 563.816 334.969H771.086C771.086 334.969 772.954 331.914 765.139 320.033C757.324 308.152 746.621 316.469 741.864 316.469C736.767 316.469 735.578 311.207 735.578 311.207Z" stroke="white" stroke-opacity="0.47" stroke-miterlimit="10"/>
<path d="M784.616 596.035C784.616 596.035 772.253 582.759 775.81 583.283C779.197 583.632 785.801 593.589 785.801 593.589C785.801 593.589 785.971 571.754 789.019 576.645C792.067 581.361 788.342 593.764 788.342 593.764C788.342 593.764 797.148 579.615 797.148 581.885C797.148 589.047 790.374 594.637 790.374 594.637C790.374 594.637 804.43 583.807 802.228 588.174C799.857 592.541 790.882 596.733 790.882 596.733C790.882 596.733 807.139 593.414 801.381 595.685C795.624 598.131 790.035 599.703 790.035 599.703H785.463C785.463 599.703 770.052 591.842 775.81 592.89C781.398 593.938 784.616 596.035 784.616 596.035Z" fill="#263238"/>
<path d="M947.743 555.869C947.743 555.869 938.193 545.642 940.874 545.989C943.555 546.335 948.581 553.962 948.581 553.962C948.581 553.962 948.581 537.149 951.094 540.789C953.439 544.429 950.591 553.962 950.591 553.962C950.591 553.962 957.293 543.042 957.293 544.775C957.293 550.322 952.099 554.655 952.099 554.655C952.099 554.655 962.989 546.335 961.146 549.629C959.303 552.922 952.434 556.215 952.434 556.215C952.434 556.215 965 553.615 960.476 555.522C955.953 557.429 951.764 558.642 951.764 558.642H948.246C948.246 558.642 936.35 552.575 940.874 553.442C945.398 554.309 947.743 555.869 947.743 555.869Z" fill="#263238"/>
<path d="M906.068 601.697C906.068 601.697 894.574 589.766 897.786 590.107C900.997 590.448 907.082 599.481 907.082 599.481C907.082 599.481 907.082 579.711 909.956 584.142C912.829 588.403 909.28 599.652 909.28 599.652C909.28 599.652 917.393 586.869 917.393 588.914C917.393 595.391 911.139 600.504 911.139 600.504C911.139 600.504 924.154 590.789 922.126 594.709C919.929 598.629 911.646 602.379 911.646 602.379C911.646 602.379 926.69 599.311 921.45 601.526C916.041 603.742 910.97 605.106 910.97 605.106H906.744C906.744 605.106 892.546 597.947 897.786 598.97C903.195 599.992 906.068 601.697 906.068 601.697Z" fill="#92E3A9"/>
<path d="M668.748 549.815L577.48 435.793L557.553 453.609L457.463 285.63L370.454 307.348L344.443 253.052L319.192 251.525L271.125 146.156L199.479 219.117L164.95 205.373L39 348.579" stroke="white" stroke-opacity="0.08" stroke-miterlimit="10"/>
<path d="M323.754 321.262L316.148 323.467" stroke="white" stroke-opacity="0.09" stroke-miterlimit="10"/>
<path d="M370.302 307.179L332.273 318.717" stroke="white" stroke-opacity="0.09" stroke-miterlimit="10"/>
<path d="M226.709 258.312L248.005 223.189L246.484 211.142L270.974 155.828" stroke="white" stroke-opacity="0.09" stroke-miterlimit="10"/>
<path d="M217.734 273.074L223.058 264.251" stroke="white" stroke-opacity="0.22" stroke-miterlimit="10"/>
<path d="M184.571 293.774L150.041 346.035" stroke="white" stroke-opacity="0.09" stroke-miterlimit="10"/>
<path d="M166.625 211.142L175.295 232.861L194.766 250.507L192.484 281.897L187.769 289.023" stroke="white" stroke-opacity="0.09" stroke-miterlimit="10"/>
<path d="M344.441 253.052L326.492 272.225L319.951 260.178" stroke="white" stroke-opacity="0.09" stroke-miterlimit="10"/>
<path d="M1072 467.692L932.057 357.572L889.465 424.425L836.986 404.912L755.758 531.83L703.279 519.274L677.115 544.386" stroke="white" stroke-opacity="0.62" stroke-miterlimit="10"/>
<path d="M932.052 357.572L915.32 439.187L895.697 429.515" stroke="white" stroke-miterlimit="10"/>
<path d="M837.44 409.833L796.369 543.198L768.229 537.598" stroke="white" stroke-miterlimit="10"/>
<path d="M864.587 400.161C824.034 400.161 790.947 432.909 790.947 473.291C790.947 491.956 798.074 509.093 809.612 521.988C814.872 521.14 824.713 520.631 835.402 524.364C849.655 529.285 858.478 537.09 860.345 538.956H866.962C868.829 537.09 877.821 529.115 891.904 524.364C903.612 520.461 914.132 521.31 919.053 522.158C930.76 509.263 937.887 492.125 937.887 473.291C938.056 432.909 905.139 400.161 864.587 400.161Z" fill="#0FAA61"/>
<path d="M898.861 502.646C896.655 503.664 894.28 504.851 892.074 506.039C889.868 507.227 887.663 508.584 885.626 509.942C884.778 510.451 884.099 510.96 883.421 511.638L895.468 489.241L879.009 515.202C877.312 516.559 875.616 517.916 874.089 519.274C871.374 521.649 868.829 524.025 866.283 526.4L865.435 501.967L882.742 475.667L865.265 498.404L864.587 476.685L863.399 501.118L862.211 525.552C860.005 523.516 857.8 521.48 855.424 519.443C853.558 517.916 851.691 516.389 849.825 514.862L834.215 488.223L845.753 511.808C845.074 511.299 844.395 510.79 843.717 510.451C841.68 509.093 839.475 507.736 837.269 506.548C835.063 505.36 832.857 504.173 830.482 503.155C825.901 500.949 821.319 498.913 816.568 497.216C821.15 499.252 825.561 501.458 829.973 503.833C832.179 505.021 834.215 506.378 836.42 507.566C838.457 508.924 840.493 510.281 842.359 511.808C846.092 514.862 849.655 518.086 853.218 521.479C856.273 524.534 859.157 527.588 861.872 530.642L860.345 561.693H867.641L866.623 531.999C869.677 528.436 873.07 524.873 876.464 521.649C879.857 518.256 883.421 515.032 887.323 511.978C889.19 510.451 891.226 509.093 893.262 507.736C895.298 506.378 897.504 505.191 899.71 504.003C904.121 501.627 908.533 499.252 913.114 497.386C908.024 498.404 903.273 500.44 898.861 502.646Z" fill="#263238"/>
<path d="M299.742 500.439C299.742 521.479 288.034 523.006 273.442 523.006C258.85 523.006 247.143 521.479 247.143 500.439C247.143 479.399 258.85 435.623 273.442 435.623C288.034 435.623 299.742 479.399 299.742 500.439Z" fill="#0FAA61"/>
<path d="M282.269 509.941L278.027 510.281L289.395 502.645L281.25 506.717L282.269 503.494L278.705 508.075L274.294 510.281L273.954 495.179L276.33 489.58L273.954 492.804L273.785 483.981L280.911 474.309L273.615 481.775L273.276 462.602L272.767 474.818L268.185 469.728L272.767 477.194L272.088 496.707L268.185 494.161L264.453 487.714L265.98 492.634L258.684 488.053L272.088 499.421L270.052 563.559H275.482L274.294 512.826L275.651 511.977L282.269 509.941Z" fill="#263238"/>
<path d="M1006.95 428.158C1006.95 469.219 983.877 472.273 955.541 472.273C927.205 472.273 904.129 469.219 904.129 428.158C904.129 387.096 927.205 301.41 955.541 301.41C983.877 301.41 1006.95 387.096 1006.95 428.158Z" fill="#2ECC82"/>
<path opacity="0.31" d="M1006.95 428.158C1006.95 469.219 983.877 472.273 955.541 472.273C927.205 472.273 904.129 469.219 904.129 428.158C904.129 387.096 927.205 301.41 955.541 301.41C983.877 301.41 1006.95 387.096 1006.95 428.158Z" fill="white"/>
<path d="M973.019 446.822L964.535 447.331L986.593 432.399L970.813 440.374L973.019 434.266L965.723 442.919L957.239 447.331L956.56 417.807L961.142 406.948L956.391 413.056L956.051 395.919L970.135 377.255L956.051 391.677L955.203 354.179L954.355 378.103L945.362 368.092L954.185 382.854L952.997 420.861L945.192 415.771L938.066 403.045L940.95 413.056L926.867 403.724L952.828 426.291L948.925 551.342H959.615L957.409 452.082L959.784 450.555L973.019 446.822Z" fill="#263238"/>
<path d="M175.54 378.952C134.987 378.952 101.9 411.699 101.9 452.082C101.9 470.746 109.027 487.884 120.565 500.779C125.825 499.931 135.666 499.422 146.355 503.154C160.608 508.075 169.431 515.88 171.298 517.747H177.915C179.782 515.88 188.774 507.905 202.858 503.154C214.565 499.252 225.085 500.1 230.006 500.949C241.713 488.053 248.84 470.916 248.84 452.082C249.009 411.699 216.092 378.952 175.54 378.952Z" fill="#2ECC82"/>
<path opacity="0.33" d="M175.54 378.952C134.987 378.952 101.9 411.699 101.9 452.082C101.9 470.746 109.027 487.884 120.565 500.779C125.825 499.931 135.666 499.422 146.355 503.154C160.608 508.075 169.431 515.88 171.298 517.747H177.915C179.782 515.88 188.774 507.905 202.858 503.154C214.565 499.252 225.085 500.1 230.006 500.949C241.713 488.053 248.84 470.916 248.84 452.082C249.009 411.699 216.092 378.952 175.54 378.952Z" fill="white"/>
<path d="M209.642 481.266C207.437 482.284 205.061 483.472 202.855 484.66C200.65 485.847 198.444 487.205 196.408 488.562C195.559 489.071 194.881 489.58 194.202 490.259L206.249 467.862L189.79 493.822C188.094 495.18 186.397 496.537 184.87 497.894C182.155 500.27 179.61 502.645 177.065 505.021L176.216 480.587L193.523 454.288L176.047 477.024L175.368 455.306L174.18 479.739L172.992 504.172C170.787 502.136 168.581 500.1 166.205 498.064C164.339 496.537 162.473 495.01 160.606 493.483L144.996 466.844L156.534 490.429C155.855 489.92 155.176 489.411 154.498 489.071C152.462 487.714 150.256 486.356 148.05 485.169C145.844 483.981 143.639 482.793 141.263 481.775C136.682 479.569 132.101 477.533 127.35 475.837C131.931 477.873 136.342 480.078 140.754 482.454C142.96 483.642 144.996 484.999 147.202 486.187C149.238 487.544 151.274 488.902 153.14 490.429C156.873 493.483 160.436 496.707 164 500.1C167.054 503.154 169.938 506.209 172.653 509.263L171.126 540.313H178.422L177.404 510.62C180.458 507.057 183.852 503.494 187.245 500.27C190.639 496.876 194.202 493.653 198.104 490.598C199.971 489.071 202.007 487.714 204.043 486.356C206.079 484.999 208.285 483.811 210.491 482.624C214.902 480.248 219.314 477.873 223.895 476.006C218.805 477.194 214.224 479.23 209.642 481.266Z" fill="#263238"/>
<path d="M379.652 596.985V529.624H292.1V486.526L367.266 308.366H431.404V487.544H459.23V529.624H431.404V596.985H379.652V596.985ZM335.537 487.714H379.652V365.208L335.537 487.714Z" fill="white"/>
<path d="M562.394 597.155C545.087 597.155 530.665 593.591 519.296 586.465C507.928 579.339 499.275 569.497 493.675 557.111C487.906 544.725 485.191 530.302 485.191 513.844V384.551C485.191 367.753 487.906 352.991 493.336 340.265C498.765 327.54 507.249 317.698 518.618 310.572C529.986 303.446 544.578 299.882 562.394 299.882C580.04 299.882 594.463 303.446 605.661 310.572C616.86 317.698 625.344 327.54 630.773 340.265C636.203 352.991 638.918 367.753 638.918 384.551V513.844C638.918 530.302 636.033 544.725 630.434 557.111C624.665 569.497 616.181 579.339 604.813 586.465C593.445 593.591 579.362 597.155 562.394 597.155ZM562.394 548.797C568.842 548.797 573.423 546.761 576.307 542.689C579.192 538.616 581.058 533.866 582.076 528.266C583.094 522.667 583.434 517.577 583.434 512.826V385.738C583.434 380.479 583.094 375.049 582.246 369.28C581.398 363.511 579.531 358.59 576.647 354.518C573.762 350.446 569.011 348.24 562.394 348.24C555.777 348.24 550.856 350.276 547.972 354.518C544.917 358.76 543.051 363.681 542.203 369.28C541.354 375.049 541.015 380.479 541.015 385.738V512.826C541.015 517.577 541.524 522.667 542.372 528.266C543.39 533.866 545.257 538.616 548.481 542.689C551.704 546.761 556.286 548.797 562.394 548.797Z" fill="white"/>
<path d="M756.504 596.985V529.624H668.951V486.526L744.118 308.366H808.255V487.544H836.082V529.624H808.255V596.985H756.504ZM712.388 487.714H756.504V365.208L712.388 487.714Z" fill="white"/>
<path d="M1080 472.443C971.288 537.09 779.147 580.187 560.301 580.187C318.228 580.187 109.021 527.588 9 451.234" stroke="white" stroke-opacity="0.25" stroke-miterlimit="10"/>
<path d="M1079.74 440.883C1079.74 483.811 1055.65 487.035 1025.95 487.035C996.26 487.035 972.166 483.811 972.166 440.883C972.166 397.955 996.26 308.366 1025.95 308.366C1055.65 308.366 1079.74 397.955 1079.74 440.883Z" fill="#0FAA61"/>
<path d="M1044.11 460.396L1035.28 460.905L1058.36 445.464L1041.9 453.778L1044.11 447.161L1036.47 456.493L1027.65 460.905L1026.97 430.024L1031.72 418.655L1026.8 425.103L1026.46 407.287L1041.22 387.605L1026.29 402.706L1025.44 363.511L1024.59 388.623L1015.26 378.103L1024.59 393.543L1023.24 433.248L1015.09 427.988L1007.63 414.753L1010.51 424.933L995.918 415.432L1023.07 438.847L1018.99 569.667H1030.19L1027.82 465.995L1030.36 464.298L1044.11 460.396Z" fill="#263238"/>
<path d="M1022.39 570.855C1022.39 570.855 1002.54 550.324 1008.14 551.003C1013.74 551.682 1024.09 566.952 1024.09 566.952C1024.09 566.952 1024.26 533.017 1029.18 540.483C1034.1 547.949 1027.99 567.122 1027.99 567.122C1027.99 567.122 1042.07 545.064 1042.07 548.627C1041.9 559.826 1031.21 568.479 1031.21 568.479C1031.21 568.479 1053.78 551.682 1050.22 558.469C1046.48 565.256 1032.06 571.703 1032.06 571.703C1032.06 571.703 1058.19 566.443 1048.86 570.176C1039.53 573.909 1030.71 576.454 1030.71 576.454H1023.41C1023.41 576.454 998.806 564.068 1007.97 565.934C1017.3 567.801 1022.39 570.855 1022.39 570.855Z" fill="#F7F7F7"/>
<path d="M72.3793 545.404C72.3793 545.404 55.2421 527.588 59.993 528.097C64.7439 528.606 73.7367 541.84 73.7367 541.84C73.7367 541.84 73.9064 512.486 78.1483 518.934C82.3902 525.382 77.1303 542.01 77.1303 542.01C77.1303 542.01 89.3469 523.006 89.3469 526.061C89.3469 535.732 79.8451 543.198 79.8451 543.198C79.8451 543.198 99.3578 528.606 96.3037 534.544C93.0798 540.483 80.5238 545.913 80.5238 545.913C80.5238 545.913 103.091 541.331 95.1159 544.555C87.1411 547.779 79.5057 549.985 79.5057 549.985H73.2277C73.2277 549.985 51.8486 539.295 59.993 540.822C68.1374 542.689 72.3793 545.404 72.3793 545.404Z" fill="#EFEFEF"/>
<path d="M134.483 417.468C134.483 460.396 110.389 463.62 80.6955 463.62C51.0022 463.62 26.9082 460.396 26.9082 417.468C26.9082 374.54 51.0022 284.782 80.6955 284.782C110.389 284.782 134.483 374.54 134.483 417.468Z" fill="#0FAA61"/>
<path d="M98.8498 436.981L89.857 437.66L113.103 422.049L96.4744 430.363L98.8498 423.916L91.2144 433.078L82.3913 437.49L81.7126 406.779L86.2938 395.241L81.5429 401.688L81.2035 383.872L95.7957 364.19L81.0339 379.291L80.1855 339.926L79.3371 365.208L69.8352 354.688L79.1674 369.959L77.9797 410.002L69.6656 404.573L62.1998 391.338L65.254 401.688L50.4922 392.017L77.81 415.432L73.5681 546.422H84.7667L82.5609 442.58L85.1061 440.883L98.8498 436.981Z" fill="#263238"/>
<path d="M260.454 589.811C260.454 589.811 243.22 572.351 247.998 572.85C252.776 573.349 261.82 586.319 261.82 586.319C261.82 586.319 261.99 557.553 266.256 563.871C270.522 570.19 265.232 586.485 265.232 586.485C265.232 586.485 277.519 567.862 277.519 570.855C277.519 580.333 267.963 587.649 267.963 587.649C267.963 587.649 287.586 573.349 284.515 579.169C281.273 584.988 268.645 590.309 268.645 590.309C268.645 590.309 291.34 585.82 283.32 588.979C275.3 592.138 267.621 594.3 267.621 594.3H261.308C261.308 594.3 239.807 583.825 247.998 585.321C256.188 587.15 260.454 589.811 260.454 589.811Z" fill="#263238"/>
<path d="M595.522 602.685C595.522 602.685 583.16 590.012 586.716 590.512C590.103 590.846 596.708 600.35 596.708 600.35C596.708 600.35 596.877 579.508 599.925 584.176C602.973 588.678 599.248 600.517 599.248 600.517C599.248 600.517 608.054 587.011 608.054 589.179C608.054 596.015 601.28 601.351 601.28 601.351C601.28 601.351 615.336 591.013 613.134 595.181C610.764 599.35 601.788 603.352 601.788 603.352C601.788 603.352 618.046 600.183 612.288 602.351C606.53 604.685 600.941 606.186 600.941 606.186H596.369C596.369 606.186 580.958 598.683 586.716 599.683C592.474 600.85 595.522 602.685 595.522 602.685Z" fill="white"/>
<path d="M427.436 602.777C427.436 602.777 410.606 585.318 415.272 585.817C419.937 586.316 428.769 599.285 428.769 599.285C428.769 599.285 428.935 570.519 433.101 576.838C437.267 583.156 432.102 599.452 432.102 599.452C432.102 599.452 444.099 580.829 444.099 583.822C444.099 593.299 434.768 600.616 434.768 600.616C434.768 600.616 453.93 586.316 450.931 592.135C447.765 597.955 435.434 603.276 435.434 603.276C435.434 603.276 457.596 598.787 449.764 601.946C441.933 605.105 434.434 607.267 434.434 607.267H428.436C428.436 607.267 407.44 596.791 415.438 598.288C423.27 600.117 427.436 602.777 427.436 602.777Z" fill="#92E3A9"/>
<path d="M303.518 590.891C303.518 590.891 291.545 578.961 294.891 579.302C298.236 579.643 304.575 588.676 304.575 588.676C304.575 588.676 304.575 568.905 307.568 573.337C310.561 577.597 306.864 588.846 306.864 588.846C306.864 588.846 315.315 576.064 315.315 578.109C315.315 584.585 308.801 589.698 308.801 589.698C308.801 589.698 322.358 579.984 320.245 583.904C317.956 587.824 309.329 591.573 309.329 591.573C309.329 591.573 324.999 588.505 319.541 590.721C313.907 592.937 308.624 594.3 308.624 594.3H304.223C304.223 594.3 289.433 587.142 294.891 588.164C300.525 589.017 303.518 590.891 303.518 590.891Z" fill="#92E3A9"/>
<path d="M713.915 585.108C713.915 585.108 716.12 583.072 717.987 583.072C719.853 583.072 725.622 585.786 725.622 585.786C725.622 585.786 727.828 589.35 728.167 589.519C728.337 589.689 731.221 590.877 731.391 591.386C731.561 591.895 732.07 593.422 732.07 593.422H714.763L711.539 584.938L713.915 585.108Z" fill="white" stroke="white" stroke-miterlimit="10"/>
<path d="M717.99 583.072L717.821 584.768C717.821 584.768 722.232 587.314 722.232 588.332C722.063 589.18 721.214 591.386 721.214 591.386L723.42 593.761H711.373L712.221 586.635C712.391 586.635 714.936 582.902 717.99 583.072Z" fill="#263238"/>
<path d="M691.351 584.09C691.351 584.09 700.004 571.025 702.041 570.855C704.077 570.685 708.149 572.382 709.676 574.927C711.203 577.473 712.73 582.902 712.73 583.242C712.9 583.581 713.239 583.751 715.615 587.653C717.99 591.556 717.82 593.592 717.82 593.592H684.225C684.225 593.592 684.903 590.198 686.261 588.162C687.448 586.126 690.333 585.447 690.333 585.447L691.351 584.09Z" fill="white" stroke="white" stroke-miterlimit="10"/>
<path d="M704.584 593.422C704.584 593.422 703.736 591.216 703.566 590.877C703.397 590.537 703.397 587.483 703.227 586.296C702.888 585.108 700.342 581.205 700.342 581.205L702.209 575.776L701.36 575.097L702.887 571.194L702.039 570.855C700.003 571.194 691.35 584.09 691.35 584.09L690.501 585.617C690.501 585.617 687.617 586.296 686.429 588.332C685.411 590.028 684.732 592.743 684.562 593.422H704.584V593.422Z" fill="#C4B0D1"/>
<path d="M379.147 735.033C382.896 735.033 386.05 736.295 388.611 738.819C391.171 741.342 392.452 744.441 392.452 748.115C392.452 751.789 391.171 754.888 388.611 757.411C386.05 759.935 382.896 761.197 379.147 761.197H372.3V774H364.618V735.033H379.147ZM379.147 754.016C380.78 754.016 382.135 753.459 383.211 752.346C384.287 751.195 384.825 749.785 384.825 748.115C384.825 746.408 384.287 744.998 383.211 743.884C382.135 742.771 380.78 742.214 379.147 742.214H372.3V754.016H379.147ZM416.424 746.167H423.605V774H416.424V770.716C414.271 773.425 411.247 774.779 407.35 774.779C403.639 774.779 400.448 773.369 397.776 770.549C395.141 767.691 393.823 764.203 393.823 760.083C393.823 755.964 395.141 752.494 397.776 749.674C400.448 746.816 403.639 745.387 407.35 745.387C411.247 745.387 414.271 746.742 416.424 749.451V746.167ZM403.175 765.761C404.623 767.209 406.46 767.932 408.686 767.932C410.913 767.932 412.75 767.209 414.197 765.761C415.682 764.277 416.424 762.384 416.424 760.083C416.424 757.782 415.682 755.908 414.197 754.461C412.75 752.977 410.913 752.234 408.686 752.234C406.46 752.234 404.623 752.977 403.175 754.461C401.728 755.908 401.004 757.782 401.004 760.083C401.004 762.384 401.728 764.277 403.175 765.761ZM451.437 746.167H458.451V772.664C458.451 776.969 457.022 780.253 454.164 782.517C451.344 784.781 447.93 785.913 443.922 785.913C440.916 785.913 438.262 785.337 435.962 784.187C433.698 783.037 431.954 781.348 430.729 779.121L436.852 775.614C438.262 778.212 440.693 779.511 444.145 779.511C446.408 779.511 448.19 778.917 449.488 777.73C450.787 776.542 451.437 774.854 451.437 772.664V769.658C449.321 772.478 446.353 773.889 442.53 773.889C438.596 773.889 435.294 772.516 432.622 769.769C429.987 766.986 428.669 763.609 428.669 759.638C428.669 755.704 430.005 752.346 432.677 749.562C435.349 746.779 438.634 745.387 442.53 745.387C446.353 745.387 449.321 746.798 451.437 749.618V746.167ZM438.021 765.149C439.506 766.559 441.38 767.264 443.644 767.264C445.907 767.264 447.763 766.559 449.21 765.149C450.695 763.702 451.437 761.865 451.437 759.638C451.437 757.448 450.695 755.649 449.21 754.238C447.763 752.791 445.907 752.067 443.644 752.067C441.38 752.067 439.506 752.791 438.021 754.238C436.574 755.649 435.85 757.448 435.85 759.638C435.85 761.865 436.574 763.702 438.021 765.149ZM471.03 763.034C471.995 766.522 474.611 768.266 478.879 768.266C481.625 768.266 483.704 767.339 485.114 765.483L490.903 768.823C488.157 772.794 484.112 774.779 478.768 774.779C474.166 774.779 470.473 773.388 467.69 770.604C464.907 767.821 463.515 764.314 463.515 760.083C463.515 755.89 464.888 752.401 467.634 749.618C470.381 746.798 473.906 745.387 478.211 745.387C482.293 745.387 485.652 746.798 488.287 749.618C490.959 752.438 492.295 755.927 492.295 760.083C492.295 761.011 492.202 761.995 492.016 763.034H471.03ZM470.919 757.467H485.114C484.706 755.574 483.852 754.164 482.553 753.236C481.291 752.309 479.844 751.845 478.211 751.845C476.281 751.845 474.686 752.346 473.424 753.348C472.162 754.313 471.327 755.686 470.919 757.467ZM534.103 735.033H541.785V774H535.94L519.24 750.175V774H511.558V735.033H517.403L534.103 758.803V735.033ZM572.394 770.549C569.536 773.369 566.048 774.779 561.928 774.779C557.809 774.779 554.321 773.369 551.463 770.549C548.643 767.691 547.232 764.203 547.232 760.083C547.232 755.964 548.643 752.494 551.463 749.674C554.321 746.816 557.809 745.387 561.928 745.387C566.048 745.387 569.536 746.816 572.394 749.674C575.251 752.494 576.68 755.964 576.68 760.083C576.68 764.203 575.251 767.691 572.394 770.549ZM556.529 765.594C557.976 767.042 559.776 767.765 561.928 767.765C564.081 767.765 565.881 767.042 567.328 765.594C568.775 764.147 569.499 762.31 569.499 760.083C569.499 757.857 568.775 756.02 567.328 754.572C565.881 753.125 564.081 752.401 561.928 752.401C559.776 752.401 557.976 753.125 556.529 754.572C555.118 756.02 554.413 757.857 554.413 760.083C554.413 762.31 555.118 764.147 556.529 765.594ZM597.054 753.069H590.764V764.648C590.764 765.613 591.005 766.318 591.488 766.763C591.97 767.209 592.675 767.468 593.603 767.543C594.531 767.58 595.681 767.561 597.054 767.487V774C592.119 774.557 588.63 774.093 586.589 772.608C584.585 771.124 583.583 768.47 583.583 764.648V753.069H578.74V746.167H583.583V740.544L590.764 738.373V746.167H597.054V753.069ZM640.072 742.381H624.485V751.622H639.626V758.97H624.485V774H616.803V735.033H640.072V742.381ZM669.049 770.549C666.192 773.369 662.703 774.779 658.584 774.779C654.464 774.779 650.976 773.369 648.118 770.549C645.298 767.691 643.888 764.203 643.888 760.083C643.888 755.964 645.298 752.494 648.118 749.674C650.976 746.816 654.464 745.387 658.584 745.387C662.703 745.387 666.192 746.816 669.049 749.674C671.907 752.494 673.335 755.964 673.335 760.083C673.335 764.203 671.907 767.691 669.049 770.549ZM653.184 765.594C654.631 767.042 656.431 767.765 658.584 767.765C660.736 767.765 662.536 767.042 663.983 765.594C665.431 764.147 666.154 762.31 666.154 760.083C666.154 757.857 665.431 756.02 663.983 754.572C662.536 753.125 660.736 752.401 658.584 752.401C656.431 752.401 654.631 753.125 653.184 754.572C651.774 756.02 651.069 757.857 651.069 760.083C651.069 762.31 651.774 764.147 653.184 765.594ZM696.757 746.167H703.938V774H696.757V770.883C695.013 773.48 692.248 774.779 688.463 774.779C685.42 774.779 682.896 773.759 680.892 771.718C678.925 769.677 677.942 766.856 677.942 763.256V746.167H685.123V762.366C685.123 764.221 685.624 765.65 686.626 766.652C687.628 767.617 688.964 768.099 690.634 768.099C692.489 768.099 693.974 767.524 695.087 766.374C696.2 765.223 696.757 763.498 696.757 761.197V746.167ZM725.99 745.387C729.033 745.387 731.538 746.408 733.505 748.449C735.509 750.49 736.511 753.311 736.511 756.91V774H729.33V757.801C729.33 755.945 728.829 754.535 727.827 753.57C726.825 752.568 725.489 752.067 723.819 752.067C721.964 752.067 720.479 752.643 719.366 753.793C718.253 754.943 717.696 756.669 717.696 758.97V774H710.515V746.167H717.696V749.284C719.44 746.686 722.205 745.387 725.99 745.387ZM763.74 735.033H770.921V774H763.74V770.716C761.625 773.425 758.619 774.779 754.722 774.779C750.974 774.779 747.764 773.369 745.092 770.549C742.457 767.691 741.14 764.203 741.14 760.083C741.14 755.964 742.457 752.494 745.092 749.674C747.764 746.816 750.974 745.387 754.722 745.387C758.619 745.387 761.625 746.742 763.74 749.451V735.033ZM750.492 765.761C751.976 767.209 753.832 767.932 756.058 767.932C758.285 767.932 760.122 767.209 761.569 765.761C763.017 764.277 763.74 762.384 763.74 760.083C763.74 757.782 763.017 755.908 761.569 754.461C760.122 752.977 758.285 752.234 756.058 752.234C753.832 752.234 751.976 752.977 750.492 754.461C749.044 755.908 748.321 757.782 748.321 760.083C748.321 762.384 749.044 764.277 750.492 765.761Z" fill="white"/>
</svg>
