<svg width="1130" height="793" fill="none" xmlns="http://www.w3.org/2000/svg"><path d="M1067.31 502.433s-8.84-9.464-6.36-9.143c2.48.321 7.13 7.379 7.13 7.379s0-15.56 2.33-12.192c2.17 3.369-.47 12.192-.47 12.192s6.2-10.106 6.2-8.502c0 5.133-4.8 9.144-4.8 9.144s10.08-7.7 8.37-4.652c-1.7 3.047-8.06 6.095-8.06 6.095s11.63-2.406 7.44-.641a83.08 83.08 0 0 1-8.06 2.887h-3.26s-11.01-5.614-6.82-4.812c4.19.962 6.36 2.245 6.36 2.245Z" fill="#0FAA61"/><path d="M1083.86 432.159c0 19.472-10.84 20.885-24.34 20.885-13.51 0-24.34-1.413-24.34-20.885 0-19.471 10.83-59.984 24.34-59.984 13.5 0 24.34 40.67 24.34 59.984Z" fill="#92E3A9"/><path opacity=".5" d="M1083.86 432.159c0 19.472-10.84 20.885-24.34 20.885-13.51 0-24.34-1.413-24.34-20.885 0-19.471 10.83-59.984 24.34-59.984 13.5 0 24.34 40.67 24.34 59.984Z" fill="#fff"/><path d="m1067.84 440.953-4.08.314 10.52-7.066-7.54 3.769 1.1-2.984-3.45 4.24-4.09 2.041-.31-13.975 2.2-5.182-2.2 2.983-.16-8.165 6.6-8.794-6.75 6.753-.32-17.745-.31 11.306-4.4-4.71 4.24 6.909-.47 18.058-3.77-2.355-3.45-5.968 1.41 4.554-6.75-4.239 12.4 10.52-1.88 59.357h5.18l-1.1-46.951 1.1-.786 6.28-1.884Z" fill="#263238"/><path d="M1045.67 550.433s-9.28-9.464-6.67-9.143c2.6.321 7.49 7.379 7.49 7.379s0-15.56 2.44-12.192c2.44 3.369-.49 12.192-.49 12.192s6.51-10.106 6.51-8.502c0 5.133-5.04 9.143-5.04 9.143s10.58-7.699 8.79-4.651c-1.79 3.047-8.47 6.095-8.47 6.095s12.21-2.406 7.82-.641a89.979 89.979 0 0 1-8.47 2.887h-3.42s-11.56-5.614-7.16-4.812c4.23.962 6.67 2.245 6.67 2.245Z" fill="#0FAA61"/><path d="M1123.52 257.633c-13.41-48.188-102.48 4.242-102.48 4.242l23.24-42.249c2.72-4.242 5.26-8.654 7.47-13.405 11.7-26.13 11.53-54.296 0-78.56-3.23-14.761-12.9-35.97-39.54-59.216C961.479 24.329 792.142-5.704 743.106.913c-49.036 6.618 44.625 27.318 44.625 27.318h-7.466c-142.698-15.1-286.413-17.137-428.941-14.083-35.801.679-71.603 1.867-106.556 7.975-10.011 1.697-20.87 4.412-26.809 12.556-26.639 36.14 82.293 39.534 99.26 38.856-74.827 9.671-157.798 12.725-227.365 41.57-9.672 4.073-19.344 8.824-26.64 16.289-7.296 7.466-12.047 17.986-10.52 28.675 4.751 30.881 47.34 40.044 71.434 46.831 0 0-138.625 92.134-122.336 138.965 6.787 19.343 16.798 39.704 35.462 59.726-10.69 13.404-20.022 27.317-27.318 42.249-4.411 8.993-10.18 21.549-5.26 31.899 25.452 53.108 408.41 235.51 715.354 183.589 81.614-13.913 162.719-36.65 234.153-77.202C1025.28 545.913 1097.73 479.4 1115.71 395.58c.51-2.715 1.02-5.43 1.36-7.975 11.03-38.856 17.65-89.759 6.45-129.972Z" fill="#EFEFEF" fill-opacity=".04"/><path d="M875.455 205.033s1.697-5.26 10.35-6.957c8.654-1.696 19.004 7.806 19.004 7.806s6.957-13.914 13.913-14.762c6.957-.849 14.762 5.26 14.762 5.26" stroke="#fff" stroke-opacity=".36" stroke-miterlimit="10"/><path d="M852.889 237.781s1.696-5.26 10.35-6.957c8.653-1.697 19.004 7.805 19.004 7.805s6.956-13.913 13.913-14.762c6.957-.848 14.762 5.26 14.762 5.26" stroke="#fff" stroke-opacity=".45" stroke-miterlimit="10"/><path d="M935.182 238.12s1.357-3.903 7.974-5.26c6.618-1.357 14.423 5.939 14.423 5.939s5.26-10.52 10.52-11.199c5.26-.679 11.198 3.903 11.198 3.903m51.923 41.4s.85-2.545 5.26-3.393c4.24-.848 9.5 3.903 9.5 3.903s3.39-6.957 6.96-7.297c3.39-.509 7.29 2.546 7.29 2.546" stroke="#fff" stroke-opacity=".36" stroke-miterlimit="10"/><path d="M569.925 195.726c-8.994-40.107-55.321-69.89-95.708-64.306-10.012 1.354-19.854 5.246-27.491 12.184-10.351 9.477-7.805 20.138-12.896 31.984-1.358 3.215-4.243 6.092-7.637 6.769-10.012 1.692-18.157-8.292-28.339-8.292-7.636 0-17.309 4.061-21.551 10.661-3.903 6.092-1.188 16.753-8.315 20.815-7.976 4.569-17.648-4.062-26.133-1.015-10.691 3.892-5.77 11.676-9.673 16.414-3.903 4.908-11.708 2.877-22.399 1.862-10.691-1.016-19.345 11.676-19.345 11.676h336.844s2.885-4.907-9.673-24.199c-12.557-19.291-30.036-5.753-37.842-5.753-7.806-.17-9.842-8.8-9.842-8.8Z" stroke="#fff" stroke-opacity=".49" stroke-miterlimit="10"/><path d="M604.769 128.722c-3.29-14.883-20.522-26.005-35.405-23.812-3.76.47-7.363 1.88-10.183 4.543-3.76 3.446-2.976 7.52-4.856 11.906-.47 1.253-1.567 2.35-2.82 2.507-3.76.626-6.736-3.134-10.496-3.134-2.82 0-6.423 1.567-7.99 3.917-1.41 2.193-.47 6.266-3.133 7.676-2.977 1.723-6.58-1.566-9.713-.313-3.916 1.41-2.193 4.386-3.603 6.11-1.41 1.723-4.387 1.096-8.303.783-3.917-.313-7.206 4.386-7.206 4.386h124.701s1.096-1.723-3.603-8.929c-4.7-7.207-11.123-2.193-14.1-2.193-2.506-.157-3.29-3.447-3.29-3.447Z" stroke="#fff" stroke-opacity=".45" stroke-miterlimit="10"/><path d="M952.668 328.812c-3.56-16.224-22.209-28.349-38.314-25.958-4.069.513-7.968 2.05-11.02 4.953-4.069 3.757-3.221 8.197-5.255 12.979-.509 1.366-1.696 2.561-3.052 2.732-4.069.683-7.29-3.415-11.359-3.415-3.051 0-6.951 1.707-8.646 4.269-1.526 2.391-.508 6.831-3.39 8.368-3.222 1.878-7.121-1.708-10.512-.342-4.238 1.537-2.373 4.782-3.899 6.661-1.526 1.878-4.747 1.195-8.985.853-4.238-.341-7.798 4.782-7.798 4.782h134.948s1.186-1.878-3.9-9.734-12.036-2.391-15.258-2.391c-2.712-.341-3.56-3.757-3.56-3.757Zm-217.09-17.605c-5.437-24.78-33.979-43.11-58.783-39.546-6.116.849-12.232 3.225-16.819 7.468-6.286 5.771-4.757 12.39-7.985 19.688-.85 2.037-2.549 3.734-4.757 4.074-6.116 1.018-11.213-5.092-17.329-5.092-4.757 0-10.704 2.546-13.252 6.619-2.378 3.734-.68 10.354-5.097 12.73-4.927 2.715-10.873-2.546-16.14-.679-6.625 2.376-3.567 7.128-5.946 10.184-2.378 3.055-7.135 1.867-13.761 1.188-6.626-.679-11.893 7.128-11.893 7.128h207.27s1.868-3.055-5.947-14.936-18.518-3.564-23.275-3.564c-5.097 0-6.286-5.262-6.286-5.262Z" stroke="#fff" stroke-opacity=".47" stroke-miterlimit="10"/><path d="M784.616 596.035s-12.363-13.276-8.806-12.752c3.387.349 9.991 10.306 9.991 10.306s.17-21.835 3.218-16.944c3.048 4.716-.677 17.119-.677 17.119s8.806-14.149 8.806-11.879c0 7.162-6.774 12.752-6.774 12.752s14.056-10.83 11.854-6.463c-2.371 4.367-11.346 8.559-11.346 8.559s16.257-3.319 10.499-1.048c-5.757 2.446-11.346 4.018-11.346 4.018h-4.572s-15.411-7.861-9.653-6.813c5.588 1.048 8.806 3.145 8.806 3.145Zm163.127-40.166s-9.55-10.227-6.869-9.88c2.681.346 7.707 7.973 7.707 7.973s0-16.813 2.513-13.173c2.345 3.64-.503 13.173-.503 13.173s6.702-10.92 6.702-9.187c0 5.547-5.194 9.88-5.194 9.88s10.89-8.32 9.047-5.026c-1.843 3.293-8.712 6.586-8.712 6.586s12.566-2.6 8.042-.693a88.984 88.984 0 0 1-8.712 3.12h-3.518s-11.896-6.067-7.372-5.2c4.524.867 6.869 2.427 6.869 2.427Z" fill="#263238"/><path d="M906.068 601.697s-11.494-11.931-8.282-11.59c3.211.341 9.296 9.374 9.296 9.374s0-19.77 2.874-15.339c2.873 4.261-.676 15.51-.676 15.51s8.113-12.783 8.113-10.738c0 6.477-6.254 11.59-6.254 11.59s13.015-9.715 10.987-5.795c-2.197 3.92-10.48 7.67-10.48 7.67s15.044-3.068 9.804-.853a99.082 99.082 0 0 1-10.48 3.58h-4.226s-14.198-7.159-8.958-6.136c5.409 1.022 8.282 2.727 8.282 2.727Z" fill="#92E3A9"/><path d="M668.748 549.815 577.48 435.793l-19.927 17.816-100.09-167.979-87.009 21.718-26.011-54.296-25.251-1.527-48.067-105.369-71.646 72.961-34.529-13.744L39 348.579" stroke="#fff" stroke-opacity=".08" stroke-miterlimit="10"/><path d="m323.754 321.262-7.606 2.205m54.154-16.288-38.029 11.538m-105.564-60.405 21.296-35.123-1.521-12.047 24.49-55.314" stroke="#fff" stroke-opacity=".09" stroke-miterlimit="10"/><path d="m217.734 273.074 5.324-8.823" stroke="#fff" stroke-opacity=".22" stroke-miterlimit="10"/><path d="m184.571 293.774-34.53 52.261m16.584-134.893 8.67 21.719 19.471 17.646-2.282 31.39-4.715 7.126m156.672-35.971-17.949 19.173-6.541-12.047" stroke="#fff" stroke-opacity=".09" stroke-miterlimit="10"/><path d="m1072 467.692-139.943-110.12-42.592 66.853-52.479-19.513-81.228 126.918-52.479-12.556-26.164 25.112" stroke="#fff" stroke-opacity=".62" stroke-miterlimit="10"/><path d="m932.052 357.572-16.732 81.615-19.623-9.672m-58.257-19.682-41.071 133.365-28.14-5.6" stroke="#fff" stroke-miterlimit="10"/><path d="M864.587 400.161c-40.553 0-73.64 32.748-73.64 73.13 0 18.665 7.127 35.802 18.665 48.697 5.26-.848 15.101-1.357 25.79 2.376 14.253 4.921 23.076 12.726 24.943 14.592h6.617c1.867-1.866 10.859-9.841 24.942-14.592 11.708-3.903 22.228-3.054 27.149-2.206 11.707-12.895 18.834-30.033 18.834-48.867.169-40.382-32.748-73.13-73.3-73.13Z" fill="#0FAA61"/><path d="M898.861 502.646a126.237 126.237 0 0 0-6.787 3.393c-2.206 1.188-4.411 2.545-6.448 3.903-.848.509-1.527 1.018-2.205 1.696l12.047-22.397-16.459 25.961c-1.697 1.357-3.393 2.714-4.92 4.072-2.715 2.375-5.26 4.751-7.806 7.126l-.848-24.433 17.307-26.3-17.477 22.737-.678-21.719-1.188 24.433-1.188 24.434c-2.206-2.036-4.411-4.072-6.787-6.109l-5.599-4.581-15.61-26.639 11.538 23.585c-.679-.509-1.358-1.018-2.036-1.357-2.037-1.358-4.242-2.715-6.448-3.903-2.206-1.188-4.412-2.375-6.787-3.393-4.581-2.206-9.163-4.242-13.914-5.939 4.582 2.036 8.993 4.242 13.405 6.617 2.206 1.188 4.242 2.545 6.447 3.733 2.037 1.358 4.073 2.715 5.939 4.242 3.733 3.054 7.296 6.278 10.859 9.671a214.817 214.817 0 0 1 8.654 9.163l-1.527 31.051h7.296l-1.018-29.694a141.737 141.737 0 0 1 9.841-10.35c3.393-3.393 6.957-6.617 10.859-9.671 1.867-1.527 3.903-2.885 5.939-4.242 2.036-1.358 4.242-2.545 6.448-3.733 4.411-2.376 8.823-4.751 13.404-6.617-5.09 1.018-9.841 3.054-14.253 5.26Z" fill="#263238"/><path d="M299.742 500.439c0 21.04-11.708 22.567-26.3 22.567s-26.299-1.527-26.299-22.567 11.707-64.816 26.299-64.816c14.592 0 26.3 43.776 26.3 64.816Z" fill="#0FAA61"/><path d="m282.269 509.941-4.242.34 11.368-7.636-8.145 4.072 1.019-3.223-3.564 4.581-4.411 2.206-.34-15.102 2.376-5.599-2.376 3.224-.169-8.823 7.126-9.672-7.296 7.466-.339-19.173-.509 12.216-4.582-5.09 4.582 7.466-.679 19.513-3.903-2.546-3.732-6.447 1.527 4.92-7.296-4.581 13.404 11.368-2.036 64.138h5.43l-1.188-50.733 1.357-.849 6.618-2.036Z" fill="#263238"/><path d="M1006.95 428.158c0 41.061-23.073 44.115-51.409 44.115s-51.412-3.054-51.412-44.115c0-41.062 23.076-126.748 51.412-126.748s51.409 85.686 51.409 126.748Z" fill="#2ECC82"/><path opacity=".31" d="M1006.95 428.158c0 41.061-23.073 44.115-51.409 44.115s-51.412-3.054-51.412-44.115c0-41.062 23.076-126.748 51.412-126.748s51.409 85.686 51.409 126.748Z" fill="#fff"/><path d="m973.019 446.822-8.484.509 22.058-14.932-15.78 7.975 2.206-6.108-7.296 8.653-8.484 4.412-.679-29.524 4.582-10.859-4.751 6.108-.34-17.137 14.084-18.664-14.084 14.422-.848-37.498-.848 23.924-8.993-10.011 8.823 14.762-1.188 38.007-7.805-5.09-7.126-12.726 2.884 10.011-14.083-9.332 25.961 22.567-3.903 125.051h10.69l-2.206-99.26 2.375-1.527 13.235-3.733Z" fill="#263238"/><path d="M175.54 378.952c-40.553 0-73.64 32.747-73.64 73.13 0 18.664 7.127 35.802 18.665 48.697 5.26-.848 15.101-1.357 25.79 2.375 14.253 4.921 23.076 12.726 24.943 14.593h6.617c1.867-1.867 10.859-9.842 24.943-14.593 11.707-3.902 22.227-3.054 27.148-2.205 11.707-12.896 18.834-30.033 18.834-48.867.169-40.383-32.748-73.13-73.3-73.13Z" fill="#2ECC82"/><path opacity=".33" d="M175.54 378.952c-40.553 0-73.64 32.747-73.64 73.13 0 18.664 7.127 35.802 18.665 48.697 5.26-.848 15.101-1.357 25.79 2.375 14.253 4.921 23.076 12.726 24.943 14.593h6.617c1.867-1.867 10.859-9.842 24.943-14.593 11.707-3.902 22.227-3.054 27.148-2.205 11.707-12.896 18.834-30.033 18.834-48.867.169-40.383-32.748-73.13-73.3-73.13Z" fill="#fff"/><path d="M209.642 481.266a126.631 126.631 0 0 0-6.787 3.394c-2.205 1.187-4.411 2.545-6.447 3.902-.849.509-1.527 1.018-2.206 1.697l12.047-22.397-16.459 25.96c-1.696 1.358-3.393 2.715-4.92 4.072-2.715 2.376-5.26 4.751-7.805 7.127l-.849-24.434 17.307-26.299-17.476 22.736-.679-21.718-1.188 24.433-1.188 24.433c-2.205-2.036-4.411-4.072-6.787-6.108l-5.599-4.581-15.61-26.639 11.538 23.585c-.679-.509-1.358-1.018-2.036-1.358-2.036-1.357-4.242-2.715-6.448-3.902-2.206-1.188-4.411-2.376-6.787-3.394-4.581-2.206-9.162-4.242-13.913-5.938 4.581 2.036 8.992 4.241 13.404 6.617 2.206 1.188 4.242 2.545 6.448 3.733 2.036 1.357 4.072 2.715 5.938 4.242 3.733 3.054 7.296 6.278 10.86 9.671a214.818 214.818 0 0 1 8.653 9.163l-1.527 31.05h7.296l-1.018-29.693a141.951 141.951 0 0 1 9.841-10.35c3.394-3.394 6.957-6.617 10.859-9.672 1.867-1.527 3.903-2.884 5.939-4.242 2.036-1.357 4.242-2.545 6.448-3.732 4.411-2.376 8.823-4.751 13.404-6.618-5.09 1.188-9.671 3.224-14.253 5.26Z" fill="#263238"/><path d="M379.652 596.985v-67.361H292.1v-43.098l75.166-178.16h64.138v179.178h27.826v42.08h-27.826v67.361h-51.752Zm-44.115-109.271h44.115V365.208l-44.115 122.506Zm226.857 109.441c-17.307 0-31.729-3.564-43.098-10.69-11.368-7.126-20.021-16.968-25.621-29.354-5.769-12.386-8.484-26.809-8.484-43.267V384.551c0-16.798 2.715-31.56 8.145-44.286 5.429-12.725 13.913-22.567 25.282-29.693 11.368-7.126 25.96-10.69 43.776-10.69 17.646 0 32.069 3.564 43.267 10.69 11.199 7.126 19.683 16.968 25.112 29.693 5.43 12.726 8.145 27.488 8.145 44.286v129.293c0 16.458-2.885 30.881-8.484 43.267-5.769 12.386-14.253 22.228-25.621 29.354-11.368 7.126-25.451 10.69-42.419 10.69Zm0-48.358c6.448 0 11.029-2.036 13.913-6.108 2.885-4.073 4.751-8.823 5.769-14.423 1.018-5.599 1.358-10.689 1.358-15.44V385.738c0-5.259-.34-10.689-1.188-16.458-.848-5.769-2.715-10.69-5.599-14.762-2.885-4.072-7.636-6.278-14.253-6.278s-11.538 2.036-14.422 6.278c-3.055 4.242-4.921 9.163-5.769 14.762a112.114 112.114 0 0 0-1.188 16.458v127.088c0 4.751.509 9.841 1.357 15.44 1.018 5.6 2.885 10.35 6.109 14.423 3.223 4.072 7.805 6.108 13.913 6.108Zm194.11 48.188v-67.361h-87.553v-43.098l75.167-178.16h64.137v179.178h27.827v42.08h-27.827v67.361h-51.751Zm-44.116-109.271h44.116V365.208l-44.116 122.506Z" fill="#fff"/><path d="M1080 472.443C971.288 537.09 779.147 580.187 560.301 580.187c-242.073 0-451.28-52.599-551.301-128.953" stroke="#fff" stroke-opacity=".25" stroke-miterlimit="10"/><path d="M1079.74 440.883c0 42.928-24.09 46.152-53.79 46.152-29.69 0-53.784-3.224-53.784-46.152s24.094-132.517 53.784-132.517c29.7 0 53.79 89.589 53.79 132.517Z" fill="#0FAA61"/><path d="m1044.11 460.396-8.83.509 23.08-15.441-16.46 8.314 2.21-6.617-7.64 9.332-8.82 4.412-.68-30.881 4.75-11.369-4.92 6.448-.34-17.816 14.76-19.682-14.93 15.101-.85-39.195-.85 25.112-9.33-10.52 9.33 15.44-1.35 39.705-8.15-5.26-7.46-13.235 2.88 10.18-14.592-9.501 27.152 23.415-4.08 130.82h11.2l-2.37-103.672 2.54-1.697 13.75-3.902Z" fill="#263238"/><path d="M1022.39 570.855s-19.85-20.531-14.25-19.852c5.6.679 15.95 15.949 15.95 15.949s.17-33.935 5.09-26.469c4.92 7.466-1.19 26.639-1.19 26.639s14.08-22.058 14.08-18.495c-.17 11.199-10.86 19.852-10.86 19.852s22.57-16.797 19.01-10.01c-3.74 6.787-18.16 13.234-18.16 13.234s26.13-5.26 16.8-1.527c-9.33 3.733-18.15 6.278-18.15 6.278h-7.3s-24.604-12.386-15.44-10.52c9.33 1.867 14.42 4.921 14.42 4.921Z" fill="#F7F7F7"/><path d="M72.38 545.404s-17.138-17.816-12.387-17.307c4.75.509 13.744 13.743 13.744 13.743s.17-29.354 4.411-22.906c4.242 6.448-1.018 23.076-1.018 23.076s12.217-19.004 12.217-15.949c0 9.671-9.502 17.137-9.502 17.137s19.513-14.592 16.459-8.654c-3.224 5.939-15.78 11.369-15.78 11.369s22.567-4.582 14.592-1.358c-7.975 3.224-15.61 5.43-15.61 5.43h-6.278s-21.38-10.69-13.235-9.163c8.144 1.867 12.386 4.582 12.386 4.582Z" fill="#EFEFEF"/><path d="M134.483 417.468c0 42.928-24.094 46.152-53.788 46.152-29.693 0-53.787-3.224-53.787-46.152s24.094-132.686 53.787-132.686c29.694 0 53.788 89.758 53.788 132.686Z" fill="#0FAA61"/><path d="m98.85 436.981-8.993.679 23.246-15.611-16.629 8.314 2.376-6.447-7.636 9.162-8.823 4.412-.678-30.711 4.58-11.538-4.75 6.447-.34-17.816 14.593-19.682-14.762 15.101-.849-39.365-.848 25.282-9.502-10.52 9.332 15.271-1.187 40.043-8.314-5.429-7.466-13.235 3.054 10.35-14.762-9.671 27.318 23.415-4.242 130.99h11.199L82.56 442.58l2.545-1.697 13.744-3.902Zm161.604 152.83s-17.234-17.46-12.456-16.961c4.778.499 13.822 13.469 13.822 13.469s.17-28.766 4.436-22.448c4.266 6.319-1.024 22.614-1.024 22.614s12.287-18.623 12.287-15.63c0 9.478-9.556 16.794-9.556 16.794s19.623-14.3 16.552-8.48c-3.242 5.819-15.87 11.14-15.87 11.14s22.695-4.489 14.675-1.33-15.699 5.321-15.699 5.321h-6.313s-21.501-10.475-13.31-8.979c8.19 1.829 12.456 4.49 12.456 4.49Z" fill="#263238"/><path d="M595.522 602.685s-12.362-12.673-8.806-12.173c3.387.334 9.992 9.838 9.992 9.838s.169-20.842 3.217-16.174c3.048 4.502-.677 16.341-.677 16.341s8.806-13.506 8.806-11.338c0 6.836-6.774 12.172-6.774 12.172s14.056-10.338 11.854-6.17c-2.37 4.169-11.346 8.171-11.346 8.171s16.258-3.169 10.5-1.001c-5.758 2.334-11.347 3.835-11.347 3.835h-4.572s-15.411-7.503-9.653-6.503c5.758 1.167 8.806 3.002 8.806 3.002Z" fill="#fff"/><path d="M427.436 602.777s-16.83-17.459-12.164-16.96c4.665.499 13.497 13.468 13.497 13.468s.166-28.766 4.332-22.447c4.166 6.318-.999 22.614-.999 22.614s11.997-18.623 11.997-15.63c0 9.477-9.331 16.794-9.331 16.794s19.162-14.3 16.163-8.481c-3.166 5.82-15.497 11.141-15.497 11.141s22.162-4.489 14.33-1.33c-7.831 3.159-15.33 5.321-15.33 5.321h-5.998s-20.996-10.476-12.998-8.979c7.832 1.829 11.998 4.489 11.998 4.489Zm-123.918-11.886s-11.973-11.93-8.627-11.589c3.345.341 9.684 9.374 9.684 9.374s0-19.771 2.993-15.339c2.993 4.26-.704 15.509-.704 15.509s8.451-12.782 8.451-10.737c0 6.476-6.514 11.589-6.514 11.589s13.557-9.714 11.444-5.794c-2.289 3.92-10.916 7.669-10.916 7.669s15.67-3.068 10.212-.852c-5.634 2.216-10.917 3.579-10.917 3.579h-4.401s-14.79-7.158-9.332-6.136c5.634.853 8.627 2.727 8.627 2.727Z" fill="#92E3A9"/><path d="M713.915 585.108s2.205-2.036 4.072-2.036c1.866 0 7.635 2.714 7.635 2.714s2.206 3.564 2.545 3.733c.17.17 3.054 1.358 3.224 1.867l.679 2.036h-17.307l-3.224-8.484 2.376.17Z" fill="#fff" stroke="#fff" stroke-miterlimit="10"/><path d="m717.99 583.072-.169 1.696s4.411 2.546 4.411 3.564c-.169.848-1.018 3.054-1.018 3.054l2.206 2.375h-12.047l.848-7.126c.17 0 2.715-3.733 5.769-3.563Z" fill="#263238"/><path d="M691.351 584.09s8.653-13.065 10.69-13.235c2.036-.17 6.108 1.527 7.635 4.072 1.527 2.546 3.054 7.975 3.054 8.315.17.339.509.509 2.885 4.411 2.375 3.903 2.205 5.939 2.205 5.939h-33.595s.678-3.394 2.036-5.43c1.187-2.036 4.072-2.715 4.072-2.715l1.018-1.357Z" fill="#fff" stroke="#fff" stroke-miterlimit="10"/><path d="M704.584 593.422s-.848-2.206-1.018-2.545c-.169-.34-.169-3.394-.339-4.581-.339-1.188-2.885-5.091-2.885-5.091l1.867-5.429-.849-.679 1.527-3.903-.848-.339c-2.036.339-10.689 13.235-10.689 13.235l-.849 1.527s-2.884.679-4.072 2.715c-1.018 1.696-1.697 4.411-1.867 5.09h20.022Z" fill="#C4B0D1"/><path d="M379.147 735.033c3.749 0 6.903 1.262 9.464 3.786 2.56 2.523 3.841 5.622 3.841 9.296 0 3.674-1.281 6.773-3.841 9.296-2.561 2.524-5.715 3.786-9.464 3.786H372.3V774h-7.682v-38.967h14.529Zm0 18.983c1.633 0 2.988-.557 4.064-1.67 1.076-1.151 1.614-2.561 1.614-4.231 0-1.707-.538-3.117-1.614-4.231-1.076-1.113-2.431-1.67-4.064-1.67H372.3v11.802h6.847Zm37.277-7.849h7.181V774h-7.181v-3.284c-2.153 2.709-5.177 4.063-9.074 4.063-3.711 0-6.902-1.41-9.574-4.23-2.635-2.858-3.953-6.346-3.953-10.466 0-4.119 1.318-7.589 3.953-10.409 2.672-2.858 5.863-4.287 9.574-4.287 3.897 0 6.921 1.355 9.074 4.064v-3.284Zm-13.249 19.594c1.448 1.448 3.285 2.171 5.511 2.171 2.227 0 4.064-.723 5.511-2.171 1.485-1.484 2.227-3.377 2.227-5.678s-.742-4.175-2.227-5.622c-1.447-1.484-3.284-2.227-5.511-2.227-2.226 0-4.063.743-5.511 2.227-1.447 1.447-2.171 3.321-2.171 5.622 0 2.301.724 4.194 2.171 5.678Zm48.262-19.594h7.014v26.497c0 4.305-1.429 7.589-4.287 9.853-2.82 2.264-6.234 3.396-10.242 3.396-3.006 0-5.66-.576-7.96-1.726-2.264-1.15-4.008-2.839-5.233-5.066l6.123-3.507c1.41 2.598 3.841 3.897 7.293 3.897 2.263 0 4.045-.594 5.343-1.781 1.299-1.188 1.949-2.876 1.949-5.066v-3.006c-2.116 2.82-5.084 4.231-8.907 4.231-3.934 0-7.236-1.373-9.908-4.12-2.635-2.783-3.953-6.16-3.953-10.131 0-3.934 1.336-7.292 4.008-10.076 2.672-2.783 5.957-4.175 9.853-4.175 3.823 0 6.791 1.411 8.907 4.231v-3.451Zm-13.416 18.982c1.485 1.41 3.359 2.115 5.623 2.115 2.263 0 4.119-.705 5.566-2.115 1.485-1.447 2.227-3.284 2.227-5.511 0-2.19-.742-3.989-2.227-5.4-1.447-1.447-3.303-2.171-5.566-2.171-2.264 0-4.138.724-5.623 2.171-1.447 1.411-2.171 3.21-2.171 5.4 0 2.227.724 4.064 2.171 5.511Zm33.009-2.115c.965 3.488 3.581 5.232 7.849 5.232 2.746 0 4.825-.927 6.235-2.783l5.789 3.34c-2.746 3.971-6.791 5.956-12.135 5.956-4.602 0-8.295-1.391-11.078-4.175-2.783-2.783-4.175-6.29-4.175-10.521 0-4.193 1.373-7.682 4.119-10.465 2.747-2.82 6.272-4.231 10.577-4.231 4.082 0 7.441 1.411 10.076 4.231 2.672 2.82 4.008 6.309 4.008 10.465 0 .928-.093 1.912-.279 2.951H471.03Zm-.111-5.567h14.195c-.408-1.893-1.262-3.303-2.561-4.231-1.262-.927-2.709-1.391-4.342-1.391-1.93 0-3.525.501-4.787 1.503-1.262.965-2.097 2.338-2.505 4.119Zm63.184-22.434h7.682V774h-5.845l-16.7-23.825V774h-7.682v-38.967h5.845l16.7 23.77v-23.77Zm38.291 35.516c-2.858 2.82-6.346 4.23-10.466 4.23-4.119 0-7.607-1.41-10.465-4.23-2.82-2.858-4.231-6.346-4.231-10.466 0-4.119 1.411-7.589 4.231-10.409 2.858-2.858 6.346-4.287 10.465-4.287 4.12 0 7.608 1.429 10.466 4.287 2.857 2.82 4.286 6.29 4.286 10.409 0 4.12-1.429 7.608-4.286 10.466Zm-15.865-4.955c1.447 1.448 3.247 2.171 5.399 2.171 2.153 0 3.953-.723 5.4-2.171 1.447-1.447 2.171-3.284 2.171-5.511 0-2.226-.724-4.063-2.171-5.511-1.447-1.447-3.247-2.171-5.4-2.171-2.152 0-3.952.724-5.399 2.171-1.411 1.448-2.116 3.285-2.116 5.511 0 2.227.705 4.064 2.116 5.511Zm40.525-12.525h-6.29v11.579c0 .965.241 1.67.724 2.115.482.446 1.187.705 2.115.78.928.037 2.078.018 3.451-.056V774c-4.935.557-8.424.093-10.465-1.392-2.004-1.484-3.006-4.138-3.006-7.96v-11.579h-4.843v-6.902h4.843v-5.623l7.181-2.171v7.794h6.29v6.902Zm43.018-10.688h-15.587v9.241h15.141v7.348h-15.141V774h-7.682v-38.967h23.269v7.348Zm28.977 28.168c-2.857 2.82-6.346 4.23-10.465 4.23-4.12 0-7.608-1.41-10.466-4.23-2.82-2.858-4.23-6.346-4.23-10.466 0-4.119 1.41-7.589 4.23-10.409 2.858-2.858 6.346-4.287 10.466-4.287 4.119 0 7.608 1.429 10.465 4.287 2.858 2.82 4.286 6.29 4.286 10.409 0 4.12-1.428 7.608-4.286 10.466Zm-15.865-4.955c1.447 1.448 3.247 2.171 5.4 2.171 2.152 0 3.952-.723 5.399-2.171 1.448-1.447 2.171-3.284 2.171-5.511 0-2.226-.723-4.063-2.171-5.511-1.447-1.447-3.247-2.171-5.399-2.171-2.153 0-3.953.724-5.4 2.171-1.41 1.448-2.115 3.285-2.115 5.511 0 2.227.705 4.064 2.115 5.511Zm43.573-19.427h7.181V774h-7.181v-3.117c-1.744 2.597-4.509 3.896-8.294 3.896-3.043 0-5.567-1.02-7.571-3.061-1.967-2.041-2.95-4.862-2.95-8.462v-17.089h7.181v16.199c0 1.855.501 3.284 1.503 4.286 1.002.965 2.338 1.447 4.008 1.447 1.855 0 3.34-.575 4.453-1.725 1.113-1.151 1.67-2.876 1.67-5.177v-15.03Zm29.233-.78c3.043 0 5.548 1.021 7.515 3.062 2.004 2.041 3.006 4.862 3.006 8.461V774h-7.181v-16.199c0-1.856-.501-3.266-1.503-4.231-1.002-1.002-2.338-1.503-4.008-1.503-1.855 0-3.34.576-4.453 1.726-1.113 1.15-1.67 2.876-1.67 5.177V774h-7.181v-27.833h7.181v3.117c1.744-2.598 4.509-3.897 8.294-3.897Zm37.75-10.354h7.181V774h-7.181v-3.284c-2.115 2.709-5.121 4.063-9.018 4.063-3.748 0-6.958-1.41-9.63-4.23-2.635-2.858-3.952-6.346-3.952-10.466 0-4.119 1.317-7.589 3.952-10.409 2.672-2.858 5.882-4.287 9.63-4.287 3.897 0 6.903 1.355 9.018 4.064v-14.418Zm-13.248 30.728c1.484 1.448 3.34 2.171 5.566 2.171 2.227 0 4.064-.723 5.511-2.171 1.448-1.484 2.171-3.377 2.171-5.678s-.723-4.175-2.171-5.622c-1.447-1.484-3.284-2.227-5.511-2.227-2.226 0-4.082.743-5.566 2.227-1.448 1.447-2.171 3.321-2.171 5.622 0 2.301.723 4.194 2.171 5.678Z" fill="#fff"/></svg>