<svg xmlns="http://www.w3.org/2000/svg" width="70" height="65" fill="none"><path fill="#181818" d="M34.837 48.173H4.736c-2.951 0-4.532-1.582-4.532-4.553V4.73C.204 1.742 1.748.184 4.736.184c20.12-.006 40.24-.006 60.365 0 2.981 0 4.532 1.565 4.532 4.548V43.62c0 2.965-1.587 4.553-4.532 4.553H34.837Zm.072-2.352h30.095c1.81 0 2.306-.491 2.306-2.292V4.81c0-1.752-.525-2.285-2.24-2.285H4.803c-1.738 0-2.263.527-2.263 2.261v38.799c0 1.722.507 2.237 2.203 2.237H34.91Zm-3.476 4.019h6.958v11.503h-6.958V49.84Zm8.715 11.788v-3.183c4.544 1.376 9.021 2.734 13.656 4.135-.694.812-1.322 1.57-1.973 2.298-.09.103-.35.133-.495.085-3.73-1.098-7.447-2.213-11.188-3.335ZM29.72 58.445c0 1.018.018 1.934-.019 2.85-.006.163-.235.4-.404.454a1072.595 1072.595 0 0 1-10.718 3.202c-.18.054-.5-.006-.621-.134-.634-.697-1.225-1.43-1.901-2.231 4.586-1.389 9.07-2.747 13.663-4.141Z"/><path fill="#2ECC82" d="M65.608 4.221V44.16H4.228V4.22h61.38ZM7.65 22.114h-.066c.072 1.637-.042 3.304.26 4.899.513 2.722 3.21 4.602 5.805 4.31 3.005-.339 5.136-2.643 5.154-5.626.018-2.486 0-4.972.006-7.458 0-.594-.043-1.176-.809-1.194-.79-.018-.82.57-.82 1.158.005 2.352.011 4.705-.007 7.064-.006.551-.054 1.115-.211 1.643-.55 1.855-2.36 2.983-4.279 2.722-1.925-.26-3.337-1.819-3.367-3.79-.03-2.564-.012-5.129-.012-7.694 0-.576-.12-1.097-.827-1.103-.724-.006-.82.527-.82 1.097-.013 1.328-.007 2.65-.007 3.972Zm44.217.054h.006c0-1.43.006-2.855 0-4.286 0-.492-.235-.813-.748-.837-.55-.024-.81.303-.87.818-.018.182-.006.37-.006.558 0 2.383.006 4.76-.006 7.143 0 .34-.012.69-.084 1.024-.447 1.94-2.227 3.274-4.11 3.099-2.112-.2-3.639-1.813-3.669-3.954-.036-2.54-.012-5.08-.006-7.615 0-.558-.096-1.037-.766-1.061-.712-.018-.857.46-.851 1.061.006 2.595-.018 5.184.012 7.78.03 2.964 2.51 5.414 5.474 5.468 2.968.049 5.51-2.328 5.618-5.3.042-1.303.006-2.6.006-3.898Zm-26.444.4c-.17-.266-.26-.394-.338-.527-.887-1.467-1.78-2.929-2.662-4.396-.29-.485-.688-.806-1.23-.515-.598.327-.502.843-.188 1.358 1.032 1.686 2.028 3.395 3.09 5.063.302.479.272.806-.018 1.267-.881 1.376-1.708 2.789-2.553 4.183-.23.383-.555.752-.646 1.165-.066.309.067.842.29.988.224.145.7-.018 1.02-.158.181-.079.272-.376.392-.576l2.83-4.656c1.039 1.697 2.004 3.292 2.976 4.887.295.485.633.921 1.255.551.646-.388.44-.921.127-1.43-.96-1.577-1.883-3.178-2.89-4.718-.417-.636-.435-1.097-.007-1.746 1.044-1.582 1.985-3.232 2.97-4.857.295-.485.367-.994-.182-1.31-.525-.296-.96-.054-1.231.474-.109.212-.241.406-.362.612-.863 1.413-1.72 2.826-2.643 4.341ZM57.31 18.67v11.06c-.736 0-1.418.011-2.094 0-.55-.013-.977.2-.99.775-.012.613.429.867 1.002.867h5.926c.567 0 1.014-.212 1.002-.855-.012-.66-.483-.8-1.044-.788-.676.012-1.346 0-2.04 0V18.67c.742 0 1.43.007 2.112 0 .574-.005 1.002-.242.978-.878-.024-.607-.453-.764-.99-.764-1.973.006-3.946.006-5.926 0-.58 0-1.032.194-1.014.824.019.613.483.825 1.05.819.652-.006 1.31 0 2.028 0Zm-18.732-5.105c-.187-.17-.416-.51-.724-.613-.465-.158-.808.121-.935.607a618.237 618.237 0 0 0-.966 3.589c-1.514 5.675-3.023 11.356-4.544 17.025-.139.522-.139.946.386 1.213.555.285.996-.049 1.231-.91 1.787-6.693 3.573-13.387 5.36-20.075.054-.218.096-.424.192-.836Z"/></svg>