<svg xmlns="http://www.w3.org/2000/svg" width="58" height="68" fill="none"><path fill="#2ECC82" d="M11.409 50.804c0 1.552 1.283 2.822 2.852 2.822h2.852v9.879c0 2.342 1.91 4.233 4.278 4.233 2.367 0 4.278-1.89 4.278-4.233v-9.879h5.705v9.879c0 2.342 1.91 4.233 4.278 4.233 2.367 0 4.278-1.89 4.278-4.233v-9.879h2.852c1.569 0 2.852-1.27 2.852-2.822V22.579H11.41v28.225Zm-7.13-28.225C1.91 22.58 0 24.471 0 26.813V46.57c0 2.343 1.91 4.234 4.278 4.234 2.367 0 4.278-1.891 4.278-4.234V26.813c0-2.342-1.91-4.233-4.278-4.233Zm48.486 0c-2.368 0-4.279 1.892-4.279 4.234V46.57c0 2.343 1.911 4.234 4.279 4.234 2.367 0 4.278-1.891 4.278-4.234V26.813c0-2.342-1.911-4.233-4.278-4.233ZM38.59 6.096l3.707-3.669c.57-.564.57-1.44 0-2.004a1.422 1.422 0 0 0-2.025 0l-4.22 4.178a16.797 16.797 0 0 0-7.53-1.779c-2.739 0-5.306.65-7.587 1.779L16.685.423a1.422 1.422 0 0 0-2.025 0c-.57.565-.57 1.44 0 2.004l3.736 3.698C14.176 9.2 11.41 14.14 11.41 19.757h34.225c0-5.617-2.766-10.584-7.044-13.66Zm-15.773 8.016h-2.852V11.29h2.852v2.822Zm14.26 0h-2.851V11.29h2.852v2.822Z"/></svg>