<svg width="538" height="522" fill="none" xmlns="http://www.w3.org/2000/svg"><path d="M525.5 462.501H413.831c6.094-1.332 9.548-6.373 7.931-12.403l-61.22-228.283c-1.889-7.052-9.976-12.759-18.061-12.759H16.923c-8.087 0-18.59 5.711-16.7 12.759l59.432 221.612h-.409l7.313 27.269c1.213 4.526 6.408 8.194 11.6 8.194h451.736c5.193 0 8.419-3.672 7.204-8.194-1.214-4.522-6.41-8.195-11.599-8.195Z" fill="#1A8B56"/><path d="M266.297 462.857h154.57l-64.4-240.14c-2.023-7.546-9.785-13.663-17.337-13.663l-255.675 1.175a18.62 18.62 0 0 0-5.253-.778H16.898c-3.234 0-5.843.402-7.966 1.062a9.995 9.995 0 0 0-4.723 2.408c-3.834 3.054-4.227 7.31-4.072 9.289l66.398 247.709c1.214 4.526 6.407 8.194 11.6 8.194h187.481c5.194 0 8.419-3.673 7.204-8.194-.805-3.009-3.37-5.636-6.523-7.062Z" fill="#24AA6B"/><path d="M434.179 462.857H79.341l-64.4-240.14c-2.023-7.546 2.458-13.663 10.008-13.663h327.493c7.552 0 15.313 6.116 17.337 13.663l64.4 240.14Z" fill="url(#a)"/><path d="M91.249 449.412 31.582 226.918h323.733l59.669 222.494H91.249Z" fill="url(#b)"/><path d="M114.891 449.41 65.506 265.261a8.637 8.637 0 0 1 1.492-7.5 8.655 8.655 0 0 1 6.862-3.386H336.9c2.715.001 5.353.897 7.506 2.548a12.325 12.325 0 0 1 4.404 6.586l49.863 185.901H114.891Z" fill="url(#c)"/><path d="M360.678 246.726H36.843l-5.73-21.366h323.835l5.73 21.366Z" fill="url(#d)"/><path d="M230.681 241.12H49.947a5.087 5.087 0 0 1-3.594-1.487 5.073 5.073 0 0 1 0-7.18 5.073 5.073 0 0 1 3.594-1.487H230.68a5.077 5.077 0 1 1 0 10.154Zm66.736-.123h-13.191c-3.519 0-6.971-2.197-7.694-4.895a3.521 3.521 0 0 1 .588-3.124c.922-1.2 2.587-1.889 4.571-1.889h13.192c3.52 0 6.97 2.196 7.694 4.895a3.53 3.53 0 0 1-.588 3.122c-.921 1.202-2.582 1.891-4.572 1.891Zm-15.732-9.457c-1.841 0-3.382.624-4.214 1.713a3.03 3.03 0 0 0-.507 2.731c.675 2.515 3.93 4.554 7.257 4.554h13.192c1.842 0 3.382-.626 4.214-1.714a3.03 3.03 0 0 0 .507-2.73c-.673-2.515-3.929-4.554-7.257-4.554h-13.192Z" fill="#fff"/><path d="M343.663 240.77h-13.191c-3.428 0-6.776-2.117-7.476-4.727-.699-2.611 1.512-4.728 4.941-4.728h13.191c3.429 0 6.776 2.116 7.476 4.728.699 2.612-1.515 4.727-4.941 4.727Z" fill="#2B96D8"/><path d="M264.396 240.997h-13.192c-3.52 0-6.971-2.197-7.694-4.895a3.534 3.534 0 0 1 .588-3.124c.924-1.2 2.589-1.889 4.573-1.889h13.192c3.518 0 6.97 2.196 7.694 4.895a3.53 3.53 0 0 1-.588 3.122c-.924 1.202-2.59 1.891-4.573 1.891Zm-15.732-9.457c-1.843 0-3.382.624-4.214 1.713a3.043 3.043 0 0 0-.508 2.731c.674 2.515 3.929 4.554 7.258 4.554h13.192c1.84 0 3.381-.626 4.213-1.714a3.043 3.043 0 0 0 .515-2.724c-.673-2.515-3.93-4.554-7.257-4.554l-13.199-.006Z" fill="#fff"/><path d="M226.566 238.765c-1.982 0-3.946-1.536-4.473-3.498-.269-1.003-.104-1.995.452-2.717.555-.723 1.395-1.102 2.393-1.102 1.981 0 3.947 1.536 4.472 3.498.269 1.003.105 1.995-.45 2.717-.556.723-1.396 1.102-2.394 1.102Zm-1.628-6.071c-.601 0-1.099.218-1.404.614-.322.42-.406 1.002-.235 1.638.373 1.394 1.87 2.573 3.267 2.573.601 0 1.1-.218 1.404-.614.322-.42.406-1.002.235-1.638-.375-1.394-1.871-2.573-3.267-2.573Z" fill="#587DAA"/><path d="M231.885 240.801a.617.617 0 0 1-.384-.132l-3.43-2.691a.61.61 0 0 1-.234-.416.622.622 0 0 1 1.004-.566l3.431 2.692c.102.08.177.19.214.314a.627.627 0 0 1-.601.799Z" fill="#587DAA"/><path d="M350.356 269.247H66.574l48.316 180.165h283.782l-48.316-180.165Z" fill="url(#e)"/><path d="M146.974 378.168h-58.06c-3.836 0-7.818-3.138-8.845-6.971l-26.253-97.895c-1.03-3.834 1.269-6.971 5.107-6.971h58.059c3.837 0 7.818 3.137 8.846 6.971l26.254 97.895c1.029 3.833-1.27 6.971-5.108 6.971Z" fill="url(#f)"/><path d="M117.682 324.667c3.859-6.377.196-15.649-8.181-20.711-8.378-5.061-18.297-3.994-22.156 2.383-3.86 6.377-.196 15.649 8.181 20.71 8.377 5.061 18.297 3.995 22.156-2.382Z" fill="#fff"/><path d="M97.335 304.296c-1.47 0-2.996-1.175-3.43-2.651l-1.975-6.758c-.44-1.502.415-2.747 1.912-2.784 1.497-.037 3.057 1.15 3.496 2.644l1.976 6.758c.442 1.5-.414 2.747-1.911 2.784l-.068.007Z" fill="#fff"/><path d="M93.71 291.615c-1.27.031-2.074.94-2.016 2.136l1.203 4.113c.432 1.478 1.957 2.645 3.429 2.645h.068c1.27-.031 2.073-.94 2.014-2.136l-1.201-4.114c-.447-1.494-2.006-2.672-3.497-2.644Z" fill="#fff"/><path d="M100.255 284.449c1.646 6.141-1.434 13.094-5.514 13.094-3.088 0-10.89-6.953-12.536-13.094-1.647-6.141 1.059-11.116 6.043-11.116s10.36 4.977 12.007 11.116Zm-1.634 22.705-4.05-4.385 4.698.462-.648 3.923Z" fill="#fff"/><path d="m93.55 303.812 3.837 8.153h5.192l-1.534-9.718-4.13 1.192-3.364.373Z" fill="#fff"/><path d="M89.373 301.555c1.045 1.34 4.318 5.707 6.072 5.63 2.078-.093.965-3.086 2.527-2.225 1.56.861 2.393 2.939 3.444 2.132 1.006-.767 2.487-3.426 1.618-6.49a20.745 20.745 0 0 0-4.232-.901c-.63-.065.804 3.56-1.675 3.448-3.212-.147-2.94-3.417-4.08-3.15a12.06 12.06 0 0 0-3.674 1.556Z" fill="#fff" style="mix-blend-mode:multiply" opacity=".26"/><path d="M92.752 299.102a.263.263 0 0 1 .214-.005.26.26 0 0 1 .15.152c.342.761 1.384 2.716 3.382 3.568 2.163.921 2.151-2.849 2.106-3.915 0-.147.13-.209.273-.147l3.312 1.515a.298.298 0 0 1 .175.229c.072.767.267 4.163-1.755 5.676a.242.242 0 0 1-.294-.045l-3.07-2.706c-.116-.105-.276-.1-.332 0l-1.438 2.769a.2.2 0 0 1-.222.078.218.218 0 0 1-.072-.041c-.776-.509-3.569-2.454-5.092-5.054a.187.187 0 0 1 .033-.256l2.63-1.818Zm-8.205-9.034c-.326-.441-.393-.846.112-.668.882.311 2.565 1.066 3.765.824 2.032-.413 1.047-1.322 5.168-1.322 2.48 0 2.551.905 4.838.822 2.286-.082 2.293-1.893 2.415-.822.122 1.071-.186 4.272-.588 5.187-.969 2.224-2.492 3.871-4.814 3.871-2.321 0-4.315-1.647-6.195-3.129-1.346-1.056-3.651-3.339-4.701-4.763Zm-.852-1.492s.947 1.071.666.33c-.281-.74-2.837-8.729-.452-9.059 2.385-.331 8.891.577 10.715 0 1.823-.578 4.57 1.977 5.988 7.577 0 0 .772 1.647.615-.165-.158-1.811-1.146-6.424-2.363-8.814-1.217-2.39.644-3.129.687-4.2.042-1.071-1.88-.247-6.617-1.647s-12.037-2.469-11.808 4.529c-.006.002-1.586 6.097 2.569 11.449Z" fill="#fff"/><path d="M82.632 287.539c.441 1.201 1.114 2.143 1.519 2.105.404-.038.38-1.045-.056-2.245-.435-1.2-1.114-2.143-1.519-2.105-.404.038-.378 1.049.056 2.245Zm17.427-.196c.118 1.189.561 2.204.99 2.279.429.075.682-.838.564-2.028-.117-1.19-.56-2.203-.988-2.278-.427-.075-.682.837-.566 2.027Zm-22.817 34.098c-2.17 0-4.322-1.69-4.9-3.849-.294-1.098-.117-2.176.484-2.961.602-.784 1.503-1.185 2.578-1.185 2.17 0 4.322 1.691 4.9 3.85.294 1.098.118 2.176-.484 2.96-.6.785-1.507 1.185-2.578 1.185Zm-1.838-6.852c-.712 0-1.305.261-1.67.734-.39.509-.493 1.208-.295 1.97.441 1.656 2.147 3.003 3.795 3.003.712 0 1.306-.261 1.672-.734.39-.509.491-1.208.287-1.97-.442-1.656-2.144-3.003-3.794-3.003h.005Zm7.552 28.166c-2.169 0-4.322-1.69-4.9-3.85-.295-1.096-.118-2.176.484-2.96.603-.785 1.503-1.184 2.578-1.184 2.169 0 4.321 1.691 4.9 3.849.294 1.097.118 2.175-.485 2.96-.603.784-1.502 1.185-2.577 1.185Zm-1.838-6.853c-.712 0-1.306.262-1.67.735-.391.507-.493 1.206-.294 1.968.44 1.656 2.146 3.003 3.796 3.003.712 0 1.306-.261 1.67-.734.39-.509.493-1.208.294-1.97-.444-1.649-2.148-2.996-3.796-2.996v-.006Zm7.555 28.179c-2.169 0-4.321-1.691-4.899-3.849-.294-1.098-.118-2.176.484-2.961.601-.784 1.502-1.185 2.579-1.185 2.168 0 4.32 1.691 4.899 3.85.294 1.096.117 2.176-.484 2.961-.601.784-1.503 1.184-2.579 1.184Zm-1.836-6.852c-.713 0-1.306.261-1.672.734-.39.509-.493 1.208-.294 1.97.441 1.656 2.147 3.003 3.795 3.003.713 0 1.305-.263 1.672-.734.39-.507.49-1.206.286-1.969-.442-1.657-2.14-3.004-3.787-3.004Zm24.613-40.356H82.873a.573.573 0 1 1 0-1.143h28.577a.57.57 0 1 1 0 1.143Zm19.185 4.758H88.912a.569.569 0 0 1-.555-.796.567.567 0 0 1 .327-.31.57.57 0 0 1 .228-.035h41.723a.566.566 0 0 1 .423.157.56.56 0 0 1 .178.414.564.564 0 0 1-.178.414.578.578 0 0 1-.423.156Zm.871 3.253H89.783a.572.572 0 1 1 0-1.143h41.723a.571.571 0 1 1 0 1.143Zm.873 3.251H90.654a.576.576 0 0 1-.543-.571.575.575 0 0 1 .543-.571h41.725a.573.573 0 0 1 .555.797.577.577 0 0 1-.555.345Zm.871 3.253H91.527a.57.57 0 0 1-.572-.572.572.572 0 0 1 .572-.571h41.723a.572.572 0 0 1 0 1.143Zm-16.095 6.757H88.578a.572.572 0 1 1 0-1.143h28.577a.572.572 0 0 1 0 1.143Zm19.185 4.757H94.617a.569.569 0 0 1-.555-.796.567.567 0 0 1 .327-.31.57.57 0 0 1 .228-.035h41.723a.566.566 0 0 1 .423.157.56.56 0 0 1 .178.414.564.564 0 0 1-.178.414.578.578 0 0 1-.423.156Zm.871 3.254H95.488a.573.573 0 0 1-.404-.975.57.57 0 0 1 .404-.168h41.723a.571.571 0 1 1 0 1.143Zm.872 3.251H96.357a.58.58 0 0 1-.555-.345.57.57 0 0 1 .555-.796h41.723a.573.573 0 0 1 .555.796.592.592 0 0 1-.327.311.591.591 0 0 1-.228.034h.003Zm.873 3.253H97.24a.57.57 0 0 1-.572-.572.572.572 0 0 1 .572-.571h41.723a.572.572 0 0 1 0 1.143h-.007Zm-16.328 5.901H94.05a.573.573 0 0 1-.404-.976.573.573 0 0 1 .404-.167h28.578a.572.572 0 0 1 0 1.143Zm19.185 4.761h-41.722a.572.572 0 0 1 0-1.143h41.722a.576.576 0 0 1 .572.572.572.572 0 0 1-.572.571Zm.872 3.249h-41.723a.566.566 0 0 1-.423-.157.563.563 0 0 1-.178-.414.56.56 0 0 1 .047-.225.563.563 0 0 1 .554-.346h41.723a.57.57 0 0 1 0 1.142Zm.869 3.252h-41.719a.566.566 0 0 1-.423-.156.573.573 0 0 1 .423-.985h41.719a.567.567 0 0 1 .543.57.57.57 0 0 1-.543.571Zm.882 3.253h-41.729a.571.571 0 1 1 0-1.143h41.729a.57.57 0 1 1 0 1.143Zm173.386-127.681c1.083-1.841-.002-4.487-2.424-5.909-2.422-1.423-5.264-1.084-6.347.757-1.083 1.841.002 4.487 2.424 5.909 2.423 1.423 5.264 1.084 6.347-.757Z" fill="#fff"/><path d="M312.44 239.984a1.098 1.098 0 0 1-.99-.762l-.567-1.941c-.127-.432.12-.789.551-.801a1.099 1.099 0 0 1 1.01.763l.568 1.941c.126.43-.121.788-.552.799l-.02.001Z" fill="#fff"/><path d="M311.397 236.339a.579.579 0 0 0-.434.174.576.576 0 0 0-.154.441l.344 1.175a1.1 1.1 0 0 0 .991.761h.019a.569.569 0 0 0 .588-.614l-.345-1.176a1.094 1.094 0 0 0-1.009-.761Z" fill="#fff"/><path d="M313.294 234.28c.472 1.763-.421 3.764-1.6 3.764-.894 0-3.145-1.999-3.619-3.764-.473-1.764.312-3.195 1.753-3.195 1.441 0 2.992 1.431 3.466 3.195Zm-.481 6.526-1.168-1.261 1.357.132-.189 1.129Z" fill="#fff"/><path d="m311.348 239.845 1.105 2.343h1.502l-.44-2.793-1.194.343-.973.107Z" fill="#fff"/><path d="M310.141 239.195c.301.385 1.245 1.641 1.752 1.616.602-.026.281-.881.735-.639.455.243.691.844.996.613.304-.231.72-.986.469-1.866a5.934 5.934 0 0 0-1.222-.258c-.182-.019.231 1.028-.487.99-.927-.041-.845-.982-1.176-.905-.378.09-.739.242-1.067.449Z" fill="#fff" style="mix-blend-mode:multiply" opacity=".26"/><path d="M311.12 238.49a.078.078 0 0 1 .106.044c.098.219.398.781.976 1.029.625.264.623-.82.61-1.125 0-.04.038-.061.079-.042l.956.441a.093.093 0 0 1 .052.066c.02.221.075 1.197-.511 1.632a.062.062 0 0 1-.044.008.07.07 0 0 1-.041-.021l-.882-.778a.052.052 0 0 0-.022-.017.06.06 0 0 0-.027-.006.058.058 0 0 0-.026.006.052.052 0 0 0-.022.017l-.416.791a.058.058 0 0 1-.041.025.05.05 0 0 1-.024-.003.056.056 0 0 1-.02-.011c-.224-.147-1.03-.706-1.471-1.453a.059.059 0 0 1-.01-.039.06.06 0 0 1 .019-.035l.759-.529Zm-2.368-2.596c-.095-.127-.114-.242.032-.192.256.09.735.307 1.088.237.588-.118.303-.378 1.495-.378.716 0 .735.26 1.397.236.662-.023.665-.545.698-.236.034.308-.055 1.227-.172 1.491-.28.639-.722 1.112-1.392 1.112-.67 0-1.247-.473-1.789-.899a9.21 9.21 0 0 1-1.357-1.371Zm-.246-.428s.274.308.193.095c-.081-.213-.816-2.509-.126-2.605.689-.095 2.57.166 3.096 0 .526-.166 1.323.569 1.728 2.179 0 0 .222.473.178-.049-.045-.521-.328-1.845-.68-2.531-.351-.686.188-.9.2-1.207.012-.307-.542-.071-1.911-.473-1.369-.403-3.479-.711-3.416 1.301a4.078 4.078 0 0 0 .738 3.29Z" fill="#fff"/><path d="M308.199 235.167c.125.345.322.617.441.605.119-.011.111-.293-.014-.644-.125-.352-.321-.616-.441-.606-.121.011-.111.3.014.645Zm5.038-.056c.032.343.16.635.284.656.123.02.198-.241.164-.588s-.16-.635-.285-.655c-.125-.021-.197.245-.163.587Zm4.217 4.848a.418.418 0 0 1-.252-.085.422.422 0 0 1-.148-.222l-1.323-4.953a.425.425 0 0 1 .03-.326.417.417 0 0 1 .77.111l1.323 4.954a.412.412 0 0 1-.4.521Z" fill="#fff"/><path d="M319.285 237.483h-4.988a.414.414 0 0 1 0-.829h4.988a.413.413 0 0 1 .293.707.414.414 0 0 1-.293.122Z" fill="#fff"/><path opacity=".35" d="m199.502 225.537-33.574 222.357-43.307 9.07-41.316-9.07-60.77-226.604 176.405-5.308 2.562 9.555Zm21.564-5.308-29.404 236.735h20.848l25.966-236.735h-17.41Z" fill="#fff"/><path d="M182.338 473.572h-15.473a2.976 2.976 0 0 1-2.976-2.973 2.973 2.973 0 0 1 2.976-2.974h15.473a2.973 2.973 0 1 1 0 5.947Zm-30.55 0h-15.472a2.98 2.98 0 0 1-2.105-.871 2.969 2.969 0 0 1 0-4.205 2.984 2.984 0 0 1 2.105-.871h15.472a2.98 2.98 0 0 1 2.976 2.974 2.975 2.975 0 0 1-2.976 2.973Zm-30.685 0h-.397a2.975 2.975 0 0 1-2.976-2.973 2.974 2.974 0 0 1 2.976-2.974h.397a2.973 2.973 0 1 1 0 5.947Z" fill="#FEFEFF"/><path d="M337.016 265.996c-2.601 0-5.285-2.111-5.98-4.701-.352-1.313-.156-2.543.55-3.463.675-.881 1.739-1.363 2.995-1.363 2.601 0 5.284 2.113 5.981 4.701.351 1.312.156 2.542-.551 3.463-.675.88-1.738 1.363-2.995 1.363Zm-2.435-9.082c-1.113 0-2.048.422-2.637 1.187-.619.807-.786 1.897-.472 3.071.646 2.412 3.134 4.373 5.544 4.373 1.113 0 2.049-.422 2.636-1.186.619-.806.788-1.898.473-3.07-.647-2.418-3.134-4.375-5.544-4.375Zm-10.5 9.082c-2.601 0-5.284-2.111-5.981-4.701-.351-1.313-.156-2.543.552-3.463.674-.881 1.738-1.363 2.995-1.363 2.601 0 5.284 2.113 5.979 4.701.352 1.312.156 2.542-.551 3.463-.673.88-1.738 1.363-2.994 1.363Zm-2.434-9.082c-1.113 0-2.05.422-2.637 1.187-.62.807-.788 1.897-.473 3.071.647 2.412 3.133 4.373 5.544 4.373 1.114 0 2.049-.422 2.637-1.186.619-.806.786-1.898.472-3.07-.646-2.418-3.134-4.375-5.543-4.375Zm-10.677 9.082c-2.601 0-5.285-2.111-5.98-4.701-.353-1.313-.157-2.543.55-3.463.675-.881 1.739-1.363 2.995-1.363 2.601 0 5.284 2.113 5.98 4.701.352 1.312.155 2.542-.55 3.463-.675.88-1.74 1.363-2.995 1.363Zm-2.435-9.082c-1.113 0-2.048.422-2.636 1.187-.619.807-.787 1.897-.472 3.071.645 2.412 3.133 4.373 5.543 4.373 1.113 0 2.048-.422 2.636-1.186.619-.806.787-1.898.472-3.07-.646-2.418-3.133-4.375-5.543-4.375Z" fill="#fff"/><path d="m345.995 413.89 33.45-14.027L326.09 276.08c-4.776-9.207-24.946-10.072-26.506-7.249-5.014 9.079-11.639 15.321-6.863 24.534l.081.147 53.193 120.378Z" fill="#1B1B1B"/><path d="m202.142 301.413-34.598 56.004-.372.707-31.578 54.413-.287.496a10.008 10.008 0 0 1-5.687 4.53c-2.397.743-4.987.56-7.255-.513a10.006 10.006 0 0 1-4.992-5.285 9.99 9.99 0 0 1-.095-7.266l23.346-62.077a6.464 6.464 0 0 1 3.224-3.535 6.475 6.475 0 0 1 8.483 2.669 6.458 6.458 0 0 1 .615 4.743l-16.475 64.241-18.315-8.039 31.266-54.596-.372.706 21.705-62.13a17.48 17.48 0 0 1 22.268-10.735 17.497 17.497 0 0 1 9.984 8.902 17.459 17.459 0 0 1 .759 13.348 18.5 18.5 0 0 1-1.624 3.417Z" fill="#FFC8A8"/><path d="m144.2 412.716-33.45-14.027 53.355-123.783c4.775-9.207 20.423-12.802 29.637-8.03 9.215 4.772 8.507 16.103 3.73 25.309l-.079.147L144.2 412.716Z" fill="#1B1B1B"/><path d="M288.086 277.215s-7.986-11.714-12.395-13.436c-4.41-1.722-53.079-8.46-79.544 12.017-26.466 20.478 30.597 7.011 30.597 7.011l61.342-5.592Z" fill="#386AFF"/><path d="m260.493 280.325-.01-57.334-33.741-1.601.012 57.332 33.739 1.603Z" fill="#FFC8A8"/><path d="M319.614 467.069a45.653 45.653 0 0 0-.705-5.539l-.279-1.398-1.911-9.668-.968-4.848c-.312-1.616-.535-3.266-.809-4.898l-1.583-9.818c-.485-3.291-.85-6.611-1.287-9.928l-.632-4.979c-.219-1.658-.332-3.338-.506-5.008l-.96-10.047-.685-10.11s-.751-8.757-1.911-21.571l-4.655-101.807c-47.75-12.781-114.979-2.364-114.979-2.364l-1.176 121.624c-.231 2.636-.358 4.121-.358 4.121l-.686 10.11-.961 10.047c-.172 1.67-.285 3.35-.504 5.008l-.634 4.979c-.441 3.313-.799 6.637-1.286 9.928l-1.582 9.829c-.274 1.633-.496 3.279-.809 4.898l-.966 4.848-1.911 9.668-.281 1.399a45.463 45.463 0 0 0-.704 5.538c-1.765 27.068 31.491 51.684 60.936 53.782 4.036.278 8.09.177 12.108-.301 4.018.478 8.072.579 12.109.301 29.433-2.114 60.343-26.729 58.575-53.796Z" fill="#1B1B1B"/><path d="M250.398 362.018s.258-17.879 23.158-22.245l3.793 22.245v26.314l-21.025-2.324-5.926-21.951v-2.039Z" fill="#FFC8A8"/><path d="m279.053 363.325 19.611-9.622-13.7-8.756-13.034 1.863 7.123 16.515Zm-71.84-149.71c3.416-.88 4.763-7.111 3.008-13.917-1.756-6.806-5.949-11.61-9.366-10.73-3.417.88-4.764 7.111-3.008 13.917 1.755 6.806 5.949 11.61 9.366 10.73Zm81.057-12.505c1.789-6.785.478-13.013-2.928-13.909-3.406-.897-7.618 3.876-9.407 10.661-1.789 6.785-.478 13.013 2.928 13.909 3.406.897 7.618-3.876 9.407-10.661Z" fill="#FFC8A8"/><path d="M287.389 169.56c0-1.52-.074-3.022-.222-4.505a12.45 12.45 0 0 0-.627-4.26c-4.086-20.836-18.281-36.559-44.511-36.559-25.052 0-39.405 17.25-44.185 45.322-.316 1.856.116 3.736.34 5.556v.04c.198 1.612.483 3.212.854 4.793 3.011 15.226 14.963 68.216 45.486 68.214 28.965 0 38.832-39.016 41.725-68.481a45.468 45.468 0 0 0 1.14-10.12Z" fill="#FFC8A8"/><path d="M201.376 181.972s-1.617-9.649 6.257-8.668c7.873.982 29.829 4.474 54.428-5.209 25.191-9.922 23.597 9.149 23.597 9.149l.019-8.373-9.06-21.22-27.702 2.245-32.563 3.129-11.854 7.139-3.896 4.648.774 17.16Z" fill="#FDAE8E"/><path d="M207.013 209.056s-1.215-12.289-4.307-22.918c-3.092-10.629 8.328-26.135 20.438-22.487 12.109 3.648 37.484 2.083 44.368.128s20.584 7.555 16.672 26.661c-3.913 19.105-4.958 24.438-4.958 24.438s8.978-24.303 7.947-49.827c-1.031-25.524-13.596-42.735-43.135-43.909-31.611-1.256-43.889 19.098-46.3 37.865-2.429 18.857 9.275 50.049 9.275 50.049Z" fill="#2B2B2B"/><path d="m224.475 123.66-.159 4.104 45.148 4.441-.294-4.182c-6.43-4.058-14.728-6.464-25.135-6.877-7.594-.301-14.068.645-19.56 2.514Z" fill="#5B5B5B"/><path d="m260.482 222.991-33.74-1.601v28.885a28.725 28.725 0 0 0 1.447 1.405c3.144 2.807 20.742 6.481 32.294-.053l-.001-28.636Z" fill="#FDAE8E"/><path d="M205.879 200.8s12.624 14.792 23.734 13.334c11.11-1.457 17.767-4.019 29.315 0 11.548 4.02 23.951-14.21 23.646-11.336-.483 4.502-5.954 23.049-15.825 36.747-9.829 13.64-34.754 8.979-38.555 5.583-3.801-3.397-21.984-23.379-22.315-44.328Z" fill="#2B2B2B"/><path d="M198.475 176.936c2.499 16.045 8.538 32.12 8.538 32.12s-1.215-12.289-4.307-22.918a13.286 13.286 0 0 1-.36-5.654l-3.871-3.548Z" fill="#2D2D2D"/><path d="M149.644 322.249s-5.778 1.088-11.174 12.212c-5.396 11.124-12.54 33.9-12.54 33.9l19.996 7.825 6.347-18.196-2.629-35.741Z" fill="#FFC8A8"/><path d="m309.974 400.931-.685-10.11s-.751-8.758-1.911-21.571l-3.757-82.164H187.525l-.968 99.614c-.231 2.635-.357 4.121-.357 4.121l-.687 10.11-.923 9.653h126.308l-.924-9.653Z" fill="#386AFF" style="mix-blend-mode:multiply" opacity=".18"/><path d="M340.551 323.422s5.777 1.089 11.175 12.213c5.397 11.123 12.54 33.9 12.54 33.9l-19.996 7.824-6.34-18.196 2.621-35.741Zm-117.62-61.705s-3.941 37.994 21.702 37.994c25.642 0 19.642-38.102 19.642-38.102s-17.484-4.338-41.344.108Z" fill="#FFC8A8"/><path d="M335.97 285.636H151.254v118.021H335.97V285.636Z" fill="url(#g)"/><path d="M335.886 280.161H151.17v118.021h184.716V280.161Z" fill="url(#h)"/><path d="M196.013 315.804h8.809c0 2.77.155 4.462.466 5.075.31.613.882.92 1.716.921.708 0 1.205-.196 1.491-.587.285-.392.426-1.231.424-2.517v-24.774h9.581v21.711c0 2.455-.107 4.279-.32 5.471-.214 1.192-.578 2.171-1.091 2.938-.817 1.199-2.023 2.105-3.619 2.719-1.596.614-3.565.922-5.908.922-4.168 0-7.148-.784-8.941-2.351-1.792-1.567-2.688-4.186-2.687-7.858 0-.456 0-.799.013-1.028.007-.216.03-.43.066-.642Zm27.995-1.284c0-4.825.86-8.208 2.58-10.149 1.721-1.941 4.674-2.912 8.86-2.912 4.188 0 7.142.964 8.862 2.89 1.72 1.927 2.581 5.317 2.582 10.171 0 4.824-.861 8.203-2.582 10.136-1.721 1.934-4.675 2.901-8.862 2.903-4.203 0-7.161-.96-8.874-2.879-1.714-1.92-2.569-5.307-2.566-10.16Zm8.728 0c0 3.483.19 5.664.572 6.541.381.878 1.095 1.319 2.142 1.323 1.047 0 1.761-.422 2.142-1.264.381-.842.572-3.04.572-6.595 0-3.553-.191-5.756-.572-6.61-.381-.854-1.095-1.279-2.142-1.274-1.047 0-1.761.441-2.142 1.322-.382.882-.572 3.067-.572 6.557Zm19.239-20.598h8.595v10.47a7.52 7.52 0 0 1 2.647-2.151 7.927 7.927 0 0 1 3.42-.696c3.032 0 5.134.881 6.306 2.644 1.171 1.763 1.759 5.442 1.764 11.037 0 2.6-.089 4.584-.266 5.953-.177 1.369-.452 2.383-.825 3.041a6.241 6.241 0 0 1-2.661 2.525c-1.137.571-2.503.857-4.098.857a8.696 8.696 0 0 1-3.939-.882 8.23 8.23 0 0 1-2.98-2.549v2.718h-7.963v-32.967Zm11.203 13.515c-1.011 0-1.725.396-2.142 1.189-.416.792-.625 2.237-.625 4.335 0 4.082.217 6.601.652 7.558.434.957 1.218 1.436 2.352 1.436.957 0 1.622-.365 1.995-1.093.374-.729.56-2.399.559-5.01v-.664c0-3.497-.196-5.663-.588-6.498-.392-.834-1.126-1.253-2.203-1.257v.004Zm-96.33 60.902h8.782v.964c0 1.813.266 3.09.798 3.833.532.742 1.428 1.113 2.688 1.113 1.011 0 1.81-.282 2.395-.846.585-.564.879-1.331.882-2.3 0-1.601-1.428-3.135-4.284-4.604-.462-.257-.817-.45-1.065-.579l-.453-.235c-3.849-2.083-6.244-3.653-7.184-4.71a8.593 8.593 0 0 1-1.543-2.699 9.736 9.736 0 0 1-.533-3.276c0-2.882 1.038-5.145 3.114-6.787 2.077-1.643 4.932-2.463 8.568-2.462 3.956 0 6.977.806 9.062 2.419 2.084 1.613 3.127 3.947 3.127 7.002 0 .128-.01.307-.028.535a7.221 7.221 0 0 0-.027.536h-8.594v-.413c0-1.443-.279-2.535-.839-3.276-.56-.741-1.371-1.113-2.435-1.113-.905 0-1.632.26-2.182.781s-.825 1.21-.825 2.066c0 1.4 1.562 2.885 4.685 4.454.567.3 1.001.528 1.302.684.249.115.589.294 1.038.537 3.354 1.713 5.5 3.154 6.44 4.325a8.358 8.358 0 0 1 1.344 2.579c.319 1.015.476 2.073.466 3.137 0 3.297-1.064 5.838-3.193 7.623-2.129 1.784-5.172 2.677-9.128 2.677-4.151 0-7.269-.854-9.353-2.56-2.083-1.706-3.126-4.243-3.127-7.611 0-.214.004-.439.013-.674.009-.235.039-.608.089-1.12Zm43.165 2.485h8.063v.621c0 2.897-.94 5.077-2.82 6.54-1.88 1.464-4.683 2.195-8.41 2.195a18.818 18.818 0 0 1-5.108-.642c-1.526-.428-2.715-1.02-3.567-1.777-.958-.87-1.64-2.026-2.048-3.469-.408-1.442-.612-3.747-.613-6.915 0-3.497.209-5.938.626-7.323a7.285 7.285 0 0 1 2.142-3.426c.975-.841 2.212-1.478 3.711-1.91 1.5-.432 3.243-.646 5.23-.643 2.023 0 3.77.232 5.242.696 1.472.464 2.67 1.153 3.592 2.067a6.615 6.615 0 0 1 1.678 2.762c.336 1.07.505 2.897.505 5.481v2.976h-13.997c-.02.092-.028.185-.026.278-.073 1.043-.109 1.771-.108 2.185 0 1.742.231 2.951.693 3.628.461.677 1.251 1.016 2.368 1.018.975 0 1.71-.26 2.206-.781s.744-1.31.745-2.367a9.255 9.255 0 0 0-.08-.984 1.065 1.065 0 0 1-.024-.21Zm-5.561-7.045h5.774v-.127c.071-.629.106-1.07.106-1.323 0-1.213-.245-2.109-.735-2.686-.49-.578-1.249-.867-2.276-.867-1.047 0-1.796.281-2.248.845-.452.563-.679 1.493-.68 2.791 0 .357 0 .636.014.836.013.199.019.368.044.531h.001Zm33.847 15.737-.506-2.268a11.58 11.58 0 0 1-3.552 2.065 12.26 12.26 0 0 1-4.192.696c-2.413 0-4.324-.628-5.734-1.884-1.41-1.257-2.115-2.956-2.116-5.097 0-1.869.599-3.411 1.797-4.624 1.198-1.214 3.163-2.263 5.894-3.149l2.662-.791c3.209-.942 4.814-2.005 4.815-3.19 0-.728-.23-1.282-.691-1.66-.461-.378-1.126-.567-1.997-.567-1.047 0-1.822.253-2.327.76-.505.506-.758 1.29-.759 2.35v.172h-8.622c0-2.797.967-4.878 2.901-6.242 1.934-1.364 4.87-2.046 8.807-2.045a25.561 25.561 0 0 1 4.751.397c1.393.264 2.559.646 3.499 1.146 1.206.657 2.053 1.449 2.541 2.377.488.927.733 2.618.735 5.074v9.549c0 1.942.084 3.423.253 4.444.169 1.02.448 1.853.838 2.497l-8.997-.01Zm-1.091-11.926c-2.219.5-3.836 1.121-4.852 1.863-1.015.741-1.526 1.669-1.53 2.784 0 .783.252 1.411.758 1.884.506.473 1.184.709 2.035.707 1.261 0 2.175-.343 2.742-1.028.568-.686.852-1.835.852-3.448l-.005-2.762Zm14.476 11.926v-24.773h7.903v3.469c.939-1.241 1.972-2.183 3.099-2.825a9.058 9.058 0 0 1 3.823-1.136v7.858a17.786 17.786 0 0 0-1.371-.192c-.436-.043-.83-.065-1.183-.065-1.383 0-2.346.392-2.888 1.175-.542.784-.812 2.318-.811 4.603v11.883l-8.572.003Zm32.226-9.742h8.461c0 .128.009.294.027.504.017.21.026.36.026.46 0 3.169-.913 5.535-2.741 7.097-1.827 1.562-4.603 2.346-8.329 2.351-4.204 0-7.162-.96-8.873-2.88-1.712-1.919-2.568-5.307-2.569-10.164 0-4.852.861-8.242 2.582-10.171 1.721-1.928 4.675-2.892 8.86-2.891 3.761 0 6.529.775 8.303 2.324 1.774 1.55 2.661 3.966 2.661 7.249v.427h-8.303v-.706c0-1.484-.199-2.54-.598-3.169-.399-.629-1.068-.943-2.008-.942-1.079 0-1.811.421-2.197 1.264-.386.842-.577 3.046-.572 6.61 0 3.428.191 5.609.572 6.542.381.934 1.095 1.401 2.142 1.402.906 0 1.567-.332 1.984-.995.416-.663.624-1.716.624-3.158 0-.115-.008-.294-.026-.557a9.116 9.116 0 0 1-.026-.597Zm13.57 9.742v-32.974h8.569v10.835a6.822 6.822 0 0 1 2.807-2.351c1.144-.52 2.517-.78 4.117-.781 2.378 0 4.117.636 5.217 1.91 1.1 1.273 1.65 3.297 1.65 6.071v17.278h-8.543v-15.3c0-1.984-.159-3.218-.478-3.704-.318-.486-.886-.73-1.704-.734a2.61 2.61 0 0 0-2.248 1.125c-.541.749-.812 1.795-.812 3.136v15.48l-8.575.009Z" fill="#101010"/><path opacity=".35" d="m272.381 267.579-22.699 140.903-14.078 7.442 23.453-144.553 13.324-3.792Zm37.328-.759-22.701 140.904-28.584 8.2 23.453-144.553 27.832-4.551Z" fill="#fff"/><path style="mix-blend-mode:multiply" opacity=".63" d="M340.527 323.252c-2.595-.604-21.838-2.138-21.231 1.526.607 3.664 19.339 4.347 18.213 9.504-1.126 5.156-18.738-.795-21.72 4.012-2.981 4.807 7.967 9.083 20.914 8.472 12.948-.611-22.047-7.329-21.121-2.443.926 4.886 4.018 7.329 6.297 8.551 2.279 1.223 17.83 3.664 17.83 3.664s-15.752-5.497-15.755 0c-.003 5.498 14.361 12.216 16.56 12.216 2.2 0 9.925.489 7.949-18.384-1.976-18.874.919-23.76-3.519-25.592-4.437-1.832-3.104-1.22-4.417-1.526Z" fill="url(#i)"/><path d="M340.267 321.64c-2.595-.604-21.84-2.137-21.233 1.527.608 3.663 19.341 4.347 18.215 9.503-1.126 5.157-18.739-.795-21.72 4.014-2.98 4.808 7.966 9.081 20.913 8.47 12.946-.611-22.055-7.329-21.122-2.443.934 4.886 4.02 7.329 6.299 8.552 2.279 1.222 17.829 3.664 17.829 3.664s-15.751-5.498-15.756 0c-.004 5.497 14.363 12.215 16.561 12.215 2.198 0 9.924.489 7.948-18.384-1.976-18.873.919-23.76-3.517-25.591-4.436-1.832-3.104-1.221-4.417-1.527Z" fill="#FFC8A8"/><path d="m142.999 415.576-.309.58a18.153 18.153 0 0 1-10.091 8.641 18.174 18.174 0 0 1-13.279-.542 18.15 18.15 0 0 1-9.353-9.433 18.132 18.132 0 0 1-.418-13.273l16.702-46.642 29.713 16.466-11.762 41.343-1.203 2.86Zm204.193 1.174.307.588a18.157 18.157 0 0 0 10.092 8.65 18.174 18.174 0 0 0 13.285-.54 18.154 18.154 0 0 0 9.356-9.44 18.132 18.132 0 0 0 .41-13.279l-16.703-46.64-29.712 16.465 11.762 41.343 1.203 2.853Z" fill="#1B1B1B"/><path style="mix-blend-mode:multiply" opacity=".63" d="M152.246 322.814c2.604-.604 21.907-2.138 21.302 1.526-.606 3.664-19.409 4.347-18.273 9.504 1.135 5.156 18.801-.795 21.791 4.012 2.991 4.807-7.993 9.083-20.983 8.472-12.99-.611 22.121-7.329 21.192-2.443-.929 4.886-4.033 7.329-6.322 8.552-2.29 1.222-17.888 3.663-17.888 3.663s15.803-5.497 15.807 0c.004 5.498-14.409 12.216-16.615 12.216-2.205 0-9.958.489-7.975-18.384 1.984-18.874-.923-23.76 3.529-25.592 4.452-1.832 3.117-1.22 4.435-1.526Z" fill="url(#j)"/><path d="M151.07 321.64c2.604-.604 21.908-2.137 21.303 1.527-.604 3.663-19.408 4.347-18.274 9.503 1.133 5.157 18.801-.795 21.791 4.014 2.991 4.808-7.992 9.081-20.983 8.47-12.99-.611 22.123-7.329 21.192-2.443-.931 4.886-4.031 7.329-6.322 8.552-2.291 1.222-17.89 3.664-17.89 3.664s15.805-5.498 15.809 0c.005 5.497-14.409 12.215-16.614 12.215-2.206 0-9.959.489-7.975-18.384 1.983-18.873-.922-23.758 3.528-25.591 4.451-1.834 3.118-1.221 4.435-1.527Z" fill="#FFC8A8"/><path d="M208.982 164.76c-.471-.194-5.867-3.304-11.158-6.373-.03.207-.059.416-.086.625-.926 7.207.213 16.218 1.973 24.601.893.44 1.516.706 1.672.706.116 0 .441-.113.909-.293-.681-6 2.574-12.961 7.616-17.145-.326-1.15-.651-2.003-.926-2.121Z" fill="#2D2D2D"/><path d="M284.472 162.467c2.89-9.781 1.526-37.98-16.081-38.715-13.968-.587-35.62 3.319-51.331-5.415-6.792-3.777-6.103 2.58-7.954.534-1.851-2.047-3.74-4.59-5.853-1.91-2.113 2.68-2.481-4.971-6.118-5.784-3.638-.812-9.978 12.286-8.234 29.908 1.838 18.491 13.58 25.349 13.58 25.349s15.415 13.282 64.882-3.536c14.903-5.067-1.572-12.54-15.712-17.353 9.717.205 20.255.241 20.255.241l12.566 16.681Z" fill="#2B2B2B"/><path d="M465.377 0H344.428a6.86 6.86 0 0 0-6.862 6.856v44.131a6.86 6.86 0 0 0 6.862 6.856h120.949a6.86 6.86 0 0 0 6.862-6.856V6.857A6.86 6.86 0 0 0 465.377 0Z" fill="#1A8954"/><path d="M352.39 24.174a6.7 6.7 0 0 1-6.184-4.13 6.69 6.69 0 0 1 1.453-7.29 6.696 6.696 0 0 1 11.427 4.731 6.694 6.694 0 0 1-6.696 6.689Zm0-11.466a4.783 4.783 0 0 0-4.691 5.711 4.781 4.781 0 0 0 6.523 3.482 4.78 4.78 0 0 0 2.951-4.416 4.787 4.787 0 0 0-4.783-4.777Zm72.108 5.845h-53.443a1.072 1.072 0 0 1-1.069-1.068 1.07 1.07 0 0 1 1.069-1.068h53.443a1.068 1.068 0 1 1 0 2.136Zm33.492 8.9h-78.027a1.067 1.067 0 1 1 0-2.136h78.027a1.068 1.068 0 1 1 0 2.136Zm0 6.082h-78.027a1.067 1.067 0 1 1 0-2.136h78.027a1.068 1.068 0 1 1 0 2.136Zm-.001 6.08h-78.027a1.067 1.067 0 0 1-.421-2.065c.134-.051.277-.075.421-.07h78.027a1.065 1.065 0 0 1 1.023.65 1.071 1.071 0 0 1-.242 1.187 1.066 1.066 0 0 1-.781.298Zm.001 6.082h-78.027a1.067 1.067 0 1 1 0-2.136h78.027a1.068 1.068 0 1 1 0 2.136Z" fill="#fff"/><path d="M299.076 42.85h-68.458c-14.499 0-26.253 11.744-26.253 26.23v.002c0 14.487 11.754 26.23 26.253 26.23h68.458c14.499 0 26.252-11.743 26.252-26.23v-.001c0-14.487-11.753-26.23-26.252-26.23Z" fill="#1E965D"/><path d="M226.185 104.552c8.243 0 14.925-6.064 14.925-13.544s-6.682-13.543-14.925-13.543-14.925 6.063-14.925 13.543c0 7.48 6.682 13.544 14.925 13.544Z" fill="#fff"/><path d="M225.423 81.801a2.513 2.513 0 0 1-2.512-2.452l-.147-6.239a2.506 2.506 0 0 1 .693-1.793 2.511 2.511 0 0 1 3.552-.087c.483.46.763 1.091.78 1.757l.147 6.239a2.505 2.505 0 0 1-.692 1.793 2.517 2.517 0 0 1-1.758.778l-.063.004Z" fill="#fff"/><path d="M225.209 70.085a2.513 2.513 0 0 0-2.391 1.973l.093 3.794a2.511 2.511 0 0 0 2.511 2.45h.064a2.51 2.51 0 0 0 2.39-1.973l-.092-3.793a2.514 2.514 0 0 0-2.575-2.45Z" fill="#fff"/><path d="M233.038 63.466c0 5.672-4.57 12.096-8.338 12.096-2.856 0-8.339-6.424-8.339-12.096S220.094 53.2 224.7 53.2c4.605 0 8.338 4.592 8.338 10.266Zm-7.135 20.975-2.655-4.052 4.227.43-1.572 3.622Z" fill="#fff"/><path d="m222.049 81.353 1.522 7.532h4.797l.99-8.977-4.11 1.1-3.199.345Z" fill="#fff"/><path d="M218.746 79.268c.635 1.237 2.576 5.273 4.217 5.201 1.941-.085 1.656-2.853 2.883-2.057 1.228.796 1.485 2.71 2.656 1.969 1.119-.71 3.145-3.165 3.099-5.997-1.192-.42-2.429-.7-3.686-.831-.568-.06-.138 3.289-2.401 3.186-2.932-.134-1.866-3.157-2.989-2.91a14.68 14.68 0 0 0-3.779 1.44Z" fill="#fff" style="mix-blend-mode:multiply" opacity=".26"/><path d="M222.477 76.999a.2.2 0 0 1 .294.138c.126.704.606 2.51 2.242 3.297 1.764.852 2.694-2.631 2.916-3.617a.2.2 0 0 1 .039-.084.2.2 0 0 1 .255-.047l2.683 1.399a.2.2 0 0 1 .106.211c-.124.71-.785 3.848-3.027 5.245a.205.205 0 0 1-.262-.041l-2.165-2.498a.191.191 0 0 0-.069-.053.195.195 0 0 0-.17 0 .191.191 0 0 0-.069.053l-2.006 2.55a.196.196 0 0 1-.133.077.199.199 0 0 1-.148-.041c-.588-.47-2.687-2.267-3.45-4.669a.203.203 0 0 1 .094-.238l2.87-1.682Zm-5.342-8.343c-.193-.41-.147-.782.267-.617.736.294 2.106.986 3.275.76 1.98-.38 1.294-1.217 5.102-1.217 2.289 0 2.132.837 4.264.76 2.132-.076 2.589-1.749 2.436-.76-.153.989-1.231 3.947-1.828 4.794-1.446 2.056-3.261 3.575-5.406 3.575-2.145 0-3.579-1.522-4.949-2.89-.981-.98-2.545-3.089-3.161-4.405Zm-.417-1.378s.609.989.533.304c-.077-.684-.456-8.065 1.827-8.374 2.284-.308 8.072.534 9.9 0 1.828-.533 3.732 1.826 3.655 7 0 0 .304 1.523.609-.146.304-1.67.534-5.934 0-8.14-.534-2.207 1.37-2.892 1.676-3.88.306-.99-1.676-.23-5.712-1.522-4.036-1.293-10.509-2.283-12.03 4.184 0-.002-2.97 5.63-.458 10.574Z" fill="#fff"/><path d="M215.993 66.32c.102 1.11.498 1.98.882 1.944.384-.035.608-.964.506-2.075-.103-1.11-.5-1.978-.883-1.943-.382.035-.605.964-.505 2.074Zm16.15-.182c-.186 1.099-.03 2.042.349 2.107.379.064.836-.775 1.029-1.873.193-1.1.031-2.042-.348-2.107-.38-.065-.844.774-1.03 1.873Zm81.743-3.418h-25.122a2.57 2.57 0 0 1-1.852-.729 2.545 2.545 0 0 1-.773-1.833 2.555 2.555 0 0 1 .773-1.833 2.557 2.557 0 0 1 1.852-.728h25.122a2.565 2.565 0 0 1 2.626 2.561 2.573 2.573 0 0 1-.773 1.833 2.57 2.57 0 0 1-1.853.728Zm-36.915 0H248.26a2.574 2.574 0 0 1-1.852-.729 2.56 2.56 0 0 1 1.852-4.394h28.711a2.565 2.565 0 0 1 2.626 2.561 2.555 2.555 0 0 1-.773 1.833 2.57 2.57 0 0 1-1.853.728Zm36.914 8.58h-20.023a1.28 1.28 0 1 1 0-2.562h20.023a1.284 1.284 0 0 1 1.282 1.281 1.282 1.282 0 0 1-1.282 1.281Z" fill="#fff"/><path d="M294.546 71.3h-19.883a1.284 1.284 0 0 1-1.282-1.28 1.282 1.282 0 0 1 1.282-1.282h19.883a1.284 1.284 0 0 1 1.282 1.281 1.282 1.282 0 0 1-1.282 1.281Zm-28.084 0h-18.201a1.283 1.283 0 0 1-.907-2.186c.24-.24.567-.376.907-.376h18.201a1.28 1.28 0 1 1 0 2.562Zm47.423 9.86h-26.148a1.282 1.282 0 0 1 0-2.56h26.148a1.284 1.284 0 0 1 1.325 1.28 1.283 1.283 0 0 1-.821 1.196c-.161.062-.332.09-.504.085Zm-33.582 0h-32.044a1.282 1.282 0 1 1 0-2.56h32.044a1.281 1.281 0 1 1 0 2.56Z" fill="#fff"/><path d="M490.632 79.564h-82.849c-4.824 0-8.734 3.907-8.734 8.726v2.286c0 4.82 3.91 8.726 8.734 8.726h82.849c4.823 0 8.734-3.907 8.734-8.726V88.29c0-4.82-3.911-8.726-8.734-8.726Z" fill="#212121"/><path d="M410.262 95.393a6.385 6.385 0 0 1-5.897-3.935 6.373 6.373 0 0 1 4.65-8.694 6.386 6.386 0 0 1 6.551 2.711 6.373 6.373 0 0 1 1.075 3.542 6.38 6.38 0 0 1-1.87 4.506 6.392 6.392 0 0 1-4.509 1.87Zm0-10.928a4.563 4.563 0 0 0-4.211 2.811 4.55 4.55 0 0 0 3.321 6.21 4.564 4.564 0 0 0 4.679-1.937 4.55 4.55 0 0 0-3.789-7.084Zm80.554 5.453h-19.211a.9.9 0 0 1 0-1.8h19.211a.899.899 0 0 1 .938.9.91.91 0 0 1-.277.65.902.902 0 0 1-.661.25Zm-28.938 0h-40.989a.902.902 0 0 1-.661-1.55.901.901 0 0 1 .661-.25h40.989a.899.899 0 0 1 .938.9.893.893 0 0 1-.277.65.893.893 0 0 1-.661.25Z" fill="#fff"/><defs><linearGradient id="a" x1="348.105" y1="508.398" x2="170.656" y2="175.39" gradientUnits="userSpaceOnUse"><stop stop-color="#2ECC82"/><stop offset="1" stop-color="#126F43"/></linearGradient><linearGradient id="b" x1="62.822" y1="338.164" x2="335.112" y2="264.584" gradientUnits="userSpaceOnUse"><stop stop-color="#fff"/><stop offset="1" stop-color="#C7E2FF"/></linearGradient><linearGradient id="c" x1="90.101" y1="351.894" x2="328.786" y2="287.395" gradientUnits="userSpaceOnUse"><stop offset=".01" stop-color="#A8E1FF"/><stop offset="1" stop-color="#64C0FF"/></linearGradient><linearGradient id="d" x1="35.176" y1="236.043" x2="307.541" y2="162.442" gradientUnits="userSpaceOnUse"><stop offset=".01" stop-color="#A8E1FF"/><stop offset="1" stop-color="#64C0FF"/></linearGradient><linearGradient id="e" x1="54.097" y1="294.546" x2="172.104" y2="337.441" gradientUnits="userSpaceOnUse"><stop offset=".01" stop-color="#A8E1FF"/><stop offset="1" stop-color="#64C0FF"/></linearGradient><linearGradient id="f" x1="55.26" y1="322.249" x2="124.238" y2="284.969" gradientUnits="userSpaceOnUse"><stop offset=".01" stop-color="#A8E1FF"/><stop offset="1" stop-color="#64C0FF"/></linearGradient><linearGradient id="g" x1="112.524" y1="313.847" x2="405.339" y2="382.763" gradientUnits="userSpaceOnUse"><stop stop-color="#D4ECFF"/><stop offset=".12" stop-color="#BFE4FF"/><stop offset=".3" stop-color="#A9DBFF"/><stop offset=".5" stop-color="#99D5FF"/><stop offset=".71" stop-color="#8FD1FF"/><stop offset="1" stop-color="#8CD0FF"/></linearGradient><linearGradient id="h" x1="131.44" y1="302.038" x2="462.572" y2="411.922" gradientUnits="userSpaceOnUse"><stop stop-color="#fff"/><stop offset=".2" stop-color="#FCFEFF"/><stop offset=".36" stop-color="#F2FAFF"/><stop offset=".5" stop-color="#E1F3FF"/><stop offset=".64" stop-color="#C9EAFF"/><stop offset=".78" stop-color="#ADF"/><stop offset=".91" stop-color="#84CFFF"/><stop offset="1" stop-color="#64C2FF"/></linearGradient><linearGradient id="i" x1="339.206" y1="345.798" x2="302.407" y2="340.052" gradientUnits="userSpaceOnUse"><stop stop-color="#fff"/><stop offset=".2" stop-color="#FCFEFF"/><stop offset=".36" stop-color="#F2FAFF"/><stop offset=".5" stop-color="#E1F3FF"/><stop offset=".64" stop-color="#C9EAFF"/><stop offset=".78" stop-color="#ADF"/><stop offset=".91" stop-color="#84CFFF"/><stop offset="1" stop-color="#64C2FF"/></linearGradient><linearGradient id="j" x1="143.963" y1="345.147" x2="177.562" y2="345.147" gradientUnits="userSpaceOnUse"><stop stop-color="#fff"/><stop offset=".2" stop-color="#FCFEFF"/><stop offset=".36" stop-color="#F2FAFF"/><stop offset=".5" stop-color="#E1F3FF"/><stop offset=".64" stop-color="#C9EAFF"/><stop offset=".78" stop-color="#ADF"/><stop offset=".91" stop-color="#84CFFF"/><stop offset="1" stop-color="#64C2FF"/></linearGradient></defs></svg>