<svg xmlns="http://www.w3.org/2000/svg" width="52" height="61" fill="none"><path fill="#2ECC82" d="M43.221 32.028c-.027-4.966 2.253-8.714 6.867-11.474-2.582-3.64-6.482-5.643-11.633-6.035-4.875-.38-10.204 2.8-12.154 2.8-2.06 0-6.785-2.665-10.493-2.665C8.144 14.776 0 20.675 0 32.678c0 3.545.66 7.207 1.978 10.987C3.736 48.63 10.08 60.809 16.7 60.605c3.46-.08 5.905-2.421 10.41-2.421 4.367 0 6.634 2.422 10.493 2.422 6.675-.095 12.416-11.164 14.091-16.143-8.955-4.154-8.474-12.178-8.474-12.435ZM35.448 9.81c3.75-4.384 3.406-8.376 3.296-9.81-3.31.19-7.142 2.22-9.326 4.722-2.403 2.68-3.818 5.995-3.515 9.73 3.584.27 6.853-1.543 9.545-4.642Z"/></svg>