<svg width="538" height="522" viewBox="0 0 538 522" fill="none" xmlns="http://www.w3.org/2000/svg">
<path d="M525.5 462.501H413.831C419.925 461.169 423.379 456.128 421.762 450.098L360.542 221.815C358.653 214.763 350.566 209.056 342.481 209.056H16.923C8.83623 209.056 -1.66625 214.767 0.223104 221.815L59.6548 443.427H59.2461L66.5595 470.696C67.7725 475.222 72.9671 478.89 78.1588 478.89H529.895C535.088 478.89 538.314 475.218 537.099 470.696C535.885 466.174 530.689 462.501 525.5 462.501Z" fill="#1A8B56"/>
<path d="M266.297 462.857H420.867L356.467 222.717C354.444 215.171 346.682 209.054 339.13 209.054L83.4551 210.229C81.7503 209.72 79.9811 209.458 78.2017 209.451H16.8982C13.6635 209.451 11.0552 209.853 8.93206 210.513C7.16965 210.876 5.53806 211.708 4.2094 212.921C0.374805 215.975 -0.0177689 220.231 0.136614 222.21L66.5347 469.919C67.7492 474.445 72.9424 478.113 78.1355 478.113H265.616C270.81 478.113 274.035 474.44 272.82 469.919C272.015 466.91 269.45 464.283 266.297 462.857Z" fill="#24AA6B"/>
<path d="M434.179 462.857H79.3408L14.9408 222.717C12.9177 215.171 17.3992 209.054 24.9493 209.054H352.442C359.994 209.054 367.755 215.17 369.779 222.717L434.179 462.857Z" fill="url(#paint0_linear_836_789)"/>
<path d="M91.249 449.412L31.582 226.918H355.315L414.984 449.412H91.249Z" fill="url(#paint1_linear_836_789)"/>
<path d="M114.891 449.41L65.5061 265.261C65.1624 263.981 65.1182 262.638 65.3769 261.337C65.6355 260.037 66.19 258.813 66.9976 257.761C67.8051 256.709 68.8441 255.856 70.0341 255.269C71.2241 254.682 72.5333 254.376 73.8604 254.375H336.9C339.615 254.376 342.253 255.272 344.406 256.923C346.559 258.574 348.107 260.889 348.81 263.509L398.673 449.41H114.891Z" fill="url(#paint2_linear_836_789)"/>
<path d="M360.678 246.726H36.8431L31.1133 225.36H354.948L360.678 246.726Z" fill="url(#paint3_linear_836_789)"/>
<path d="M230.681 241.12H49.9466C49.2793 241.12 48.6186 240.989 48.0021 240.734C47.3856 240.478 46.8254 240.104 46.3535 239.633C45.8817 239.162 45.5074 238.602 45.252 237.986C44.9967 237.37 44.8652 236.71 44.8652 236.043C44.8652 235.376 44.9967 234.716 45.252 234.1C45.5074 233.484 45.8817 232.924 46.3535 232.453C46.8254 231.981 47.3856 231.607 48.0021 231.352C48.6186 231.097 49.2793 230.966 49.9466 230.966H230.681C231.348 230.966 232.009 231.097 232.626 231.352C233.242 231.607 233.802 231.981 234.274 232.453C234.746 232.924 235.12 233.484 235.376 234.1C235.631 234.716 235.763 235.376 235.763 236.043C235.763 236.71 235.631 237.37 235.376 237.986C235.12 238.602 234.746 239.162 234.274 239.633C233.802 240.104 233.242 240.478 232.626 240.734C232.009 240.989 231.348 241.12 230.681 241.12Z" fill="white"/>
<path d="M297.417 240.997H284.226C280.707 240.997 277.255 238.8 276.532 236.102C276.378 235.571 276.351 235.012 276.453 234.47C276.556 233.928 276.784 233.417 277.12 232.978C278.042 231.778 279.707 231.089 281.691 231.089H294.883C298.403 231.089 301.853 233.285 302.577 235.984C302.73 236.514 302.757 237.073 302.655 237.615C302.552 238.157 302.324 238.668 301.989 239.106C301.068 240.308 299.407 240.997 297.417 240.997ZM281.685 231.54C279.844 231.54 278.303 232.164 277.471 233.253C277.175 233.635 276.975 234.082 276.887 234.557C276.799 235.032 276.825 235.521 276.964 235.984C277.639 238.499 280.894 240.538 284.221 240.538H297.413C299.255 240.538 300.795 239.912 301.627 238.824C301.923 238.442 302.123 237.995 302.211 237.52C302.299 237.046 302.273 236.557 302.134 236.094C301.461 233.579 298.205 231.54 294.877 231.54H281.685Z" fill="white"/>
<path d="M343.663 240.77H330.472C327.044 240.77 323.696 238.653 322.996 236.043C322.297 233.432 324.508 231.315 327.937 231.315H341.128C344.557 231.315 347.904 233.431 348.604 236.043C349.303 238.655 347.089 240.77 343.663 240.77Z" fill="#2B96D8"/>
<path d="M264.396 240.997H251.204C247.684 240.997 244.233 238.8 243.51 236.102C243.357 235.571 243.33 235.012 243.432 234.47C243.534 233.928 243.762 233.417 244.098 232.978C245.022 231.778 246.687 231.089 248.671 231.089H261.863C265.381 231.089 268.833 233.285 269.557 235.984C269.71 236.514 269.737 237.073 269.634 237.615C269.532 238.157 269.304 238.668 268.969 239.106C268.045 240.308 266.379 240.997 264.396 240.997ZM248.664 231.54C246.821 231.54 245.282 232.164 244.45 233.253C244.154 233.635 243.954 234.082 243.865 234.557C243.777 235.032 243.804 235.521 243.942 235.984C244.616 238.499 247.871 240.538 251.2 240.538H264.392C266.232 240.538 267.773 239.912 268.605 238.824C268.901 238.443 269.102 237.998 269.192 237.524C269.281 237.05 269.257 236.562 269.12 236.1C268.447 233.585 265.19 231.546 261.863 231.546L248.664 231.54Z" fill="white"/>
<path d="M226.566 238.765C224.584 238.765 222.62 237.229 222.093 235.267C221.824 234.264 221.989 233.272 222.545 232.55C223.1 231.827 223.94 231.448 224.938 231.448C226.919 231.448 228.885 232.984 229.41 234.946C229.679 235.949 229.515 236.941 228.96 237.663C228.404 238.386 227.564 238.765 226.566 238.765ZM224.938 232.694C224.337 232.694 223.839 232.912 223.534 233.308C223.212 233.728 223.128 234.31 223.299 234.946C223.672 236.34 225.169 237.519 226.566 237.519C227.167 237.519 227.666 237.301 227.97 236.905C228.292 236.485 228.376 235.903 228.205 235.267C227.83 233.873 226.334 232.694 224.938 232.694Z" fill="#587DAA"/>
<path d="M231.885 240.801C231.746 240.802 231.611 240.755 231.501 240.669L228.071 237.978C228.006 237.927 227.953 237.864 227.912 237.793C227.872 237.722 227.846 237.643 227.837 237.562C227.827 237.48 227.833 237.398 227.855 237.319C227.877 237.24 227.915 237.166 227.965 237.102C228.016 237.038 228.078 236.984 228.15 236.944C228.221 236.903 228.3 236.878 228.381 236.868C228.463 236.858 228.545 236.864 228.624 236.886C228.703 236.908 228.777 236.946 228.841 236.996L232.272 239.688C232.374 239.768 232.449 239.878 232.486 240.002C232.522 240.127 232.519 240.26 232.477 240.382C232.434 240.505 232.354 240.612 232.248 240.687C232.142 240.762 232.015 240.802 231.885 240.801Z" fill="#587DAA"/>
<path d="M350.356 269.247H66.5742L114.89 449.412H398.672L350.356 269.247Z" fill="url(#paint4_linear_836_789)"/>
<path d="M146.974 378.168H88.9141C85.0781 378.168 81.0964 375.03 80.0687 371.197L53.8161 273.302C52.7869 269.468 55.085 266.331 58.9226 266.331H116.982C120.819 266.331 124.8 269.468 125.828 273.302L152.082 371.197C153.111 375.03 150.812 378.168 146.974 378.168Z" fill="url(#paint5_linear_836_789)"/>
<path d="M117.682 324.667C121.541 318.29 117.878 309.018 109.501 303.956C101.123 298.895 91.2038 299.962 87.3448 306.339C83.4858 312.716 87.1486 321.988 95.526 327.049C103.903 332.11 113.823 331.044 117.682 324.667Z" fill="white"/>
<path d="M97.3353 304.296C95.865 304.296 94.3388 303.121 93.9051 301.645L91.9304 294.887C91.4893 293.385 92.3451 292.14 93.8418 292.103C95.3386 292.066 96.8986 293.253 97.3383 294.747L99.3144 301.505C99.7555 303.005 98.8997 304.252 97.403 304.289L97.3353 304.296Z" fill="white"/>
<path d="M93.7102 291.615C92.4399 291.646 91.6356 292.555 91.6944 293.751L92.8971 297.864C93.3294 299.342 94.8541 300.509 96.3259 300.509H96.3936C97.6639 300.478 98.4667 299.569 98.4079 298.373L97.2067 294.259C96.7597 292.765 95.2011 291.587 93.7102 291.615Z" fill="white"/>
<path d="M100.255 284.449C101.901 290.59 98.8211 297.543 94.741 297.543C91.6533 297.543 83.8518 290.59 82.2051 284.449C80.5583 278.308 83.2637 273.333 88.2481 273.333C93.2324 273.333 98.6079 278.31 100.255 284.449Z" fill="white"/>
<path d="M98.621 307.154L94.5703 302.769L99.2695 303.231L98.621 307.154Z" fill="white"/>
<path d="M93.5508 303.812L97.3868 311.965H102.579L101.045 302.247L96.9149 303.439L93.5508 303.812Z" fill="white"/>
<g style="mix-blend-mode:multiply" opacity="0.26">
<path d="M89.373 301.555C90.4184 302.895 93.6914 307.262 95.4455 307.185C97.523 307.092 96.41 304.099 97.9715 304.96C99.5329 305.821 100.365 307.899 101.416 307.092C102.422 306.325 103.903 303.666 103.034 300.602C101.659 300.155 100.24 299.853 98.8022 299.701C98.1714 299.636 99.6065 303.261 97.1275 303.149C93.9149 303.002 94.1869 299.732 93.0474 299.999C91.7446 300.31 90.5028 300.836 89.373 301.555Z" fill="white"/>
</g>
<path d="M92.752 299.102C92.7855 299.086 92.8217 299.078 92.8585 299.077C92.8953 299.076 92.9319 299.083 92.966 299.097C93.0002 299.11 93.0311 299.131 93.057 299.157C93.0829 299.183 93.1032 299.214 93.1167 299.249C93.4578 300.01 94.5002 301.965 96.4984 302.817C98.6612 303.738 98.6495 299.968 98.6039 298.902C98.6039 298.755 98.7333 298.693 98.8774 298.755L102.189 300.27C102.235 300.29 102.275 300.321 102.306 300.361C102.337 300.401 102.357 300.449 102.364 300.499C102.436 301.266 102.631 304.662 100.609 306.175C100.562 306.202 100.508 306.211 100.455 306.203C100.401 306.195 100.352 306.169 100.315 306.13L97.2453 303.424C97.1292 303.319 96.9689 303.324 96.913 303.424L95.4751 306.193C95.4593 306.216 95.4388 306.236 95.4149 306.25C95.391 306.265 95.3642 306.274 95.3364 306.278C95.3085 306.281 95.2803 306.279 95.2535 306.271C95.2267 306.262 95.202 306.248 95.181 306.23C94.4047 305.721 91.6125 303.776 90.0893 301.176C90.0607 301.137 90.0482 301.089 90.0542 301.042C90.0602 300.994 90.0844 300.951 90.1216 300.92L92.752 299.102Z" fill="white"/>
<path d="M84.5469 290.068C84.2205 289.627 84.1543 289.222 84.6586 289.4C85.5408 289.711 87.2244 290.466 88.4241 290.224C90.4561 289.811 89.471 288.902 93.5923 288.902C96.0713 288.902 96.1433 289.807 98.4296 289.724C100.716 289.642 100.723 287.831 100.845 288.902C100.967 289.973 100.659 293.174 100.257 294.089C99.2883 296.313 97.7651 297.96 95.4434 297.96C93.1218 297.96 91.1281 296.313 89.2475 294.831C87.9022 293.775 85.5967 291.492 84.5469 290.068Z" fill="white"/>
<path d="M83.6947 288.576C83.6947 288.576 84.6416 289.647 84.3608 288.906C84.0799 288.166 81.5245 280.177 83.9094 279.847C86.2942 279.516 92.8004 280.424 94.6236 279.847C96.4468 279.269 99.1933 281.824 100.612 287.424C100.612 287.424 101.384 289.071 101.227 287.259C101.069 285.448 100.081 280.835 98.864 278.445C97.6466 276.055 99.508 275.316 99.5506 274.245C99.5933 273.174 97.6715 273.998 92.9342 272.598C88.1968 271.198 80.8967 270.129 81.1261 277.127C81.1202 277.129 79.5396 283.224 83.6947 288.576Z" fill="white"/>
<path d="M82.632 287.539C83.0731 288.74 83.7465 289.682 84.1509 289.644C84.5552 289.606 84.5302 288.599 84.095 287.399C83.6598 286.199 82.9805 285.256 82.5762 285.294C82.1718 285.332 82.1983 286.343 82.632 287.539Z" fill="white"/>
<path d="M100.059 287.343C100.177 288.532 100.62 289.547 101.049 289.622C101.478 289.697 101.731 288.784 101.613 287.594C101.496 286.404 101.053 285.391 100.625 285.316C100.198 285.241 99.9432 286.153 100.059 287.343Z" fill="white"/>
<path d="M77.2415 321.441C75.0728 321.441 72.9202 319.751 72.3424 317.592C72.0483 316.494 72.2248 315.416 72.8261 314.631C73.4275 313.847 74.3288 313.446 75.4036 313.446C77.5738 313.446 79.7263 315.137 80.3042 317.296C80.5982 318.394 80.4218 319.472 79.8204 320.256C79.2191 321.041 78.3134 321.441 77.2415 321.441ZM75.4036 314.589C74.692 314.589 74.0994 314.85 73.7333 315.323C73.3437 315.832 73.2408 316.531 73.4393 317.293C73.8803 318.949 75.5859 320.296 77.2341 320.296C77.9458 320.296 78.5398 320.035 78.9059 319.562C79.2955 319.053 79.397 318.354 79.1926 317.592C78.7515 315.936 77.0489 314.589 75.3992 314.589H75.4036Z" fill="white"/>
<path d="M82.9558 342.755C80.7871 342.755 78.6345 341.065 78.0552 338.905C77.7612 337.809 77.9376 336.729 78.5404 335.945C79.1433 335.16 80.0431 334.761 81.1179 334.761C83.2866 334.761 85.4392 336.452 86.0185 338.61C86.3125 339.707 86.1361 340.785 85.5333 341.57C84.9304 342.354 84.0306 342.755 82.9558 342.755ZM81.1179 335.902C80.4063 335.902 79.8123 336.164 79.4476 336.637C79.0565 337.144 78.9551 337.843 79.1536 338.605C79.5947 340.261 81.3002 341.608 82.9499 341.608C83.6616 341.608 84.2556 341.347 84.6202 340.874C85.0098 340.365 85.1128 339.666 84.9143 338.904C84.4702 337.255 82.7661 335.908 81.1179 335.908V335.902Z" fill="white"/>
<path d="M88.6731 364.081C86.5044 364.081 84.3519 362.39 83.774 360.232C83.48 359.134 83.6564 358.056 84.2578 357.271C84.8591 356.487 85.7604 356.086 86.8367 356.086C89.0054 356.086 91.1565 357.777 91.7358 359.936C92.0299 361.032 91.8534 362.112 91.2521 362.897C90.6507 363.681 89.7494 364.081 88.6731 364.081ZM86.8367 357.229C86.1236 357.229 85.5311 357.49 85.165 357.963C84.7753 358.472 84.6724 359.171 84.8709 359.933C85.312 361.589 87.0176 362.936 88.6658 362.936C89.3789 362.936 89.9714 362.673 90.3375 362.202C90.7272 361.695 90.8286 360.996 90.6242 360.233C90.1817 358.576 88.4849 357.229 86.8367 357.229Z" fill="white"/>
<path d="M111.45 316.873H82.8727C82.721 316.873 82.5756 316.813 82.4683 316.706C82.361 316.598 82.3008 316.453 82.3008 316.301C82.3008 316.15 82.361 316.005 82.4683 315.897C82.5756 315.79 82.721 315.73 82.8727 315.73H111.45C111.602 315.73 111.747 315.79 111.854 315.897C111.962 316.005 112.022 316.15 112.022 316.301C112.022 316.453 111.962 316.598 111.854 316.706C111.747 316.813 111.602 316.873 111.45 316.873Z" fill="white"/>
<path d="M130.635 321.631H88.9115C88.834 321.635 88.7566 321.624 88.6839 321.597C88.6111 321.57 88.5447 321.528 88.4884 321.475C88.4322 321.422 88.3875 321.357 88.3569 321.286C88.3263 321.215 88.3105 321.138 88.3105 321.061C88.3105 320.983 88.3263 320.907 88.3569 320.835C88.3875 320.764 88.4322 320.7 88.4884 320.647C88.5447 320.593 88.6111 320.552 88.6839 320.525C88.7566 320.498 88.834 320.486 88.9115 320.49H130.635C130.712 320.486 130.79 320.498 130.862 320.525C130.935 320.552 131.002 320.593 131.058 320.647C131.114 320.7 131.159 320.764 131.189 320.835C131.22 320.907 131.236 320.983 131.236 321.061C131.236 321.138 131.22 321.215 131.189 321.286C131.159 321.357 131.114 321.422 131.058 321.475C131.002 321.528 130.935 321.57 130.862 321.597C130.79 321.624 130.712 321.635 130.635 321.631Z" fill="white"/>
<path d="M131.506 324.884H89.7829C89.6312 324.884 89.4857 324.824 89.3785 324.717C89.2712 324.61 89.2109 324.464 89.2109 324.313C89.2109 324.161 89.2712 324.016 89.3785 323.909C89.4857 323.801 89.6312 323.741 89.7829 323.741H131.506C131.658 323.741 131.803 323.801 131.911 323.909C132.018 324.016 132.078 324.161 132.078 324.313C132.078 324.464 132.018 324.61 131.911 324.717C131.803 324.824 131.658 324.884 131.506 324.884Z" fill="white"/>
<path d="M132.379 328.135H90.6543C90.5078 328.127 90.3698 328.064 90.2687 327.958C90.1677 327.852 90.1113 327.711 90.1113 327.564C90.1113 327.418 90.1677 327.277 90.2687 327.17C90.3698 327.064 90.5078 327.001 90.6543 326.993H132.379C132.456 326.989 132.534 327.001 132.607 327.028C132.679 327.055 132.746 327.097 132.802 327.15C132.858 327.203 132.903 327.268 132.934 327.339C132.964 327.41 132.98 327.487 132.98 327.564C132.98 327.642 132.964 327.718 132.934 327.79C132.903 327.861 132.858 327.925 132.802 327.978C132.746 328.032 132.679 328.073 132.607 328.1C132.534 328.127 132.456 328.139 132.379 328.135Z" fill="white"/>
<path d="M133.25 331.388H91.527C91.3753 331.388 91.2299 331.328 91.1226 331.22C91.0153 331.113 90.9551 330.968 90.9551 330.816C90.9551 330.665 91.0153 330.519 91.1226 330.412C91.2299 330.305 91.3753 330.245 91.527 330.245H133.25C133.402 330.245 133.547 330.305 133.655 330.412C133.762 330.519 133.822 330.665 133.822 330.816C133.822 330.968 133.762 331.113 133.655 331.22C133.547 331.328 133.402 331.388 133.25 331.388Z" fill="white"/>
<path d="M117.155 338.145H88.5778C88.4261 338.145 88.2806 338.085 88.1734 337.978C88.0661 337.871 88.0059 337.725 88.0059 337.574C88.0059 337.422 88.0661 337.277 88.1734 337.17C88.2806 337.063 88.4261 337.002 88.5778 337.002H117.155C117.307 337.002 117.452 337.063 117.559 337.17C117.667 337.277 117.727 337.422 117.727 337.574C117.727 337.725 117.667 337.871 117.559 337.978C117.452 338.085 117.307 338.145 117.155 338.145Z" fill="white"/>
<path d="M136.34 342.902H94.6166C94.5391 342.906 94.4617 342.895 94.389 342.868C94.3162 342.841 94.2497 342.799 94.1935 342.746C94.1373 342.693 94.0926 342.628 94.062 342.557C94.0314 342.486 94.0156 342.409 94.0156 342.332C94.0156 342.254 94.0314 342.178 94.062 342.106C94.0926 342.035 94.1373 341.971 94.1935 341.918C94.2497 341.864 94.3162 341.823 94.389 341.796C94.4617 341.769 94.5391 341.757 94.6166 341.761H136.34C136.417 341.757 136.495 341.769 136.567 341.796C136.64 341.823 136.707 341.864 136.763 341.918C136.819 341.971 136.864 342.035 136.894 342.106C136.925 342.178 136.941 342.254 136.941 342.332C136.941 342.409 136.925 342.486 136.894 342.557C136.864 342.628 136.819 342.693 136.763 342.746C136.707 342.799 136.64 342.841 136.567 342.868C136.495 342.895 136.417 342.906 136.34 342.902Z" fill="white"/>
<path d="M137.211 346.156H95.488C95.3363 346.156 95.1908 346.096 95.0835 345.989C94.9763 345.882 94.916 345.736 94.916 345.585C94.916 345.433 94.9763 345.288 95.0835 345.181C95.1908 345.073 95.3363 345.013 95.488 345.013H137.211C137.363 345.013 137.508 345.073 137.616 345.181C137.723 345.288 137.783 345.433 137.783 345.585C137.783 345.736 137.723 345.882 137.616 345.989C137.508 346.096 137.363 346.156 137.211 346.156Z" fill="white"/>
<path d="M138.083 349.407H96.3568C96.2794 349.411 96.2019 349.399 96.1292 349.373C96.0565 349.346 95.99 349.304 95.9338 349.251C95.8776 349.197 95.8328 349.133 95.8022 349.062C95.7716 348.991 95.7559 348.914 95.7559 348.837C95.7559 348.759 95.7716 348.682 95.8022 348.611C95.8328 348.54 95.8776 348.476 95.9338 348.422C95.99 348.369 96.0565 348.328 96.1292 348.301C96.2019 348.274 96.2794 348.262 96.3568 348.266H138.08C138.157 348.262 138.235 348.274 138.308 348.301C138.38 348.328 138.447 348.369 138.503 348.422C138.559 348.476 138.604 348.54 138.635 348.611C138.665 348.682 138.681 348.759 138.681 348.837C138.681 348.914 138.665 348.991 138.635 349.062C138.604 349.133 138.559 349.197 138.503 349.251C138.447 349.304 138.38 349.346 138.308 349.373C138.235 349.399 138.157 349.411 138.08 349.407H138.083Z" fill="white"/>
<path d="M138.956 352.66H97.2399C97.0882 352.66 96.9428 352.6 96.8355 352.492C96.7282 352.385 96.668 352.24 96.668 352.088C96.668 351.937 96.7282 351.791 96.8355 351.684C96.9428 351.577 97.0882 351.517 97.2399 351.517H138.963C139.115 351.517 139.26 351.577 139.368 351.684C139.475 351.791 139.535 351.937 139.535 352.088C139.535 352.24 139.475 352.385 139.368 352.492C139.26 352.6 139.115 352.66 138.963 352.66H138.956Z" fill="white"/>
<path d="M122.628 358.561H94.0505C93.8988 358.561 93.7533 358.501 93.646 358.394C93.5388 358.286 93.4785 358.141 93.4785 357.989C93.4785 357.838 93.5388 357.693 93.646 357.585C93.7533 357.478 93.8988 357.418 94.0505 357.418H122.628C122.779 357.418 122.925 357.478 123.032 357.585C123.139 357.693 123.2 357.838 123.2 357.989C123.2 358.141 123.139 358.286 123.032 358.394C122.925 358.501 122.779 358.561 122.628 358.561Z" fill="white"/>
<path d="M141.813 363.322H100.091C99.9398 363.322 99.7943 363.262 99.6871 363.155C99.5798 363.048 99.5195 362.902 99.5195 362.751C99.5195 362.599 99.5798 362.454 99.6871 362.347C99.7943 362.24 99.9398 362.179 100.091 362.179H141.813C141.965 362.179 142.11 362.24 142.218 362.347C142.325 362.454 142.385 362.599 142.385 362.751C142.385 362.902 142.325 363.048 142.218 363.155C142.11 363.262 141.965 363.322 141.813 363.322Z" fill="white"/>
<path d="M142.685 366.571H100.962C100.885 366.575 100.807 366.563 100.735 366.536C100.662 366.509 100.595 366.468 100.539 366.414C100.483 366.361 100.438 366.296 100.408 366.225C100.377 366.154 100.361 366.077 100.361 366C100.361 365.922 100.377 365.846 100.408 365.775C100.438 365.703 100.483 365.639 100.539 365.586C100.595 365.532 100.662 365.491 100.735 365.464C100.807 365.437 100.885 365.425 100.962 365.429H142.685C142.832 365.437 142.97 365.5 143.071 365.606C143.172 365.712 143.228 365.853 143.228 366C143.228 366.146 143.172 366.287 143.071 366.394C142.97 366.5 142.832 366.563 142.685 366.571Z" fill="white"/>
<path d="M143.554 369.823H101.835C101.758 369.827 101.68 369.815 101.608 369.788C101.535 369.761 101.468 369.72 101.412 369.667C101.356 369.613 101.311 369.549 101.281 369.478C101.25 369.407 101.234 369.33 101.234 369.252C101.234 369.175 101.25 369.098 101.281 369.027C101.311 368.956 101.356 368.892 101.412 368.838C101.468 368.785 101.535 368.743 101.608 368.716C101.68 368.69 101.758 368.678 101.835 368.682H143.554C143.701 368.689 143.839 368.752 143.94 368.859C144.041 368.965 144.097 369.106 144.097 369.252C144.097 369.399 144.041 369.54 143.94 369.646C143.839 369.752 143.701 369.816 143.554 369.823Z" fill="white"/>
<path d="M144.436 373.076H102.707C102.555 373.076 102.41 373.016 102.302 372.908C102.195 372.801 102.135 372.656 102.135 372.504C102.135 372.353 102.195 372.207 102.302 372.1C102.41 371.993 102.555 371.933 102.707 371.933H144.436C144.588 371.933 144.733 371.993 144.84 372.1C144.948 372.207 145.008 372.353 145.008 372.504C145.008 372.656 144.948 372.801 144.84 372.908C144.733 373.016 144.588 373.076 144.436 373.076Z" fill="white"/>
<path d="M317.822 245.395C318.905 243.554 317.82 240.908 315.398 239.486C312.976 238.063 310.134 238.402 309.051 240.243C307.968 242.084 309.053 244.73 311.475 246.152C313.898 247.575 316.739 247.236 317.822 245.395Z" fill="white"/>
<path d="M312.44 239.984C312.217 239.973 312.003 239.894 311.826 239.757C311.649 239.621 311.518 239.434 311.45 239.222L310.883 237.281C310.756 236.849 311.003 236.492 311.434 236.48C311.661 236.488 311.879 236.565 312.06 236.701C312.241 236.838 312.375 237.027 312.444 237.243L313.012 239.184C313.138 239.614 312.891 239.972 312.46 239.983L312.44 239.984Z" fill="white"/>
<path d="M311.397 236.339C311.317 236.336 311.236 236.349 311.161 236.379C311.087 236.409 311.019 236.455 310.963 236.513C310.908 236.571 310.865 236.641 310.838 236.717C310.812 236.793 310.802 236.873 310.809 236.954L311.153 238.129C311.221 238.341 311.353 238.528 311.53 238.664C311.707 238.8 311.921 238.879 312.144 238.89H312.163C312.244 238.893 312.324 238.879 312.398 238.849C312.473 238.819 312.541 238.774 312.596 238.716C312.652 238.658 312.694 238.588 312.721 238.512C312.748 238.437 312.758 238.356 312.751 238.276L312.406 237.1C312.337 236.885 312.203 236.696 312.022 236.56C311.842 236.424 311.623 236.347 311.397 236.339Z" fill="white"/>
<path d="M313.294 234.28C313.766 236.043 312.873 238.044 311.694 238.044C310.8 238.044 308.549 236.045 308.075 234.28C307.602 232.516 308.387 231.085 309.828 231.085C311.269 231.085 312.82 232.516 313.294 234.28Z" fill="white"/>
<path d="M312.813 240.806L311.645 239.545L313.002 239.677L312.813 240.806Z" fill="white"/>
<path d="M311.348 239.845L312.453 242.188H313.955L313.515 239.395L312.321 239.738L311.348 239.845Z" fill="white"/>
<g style="mix-blend-mode:multiply" opacity="0.26">
<path d="M310.141 239.195C310.442 239.58 311.386 240.836 311.893 240.811C312.495 240.785 312.174 239.93 312.628 240.172C313.083 240.415 313.319 241.016 313.624 240.785C313.928 240.554 314.344 239.799 314.093 238.919C313.696 238.79 313.286 238.704 312.871 238.661C312.689 238.642 313.102 239.689 312.384 239.651C311.457 239.61 311.539 238.669 311.208 238.746C310.83 238.836 310.469 238.988 310.141 239.195Z" fill="white"/>
</g>
<path d="M311.12 238.49C311.129 238.486 311.14 238.483 311.151 238.483C311.162 238.483 311.172 238.485 311.182 238.489C311.192 238.493 311.201 238.5 311.209 238.507C311.216 238.515 311.222 238.524 311.226 238.534C311.324 238.753 311.624 239.315 312.202 239.563C312.827 239.827 312.825 238.743 312.812 238.438C312.812 238.398 312.85 238.377 312.891 238.396L313.847 238.837C313.86 238.843 313.872 238.852 313.881 238.864C313.89 238.875 313.896 238.889 313.899 238.903C313.919 239.124 313.974 240.1 313.388 240.535C313.375 240.543 313.359 240.546 313.344 240.543C313.328 240.541 313.314 240.533 313.303 240.522L312.421 239.744C312.415 239.736 312.408 239.731 312.399 239.727C312.391 239.723 312.382 239.721 312.372 239.721C312.363 239.721 312.354 239.723 312.346 239.727C312.337 239.731 312.33 239.736 312.324 239.744L311.908 240.535C311.903 240.542 311.897 240.548 311.89 240.552C311.883 240.556 311.876 240.559 311.867 240.56C311.859 240.561 311.851 240.56 311.843 240.557C311.836 240.555 311.829 240.551 311.823 240.546C311.599 240.399 310.793 239.84 310.352 239.093C310.344 239.082 310.341 239.068 310.342 239.054C310.344 239.041 310.351 239.028 310.361 239.019L311.12 238.49Z" fill="white"/>
<path d="M308.752 235.894C308.657 235.767 308.638 235.652 308.784 235.702C309.04 235.792 309.519 236.009 309.872 235.939C310.46 235.821 310.175 235.561 311.367 235.561C312.083 235.561 312.102 235.821 312.764 235.797C313.426 235.774 313.429 235.252 313.462 235.561C313.496 235.869 313.407 236.788 313.29 237.052C313.01 237.691 312.568 238.164 311.898 238.164C311.228 238.164 310.651 237.691 310.109 237.265C309.61 236.857 309.155 236.397 308.752 235.894Z" fill="white"/>
<path d="M308.506 235.466C308.506 235.466 308.78 235.774 308.699 235.561C308.618 235.348 307.883 233.052 308.573 232.956C309.262 232.861 311.143 233.122 311.669 232.956C312.195 232.79 312.992 233.525 313.397 235.135C313.397 235.135 313.619 235.608 313.575 235.086C313.53 234.565 313.247 233.241 312.895 232.555C312.544 231.869 313.083 231.655 313.095 231.348C313.107 231.041 312.553 231.277 311.184 230.875C309.815 230.472 307.705 230.164 307.768 232.176C307.649 232.745 307.653 233.333 307.78 233.901C307.908 234.468 308.155 235.002 308.506 235.466Z" fill="white"/>
<path d="M308.199 235.167C308.324 235.512 308.521 235.784 308.64 235.772C308.759 235.761 308.751 235.479 308.626 235.128C308.501 234.776 308.305 234.512 308.185 234.522C308.064 234.533 308.074 234.822 308.199 235.167Z" fill="white"/>
<path d="M313.237 235.111C313.269 235.454 313.397 235.746 313.521 235.767C313.644 235.787 313.719 235.526 313.685 235.179C313.651 234.832 313.525 234.544 313.4 234.524C313.275 234.503 313.203 234.769 313.237 235.111Z" fill="white"/>
<path d="M317.454 239.959C317.363 239.959 317.275 239.929 317.202 239.874C317.13 239.818 317.078 239.74 317.054 239.652L315.731 234.699C315.714 234.645 315.708 234.589 315.713 234.533C315.718 234.477 315.734 234.422 315.761 234.373C315.788 234.324 315.825 234.28 315.869 234.245C315.913 234.211 315.964 234.185 316.018 234.171C316.072 234.156 316.129 234.153 316.185 234.161C316.24 234.169 316.294 234.188 316.342 234.217C316.39 234.247 316.431 234.285 316.464 234.331C316.496 234.377 316.519 234.429 316.531 234.484L317.854 239.438C317.883 239.544 317.868 239.657 317.812 239.753C317.757 239.848 317.667 239.918 317.56 239.946C317.526 239.955 317.49 239.959 317.454 239.959Z" fill="white"/>
<path d="M319.285 237.483H314.297C314.187 237.483 314.082 237.439 314.004 237.361C313.926 237.284 313.883 237.178 313.883 237.068C313.883 236.958 313.926 236.853 314.004 236.775C314.082 236.698 314.187 236.654 314.297 236.654H319.285C319.395 236.654 319.5 236.698 319.578 236.775C319.656 236.853 319.699 236.958 319.699 237.068C319.699 237.178 319.656 237.284 319.578 237.361C319.5 237.439 319.395 237.483 319.285 237.483Z" fill="white"/>
<path opacity="0.35" d="M199.502 225.537L165.928 447.894L122.621 456.964L81.3049 447.894L20.5352 221.29L196.94 215.982L199.502 225.537Z" fill="white"/>
<path opacity="0.35" d="M221.066 220.229L191.662 456.964H212.51L238.476 220.229H221.066Z" fill="white"/>
<path d="M182.338 473.572H166.865C166.075 473.572 165.318 473.259 164.76 472.701C164.202 472.144 163.889 471.388 163.889 470.599C163.889 469.81 164.202 469.054 164.76 468.496C165.318 467.939 166.075 467.625 166.865 467.625H182.338C183.127 467.625 183.884 467.939 184.443 468.496C185.001 469.054 185.314 469.81 185.314 470.599C185.314 471.388 185.001 472.144 184.443 472.701C183.884 473.259 183.127 473.572 182.338 473.572Z" fill="#FEFEFF"/>
<path d="M151.788 473.572H136.316C135.527 473.572 134.77 473.259 134.211 472.701C133.653 472.144 133.34 471.388 133.34 470.599C133.34 469.81 133.653 469.054 134.211 468.496C134.77 467.939 135.527 467.625 136.316 467.625H151.788C152.577 467.625 153.334 467.939 153.892 468.496C154.45 469.054 154.764 469.81 154.764 470.599C154.764 471.388 154.45 472.144 153.892 472.701C153.334 473.259 152.577 473.572 151.788 473.572Z" fill="#FEFEFF"/>
<path d="M121.103 473.572H120.706C119.917 473.572 119.16 473.259 118.602 472.701C118.044 472.144 117.73 471.388 117.73 470.599C117.73 469.81 118.044 469.054 118.602 468.496C119.16 467.939 119.917 467.625 120.706 467.625H121.103C121.893 467.625 122.65 467.939 123.208 468.496C123.766 469.054 124.079 469.81 124.079 470.599C124.079 471.388 123.766 472.144 123.208 472.701C122.65 473.259 121.893 473.572 121.103 473.572Z" fill="#FEFEFF"/>
<path d="M337.016 265.996C334.415 265.996 331.731 263.885 331.036 261.295C330.684 259.982 330.88 258.752 331.586 257.832C332.261 256.951 333.325 256.469 334.581 256.469C337.182 256.469 339.865 258.582 340.562 261.17C340.913 262.482 340.718 263.712 340.011 264.633C339.336 265.513 338.273 265.996 337.016 265.996ZM334.581 256.914C333.468 256.914 332.533 257.336 331.944 258.101C331.325 258.908 331.158 259.998 331.472 261.172C332.118 263.584 334.606 265.545 337.016 265.545C338.129 265.545 339.065 265.123 339.652 264.359C340.271 263.553 340.44 262.461 340.125 261.289C339.478 258.871 336.991 256.914 334.581 256.914Z" fill="white"/>
<path d="M324.081 265.996C321.48 265.996 318.797 263.885 318.1 261.295C317.749 259.982 317.944 258.752 318.652 257.832C319.326 256.951 320.39 256.469 321.647 256.469C324.248 256.469 326.931 258.582 327.626 261.17C327.978 262.482 327.782 263.712 327.075 264.633C326.402 265.513 325.337 265.996 324.081 265.996ZM321.647 256.914C320.534 256.914 319.597 257.336 319.01 258.101C318.39 258.908 318.222 259.998 318.537 261.172C319.184 263.584 321.67 265.545 324.081 265.545C325.195 265.545 326.13 265.123 326.718 264.359C327.337 263.553 327.504 262.461 327.19 261.289C326.544 258.871 324.056 256.914 321.647 256.914Z" fill="white"/>
<path d="M310.97 265.996C308.369 265.996 305.685 263.885 304.99 261.295C304.637 259.982 304.833 258.752 305.54 257.832C306.215 256.951 307.279 256.469 308.535 256.469C311.136 256.469 313.819 258.582 314.515 261.17C314.867 262.482 314.67 263.712 313.965 264.633C313.29 265.513 312.225 265.996 310.97 265.996ZM308.535 256.914C307.422 256.914 306.487 257.336 305.899 258.101C305.28 258.908 305.112 259.998 305.427 261.172C306.072 263.584 308.56 265.545 310.97 265.545C312.083 265.545 313.018 265.123 313.606 264.359C314.225 263.553 314.393 262.461 314.078 261.289C313.432 258.871 310.945 256.914 308.535 256.914Z" fill="white"/>
<path d="M345.995 413.89L379.445 399.863L326.09 276.08C321.314 266.873 301.144 266.008 299.584 268.831C294.57 277.91 287.945 284.152 292.721 293.365L292.802 293.512L345.995 413.89Z" fill="#1B1B1B"/>
<path d="M202.142 301.413L167.544 357.417L167.172 358.124L135.594 412.537L135.307 413.033C134.047 415.202 132.017 416.819 129.62 417.563C127.223 418.306 124.633 418.123 122.365 417.05C120.097 415.976 118.315 414.09 117.373 411.765C116.43 409.441 116.397 406.848 117.278 404.499L140.624 342.422C141.207 340.875 142.36 339.61 143.848 338.887C145.335 338.164 147.043 338.038 148.621 338.534C150.199 339.031 151.526 340.112 152.331 341.556C153.135 343 153.356 344.697 152.946 346.299L136.471 410.54L118.156 402.501L149.422 347.905L149.05 348.611L170.755 286.481C171.512 284.315 172.688 282.32 174.216 280.608C175.745 278.896 177.596 277.502 179.664 276.506C181.732 275.509 183.976 274.929 186.268 274.798C188.56 274.668 190.855 274.99 193.023 275.746C195.19 276.502 197.188 277.678 198.901 279.205C200.614 280.732 202.009 282.582 203.007 284.648C204.004 286.714 204.585 288.956 204.715 291.246C204.846 293.536 204.523 295.83 203.766 297.996C203.343 299.187 202.799 300.332 202.142 301.413Z" fill="#FFC8A8"/>
<path d="M144.2 412.716L110.75 398.689L164.105 274.906C168.88 265.699 184.528 262.104 193.742 266.876C202.957 271.648 202.249 282.979 197.472 292.185L197.393 292.332L144.2 412.716Z" fill="#1B1B1B"/>
<path d="M288.086 277.215C288.086 277.215 280.1 265.501 275.691 263.779C271.281 262.057 222.612 255.319 196.147 275.796C169.681 296.274 226.744 282.807 226.744 282.807L288.086 277.215Z" fill="#386AFF"/>
<path d="M260.493 280.325L260.483 222.991L226.742 221.39L226.754 278.722L260.493 280.325Z" fill="#FFC8A8"/>
<path d="M319.614 467.069C319.492 465.21 319.257 463.36 318.909 461.53L318.63 460.132L316.719 450.464L315.751 445.616C315.439 444 315.216 442.35 314.942 440.718L313.359 430.9C312.874 427.609 312.509 424.289 312.072 420.972L311.44 415.993C311.221 414.335 311.108 412.655 310.934 410.985L309.974 400.938L309.289 390.828C309.289 390.828 308.538 382.071 307.378 369.257L302.723 267.45C254.973 254.669 187.744 265.086 187.744 265.086L186.568 386.71C186.337 389.346 186.21 390.831 186.21 390.831L185.524 400.941L184.563 410.988C184.391 412.658 184.278 414.338 184.059 415.996L183.425 420.975C182.984 424.288 182.626 427.612 182.139 430.903L180.557 440.732C180.283 442.365 180.061 444.011 179.748 445.63L178.782 450.478L176.871 460.146L176.59 461.545C176.242 463.375 176.007 465.225 175.886 467.083C174.121 494.151 207.377 518.767 236.822 520.865C240.858 521.143 244.912 521.042 248.93 520.564C252.948 521.042 257.002 521.143 261.039 520.865C290.472 518.751 321.382 494.136 319.614 467.069Z" fill="#1B1B1B"/>
<path d="M250.398 362.018C250.398 362.018 250.656 344.139 273.556 339.773L277.349 362.018V388.332L256.324 386.008L250.398 364.057V362.018Z" fill="#FFC8A8"/>
<path d="M279.053 363.325L298.664 353.703L284.964 344.947L271.93 346.81L279.053 363.325Z" fill="#FFC8A8"/>
<path d="M207.213 213.615C210.629 212.735 211.976 206.504 210.221 199.698C208.465 192.892 204.272 188.088 200.855 188.968C197.438 189.848 196.091 196.079 197.847 202.885C199.602 209.691 203.796 214.495 207.213 213.615Z" fill="#FFC8A8"/>
<path d="M288.27 201.11C290.059 194.325 288.748 188.097 285.342 187.201C281.936 186.304 277.724 191.077 275.935 197.862C274.146 204.647 275.457 210.875 278.863 211.771C282.269 212.668 286.481 207.895 288.27 201.11Z" fill="#FFC8A8"/>
<path d="M287.389 169.56C287.389 168.04 287.315 166.538 287.167 165.055C287.207 163.61 286.995 162.168 286.54 160.795C282.454 139.959 268.259 124.236 242.029 124.236C216.977 124.236 202.624 141.486 197.844 169.558C197.528 171.414 197.96 173.294 198.184 175.114V175.154C198.382 176.766 198.667 178.366 199.038 179.947C202.049 195.173 214.001 248.163 244.524 248.161C273.489 248.161 283.356 209.145 286.249 179.68C287.007 176.36 287.389 172.965 287.389 169.56Z" fill="#FFC8A8"/>
<path d="M201.376 181.972C201.376 181.972 199.759 172.323 207.633 173.304C215.506 174.286 237.462 177.778 262.061 168.095C287.252 158.173 285.658 177.244 285.658 177.244L285.677 168.871L276.617 147.651L248.915 149.896L216.352 153.025L204.498 160.164L200.602 164.812L201.376 181.972Z" fill="#FDAE8E"/>
<path d="M207.013 209.056C207.013 209.056 205.798 196.767 202.706 186.138C199.614 175.509 211.034 160.003 223.144 163.651C235.253 167.299 260.628 165.734 267.512 163.779C274.396 161.824 288.096 171.334 284.184 190.44C280.271 209.545 279.226 214.878 279.226 214.878C279.226 214.878 288.204 190.575 287.173 165.051C286.142 139.527 273.577 122.316 244.038 121.142C212.427 119.886 200.149 140.24 197.738 159.007C195.309 177.864 207.013 209.056 207.013 209.056Z" fill="#2B2B2B"/>
<path d="M224.475 123.66L224.316 127.764L269.464 132.205L269.17 128.023C262.74 123.965 254.442 121.559 244.035 121.146C236.441 120.845 229.967 121.791 224.475 123.66Z" fill="#5B5B5B"/>
<path d="M260.482 222.991L226.742 221.39V250.275C227.33 250.883 227.829 251.358 228.189 251.68C231.333 254.487 248.931 258.161 260.483 251.627L260.482 222.991Z" fill="#FDAE8E"/>
<path d="M205.879 200.8C205.879 200.8 218.503 215.592 229.613 214.134C240.723 212.677 247.38 210.115 258.928 214.134C270.476 218.154 282.879 199.924 282.574 202.798C282.091 207.3 276.62 225.847 266.749 239.545C256.92 253.185 231.995 248.524 228.194 245.128C224.393 241.731 206.21 221.749 205.879 200.8Z" fill="#2B2B2B"/>
<path d="M198.475 176.936C200.974 192.981 207.013 209.056 207.013 209.056C207.013 209.056 205.798 196.767 202.706 186.138C202.181 184.301 202.058 182.373 202.346 180.484L198.475 176.936Z" fill="#2D2D2D"/>
<path d="M149.644 322.249C149.644 322.249 143.866 323.337 138.47 334.461C133.074 345.585 125.93 368.361 125.93 368.361L145.926 376.186L152.273 357.99L149.644 322.249Z" fill="#FFC8A8"/>
<g style="mix-blend-mode:multiply" opacity="0.18">
<path d="M309.974 400.931L309.289 390.821C309.289 390.821 308.538 382.063 307.378 369.25L303.621 287.086H187.525L186.557 386.7C186.326 389.335 186.2 390.821 186.2 390.821L185.513 400.931L184.59 410.584H310.898L309.974 400.931Z" fill="#386AFF"/>
</g>
<path d="M340.551 323.422C340.551 323.422 346.328 324.511 351.726 335.635C357.123 346.758 364.266 369.535 364.266 369.535L344.27 377.359L337.93 359.163L340.551 323.422Z" fill="#FFC8A8"/>
<path d="M222.931 261.717C222.931 261.717 218.99 299.711 244.633 299.711C270.275 299.711 264.275 261.609 264.275 261.609C264.275 261.609 246.791 257.271 222.931 261.717Z" fill="#FFC8A8"/>
<path d="M335.97 285.636H151.254V403.657H335.97V285.636Z" fill="url(#paint6_linear_836_789)"/>
<path d="M335.886 280.161H151.17V398.182H335.886V280.161Z" fill="url(#paint7_linear_836_789)"/>
<path d="M196.013 315.804H204.822C204.822 318.574 204.977 320.266 205.288 320.879C205.598 321.492 206.17 321.799 207.004 321.8C207.712 321.8 208.209 321.604 208.495 321.213C208.78 320.821 208.921 319.982 208.919 318.696V293.922H218.5V315.633C218.5 318.088 218.393 319.912 218.18 321.104C217.966 322.296 217.602 323.275 217.089 324.042C216.272 325.241 215.066 326.147 213.47 326.761C211.874 327.375 209.905 327.683 207.562 327.683C203.394 327.683 200.414 326.899 198.621 325.332C196.829 323.765 195.933 321.146 195.934 317.474C195.934 317.018 195.934 316.675 195.947 316.446C195.954 316.23 195.977 316.016 196.013 315.804Z" fill="#101010"/>
<path d="M224.008 314.52C224.008 309.695 224.868 306.312 226.588 304.371C228.309 302.43 231.262 301.459 235.448 301.459C239.636 301.459 242.59 302.423 244.31 304.349C246.03 306.276 246.891 309.666 246.892 314.52C246.892 319.344 246.031 322.723 244.31 324.656C242.589 326.59 239.635 327.557 235.448 327.559C231.245 327.559 228.287 326.599 226.574 324.68C224.86 322.76 224.005 319.373 224.008 314.52ZM232.736 314.52C232.736 318.003 232.926 320.184 233.308 321.061C233.689 321.939 234.403 322.38 235.45 322.384C236.497 322.384 237.211 321.962 237.592 321.12C237.973 320.278 238.164 318.08 238.164 314.525C238.164 310.972 237.973 308.769 237.592 307.915C237.211 307.061 236.497 306.636 235.45 306.641C234.403 306.641 233.689 307.082 233.308 307.963C232.926 308.845 232.736 311.03 232.736 314.52Z" fill="#101010"/>
<path d="M251.975 293.922H260.57V304.392C261.276 303.482 262.181 302.746 263.217 302.241C264.291 301.758 265.459 301.52 266.637 301.545C269.669 301.545 271.771 302.426 272.943 304.189C274.114 305.952 274.702 309.631 274.707 315.226C274.707 317.826 274.618 319.81 274.441 321.179C274.264 322.548 273.989 323.562 273.616 324.22C273.002 325.309 272.075 326.189 270.955 326.745C269.818 327.316 268.452 327.602 266.857 327.602C265.493 327.621 264.144 327.319 262.918 326.72C261.734 326.123 260.711 325.248 259.938 324.171V326.889H251.975V293.922ZM263.178 307.437C262.167 307.437 261.453 307.833 261.036 308.626C260.62 309.418 260.411 310.863 260.411 312.961C260.411 317.043 260.628 319.562 261.063 320.519C261.497 321.476 262.281 321.955 263.415 321.955C264.372 321.955 265.037 321.59 265.41 320.862C265.784 320.133 265.97 318.463 265.969 315.852V315.188C265.969 311.691 265.773 309.525 265.381 308.69C264.989 307.856 264.255 307.437 263.178 307.433V307.437Z" fill="#101010"/>
<path d="M166.848 368.339H175.63V369.303C175.63 371.116 175.896 372.393 176.428 373.136C176.96 373.878 177.856 374.249 179.116 374.249C180.127 374.249 180.926 373.967 181.511 373.403C182.096 372.839 182.39 372.072 182.393 371.103C182.393 369.502 180.965 367.968 178.109 366.499C177.647 366.242 177.292 366.049 177.044 365.92L176.591 365.685C172.742 363.602 170.347 362.032 169.407 360.975C168.733 360.177 168.21 359.262 167.864 358.276C167.5 357.223 167.32 356.114 167.331 355C167.331 352.118 168.369 349.855 170.445 348.213C172.522 346.57 175.377 345.75 179.013 345.751C182.969 345.751 185.99 346.557 188.075 348.17C190.159 349.783 191.202 352.117 191.202 355.172C191.202 355.3 191.192 355.479 191.174 355.707C191.156 355.934 191.147 356.114 191.147 356.243H182.553V355.83C182.553 354.387 182.274 353.295 181.714 352.554C181.154 351.813 180.343 351.441 179.279 351.441C178.374 351.441 177.647 351.701 177.097 352.222C176.547 352.743 176.272 353.432 176.272 354.288C176.272 355.688 177.834 357.173 180.957 358.742C181.524 359.042 181.958 359.27 182.259 359.426C182.508 359.541 182.848 359.72 183.297 359.963C186.651 361.676 188.797 363.117 189.737 364.288C190.333 365.063 190.787 365.936 191.081 366.867C191.4 367.882 191.557 368.94 191.547 370.004C191.547 373.301 190.483 375.842 188.354 377.627C186.225 379.411 183.182 380.304 179.226 380.304C175.075 380.304 171.957 379.45 169.873 377.744C167.79 376.038 166.747 373.501 166.746 370.133C166.746 369.919 166.75 369.694 166.759 369.459C166.768 369.224 166.798 368.851 166.848 368.339Z" fill="#101010"/>
<path d="M210.013 370.824H218.076V371.445C218.076 374.342 217.136 376.522 215.256 377.985C213.376 379.449 210.573 380.18 206.846 380.18C205.122 380.201 203.403 379.985 201.738 379.538C200.212 379.11 199.023 378.518 198.171 377.761C197.213 376.891 196.531 375.735 196.123 374.292C195.715 372.85 195.511 370.545 195.51 367.377C195.51 363.88 195.719 361.439 196.136 360.054C196.513 358.733 197.255 357.545 198.278 356.628C199.253 355.787 200.49 355.15 201.989 354.718C203.489 354.286 205.232 354.072 207.219 354.075C209.242 354.075 210.989 354.307 212.461 354.771C213.933 355.235 215.131 355.924 216.053 356.838C216.832 357.606 217.409 358.555 217.731 359.6C218.067 360.67 218.236 362.497 218.236 365.081V368.057H204.239C204.219 368.149 204.211 368.242 204.213 368.335C204.14 369.378 204.104 370.106 204.105 370.52C204.105 372.262 204.336 373.471 204.798 374.148C205.259 374.825 206.049 375.164 207.166 375.166C208.141 375.166 208.876 374.906 209.372 374.385C209.868 373.864 210.116 373.075 210.117 372.018C210.108 371.689 210.081 371.36 210.037 371.034C210.022 370.965 210.014 370.894 210.013 370.824ZM204.452 363.779H210.226V363.652C210.297 363.023 210.332 362.582 210.332 362.329C210.332 361.116 210.087 360.22 209.597 359.643C209.107 359.065 208.348 358.776 207.321 358.776C206.274 358.776 205.525 359.057 205.073 359.621C204.621 360.184 204.394 361.114 204.393 362.412C204.393 362.769 204.393 363.048 204.407 363.248C204.42 363.447 204.426 363.616 204.451 363.779H204.452Z" fill="#101010"/>
<path d="M238.299 379.516L237.793 377.248C236.742 378.142 235.539 378.842 234.241 379.313C232.895 379.787 231.476 380.023 230.049 380.009C227.636 380.009 225.725 379.381 224.315 378.125C222.905 376.868 222.2 375.169 222.199 373.028C222.199 371.159 222.798 369.617 223.996 368.404C225.194 367.19 227.159 366.141 229.89 365.255C230.546 365.06 231.433 364.796 232.552 364.464C235.761 363.522 237.366 362.459 237.367 361.274C237.367 360.546 237.137 359.992 236.676 359.614C236.215 359.236 235.55 359.047 234.679 359.047C233.632 359.047 232.857 359.3 232.352 359.807C231.847 360.313 231.594 361.097 231.593 362.157V362.329H222.971C222.971 359.532 223.938 357.451 225.872 356.087C227.806 354.723 230.742 354.041 234.679 354.042C236.272 354.026 237.862 354.159 239.43 354.439C240.823 354.703 241.989 355.085 242.929 355.585C244.135 356.242 244.982 357.034 245.47 357.962C245.958 358.889 246.203 360.58 246.205 363.036V372.585C246.205 374.527 246.289 376.008 246.458 377.029C246.627 378.049 246.906 378.882 247.296 379.526L238.299 379.516ZM237.208 367.59C234.989 368.09 233.372 368.711 232.356 369.453C231.341 370.194 230.83 371.122 230.826 372.237C230.826 373.02 231.078 373.648 231.584 374.121C232.09 374.594 232.768 374.83 233.619 374.828C234.88 374.828 235.794 374.485 236.361 373.8C236.929 373.114 237.213 371.965 237.213 370.352L237.208 367.59Z" fill="#101010"/>
<path d="M251.684 379.516V354.743H259.587V358.212C260.526 356.971 261.559 356.029 262.686 355.387C263.86 354.729 265.166 354.341 266.509 354.251V362.109C266.031 362.024 265.575 361.96 265.138 361.917C264.702 361.874 264.308 361.852 263.955 361.852C262.572 361.852 261.609 362.244 261.067 363.027C260.525 363.811 260.255 365.345 260.256 367.63V379.513L251.684 379.516Z" fill="#101010"/>
<path d="M283.91 369.774H292.371C292.371 369.902 292.38 370.068 292.398 370.278C292.415 370.488 292.424 370.638 292.424 370.738C292.424 373.907 291.511 376.273 289.683 377.835C287.856 379.397 285.08 380.181 281.354 380.186C277.15 380.186 274.192 379.226 272.481 377.306C270.769 375.387 269.913 371.999 269.912 367.142C269.912 362.29 270.773 358.9 272.494 356.971C274.215 355.043 277.169 354.079 281.354 354.08C285.115 354.08 287.883 354.855 289.657 356.404C291.431 357.954 292.318 360.37 292.318 363.653V364.08H284.015V363.374C284.015 361.89 283.816 360.834 283.417 360.205C283.018 359.576 282.349 359.262 281.409 359.263C280.33 359.263 279.598 359.684 279.212 360.527C278.826 361.369 278.635 363.573 278.64 367.137C278.64 370.565 278.831 372.746 279.212 373.679C279.593 374.613 280.307 375.08 281.354 375.081C282.26 375.081 282.921 374.749 283.338 374.086C283.754 373.423 283.962 372.37 283.962 370.928C283.962 370.813 283.954 370.634 283.936 370.371C283.918 370.108 283.91 369.917 283.91 369.774Z" fill="#101010"/>
<path d="M297.48 379.516V346.542H306.049V357.377C306.753 356.352 307.724 355.539 308.856 355.026C310 354.506 311.373 354.246 312.973 354.245C315.351 354.245 317.09 354.881 318.19 356.155C319.29 357.428 319.84 359.452 319.84 362.226V379.504H311.297V364.204C311.297 362.22 311.138 360.986 310.819 360.5C310.501 360.014 309.933 359.77 309.115 359.766C308.676 359.749 308.24 359.844 307.847 360.041C307.454 360.237 307.117 360.53 306.867 360.891C306.326 361.64 306.055 362.686 306.055 364.027V379.507L297.48 379.516Z" fill="#101010"/>
<path opacity="0.35" d="M272.381 267.579L249.682 408.482L235.604 415.924L259.057 271.371L272.381 267.579Z" fill="white"/>
<path opacity="0.35" d="M309.709 266.82L287.008 407.724L258.424 415.924L281.877 271.371L309.709 266.82Z" fill="white"/>
<path style="mix-blend-mode:multiply" opacity="0.63" d="M340.527 323.252C337.932 322.648 318.689 321.114 319.296 324.778C319.903 328.442 338.635 329.125 337.509 334.282C336.383 339.438 318.771 333.487 315.789 338.294C312.808 343.101 323.756 347.377 336.703 346.766C349.651 346.155 314.656 339.437 315.582 344.323C316.508 349.209 319.6 351.652 321.879 352.874C324.158 354.097 339.709 356.538 339.709 356.538C339.709 356.538 323.957 351.041 323.954 356.538C323.951 362.036 338.315 368.754 340.514 368.754C342.714 368.754 350.439 369.243 348.463 350.37C346.487 331.496 349.382 326.61 344.944 324.778C340.507 322.946 341.84 323.558 340.527 323.252Z" fill="url(#paint8_linear_836_789)"/>
<path d="M340.267 321.64C337.672 321.036 318.427 319.503 319.034 323.167C319.642 326.83 338.375 327.514 337.249 332.67C336.123 337.827 318.51 331.875 315.529 336.684C312.549 341.492 323.495 345.765 336.442 345.154C349.388 344.543 314.387 337.825 315.32 342.711C316.254 347.597 319.34 350.04 321.619 351.263C323.898 352.485 339.448 354.927 339.448 354.927C339.448 354.927 323.697 349.429 323.692 354.927C323.688 360.424 338.055 367.142 340.253 367.142C342.451 367.142 350.177 367.631 348.201 348.758C346.225 329.885 349.12 324.998 344.684 323.167C340.248 321.335 341.58 321.946 340.267 321.64Z" fill="#FFC8A8"/>
<path d="M142.999 415.576L142.69 416.156C140.54 420.207 136.935 423.294 132.599 424.797C128.263 426.299 123.519 426.106 119.32 424.255C115.121 422.404 111.779 419.034 109.967 414.822C108.154 410.609 108.005 405.867 109.549 401.549L126.251 354.907L155.964 371.373L144.202 412.716L142.999 415.576Z" fill="#1B1B1B"/>
<path d="M347.192 416.75L347.499 417.338C349.648 421.392 353.253 424.483 357.591 425.988C361.928 427.492 366.675 427.3 370.876 425.448C375.077 423.596 378.42 420.223 380.232 416.008C382.044 411.793 382.19 407.048 380.642 402.729L363.939 356.089L334.227 372.554L345.989 413.897L347.192 416.75Z" fill="#1B1B1B"/>
<path style="mix-blend-mode:multiply" opacity="0.63" d="M152.246 322.814C154.85 322.21 174.153 320.676 173.548 324.34C172.942 328.004 154.139 328.687 155.275 333.844C156.41 339 174.076 333.049 177.066 337.856C180.057 342.663 169.073 346.939 156.083 346.328C143.093 345.717 178.204 338.999 177.275 343.885C176.346 348.771 173.242 351.214 170.953 352.437C168.663 353.659 153.065 356.1 153.065 356.1C153.065 356.1 168.868 350.603 168.872 356.1C168.876 361.598 154.463 368.316 152.257 368.316C150.052 368.316 142.299 368.805 144.282 349.932C146.266 331.058 143.359 326.172 147.811 324.34C152.263 322.508 150.928 323.12 152.246 322.814Z" fill="url(#paint9_linear_836_789)"/>
<path d="M151.07 321.64C153.674 321.036 172.978 319.503 172.373 323.167C171.769 326.83 152.965 327.514 154.099 332.67C155.232 337.827 172.9 331.875 175.89 336.684C178.881 341.492 167.898 345.765 154.907 345.154C141.917 344.543 177.03 337.825 176.099 342.711C175.168 347.597 172.068 350.04 169.777 351.263C167.486 352.485 151.887 354.927 151.887 354.927C151.887 354.927 167.692 349.429 167.696 354.927C167.701 360.424 153.287 367.142 151.082 367.142C148.876 367.142 141.123 367.631 143.107 348.758C145.09 329.885 142.185 325 146.635 323.167C151.086 321.333 149.753 321.946 151.07 321.64Z" fill="#FFC8A8"/>
<path d="M208.982 164.76C208.511 164.566 203.115 161.456 197.824 158.387C197.794 158.594 197.765 158.803 197.738 159.012C196.812 166.219 197.951 175.23 199.711 183.613C200.604 184.053 201.227 184.319 201.383 184.319C201.499 184.319 201.824 184.206 202.292 184.026C201.611 178.026 204.866 171.065 209.908 166.881C209.582 165.731 209.257 164.878 208.982 164.76Z" fill="#2D2D2D"/>
<path d="M284.472 162.467C287.362 152.686 285.998 124.487 268.391 123.752C254.423 123.165 232.771 127.071 217.06 118.337C210.268 114.56 210.957 120.917 209.106 118.871C207.255 116.824 205.366 114.281 203.253 116.961C201.14 119.641 200.772 111.99 197.135 111.177C193.497 110.365 187.157 123.463 188.901 141.085C190.739 159.576 202.481 166.434 202.481 166.434C202.481 166.434 217.896 179.716 267.363 162.898C282.266 157.831 265.791 150.358 251.651 145.545C261.368 145.75 271.906 145.786 271.906 145.786L284.472 162.467Z" fill="#2B2B2B"/>
<path d="M465.377 0H344.428C340.639 0 337.566 3.06962 337.566 6.85619V50.9873C337.566 54.7739 340.639 57.8435 344.428 57.8435H465.377C469.166 57.8435 472.239 54.7739 472.239 50.9873V6.85619C472.239 3.06962 469.166 0 465.377 0Z" fill="#1A8954"/>
<path d="M352.39 24.1738C351.066 24.1735 349.772 23.781 348.671 23.0459C347.571 22.3107 346.713 21.266 346.206 20.0437C345.7 18.8215 345.568 17.4767 345.826 16.1793C346.085 14.8819 346.722 13.6902 347.659 12.7549C348.595 11.8197 349.788 11.1828 351.086 10.9248C352.385 10.6668 353.731 10.7994 354.954 11.3057C356.177 11.812 357.222 12.6693 357.958 13.7692C358.693 14.8691 359.086 16.1623 359.086 17.4851C359.084 19.2587 358.378 20.9591 357.123 22.2131C355.867 23.4671 354.165 24.1723 352.39 24.1738ZM352.39 12.7077C351.444 12.7077 350.519 12.988 349.733 13.5132C348.946 14.0383 348.333 14.7848 347.971 15.6581C347.609 16.5314 347.515 17.4924 347.699 18.4194C347.884 19.3465 348.34 20.198 349.009 20.8663C349.678 21.5346 350.53 21.9896 351.458 22.1738C352.386 22.3581 353.348 22.2632 354.222 21.9013C355.095 21.5394 355.842 20.9266 356.368 20.1405C356.893 19.3544 357.173 18.4304 357.173 17.4851C357.172 16.2183 356.667 15.0038 355.77 14.1081C354.874 13.2125 353.658 12.7088 352.39 12.7077Z" fill="white"/>
<path d="M424.498 18.5533H371.055C370.772 18.5533 370.5 18.4408 370.299 18.2405C370.099 18.0402 369.986 17.7685 369.986 17.4853C369.986 17.202 370.099 16.9303 370.299 16.7301C370.5 16.5298 370.772 16.4172 371.055 16.4172H424.498C424.782 16.4172 425.054 16.5298 425.254 16.7301C425.455 16.9303 425.567 17.202 425.567 17.4853C425.567 17.7685 425.455 18.0402 425.254 18.2405C425.054 18.4408 424.782 18.5533 424.498 18.5533Z" fill="white"/>
<path d="M457.99 27.4527H379.963C379.68 27.4527 379.408 27.3402 379.208 27.1399C379.007 26.9396 378.895 26.6679 378.895 26.3847C378.895 26.1014 379.007 25.8298 379.208 25.6295C379.408 25.4292 379.68 25.3167 379.963 25.3167H457.99C458.274 25.3167 458.546 25.4292 458.746 25.6295C458.947 25.8298 459.059 26.1014 459.059 26.3847C459.059 26.6679 458.947 26.9396 458.746 27.1399C458.546 27.3402 458.274 27.4527 457.99 27.4527Z" fill="white"/>
<path d="M457.99 33.5347H379.963C379.68 33.5347 379.408 33.4222 379.208 33.2219C379.007 33.0216 378.895 32.75 378.895 32.4667C378.895 32.1834 379.007 31.9118 379.208 31.7115C379.408 31.5112 379.68 31.3987 379.963 31.3987H457.99C458.274 31.3987 458.546 31.5112 458.746 31.7115C458.947 31.9118 459.059 32.1834 459.059 32.4667C459.059 32.75 458.947 33.0216 458.746 33.2219C458.546 33.4222 458.274 33.5347 457.99 33.5347Z" fill="white"/>
<path d="M457.989 39.615H379.962C379.818 39.6204 379.675 39.5967 379.541 39.5455C379.407 39.4942 379.284 39.4165 379.181 39.3168C379.077 39.2172 378.995 39.0977 378.939 38.9656C378.883 38.8335 378.854 38.6913 378.854 38.5478C378.854 38.4042 378.883 38.2621 378.939 38.1299C378.995 37.9978 379.077 37.8783 379.181 37.7787C379.284 37.679 379.407 37.6013 379.541 37.5501C379.675 37.4988 379.818 37.4751 379.962 37.4805H457.989C458.133 37.4751 458.276 37.4988 458.41 37.5501C458.544 37.6013 458.667 37.679 458.77 37.7787C458.874 37.8783 458.956 37.9978 459.012 38.1299C459.068 38.2621 459.097 38.4042 459.097 38.5478C459.097 38.6913 459.068 38.8335 459.012 38.9656C458.956 39.0977 458.874 39.2172 458.77 39.3168C458.667 39.4165 458.544 39.4942 458.41 39.5455C458.276 39.5967 458.133 39.6204 457.989 39.615Z" fill="white"/>
<path d="M457.99 45.6971H379.963C379.68 45.6971 379.408 45.5846 379.208 45.3843C379.007 45.184 378.895 44.9123 378.895 44.629C378.895 44.3458 379.007 44.0741 379.208 43.8739C379.408 43.6736 379.68 43.561 379.963 43.561H457.99C458.274 43.561 458.546 43.6736 458.746 43.8739C458.947 44.0741 459.059 44.3458 459.059 44.629C459.059 44.9123 458.947 45.184 458.746 45.3843C458.546 45.5846 458.274 45.6971 457.99 45.6971Z" fill="white"/>
<path d="M299.076 42.8501H230.618C216.119 42.8501 204.365 54.5939 204.365 69.0805V69.082C204.365 83.5686 216.119 95.3124 230.618 95.3124H299.076C313.575 95.3124 325.328 83.5686 325.328 69.082V69.0805C325.328 54.5939 313.575 42.8501 299.076 42.8501Z" fill="#1E965D"/>
<path d="M226.185 104.552C234.428 104.552 241.11 98.4881 241.11 91.0083C241.11 83.5285 234.428 77.4648 226.185 77.4648C217.942 77.4648 211.26 83.5285 211.26 91.0083C211.26 98.4881 217.942 104.552 226.185 104.552Z" fill="white"/>
<path d="M225.423 81.8013C224.767 81.8011 224.137 81.5445 223.667 81.0863C223.198 80.6282 222.927 80.0048 222.911 79.3494L222.764 73.1102C222.756 72.7806 222.813 72.4526 222.932 72.145C223.051 71.8374 223.229 71.5562 223.457 71.3174C223.916 70.8351 224.548 70.555 225.215 70.5386C225.881 70.5222 226.526 70.771 227.009 71.2301C227.492 71.6892 227.772 72.3211 227.789 72.9868L227.936 79.226C227.944 79.5555 227.887 79.8835 227.768 80.191C227.65 80.4986 227.471 80.7798 227.244 81.0186C227.016 81.2573 226.744 81.4489 226.442 81.5825C226.141 81.716 225.816 81.7889 225.486 81.7969L225.423 81.8013Z" fill="white"/>
<path d="M225.209 70.0854C224.647 70.0992 224.106 70.3011 223.672 70.6589C223.239 71.0167 222.938 71.5095 222.818 72.0584L222.911 75.8516C222.927 76.5067 223.198 77.1297 223.667 77.5875C224.137 78.0454 224.766 78.3018 225.422 78.302H225.486C226.048 78.288 226.589 78.0859 227.022 77.7282C227.456 77.3705 227.756 76.8778 227.876 76.329L227.784 72.5358C227.767 71.8699 227.487 71.2378 227.004 70.7783C226.521 70.3189 225.876 70.0696 225.209 70.0854Z" fill="white"/>
<path d="M233.038 63.4656C233.038 69.1378 228.468 75.562 224.7 75.562C221.844 75.562 216.361 69.1378 216.361 63.4656C216.361 57.7935 220.094 53.1997 224.7 53.1997C229.305 53.1997 233.038 57.7921 233.038 63.4656Z" fill="white"/>
<path d="M225.903 84.4411L223.248 80.3894L227.475 80.8184L225.903 84.4411Z" fill="white"/>
<path d="M222.049 81.3533L223.571 88.8853H228.368L229.358 79.9077L225.248 81.0081L222.049 81.3533Z" fill="white"/>
<g style="mix-blend-mode:multiply" opacity="0.26">
<path d="M218.746 79.2684C219.381 80.5054 221.322 84.541 222.963 84.469C224.904 84.3838 224.619 81.616 225.846 82.4123C227.074 83.2085 227.331 85.1227 228.502 84.3808C229.621 83.6713 231.647 81.2164 231.601 78.3841C230.409 77.9637 229.172 77.6846 227.915 77.5526C227.347 77.4923 227.777 80.8418 225.514 80.739C222.582 80.6053 223.648 77.5819 222.525 77.8287C221.205 78.132 219.933 78.6165 218.746 79.2684Z" fill="white"/>
</g>
<path d="M222.477 76.999C222.504 76.9835 222.535 76.9749 222.567 76.9738C222.599 76.9727 222.63 76.9791 222.659 76.9926C222.688 77.0061 222.713 77.0263 222.732 77.0514C222.752 77.0765 222.765 77.1059 222.771 77.1371C222.897 77.8408 223.377 79.6463 225.013 80.4337C226.777 81.2858 227.707 77.8026 227.929 76.8168C227.935 76.7861 227.949 76.7573 227.968 76.7329C227.988 76.7085 228.014 76.6891 228.042 76.6763C228.071 76.6635 228.102 76.6578 228.134 76.6595C228.165 76.6612 228.196 76.6703 228.223 76.6861L230.906 78.0846C230.944 78.104 230.975 78.135 230.994 78.1731C231.013 78.2111 231.019 78.2542 231.012 78.2962C230.888 79.0057 230.227 82.1437 227.985 83.5408C227.943 83.5658 227.894 83.5754 227.846 83.5679C227.798 83.5604 227.755 83.5362 227.723 83.4997L225.558 81.0022C225.54 80.9795 225.516 80.9611 225.489 80.9485C225.463 80.9359 225.434 80.9294 225.404 80.9294C225.375 80.9294 225.345 80.9359 225.319 80.9485C225.292 80.9611 225.268 80.9795 225.25 81.0022L223.244 83.5525C223.228 83.5735 223.208 83.591 223.185 83.6041C223.163 83.6172 223.137 83.6257 223.111 83.629C223.085 83.6323 223.059 83.6303 223.033 83.6232C223.008 83.6162 222.984 83.6041 222.963 83.5878C222.375 83.1177 220.276 81.321 219.513 78.9191C219.499 78.8746 219.501 78.827 219.518 78.7838C219.535 78.7407 219.567 78.7045 219.607 78.6811L222.477 76.999Z" fill="white"/>
<path d="M217.135 68.6558C216.942 68.2459 216.988 67.8742 217.402 68.0388C218.138 68.3326 219.508 69.0245 220.677 68.7997C222.657 68.4192 221.971 67.5819 225.779 67.5819C228.068 67.5819 227.911 68.4192 230.043 68.3429C232.175 68.2665 232.632 66.5932 232.479 67.5819C232.326 68.5706 231.248 71.5293 230.651 72.3755C229.205 74.4322 227.39 75.9512 225.245 75.9512C223.1 75.9512 221.666 74.4292 220.296 73.0601C219.315 72.0802 217.751 69.9721 217.135 68.6558Z" fill="white"/>
<path d="M216.718 67.278C216.718 67.278 217.327 68.2667 217.251 67.5821C217.174 66.8975 216.795 59.5169 219.078 59.2084C221.362 58.8999 227.15 59.7417 228.978 59.2084C230.806 58.6751 232.71 61.0344 232.633 66.2085C232.633 66.2085 232.937 67.7305 233.242 66.0616C233.546 64.3928 233.776 60.128 233.242 57.9215C232.708 55.7149 234.612 55.0303 234.918 54.0416C235.224 53.0529 233.242 53.8124 229.206 52.5197C225.17 51.2269 218.697 50.2367 217.176 56.7036C217.176 56.7021 214.206 62.3331 216.718 67.278Z" fill="white"/>
<path d="M215.993 66.3202C216.095 67.4294 216.491 68.2991 216.875 68.2638C217.259 68.2286 217.483 67.3001 217.381 66.1895C217.278 65.0789 216.881 64.2107 216.498 64.2459C216.116 64.2812 215.893 65.2096 215.993 66.3202Z" fill="white"/>
<path d="M232.143 66.138C231.957 67.2369 232.113 68.1801 232.492 68.2447C232.871 68.3093 233.328 67.4705 233.521 66.3716C233.714 65.2728 233.552 64.3296 233.173 64.265C232.793 64.2003 232.329 65.0392 232.143 66.138Z" fill="white"/>
<path d="M313.886 62.7194H288.764C288.423 62.7275 288.082 62.6673 287.764 62.5423C287.446 62.4173 287.156 62.2299 286.912 61.9912C286.667 61.7526 286.472 61.4675 286.34 61.1526C286.207 60.8378 286.139 60.4996 286.139 60.158C286.139 59.8164 286.207 59.4782 286.34 59.1634C286.472 58.8486 286.667 58.5635 286.912 58.3248C287.156 58.0861 287.446 57.8988 287.764 57.7737C288.082 57.6487 288.423 57.5885 288.764 57.5967H313.886C314.228 57.5885 314.568 57.6487 314.886 57.7737C315.204 57.8988 315.494 58.0861 315.739 58.3248C315.984 58.5635 316.178 58.8486 316.311 59.1634C316.443 59.4782 316.512 59.8164 316.512 60.158C316.512 60.4996 316.443 60.8378 316.311 61.1526C316.178 61.4675 315.984 61.7526 315.739 61.9912C315.494 62.2299 315.204 62.4173 314.886 62.5423C314.568 62.6673 314.228 62.7275 313.886 62.7194Z" fill="white"/>
<path d="M276.971 62.7194H248.26C247.919 62.7275 247.579 62.6673 247.26 62.5423C246.942 62.4173 246.652 62.2299 246.408 61.9912C246.163 61.7526 245.969 61.4675 245.836 61.1526C245.703 60.8378 245.635 60.4996 245.635 60.158C245.635 59.8164 245.703 59.4782 245.836 59.1634C245.969 58.8486 246.163 58.5635 246.408 58.3248C246.652 58.0861 246.942 57.8988 247.26 57.7737C247.579 57.6487 247.919 57.5885 248.26 57.5967H276.971C277.313 57.5885 277.653 57.6487 277.971 57.7737C278.289 57.8988 278.579 58.0861 278.824 58.3248C279.069 58.5635 279.263 58.8486 279.396 59.1634C279.529 59.4782 279.597 59.8164 279.597 60.158C279.597 60.4996 279.529 60.8378 279.396 61.1526C279.263 61.4675 279.069 61.7526 278.824 61.9912C278.579 62.2299 278.289 62.4173 277.971 62.5423C277.653 62.6673 277.313 62.7275 276.971 62.7194Z" fill="white"/>
<path d="M313.885 71.3004H293.862C293.522 71.3004 293.196 71.1654 292.956 70.9251C292.715 70.6849 292.58 70.3591 292.58 70.0193C292.58 69.6796 292.715 69.3537 292.956 69.1135C293.196 68.8732 293.522 68.7383 293.862 68.7383H313.885C314.225 68.7383 314.551 68.8732 314.792 69.1135C315.032 69.3537 315.167 69.6796 315.167 70.0193C315.167 70.3591 315.032 70.6849 314.792 70.9251C314.551 71.1654 314.225 71.3004 313.885 71.3004Z" fill="white"/>
<path d="M294.546 71.3004H274.663C274.323 71.3004 273.997 71.1654 273.756 70.9251C273.516 70.6849 273.381 70.3591 273.381 70.0193C273.381 69.6796 273.516 69.3537 273.756 69.1135C273.997 68.8732 274.323 68.7383 274.663 68.7383H294.546C294.886 68.7383 295.212 68.8732 295.453 69.1135C295.693 69.3537 295.828 69.6796 295.828 70.0193C295.828 70.3591 295.693 70.6849 295.453 70.9251C295.212 71.1654 294.886 71.3004 294.546 71.3004Z" fill="white"/>
<path d="M266.462 71.3004H248.261C247.921 71.3004 247.594 71.1654 247.354 70.9251C247.114 70.6849 246.979 70.3591 246.979 70.0193C246.979 69.6796 247.114 69.3537 247.354 69.1135C247.594 68.8732 247.921 68.7383 248.261 68.7383H266.462C266.802 68.7383 267.128 68.8732 267.368 69.1135C267.609 69.3537 267.744 69.6796 267.744 70.0193C267.744 70.3591 267.609 70.6849 267.368 70.9251C267.128 71.1654 266.802 71.3004 266.462 71.3004Z" fill="white"/>
<path d="M313.885 81.1609H287.737C287.404 81.1497 287.089 81.0099 286.858 80.771C286.627 80.5321 286.498 80.2129 286.498 79.8806C286.498 79.5484 286.627 79.2292 286.858 78.9903C287.089 78.7514 287.404 78.6116 287.737 78.6003H313.885C314.057 78.5945 314.228 78.6233 314.389 78.6851C314.549 78.7468 314.696 78.8401 314.819 78.9596C314.943 79.0791 315.041 79.2222 315.109 79.3804C315.176 79.5386 315.21 79.7088 315.21 79.8806C315.21 80.0525 315.176 80.2226 315.109 80.3809C315.041 80.5391 314.943 80.6822 314.819 80.8017C314.696 80.9211 314.549 81.0145 314.389 81.0762C314.228 81.138 314.057 81.1668 313.885 81.1609Z" fill="white"/>
<path d="M280.303 81.1609H248.259C248.087 81.1668 247.916 81.138 247.755 81.0762C247.595 81.0145 247.448 80.9211 247.325 80.8017C247.201 80.6822 247.103 80.5391 247.035 80.3809C246.968 80.2226 246.934 80.0525 246.934 79.8806C246.934 79.7088 246.968 79.5386 247.035 79.3804C247.103 79.2222 247.201 79.0791 247.325 78.9596C247.448 78.8401 247.595 78.7468 247.755 78.6851C247.916 78.6233 248.087 78.5945 248.259 78.6003H280.303C280.475 78.5945 280.647 78.6233 280.807 78.6851C280.968 78.7468 281.114 78.8401 281.238 78.9596C281.361 79.0791 281.46 79.2222 281.527 79.3804C281.594 79.5386 281.629 79.7088 281.629 79.8806C281.629 80.0525 281.594 80.2226 281.527 80.3809C281.46 80.5391 281.361 80.6822 281.238 80.8017C281.114 80.9211 280.968 81.0145 280.807 81.0762C280.647 81.138 280.475 81.1668 280.303 81.1609Z" fill="white"/>
<path d="M490.632 79.5637H407.783C402.959 79.5637 399.049 83.4706 399.049 88.29V90.5759C399.049 95.3954 402.959 99.3023 407.783 99.3023H490.632C495.455 99.3023 499.366 95.3954 499.366 90.5759V88.29C499.366 83.4706 495.455 79.5637 490.632 79.5637Z" fill="#212121"/>
<path d="M410.262 95.3932C408.999 95.3935 407.766 95.0198 406.716 94.3194C405.666 93.619 404.848 92.6234 404.365 91.4583C403.882 90.2933 403.755 89.0113 404.001 87.7745C404.247 86.5376 404.855 85.4014 405.747 84.5096C406.64 83.6177 407.777 83.0104 409.015 82.7642C410.253 82.5181 411.536 82.6443 412.702 83.1268C413.868 83.6093 414.865 84.4265 415.566 85.4751C416.267 86.5236 416.641 87.7563 416.641 89.0174C416.639 90.7075 415.967 92.3279 414.771 93.5231C413.575 94.7184 411.953 95.3909 410.262 95.3932ZM410.262 84.4647C409.36 84.4647 408.479 84.7318 407.729 85.2322C406.98 85.7327 406.396 86.4439 406.051 87.2761C405.706 88.1082 405.615 89.0239 405.791 89.9074C405.967 90.7908 406.401 91.6022 407.039 92.2391C407.676 92.8761 408.488 93.3098 409.372 93.4855C410.256 93.6612 411.173 93.5711 412.006 93.2264C412.839 92.8817 413.551 92.298 414.051 91.549C414.552 90.8001 414.82 89.9196 414.82 89.0189C414.82 87.811 414.339 86.6527 413.485 85.7986C412.63 84.9446 411.47 84.4647 410.262 84.4647Z" fill="white"/>
<path d="M490.816 89.9178H471.605C471.373 89.9084 471.153 89.8095 470.991 89.6418C470.83 89.4741 470.74 89.2505 470.74 89.018C470.74 88.7854 470.83 88.5619 470.991 88.3942C471.153 88.2265 471.373 88.1276 471.605 88.1182H490.816C490.938 88.1133 491.059 88.1329 491.172 88.1759C491.286 88.2189 491.389 88.2844 491.477 88.3685C491.565 88.4525 491.634 88.5534 491.682 88.665C491.729 88.7766 491.754 88.8967 491.754 89.018C491.754 89.1393 491.729 89.2594 491.682 89.371C491.634 89.4826 491.565 89.5834 491.477 89.6675C491.389 89.7515 491.286 89.817 491.172 89.86C491.059 89.903 490.938 89.9227 490.816 89.9178Z" fill="white"/>
<path d="M461.878 89.9178H420.889C420.768 89.9227 420.646 89.903 420.533 89.86C420.419 89.817 420.316 89.7515 420.228 89.6675C420.141 89.5834 420.071 89.4826 420.023 89.371C419.976 89.2594 419.951 89.1393 419.951 89.018C419.951 88.8967 419.976 88.7766 420.023 88.665C420.071 88.5534 420.141 88.4525 420.228 88.3685C420.316 88.2844 420.419 88.2189 420.533 88.1759C420.646 88.1329 420.768 88.1133 420.889 88.1182H461.878C462 88.1133 462.121 88.1329 462.234 88.1759C462.348 88.2189 462.452 88.2844 462.539 88.3685C462.627 88.4525 462.696 88.5534 462.744 88.665C462.792 88.7766 462.816 88.8967 462.816 89.018C462.816 89.1393 462.792 89.2594 462.744 89.371C462.696 89.4826 462.627 89.5834 462.539 89.6675C462.452 89.7515 462.348 89.817 462.234 89.86C462.121 89.903 462 89.9227 461.878 89.9178Z" fill="white"/>
<defs>
<linearGradient id="paint0_linear_836_789" x1="348.105" y1="508.398" x2="170.656" y2="175.39" gradientUnits="userSpaceOnUse">
<stop stop-color="#2ECC82"/>
<stop offset="1" stop-color="#126F43"/>
</linearGradient>
<linearGradient id="paint1_linear_836_789" x1="62.8222" y1="338.164" x2="335.112" y2="264.584" gradientUnits="userSpaceOnUse">
<stop stop-color="white"/>
<stop offset="1" stop-color="#C7E2FF"/>
</linearGradient>
<linearGradient id="paint2_linear_836_789" x1="90.1011" y1="351.894" x2="328.786" y2="287.395" gradientUnits="userSpaceOnUse">
<stop offset="0.01" stop-color="#A8E1FF"/>
<stop offset="1" stop-color="#64C0FF"/>
</linearGradient>
<linearGradient id="paint3_linear_836_789" x1="35.1765" y1="236.043" x2="307.541" y2="162.442" gradientUnits="userSpaceOnUse">
<stop offset="0.01" stop-color="#A8E1FF"/>
<stop offset="1" stop-color="#64C0FF"/>
</linearGradient>
<linearGradient id="paint4_linear_836_789" x1="54.0971" y1="294.546" x2="172.104" y2="337.441" gradientUnits="userSpaceOnUse">
<stop offset="0.01" stop-color="#A8E1FF"/>
<stop offset="1" stop-color="#64C0FF"/>
</linearGradient>
<linearGradient id="paint5_linear_836_789" x1="55.2602" y1="322.249" x2="124.238" y2="284.969" gradientUnits="userSpaceOnUse">
<stop offset="0.01" stop-color="#A8E1FF"/>
<stop offset="1" stop-color="#64C0FF"/>
</linearGradient>
<linearGradient id="paint6_linear_836_789" x1="112.524" y1="313.847" x2="405.339" y2="382.763" gradientUnits="userSpaceOnUse">
<stop stop-color="#D4ECFF"/>
<stop offset="0.12" stop-color="#BFE4FF"/>
<stop offset="0.3" stop-color="#A9DBFF"/>
<stop offset="0.5" stop-color="#99D5FF"/>
<stop offset="0.71" stop-color="#8FD1FF"/>
<stop offset="1" stop-color="#8CD0FF"/>
</linearGradient>
<linearGradient id="paint7_linear_836_789" x1="131.44" y1="302.038" x2="462.572" y2="411.922" gradientUnits="userSpaceOnUse">
<stop stop-color="white"/>
<stop offset="0.2" stop-color="#FCFEFF"/>
<stop offset="0.36" stop-color="#F2FAFF"/>
<stop offset="0.5" stop-color="#E1F3FF"/>
<stop offset="0.64" stop-color="#C9EAFF"/>
<stop offset="0.78" stop-color="#AADDFF"/>
<stop offset="0.91" stop-color="#84CFFF"/>
<stop offset="1" stop-color="#64C2FF"/>
</linearGradient>
<linearGradient id="paint8_linear_836_789" x1="339.206" y1="345.798" x2="302.407" y2="340.052" gradientUnits="userSpaceOnUse">
<stop stop-color="white"/>
<stop offset="0.2" stop-color="#FCFEFF"/>
<stop offset="0.36" stop-color="#F2FAFF"/>
<stop offset="0.5" stop-color="#E1F3FF"/>
<stop offset="0.64" stop-color="#C9EAFF"/>
<stop offset="0.78" stop-color="#AADDFF"/>
<stop offset="0.91" stop-color="#84CFFF"/>
<stop offset="1" stop-color="#64C2FF"/>
</linearGradient>
<linearGradient id="paint9_linear_836_789" x1="143.963" y1="345.147" x2="177.562" y2="345.147" gradientUnits="userSpaceOnUse">
<stop stop-color="white"/>
<stop offset="0.2" stop-color="#FCFEFF"/>
<stop offset="0.36" stop-color="#F2FAFF"/>
<stop offset="0.5" stop-color="#E1F3FF"/>
<stop offset="0.64" stop-color="#C9EAFF"/>
<stop offset="0.78" stop-color="#AADDFF"/>
<stop offset="0.91" stop-color="#84CFFF"/>
<stop offset="1" stop-color="#64C2FF"/>
</linearGradient>
</defs>
</svg>
