<svg xmlns="http://www.w3.org/2000/svg" width="82" height="51" fill="none"><path fill="#2ECC82" d="M66.279 25.578v18c0 4.653-2.772 7.416-7.441 7.422H22.687c-4.573 0-7.374-2.785-7.38-7.33V7.34c0-4.551 2.797-7.33 7.358-7.33 12.052-.013 24.103-.013 36.154 0 4.681 0 7.45 2.756 7.46 7.403.008 6.06.008 12.114 0 18.165Zm-45.31-.067v14.5c0 3.436 1.877 5.313 5.322 5.32a7377.2 7377.2 0 0 0 29 0c3.438 0 5.31-1.887 5.316-5.326.014-9.665.014-19.332 0-29 0-3.436-1.88-5.313-5.322-5.32a7377.2 7377.2 0 0 0-29 0c-3.442 0-5.303 1.884-5.316 5.326-.016 4.831 0 9.669 0 14.5ZM5.88 14.434c-1.431 0-2.868.105-4.287-.051-.56-.06-1.054-.705-1.593-1.08.49-.377.972-1.056 1.476-1.072 2.868-.105 5.72-.105 8.575 0 .507.02 1.326.619 1.412 1.062.191.981-.657 1.147-1.466 1.147l-4.117-.006Zm69.905-.004c-1.482 0-2.974.083-4.443-.047-.462-.042-.87-.667-1.3-1.027.411-.389.813-1.102 1.236-1.115 3.015-.096 6.032-.096 9.05 0 .425 0 .826.74 1.237 1.134-.443.351-.866.957-1.338 1.004-1.47.134-2.96.051-4.442.051ZM5.835 38.84c-1.431 0-2.868.114-4.283-.055C1 38.72.522 38.03.009 37.625c.504-.347.995-.975 1.51-.995 2.856-.095 5.714-.095 8.573 0 .494.02.956.68 1.444 1.043-.472.389-.912 1.054-1.418 1.109-1.415.156-2.846.057-4.283.057Zm70.035-2.254c1.432 0 2.869-.096 4.284.054.507.054.956.708 1.418 1.087-.443.37-.876 1.045-1.329 1.058a137.85 137.85 0 0 1-8.89 0c-.45 0-.877-.685-1.317-1.052.462-.382.899-1.045 1.392-1.093 1.47-.147 2.961-.054 4.443-.054ZM5.688 22.535c-1.376 0-2.766.114-4.123-.054-.555-.07-1.033-.75-1.546-1.148.497-.357.988-.997 1.498-1.016a125.4 125.4 0 0 1 8.572 0c.494.019.956.685 1.45 1.051-.468.386-.908 1.058-1.412 1.11-1.465.152-2.957.057-4.439.057Zm69.988 0c-1.376 0-2.766.115-4.12-.054-.545-.07-1.01-.762-1.51-1.17.5-.347.994-.978 1.504-.994 2.868-.096 5.717-.099 8.572 0 .494.019.956.695 1.447 1.067-.481.383-.937 1.04-1.45 1.09-1.47.157-2.96.06-4.443.06ZM5.688 30.744c-1.43 0-2.868.099-4.283-.054-.497-.054-.93-.73-1.392-1.122.449-.36.889-1.017 1.348-1.033a141 141 0 0 1 8.888 0c.443 0 .86.692 1.29 1.062-.468.382-.908 1.042-1.412 1.09-1.465.156-2.957.06-4.439.057Zm70.008 0c-1.431 0-2.868.102-4.283-.054-.494-.054-.918-.733-1.374-1.125.446-.36.88-1.013 1.335-1.03a129.71 129.71 0 0 1 8.732 0c.5.02.975.702 1.463 1.075-.478.379-.924 1.032-1.434 1.083-1.466.147-2.958.051-4.44.051Z"/><path fill="#2ECC82" d="M40.87 43.093H26.385c-2.301 0-3.168-.873-3.171-3.187V11.09c0-2.3.87-3.168 3.187-3.187H55.21c2.301 0 3.171.87 3.187 3.187v28.816c0 2.301-.873 3.168-3.187 3.187-4.79.01-9.566 0-14.34 0Zm-5.028-14.398c1.418 0 2.798-.074 4.162.044.411.035.864.536 1.138.93.274.396.184.998.468 1.33.319.392.899.593 1.364.88.23-.495.755-1.071.638-1.467a328.31 328.31 0 0 0-3.825-12.457c-.159-.478-.956-.982-1.485-1.026a1.73 1.73 0 0 0-1.383.924A375.928 375.928 0 0 0 32.984 30.6c-.096.32.395 1.122.742 1.218.347.095 1.074-.29 1.275-.663.414-.714.56-1.571.841-2.46Zm11.903-4.233c0-2.02-.016-4.04 0-6.055 0-.86-.185-1.485-1.202-1.466-.956 0-1.051.66-1.048 1.422a1909.6 1909.6 0 0 1 0 12.11c0 .835.13 1.644 1.154 1.393.446-.109 1.01-.86 1.038-1.352.125-2.01.058-4.034.058-6.052Z"/><path fill="#2ECC82" d="M40.373 26.754H36.31l2.03-6.98a6349.53 6349.53 0 0 1 2.033 6.98Z"/></svg>