<svg xmlns="http://www.w3.org/2000/svg" width="64" height="52" fill="none"><path fill="#2ECC82" d="M.005 14.195h63.277v30.822c0 4.061-2.19 6.318-6.158 6.318H6.095c-3.828 0-6.087-2.284-6.09-6.135V14.195ZM20.3 37.694c-.158 1.792 2.81 5.164 4.583 5.232.123.007.247 0 .368-.023 1.219-.266 2.067.251 2.887 1.152a3.401 3.401 0 0 0 1.891.962c1.06.164 2.139.164 3.199 0a3.806 3.806 0 0 0 1.977-1.035c.35-.394.784-.701 1.269-.898a3.359 3.359 0 0 1 1.53-.236c.701.032 1.507-.324 2.115-.736.707-.477 1.236-1.222 1.864-1.822.813-.768 1.048-1.67 1.048-2.804a3.545 3.545 0 0 1 .88-2.287c1.322-1.346 1.886-5.448.741-6.964-.17-.228-.494-.366-.605-.613-.391-.808-1.004-1.641-1.021-2.477-.037-1.82-2.638-5.174-4.45-5.39a2.007 2.007 0 0 0-.612.015c-1.162.221-1.978-.279-2.786-1.107a3.816 3.816 0 0 0-1.995-1.004 9.081 9.081 0 0 0-3.072 0c-.78.16-1.502.537-2.084 1.09-.793.773-1.572 1.132-2.699 1.081a3.86 3.86 0 0 0-2.126.678c-.707.47-1.236 1.225-1.863 1.818-.853.793-1.113 1.717-1.09 2.91a3.467 3.467 0 0 1-.93 2.258c-1.327 1.323-1.844 5.48-.68 6.977.156.195.336.368.537.514.942.68 1.199 1.622 1.125 2.709Zm42.986-27.368H.064c0-1.877-.168-3.722.04-5.522C.43 1.972 2.788.064 5.734.054c7.248-.023 14.495 0 21.752 0 9.758 0 19.526.11 29.277-.053 4.202-.072 6.89 2.81 6.546 6.75-.11 1.148-.023 2.318-.023 3.575Zm-47.5-2.166.184-.319c.989.075 1.943-.015 2.44-1.03.22-.384.29-.839.193-1.273a1.758 1.758 0 0 0-.715-1.066c-.761-.615-3.157-.557-3.841.1-.685.658-.967 1.522-.364 2.227.512.61 1.38.92 2.104 1.361Zm8.874-4.31c-.783.303-1.582.437-2.148.876-.778.607-.682 1.842.025 2.55.836.839 3.297.836 4.12 0 .71-.723.794-1.925 0-2.553-.526-.431-1.277-.575-2.006-.873h.01Zm-17.356 4c1.747 0 2.684-.474 2.692-1.601a2.85 2.85 0 0 0-.878-1.86c-.652-.616-3.12-.478-3.571.183-.374.542-.658 1.395-.517 2.008.255 1.15 1.298 1.34 2.264 1.27h.01Z"/><path fill="#2ECC82" d="M41.577 31.173a4.28 4.28 0 0 1-.215.848c-.71 1.338-1.812 2.596-2.066 4.017-.341 1.89-.932 2.761-2.924 3.04-1.392.2-2.623 1.408-3.99 2.008-.445.198-1.14.035-1.643-.16-1.73-.673-3.392-1.52-5.14-2.122-.797-.273-1.097-.587-1.351-1.426a30.865 30.865 0 0 0-2.091-5.08c-.396-.779-.383-1.19.037-1.966a25.131 25.131 0 0 0 2.056-4.976c.247-.891.53-1.22 1.404-1.506a31.549 31.549 0 0 0 5.01-2.126c.76-.397 1.204-.397 1.963 0a30.994 30.994 0 0 0 5.01 2.123c.878.28 1.147.605 1.404 1.507.495 1.72 1.308 3.344 2.012 4.998.15.289.326.563.524.82Zm-9.929-3.264a3.33 3.33 0 0 0-1.86.603 3.412 3.412 0 0 0-1.22 1.55 3.472 3.472 0 0 0-.166 1.977c.137.66.465 1.266.94 1.738a3.352 3.352 0 0 0 1.733.916c.654.125 1.33.05 1.942-.214a3.382 3.382 0 0 0 1.498-1.273 3.46 3.46 0 0 0 .552-1.903 3.48 3.48 0 0 0-1.025-2.406 3.374 3.374 0 0 0-2.394-.983v-.005Z"/></svg>