<svg width="525" height="497" viewBox="0 0 525 497" fill="none" xmlns="http://www.w3.org/2000/svg">
<g clip-path="url(#clip0_1155_2057)">
<path d="M492.301 213.394C492.301 213.394 421.239 39.9887 291.33 6.49847C161.421 -26.9918 106.937 75.3673 87.0284 146.458C67.1201 217.548 -6.23978 311.499 0.422232 376.08C6.75114 437.451 60.5247 466.487 110.745 478.95C174.578 494.779 247.117 495.978 311.183 482.782C326.416 479.56 341.456 475.481 356.229 470.564C386.331 460.744 415.877 453.135 446.366 445.015C504.37 429.542 527.354 367.26 520.759 307.566C517.128 274.021 504.837 243.985 492.301 213.394Z" fill="#2ECC82"/>
<path d="M492.301 213.394C492.301 213.394 421.239 39.9887 291.33 6.49847C161.421 -26.9918 106.937 75.3673 87.0284 146.458C67.1201 217.548 -6.23978 311.499 0.422232 376.08C6.75114 437.451 60.5247 466.487 110.745 478.95C174.578 494.779 247.117 495.978 311.183 482.782C326.416 479.56 341.456 475.481 356.229 470.564C386.331 460.744 415.877 453.135 446.366 445.015C504.37 429.542 527.354 367.26 520.759 307.566C517.128 274.021 504.837 243.985 492.301 213.394Z" fill="#181818"/>
<path d="M453.172 23.5605H247.205V308.855H453.172V23.5605Z" stroke="#263238" stroke-linecap="round" stroke-linejoin="round"/>
<path d="M350.189 23.7266V309.855" stroke="#263238" stroke-linecap="round" stroke-linejoin="round"/>
<path d="M453.339 166.797H247.027" stroke="#263238" stroke-linecap="round" stroke-linejoin="round"/>
<path d="M453.339 95.1504H247.027" stroke="#263238" stroke-linecap="round" stroke-linejoin="round"/>
<path d="M453.339 238.443H247.027" stroke="#263238" stroke-linecap="round" stroke-linejoin="round"/>
<path d="M415.798 128.219L395.723 147.524" stroke="#263238" stroke-linecap="round" stroke-linejoin="round"/>
<path d="M445.655 99.4941L421.672 122.565" stroke="#263238" stroke-linecap="round" stroke-linejoin="round"/>
<path d="M394.27 138.328L387.896 144.46" stroke="#263238" stroke-linecap="round" stroke-linejoin="round"/>
<path d="M421.65 111.979L398.666 134.094" stroke="#263238" stroke-linecap="round" stroke-linejoin="round"/>
<path d="M304.409 62.8945L284.334 82.2" stroke="#263238" stroke-linecap="round" stroke-linejoin="round"/>
<path d="M334.266 34.168L310.283 57.2502" stroke="#263238" stroke-linecap="round" stroke-linejoin="round"/>
<path d="M282.879 73.002L276.506 79.1335" stroke="#263238" stroke-linecap="round" stroke-linejoin="round"/>
<path d="M310.261 46.6641L287.277 68.7688" stroke="#263238" stroke-linecap="round" stroke-linejoin="round"/>
<path d="M411.003 204.107L390.928 223.413" stroke="#263238" stroke-linecap="round" stroke-linejoin="round"/>
<path d="M440.858 175.383L416.875 198.465" stroke="#263238" stroke-linecap="round" stroke-linejoin="round"/>
<path d="M389.473 214.217L383.1 220.348" stroke="#263238" stroke-linecap="round" stroke-linejoin="round"/>
<path d="M416.852 187.879L393.857 209.984" stroke="#263238" stroke-linecap="round" stroke-linejoin="round"/>
<path d="M420.051 281.974L419.184 274.554C419.184 274.554 415.243 274.776 413.722 271.344C412.8 269.267 411.867 265.057 413.222 262.98C413.617 262.331 414.192 261.811 414.878 261.484C415.563 261.157 416.329 261.037 417.081 261.138C417.834 261.239 418.541 261.558 419.115 262.054C419.69 262.551 420.108 263.205 420.317 263.935C421.372 266.945 421.894 268.234 421.894 268.234C421.638 263.868 418.352 246.284 428.245 248.961C432.264 250.072 433.363 253.938 433.541 257.003C433.719 260.069 433.308 268.011 433.308 268.011C433.308 268.011 435.962 268.3 436.139 263.89C436.317 259.481 440.581 257.481 442.479 259.569C444.378 261.658 445.233 269.078 443.168 271.399C441.102 273.721 434.563 274.487 434.563 274.487L434.996 281.941L420.051 281.974Z" fill="#2ECC82" stroke="#263238" stroke-linecap="round" stroke-linejoin="round"/>
<path d="M425.735 250.184C425.735 250.184 424.103 251.672 424.547 256.737C424.991 261.802 424.991 270.866 424.991 270.866" stroke="#263238" stroke-width="0.5" stroke-linecap="round" stroke-linejoin="round"/>
<path d="M430.055 253.604C430.055 253.604 431.987 253.304 431.387 257.925C431.064 261.783 431.064 265.662 431.387 269.521" stroke="#263238" stroke-width="0.5" stroke-linecap="round" stroke-linejoin="round"/>
<path d="M416.064 263.379C416.064 263.379 414.132 263.823 415.032 266.956C415.931 270.088 416.22 272.454 418.296 272.909C419.225 273.14 420.173 273.289 421.127 273.354L421.427 276.62" stroke="#263238" stroke-width="0.5" stroke-linecap="round" stroke-linejoin="round"/>
<path d="M434.807 272.8C434.807 272.8 440.902 272.955 442.091 270.423C443.279 267.89 442.546 263.58 442.546 263.58" stroke="#263238" stroke-width="0.5" stroke-linecap="round" stroke-linejoin="round"/>
<path d="M418.596 264.247C418.596 264.35 418.566 264.451 418.508 264.537C418.451 264.623 418.37 264.69 418.274 264.729C418.179 264.769 418.074 264.779 417.973 264.759C417.872 264.739 417.779 264.689 417.706 264.616C417.633 264.543 417.583 264.45 417.563 264.349C417.543 264.247 417.553 264.142 417.592 264.047C417.632 263.951 417.699 263.87 417.785 263.813C417.87 263.755 417.971 263.725 418.075 263.725C418.213 263.725 418.346 263.78 418.444 263.878C418.541 263.975 418.596 264.108 418.596 264.247V264.247Z" stroke="#263238" stroke-width="0.5" stroke-linecap="round" stroke-linejoin="round"/>
<path d="M419.862 270.788C420.15 270.788 420.384 270.555 420.384 270.266C420.384 269.978 420.15 269.744 419.862 269.744C419.573 269.744 419.34 269.978 419.34 270.266C419.34 270.555 419.573 270.788 419.862 270.788Z" stroke="#263238" stroke-width="0.5" stroke-linecap="round" stroke-linejoin="round"/>
<path d="M417.264 268.333C417.552 268.333 417.786 268.099 417.786 267.811C417.786 267.523 417.552 267.289 417.264 267.289C416.976 267.289 416.742 267.523 416.742 267.811C416.742 268.099 416.976 268.333 417.264 268.333Z" stroke="#263238" stroke-width="0.5" stroke-linecap="round" stroke-linejoin="round"/>
<path d="M427.823 262.169C428.111 262.169 428.344 261.935 428.344 261.647C428.344 261.359 428.111 261.125 427.823 261.125C427.534 261.125 427.301 261.359 427.301 261.647C427.301 261.935 427.534 262.169 427.823 262.169Z" stroke="#263238" stroke-width="0.5" stroke-linecap="round" stroke-linejoin="round"/>
<path d="M422.914 257.103C423.203 257.103 423.436 256.869 423.436 256.581C423.436 256.292 423.203 256.059 422.914 256.059C422.626 256.059 422.393 256.292 422.393 256.581C422.393 256.869 422.626 257.103 422.914 257.103Z" stroke="#263238" stroke-width="0.5" stroke-linecap="round" stroke-linejoin="round"/>
<path d="M430.055 274.731C430.055 274.834 430.025 274.935 429.968 275.021C429.91 275.107 429.829 275.174 429.733 275.213C429.638 275.253 429.533 275.263 429.432 275.243C429.331 275.223 429.238 275.173 429.165 275.1C429.092 275.027 429.042 274.934 429.022 274.833C429.002 274.732 429.012 274.627 429.051 274.531C429.091 274.436 429.158 274.354 429.244 274.297C429.329 274.24 429.43 274.209 429.534 274.209C429.672 274.209 429.805 274.264 429.903 274.362C430 274.46 430.055 274.593 430.055 274.731V274.731Z" stroke="#263238" stroke-width="0.5" stroke-linecap="round" stroke-linejoin="round"/>
<path d="M424.403 273.987C424.403 274.09 424.372 274.191 424.315 274.277C424.258 274.363 424.176 274.43 424.081 274.469C423.985 274.509 423.881 274.519 423.779 274.499C423.678 274.479 423.585 274.429 423.512 274.356C423.439 274.283 423.39 274.19 423.369 274.089C423.349 273.988 423.36 273.883 423.399 273.787C423.439 273.692 423.505 273.61 423.591 273.553C423.677 273.495 423.778 273.465 423.881 273.465C424.02 273.465 424.152 273.52 424.25 273.618C424.348 273.716 424.403 273.848 424.403 273.987V273.987Z" stroke="#263238" stroke-width="0.5" stroke-linecap="round" stroke-linejoin="round"/>
<path d="M428.711 252.349C428.999 252.349 429.233 252.115 429.233 251.827C429.233 251.538 428.999 251.305 428.711 251.305C428.423 251.305 428.189 251.538 428.189 251.827C428.189 252.115 428.423 252.349 428.711 252.349Z" stroke="#263238" stroke-width="0.5" stroke-linecap="round" stroke-linejoin="round"/>
<path d="M439.792 261.713C439.792 261.817 439.761 261.918 439.704 262.004C439.646 262.089 439.565 262.156 439.47 262.196C439.374 262.235 439.269 262.246 439.168 262.226C439.067 262.205 438.974 262.156 438.901 262.083C438.828 262.01 438.778 261.917 438.758 261.815C438.738 261.714 438.748 261.609 438.788 261.514C438.827 261.418 438.894 261.337 438.98 261.279C439.066 261.222 439.167 261.191 439.27 261.191C439.338 261.191 439.406 261.205 439.47 261.231C439.533 261.257 439.59 261.296 439.639 261.344C439.687 261.393 439.726 261.45 439.752 261.514C439.778 261.577 439.792 261.645 439.792 261.713V261.713Z" stroke="#263238" stroke-width="0.5" stroke-linecap="round" stroke-linejoin="round"/>
<path d="M437.938 269.312C438.226 269.312 438.46 269.078 438.46 268.79C438.46 268.501 438.226 268.268 437.938 268.268C437.65 268.268 437.416 268.501 437.416 268.79C437.416 269.078 437.65 269.312 437.938 269.312Z" stroke="#263238" stroke-width="0.5" stroke-linecap="round" stroke-linejoin="round"/>
<path d="M428.711 269.155C428.999 269.155 429.233 268.922 429.233 268.633C429.233 268.345 428.999 268.111 428.711 268.111C428.423 268.111 428.189 268.345 428.189 268.633C428.189 268.922 428.423 269.155 428.711 269.155Z" stroke="#263238" stroke-width="0.5" stroke-linecap="round" stroke-linejoin="round"/>
<path d="M440.569 277.164H413.799L416.486 299.113H437.893L440.569 277.164Z" fill="white" stroke="#263238" stroke-linecap="round" stroke-linejoin="round"/>
<path d="M42.2246 236.699L62.7103 433.009" stroke="#263238" stroke-width="2" stroke-miterlimit="10"/>
<path d="M59.4133 395.441L50.1309 385.633" stroke="#263238" stroke-width="2" stroke-miterlimit="10"/>
<path d="M52.9407 388.565C52.9224 387.064 52.5829 385.584 51.9451 384.226C51.3074 382.867 50.386 381.661 49.2433 380.689C46.8672 378.556 34.3205 373.28 33.1324 377.701C31.8333 382.511 44.6798 391.941 52.9407 388.565Z" fill="#2ECC82" stroke="#263238" stroke-miterlimit="10"/>
<path d="M52.9511 388.565L41.0039 381.123" stroke="#263238" stroke-width="0.5" stroke-miterlimit="10"/>
<path d="M61.7336 417.767L52.4512 407.959" stroke="#263238" stroke-width="2" stroke-miterlimit="10"/>
<path d="M55.2726 410.893C55.2542 409.392 54.9147 407.913 54.2769 406.554C53.6391 405.196 52.7179 403.99 51.5751 403.017C49.199 400.884 36.6522 395.608 35.4641 400.029C34.165 404.839 47.0561 414.269 55.2726 410.893Z" fill="#2ECC82" stroke="#263238" stroke-miterlimit="10"/>
<path d="M55.272 410.892L43.3359 403.449" stroke="#263238" stroke-width="0.5" stroke-miterlimit="10"/>
<path d="M53.7277 340.957L44.4453 331.148" stroke="#263238" stroke-width="2" stroke-miterlimit="10"/>
<path d="M47.2557 334.092C47.2382 332.591 46.9002 331.111 46.2645 329.751C45.6287 328.39 44.7099 327.182 43.5694 326.206C41.1822 324.084 28.6354 318.808 27.4474 323.218C26.1594 328.027 38.9948 337.469 47.2557 334.092Z" fill="#2ECC82" stroke="#263238" stroke-miterlimit="10"/>
<path d="M47.2656 334.093L35.3184 326.65" stroke="#263238" stroke-width="0.5" stroke-miterlimit="10"/>
<path d="M56.0611 363.285L46.7676 353.477" stroke="#263238" stroke-width="2" stroke-miterlimit="10"/>
<path d="M49.5874 356.419C49.5691 354.917 49.2298 353.436 48.592 352.076C47.9543 350.715 47.033 349.507 45.8899 348.533C43.5138 346.411 30.967 341.124 29.779 345.545C28.4799 350.355 41.3154 359.796 49.5874 356.419Z" fill="#2ECC82" stroke="#263238" stroke-miterlimit="10"/>
<path d="M49.5865 356.419L37.6504 348.977" stroke="#263238" stroke-width="0.5" stroke-miterlimit="10"/>
<path d="M49.9426 304.689L40.6602 294.881" stroke="#263238" stroke-width="2" stroke-miterlimit="10"/>
<path d="M43.4798 297.814C43.4587 296.312 43.118 294.832 42.4805 293.472C41.8429 292.112 40.9232 290.904 39.7824 289.927C37.3951 287.806 24.8594 282.518 23.6603 286.939C22.3723 291.76 35.2078 301.202 43.4798 297.814Z" fill="#2ECC82" stroke="#263238" stroke-miterlimit="10"/>
<path d="M43.481 297.825L31.5449 290.383" stroke="#263238" stroke-width="0.5" stroke-miterlimit="10"/>
<path d="M46.1457 268.267L36.8633 258.459" stroke="#263238" stroke-width="2" stroke-miterlimit="10"/>
<path d="M39.6717 261.391C39.654 259.891 39.316 258.412 38.6802 257.054C38.0444 255.696 37.1256 254.489 35.9855 253.515C33.5983 251.382 21.0514 246.106 19.8634 250.527C18.5754 255.337 31.4108 264.767 39.6717 261.391Z" fill="#2ECC82" stroke="#263238" stroke-miterlimit="10"/>
<path d="M39.6835 261.392L27.7363 253.949" stroke="#263238" stroke-width="0.5" stroke-miterlimit="10"/>
<path d="M57.8477 382.234L64.9094 370.715" stroke="#263238" stroke-width="2" stroke-miterlimit="10"/>
<path d="M62.7554 374.169C62.4638 372.698 62.4902 371.182 62.833 369.722C63.1758 368.262 63.827 366.893 64.7429 365.705C66.6305 363.128 77.8116 355.375 79.8879 359.452C82.153 363.884 71.5382 375.769 62.7554 374.169Z" fill="#2ECC82" stroke="#263238" stroke-miterlimit="10"/>
<path d="M62.7559 374.169L73.5039 363.895" stroke="#263238" stroke-width="0.5" stroke-miterlimit="10"/>
<path d="M51.7188 323.473L58.7805 311.965" stroke="#263238" stroke-width="2" stroke-miterlimit="10"/>
<path d="M56.6267 315.421C56.3349 313.948 56.3612 312.43 56.704 310.968C57.0468 309.506 57.6981 308.135 58.6142 306.946C60.5017 304.368 71.6828 296.615 73.7592 300.692C76.0243 305.135 65.4094 317.02 56.6267 315.421Z" fill="#2ECC82" stroke="#263238" stroke-miterlimit="10"/>
<path d="M56.627 315.419L67.375 305.145" stroke="#263238" stroke-width="0.5" stroke-miterlimit="10"/>
<path d="M49.0312 297.659L56.0819 286.141" stroke="#263238" stroke-width="2" stroke-miterlimit="10"/>
<path d="M53.9293 289.606C53.6438 288.135 53.6754 286.62 54.022 285.162C54.3686 283.704 55.0221 282.337 55.939 281.153C57.8377 278.576 69.0188 270.822 71.0951 274.899C73.3269 279.309 62.712 291.15 53.9293 289.606Z" fill="#2ECC82" stroke="#263238" stroke-miterlimit="10"/>
<path d="M53.9277 289.606L64.6869 279.32" stroke="#263238" stroke-width="0.5" stroke-miterlimit="10"/>
<path d="M45.0781 259.803L52.1399 248.295" stroke="#263238" stroke-width="2" stroke-miterlimit="10"/>
<path d="M49.9748 251.749C49.6838 250.275 49.7116 248.757 50.0563 247.295C50.4011 245.833 51.0547 244.462 51.9734 243.274C53.861 240.697 65.0421 232.943 67.1184 237.02C69.3724 241.463 58.7687 253.382 49.9748 251.749Z" fill="#2ECC82" stroke="#263238" stroke-miterlimit="10"/>
<path d="M49.9863 251.749L60.7344 241.463" stroke="#263238" stroke-width="0.5" stroke-miterlimit="10"/>
<path d="M42.0583 235.61C41.7665 234.137 41.7929 232.619 42.1357 231.158C42.4784 229.696 43.1297 228.324 44.0458 227.135C45.9334 224.558 57.1145 216.805 59.1908 220.881C61.4892 225.313 50.8411 237.199 42.0583 235.61Z" fill="#2ECC82" stroke="#263238" stroke-miterlimit="10"/>
<path d="M42.0586 235.61L52.8066 225.324" stroke="#263238" stroke-width="0.5" stroke-miterlimit="10"/>
<path d="M42.6817 236.044C41.1871 236.179 39.6807 235.994 38.2636 235.5C36.8465 235.005 35.5514 234.214 34.4652 233.178C32.1002 231.034 25.5826 219.093 29.8351 217.449C34.4874 215.672 45.1911 227.479 42.6817 236.044Z" fill="#2ECC82" stroke="#263238" stroke-miterlimit="10"/>
<path d="M42.6815 236.054L33.5879 224.279" stroke="#263238" stroke-width="0.5" stroke-miterlimit="10"/>
<path d="M96.2425 263.734L75.8789 460.055" stroke="#263238" stroke-width="2" stroke-miterlimit="10"/>
<path d="M80.3873 422.611L73.3145 411.104" stroke="#263238" stroke-width="2" stroke-miterlimit="10"/>
<path d="M75.4685 414.558C75.7596 413.085 75.7318 411.566 75.387 410.104C75.0423 408.642 74.3886 407.271 73.4699 406.083C71.5823 403.517 60.3902 395.764 58.325 399.84C56.0599 404.283 66.6858 416.158 75.4685 414.558Z" fill="#2ECC82" stroke="#263238" stroke-miterlimit="10"/>
<path d="M75.4688 414.558L65.3203 404.816" stroke="#263238" stroke-width="0.5" stroke-miterlimit="10"/>
<path d="M86.0396 368.127L78.9668 356.619" stroke="#263238" stroke-width="2" stroke-miterlimit="10"/>
<path d="M81.1209 360.074C81.4119 358.6 81.3841 357.082 81.0394 355.62C80.6946 354.158 80.041 352.787 79.1223 351.599C77.2347 349.033 66.0425 341.279 63.9773 345.356C61.7122 349.799 72.3381 361.673 81.1209 360.074Z" fill="#2ECC82" stroke="#263238" stroke-miterlimit="10"/>
<path d="M81.1211 360.074L70.9727 350.332" stroke="#263238" stroke-width="0.5" stroke-miterlimit="10"/>
<path d="M83.718 390.453L76.6562 378.945" stroke="#263238" stroke-width="2" stroke-miterlimit="10"/>
<path d="M78.8 382.4C79.0916 380.929 79.0651 379.412 78.7223 377.953C78.3795 376.493 77.7283 375.123 76.8124 373.936C74.9138 371.359 63.7327 363.605 61.6564 367.682C59.4024 372.125 70.0172 384 78.8 382.4Z" fill="#2ECC82" stroke="#263238" stroke-miterlimit="10"/>
<path d="M78.8106 382.4L68.6621 372.658" stroke="#263238" stroke-width="0.5" stroke-miterlimit="10"/>
<path d="M89.8033 331.859L82.7305 320.352" stroke="#263238" stroke-width="2" stroke-miterlimit="10"/>
<path d="M84.885 323.807C85.1768 322.334 85.1494 320.815 84.8046 319.353C84.4598 317.891 83.8058 316.52 82.8865 315.332C80.9989 312.755 69.8067 305.013 67.7303 309.089C65.4764 313.521 76.1023 325.407 84.885 323.807Z" fill="#2ECC82" stroke="#263238" stroke-miterlimit="10"/>
<path d="M84.8848 323.806L74.7363 314.064" stroke="#263238" stroke-width="0.5" stroke-miterlimit="10"/>
<path d="M93.5787 295.426L86.5059 283.918" stroke="#263238" stroke-width="2" stroke-miterlimit="10"/>
<path d="M88.6593 287.373C88.9509 285.902 88.9245 284.385 88.5817 282.925C88.2389 281.466 87.5877 280.096 86.6718 278.909C84.7731 276.332 73.581 268.578 71.5158 272.666C69.2618 277.098 79.8765 288.983 88.6593 287.373Z" fill="#2ECC82" stroke="#263238" stroke-miterlimit="10"/>
<path d="M88.6713 287.372L78.5117 277.631" stroke="#263238" stroke-width="0.5" stroke-miterlimit="10"/>
<path d="M81.5762 409.359L90.8586 399.551" stroke="#263238" stroke-width="2" stroke-miterlimit="10"/>
<path d="M88.0273 402.495C88.0456 400.992 88.3849 399.511 89.0227 398.151C89.6604 396.791 90.5817 395.583 91.7247 394.608C94.1008 392.475 106.648 387.188 107.836 391.609C109.135 396.419 96.2993 405.86 88.0273 402.495Z" fill="#2ECC82" stroke="#263238" stroke-miterlimit="10"/>
<path d="M88.0371 402.494L100.673 394.641" stroke="#263238" stroke-width="0.5" stroke-miterlimit="10"/>
<path d="M87.6719 350.61L96.9543 340.791" stroke="#263238" stroke-width="2" stroke-miterlimit="10"/>
<path d="M94.123 343.734C94.1407 342.233 94.4799 340.753 95.1177 339.395C95.7555 338.036 96.6771 336.83 97.8204 335.858C100.197 333.725 112.732 328.438 113.931 332.859C115.23 337.658 102.395 347.11 94.123 343.734Z" fill="#2ECC82" stroke="#263238" stroke-miterlimit="10"/>
<path d="M94.1328 343.735L106.768 335.893" stroke="#263238" stroke-width="0.5" stroke-miterlimit="10"/>
<path d="M90.3477 324.785L99.6301 314.977" stroke="#263238" stroke-width="2" stroke-miterlimit="10"/>
<path d="M96.8105 317.908C96.8254 316.407 97.1622 314.928 97.7982 313.569C98.4341 312.21 99.3545 311.004 100.497 310.032C102.873 307.899 115.42 302.612 116.608 307.033C117.907 311.843 105.071 321.284 96.8105 317.908Z" fill="#2ECC82" stroke="#263238" stroke-miterlimit="10"/>
<path d="M96.8105 317.909L109.446 310.066" stroke="#263238" stroke-width="0.5" stroke-miterlimit="10"/>
<path d="M94.2773 286.927L103.549 277.119" stroke="#263238" stroke-width="2" stroke-miterlimit="10"/>
<path d="M100.729 280.042C100.747 278.539 101.086 277.058 101.724 275.698C102.362 274.338 103.283 273.13 104.426 272.155C106.802 270.022 119.338 264.735 120.537 269.156C121.836 273.988 109.001 283.43 100.729 280.042Z" fill="#2ECC82" stroke="#263238" stroke-miterlimit="10"/>
<path d="M100.74 280.064L113.376 272.211" stroke="#263238" stroke-width="0.5" stroke-miterlimit="10"/>
<path d="M96.2988 262.624C96.3165 261.125 96.6546 259.646 97.2904 258.288C97.9262 256.929 98.845 255.723 99.9852 254.749C102.372 252.616 114.908 247.329 116.096 251.75C117.395 256.559 104.571 266.001 96.2988 262.624Z" fill="#2ECC82" stroke="#263238" stroke-miterlimit="10"/>
<path d="M96.2988 262.623L108.934 254.781" stroke="#263238" stroke-width="0.5" stroke-miterlimit="10"/>
<path d="M96.82 263.191C95.3293 263.016 93.8933 262.524 92.6083 261.748C91.3233 260.972 90.2191 259.93 89.3696 258.693C87.5042 256.104 83.5626 243.075 88.0816 242.353C92.9893 241.564 101.039 255.316 96.82 263.191Z" fill="#2ECC82" stroke="#263238" stroke-miterlimit="10"/>
<path d="M96.8209 263.191L90.3477 249.795" stroke="#263238" stroke-width="0.5" stroke-miterlimit="10"/>
<path d="M72.916 183.791V432.052" stroke="#263238" stroke-width="2" stroke-miterlimit="10"/>
<path d="M73.1032 394.73L64.8867 384" stroke="#263238" stroke-width="2" stroke-miterlimit="10"/>
<path d="M67.3863 387.222C67.5258 385.727 67.3433 384.22 66.851 382.802C66.3588 381.384 65.5682 380.088 64.5328 379.002C62.3787 376.636 50.4538 370.116 48.8105 374.359C47.0561 379.002 58.8146 389.721 67.3863 387.222Z" fill="#2ECC82" stroke="#263238" stroke-miterlimit="10"/>
<path d="M67.3963 387.222L56.293 378.58" stroke="#263238" stroke-width="0.5" stroke-miterlimit="10"/>
<path d="M73.1032 348.067L64.8867 337.348" stroke="#263238" stroke-width="2" stroke-miterlimit="10"/>
<path d="M67.3863 340.569C67.5258 339.074 67.3433 337.567 66.851 336.149C66.3588 334.731 65.5682 333.435 64.5328 332.349C62.3787 329.983 50.4538 323.462 48.8105 327.695C47.0561 332.349 58.8146 343.068 67.3863 340.569Z" fill="#2ECC82" stroke="#263238" stroke-miterlimit="10"/>
<path d="M67.3963 340.568L56.293 331.926" stroke="#263238" stroke-width="0.5" stroke-miterlimit="10"/>
<path d="M73.1032 293.293L64.8867 282.574" stroke="#263238" stroke-width="2" stroke-miterlimit="10"/>
<path d="M67.3863 285.784C67.5258 284.29 67.3433 282.783 66.851 281.365C66.3588 279.947 65.5682 278.651 64.5328 277.564C62.3787 275.198 50.4538 268.678 48.8105 272.921C47.0561 277.564 58.8146 288.284 67.3863 285.784Z" fill="#2ECC82" stroke="#263238" stroke-miterlimit="10"/>
<path d="M67.3963 285.785L56.293 277.143" stroke="#263238" stroke-width="0.5" stroke-miterlimit="10"/>
<path d="M73.1032 256.827L64.8867 246.107" stroke="#263238" stroke-width="2" stroke-miterlimit="10"/>
<path d="M67.3863 249.318C67.5258 247.823 67.3433 246.316 66.851 244.898C66.3588 243.48 65.5682 242.185 64.5328 241.098C62.3787 238.743 50.4538 232.212 48.8105 236.455C47.0561 241.098 58.8146 251.828 67.3863 249.318Z" fill="#2ECC82" stroke="#263238" stroke-miterlimit="10"/>
<path d="M67.3963 249.318L56.293 240.676" stroke="#263238" stroke-width="0.5" stroke-miterlimit="10"/>
<path d="M73.1032 220.203L64.8867 209.484" stroke="#263238" stroke-width="2" stroke-miterlimit="10"/>
<path d="M67.3863 212.694C67.5258 211.2 67.3433 209.693 66.851 208.275C66.3588 206.857 65.5682 205.561 64.5328 204.475C62.3787 202.109 50.4538 195.588 48.8105 199.832C47.0561 204.508 58.8146 215.205 67.3863 212.694Z" fill="#2ECC82" stroke="#263238" stroke-miterlimit="10"/>
<path d="M67.3963 212.695L56.293 204.053" stroke="#263238" stroke-width="0.5" stroke-miterlimit="10"/>
<path d="M72.9258 408.971L81.1423 398.252" stroke="#263238" stroke-width="2" stroke-miterlimit="10"/>
<path d="M78.6331 401.463C78.4972 399.967 78.6826 398.46 79.1766 397.043C79.6707 395.625 80.4621 394.329 81.4977 393.243C83.6407 390.888 95.5657 384.356 97.2089 388.6C98.9966 393.243 87.2048 403.973 78.6331 401.463Z" fill="#2ECC82" stroke="#263238" stroke-miterlimit="10"/>
<path d="M78.6445 401.474L90.403 392.365" stroke="#263238" stroke-width="0.5" stroke-miterlimit="10"/>
<path d="M72.9258 334.77L81.1423 324.051" stroke="#263238" stroke-width="2" stroke-miterlimit="10"/>
<path d="M78.6331 327.261C78.4972 325.766 78.6826 324.259 79.1766 322.841C79.6707 321.423 80.4621 320.128 81.4977 319.041C83.6407 316.675 95.5657 310.155 97.2089 314.398C98.9966 319.041 87.2048 329.76 78.6331 327.261Z" fill="#2ECC82" stroke="#263238" stroke-miterlimit="10"/>
<path d="M78.6445 327.261L90.403 318.152" stroke="#263238" stroke-width="0.5" stroke-miterlimit="10"/>
<path d="M72.9258 298.147L81.1423 287.428" stroke="#263238" stroke-width="2" stroke-miterlimit="10"/>
<path d="M78.6331 290.638C78.4972 289.143 78.6826 287.636 79.1766 286.218C79.6707 284.8 80.4621 283.505 81.4977 282.418C83.6407 280.052 95.5657 273.532 97.2089 277.775C98.9966 282.418 87.2048 293.137 78.6331 290.638Z" fill="#2ECC82" stroke="#263238" stroke-miterlimit="10"/>
<path d="M78.6445 290.638L90.403 281.529" stroke="#263238" stroke-width="0.5" stroke-miterlimit="10"/>
<path d="M72.9258 249.739L81.1423 239.02" stroke="#263238" stroke-width="2" stroke-miterlimit="10"/>
<path d="M78.6331 242.275C78.4972 240.779 78.6826 239.272 79.1766 237.855C79.6707 236.437 80.4621 235.141 81.4977 234.055C83.6407 231.689 95.5657 225.168 97.2089 229.412C98.9966 234.01 87.2048 244.729 78.6331 242.275Z" fill="#2ECC82" stroke="#263238" stroke-miterlimit="10"/>
<path d="M78.6445 242.23L90.403 233.121" stroke="#263238" stroke-width="0.5" stroke-miterlimit="10"/>
<path d="M72.9258 211.683L81.1423 200.953" stroke="#263238" stroke-width="2" stroke-miterlimit="10"/>
<path d="M78.6331 204.175C78.4972 202.68 78.6826 201.173 79.1766 199.755C79.6707 198.337 80.4621 197.042 81.4977 195.955C83.6407 193.589 95.5657 187.069 97.2089 191.312C98.9966 195.955 87.2048 206.73 78.6331 204.175Z" fill="#2ECC82" stroke="#263238" stroke-miterlimit="10"/>
<path d="M78.6445 204.175L90.403 195.066" stroke="#263238" stroke-width="0.5" stroke-miterlimit="10"/>
<path d="M72.426 187.291C72.2902 185.795 72.4755 184.288 72.9696 182.871C73.4637 181.453 74.2551 180.157 75.2907 179.071C77.4337 176.716 89.3587 170.185 91.002 174.428C92.7896 179.071 80.9978 189.801 72.426 187.291Z" fill="#2ECC82" stroke="#263238" stroke-miterlimit="10"/>
<path d="M72.4375 187.29L84.196 178.182" stroke="#263238" stroke-width="0.5" stroke-miterlimit="10"/>
<path d="M73.0044 187.846C71.5037 187.825 70.0248 187.483 68.6671 186.843C67.3093 186.203 66.1041 185.28 65.1322 184.136C63.0114 181.759 57.7484 169.207 62.1675 168.018C66.9642 166.741 76.3909 179.537 73.0044 187.846Z" fill="#2ECC82" stroke="#263238" stroke-miterlimit="10"/>
<path d="M73.0043 187.802L65.1875 175.15" stroke="#263238" stroke-width="0.5" stroke-miterlimit="10"/>
<path d="M83.119 496.446H56.8374L53.5508 430.043H86.4056L83.119 496.446Z" fill="#263238" stroke="#263238" stroke-miterlimit="10"/>
<path d="M320.587 226.602H401.63L382.754 296.159H301.711L320.587 226.602Z" fill="#7D7D7D" stroke="#263238" stroke-linecap="round" stroke-linejoin="round"/>
<path d="M322.895 229.189H397.898L380.433 293.571H305.43L322.895 229.189Z" fill="white" stroke="#263238" stroke-linecap="round" stroke-linejoin="round"/>
<path d="M341.061 273.488L345.569 256.648H347.445L343.403 271.788H348.211L347.756 273.488H341.061Z" fill="#263238"/>
<path d="M352.454 260.715C353.142 258.137 354.863 256.482 357.428 256.482C359.993 256.482 360.859 258.137 360.17 260.715L357.839 269.423C357.161 271.978 355.429 273.666 352.831 273.666C350.233 273.666 349.433 271.978 350.122 269.423L352.454 260.715ZM351.943 269.523C351.532 271.067 351.943 271.956 353.297 271.956C354.652 271.956 355.518 271.067 355.94 269.523L358.316 260.637C358.727 259.115 358.316 258.204 356.973 258.204C355.629 258.204 354.752 259.115 354.33 260.637L351.943 269.523Z" fill="#263238"/>
<path d="M369.387 260.714L368.998 262.158H367.221L367.632 260.625C368.043 259.103 367.632 258.192 366.311 258.192C364.99 258.192 364.09 259.103 363.691 260.625L361.303 269.511C360.904 271.022 361.303 271.944 362.625 271.944C363.946 271.944 364.845 271.022 365.245 269.511L366.156 266.179H364.423L364.867 264.49H368.387L367.055 269.445C366.378 271.999 364.723 273.688 362.125 273.688C359.527 273.688 358.794 271.999 359.482 269.445L361.814 260.736C362.491 258.192 364.146 256.504 366.722 256.504C369.298 256.504 370.064 258.17 369.387 260.714Z" fill="#263238"/>
<path d="M371.03 260.715C371.718 258.137 373.428 256.482 376.004 256.482C378.58 256.482 379.435 258.137 378.747 260.715L376.415 269.423C375.738 271.978 374.005 273.666 371.407 273.666C368.809 273.666 368.01 271.978 368.698 269.423L371.03 260.715ZM370.519 269.523C370.108 271.067 370.519 271.956 371.874 271.956C373.228 271.956 374.094 271.067 374.516 269.523L376.892 260.637C377.303 259.115 376.892 258.204 375.549 258.204C374.205 258.204 373.328 259.115 372.906 260.637L370.519 269.523Z" fill="#263238"/>
<path d="M343.103 257.57C342.959 253.738 342.071 246.673 337.885 241.208C331.833 233.321 320.863 244.051 325.482 257.47C326.092 259.197 326.977 260.813 328.103 262.257" stroke="#263238" stroke-linecap="round" stroke-linejoin="round"/>
<path d="M332.466 266.49C332.466 266.49 316.455 268.923 319.831 274.799C325.66 284.985 335.375 275.632 339.45 270.856" stroke="#263238" stroke-linecap="round" stroke-linejoin="round"/>
<path d="M339.717 252.461C341.516 257.293 341.138 261.892 338.873 262.736C336.608 263.58 333.322 260.348 331.501 255.516C329.68 250.684 330.091 246.074 332.356 245.23C334.621 244.385 337.963 247.618 339.717 252.461Z" fill="#2ECC82" stroke="#263238" stroke-linecap="round" stroke-linejoin="round"/>
<path d="M323.607 275.077C324.163 276.554 327.005 276.843 329.959 275.721C332.912 274.599 334.844 272.489 334.289 271.022C333.734 269.556 330.88 269.256 327.938 270.367C324.995 271.478 323.041 273.599 323.607 275.077Z" fill="#2ECC82" stroke="#263238" stroke-linecap="round" stroke-linejoin="round"/>
<path d="M347.957 243.951C348.842 246.533 349.067 249.295 348.611 251.986C348.155 254.678 347.033 257.212 345.348 259.358C345.852 255.233 345.38 251.048 343.971 247.139" stroke="#263238" stroke-linecap="round" stroke-linejoin="round"/>
<path d="M382.754 292.471H269.145V296.17H382.754V292.471Z" fill="#7D7D7D" stroke="#263238" stroke-linecap="round" stroke-linejoin="round"/>
<path d="M382.755 292.471H330.547V296.17H382.755V292.471Z" fill="#595959" stroke="#263238" stroke-linecap="round" stroke-linejoin="round"/>
<path d="M238.912 302.057H232.805V496.011H238.912V302.057Z" fill="white" stroke="#263238" stroke-linecap="round" stroke-linejoin="round"/>
<path d="M227.574 496.012H232.793L232.793 302.057H227.574L227.574 496.012Z" fill="#A8A8A8" stroke="#263238" stroke-linecap="round" stroke-linejoin="round"/>
<path d="M395.347 403.539H389.24V496.012H395.347V403.539Z" fill="white" stroke="#263238" stroke-linecap="round" stroke-linejoin="round"/>
<path d="M384.031 496.023H389.25V403.55H384.031V496.023Z" fill="#A8A8A8" stroke="#263238" stroke-linecap="round" stroke-linejoin="round"/>
<path d="M460.746 403.539H454.639V496.012H460.746V403.539Z" fill="white" stroke="#263238" stroke-linecap="round" stroke-linejoin="round"/>
<path d="M449.408 496.023H454.627V403.55H449.408V496.023Z" fill="#A8A8A8" stroke="#263238" stroke-linecap="round" stroke-linejoin="round"/>
<path d="M328.705 408.814H388.285V303.934H328.705V408.814Z" fill="#A8A8A8" stroke="#263238" stroke-linecap="round" stroke-linejoin="round"/>
<path d="M466.807 303.945H388.295V408.826H466.807V303.945Z" fill="white" stroke="#263238" stroke-linecap="round" stroke-linejoin="round"/>
<path d="M388.295 303.945H328.715V309.055H388.295H466.807V303.945H388.295Z" fill="#263238" stroke="#263238" stroke-linecap="round" stroke-linejoin="round"/>
<path d="M384.599 309.955H333.801V334.437H384.599V309.955Z" fill="white" stroke="#263238" stroke-linecap="round" stroke-linejoin="round"/>
<path d="M365.889 319.885H352.498V324.506H365.889V319.885Z" fill="#263238"/>
<path d="M384.599 343.678H333.801V368.16H384.599V343.678Z" fill="white" stroke="#263238" stroke-linecap="round" stroke-linejoin="round"/>
<path d="M365.889 353.154H352.498V357.775H365.889V353.154Z" fill="#263238"/>
<path d="M384.599 377.402H333.801V401.884H384.599V377.402Z" fill="white" stroke="#263238" stroke-linecap="round" stroke-linejoin="round"/>
<path d="M365.889 386.41H352.498V391.031H365.889V386.41Z" fill="#263238"/>
<path d="M474.902 299.336H219.158V305.434H474.902V299.336Z" fill="#A8A8A8" stroke="#263238" stroke-linecap="round" stroke-linejoin="round"/>
<path d="M474.902 299.336H397.678V305.434H474.902V299.336Z" fill="white" stroke="#263238" stroke-linecap="round" stroke-linejoin="round"/>
<path d="M240.844 361.406C240.844 361.406 248.461 366.682 259.719 399.295C263.472 410.136 284.58 468.597 285.69 472.607C286.8 476.617 289.021 481.493 292.352 481.493C295.683 481.493 307.897 465.942 306.409 464.098C304.921 462.254 297.904 454.834 297.904 454.834C297.904 454.834 293.707 407.515 292.963 394.185C292.219 380.856 295.25 364.805 288.222 354.064C281.193 343.322 250.093 354.43 250.093 354.43L240.844 361.406Z" fill="white" stroke="#263238" stroke-linecap="round" stroke-linejoin="round"/>
<path d="M301.323 454.891C300.465 455.351 299.761 456.053 299.299 456.91C298.837 457.767 298.637 458.742 298.725 459.711C299.102 463.044 302.433 467.487 302.433 467.487C302.433 467.487 295.394 473.041 291.696 473.408C287.999 473.774 283.924 474.518 283.924 475.629C283.924 476.74 286.888 478.595 288.732 482.66C290.773 486.785 293.126 490.747 295.771 494.512C296.881 495.99 297.614 497.101 301.689 495.99C305.764 494.879 314.647 486.737 319.455 483.405C324.262 480.072 338.697 477.851 341.295 475.996C343.893 474.141 352.021 462.3 348.323 460.078C344.626 457.856 343.516 460.445 339.074 461.555C334.633 462.666 321.675 461.189 314.647 459.711C307.618 458.234 305.387 457.856 305.387 457.856L301.323 454.891Z" fill="#2ECC82" stroke="#263238" stroke-linecap="round" stroke-linejoin="round"/>
<path d="M295.127 493.667C295.371 494.023 295.571 494.311 295.727 494.511C296.837 495.989 297.57 497.099 301.645 495.989C305.72 494.878 314.602 486.736 319.41 483.403C324.218 480.071 338.652 477.849 341.25 475.994C343.849 474.139 351.976 462.298 348.279 460.077C347.759 459.751 347.194 459.504 346.602 459.344C346.669 459.588 346.735 459.81 346.802 460.077C347.912 464.52 344.204 468.963 340.873 472.296C337.542 475.628 326.438 474.884 314.225 481.182C307.476 484.725 301.081 488.906 295.127 493.667Z" fill="white" stroke="#263238" stroke-linecap="round" stroke-linejoin="round"/>
<path d="M294.773 417.844C293.973 408.103 293.274 398.961 293.007 394.24C292.263 380.91 295.295 364.86 288.266 354.118C281.238 343.377 250.137 354.485 250.137 354.485L240.844 361.405C240.844 361.405 248.461 366.681 259.719 399.294C261.152 403.437 265.127 414.556 269.557 426.919L294.773 417.844Z" fill="#263238" stroke="#263238" stroke-linecap="round" stroke-linejoin="round"/>
<path d="M276.652 171.472C277.612 174.049 278.068 176.787 277.996 179.536C277.663 183.235 274.298 184.912 273.965 183.913C273.677 182.248 273.566 180.558 273.632 178.87V177.526C272.803 178.893 271.786 180.138 270.612 181.225C268.258 183.568 266.915 182.902 265.904 182.902C264.894 182.902 264.561 179.57 266.248 177.193C267.936 174.815 273.299 169.461 276.652 171.472Z" fill="white" stroke="#263238" stroke-linecap="round" stroke-linejoin="round"/>
<path d="M284.381 180.213C281.05 178.191 275.986 185.256 268.258 183.545C267.27 183.334 266.915 181.868 268.592 178.513C270.268 175.159 275.642 172.46 278.329 170.449C281.016 168.439 283.037 166.75 283.037 164.395C283.037 162.041 276.986 165.739 275.265 167.083C273.232 168.351 271.118 169.482 268.936 170.471L267.481 170.549C264.494 170.727 259.887 171.271 258.143 172.771C255.856 174.77 254.546 181.601 254.002 184.234C252.514 186.389 251.182 188.377 250.415 189.577C248.062 193.265 200.717 227.877 200.717 227.877L204.048 257.435L257.777 196.342C259.265 195.124 260.978 194.211 262.818 193.654C266.515 192.309 271.545 191.299 275.92 188.944C279.154 187.209 282.293 185.304 285.324 183.234C287.667 181.768 286.202 181.302 284.381 180.213Z" fill="white" stroke="#263238" stroke-linecap="round" stroke-linejoin="round"/>
<path d="M227.907 207.762C214.75 217.692 200.76 227.923 200.76 227.923L204.091 257.481L237.101 219.925L227.907 207.762Z" fill="#2ECC82" stroke="#263238" stroke-linecap="round" stroke-linejoin="round"/>
<path d="M211.387 319.54C211.387 319.54 235.071 318.429 269.491 323.983C303.912 329.537 316.791 335.446 315.759 342.122C311.562 369.159 248.461 458.166 248.461 458.166L249.572 470.752C249.572 470.752 247.351 473.717 239.579 474.084C231.806 474.45 222.18 463.32 222.18 463.32C222.18 463.32 230.874 454.334 234.205 443.604C237.536 432.874 264.317 363.627 264.317 363.627C264.317 363.627 229.153 371.403 190.291 364.371C151.429 357.34 211.387 319.54 211.387 319.54Z" fill="white" stroke="#263238" stroke-linecap="round" stroke-linejoin="round"/>
<path d="M269.491 323.983C235.071 318.429 211.387 319.54 211.387 319.54C211.387 319.54 151.429 357.307 190.291 364.338C229.153 371.369 264.317 363.594 264.317 363.594C264.317 363.594 253.214 392.474 244.331 415.801L270.435 425.798C289.077 397.506 313.183 358.462 315.726 342.1C316.791 335.446 303.912 329.537 269.491 323.983Z" fill="#263238" stroke="#263238" stroke-linecap="round" stroke-linejoin="round"/>
<path d="M248.461 458.166C247.713 458.472 247.032 458.924 246.46 459.497C245.888 460.069 245.436 460.749 245.13 461.498C244.418 463.188 243.798 464.916 243.276 466.675C239.225 465.809 235.263 464.57 231.44 462.976C228.622 461.688 225.899 460.203 223.29 458.533C223.29 458.533 219.959 458.899 219.959 461.121C219.94 464.536 219.316 467.921 218.116 471.118C217.161 473.506 215.129 478.804 213.808 482.281C213.654 482.69 213.591 483.127 213.623 483.563C213.655 483.998 213.781 484.422 213.992 484.804C214.203 485.186 214.494 485.518 214.846 485.776C215.197 486.035 215.601 486.215 216.028 486.302C221.891 487.602 234.249 490.457 244.819 493.711C259.254 498.154 275.165 495.933 277.019 495.555C278.873 495.178 286.268 490.745 282.937 487.78C279.606 484.814 259.987 477.049 255.923 471.862C251.859 466.675 248.461 458.166 248.461 458.166Z" fill="#2ECC82" stroke="#263238" stroke-linecap="round" stroke-linejoin="round"/>
<path d="M281.393 486.748C281.393 490.424 279.506 494.079 273.621 494.079C267.736 494.079 257.332 493.335 242.531 487.414C233.6 483.912 224.422 481.075 215.073 478.928C214.618 480.116 214.174 481.271 213.796 482.26C213.643 482.669 213.58 483.106 213.612 483.542C213.643 483.977 213.769 484.4 213.98 484.783C214.191 485.165 214.483 485.497 214.834 485.755C215.186 486.014 215.589 486.193 216.017 486.281C221.879 487.581 234.237 490.436 244.808 493.69C259.242 498.133 275.153 495.912 277.007 495.534C278.862 495.156 286.257 490.724 282.926 487.759C282.443 487.381 281.931 487.043 281.393 486.748Z" fill="white" stroke="#263238" stroke-linecap="round" stroke-linejoin="round"/>
<path d="M136.617 233.287C136.617 233.287 132.587 265.211 132.931 271.253C133.275 277.296 137.628 329.37 138.638 340.8C139.648 352.23 144.345 362.293 152.739 364.315C161.133 366.337 182.963 369.347 192.367 367.003C201.772 364.659 211.843 343.488 215.196 335.423C218.549 327.359 220.914 322.316 219.904 320.639C218.893 318.962 214.53 315.263 214.53 315.263C214.53 315.263 206.135 254.169 204.115 238.33C202.094 222.49 203.115 221.201 195.72 215.147C188.326 209.094 150.052 204.062 136.617 233.287Z" fill="#2ECC82" stroke="#263238" stroke-linecap="round" stroke-linejoin="round"/>
<path d="M190.356 344.688C189.146 345.609 187.88 346.487 186.592 347.309" stroke="#263238" stroke-linecap="round" stroke-linejoin="round"/>
<path d="M212.497 317.686C212.497 317.686 205.368 331.681 193.621 342.056" stroke="#263238" stroke-linecap="round" stroke-linejoin="round"/>
<path d="M207.311 318.43C207.311 318.43 195.841 329.16 184.371 335.825" stroke="#263238" stroke-linecap="round" stroke-linejoin="round"/>
<path d="M216.539 132.838C218.386 136.719 219.851 140.77 220.914 144.935C221.913 149.978 222.257 154.676 224.6 155.687C226.943 156.698 231.318 157.031 230.651 159.719C229.985 162.407 225.61 166.773 225.61 166.773C225.61 166.773 226.621 182.901 226.288 185.923C225.955 188.944 208.145 188.955 207.146 188.955C206.146 188.955 196.042 212.815 196.042 212.815L167.84 198.697L173.225 181.18C173.225 181.18 164.498 164.373 163.82 156.987C163.143 149.6 180.275 136.159 190.013 133.138C199.751 130.117 216.539 132.838 216.539 132.838Z" fill="white" stroke="#263238" stroke-linecap="round" stroke-linejoin="round"/>
<path d="M207.144 188.945L198.184 186.391L201.537 199.509L207.144 188.945Z" fill="#263238" stroke="#263238" stroke-linecap="round" stroke-linejoin="round"/>
<path d="M219.869 151.844C220.313 153.744 220.102 155.421 219.38 155.588C218.659 155.754 217.704 154.366 217.248 152.478C216.793 150.589 217.015 148.901 217.737 148.734C218.459 148.568 219.414 149.956 219.869 151.844Z" fill="#263238"/>
<path d="M214.195 169.795C214.195 169.795 218.226 172.816 221.968 171.472" stroke="#263238" stroke-linecap="round" stroke-linejoin="round"/>
<path d="M214.861 126.463C214.861 126.463 219.569 134.86 216.205 140.237C212.84 145.613 204.79 147.957 200.427 153C196.063 158.043 193.765 166.773 192.033 167.44C190.301 168.106 185.315 158.031 182.284 158.698C179.253 159.364 174.234 166.473 178.598 173.816C179.799 175.919 181.575 177.636 183.716 178.767C185.857 179.898 188.276 180.396 190.689 180.203C190.689 180.203 178.598 186.579 176.255 186.579C173.912 186.579 166.85 182.558 163.497 178.859C160.144 175.16 148.097 164.085 147.364 155.021C146.631 145.957 158.778 134.527 158.778 134.527C158.778 134.527 144.344 133.516 148.041 128.14C151.739 122.764 164.829 119.409 164.829 119.409C164.829 119.409 162.476 111.012 165.84 109.323C169.204 107.635 189.679 114.366 189.679 114.366C189.679 114.366 183.972 106.98 192.033 106.591C200.094 106.202 213.851 116.377 214.861 126.463Z" fill="#263238" stroke="#263238" stroke-linecap="round" stroke-linejoin="round"/>
<path d="M188.146 162.942L230.983 145.613" stroke="#263238" stroke-linecap="round" stroke-linejoin="round"/>
<path d="M219.814 143.181C221.597 142.408 223.609 142.351 225.433 143.022C227.256 143.693 228.752 145.04 229.609 146.785C230.466 148.53 230.618 150.537 230.035 152.392C229.452 154.246 228.178 155.804 226.476 156.744" stroke="#263238" stroke-linecap="round" stroke-linejoin="round"/>
<path d="M204.114 222.202C204.114 222.202 203.781 212.461 201.094 209.773C198.407 207.085 178.599 195.999 169.527 193.655C160.456 191.311 151.062 194.655 145.011 196.677C138.96 198.698 134.94 204.397 132.587 216.826C130.233 229.256 129.899 236.987 134.94 237.665C139.981 238.342 147.032 223.224 162.81 220.192C178.588 217.159 193.033 219.859 196.397 221.536C199.762 223.213 204.114 222.202 204.114 222.202Z" fill="#2ECC82" stroke="#263238" stroke-linecap="round" stroke-linejoin="round"/>
<path d="M153.115 211.895C150.084 213.005 148.041 213.805 148.041 213.805" stroke="#263238" stroke-linecap="round" stroke-linejoin="round"/>
<path d="M204.113 222.201C204.113 222.201 182.961 210.449 175.244 208.094C171.214 206.873 163.974 208.483 157.979 210.316" stroke="#263238" stroke-linecap="round" stroke-linejoin="round"/>
<path d="M303.833 276.809C303.833 276.809 302.723 283.796 301.446 284.584C300.169 285.373 300.247 278.097 300.247 278.097C300.247 278.097 298.648 282.285 297.66 283.285C296.671 284.285 297.26 278.997 297.26 278.997L298.37 274.01L303.833 276.809Z" fill="white" stroke="#263238" stroke-linecap="round" stroke-linejoin="round"/>
<path d="M289.62 269.898L299.924 270.065C299.924 270.065 302.644 270.454 303.033 272.009C303.584 273.729 304.233 275.417 304.976 277.063L289.031 272.398L289.62 269.898Z" fill="white" stroke="#263238" stroke-linecap="round" stroke-linejoin="round"/>
<path d="M293.307 273.176C293.307 273.176 307.741 271.232 308.085 272.398C308.374 273.276 309.484 281.184 309.728 283.739C309.733 283.826 309.71 283.913 309.663 283.986C309.615 284.06 309.546 284.116 309.464 284.147C309.382 284.178 309.293 284.182 309.208 284.159C309.124 284.135 309.05 284.086 308.996 284.017L304.976 277.063L294.084 277.841C294.084 277.841 290.975 275.12 293.307 273.176Z" fill="white" stroke="#263238" stroke-linecap="round" stroke-linejoin="round"/>
<path d="M173.979 229.621C173.979 229.621 165.03 236.231 168.139 252.57C171.247 268.91 193.021 313.664 194.964 317.507C196.907 321.35 205.457 321.783 209.343 320.617C213.229 319.451 282.448 291.837 282.448 291.837C282.448 291.837 289.831 289.893 290.997 288.338C292.163 286.783 299.558 278.618 299.558 278.618C299.558 278.618 311.216 280.173 313.992 279.396C316.768 278.618 311.272 277.841 308.552 277.063C306.453 276.463 294.883 271.942 289.676 269.899C288.926 269.596 288.102 269.524 287.311 269.692C286.52 269.86 285.797 270.261 285.235 270.843C281.593 274.575 273.831 282.495 272.355 283.672C270.412 285.227 215.605 294.569 215.605 294.569C215.605 294.569 202.77 234.287 197.718 229.233C192.666 224.178 183.728 225.345 183.728 225.345" fill="#2ECC82"/>
<path d="M173.979 229.621C173.979 229.621 165.03 236.231 168.139 252.57C171.247 268.91 193.021 313.664 194.964 317.507C196.907 321.35 205.457 321.783 209.343 320.617C213.229 319.451 282.448 291.837 282.448 291.837C282.448 291.837 289.831 289.893 290.997 288.338C292.163 286.783 299.558 278.618 299.558 278.618C299.558 278.618 311.216 280.173 313.992 279.396C316.768 278.618 311.272 277.841 308.552 277.063C306.453 276.463 294.883 271.942 289.676 269.899C288.926 269.596 288.102 269.524 287.311 269.692C286.52 269.86 285.797 270.261 285.235 270.843C281.593 274.575 273.831 282.495 272.355 283.672C270.412 285.227 215.605 294.569 215.605 294.569C215.605 294.569 202.77 234.287 197.718 229.233C192.666 224.178 183.728 225.345 183.728 225.345" stroke="#263238" stroke-linecap="round" stroke-linejoin="round"/>
<path d="M246.272 306.221C264.426 299.024 282.425 291.837 282.425 291.837C282.425 291.837 289.809 289.893 290.974 288.338C292.14 286.783 299.524 278.618 299.524 278.618C299.524 278.618 311.194 280.173 313.958 279.396C316.723 278.618 311.238 277.841 308.518 277.063C306.419 276.463 294.85 271.942 289.642 269.899C288.892 269.596 288.069 269.524 287.277 269.692C286.486 269.861 285.763 270.261 285.201 270.843C281.559 274.575 273.798 282.495 272.321 283.672C271.31 284.483 255.999 287.394 241.531 290.004L246.272 306.221Z" fill="white" stroke="#263238" stroke-linecap="round" stroke-linejoin="round"/>
<path d="M124.779 382.756L107.847 495.323C107.817 495.441 107.811 495.563 107.828 495.683C107.845 495.803 107.886 495.918 107.948 496.022C108.073 496.233 108.276 496.385 108.513 496.445C108.75 496.505 109.001 496.469 109.212 496.344C109.422 496.219 109.574 496.016 109.634 495.779L135.172 384.611L124.779 382.756Z" fill="#9C9C9C" stroke="#263238" stroke-linecap="round" stroke-linejoin="round"/>
<path d="M150.051 383.499L157.412 495.111C157.412 495.356 157.509 495.591 157.682 495.763C157.855 495.936 158.089 496.033 158.334 496.033C158.578 496.033 158.813 495.936 158.986 495.763C159.158 495.591 159.255 495.356 159.255 495.111L160.532 382.566L150.051 383.499Z" fill="#9C9C9C" stroke="#263238" stroke-linecap="round" stroke-linejoin="round"/>
<path d="M174.891 385.177L195.099 494.857C195.158 495.076 195.297 495.266 195.488 495.39C195.679 495.513 195.909 495.562 196.133 495.526C196.358 495.49 196.561 495.372 196.705 495.195C196.848 495.019 196.92 494.795 196.909 494.568L185.139 382.789L174.891 385.177Z" fill="#9C9C9C" stroke="#263238" stroke-linecap="round" stroke-linejoin="round"/>
<path d="M213.951 384.254L230.484 494.666C230.534 494.889 230.664 495.085 230.85 495.217C231.035 495.349 231.263 495.407 231.49 495.381C231.716 495.355 231.924 495.246 232.075 495.075C232.226 494.904 232.308 494.683 232.305 494.455L224.288 382.266L213.951 384.254Z" fill="#9C9C9C" stroke="#263238" stroke-linecap="round" stroke-linejoin="round"/>
<path d="M198.151 361.783C198.151 361.783 178.709 355.296 169.638 331.969C160.566 308.643 145.677 268.454 135.306 263.267C124.936 258.08 104.861 267.799 103.562 305.388C102.263 342.977 105.305 370.925 113.677 380.166C121.083 388.308 133.663 398.683 177.332 399.416C216.339 400.083 232.261 385.209 237.668 380.166C243.075 375.123 251.914 364.371 244.796 364.371C237.679 364.371 207.223 364.371 198.151 361.783Z" fill="white" stroke="#263238" stroke-linecap="round" stroke-linejoin="round"/>
<path d="M287.922 131.017C287.922 131.017 280.338 122.13 269.801 120.475C259.264 118.82 258.553 134.194 272.022 140.936C275.799 142.675 279.986 143.328 284.113 142.824C284.113 142.824 273.354 155.543 280.316 157.576C295.861 162.152 292.53 138.181 292.53 138.181L287.922 131.017Z" fill="white" stroke="#263238" stroke-linecap="round" stroke-linejoin="round"/>
<path d="M290.476 130.462C290.476 130.462 286.035 119.676 289.366 109.523C292.697 99.3706 305.899 106.269 305.765 121.342C305.715 125.242 304.671 129.065 302.734 132.45C302.734 132.45 319.678 128.84 317.591 135.782C312.849 151.567 294.762 137.837 294.762 137.837L290.476 130.462Z" fill="white" stroke="#263238" stroke-linecap="round" stroke-linejoin="round"/>
<path d="M296.361 143.936C296.168 143.936 295.979 143.885 295.812 143.79C295.644 143.695 295.504 143.557 295.406 143.391L284.869 125.641C284.718 125.389 284.673 125.087 284.744 124.802C284.814 124.517 284.995 124.271 285.247 124.119C285.372 124.043 285.512 123.993 285.658 123.971C285.803 123.949 285.951 123.957 286.094 123.993C286.237 124.029 286.371 124.093 286.488 124.182C286.606 124.27 286.705 124.381 286.779 124.508L297.305 142.303C297.456 142.555 297.501 142.856 297.43 143.142C297.36 143.427 297.179 143.672 296.927 143.825C296.751 143.908 296.556 143.946 296.361 143.936Z" fill="#263238"/>
<path d="M286.668 127.23C286.668 127.23 282.871 119.21 276.131 118.344" stroke="#263238" stroke-linecap="round" stroke-linejoin="round"/>
<path d="M286.777 124.53C286.777 124.53 284.557 117.932 286.244 113.711" stroke="#263238" stroke-linecap="round" stroke-linejoin="round"/>
<path d="M280.06 132.038C279.66 133.993 276.729 135.059 273.553 134.415C270.377 133.771 268.079 131.649 268.479 129.694C268.878 127.739 271.81 126.662 274.985 127.317C278.161 127.972 280.459 130.083 280.06 132.038Z" fill="#2ECC82" stroke="#263238" stroke-linecap="round" stroke-linejoin="round"/>
<path d="M287.999 145.812C289.109 146.545 289.109 148.644 287.855 150.499C286.6 152.354 284.746 153.232 283.613 152.488C282.481 151.743 282.503 149.644 283.758 147.8C285.012 145.956 286.811 145.068 287.999 145.812Z" fill="#2ECC82" stroke="#263238" stroke-linecap="round" stroke-linejoin="round"/>
<path d="M311.082 136.515C311.082 137.87 309.328 138.992 307.119 139.026C304.909 139.059 303.11 137.97 303.088 136.626C303.066 135.282 304.842 134.149 307.052 134.116C309.262 134.083 311.06 135.171 311.082 136.515Z" fill="#2ECC82" stroke="#263238" stroke-linecap="round" stroke-linejoin="round"/>
<path d="M297.404 124.919C295.417 125.141 293.507 122.698 293.151 119.443C292.796 116.188 294.117 113.4 296.105 113.178C298.092 112.956 299.991 115.4 300.346 118.654C300.702 121.909 299.392 124.697 297.404 124.919Z" fill="#2ECC82" stroke="#263238" stroke-linecap="round" stroke-linejoin="round"/>
<path d="M7.26172 496.445H524.445" stroke="#263238" stroke-linecap="round" stroke-linejoin="round"/>
</g>
<defs>
<clipPath id="clip0_1155_2057">
<rect width="525" height="497" fill="white"/>
</clipPath>
</defs>
</svg>
