<svg xmlns="http://www.w3.org/2000/svg" width="992.41" height="518.954"><defs><linearGradient id="a" x1=".5" x2=".5" y2="1" gradientUnits="objectBoundingBox"><stop offset="0" stop-color="#202020"/><stop offset="1" stop-color="#2e2e2e"/></linearGradient></defs><path fill="#b0eedb" d="M76.566 491.554c-15.646 8.436-22.361 26.341-22.361 26.341s18.65 4.227 34.3-4.209 22.362-26.341 22.362-26.341-18.655-4.228-34.301 4.209Z" data-name="Path 36480"/><path fill="#b0eedb" d="M81.714 497.352c-9.163 15.231-27.365 21.1-27.365 21.1s-3.344-18.828 5.819-34.059 27.365-21.1 27.365-21.1 3.344 18.828-5.819 34.059Z" data-name="Path 36481"/><path fill="#cbcbcb" data-name="Rectangle 13660" d="M488.774 11.422H939.58v2H488.774z"/><path fill="#cbcbcb" data-name="Rectangle 13661" d="M549.181 12.175h2v63.563h-2z"/><path fill="#cbcbcb" d="M715.205 126.123H612.156V12.113h2v112.01h101.049Z" data-name="Path 36482"/><path fill="#cbcbcb" data-name="Rectangle 13662" d="M679.885 12.175h2v63.563h-2z"/><path fill="#cbcbcb" data-name="Rectangle 13663" d="M713.443 125.176h2v63.563h-2z"/><path fill="#cbcbcb" data-name="Rectangle 13664" d="M817.001 12.175h2v63.563h-2z"/><path fill="#cbcbcb" data-name="Rectangle 13665" d="M885.559 12.175h2v63.563h-2z"/><path fill="#189366" data-name="Rectangle 13666" d="M531.432 85.462h37.978v14.797h-37.978z"/><path fill="url(#a)" data-name="Rectangle 13667" transform="translate(661.432 85.462)" d="M0 0h37.978v14.797H0z"/><path fill="#b0eedb" data-name="Rectangle 13668" d="M799.432 85.462h37.978v14.797h-37.978z"/><path fill="#189366" data-name="Rectangle 13669" d="M865.432 85.462h37.978v14.797h-37.978z"/><path fill="url(#a)" data-name="Rectangle 13670" transform="translate(954.432 5.462)" d="M0 0h37.978v14.797H0z"/><path fill="url(#a)" data-name="Rectangle 13671" transform="translate(695.432 197.462)" d="M0 0h37.978v14.797H0z"/><path fill="#189366" data-name="Rectangle 13672" d="M414.98 0h60.882v23.72H414.98z"/><path fill="#ffb7b7" d="m282.481 241.153 3.977 35.877 50.8.875-6.131-42.918Z" data-name="Path 36483"/><path fill="#ffb7b7" d="M259.593 320.95a8.213 8.213 0 0 0-2.229-12.4l2.358-18.62-10.966-4.193-2.961 26.342a8.258 8.258 0 0 0 13.8 8.866Z" data-name="Path 36484"/><path fill="#ffb7b7" d="M351.976 507.436h10.739l5.108-41.419h-15.849Z" data-name="Path 36485"/><path fill="url(#a)" d="M453.032 694.454h21.148a13.477 13.477 0 0 1 13.477 13.476v.439h-34.624Z" data-name="Path 36486" transform="translate(-103.795 -190.523)"/><path fill="#ffb7b7" d="M229.353 507.436h10.738l5.108-41.419h-15.848Z" data-name="Path 36487"/><path fill="url(#a)" d="M330.408 694.454h21.148a13.477 13.477 0 0 1 13.477 13.476v.439h-34.624Z" data-name="Path 36488" transform="translate(-103.795 -190.523)"/><path fill="#189366" d="m244.81 306.412 4.723-54.636 13.779-49.9a18.848 18.848 0 0 1 16.272-13.665l.45-.043 2.448 37.454-17.62 36.206-5.824 43.437Z" data-name="Path 36489"/><path fill="url(#a)" d="m389.448 446.677-7.233 13.023s-28.209 28.517-30.379 72.571l-26.188 149.936 24.271-.6 49.141-140.53 34.758 59.623 17.382 77.911 27.567-5.094-12.285-90.491-23.672-84.2-2.4-45.845Z" data-name="Path 36490" transform="translate(-103.795 -190.523)"/><circle cx="21.513" cy="21.513" r="21.513" fill="#ffb7b7" data-name="Ellipse 647" transform="translate(289.206 127.064)"/><path fill="url(#a)" d="M329.6 387.962c4-7.807 5.361-16.672 8.437-24.885s8.665-16.362 17.138-18.626c4.806-1.284 9.914-.5 14.851-1.111 4.341-.537 9.015-2.754 10.677-6.609a27.228 27.228 0 0 1 1.4-11.3c3.1-8.8 10.482-15.745 19.091-19.336 6.993-2.917 15.047-3.741 22.189-1.208s13.137 8.724 14.42 16.192-2.833 15.807-9.931 18.46c-5.1 1.9-11.659 1.27-14.987 5.575-3.371 4.36-.955 10.715 2.107 15.3l-.209.213c-10 .117-20.81-1.815-27.7-9.066a21.941 21.941 0 0 1-2.058-2.532c-.211.338-.432.669-.67.984-3.468 4.606-8.9 7.219-14.072 9.764s-10.539 5.4-13.646 10.259c-5.615 8.777-1.929 20.6-5.14 30.51a22.538 22.538 0 0 1-42.388 1.375c8.744.73 16.491-6.152 20.491-13.959Z" data-name="Path 36491" transform="translate(-103.795 -190.523)"/><path fill="#ffb7b7" d="M363.559 320.236a8.213 8.213 0 0 0-7.709-9.959l-6.522-17.6-11.661 1.355 9.559 24.724a8.258 8.258 0 0 0 16.333 1.479Z" data-name="Path 36492"/><path fill="#189366" d="m282.249 261.449-6.225-29.949-1.956-22.813a53.714 53.714 0 0 1 10.18-36.318l1.99-2.718 33.5 11.908 16.334 21.532c9.968 10.022 2.164 19.617 1.076 20.853l-.334 30.263-.376.05Z" data-name="Path 36493"/><path fill="#189366" d="m343.942 313.967-24.916-57.412-3.62-52.6-.73-11.055a10.566 10.566 0 0 1 21.016-2.1l7.843 58.636 13.5 58.5Z" data-name="Path 36494"/><path fill="#cbcbcb" d="M538 518.734H1a1 1 0 0 1 0-2h537a1 1 0 0 1 0 2Z" data-name="Path 36495"/></svg>