<svg width="556" height="549" fill="none" xmlns="http://www.w3.org/2000/svg"><path d="M488.724 206.211h.948c4.441 1.073 9.023-.265 13.473.75 6.698.674 12.277 3.719 17.201 8.131 15.721 14.146 28.463 30.361 34.631 50.949.075 4.089 2.485 8.378-1.016 12.173-.408 1.006-.294 2.476-2.049 2.277-9.915-12.334-24.355-18.236-37.22-26.385-4.668-2.951-9.659-5.418-13.482-9.564-1.898-2.068-4.403-2.419-7.002-1.898-4.336.845-8.71 1.509-13.16 2.723 4.412-.133 7.495 1.376 9.649 5.475 1.452 2.761 4.953 3.178 7.998 3.406a7.436 7.436 0 0 1 3.402.892 7.44 7.44 0 0 1 2.614 2.353 197.353 197.353 0 0 0 26.375 31.603 5.972 5.972 0 0 1 1.765 2.761c-1.252 3.236-1.755 6.338 1.537 8.786 2.391 6.025 3.302 12.381 3.843 18.738.512 5.987-2.239 8.843-10.38 11.945a22.677 22.677 0 0 1-3.662.579 6.987 6.987 0 0 1-1.471-.142c-3.444.189-6.812 1.119-10.313.854-2.543-.2-5.323-.228-7.296-1.632-5.37-3.795-11.385-4.336-17.562-4.08-4.336-.826-8.719-1.49-12.913-2.97-8.187-3.159-16.651-1.622-25-1.262-2.846.124-3.899 2.496-4.269 5.323-.361 2.676.446 6.11-3.33 7.315-6.955-.512-8.302-2.41-8.179-11.471.598-1.366.313-2.799.323-4.203.057-6.546.17-6.689 6.945-6.755 5.199-.047 10.436.095 15.607-.047 5.171-.143 6.423-1.537 5.256-6.395-4.212-17.628-8.709-35.19-13.121-52.771-.949-3.71-3.52-4.402-6.784-4.402-9.488 0-18.919.161-28.368-.133-1.822-.057-5.276 1.082-4.659-3.122 5.199-9.392 10.522-18.624 17.96-26.565 7.723-8.236 17.429-10.921 28.141-11.499 2.846-.152 5.816 0 6.528-3.938.322-1.764.18-2.846-1.898-2.599-3.795.493-4.867-1.661-5.266-4.972-.436-3.643.551-7.856-4.838-9.488-2.107-.654-.598-4.013-.399-6.1.294-3.131 1.31-6.376-4.032-4.232-2.685 1.082-4.45-.398-5.38-3.074-2.258-6.489.949-11.252 7.828-12.334 3.662-.56 6.271-3.501 9.089-5.768 5.218-4.194 5.18-4.241 8.956 1.347a312.076 312.076 0 0 0 3.691-2.847c2.211-1.783 4.744-2.998 7.391-1.556 2.647 1.443 4.744 4.185 4.184 7.401a50.126 50.126 0 0 0 .759 21.11 2.69 2.69 0 0 1-.143 2.084 2.686 2.686 0 0 1-1.593 1.351c-1.034 1.508.787 3.852-1.471 5-1.565-.228-1.252-3.52-3.387-2.382-1.622.854-1.043 2.79-.835 4.336.57 4.175-1.461 7.116-4.838 8.966a9.852 9.852 0 0 0-5.181 5.693c-.882 2.656-3.188 4.203-5.692 5.398 6.29 7.847 22.229 6.499 29.687-2.286.028-.968-.532-2.012.408-2.847Z" fill="#126F43"/><path d="M431.547 511.46a20.725 20.725 0 0 0-.405-15.533c-.983-.512-2.005-.642-3.068-.604-.772.028-1.525.141-2.301.258-.375.056-.755.113-1.144.161h-.002c-22.337 2.704-44.64 5.664-66.953 8.625l-2.567.34c-19.886 2.647-39.756 5.285-59.683 7.752-17.575 2.177-35.134 4.48-52.693 6.784a12270.487 12270.487 0 0 1-30.929 4.032c-10.545 1.359-20.514-.132-29.616-5.24l-5.168-2.896c-15.916-8.917-31.834-17.835-47.582-27.023-8.643-5.043-17.363-9.976-26.086-14.911-12.585-7.119-25.177-14.242-37.554-21.706l365.751 59.961Zm0 0c-.2-.384-.229-.844-.223-1.413l.005-.262c.018-.775.04-1.756-.558-2.591l-.182-.254-.308.052c-2.36.397-4.329 1.501-6.146 2.756a68.95 68.95 0 0 0-2.051 1.492l-.609.453c-.874.648-1.742 1.271-2.641 1.816a226.095 226.095 0 0 1-43.405 20.306l-.002.001c-14.977 5.222-30.397 8.272-46.117 10.727a323.772 323.772 0 0 1-118.696-4.197h-.003a296.069 296.069 0 0 1-42.32-12.56h-.001a305.46 305.46 0 0 1-50.201-24.428 251.352 251.352 0 0 1-34.39-25.385l-.002-.002c-6.028-5.24-10.664-11.765-15.322-18.32a672.226 672.226 0 0 0-2.2-3.084 925.076 925.076 0 0 1-2.73-3.849c-.612-.865-1.224-1.731-1.84-2.598.686-.283 1.292-.211 1.882.02.378.147.75.361 1.137.606.142.089.292.188.445.289.242.159.492.323.727.464l365.751 59.961Z" fill="#2ECC82" fill-opacity=".22" stroke="#000"/><path d="M433.694 420.473c-3.263 2.846-7.466 2.211-11.252 2.742-18.976 2.666-38.046 5.076-57.078 7.514-18.103 2.325-36.215 4.526-54.308 6.888-18.245 2.382-36.471 4.944-54.716 7.315-18.245 2.372-36.537 4.564-54.801 6.927-15.769 2.03-31.575 3.795-47.249 6.394-14.317 2.382-27.344.456-39.934-7.106-17.97-10.778-36.376-20.873-54.62-31.129a27.66 27.66 0 0 0-4.403-1.604c2.258-3.662 6.252-2.343 9.326-2.742 24.194-3.112 48.388-6.47 72.544-9.487 18.425-2.315 36.774-5.19 55.266-6.993 2.04-.199 4.004-.892 5.996-1.281 1.955 0 2.78-1.015 2.543-2.931-.456-3.663 1.423-5.778 4.639-7.021 8.131-2.069 16.49-2.61 24.763-3.691 30.968-4.042 61.908-8.292 92.914-12.002 5.797-.693 11.575-1.509 17.372-2.173 10.436-1.195 20.028 1.841 28.861 7.23 19.811 12.078 40.475 22.657 60.418 34.497 1.623.949 3.34.664 4.953 1.205 1.461 2.78.911 5.247-1.234 7.448Z" fill="#126F43"/><path d="M430.962 495.398c-6.366 1.812-12.979 1.897-19.478 2.846-15.057 2.125-30.143 3.966-45.219 5.92a17004.515 17004.515 0 0 1-35.437 4.554c-10.73 1.376-21.47 2.695-32.191 4.071a5838.428 5838.428 0 0 0-34.052 4.478c-13.833 1.831-27.638 3.795-41.49 5.465-11.319 1.328-22.619 3.472-33.994-.569-6.367-2.268-11.699-6.12-17.429-9.336-21.338-11.983-42.562-24.166-63.805-36.31a16746.686 16746.686 0 0 1-46.073-26.433 2.432 2.432 0 0 0-.949-.142 39312.412 39312.412 0 0 0-47.96-27.41c-2.77-1.575-4.156-3.719-4.051-6.888.085-2.496.104-5 .151-7.505 14.64 9.488 30.058 17.609 45.162 26.271a17578.063 17578.063 0 0 0 64.441 36.765c21.518 12.154 42.856 24.669 64.45 36.671 9.763 5.427 20.474 5.759 31.253 4.279 11.024-1.519 22.068-2.847 33.093-4.346 11.025-1.499 22.087-2.903 33.121-4.317 11.035-1.413 22.135-2.846 33.208-4.25 13.539-1.756 27.087-3.387 40.598-5.37 10.436-1.528 20.873-2.59 31.309-3.976 11.974-1.594 23.995-2.846 35.921-4.744a15.155 15.155 0 0 1 2.362.086l7.068-1.015a11.451 11.451 0 0 1-.009 11.205Z" fill="#055B32"/><path d="M37.24 392.968c-9.488 1.404-19.317 4.744-27.514-3.795-2.126-3.321-2.562-6.983-2.562-10.854.038-70.247.038-140.494 0-210.742a29.58 29.58 0 0 1 1.243-9.819c2.562-7.353 7.59-11.841 15.398-12.894 4.07-.541 8.14-1.044 12.211-1.547 2.657-.332 5.36-.73 7.837.835 1.793 2.619 1.67 5.304.266 8.036-2.619 2.182-5.873 2.04-8.985 2.439-10.114 1.29-13.549 4.962-13.558 15.18-.057 67.477-.057 134.96 0 202.449 0 9.488 2.457 11.68 11.916 11.462a6.731 6.731 0 0 1 3.71.483c1.879 2.942 2.021 5.864.038 8.767Z" fill="#126F43"/><path d="M43.691 144.399c-7.438-.199-14.696 1.423-22.03 2.239-6.765.749-12.42 8.615-12.856 16.708-.057 1.1 0 2.21 0 3.311 0 71.209-.044 142.411-.133 213.607 0 3.121 2.021 5.806 1.1 8.918-7.38-4.392-9.81-10.673-9.772-19.393.314-70.474.219-140.949.114-211.424 0-6.433 1.642-11.784 6.642-15.902 5.948-3.415 12.713-3.292 19.184-4.307 5.901-.949 11.869-1.442 17.799-2.135 2.05 2.818 2.135 5.607-.048 8.378Z" fill="#17B369"/><path d="M430.962 495.398a52.725 52.725 0 0 0 0-11.205c.55-13.691 1.072-27.382 1.651-41.063.322-7.59.73-15.105 1.1-22.657.389-2.429 1.224-4.82.731-7.343-1.48-2.315-1.556-4.564.36-6.689 1.054-10.674 2.078-21.357 3.169-32.021 1.329-13.037 2.714-26.073 4.071-39.099 1.764-2.391 2.002-5.162 2.125-7.999.114-2.457.598-5.066 3.491-5.455 9.289-1.262 18.625-2.514 27.752 1.034-2.22 1.898-4.744 1.234-7.249.902a62.282 62.282 0 0 0-16.053-.067c-3.558.437-5.114 2.372-5.56 5.883-2.163 17.077-3.899 34.155-5.692 51.281-2.031 19.146-3.255 38.359-4.602 57.552-1.556 22.23-1.157 44.507-1.129 66.766 0 3.7 1.727 4.876 5.228 4.99 10.123.332 10.009.418 11.784-9.488 7.248-40.427 14.411-80.873 25.256-120.494.16-.774.385-1.532.674-2.267 2.438-5.124 3.501-10.437 2.03-16.016.256-1.138.541-2.267 2.04-2.296 3.245 2.571 3.795 6.537 4.744 10.086 8.842 34.431 17.419 68.928 24.326 103.824 1.812 9.137 3.795 18.254 4.602 27.562.351 4.136 2.96 5.18 6.508 5.228 4.744.047 6.794-1.196 7.391-4.868a84.02 84.02 0 0 0 1.015-11.309c.181-7.742.949-15.446 1.338-23.169.826-15.778.883-31.566.826-47.353-.105-28.018-1.718-55.883-8.9-83.141-.436-1.661-.949-3.369-.142-5.086l2.751-1.005c1.386 1.252 1.547 3.045 2.031 4.686 2.846 9.678 4.459 19.593 5.92 29.545.4 1.856.282 3.786-.341 5.579 2.618 30.01 2.409 60.086 1.745 90.134a43.168 43.168 0 0 0 .418 12.201c.635 3.017.948 6.3-1.044 9.155-1.072 1.566-.199 3.435-.816 5.067-.446 5.901-.825 11.803-1.395 17.695-.161 1.66.427 4.013-2.391 4.316-.825.551-1.28 1.585-2.362 1.803-2.675.607-5.408.237-8.112.399a5.512 5.512 0 0 1-2.846-.389c-4.431-1.367-4.792-4.744-5.114-8.767-.418-5.361-1.736-10.645-2.676-15.968-2.277-3.302-1.897-7.372-3.245-10.958-1.992-11.775-4.601-23.426-7.296-35.048-4.743-20.873-9.914-41.661-15.341-63.198-5.2 15.655-8.245 31.025-11.68 46.3-3.643 18.093-7.334 36.177-10.768 54.318-.854 3.311-1.11 6.736-1.746 10.095-.342 1.84-.617 3.709-2.211 5-1.129 6.072-2.343 12.125-3.349 18.216-.332 1.993-.787 3.349-3.169 2.846-3.795.788-7.799-.398-11.499 1.205-2.742 2.23-.085 6.367-2.998 8.539-2.135-1.024-.788-2.941-1.11-4.421-.37-1.708.655-3.605-.664-5.199l-2.771-1.12c-.284-5.699-.553-11.382-.806-17.049Z" fill="#13AE65" fill-opacity=".26"/><path d="M423.874 485.208c-6.044 2.609-12.609 2.457-18.976 3.283a45111.64 45111.64 0 0 1-166.794 21.413c-9.715 1.243-19.412 2.657-29.137 3.795a46.143 46.143 0 0 1-28.691-6.138 126623.201 126623.201 0 0 0-155.048-88.416c-3.976-2.268-7.923-4.602-11.945-6.775a9.842 9.842 0 0 1-4.298-4.184c-.427-4.743 2.068-7.163 6.556-7.4 3.387-.18 6.726-1.566 10.17-.769.133 1.993-1.3 1.642-2.276 1.794-2.496.379-5.02.597-7.505 1.024-1.993.342-4.336.503-4.744 3.084-.408 2.58 1.385 3.548 3.273 4.62 9.06 5.133 18.027 10.37 27.097 15.522 44.27 25.238 88.748 50.105 132.696 75.902 14.62 8.539 29.203 10.921 45.73 8.539 40.798-5.806 81.709-10.74 122.582-16.025l76.576-9.886c1.593-.247 3.368-1.195 4.734.617Z" fill="#0B101E"/><path d="M37.24 392.968c.458-2.769.48-5.592.066-8.368-1.556-1.641-1.594-3.719-1.604-5.778 0-24.668-.095-49.26 0-73.891.048-7.021 1.974-9.392 8.34-11.385 7.59-1.224 15.304-2.163 22.96-3.216 2.372-.237 4.801.133 7.116-.712a14.975 14.975 0 0 1 2.42-.37c13.282-1.679 26.432-3.71 39.687-5.256 2.182-.247 4.364-.807 6.375.636a2.037 2.037 0 0 1 0 2.409c-6.565 3.169-13.795 2.98-20.778 3.89-18.16 2.382-36.3 4.849-54.478 7.078-4.801.589-5.816 1.898-5.826 6.945a22571.66 22571.66 0 0 0 0 101.386c0 7.401 2.666 9.602 10.114 8.653 34.156-4.336 68.255-8.88 102.382-13.359 11.575-1.518 23.179-2.893 34.754-4.516 3.33-.465 7.116-.057 9.345-3.539 1.224-2.04.873-4.298.873-6.48 0-30.731 0-61.452.067-92.183 0-2.258-1.053-5.199 2.305-6.356 1.585 1.688 1.243 3.795 1.253 5.834 0 24.128.502 48.265-.228 72.354-.285 9.203 1.357 18.444-.55 27.628-.38 1.812-.693 3.33-2.287 4.355-10.066 2.846-20.512 3.264-30.797 4.659-32.98 4.478-65.987 8.69-98.976 13.017-4.82.626-9.64 1.328-14.46 1.992-1.565.114-3.15.199-4.743.361-8.843.901-12.894-2.695-13.056-11.623-.056-4.706-.17-9.44-.275-14.165Z" fill="#181818"/><path d="M521.921 123.915c-15.18 11.859-31.936 15.579-50.067 8.368-31.404-12.486-40.93-50.57-19.545-76.803a84.395 84.395 0 0 0 2.334-2.922c9.896-9.033 21.253-14.47 34.925-14.46a48.794 48.794 0 0 1 48.186 57.68 48.805 48.805 0 0 1-12.92 25.053c-.977 1.015-1.936 2.059-2.913 3.084Z" fill="url(#a)"/><path d="M457.271 492.381a3260.88 3260.88 0 0 1 2.847-14.868c3.235 1.281 6.537.636 9.782.171 10.436-1.48 20.93-2.552 31.357-4.07 2.229-.323 4.392-.484 6.347.949a42.694 42.694 0 0 1 2.002 11.328L468.05 491.1c-3.625.427-7.202.844-10.779 1.281Z" fill="#055B32"/><path d="M434.481 513.529c2.847 2.694-.408 6.641 1.993 9.431 1.755-1.509 3.159-.048 4.744.483 3.548 1.196 4.288-1.242 4.914-3.871.627-2.628.665-4.743-2.903-4.867-1.66-.057-3.501.256-4.744-1.338a18.592 18.592 0 0 1 12.334.057c-1.186 3.966-1.897 7.467.541 11.727 3.33 5.693 2.77 12.543 2.135 18.976-.247 2.495-2.306 3.662-4.744 3.795a545.66 545.66 0 0 1-42.192.455c-4.526-.123-6.271-3.672-4.165-7.704a17.897 17.897 0 0 1 6.404-6.727c7.429-4.744 14.82-9.611 23.776-11.034 1.613-.256 1.623-1.195 1.661-2.296.18-2.353.18-4.696.246-7.087Z" fill="#111011"/><path d="m528.505 509.705 2.163-.949a12.539 12.539 0 0 0 2.467 10.38c4.743 6.48 6.252 14.374 7.59 22.135.645 3.643-1.262 6.214-5.095 6.528-4.391.396-8.801.532-13.207.407-5.845-.218-9.175-3.927-8.036-9.639 1.281-6.433 1.091-12.837 1.034-19.279 0-3.055 3.672-5.294 1.897-8.719l1.803-.883c1.651 1.167 1.129 3.89 3.539 4.611 4.336 1.338 4.573-2.172 5.845-4.592Z" fill="#141414"/><path d="m534.454 486.783 1.452-26.424c.076 2.04 0 4.09.284 6.111.143 1.233-1.1 3.159.949 3.576 1.537.314 2.97-.626 4.137-1.897.692-.759.161-2.334 2.372-2.552 0 4.089.161 8.112-.057 12.116-.124 2.248-1.898 4.25-3.909 4.117-3.966-.256-4.564 2.182-5.228 4.953Z" fill="#055B32"/><path d="M553.08 290.387c-5.399 11.84-6.775 12.191-20.399 5.066.152 1.566.294 3.084.436 4.602-4.667-2.182-2.998-4.943-.702-7.752 2.505-.531 4.061 1.319 5.902 2.382 5.892 3.387 8.596 2.334 10.958-4.118 1.243-3.378 1.072-7.116 2.789-10.342l1.898-1.983c.949 4.137-.171 8.131-.882 12.145Z" fill="#181B20"/><path d="M67.656 291.525a216.352 216.352 0 0 1-22.77 2.932c-1.357.617-2.078.076-2.363-1.281a19.852 19.852 0 0 1-.218-4.241V160.234c0-2.79-.513-5.693 1.49-8.188l-.114-7.647.085-8.378c0-17.375.022-34.747.066-52.116 0-6.452 0-6.13 6.348-6.85 12.618-1.442 25.18-3.292 37.77-4.953 11.338-1.499 22.686-2.95 34.033-4.44 13.207-1.746 26.404-3.548 39.611-5.256 11.196-1.461 22.401-2.79 33.587-4.25 12.334-1.604 24.554-3.321 36.831-4.963a9992.679 9992.679 0 0 1 34.004-4.497c10.437-1.357 20.873-2.638 31.253-4.013 8.539-1.13 17.078-2.334 25.617-3.549 3.633-.512 3.652 1.727 3.652 4.336v54.488c1.585 1.898 1.262 4.184 1.272 6.404 0 1.13 0 2.249.076 3.378.057 2.325 0 4.64 0 6.964.164 1.576.215 3.161.152 4.744v217.345c0 3.264.607 6.689-1.547 9.621-1.898 1.992-4.44 2.134-6.945 2.438-33.767 4.07-67.467 8.624-101.177 13.093-4.089 0-8.065.949-12.078 1.461-3.188.427-4.744-.493-4.526-3.975.19-2.96 0-5.94 0-8.919 0-4.895.645-5.626 5.484-6.252a17.554 17.554 0 0 0 4.156-.636c5.142-.522 10.266-1.224 15.36-2.173 2.496-.464 3.482-1.764 3.473-4.174 0-3.15-.095-6.3 0-9.44.142-3.511-1.262-4.82-4.829-4.279-5.598.835-11.224 1.47-16.841 2.144-2.23.265-4.63 1.309-6.755-.494 0-12.115-1.964-9.44 10.123-11.318 18.349-2.847 36.822-4.849 55.238-7.306 10.768-1.442 21.527-2.97 32.334-4.127 5.19-.56 6.176-1.461 6.025-6.822-.351-11.973-.257-23.956-.276-35.93a46768.58 46768.58 0 0 1-.047-160.238c0-1.585-.085-3.17 0-4.744.19-3.198-1.433-4.346-4.364-3.871-14.934 2.41-29.963 4.099-44.972 5.901-15.949 1.898-31.841 4.26-47.752 6.395-15.617 2.087-31.234 4.061-46.86 6.053-15.731 1.993-31.404 4.535-47.249 6.234-13.15 1.423-26.234 3.377-39.384 4.857-5.616.636-5.645.949-5.692 6.49-.18 51.234 0 102.411-.133 153.606.029 3.074 1.376 6.386-1.148 9.137Z" fill="#FEFEFE"/><path d="M218.37 362.645c11.186-1.556 22.353-3.197 33.548-4.63 23.312-2.988 46.633-5.863 69.944-8.814 1.233-.152 2.448-.541 3.672-.816 2.334-2.267 5.417-2.315 8.349-2.846 8.046-1.471 11.063-4.668 11.025-12.752-.076-13.89.341-27.761-.408-41.66-.522-9.716.379-19.517.417-29.27.152-44.203.067-88.416.067-132.62v-3.795c-.361-6.451-3.236-9.004-9.668-8.899-2.847 0-5.93 1.736-8.663-.607l.18-6.765c1.699-2.913 4.868-2.277 7.287-2.429 5.228-.313 10.437-2.742 15.778-.19 5.133 2.458 7.828 6.537 7.865 11.955.114 16.433.323 32.865-.104 49.336.067 1.736.18 3.473.19 5.209v163.559c0 10.436-5.939 16.442-16.357 17.628-13.548 1.537-27.04 3.672-40.569 5.408-13.53 1.736-27.097 3.235-40.627 4.953-13.53 1.717-27.031 3.728-40.579 5.322-4.82.57-9.621 1.708-14.545 1.319-2.059.949-3.007-.171-3.264-1.992a3.12 3.12 0 0 1 2.325-3.615c3.586-1.319 7.448-.949 11.091-1.955 1.006-.313 2.135-.322 3.046-1.034Z" fill="#126F43"/><path d="M409.045 246.022c0 3.131 2.429 1.831 3.796 1.841 10.113.123 20.227.218 30.36 0 4.213-.095 6.262 1.347 7.258 5.531 4.298 17.951 8.89 35.835 13.283 53.767 1.385 5.617.076 7.192-5.759 7.23-6.319 0-12.647.237-18.975-.076-3.558-.171-4.848.901-4.535 4.43a23.831 23.831 0 0 1-.627 5.124c-.73-9.564-.73-9.564-10.835-9.564-7.827 0-7.742 0-9.307-7.505-.626-2.988-1.29-6.138-4.611-7.59 2.562-2.049 5.901-1.983 8.776-3.197 4.279-1.803 8.321-3.795 10.892-7.932a9.897 9.897 0 0 0 1.717-6.736c-.579-4.146-3.349-5.693-7.135-3.795a98.1 98.1 0 0 1-9.791 4.744c-3.017 1.1-4.81.17-6.575-2.647-3.178-5.105-4.042-10.835-5.455-16.443-.219-2.931-.067-5.844-.807-8.795-.949-3.691.162-6.641 4.801-6.442 1.689.038 2.457-1.139 3.529-1.945Z" fill="#CBCCCC"/><path d="M202.469 377.892c0 2.685.075 5.38-.162 8.046-.265 2.998 1.319 3.472 3.71 3.178-3.473.949-4.213 3.34-3.795 6.594.218 1.765.55 4.07-2.657 3.036 1.983-2.144 2.135-4.744 2.135-7.514-.044-31.822-.079-63.644-.104-95.466 0-2.362-.228-4.744-.342-7.068a4.348 4.348 0 0 1-.095-5.693c1.717-.294 1.898 1.053 2.258 2.144.579 6.11.275 12.24.218 18.359.19 11.385.2 11.385 11.5 9.735 5.607-.835 11.243-1.556 16.878-2.23 3.492-.418 4.915-2.135 4.896-5.598 0-7.59-.085-15.18 0-22.704.066-57.875.199-115.693-.104-173.54 0-4.972-.589-5.408-5.636-4.744-39.498 5.057-78.957 10.436-118.445 15.455-11.442 1.462-22.77 3.359-34.298 4.517-6.082.607-6.48 1.214-6.547 7.41.09 3.003.005 6.01-.256 9.003a12.355 12.355 0 0 1-.389 1.756 15.696 15.696 0 0 0-.436 4.743c0 45.807-.057 91.614 0 137.402-.124 2.742.284 5.199 3.463 6.091-2.106 1.186-4.421.617-6.642.797v-8.473c0-51.67-.031-103.34-.095-155.01 0-4.089.56-6.253 5.352-6.755 13.757-1.433 27.448-3.454 41.167-5.238 17.78-2.308 35.563-4.614 53.349-6.916 16.054-2.097 32.107-4.26 48.16-6.386 18.704-2.479 37.404-4.955 56.101-7.428 9.82-1.3 19.659-2.496 29.469-3.9 4.232-.607 5.693.579 5.693 5.152-.152 55.775-.177 111.554-.076 167.335 0 11.566.265 23.122.417 34.678.076 5.645-.949 6.489-6.641 7.192-16.224 1.992-32.429 4.203-48.644 6.328-14.81 1.897-29.602 4.184-44.469 5.636-4.668.455-5.512 2.22-5.057 6.062.133 1.091.067 2.211.095 3.311 2.144 3.634.949 7.591 1.082 11.386.218 5.768.076 5.778 5.91 6.821a3.61 3.61 0 0 1 2.42 1.234 3.075 3.075 0 0 1-.778.512c-2.78.854-7.325-.579-8.15 2.23-1.224 4.222-.588 9.032-.436 13.577.075 2.229 1.954 1.385 3.282 1.243 4.203-.475 8.321-1.689 12.6-1.499-2.106 3.026-5.569 2.106-8.444 2.761a46.7 46.7 0 0 0-4.991.948c-1.243.437-2.467.854-2.523 2.344-.067 1.764 1.148 2.4 2.713 2.542-3.387 1.158-2.979 3.9-2.656 6.604Z" fill="#181818"/><path d="M423.361 395.871c-9.108-3.984-17.305-9.63-26.024-14.326-6.518-3.511-13.056-7.068-19.242-11.12-13.178-8.634-27.135-11.186-42.856-8.918-39.213 5.692-78.558 10.436-117.847 15.503-1.243-.389-2.761.55-4.317-1.091 4.934-1.898 9.811-1.898 14.497-2.477 38.635-5.06 77.278-10.019 115.931-14.876a43.465 43.465 0 0 1 26.964 5.256c16.813 9.326 33.464 18.975 50.115 28.577 1.214.692 3.804.787 2.779 3.472Z" fill="#0E1119"/><path d="M190.789 9.588c-40.797-5.285-78.16 3.69-112.382 26.423C88.113 17.216 169.081-1.874 190.79 9.588Z" fill="#101525"/><path d="M401.521 263.157c2.144.493 1.822 2.438 1.974 3.795.559 5.104 3.795 9.127 5.303 13.843.636 1.973 1.898.948 3.017.607a49.29 49.29 0 0 0 10.683-4.905c4.915-2.904 8.596-1.054 9.279 4.639a11.382 11.382 0 0 1-3.908 10.171 30.276 30.276 0 0 1-18.777 7.856c-5.692-1.708-7.732-6.253-8.539-11.556a19.474 19.474 0 0 0-1.214-5.351c1.224-3.482-1.167-6.642-.949-10.038l3.131-9.061Z" fill="#0E121D"/><path d="M211.33 23.715c-30.19-7.439-60-5.854-89.488 3.795 10.057-11.1 74.327-13.909 89.488-3.795Z" fill="#0E1323"/><path d="M357.612 167.815c-1.547-1.395-.949-3.236-.949-4.887v-42.524c0-9.971-5.446-14.582-15.408-13.188-4.82.674-9.649 1.31-14.469 1.964v-2.723c7.059-2.353 14.232-3.946 21.623-1.897 7.723 3.074 10.683 8.805 10.436 17.078-.341 13.814-.085 27.638-.123 41.461.009 1.594.664 3.463-1.11 4.716Z" fill="#0F1626"/><path d="m348.37 104.569-21.632 1.898c-.057-2.163-.114-4.336-.18-6.5 2.95-.331 5.901-.768 8.861-.948 5.256-.427 9.279 2.192 12.951 5.55Z" fill="#17B369"/><path d="M478.392 189.048c1.717-1.186-.313-3.643 1.622-4.744 0 6.034 1.49 11.879 2.249 17.818.474 3.748 3.539 3.919 6.461 4.099.313.882.636 1.755.949 2.637-3.587 2.183-6.907.408-8.539-2.172-3.378-5.285-4.716-11.319-2.742-17.638Z" fill="#181A24"/><path d="M398.428 272.256c1.442 3.244 4.621 6.328.949 10.038a9.997 9.997 0 0 1-.949-10.038Z" fill="#343940"/><path d="M47.315 56.874c-.095 1.205-.806 1.518-1.31 1.3a5.589 5.589 0 0 1-3.13-3.216c-.161-.465.104-1.414.949-1.158 1.755.522 2.647 1.964 3.491 3.074Z" fill="#384053"/><path d="M503.135 206.989c-4.507 0-9.061.949-13.473-.749 4.526-.171 9.042-.569 13.473.749Z" fill="#181A24"/><path d="M55.91 54.75c-.796 1.318-1.726 2.722-3.377 3.273-.72.246-1.157-.56-.949-1.139a6.755 6.755 0 0 1 3.103-3.254c.465-.266 1.167.237 1.224 1.12Z" fill="#222B3F"/><path d="M52.894 62.463c1.262.892 2.552 1.783 3.017 3.32.256.816-.73 1.148-1.148.95a5.901 5.901 0 0 1-3.093-3.217c-.237-.721.626-.883 1.224-1.053Z" fill="#1C2438"/><path d="M44.176 66.988c-.74-.085-1.423-.35-1.157-1.12a6.11 6.11 0 0 1 3.14-3.282c.417-.209 1.376.474 1.129 1.12a7.438 7.438 0 0 1-3.112 3.282Z" fill="#232B3B"/><path d="M431.217 146.894c-1.689-2.96-1.594-4.601-.332-7.021 1.451 2.334 1.081 4.023.332 7.021Zm8.179-10.323c-1.556 1.689-3.188 1.604-5.228.684 1.736-2.448 3.605-.759 5.228-.684Zm-18.159.513c2.609-1.442 4.222-1.433 6.329-.437-1.869 1.841-3.587 1.537-6.329.437Zm9.25-9.754a5.989 5.989 0 0 1 .683 6.281c-2.077-1.783-1.641-3.52-.683-6.281Z" fill="#CBCCCC"/><path d="M481.133 361.659c2.619 5.873 0 11.081-1.641 16.622-9.621 33.112-15.731 67.002-22.078 100.836a1190.257 1190.257 0 0 0-5.095 28.909c-.456 2.723-1.717 3.463-4.402 3.577-14.156.626-14.156.702-14.355-13.103-.598-41.29 2.248-82.401 6.565-123.426 1.604-15.237 3.492-30.436 4.934-45.674.427-4.535 2.011-6.641 6.708-7.134 7.95-.949 15.759.218 23.624.635l12.334 2.79a80.427 80.427 0 0 1 17.173 4.8 24.514 24.514 0 0 0 16.129.57 2.84 2.84 0 0 1 2.685.322c6.006 19.602 8.482 39.754 9.564 60.143 1.897 36.376.616 72.667-2.201 108.929-.171 2.153.778 5.436-1.898 6.233a22.258 22.258 0 0 1-13.53-.133c-1.129-.379-.948-1.897-1.062-2.96-5.38-41.746-16.604-82.287-26.414-123.103a165.52 165.52 0 0 0-6.129-20.702c-1.898-1.348-3.473-3.245-6.034-3.644a7.05 7.05 0 0 1 3.357 2.017 7.052 7.052 0 0 1 1.766 3.496Z" fill="#FEFEFE" fill-opacity=".09"/><path d="m480.653 361.809-.011-.058a6.567 6.567 0 0 0-4.761-5.122l.206-.977c1.39.216 2.499.839 3.483 1.556.467.34.913.707 1.345 1.062l.063.052c.456.374.897.735 1.355 1.06l.127.089.053.146a165.91 165.91 0 0 1 6.147 20.761c1.904 7.924 3.863 15.84 5.822 23.758 8.126 32.845 16.263 65.731 20.601 99.395l.001.011c.023.215.035.452.047.677l.01.205c.017.295.039.567.087.811.096.487.267.74.578.846a21.765 21.765 0 0 0 13.226.129l.004-.001c.561-.167.901-.451 1.123-.798.231-.36.355-.825.411-1.38.055-.556.038-1.161.015-1.787l-.005-.129c-.022-.572-.044-1.166-.002-1.699v-.001l.499.04c2.817-36.262 4.098-72.553 2.201-108.929l-52.625-29.717Zm0 0 .023.053c1.256 2.817 1.262 5.476.743 8.137-.35 1.793-.926 3.544-1.519 5.348-.301.913-.606 1.84-.888 2.792v.003c-9.017 31.034-14.953 62.75-20.882 94.433-.402 2.15-.804 4.3-1.208 6.449a1192.01 1192.01 0 0 0-5.096 28.92c-.218 1.301-.611 2.021-1.175 2.451-.581.443-1.437.652-2.756.708h-.001l-.202.009c-3.449.153-6.009.266-7.932.15-1.968-.119-3.154-.475-3.919-1.169-.761-.691-1.202-1.805-1.447-3.698-.245-1.889-.282-4.438-.332-7.902-.598-41.264 2.247-82.353 6.562-123.366.626-5.948 1.296-11.895 1.966-17.843 1.045-9.275 2.09-18.553 2.968-27.837.211-2.232.699-3.761 1.628-4.796.92-1.025 2.348-1.648 4.635-1.888l.007-.001c5.817-.694 11.537-.247 17.317.205 2.05.16 4.107.321 6.179.431l5.329 38.411Z" stroke="#000" stroke-opacity=".8"/><path d="M552.062 280.225c.446 4.516-.949 8.672-2.562 12.761-1.897 5.048-4.667 6.253-9.487 3.966a76.858 76.858 0 0 1-7.59-4.649 202.675 202.675 0 0 1-28.464-33.928c-1.432-2.106-2.846-3.292-5.692-3.121-4.175.256-8.065-1.215-9.716-5.314-1.186-2.912-2.846-3.197-5.417-2.846-1.409.13-2.828.107-4.232-.066-.806-.057-1.641-.446-1.404-1.433a1.895 1.895 0 0 1 1.167-1.271c6.357-1.072 12.59-2.932 19.07-3.207a4.301 4.301 0 0 1 3.35 1.565c6.926 7.714 16.575 11.338 25.038 16.727 6.897 4.402 14.165 8.236 20.493 13.511 2.382 2.011 4.497 4.222 5.446 7.305Z" fill="#FDFDFD"/><path d="M478.391 189.048c.598 4.621.949 9.308 1.897 13.852 1.034 4.905 5.219 5.626 9.412 5.949-.949 2.457-3.795 5.076-7.789 6.727-9.554 3.937-18.378 2.751-27.221-4.516 5.769-1.035 9.488-3.549 9.488-9.365 0-.854 1.205-.787 1.898-1.072 6.641-2.647 7.267-3.577 6.84-10.379-.161-2.467-.189-5.247 2.847-5.693 3.244-.38 1.67 3.017 2.628 4.497Z" fill="#FCFCFB"/><path d="M464.073 176.676c.101.78.135 1.567.104 2.353-.303 2.277 1.499 5.152-1.783 6.641-3.539 1.575-7.22 2.192-10.788.484-1.897-.948-1.081-3.244-.721-4.592.665-3.055.895-6.188.683-9.307-.123-5.778 4.516-4.44 7.666-4.953 3.359-.56 5.484.664 4.744 4.744a25.749 25.749 0 0 0-.047 4.687l.142-.057Z" fill="#FBFAFB"/><path d="M523.771 331.383c-9.488 2.287-18.682.75-27.647-2.742-2.761-1.072-5.589-1.973-8.388-2.95 6.129-.114 11.86.151 17.429 3.975 4.052 2.78 9.687 2.429 14.611 1.053 1.727-.484 2.875-.939 3.995.664Z" fill="#0A0F27"/><path d="M469.519 176.904c-1.689-.076-2.913-.512-2.305-2.23.607-1.717.398-4.478 3.188-4.478 1.584 0 2.267 1.518 2.239 3.065-.076 2.172-1.148 3.491-3.122 3.643Z" fill="#E4E4E4"/><path d="M293.675 418.082c2.619-.882 5-1.594 7.306-2.495a4.125 4.125 0 0 0 2.77-4.013c.076-2.05-1.3-2.951-2.846-3.302-4.63-1.072-9.042-2.657-14.08-.37-5.038 2.286-11.015 2.647-16.708 2.931a1.33 1.33 0 0 1-.949-.74c-1.499-3.871-4.317-5.275-7.296-2.912-2.106 1.66-3.254 1.129-5.218.133-4.118-2.078-12.201-1.329-15.01 1.081 1.556 1.442 3.615.531 5.361 1.186 1.746.655 3.691.541 5.588.769-3.491 3.263-12.106 6.1-15.825 4.876 2.713-.616 4.013-2.096 3.102-4.383s-3.577-2.239-5.342-1.954a29.803 29.803 0 0 1-12.969-.589c-3.644-1.005-5.257-3.036-5.133-6.746.095-3.111.692-6.489-3.549-7.76-1.366-.408-.891-1.509 0-2.126a3.472 3.472 0 0 1 2.192-.749c9.488 1.281 18.027-3.672 27.306-3.558 1.404 0 3.273-.266 4.118.493 3.795 3.463 8.595 2.771 12.96 3.112 5.948.475 11.869.949 17.77 1.841 1.887.254 3.796.299 5.693.133 1.338-.095 3.264-.238 3.131-2.04-.095-1.234-1.822-1.48-3.093-1.661-5.569-.797-11.006-2.685-16.784-1.992-.996.123-2.068-.493-3.378-.844 7.145-3.359 16.632-5.693 19.631-4.915-.133 1.679-3.378.825-2.629 3.159.665 2.059 2.704 2.268 4.26 2.477a51.811 51.811 0 0 1 13.018 3.32c6.755 2.761 10.265.086 10.493-7.229 0-1.775-.104-4.023 1.964-4.327 5.769-.854 10.693-5.208 17.163-3.52 3.274.845 6.86-1.632 10.437-.227 3.577 1.404 7.087 3.482 11.243 2.704.768-.143 1.802.246 2.334-.143 5.133-3.719 8.026-.076 10.768 3.359 2.268 2.846 5.219 2.467 8.188 2.476 1.3 0 2.704.124 2.951 1.718.218 1.413-.949 1.774-2.078 2.087-1.271.37-2.467 1.015-2.562 2.41 0 .56.778 1.385 1.405 1.736 1.518.873 2.41-.389 3.055-1.385 1.594-2.467 4.155-2.628 5.645-.949 3.017 3.33 7.021 3.881 10.806 5.247 1.32.518 2.59 1.153 3.796 1.897 2.722 1.566 3.918 3.103.17 5.076-1.271.664-2.125 2.125-3.947 4.023 5.636-.512 10.314 1.29 14.706-1.423.402-.185.84-.276 1.281-.266 1.661 5.693 8.33 1.338 11.158 5.769 1.689 2.666 5.588 3.89 8.975 4.905 1.452.427 3.444 1.176 3.255 2.932-.19 1.755-2.382 1.802-3.72 2.552-1.337.749-3.482 1.309-4.279-.294-3.121-6.243-4.744-4.488-7.362.531-1.243 2.4-5.256 2.211-7.894 2.173-11.195-.181-21.888 3.795-32.903 3.852-7.297.066-14.365 3.795-21.737 1.138a1.265 1.265 0 0 0-.949.067c-7.001 3.994-13.605.74-20.284-1.12-.75-.209-1.822-.294-2.164-.806-3.434-5.276-8.339-4.222-13.036-2.847-7.362 2.088-13.966 1.262-20.275-4.478Zm-102.507 32.372c-8.834-1.3-16.433 4.649-25.238 3.492-4.023-.532-7.59 2.106-11.812 1.29-1.898-.36-4.175-.218-5.911-.854-2.846-1.043-5.161-3.055-7.59.807-.693 1.11-3.558 1.053-4.364-.067-3.264-4.516-8.312-3.036-12.534-4.136a44.288 44.288 0 0 1-10.436-4.336c-.902-.503-1.898-1.262-1.404-2.647.445-1.205 1.366-1.537 2.59-1.651a10.375 10.375 0 0 1 7.448 2.429c1.195.901 2.656 1.897 4.317.797a1.903 1.903 0 0 0 .891-2.05 3.632 3.632 0 0 0-3.273-2.979c-2.619-.285-4.554-2.23-7.011-2.742a9.142 9.142 0 0 0-9.412 3.046c-.484.578-1.101 1.309-1.974.768-.872-.541-.692-1.205-.408-2.059 1.12-3.33-1.167-2.979-2.789-2.106-2.846 1.518-4.146.171-6.442-1.461a44.135 44.135 0 0 0-13.663-6.698c-4.857-1.319-7.931-3.89-10.664-8.236a11.769 11.769 0 0 1 8.283 3.093c3.672 3.074 8.539 3.682 12.998 5.275 1.49.541 2.553.257 3.008-1.223.455-1.481.19-2.999-1.442-3.558-1.632-.56-3.7-.646-6.452-2.742 5.693.379 9.924-2.676 14.81.436 5.076 3.226 6.12 2.429 9.687-2.334 1.898-2.59 5.143-1.793 7.591-.379 1.508.863 2.732 2.077 4.649 1.897 1.091-.114 2.438.114 2.846-1.119.408-1.234-1.148-1.3-1.528-1.993-1.897-3.406 1.452-4.393 3.217-5.095 2.542-1.015 5.522-.948 8.33-1.262 1.385-.132 3.159-.208 3.52 1.566.389 1.992-1.594 1.897-2.846 2.486-.702.313-1.338.759-2.79 1.603 3.947 1.67 8.776 2.173 7.287 8.198 2.846-3.796 5.436-6.813 10.436-4.64 1.3.56 2.325-.75 2.486-2.173.216-1.254.242-2.533.076-3.795-.949-5.332 2.343-5.759 6.385-7.362 6.471-2.571 12.998-1.348 19.403-2.41 1.043-.171 2.476-.266 3.197.285 2.6 2.001 4.744 3.994 6.746-.741.588-1.385 2.656-.721 3.691.408 2.258 2.486 3.795 1.376 5.104-.891 1.831-3.093 3.216-1.822 4.194.54 1.375 3.331 3.216 4.953 7.305 5.238 5 .351 9.649 3.349 15.124 1.964a5.684 5.684 0 0 1 5.246 2.22c-5.095 3.311-10.436 2.286-15.987 1.423-3.709-.579-7.941-.56-10.569 3.359a3.041 3.041 0 0 1-2.457 1.204c-5.997.57-11.879 2.363-18.027.608a10.148 10.148 0 0 0-7.676 1.442c-4.838 2.95-9.81 2.552-14.743.683-5.285-2.002-9.128.142-12.761 3.624-2.135 2.059-2.202 4.099-.19 6.167 2.011 2.069 3.795 4.83 6.983 2.239 2.296-1.897 4.506-.484 6.755-.512.304 0 .749 0 .949.199 2.903 3.795 3.112 4.478 6.641 3.406 5.095-1.546 10.532 1.85 15.408-1.404-1.243-2.4-4.079-.218-5.635-2.419 4.857-2.372 9.487-4.308 14.44-.56.949.74 2.343 1.632 3.406 1.499 6.205-.768 11.214 1.67 16.053 5.901h-2.96a8.336 8.336 0 0 1-2.846-.189c-3.293-1.329-5.75-.551-7.752 2.381-1.565 2.296-3.691 2.031-5.806.731-.949-.57-1.746-1.585-2.723-1.765-1.793-.323-4.042-.882-5.086 1.262-1.043 2.144.797 3.093 2.211 4.108l1.461 1.063.029 1.451Z" fill="#126F43"/><path d="M299.453 411.346c-4.27 2.068-140.181 20.436-144.214 19.753 2.439-2.058 137.136-20.702 144.214-19.753Z" fill="#181818"/><path d="M231.595 425.359c-1.101 3.909-3.795 7.306.655 10.199 3.093 2.031 6.992-.142 9.819 2.79-4.943-1.129-9.886 3.444-15.322-2.334-2.723-2.903-9.27-3.795-14.498-3.795-.284 0-.578.237-.882.322-2.751.721-5.323.494-7.457-1.575a1.514 1.514 0 0 1-.171-1.233c2.277-1.148 4.108-2.552 7.286-1.898 9.317 1.983 9.384 1.68 20.57-2.476Z" fill="#126F43"/><path d="m247.204 435.53 75.257-10.237c.104.711.199 1.413.294 2.125l-75.238 10.247-.313-2.135Z" fill="#181818"/><path d="M232.989 440.454c.623.144 1.23.347 1.813.607 1.233.693 4.098-.189 3.577 1.831-.456 1.784-3.16 4.004-5.105 2.79-2.97-1.898-5.247-1.243-7.837.133-.288.164-.618.24-.949.218-2.267-.171-4.743.949-6.726-.788-.475-.408-.788-1.897-.513-2.125 1.803-1.66 4.099-.503 6.177-.749 1.698-.209 3.482.104 5.152-.209a24.021 24.021 0 0 0 4.411-1.708Zm46.965-18.33c-5.835 2.154-11.309.949-16.66 1.072a1.212 1.212 0 0 1-1.082-1.328c0-.883.56-1.964 1.158-1.793 5.208 1.499 10.882-2.97 16.584 2.049Zm-7.865 5.958c-5.132 1.48-9.108 1.015-13.055.693a1.894 1.894 0 0 1-1.584-2.04c.104-1.565 1.499-2.087 2.647-2.22 4.023-.455 7.334 1.461 11.992 3.567ZM96.215 415.35c5.465-3.53 8.605 1.119 12.543 2.172-4.46 1.793-8.463 1.224-12.543-2.172Zm183.797 22.95c-5.019-1.261-9.117 5.266-15.246.949 5.512-.787 10-4.165 15.246-.949Zm48.141-5.996c-1.898 1.898-3.254 1.803-4.63.655a1.264 1.264 0 0 1 0-1.215c1.66-1.537 2.875-.218 4.63.56Z" fill="#126F43"/><path d="M43.805 152.046c0 46.806-.044 93.593-.133 140.362 0 1.195.142 1.745 1.195 2.049-6.366 1.746-7.267 2.903-7.267 9.554v75.902c0 1.575-.18 3.14-.275 4.744-1.072.237-2.126.541-3.207.711-9.64 1.528-13.947-2.163-13.947-11.935V169.276c0-10.124 3.463-14.336 13.368-16.006 3.34-.626 6.831-.844 10.266-1.224Z" fill="#181818"/><path fill-rule="evenodd" clip-rule="evenodd" d="M434.617 409.536c.055-1.03.11-2.064.167-3.095-.31-.718-.231-1.607-.155-2.469.117-1.326.229-2.589-1.088-3.072-1.435-.556-2.724-1.394-4.01-2.23-1.921-1.247-3.833-2.49-6.208-2.78-1.525-1.59-3.408-2.655-5.298-3.724-.309-.174-.618-.349-.926-.526-6.323-3.656-12.665-7.269-19.004-10.881a3357.826 3357.826 0 0 1-19.108-10.941l-.194-.112c-8.104-4.688-16.184-9.361-25.945-9.954-10.334-.639-20.454.873-30.571 2.386-4.466.667-8.931 1.334-13.414 1.817-8.14.882-16.255 2.007-24.377 3.133-5.237.725-10.476 1.451-15.728 2.113-5.753.726-11.504 1.467-17.256 2.208a4932.13 4932.13 0 0 1-22.924 2.916c-.94.118-1.919.151-2.909.184-2.917.099-5.93.201-8.325 2.482a2.846 2.846 0 0 1-3.406.683c-3.709-1.769-7.307-.861-10.899.046l-.609.153c-.921 1.754-.81 3.589-.699 5.425.058.966.116 1.932.025 2.886-.323 3.425 1.214 4.26 4.222 2.913.69-.682 1.546-.742 2.413-.803.23-.016.461-.032.689-.06a6972.476 6972.476 0 0 0 34.156-4.336c15.598-2.037 31.19-4.064 46.775-6.082 4.319-.564 8.643-1.094 12.967-1.624 9.555-1.17 19.111-2.34 28.608-3.888 13.226-2.163 25.712-1.167 37.287 6.015 10.673 6.613 21.646 12.709 32.62 18.806 10.107 5.615 20.213 11.229 30.084 17.247 1.708 1.027 2.008.291 2.309-.449.136-.333.272-.667.538-.841.066-1.173.129-2.358.193-3.546Zm58.601 66.721c4.779-.57 9.558-1.14 14.337-1.713a5.421 5.421 0 0 1-.778-1.642c-.748-9.294-2.995-18.288-5.242-27.281a749.578 749.578 0 0 1-1.533-6.21c-.412-1.933-1.851-2.841-3.312-3.763l-.35-.222c-3.833-2.465-7.852-4.616-11.876-6.768-3.674-1.967-7.353-3.935-10.894-6.145a2.067 2.067 0 0 0-2.6-.123 1035.113 1035.113 0 0 0-10.892 55.123c.19 1.68.569 3.046 2.846 2.628 2.913-.54 5.854-.948 8.795-1.309 7.167-.865 14.333-1.72 21.499-2.575Z" fill="url(#b)"/><path d="M438.439 513.367c.778.105 1.546.247 2.324.295 7.59.445 7.591.436 6.367 7.96-.608 3.558-4.004 4.876-6.708 2.476-1.215-1.091-2.59-.949-3.947-1.138 0-2.448.057-4.896 0-7.344-.104-1.509.408-2.287 1.964-2.249Z" fill="#F8F8F8"/><path d="M528.506 509.705v6.585c-4.63-.513-10.275.948-9.355-6.566l9.355-.019Z" fill="#E8E8E7"/><path d="M481.132 361.659c-1.708-2.562-3.89-4.374-7.097-4.744-.769-.076-1.575-.513-1.329-1.518.247-1.006 1.091-.816 1.898-.683 3.292.521 6.499 1.157 7.486 5.076l-.958 1.869Z" fill="#126F43"/><path d="M199.489 394.885c-1.044 2.039-2.789 2.694-5 2.979a52481.257 52481.257 0 0 0-116.803 15.123c-9.384 1.224-18.748 2.619-28.15 3.672-6.585.74-9.65-2.201-9.66-8.956 0-34.735 0-69.47-.103-104.204 0-4.45 1.707-6.205 5.91-6.718 15.807-1.945 31.595-4.022 47.382-6.119 9.829-1.309 19.649-2.742 29.469-4.118 6.641-2.846 13.833-2.723 20.778-3.795 13.662-2.116 27.515-3.245 41.12-5.436 5.503-.883 11.025-1.699 15.332 3.225a2.483 2.483 0 0 1 .807 2.42c-1.234 10.522-.655 21.082-.683 31.622-.086 25.058 0 50.115 0 75.162-.048 1.718.303 3.473-.399 5.143Z" fill="#15B067"/><path d="M238.123 283.024c0 8.017-.152 16.044.133 24.042.123 3.454-1.205 4.829-4.355 5.237a3077.156 3077.156 0 0 0-28.378 3.748c-2.106.285-3.311-.237-3.207-2.666.143-3.141.095-6.29.133-9.431 1.461-1.736 3.558-1.897 5.579-2.182 5.949-.731 11.85-1.898 17.856-2.068 3.397-.114 4.744-1.661 4.564-5.076a107.63 107.63 0 0 1 .056-11.765c-9.487.36-18.51 4.317-28.083 1.897l-1.053-1.755a2.63 2.63 0 0 1-.693-1.385c-.398-4.051 2.666-4.839 5.437-4.991 6.005-.322 11.84-1.764 17.789-2.372 5.693-.578 6.357-1.47 6.414-7.096.104-9.412.085-9.488-9.061-8.435-22.837 2.751-45.617 5.939-68.407 9.042-2.656.36-5.322.579-7.988.825-3.644.342-5.446-.948-4.697-4.744 1.272-3.159 4.118-3.614 6.955-3.965 25.56-3.112 51.034-6.908 76.613-9.906 6.158-.721 6.471-1.281 6.547-7.457.095-9.336.104-9.336-9.118-8.046-35.674 4.991-71.414 9.488-107.135 14.09-10.494 1.337-21.025 2.438-31.471 4.174-3.681.617-5.048 2.173-5.143 5.873-.265 10.968-.142 11.167 10.892 9.232a59.083 59.083 0 0 1 7.942-1.31c.521 0 1.053-.047 1.575-.056 3.14.047 6.157-1.158 9.316-.949a10.673 10.673 0 0 0 2.382-.294c7.723-1.708 15.598-2.372 23.416-3.359 2.457-.313 5.474-1.072 7.134 2.059.721 4.061-1.337 5.74-5.104 6.186-15.313 1.831-30.569 4.061-45.892 5.806-.778.086-1.566.133-2.344.256-9.24 1.509-9.64 1.13-9.288 9.906a5.638 5.638 0 0 1-1.357 4.392l-1.784.266c-2.191-.446-5.996.75-3.994-3.947-.626-1.357-.351-2.846-.351-4.193V145.822c0-1.395-.341-2.846.436-4.165 1.898-1.67 4.355-1.793 6.642-2.116 22.05-3.102 44.165-5.749 66.253-8.681 28.34-3.795 56.689-7.41 85.029-11.205 9.488-1.262 9.488-1.347 9.488 7.941v150.276c.019 1.708-.285 3.463.322 5.152Z" fill="#FAFCFC"/><path d="M140.438 264.001c-.056 2.249.105 3.795 3.293 3.387 12.391-1.698 24.82-3.102 37.23-4.677 13.662-1.746 27.286-3.795 40.987-5.256 9.668-1.006 9.706-.617 9.715 9.402 0 7.505-1.433 8.643-9.118 9.213-6.252.455-12.419 1.897-18.672 2.514-2.637.256-2.504 1.765-2.637 3.482-.494.576-.949.547-1.366-.085l-.067-.399-.417-.076c-3.473-6.859-9.545-4.801-14.924-4.013-14.118 2.068-28.302 3.653-42.439 5.56-4.972.673-9.972 1.148-14.924 2.011-1.518.266-3.065.949-4.535-.171l-42.25 5.219c-1.403.17-2.846.237-4.23.36 0-3.008.322-6.053-.077-9.004-.512-3.871 1.281-5.455 4.744-5.882a21532.24 21532.24 0 0 1 39.697-4.934c5.294-.654 10.588-1.338 15.882-1.983 2.847-.341 3.615-2.144 3.492-4.658l.616-.01Z" fill="#181818"/><path d="M122.563 284.893c11.063-1.584 22.106-3.216 33.207-4.744 11.234-1.527 22.486-2.931 33.729-4.392 5.892-.769 8.776.891 9.924 5.692-4.478-4.336-9.782-3.596-15.294-2.846-19.564 2.751-39.156 5.294-58.739 7.884a18.52 18.52 0 0 1-2.846 0l.019-1.594Zm77.306-2.912 1.366.085c0 .313.086.636.133.949 0 1.897-.085 3.795-.123 5.692-1.566 1.585-.854 3.587-.854 5.389-.051 31.791-.073 63.587-.067 95.39 0 1.812.683 3.795-.835 5.408-.038-36.559-.069-73.116-.094-109.669.073-1.092.232-2.177.474-3.244Z" fill="#1A2239"/><path d="M427.423 546.47h-19.384c-1.603 0-3.235 0-4.146-1.613-1.063-1.897.171-3.368 1.262-4.639 4.744-5.56 11.157-8.606 17.533-11.67 3.235-1.556 6.3-3.909 10.105-3.568 2.286.209 5.208-1.214 6.423 2.847.626 2.078 3.036 0 4.459-.484 6.328-2.049 6.3-2.135 7.448 4.535 2.248 12.998 1.736 13.7-10.949 14.232-4.251.161-8.539 0-12.751 0v.36Zm90.161-25.456c1.252-.521 2.846 2.135 3.653-1.015.683-2.799 3.795-3.007 5.275-.436 1.11 1.954 1.679 3.026 3.463.673 1.034-1.375 1.48 0 1.897.703 3.881 6.47 5.56 13.69 6.841 20.986.417 2.382-1.186 3.748-3.662 3.9-4.251.256-8.539.664-12.761.209-4.222-.456-6.746-3.027-5.826-7.211a59.253 59.253 0 0 0 1.12-17.809Z" fill="#FBFBFB"/><path d="M326.607 115.945c2.894.607 5.55-.882 8.406-.949 8.425-.076 11.385 2.714 11.385 11.11v77.648c0 19.924.095 39.773 0 59.659-.057 8.899-1.413 17.865-.664 26.67 1.167 13.729.38 27.41.655 41.101.227 11.385-3.444 15.18-14.82 16.252-2.011.19-4.013.598-6.015.949 1.034-1.537.948-3.273.948-5.019-.218-26.85-.398-53.701-.218-80.541.332-48.957-.161-97.952.323-146.88ZM245.03 75.689c0 9.563 0 9.867-9.004 11.195-16.006 2.344-32.078 4.27-48.113 6.395-15.579 2.068-31.148 4.184-46.727 6.243-4.981.664-10 1.082-14.962 1.897-2.438.399-2.656-.796-2.656-2.6 0-4.572.218-9.164-.086-13.728-.218-3.292 1.252-4.573 4.156-4.933 10.759-1.329 21.518-2.581 32.258-3.976 15.437-2.011 30.854-4.127 46.281-6.176 12.144-1.623 24.298-3.207 36.452-4.858 2.097-.285 2.391.949 2.391 2.505l.01 8.036Zm52.069 250.21c0 10.294 0 10.067-10.436 11.234-10.437 1.167-21.148 2.742-31.68 4.374-6.641 1.015-7.125.768-7.116-5.693v-4.744c0-10.342 0-10.123 10.437-11.214 10.617-1.111 21.195-2.553 31.755-4.128 7.135-1.053 7.107-1.262 7.107 5.864l-.067 4.307Zm-85.246 20.684c-10.323-.361-9.611 1.812-9.583-10.057 0-3.141.114-6.272.171-9.412 8.216-1.082 16.442-2.125 24.668-3.283 3.292-.455 5.019.275 4.744 4.137a113.925 113.925 0 0 0 0 12.723c.104 2.723-.683 3.918-3.624 4.089-5.513.304-10.826 2.106-16.376 1.803Z" fill="#181818"/><path d="m304.661 111.325.057 153.549c0 11.215-.152 22.429.076 33.634.066 3.207-.949 4.526-3.995 4.924-12.941 1.642-25.873 3.444-38.814 5.124-5.92.768-11.955.948-17.771 2.229-4.041.873-4.127-.768-4.108-3.795.085-12.951 0-25.901 0-38.852V119.797c1.281-1.594 3.055-2.04 4.991-2.324 18.026-2.647 36.053-4.507 54.08-6.917 1.926-.218 3.842-.712 5.484.769Z" fill="#FCFDFB"/><path d="M238.124 283.024c-1.357-1.84-.75-3.975-.75-5.968-.038-50.544-.038-101.088 0-151.633 0-4.051-.341-5.692-5.256-4.829-13.748 2.306-27.619 3.919-41.452 5.693-15.541 2.011-31.11 3.852-46.651 5.882-13.046 1.708-26.035 4.032-39.128 5.228-11.575 1.062-22.922 3.729-34.544 4.231 0-4.743.066-9.487-.048-14.231-.057-2.42.474-3.549 3.292-3.89 19.47-2.372 38.9-4.934 58.35-7.543 17.884-2.4 35.731-5.009 53.615-7.391 16.641-2.211 33.321-4.156 49.962-6.395 2.961-.398 2.685 1.272 2.695 3.017v174.508c.076 1.11-.029 2.221-.085 3.321Zm66.537-171.699c-11.594 1.489-23.198 2.96-34.792 4.487-9.896 1.3-19.791 2.676-29.678 4.014 0-4.574.228-9.166-.095-13.729-.246-3.568 1.49-4.744 4.517-5.162 19.127-2.419 38.254-4.743 57.363-7.305 2.409-.323 2.723.712 2.723 2.543-.019 5.047-.032 10.098-.038 15.152Z" fill="#12AE65"/><path d="m202.421 284.77 29.535-3.178v16.224c0 2.96-2.486 3.007-4.374 3.074-8.472.303-16.764 1.897-25.114 3.064l-.047-19.184Z" fill="#181818"/><path d="M70.39 141.638 70.303 286.8c-1.357-1.48-.788-3.302-.788-4.971-.038-45.086-.038-90.169 0-135.248.01-1.632-.617-3.53.873-4.943Z" fill="#CDDBFB"/><path d="M402.384 283.916c0-.797 0-1.594.152-2.372.218-1.603.73-3.653 2.277-3.795 1.897-.171 1.461 2.125 1.688 3.359.579 3.112 1.68 4.231 5.019 2.846 4.213-1.755 8.473-3.349 12.335-5.835 3.292-2.116 5.047-.56 5.692 2.694.807 3.796-.74 6.803-3.444 9.289-4.061 3.738-9.099 5.617-14.345 6.831-2.847.645-5.162-.541-6.831-3.112-1.926-3.045-2.439-6.404-2.543-9.905Z" fill="#FAF9F9"/><path d="M504.388 336.601a2.056 2.056 0 0 1 1.964 1.632c2.988 7.183 8.643 11.025 15.92 12.913.949.247 2.647 0 2.277 1.67-.37 1.67-1.897.617-2.77.503-8.72-1.158-17.154-9.279-17.391-16.718Zm-49.801-5.189c1.755 5.692-2.486 12.837-7.676 14.089-.673.161-1.347.19-1.66-.399a1.164 1.164 0 0 1-.045-.914 1.163 1.163 0 0 1 .633-.661c4.896-2.533 7.381-6.84 8.748-12.115Z" fill="#126F43"/><path d="M78.102 332.417c0 12.173 0 12.154-12.258 13.16-3.795.304-7.505.759-11.262 1.138-3.083.304-4.943-1.053-5-4.184-.095-5.835 0-11.679 0-17.514 0-1.803.74-2.951 2.704-3.207 7.012-.949 14.004-1.983 21.016-2.846 3.074-.361 4.743 1.3 4.81 4.421.066 3.122-.01 6.034-.01 9.032Z" fill="#181818"/><path d="M99.83 391.792c.503 2.675-.56 3.871-3.975 4.279-13.387 1.574-26.717 3.614-40.076 5.389-2.846.389-5.816.597-6.252-3.625-.399-3.795.303-6.224 4.82-6.717 13.405-1.461 26.821-2.989 40.16-4.972 4.887-.73 5.39 1.575 5.323 5.646Z" fill="#111"/><path d="M123.597 355.691c0-6.784 0-6.945 6.641-8.008 5.693-.949 11.499-1.413 17.258-2.106 3.425-.408 5.2 1.489 5.275 4.564.276 11.385 1.196 12.258-9.392 12.618a58.31 58.31 0 0 0-9.289 1.338c-8.833 1.755-10.493.474-10.493-8.406Zm-37.04 4.848c0-6.907.057-7.068 6.642-8.103 5.408-.834 10.854-1.451 16.3-2.02 3.795-.399 6.157 1.413 6.214 5.265a73.712 73.712 0 0 1-.825 9.336c-.171 1.471-1.234 2.087-2.619 2.258-5.588.664-11.167 1.537-16.784 1.955-8.387.645-8.966-.038-8.928-8.691Zm-8.54 3.577c0 7.135 0 7.135-7.011 8.131-5.285.749-10.58 1.423-15.835 2.324-2.382.408-4.336-.17-5.01-2.362-1.252-4.108-.778-8.397-.285-12.609.124-.997 1.14-1.452 2.135-1.585 7.154-.949 14.298-1.983 21.461-2.846 2.62-.313 4.223 1.157 4.507 3.738a45.42 45.42 0 0 1 .038 5.209Zm83.36-12.856c0-7.951 0-7.865 7.789-8.586 4.982-.465 9.934-1.31 14.906-1.898 3.89-.427 5.901 1.243 5.835 5.38-.209 12.41 1.622 9.924-10.209 11.774-2.78.436-5.56.949-8.321 1.499-8.368 1.67-9.991.351-10-8.169Z" fill="#181818" fill-opacity=".39"/><path d="M138.133 390.198c-4.868.114-5.835-.949-5.209-6.376.218-1.841.882-2.922 2.789-3.188 6.386-.882 12.742-1.964 19.137-2.666 2.467-.275 3.795 1.613 3.653 3.966-.143 2.353 1.29 5.92-2.495 6.081-5.712.238-11.149 2.221-17.875 2.183Zm93.53-222.715c0 9.601 0 9.298-9.488 10.275-10.901 1.119-21.736 2.903-32.609 4.298-13.681 1.764-27.382 3.377-41.053 5.133-10.579 1.356-21.13 2.846-31.69 4.279a37865.433 37865.433 0 0 1-37.713 5.104c-1.898.256-3.017-.427-2.998-2.552.056-4.422 0-8.843 0-13.283 0-1.898 1.005-2.799 2.846-3.027 15.56-1.897 31.129-3.795 46.67-5.768 13.207-1.718 26.367-3.738 39.573-5.465 13.369-1.755 26.756-3.283 40.134-4.962 7.466-.949 14.99-1.632 22.353-3.112 3.652-.731 4.117.417 3.937 3.377-.057 1.907.038 3.805.038 5.703Zm.008-25.38c0 8.662 0 8.776-8.387 9.867-20.228 2.638-40.475 5.066-60.722 7.733-12.751 1.679-25.446 3.795-38.197 5.427-13.691 1.793-27.4 3.406-41.13 4.924-7.144.797-7.163.635-7.163-6.85 0-10.968 0-10.75 10.854-12.126 13.539-1.717 27.097-3.226 40.589-5.389 13.776-2.201 27.732-3.283 41.575-5.066 12.913-1.67 25.778-3.682 38.682-5.408 6.537-.873 13.149-1.186 19.649-2.239 3.662-.589 4.535.664 4.25 3.909-.133 1.745 0 3.501 0 5.218Zm-.009 49.64c0 8.539 0 8.624-8.074 9.715-19.099 2.581-38.217 5.01-57.325 7.59-18.169 2.429-36.31 5.105-54.498 7.372-9.81 1.224-19.62 2.315-29.412 3.862-5.986.948-6.29.408-6.3-5.845a35.329 35.329 0 0 0-.047-5.692c-.759-4.678 1.12-6.708 5.788-7.259 15.256-1.783 30.484-3.795 45.712-5.797 13.52-1.774 27.011-3.709 40.531-5.464 15.551-2.031 31.12-3.928 46.67-5.911 3.577-.456 7.154-.949 10.693-1.575 5.569-1.044 6.224-.57 6.233 5.208.038 1.262.029 2.543.029 3.796ZM76.093 237.606c0-9.639 0-9.402 10.057-10.683 15.085-1.897 30.104-4.374 45.18-6.376 15.703-2.087 31.452-3.852 47.154-5.891a4003.056 4003.056 0 0 0 47.543-6.49c4.744-.674 5.598-.133 5.636 4.602a75.06 75.06 0 0 0 .076 8.538c.484 3.995-1.471 5.333-5 5.693-16.537 1.708-32.989 4.118-49.441 6.471-15.683 2.248-31.451 3.871-47.154 5.92-15.389 2.012-30.778 4.07-46.12 6.404-7.979 1.196-7.931 1.499-7.931-8.188Zm64.344 26.395h-.646c-4.117-2.239-8.254-.588-12.334 0-6.015.902-12.172.873-18.026 2.847-.655-.19-1.262-2.126-1.983-.057l-9.744.844c-.237-.588.275-1.139.114-1.727a7.648 7.648 0 0 0-.674 1.746c-5.417.825-10.892 1.404-16.243 2.562-3.5.759-5.076.237-4.848-3.672.228-3.909.076-7.59 0-11.385 0-2.334 1.072-3.245 3.406-3.549 23.719-3.064 47.439-6.271 71.11-9.355 20.361-2.637 40.731-5.142 61.092-7.723 5.588-.711 11.234-1.214 16.746-2.315 2.97-.588 3.283.589 3.245 2.847-.038 2.258 0 4.743 0 7.106 0 7.97 0 8.245-7.761 9.269-13.976 1.851-28.018 3.207-42.003 5.01-9.943 1.281-19.838 2.941-29.744 4.478-3.994.645-8.567-.863-11.707 3.074Z" fill="#181818"/><path d="M97.135 267.663c-1.49-3.282 1.357-3.624 3.321-5.17.693 3.007-1.898 3.596-2.761 5.152h-.275l-.285.018Z" fill="#1B2234"/><path d="M107.44 266.8c-.408-1.319-2.343-1.727-1.973-3.795 2.438.209 3.738 1.414 3.956 3.871l-1.983-.076Z" fill="#141B2C"/><path d="M408.106 541.831c13.568.237 27.031-.693 41.291-1.727-4.288 3.719-35.636 5.028-41.291 1.727Z" fill="#353535"/><path d="M435.734 527.03c-4.687 3.387-7.969 6.395-12.438 8.539 1.461-3.928 7.571-8.33 12.438-8.539Z" fill="#1E1E1E"/><path d="M536.105 541.802c-5.228 2.543-10.693 2.306-16.186 1.547a.96.96 0 0 1-.751-.49.942.942 0 0 1-.008-.896 1.356 1.356 0 0 1 1.072-.645c5.266 1.015 10.55-.009 15.873.484Z" fill="#1F1F1F"/><path d="M527.394 534.43c-1.612-.721-4.592 1.053-4.658-1.432-.048-1.765 2.903-.797 4.478-.826 1.575-.028 4.801-.949 4.82.949.047 2.249-3.017.626-4.64 1.309Z" fill="#2E2E2E"/><path d="M203.198 337.398c-.74-3.795.275-6.537 5.826-6.224 2.353.133 4.81-1.261 7.191-2.058 2.382-.797 4.393-1.746 6.851-1.575 1.897.132 3.927-.351 4.743 2.125.437 1.385.759 2.742-.199 4.061-1.461 2.002-3.245 1.356-5.114.749a9.238 9.238 0 0 0-2.846-.237c-.949 0-2.002.123-2.011 1.423a1.747 1.747 0 0 0 .58 1.263 1.752 1.752 0 0 0 1.317.445c1.556.057 3.131-.294 4.687-.266a2.99 2.99 0 0 1 2.798 1.917c.145.375.213.775.2 1.176.133 2.031-1.366 2.391-3.159 2.581a50.107 50.107 0 0 0-11.48 2.23c-5.665 2.03-9.393-.921-9.384-7.61Zm44.564-48.093v-1.898c0-7.988 0-7.723 7.96-8.339a153.028 153.028 0 0 0 19.925-2.761c5.797-1.224 11.802-.361 17.485-2.325 2.932-1.015 4.27.247 4.08 3.52a36.601 36.601 0 0 0 .551 9.403c.607 3.074-.731 5.161-4.545 5.692-14.042 1.898-28.046 4.023-42.04 6.243-2.647.418-3.482-.417-3.425-2.846.057-2.258.009-4.478.009-6.689Zm-.161-25.029c.181-9.639.19-9.554 9.621-10.778 12.277-1.603 24.545-3.245 36.774-5.133 2.534-.389 3.141.275 3.103 2.505v8.046c0 7.761 0 7.837-7.524 8.814-8.074 1.062-16.319 1.319-24.203 3.15-5.18 1.214-10.579-.503-15.512 2.011-1.765.892-2.543.086-2.315-2.002.137-2.201.156-4.409.056-6.613ZM297.1 159.484c0 9.488 0 9.488-9.583 10.57-11.812 1.309-23.634 2.571-35.342 4.668-3.226.578-4.801-.465-4.421-3.957.09-1.729.09-3.461 0-5.19 0-9.26 0-9.345 9.165-10.55 12.4-1.632 24.82-3.093 37.23-4.687 2.059-.256 2.96.474 2.922 2.524-.009 2.21.019 4.421.029 6.622Zm-49.317 79.792c0-9.127 0-9.26 9.384-10.284 12.153-1.31 24.288-2.686 36.347-4.687 2.249-.38 3.681.113 3.605 2.846-.104 4.099-.066 8.207 0 12.334 0 2.609-1.243 3.425-3.795 3.719-13.994 1.642-27.989 3.378-41.955 5.332-2.903.399-3.795-.379-3.643-3.074.133-2.078.057-4.127.057-6.186Zm49.315-105.399c0 9.412 0 9.488-9.487 10.522-11.832 1.252-23.644 2.656-35.361 4.744-3.065.531-4.811-.133-4.564-3.795.247-3.663.114-7.591 0-11.386 0-2.599 1.196-3.444 3.71-3.728 13.368-1.481 26.793-2.714 40.038-4.953 5.645-.949 5.854 1.281 5.588 5.304.019 1.081.076 2.191.076 3.292Zm.001 50.162c0 9.003 0 8.795-8.966 9.838-10.882 1.272-21.745 2.847-32.571 4.507-6.897 1.063-7.78.541-7.78-6.186v-4.744c0-7.362.304-7.258 7.59-7.96 11.063-1.063 22.078-2.713 33.113-4.127.464-.067.901-.304 1.366-.38 6.575-1.1 7.296-.493 7.296 6.215l-.048 2.837Zm-49.316 31.053c0-8.881-.001-8.786 9.316-9.962 11.386-1.442 22.657-3.055 33.986-4.611 5.332-.74 5.996-.18 6.015 5.209.057 13.178 0 13.093-13.473 14.62-9.962 1.12-19.924 2.476-29.829 3.795-5.351.702-5.996.181-6.015-5.218-.01-1.3 0-2.571 0-3.833Z" fill="#181818"/><path d="M109.488 255.007c-.778 1.414-1.736 2.846-3.463 3.235-.721.18-1.129-.787-.892-1.252a6.12 6.12 0 0 1 3.188-3.131c.712-.237 1.034.427 1.167 1.148Z" fill="#31384D"/><path d="M101.528 258.536c-3.387-.465-4.45-1.897-5.38-4.108 2.932-.228 3.72 1.604 5.38 4.108Z" fill="#192231"/><path d="M519.178 62.71c4.744 6.328 8.463 13.036 8.539 21.224 2.847 6.897.636 13.425-2.248 19.497-6.907 14.554-18.976 22.41-34.849 22.827-15.873.418-28.311-7.058-35.911-21.157-7.694-14.232-4.611-33.995 6.993-45.864 14.146-14.46 39.592-15.55 54.327-1.537 1.451 1.395 3.263 2.61 3.149 5.01Z" fill="#10653D"/><path d="M519.179 62.71a37.948 37.948 0 0 0-44.791-10.987 38.625 38.625 0 0 0-22.628 40.863c2.239 16.319 15.673 29.763 32.163 32.173 24.735 3.615 46.272-16.471 43.776-40.797 2.315-2.325 2.344-.313 2.429 1.328a39.307 39.307 0 0 1-3.966 19.27c-7.476 15.607-25.047 25.076-41.746 22.552-17.808-2.704-31.888-16.129-34.573-33.017-2.846-18.198 5.693-35.361 21.822-43.407a40.616 40.616 0 0 1 47.116 8.131c2.856 2.913 2.856 2.932.398 3.89Z" fill="#181818"/><path d="M434.633 17.415c3.672 5.085 3.985 11.1 4.744 17.002 1.831 2.23.522 4.46.066 6.727-3.102 15.436-18.026 26.252-32.856 25.674-14.829-.58-28.368-10.722-31.309-25.95-2.552-13.368 1.432-25.18 12.713-33.406 11.281-8.226 23.407-8.539 35.57-1.954 4.943 2.647 9.839 5.664 11.072 11.907Z" fill="#10653D"/><path d="M434.633 17.415c-7.59-11.461-18.349-16.84-31.907-14.858-13.15 1.898-22.135 9.81-25.835 22.619-3.52 12.182-.598 23.254 8.747 31.964 9.346 8.71 20.731 11.196 32.866 6.642 12.476-4.744 19.194-14.232 20.75-27.44.076-.625.076-1.251.104-1.897 3.795-.123 1.822 2.79 1.698 3.985-1.442 14.583-13.985 27.24-28.662 29.223-18.027 2.438-35.105-9.488-38.321-26.889A34.071 34.071 0 0 1 400.259.735c12.837-2.846 27.514 2.8 34.583 13.397.673.968 3.15 2.467-.209 3.283Z" fill="#181818"/><path d="M479.006 101.04c-.057-3.425 1.016-4.8 4.573-3.539 2.567.903 5.37.87 7.913-.095a3.428 3.428 0 0 0 2.571-3.064 2.89 2.89 0 0 0-2.068-2.894c-2.476-.996-5.057-1.755-7.59-2.723-3.653-1.414-6.755-3.264-7.296-7.8-.541-4.534 1.461-7.694 5.114-9.847 1.964-1.148 3.273-2.24 2.903-4.744-.237-1.594.949-2.23 2.372-2.249 1.186 0 3.026-.56 2.96 1.29-.142 3.796 2.562 3.207 4.744 3.634 2.182.427 4.431.456 3.615 3.995-.683 2.979-1.945 3.605-4.535 2.438a2.375 2.375 0 0 0-.949-.114c-2.761.067-6.566-.949-7.391 2.438-.949 3.843 3.226 3.881 5.693 4.906 1.299.55 2.713.835 4.051 1.29 4.127 1.414 6.641 4.231 7.03 8.624.389 4.393-1.793 7.591-5.484 9.744-1.641.949-4.212 1.177-3.311 4.213.456 1.499.399 2.922-1.746 2.96-1.669 0-3.728.655-3.662-2.192.076-3.32-2.514-2.286-4.307-2.846-1.974-.655-5.522.579-5.2-3.425Zm-62.448-78.606c-.56 1.698-.626 4.25-3.795 2.695a1.689 1.689 0 0 0-.456-.124c-2.58-.503-6.119-1.897-7.115 1.205-1.044 3.293 3.045 3.634 5.19 4.915 1.081.636 2.305 1.044 3.349 1.727 5.531 3.605 5.227 11.252-.636 14.231-2.068 1.053-4.639 1.3-4.156 4.659.171 1.176-.948 1.442-1.983 1.442-1.034 0-2.628 0-2.495-1.433.351-3.596-2.324-3.51-4.506-4.06-2.183-.55-3.492-1.414-2.667-4.26.949-3.321 2.695-1.48 4.27-1.158 2.989.617 6.888 2.514 8.226-1.385 1.252-3.643-3.065-4.051-5.446-5.152-3.444-1.584-6.585-3.35-6.755-7.647-.171-4.298 2.058-6.84 5.853-8.198 1.661-.588 1.775-1.793 2.154-3.225.702-2.733 3.957-2.24 4.061-.95.332 3.881 3.131 3.73 5.465 4.526a1.9 1.9 0 0 1 1.442 2.192Z" fill="#F7FAFC"/><path d="M16.119 412.845c-7.59-4.744-5.218-6.641-4.27-9.488.61-1.831 14.357-3.786 25.144-4.974.474 1.342 1.233 5.164.474 9.718-.949 5.693 4.27 9.962 9.014 10.911 4.743.949 8.064-.949 10.436-.474 2.372.474 38.9 20.873 57.401 32.258 18.501 11.385 35.104 7.59 41.271 7.116 6.167-.475 257.592-33.682 262.336-34.156 3.795-.38 12.651-2.372 16.604-3.321l-3.795 63.094-12.809 2.371c-57.717 7.116-178.084 22.202-197.819 25.617-19.734 3.416-33.523-1.423-37.951-4.269l-97.724-55.503c-20.24-11.386-62.24-35.105-68.312-38.9Z" fill="url(#c)"/><defs><linearGradient id="a" x1="489.688" y1="38.098" x2="489.688" y2="135.958" gradientUnits="userSpaceOnUse"><stop stop-color="#3AF29B"/><stop offset="1" stop-color="#126F43" stop-opacity="0"/></linearGradient><linearGradient id="b" x1="483.816" y1="421.989" x2="483.816" y2="480.217" gradientUnits="userSpaceOnUse"><stop stop-color="#0FAA61"/><stop offset="1" stop-color="#07673A"/></linearGradient><linearGradient id="c" x1="222.635" y1="397.665" x2="222.635" y2="512.692" gradientUnits="userSpaceOnUse"><stop stop-color="#2ECC82"/><stop offset="1" stop-color="#049E55"/></linearGradient></defs></svg>