<svg xmlns="http://www.w3.org/2000/svg" width="890" height="729.788"><defs><linearGradient id="a" x1=".5" x2=".5" y2="1" gradientUnits="objectBoundingBox"><stop offset="0" stop-color="#202020"/><stop offset="1" stop-color="#2e2e2e"/></linearGradient></defs><path fill="url(#a)" d="m374.677 751.016 1.81 38.157a24.345 24.345 0 0 1-23.164 25.469l-.79.038-2.964-62.474Z" data-name="Path 36496" transform="translate(-155 -85.106)"/><path fill="#e6e6e6" d="M762.171 601.428c-18.171 35.466-41.224 69.766-70.389 100.808-.648.7-1.3 1.384-1.962 2.079l-69.1-32.713c.423-.7.886-1.491 1.385-2.353 29.683-50.787 208.865-360.591 203.2-430.758.661 5.787 21.895 197.169-63.134 362.937Z" data-name="Path 36497"/><path fill="#e6e6e6" d="M705.113 708.546a91.748 91.748 0 0 1-2.957 1.608l-51.838-24.54c.725-.514 1.569-1.122 2.539-1.806 15.881-11.4 63.105-45.613 109.314-82.38 49.658-39.511 98.152-81.964 105.354-102.228-1.465 4.646-46.914 145.894-162.412 209.346Z" data-name="Path 36498"/><circle cx="80" cy="80" r="80" fill="#189366" data-name="Ellipse 648" transform="translate(6.23 568.051)"/><path fill="#fff" d="M118.275 614.48H54.184A10.694 10.694 0 0 0 43.5 625.162v45.779a10.694 10.694 0 0 0 10.682 10.682h64.091a10.694 10.694 0 0 0 10.682-10.682v-45.779a10.694 10.694 0 0 0-10.682-10.682Zm0 6.1a4.556 4.556 0 0 1 1.134.148l-33.172 26.466-32.978-26.515a4.58 4.58 0 0 1 .925-.094Zm0 54.935H54.184a4.583 4.583 0 0 1-4.578-4.578v-45.364l34.711 27.909a3.052 3.052 0 0 0 3.815.007l34.72-27.7v45.148a4.583 4.583 0 0 1-4.578 4.577Z" data-name="Path 36499"/><path fill="#ffb8b8" d="m394.968 532.552 17.9.147a12.454 12.454 0 0 0 12.4-14.43 12.454 12.454 0 0 0-17.807-9.191l-16.881 8.329-57.737 12.876-24.736-25.289-14.207 23.4 33.378 25.788Z" data-name="Path 36500"/><path fill="url(#a)" d="m546.613 802.6-21.089 4.056c-14.405-45.409-30.013-88.411-30.012-121.67-20.386 22.689-45.667 35.669-75.436 39.746l3.245-50.29 24.334-12.978L484.9 644.27a28.281 28.281 0 0 1 10.365-2.564 28.281 28.281 0 0 1 29.412 23.774Z" data-name="Path 36501" transform="translate(-155 -85.106)"/><path fill="url(#a)" d="m445.627 718.644-8.406 6.388a26.031 26.031 0 0 1-25.662 3.345c-24.075-18.047-41.179-12.723-56.681 14.516-18.594-20.985-23.182-51.295-6.587-82.651l92.064 2.028 18.656-5.678Z" data-name="Path 36502" transform="translate(-155 -85.106)"/><path fill="url(#a)" d="M414.967 812.623a23.507 23.507 0 0 1-27.82-11.721c-8.274-7.287-15.254-17.721-21.309-30.409a235.352 235.352 0 0 1-11.167-28.683c-4.19-12.94 2.816-27.077 15.855-30.948q.582-.173 1.177-.326c17.406-4.469 35.281 5.571 41.231 22.528l17.3 49.308a23.507 23.507 0 0 1-14.4 29.964q-.434.152-.867.287Z" data-name="Path 36503" transform="translate(-155 -85.106)"/><path d="M207.891 679.772s20.278 22.712 24.334 35.69" data-name="Path 36504" opacity=".2"/><path fill="#ffb8b8" d="m129.244 572.587-6.787 16.564a12.454 12.454 0 0 0 8.791 16.872 12.454 12.454 0 0 0 15.152-13.117l-1.462-18.767 9.5-58.388 32.669-13.57-16.455-21.887-36.343 21.409Z" data-name="Path 36505"/><path fill="#189366" d="M291.438 575.136c-23.306 39.147-69.767 54.306-109.56 23.652 7-23 29.6-86.567 15-89-31 13-31.045-17.523-36.844-32.8l70.566-25.956 38.123 10.545 7.815 2.773a26.42 26.42 0 0 1 17.582 24.537c-16.011 23.136-27.866 47.816-2.682 86.249Z" data-name="Path 36506"/><path fill="#189366" d="m300.361 543.502-27.984-23.117 9.328-53.94 38.123 40.557Z" data-name="Path 36507"/><path fill="url(#a)" d="M919.705 258.051h-4V148.506a63.4 63.4 0 0 0-63.4-63.4H620.218a63.4 63.4 0 0 0-63.4 63.4V749.48a63.4 63.4 0 0 0 63.4 63.4H852.3a63.4 63.4 0 0 0 63.4-63.4V336.027h4Z" transform="translate(-155 -85.106)"/><path fill="#fff" d="M699.862 16.494h-30.295a22.495 22.495 0 0 1-20.828 30.994H515.78a22.5 22.5 0 0 1-20.827-30.994h-28.3a47.348 47.348 0 0 0-47.353 47.35v600.089a47.348 47.348 0 0 0 47.348 47.348h233.2a47.348 47.348 0 0 0 47.352-47.348V63.841a47.348 47.348 0 0 0-47.346-47.347h.009Z"/><circle cx="26" cy="26" r="26" fill="#b0eedb" transform="translate(557.659 625.746)"/><path fill="#b0eedb" d="M478.182 411.294c-2.458 0-4.458 2.283-4.458 5.088s2 5.088 4.458 5.088h210.143c2.458 0 4.458-2.283 4.458-5.088s-2-5.088-4.458-5.088Z" data-name="Path 36508"/><path fill="#b0eedb" d="M478.182 531.299c-2.458 0-4.458 2.283-4.458 5.088s2 5.088 4.458 5.088h210.143c2.458 0 4.458-2.283 4.458-5.088s-2-5.088-4.458-5.088Z" data-name="Path 36509"/><path fill="#b0eedb" d="M478.182 441.826c-2.458 0-4.458 2.283-4.458 5.088s2 5.088 4.458 5.088h90.425c2.458 0 4.458-2.283 4.458-5.088s-2-5.088-4.458-5.088Z" data-name="Path 36510"/><path fill="#b0eedb" d="M478.182 470.924c-2.458 0-4.458 2.283-4.458 5.088s2 5.088 4.458 5.088h210.143c2.458 0 4.458-2.283 4.458-5.088s-2-5.088-4.458-5.088Z" data-name="Path 36511"/><path fill="#b0eedb" d="M478.182 501.452c-2.458 0-4.458 2.283-4.458 5.088s2 5.088 4.458 5.088h90.425c2.458 0 4.458-2.283 4.458-5.088s-2-5.088-4.458-5.088Z" data-name="Path 36512"/><path fill="#189366" d="M517.853 179.627h130.814a5.457 5.457 0 0 1 5.451 5.451v136.237a5.457 5.457 0 0 1-5.451 5.451H517.853a5.457 5.457 0 0 1-5.451-5.451V185.078a5.457 5.457 0 0 1 5.451-5.451Z" data-name="Path 36513"/><path fill="#fff" d="M620.793 298.671a3.7 3.7 0 1 0 0-7.4h-75.07a3.7 3.7 0 0 0 0 7.4Z" data-name="Path 36514"/><path fill="#fff" d="M620.793 276.869a3.7 3.7 0 0 0 0-7.4h-75.066a3.7 3.7 0 0 0 0 7.4Z" data-name="Path 36515"/><path fill="#fff" d="M583.26 207.722a23.293 23.293 0 1 1-23.292 23.293 23.319 23.319 0 0 1 23.292-23.293Z" data-name="Path 36516"/><path fill="#2f2e41" d="M286.064 443.971h-69.15a5.371 5.371 0 0 1-5.365-5.365V408.8a39.94 39.94 0 0 1 79.88 0v29.806a5.371 5.371 0 0 1-5.365 5.365Z" data-name="Path 36517"/><circle cx="29.283" cy="29.283" r="29.283" fill="#ffb6b6" data-name="Ellipse 649" transform="rotate(-61.337 467.645 27.3)"/><path fill="#2f2e41" d="M300.878 411.78H258.6l-.434-6.071-2.168 6.071h-6.511l-.859-12.032-4.3 12.032h-12.6v-.6a31.63 31.63 0 0 1 31.595-31.586h5.961a31.63 31.63 0 0 1 31.594 31.594Z" data-name="Path 36518"/><path fill="#2f2e41" d="M258.249 449.534a5.479 5.479 0 0 1-.95-.084l-30.962-5.463v-51.17h34.083l-.844.984c-11.74 13.692-2.9 35.894 3.422 47.91a5.286 5.286 0 0 1-.42 5.612 5.344 5.344 0 0 1-4.329 2.211Z" data-name="Path 36519"/><path fill="url(#a)" d="M516.333 787.282h38.2a24.345 24.345 0 0 1 24.344 24.342v.793h-62.544Z" data-name="Path 36520" transform="translate(-155 -85.106)"/><path fill="#cacaca" d="M889 729.788H1a1 1 0 0 1 0-2h888a1 1 0 0 1 0 2Z" data-name="Path 36521"/></svg>