<svg xmlns="http://www.w3.org/2000/svg" width="601" height="550" fill="none"><path fill="#242424" d="M599.767 515.922c2.871-22.042-19.178-39.397-40.347-46.08-21.169-6.682-44.876-8.311-62.213-22.192-18.249-14.662-27.092-41.309-49.173-49.222-16.043-5.735-33.512.582-50.302 3.425a122.981 122.981 0 0 1-48.346-1.756 123.114 123.114 0 0 1-43.945-20.27c-6.802-4.987-13.272-10.839-21.185-13.764-7.914-2.926-17.038-2.66-25.615-1.663-23.077 2.71-46.818 10.939-61.5 28.975-7.482 9.209-12.227 20.496-20.29 29.207-13.007 14.063-32.849 19.533-51.877 21.61-19.029 2.078-38.473 1.43-57.02 6.168a102.404 102.404 0 0 0-40.657 21.369A102.672 102.672 0 0 0 .033 508.741c4.18-.466 9.456 2.294 13.62 1.845l586.114 5.336Z"/><path stroke="#2ECC82" stroke-miterlimit="10" stroke-width="7" d="M307.582 207.143v-82.235a68.226 68.226 0 0 1 19.922-48.194 67.95 67.95 0 0 1 48.097-19.962h4.148a67.95 67.95 0 0 1 48.097 19.962 68.226 68.226 0 0 1 19.922 48.194v82.235"/><path fill="#20BE74" d="M442.078 207.143H222.972V56.785h152.413c29.863 0 66.693 24.27 66.693 54.192v96.166Z"/><path fill="url(#a)" d="M403.821 123.977H299.303a22.454 22.454 0 0 1-14.825-5.657 22.541 22.541 0 0 1-7.406-14.058L264.53 66.976h118.354c19.295 0 45.607 15.725 41.774 37.984-1.659 9.858-8.925 18.286-19.294 18.901-.514.099-1.012.116-1.543.116Z" opacity=".26"/><path fill="#3A3A3A" d="M352.193 0h-32.368v125.573c-.074 2.51.355 5.01 1.262 7.352a18.763 18.763 0 0 0 4.02 6.278 18.724 18.724 0 0 0 13.44 5.696 18.69 18.69 0 0 0 7.297-1.483 18.763 18.763 0 0 0 10.163-10.491 18.786 18.786 0 0 0 1.262-7.352v-23.855L333.296 85.51V25.35h18.897a9.063 9.063 0 0 0 6.416-2.663 9.102 9.102 0 0 0 2.658-6.43V9.094a9.102 9.102 0 0 0-2.658-6.43A9.064 9.064 0 0 0 352.193 0Z"/><path fill="#fff" d="M344.793 123.976a6.648 6.648 0 0 1-4.096 6.144 6.622 6.622 0 0 1-7.232-1.442 6.665 6.665 0 0 1-1.439-7.246 6.645 6.645 0 0 1 6.131-4.105c1.76 0 3.448.701 4.693 1.948a6.657 6.657 0 0 1 1.943 4.701Z"/><path fill="url(#b)" d="M442.062 168.71H295.985v38.433h146.077V168.71Z"/><path fill="#126F43" d="M293.032 207.143H152.895v-82.235a68.226 68.226 0 0 1 19.922-48.194 67.952 67.952 0 0 1 48.097-19.962h4.148a67.95 67.95 0 0 1 48.097 19.962 68.227 68.227 0 0 1 19.923 48.194l-.05 82.235Z"/><path fill="#2ECC82" d="M293.032 193.146H78.787v13.997h214.245v-13.997Zm51.392 14.339H310.42v308.483h34.004V207.485Z"/><path fill="#126F43" d="m343.98 242.85-33.661 16.624v-52.33h33.661v35.706Z"/><path fill="#F3F3F5" d="M282.829 100.688H123.165v92.459h164.558v-68.239a62.027 62.027 0 0 0-4.894-24.22Z"/><path fill="url(#c)" d="M212.138 100.688h-88.989v92.459h88.989v-92.459Z"/><path fill="#9E9E9E" d="M163.413 112.706h-29.082v2.56h29.082v-2.56Zm0 6.218h-29.082v2.56h29.082v-2.56Zm0 6.2h-29.082v2.56h29.082v-2.56Zm-18.382 6.2h-10.7v2.56h10.7v-2.56Z"/><path fill="#D6D6D6" d="M252.054 154.63c10.574 0 19.145-8.588 19.145-19.183s-8.571-19.183-19.145-19.183c-10.573 0-19.145 8.588-19.145 19.183s8.572 19.183 19.145 19.183Z"/><path fill="#EDEDED" d="M263.95 140.567h-90.583v52.58h90.583v-52.58Z"/><path fill="url(#d)" d="m173.367 140.567 45.308 32.3 45.291-32.3h-90.599Z"/><path fill="#606060" d="M219.737 56.785h-4.148a67.74 67.74 0 0 0-16.839 2.111 68.01 68.01 0 0 1 36.866 24.225 68.248 68.248 0 0 1 14.298 41.787v82.235h37.809v-82.235a68.225 68.225 0 0 0-19.922-48.16 67.952 67.952 0 0 0-48.064-19.963Z" style="mix-blend-mode:multiply" opacity=".38"/><path fill="#2ECC82" d="M225.045 50.967h-4.213a73.128 73.128 0 0 0-42.838 13.606 73.358 73.358 0 0 0-26.841 36.114h12.542a61.679 61.679 0 0 1 22.784-27.755 61.492 61.492 0 0 1 34.353-10.329h4.164A62.2 62.2 0 0 1 268.95 80.87a62.45 62.45 0 0 1 18.242 44.037v82.236h11.613v-82.236a74.113 74.113 0 0 0-21.63-52.243 73.821 73.821 0 0 0-52.13-21.697Z"/><path fill="url(#e)" d="M570.254 549.984c2.156-16.507-14.351-29.49-30.195-34.494-15.843-5.003-33.611-6.233-46.585-16.623-13.72-10.988-20.289-30.919-36.83-36.854-12.011-4.289-25.084.432-37.66 2.56a92.053 92.053 0 0 1-36.214-1.305 92.144 92.144 0 0 1-32.917-15.185c-5.093-3.757-9.954-8.112-15.86-10.307-5.906-2.194-12.758-1.995-19.195-1.23-17.27 2.028-35.038 8.195-46.038 21.694-5.607 6.898-9.157 15.343-15.196 21.876-9.739 10.522-24.603 14.612-38.854 16.174-14.251 1.563-28.801 1.064-42.687 4.605a76.616 76.616 0 0 0-30.443 15.999 76.804 76.804 0 0 0-20.406 27.72c3.119-.349 7.068 1.663 10.187 1.38l438.893 3.99Z"/><defs><linearGradient id="a" x1="344.777" x2="344.777" y1="123.977" y2="67.042" gradientUnits="userSpaceOnUse"><stop offset=".06" stop-color="#fff"/><stop offset=".14" stop-color="#fff" stop-opacity=".98"/><stop offset=".26" stop-color="#fff" stop-opacity=".9"/><stop offset=".4" stop-color="#fff" stop-opacity=".79"/><stop offset=".55" stop-color="#fff" stop-opacity=".63"/><stop offset=".72" stop-color="#fff" stop-opacity=".42"/><stop offset=".89" stop-color="#fff" stop-opacity=".18"/><stop offset="1" stop-color="#fff" stop-opacity="0"/></linearGradient><linearGradient id="b" x1="369.032" x2="369.032" y1="207.143" y2="168.71" gradientUnits="userSpaceOnUse"><stop stop-color="#2ECC82"/><stop offset="1" stop-color="#2ECC82" stop-opacity="0"/></linearGradient><linearGradient id="c" x1="123.149" x2="212.138" y1="146.917" y2="146.917" gradientUnits="userSpaceOnUse"><stop stop-color="#fff"/><stop offset="1" stop-color="#fff" stop-opacity="0"/></linearGradient><linearGradient id="d" x1="173.367" x2="263.966" y1="156.725" y2="156.725" gradientUnits="userSpaceOnUse"><stop offset=".35" stop-color="#fff"/><stop offset=".41" stop-color="#fff" stop-opacity=".98"/><stop offset=".49" stop-color="#fff" stop-opacity=".91"/><stop offset=".58" stop-color="#fff" stop-opacity=".8"/><stop offset=".69" stop-color="#fff" stop-opacity=".65"/><stop offset=".79" stop-color="#fff" stop-opacity=".45"/><stop offset=".91" stop-color="#fff" stop-opacity=".22"/><stop offset="1" stop-color="#fff" stop-opacity="0"/></linearGradient><linearGradient id="e" x1="345.805" x2="345.805" y1="435.998" y2="549.984" gradientUnits="userSpaceOnUse"><stop stop-color="#fff" stop-opacity=".5"/><stop offset=".01" stop-color="#fff" stop-opacity=".48"/><stop offset=".08" stop-color="#fff" stop-opacity=".35"/><stop offset=".15" stop-color="#fff" stop-opacity=".24"/><stop offset=".24" stop-color="#fff" stop-opacity=".15"/><stop offset=".33" stop-color="#fff" stop-opacity=".08"/><stop offset=".45" stop-color="#fff" stop-opacity=".04"/><stop offset=".61" stop-color="#fff" stop-opacity=".01"/><stop offset="1" stop-color="#fff" stop-opacity="0"/></linearGradient></defs></svg>