<svg width="556" height="549" viewBox="0 0 556 549" fill="none" xmlns="http://www.w3.org/2000/svg">
<path d="M488.724 206.211H489.672C494.113 207.284 498.695 205.946 503.145 206.961C509.843 207.635 515.422 210.68 520.346 215.092C536.067 229.238 548.809 245.453 554.977 266.041C555.052 270.13 557.462 274.419 553.961 278.214C553.553 279.22 553.667 280.69 551.912 280.491C541.997 268.157 527.557 262.255 514.692 254.106C510.024 251.155 505.033 248.688 501.21 244.542C499.312 242.474 496.807 242.123 494.208 242.644C489.872 243.489 485.498 244.153 481.048 245.367C485.46 245.234 488.543 246.743 490.697 250.842C492.149 253.603 495.65 254.02 498.695 254.248C499.884 254.269 501.051 254.575 502.097 255.14C503.144 255.704 504.04 256.511 504.711 257.493C512.377 268.918 521.217 279.51 531.086 289.096C531.92 289.834 532.532 290.79 532.851 291.857C531.599 295.093 531.096 298.195 534.388 300.643C536.779 306.668 537.69 313.024 538.231 319.381C538.743 325.368 535.992 328.224 527.851 331.326C526.648 331.619 525.423 331.812 524.189 331.905C523.695 331.91 523.202 331.862 522.718 331.763C519.274 331.952 515.906 332.882 512.405 332.617C509.862 332.417 507.082 332.389 505.109 330.985C499.739 327.19 493.724 326.649 487.547 326.905C483.211 326.079 478.828 325.415 474.634 323.935C466.447 320.776 457.983 322.313 449.634 322.673C446.788 322.797 445.735 325.169 445.365 327.996C445.004 330.672 445.811 334.106 442.035 335.311C435.08 334.799 433.733 332.901 433.856 323.84C434.454 322.474 434.169 321.041 434.179 319.637C434.236 313.091 434.349 312.948 441.124 312.882C446.323 312.835 451.56 312.977 456.731 312.835C461.902 312.692 463.154 311.298 461.987 306.44C457.775 288.812 453.278 271.25 448.866 253.669C447.917 249.959 445.346 249.267 442.082 249.267C432.594 249.267 423.163 249.428 413.714 249.134C411.892 249.077 408.438 250.216 409.055 246.012C414.254 236.62 419.577 227.388 427.015 219.447C434.738 211.211 444.444 208.526 455.156 207.948C458.002 207.796 460.972 207.948 461.684 204.01C462.006 202.246 461.864 201.164 459.786 201.411C455.991 201.904 454.919 199.75 454.52 196.439C454.084 192.796 455.071 188.583 449.682 186.951C447.575 186.297 449.084 182.938 449.283 180.851C449.577 177.72 450.593 174.475 445.251 176.619C442.566 177.701 440.801 176.221 439.871 173.545C437.613 167.056 440.82 162.293 447.699 161.211C451.361 160.651 453.97 157.71 456.788 155.443C462.006 151.249 461.968 151.202 465.744 156.79C466.987 155.841 468.23 154.892 469.435 153.943C471.646 152.16 474.179 150.945 476.826 152.387C479.473 153.83 481.57 156.572 481.01 159.788C479.761 166.799 480.019 173.995 481.769 180.898C481.886 181.237 481.933 181.597 481.909 181.955C481.884 182.312 481.788 182.662 481.626 182.982C481.464 183.302 481.24 183.587 480.966 183.819C480.693 184.051 480.375 184.225 480.033 184.333C478.999 185.841 480.82 188.185 478.562 189.333C476.997 189.105 477.31 185.813 475.175 186.951C473.553 187.805 474.132 189.741 474.34 191.287C474.91 195.462 472.879 198.403 469.502 200.253C468.3 200.806 467.222 201.594 466.332 202.572C465.442 203.55 464.758 204.698 464.321 205.946C463.439 208.602 461.133 210.149 458.629 211.344C464.919 219.191 480.858 217.843 488.316 209.058C488.344 208.09 487.784 207.046 488.724 206.211Z" fill="#126F43"/>
<path d="M431.547 511.46C432.442 509.068 432.889 506.529 432.861 503.971C432.831 501.201 432.247 498.466 431.142 495.927C430.159 495.415 429.137 495.285 428.074 495.323C427.302 495.351 426.549 495.464 425.773 495.581C425.398 495.637 425.018 495.694 424.629 495.742L424.627 495.742C402.29 498.446 379.987 501.406 357.674 504.367L355.107 504.707C335.221 507.354 315.351 509.992 295.424 512.459C277.849 514.636 260.29 516.939 242.731 519.243C232.423 520.596 222.115 521.948 211.802 523.275C201.257 524.634 191.288 523.143 182.186 518.035C180.463 517.069 178.74 516.104 177.018 515.139C161.102 506.222 145.184 497.304 129.436 488.116C120.793 483.073 112.073 478.14 103.35 473.205C90.7648 466.086 78.1732 458.963 65.796 451.499L431.547 511.46ZM431.547 511.46C431.347 511.076 431.318 510.616 431.324 510.047C431.325 509.963 431.327 509.875 431.329 509.785C431.347 509.01 431.369 508.029 430.771 507.194L430.589 506.94L430.281 506.992C427.921 507.389 425.952 508.493 424.135 509.748C423.439 510.229 422.756 510.738 422.084 511.24C421.88 511.392 421.677 511.543 421.475 511.693C420.601 512.341 419.733 512.964 418.834 513.509C405.126 521.796 390.576 528.603 375.429 533.815L375.427 533.816C360.45 539.038 345.03 542.088 329.31 544.543C289.824 550.475 249.582 549.052 210.614 540.346L210.611 540.346C196.211 537.218 182.065 533.02 168.291 527.786L168.29 527.786C150.846 521.193 134.042 513.016 118.089 503.358C105.926 495.888 94.4207 487.396 83.6992 477.973L83.6971 477.971C77.6686 472.731 73.0329 466.206 68.3753 459.651C67.6445 458.622 66.9131 457.593 66.1757 456.567C65.26 455.286 64.353 454.003 63.4443 452.718C62.8328 451.853 62.2205 450.987 61.6043 450.12C62.2906 449.837 62.8966 449.909 63.4874 450.14C63.8649 450.287 64.2379 450.501 64.6245 450.746C64.7659 450.835 64.916 450.934 65.069 451.035C65.3114 451.194 65.5613 451.358 65.7958 451.499L431.547 511.46Z" fill="#2ECC82" fill-opacity="0.22" stroke="black"/>
<path d="M433.694 420.473C430.431 423.319 426.228 422.684 422.442 423.215C403.466 425.881 384.396 428.291 365.364 430.729C347.261 433.054 329.149 435.255 311.056 437.617C292.811 439.999 274.585 442.561 256.34 444.932C238.095 447.304 219.803 449.496 201.539 451.859C185.77 453.889 169.964 455.654 154.29 458.253C139.973 460.635 126.946 458.709 114.356 451.147C96.3864 440.369 77.9802 430.274 59.7353 420.018C58.3159 419.36 56.8432 418.823 55.333 418.414C57.5911 414.752 61.5854 416.071 64.6595 415.672C88.8532 412.56 113.047 409.202 137.203 406.185C155.628 403.87 173.977 400.995 192.469 399.192C194.509 398.993 196.473 398.3 198.465 397.911C200.42 397.911 201.245 396.896 201.008 394.98C200.552 391.317 202.431 389.202 205.647 387.959C213.778 385.89 222.137 385.349 230.41 384.268C261.378 380.226 292.318 375.976 323.324 372.266C329.121 371.573 334.899 370.757 340.696 370.093C351.132 368.898 360.724 371.934 369.557 377.323C389.368 389.401 410.032 399.98 429.975 411.82C431.598 412.769 433.315 412.484 434.928 413.025C436.389 415.805 435.839 418.272 433.694 420.473Z" fill="#126F43"/>
<path d="M430.962 495.398C424.596 497.21 417.983 497.295 411.484 498.244C396.427 500.369 381.341 502.21 366.265 504.164C354.45 505.695 342.637 507.213 330.828 508.718C320.098 510.094 309.358 511.413 298.637 512.789C287.321 514.243 275.97 515.736 264.585 517.267C250.752 519.098 236.947 521.062 223.095 522.732C211.776 524.06 200.476 526.204 189.101 522.163C182.734 519.895 177.402 516.043 171.672 512.827C150.334 500.844 129.11 488.661 107.867 476.517C92.4965 467.731 77.139 458.92 61.7942 450.084C61.4905 449.974 61.168 449.926 60.8454 449.942C44.868 440.796 28.8812 431.659 12.8849 422.532C10.1145 420.957 8.72925 418.813 8.83361 415.644C8.919 413.148 8.93795 410.644 8.98539 408.139C23.625 417.627 39.0426 425.748 54.147 434.41C75.5957 446.707 97.0759 458.962 118.588 471.175C140.106 483.329 161.444 495.844 183.038 507.846C192.801 513.273 203.512 513.605 214.291 512.125C225.315 510.606 236.359 509.278 247.384 507.779C258.409 506.28 269.471 504.876 280.505 503.462C291.54 502.049 302.64 500.616 313.713 499.212C327.252 497.456 340.8 495.825 354.311 493.842C364.747 492.314 375.184 491.252 385.62 489.866C397.594 488.272 409.615 487.02 421.541 485.122C422.329 485.089 423.119 485.118 423.903 485.208L430.971 484.193C431.931 485.904 432.434 487.834 432.432 489.796C432.43 491.759 431.924 493.687 430.962 495.398Z" fill="#055B32"/>
<path d="M37.24 392.968C27.7523 394.372 17.923 397.712 9.7256 389.173C7.60034 385.852 7.1639 382.19 7.1639 378.319C7.20185 308.072 7.20185 237.825 7.1639 167.577C7.02413 164.258 7.44429 160.938 8.40679 157.758C10.9685 150.405 15.997 145.917 23.8054 144.864C27.8756 144.323 31.9459 143.82 36.0161 143.317C38.6727 142.985 41.3767 142.587 43.853 144.152C45.6461 146.771 45.5228 149.456 44.1186 152.188C41.5 154.37 38.2457 154.228 35.1337 154.627C25.0198 155.917 21.5853 159.589 21.5758 169.807C21.5188 237.284 21.5188 304.767 21.5758 372.256C21.5758 381.744 24.0331 383.936 33.4924 383.718C34.7498 383.525 36.0362 383.693 37.2021 384.201C39.0807 387.143 39.223 390.065 37.24 392.968Z" fill="#126F43"/>
<path d="M43.6914 144.399C36.2531 144.2 28.995 145.822 21.661 146.638C14.8962 147.387 9.24146 155.253 8.80503 163.346C8.7481 164.446 8.80503 165.556 8.80503 166.657C8.80503 237.866 8.76079 309.068 8.67224 380.264C8.67224 383.385 10.6931 386.07 9.77279 389.182C2.39133 384.79 -0.0375142 378.509 0.000436773 369.789C0.313532 299.315 0.21865 228.84 0.114285 158.365C0.114285 151.932 1.75566 146.581 6.7557 142.463C12.7045 139.048 19.4692 139.171 25.9399 138.156C31.8412 137.207 37.809 136.714 43.7389 136.021C45.7882 138.839 45.8736 141.628 43.6914 144.399Z" fill="#17B369"/>
<path d="M430.962 495.398C431.36 491.673 431.36 487.917 430.962 484.193C431.512 470.502 432.034 456.811 432.613 443.13C432.935 435.54 433.343 428.025 433.713 420.473C434.102 418.044 434.937 415.653 434.444 413.13C432.964 410.815 432.888 408.566 434.804 406.441C435.858 395.767 436.882 385.084 437.973 374.42C439.302 361.383 440.687 348.347 442.044 335.321C443.808 332.93 444.046 330.159 444.169 327.322C444.283 324.865 444.767 322.256 447.66 321.867C456.949 320.605 466.285 319.353 475.412 322.901C473.192 324.799 470.668 324.135 468.163 323.803C462.837 323.088 457.442 323.066 452.11 323.736C448.552 324.173 446.996 326.108 446.55 329.619C444.387 346.696 442.651 363.774 440.858 380.9C438.827 400.046 437.603 419.259 436.256 438.452C434.7 460.682 435.099 482.959 435.127 505.218C435.127 508.918 436.854 510.094 440.355 510.208C450.478 510.54 450.364 510.626 452.139 500.72C459.387 460.293 466.55 419.847 477.395 380.226C477.555 379.452 477.78 378.694 478.069 377.959C480.507 372.835 481.57 367.522 480.099 361.943C480.355 360.805 480.64 359.676 482.139 359.647C485.384 362.218 485.934 366.184 486.883 369.733C495.725 404.164 504.302 438.661 511.209 473.557C513.021 482.694 515.004 491.811 515.811 501.119C516.162 505.255 518.771 506.299 522.319 506.347C527.063 506.394 529.113 505.151 529.71 501.479C530.303 497.737 530.642 493.958 530.725 490.17C530.906 482.428 531.674 474.724 532.063 467.001C532.889 451.223 532.946 435.435 532.889 419.648C532.784 391.63 531.171 363.765 523.989 336.507C523.553 334.846 523.04 333.138 523.847 331.421L526.598 330.416C527.984 331.668 528.145 333.461 528.629 335.102C531.475 344.78 533.088 354.695 534.549 364.647C534.949 366.503 534.831 368.433 534.208 370.226C536.826 400.236 536.617 430.312 535.953 460.36C535.514 464.426 535.654 468.534 536.371 472.561C537.006 475.578 537.319 478.861 535.327 481.716C534.255 483.282 535.128 485.151 534.511 486.783C534.065 492.684 533.686 498.586 533.116 504.478C532.955 506.138 533.543 508.491 530.725 508.794C529.9 509.345 529.445 510.379 528.363 510.597C525.688 511.204 522.955 510.834 520.251 510.996C519.285 511.12 518.302 510.986 517.405 510.607C512.974 509.24 512.613 505.863 512.291 501.84C511.873 496.479 510.555 491.195 509.615 485.872C507.338 482.57 507.718 478.5 506.37 474.914C504.378 463.139 501.769 451.488 499.074 439.866C494.331 418.993 489.16 398.205 483.733 376.668C478.533 392.323 475.488 407.693 472.053 422.968C468.41 441.061 464.719 459.145 461.285 477.286C460.431 480.597 460.175 484.022 459.539 487.381C459.197 489.221 458.922 491.09 457.328 492.381C456.199 498.453 454.985 504.506 453.979 510.597C453.647 512.59 453.192 513.946 450.81 513.443C447.015 514.231 443.011 513.045 439.311 514.648C436.569 516.878 439.226 521.015 436.313 523.187C434.178 522.163 435.525 520.246 435.203 518.766C434.833 517.058 435.858 515.161 434.539 513.567L431.768 512.447C431.484 506.748 431.215 501.065 430.962 495.398Z" fill="#13AE65" fill-opacity="0.26"/>
<path d="M423.874 485.208C417.83 487.817 411.265 487.665 404.898 488.491C349.307 495.733 293.708 502.871 238.104 509.904C228.389 511.147 218.692 512.561 208.967 513.699C198.99 514.829 188.917 512.674 180.276 507.561C128.606 478.048 76.9232 448.576 25.2277 419.145C21.2523 416.877 17.3054 414.543 13.2826 412.37C11.4498 411.457 9.94739 409.994 8.98465 408.186C8.5577 403.443 11.053 401.023 15.5407 400.786C18.9278 400.606 22.2675 399.22 25.7115 400.017C25.8444 402.01 24.4118 401.659 23.4345 401.811C20.9392 402.19 18.4155 402.408 15.9297 402.835C13.9373 403.177 11.5938 403.338 11.1858 405.919C10.7778 408.499 12.571 409.467 14.4591 410.539C23.5199 415.672 32.4858 420.909 41.5561 426.061C85.8258 451.299 130.304 476.166 174.252 501.963C188.872 510.502 203.455 512.884 219.982 510.502C260.78 504.696 301.691 499.762 342.564 494.477L419.14 484.591C420.733 484.344 422.508 483.396 423.874 485.208Z" fill="#0B101E"/>
<path d="M37.2393 392.968C37.6978 390.199 37.7202 387.376 37.3058 384.6C35.7498 382.959 35.7118 380.881 35.7023 378.822C35.7023 354.154 35.6074 329.562 35.7023 304.931C35.7498 297.91 37.6758 295.539 44.042 293.546C51.6322 292.322 59.3458 291.383 67.0024 290.33C69.3743 290.093 71.8032 290.463 74.1182 289.618C74.9131 289.429 75.7223 289.305 76.5375 289.248C89.8204 287.569 102.97 285.538 116.225 283.992C118.407 283.745 120.589 283.185 122.6 284.628C122.856 284.977 122.994 285.399 122.994 285.833C122.994 286.266 122.856 286.688 122.6 287.037C116.035 290.206 108.805 290.017 101.822 290.927C83.6628 293.309 65.5223 295.776 47.3438 298.005C42.543 298.594 41.5278 299.903 41.5183 304.95C41.4424 338.746 41.4424 372.541 41.5183 406.336C41.5183 413.737 44.1843 415.938 51.6322 414.989C85.7881 410.653 119.887 406.109 154.014 401.63C165.589 400.112 177.193 398.737 188.768 397.114C192.098 396.649 195.884 397.057 198.113 393.575C199.337 391.535 198.986 389.277 198.986 387.095C198.986 356.364 198.986 325.643 199.053 294.912C199.053 292.654 198 289.713 201.358 288.556C202.943 290.244 202.601 292.351 202.611 294.39C202.611 318.518 203.113 342.655 202.383 366.744C202.098 375.947 203.74 385.188 201.833 394.372C201.453 396.184 201.14 397.702 199.546 398.727C189.48 401.573 179.034 401.991 168.749 403.386C135.769 407.864 102.762 412.076 69.7728 416.403C64.953 417.029 60.1332 417.731 55.3135 418.395C53.748 418.509 52.1635 418.594 50.5696 418.756C41.727 419.657 37.6757 416.061 37.5145 407.133C37.4575 402.427 37.3437 397.693 37.2393 392.968Z" fill="#181818"/>
<path d="M521.921 123.915C506.741 135.774 489.985 139.494 471.854 132.283C440.45 119.797 430.924 81.7133 452.309 55.4797C453.097 54.531 453.865 53.5822 454.643 52.5575C464.539 43.5252 475.896 38.0887 489.568 38.0982C499.169 38.0577 508.568 40.8503 516.589 46.1264C524.61 51.4024 530.897 58.9275 534.661 67.7594C538.426 76.5913 539.502 86.3375 537.754 95.7778C536.005 105.218 531.511 113.933 524.834 120.831C523.857 121.846 522.898 122.89 521.921 123.915Z" fill="url(#paint0_linear_409_2)"/>
<path d="M457.271 492.381C458.208 487.428 459.156 482.472 460.118 477.513C463.353 478.794 466.655 478.149 469.9 477.684C480.336 476.204 490.83 475.132 501.257 473.614C503.486 473.291 505.649 473.13 507.604 474.563C508.779 478.231 509.453 482.042 509.606 485.891L468.05 491.1C464.425 491.527 460.848 491.944 457.271 492.381Z" fill="#055B32"/>
<path d="M434.481 513.529C437.328 516.223 434.073 520.17 436.474 522.96C438.229 521.451 439.633 522.912 441.218 523.443C444.766 524.639 445.506 522.201 446.132 519.572C446.759 516.944 446.797 514.829 443.229 514.705C441.569 514.648 439.728 514.961 438.485 513.367C442.483 511.982 446.834 512.002 450.819 513.424C449.633 517.39 448.922 520.891 451.36 525.151C454.69 530.844 454.13 537.694 453.495 544.127C453.248 546.622 451.189 547.789 448.751 547.922C434.69 548.618 420.626 548.769 406.559 548.377C402.033 548.254 400.288 544.705 402.394 540.673C403.899 537.906 406.109 535.586 408.798 533.946C416.227 529.202 423.618 524.335 432.574 522.912C434.187 522.656 434.197 521.717 434.235 520.616C434.415 518.263 434.415 515.92 434.481 513.529Z" fill="#111011"/>
<path d="M528.505 509.705L530.668 508.756C530.291 510.562 530.316 512.428 530.743 514.222C531.169 516.016 531.986 517.694 533.135 519.136C537.878 525.616 539.387 533.51 540.725 541.271C541.37 544.914 539.463 547.485 535.63 547.799C531.239 548.195 526.829 548.331 522.423 548.206C516.578 547.988 513.248 544.279 514.387 538.567C515.668 532.134 515.478 525.73 515.421 519.288C515.421 516.233 519.093 513.994 517.318 510.569L519.121 509.686C520.772 510.853 520.25 513.576 522.66 514.297C526.996 515.635 527.233 512.125 528.505 509.705Z" fill="#141414"/>
<path d="M534.454 486.783L535.906 460.359C535.982 462.399 535.906 464.449 536.19 466.47C536.333 467.703 535.09 469.629 537.139 470.046C538.676 470.36 540.109 469.42 541.276 468.149C541.968 467.39 541.437 465.815 543.648 465.597C543.648 469.686 543.809 473.709 543.591 477.713C543.467 479.961 541.693 481.963 539.682 481.83C535.716 481.574 535.118 484.012 534.454 486.783Z" fill="#055B32"/>
<path d="M553.08 290.387C547.681 302.227 546.305 302.578 532.681 295.453C532.833 297.019 532.975 298.537 533.117 300.055C528.45 297.873 530.119 295.112 532.415 292.303C534.92 291.772 536.476 293.622 538.317 294.685C544.209 298.072 546.913 297.019 549.275 290.567C550.518 287.189 550.347 283.451 552.064 280.225L553.962 278.242C554.911 282.379 553.791 286.373 553.08 290.387Z" fill="#181B20"/>
<path d="M67.6561 291.525C60.1232 292.905 52.5223 293.883 44.8855 294.457C43.5288 295.074 42.8077 294.533 42.5231 293.176C42.2989 291.774 42.2257 290.352 42.3048 288.935C42.3048 246.031 42.3048 203.131 42.3048 160.234C42.3048 157.444 41.7925 154.541 43.7944 152.046L43.6806 144.399L43.766 136.021C43.766 118.646 43.7881 101.274 43.8324 83.905C43.8324 77.4533 43.8324 77.7759 50.1797 77.0548C62.7984 75.6127 75.3601 73.7626 87.9504 72.1022C99.2882 70.6032 110.636 69.1516 121.983 67.662C135.19 65.9162 148.387 64.1136 161.594 62.4058C172.79 60.9447 183.995 59.6164 195.181 58.1553C207.515 56.5518 219.735 54.8346 232.012 53.1932C243.341 51.6751 254.675 50.1761 266.016 48.696C276.453 47.3392 286.889 46.0584 297.269 44.6827C305.808 43.5536 314.347 42.3487 322.886 41.1343C326.519 40.6219 326.538 42.861 326.538 45.4702C326.538 63.6423 326.538 81.805 326.538 99.9582C328.123 101.856 327.8 104.142 327.81 106.362C327.81 107.492 327.81 108.611 327.886 109.74C327.943 112.065 327.886 114.38 327.886 116.704C328.05 118.28 328.101 119.865 328.038 121.448C328.038 193.896 328.038 266.345 328.038 338.793C328.038 342.057 328.645 345.482 326.491 348.414C324.593 350.406 322.051 350.548 319.546 350.852C285.779 354.922 252.079 359.476 218.369 363.945C214.28 363.945 210.304 364.894 206.291 365.406C203.103 365.833 201.547 364.913 201.765 361.431C201.955 358.471 201.765 355.491 201.765 352.512C201.765 347.617 202.41 346.886 207.249 346.26C208.655 346.215 210.05 346.002 211.405 345.624C216.547 345.102 221.671 344.4 226.765 343.451C229.261 342.987 230.247 341.687 230.238 339.277C230.238 336.127 230.143 332.977 230.238 329.837C230.38 326.326 228.976 325.017 225.409 325.558C219.811 326.393 214.185 327.028 208.568 327.702C206.338 327.967 203.938 329.011 201.813 327.208C201.813 315.093 199.849 317.768 211.936 315.89C230.285 313.043 248.758 311.041 267.174 308.584C277.942 307.142 288.701 305.614 299.508 304.457C304.698 303.897 305.684 302.996 305.533 297.635C305.182 285.662 305.276 273.679 305.257 261.705C305.15 208.296 305.134 154.883 305.21 101.467C305.21 99.8823 305.125 98.2979 305.21 96.7229C305.4 93.5255 303.777 92.3775 300.846 92.8519C285.912 95.2618 270.883 96.9506 255.874 98.7533C239.925 100.651 224.033 103.013 208.122 105.148C192.505 107.235 176.888 109.209 161.262 111.201C145.531 113.194 129.858 115.736 114.013 117.435C100.863 118.858 87.7795 120.812 74.6295 122.292C69.0128 122.928 68.9843 123.241 68.9369 128.782C68.7566 180.016 68.9369 231.193 68.8041 282.388C68.8326 285.462 70.1798 288.774 67.6561 291.525Z" fill="#FEFEFE"/>
<path d="M218.37 362.645C229.556 361.089 240.723 359.448 251.918 358.015C275.23 355.027 298.551 352.152 321.862 349.201C323.095 349.049 324.31 348.66 325.534 348.385C327.868 346.118 330.951 346.07 333.883 345.539C341.929 344.068 344.946 340.871 344.908 332.787C344.832 318.897 345.249 305.026 344.5 291.127C343.978 281.411 344.879 271.61 344.917 261.857C345.069 217.654 344.984 173.441 344.984 129.237C344.984 127.976 344.984 126.714 344.984 125.442C344.623 118.991 341.748 116.438 335.316 116.543C332.469 116.543 329.386 118.279 326.653 115.936L326.833 109.171C328.532 106.258 331.701 106.894 334.12 106.742C339.348 106.429 344.557 104 349.898 106.552C355.031 109.01 357.726 113.089 357.763 118.507C357.877 134.94 358.086 151.372 357.659 167.843C357.726 169.579 357.839 171.316 357.849 173.052C357.849 227.568 357.849 282.088 357.849 336.611C357.849 347.047 351.91 353.053 341.492 354.239C327.944 355.776 314.452 357.911 300.923 359.647C287.393 361.383 273.826 362.882 260.296 364.6C246.766 366.317 233.265 368.328 219.717 369.922C214.897 370.492 210.096 371.63 205.172 371.241C203.113 372.19 202.165 371.07 201.908 369.249C201.759 368.463 201.917 367.65 202.35 366.978C202.782 366.305 203.456 365.824 204.233 365.634C207.819 364.315 211.681 364.685 215.324 363.679C216.33 363.366 217.459 363.357 218.37 362.645Z" fill="#126F43"/>
<path d="M409.045 246.022C409.045 249.153 411.474 247.853 412.841 247.863C422.954 247.986 433.068 248.081 443.201 247.863C447.414 247.768 449.463 249.21 450.459 253.394C454.757 271.345 459.349 289.229 463.742 307.161C465.127 312.778 463.818 314.353 457.983 314.391C451.664 314.391 445.336 314.628 439.008 314.315C435.45 314.144 434.16 315.216 434.473 318.745C434.45 320.471 434.24 322.189 433.846 323.869C433.116 314.305 433.116 314.305 423.011 314.305C415.184 314.305 415.269 314.305 413.704 306.8C413.078 303.812 412.414 300.662 409.093 299.21C411.655 297.161 414.994 297.227 417.869 296.013C422.148 294.21 426.19 292.218 428.761 288.081C430.129 286.117 430.739 283.724 430.478 281.345C429.899 277.199 427.129 275.652 423.343 277.55C420.17 279.311 416.901 280.895 413.552 282.294C410.535 283.394 408.742 282.464 406.977 279.647C403.799 274.542 402.935 268.812 401.522 263.204C401.303 260.273 401.455 257.36 400.715 254.409C399.766 250.718 400.877 247.768 405.516 247.967C407.205 248.005 407.973 246.828 409.045 246.022Z" fill="#CBCCCC"/>
<path d="M202.469 377.892C202.469 380.577 202.544 383.272 202.307 385.938C202.042 388.936 203.626 389.41 206.017 389.116C202.544 390.065 201.804 392.456 202.222 395.71C202.44 397.475 202.772 399.78 199.565 398.746C201.548 396.602 201.7 394.002 201.7 391.232C201.656 359.41 201.621 327.588 201.596 295.766C201.596 293.404 201.368 291.022 201.254 288.698C200.556 287.919 200.162 286.915 200.144 285.869C200.127 284.823 200.487 283.807 201.159 283.005C202.876 282.711 203.057 284.058 203.417 285.149C203.996 291.259 203.692 297.389 203.635 303.508C203.825 314.893 203.835 314.893 215.135 313.243C220.742 312.408 226.378 311.687 232.013 311.013C235.505 310.595 236.928 308.878 236.909 305.415C236.909 297.825 236.824 290.235 236.909 282.711C236.975 224.836 237.108 167.018 236.805 109.171C236.805 104.199 236.216 103.763 231.169 104.427C191.671 109.484 152.212 114.863 112.724 119.882C101.282 121.344 89.9534 123.241 78.4258 124.399C72.3442 125.006 71.9457 125.613 71.8793 131.809C71.9694 134.812 71.8838 137.819 71.6231 140.812C71.5363 141.406 71.4063 141.993 71.2342 142.568C70.8482 144.118 70.7011 145.717 70.7977 147.311C70.7977 193.118 70.7408 238.925 70.7977 284.713C70.6744 287.455 71.0824 289.912 74.2607 290.804C72.1545 291.99 69.8395 291.421 67.6193 291.601V283.128C67.6193 231.458 67.5877 179.788 67.5244 128.118C67.5244 124.029 68.0842 121.865 72.8755 121.363C86.6327 119.93 100.324 117.909 114.043 116.125C131.823 113.817 149.606 111.511 167.392 109.209C183.446 107.112 199.499 104.949 215.552 102.823C234.256 100.344 252.956 97.8677 271.653 95.3946C281.473 94.0948 291.312 92.8993 301.122 91.4951C305.354 90.8879 306.815 92.0739 306.815 96.647C306.663 152.422 306.638 208.201 306.739 263.982C306.739 275.548 307.004 287.104 307.156 298.66C307.232 304.305 306.207 305.149 300.515 305.852C284.291 307.844 268.086 310.055 251.871 312.18C237.061 314.077 222.269 316.364 207.402 317.816C202.734 318.271 201.89 320.036 202.345 323.878C202.478 324.969 202.412 326.089 202.44 327.189C204.584 330.823 203.389 334.78 203.522 338.575C203.74 344.343 203.598 344.353 209.432 345.396C210.369 345.477 211.237 345.919 211.852 346.63C211.62 346.839 211.358 347.012 211.074 347.142C208.294 347.996 203.749 346.563 202.924 349.372C201.7 353.594 202.336 358.404 202.488 362.949C202.563 365.178 204.442 364.334 205.77 364.192C209.973 363.717 214.091 362.503 218.37 362.693C216.264 365.719 212.801 364.799 209.926 365.454C208.246 365.679 206.58 365.996 204.935 366.402C203.692 366.839 202.468 367.256 202.412 368.746C202.345 370.51 203.56 371.146 205.125 371.288C201.738 372.446 202.146 375.188 202.469 377.892Z" fill="#181818"/>
<path d="M423.361 395.871C414.253 391.887 406.056 386.241 397.337 381.545C390.819 378.034 384.281 374.477 378.095 370.425C364.917 361.791 350.96 359.239 335.239 361.507C296.026 367.199 256.681 371.943 217.392 377.01C216.149 376.621 214.631 377.56 213.075 375.919C218.009 374.021 222.886 374.021 227.572 373.442C266.207 368.382 304.85 363.423 343.503 358.566C352.823 357.357 362.284 359.201 370.467 363.822C387.28 373.148 403.931 382.797 420.582 392.399C421.796 393.091 424.386 393.186 423.361 395.871Z" fill="#0E1119"/>
<path d="M190.789 9.58766C149.992 4.30299 112.629 13.2784 78.4072 36.011C88.1132 17.2158 169.081 -1.87352 190.789 9.58766Z" fill="#101525"/>
<path d="M401.521 263.157C403.665 263.65 403.343 265.595 403.495 266.952C404.054 272.056 407.29 276.079 408.798 280.795C409.434 282.768 410.696 281.743 411.815 281.402C415.559 280.199 419.146 278.552 422.498 276.497C427.413 273.593 431.094 275.443 431.777 281.136C432.028 283.023 431.802 284.943 431.119 286.72C430.436 288.496 429.318 290.074 427.869 291.307C422.704 296.014 416.07 298.79 409.092 299.163C403.4 297.455 401.36 292.91 400.553 287.607C400.403 285.775 399.994 283.973 399.339 282.256C400.563 278.774 398.172 275.614 398.39 272.218L401.521 263.157Z" fill="#0E121D"/>
<path d="M211.33 23.7149C181.14 16.2765 151.33 17.861 121.842 27.51C131.899 16.4094 196.169 13.601 211.33 23.7149Z" fill="#0E1323"/>
<path d="M357.612 167.815C356.065 166.42 356.663 164.579 356.663 162.928C356.663 148.754 356.663 134.579 356.663 120.404C356.663 110.433 351.217 105.822 341.255 107.216C336.435 107.89 331.606 108.526 326.786 109.18C326.786 108.232 326.786 107.359 326.786 106.457C333.845 104.104 341.018 102.511 348.409 104.56C356.132 107.634 359.092 113.365 358.845 121.638C358.504 135.452 358.76 149.276 358.722 163.099C358.731 164.693 359.386 166.562 357.612 167.815Z" fill="#0F1626"/>
<path d="M348.37 104.569L326.738 106.467C326.681 104.304 326.624 102.131 326.558 99.9679C329.508 99.6358 332.459 99.1994 335.419 99.0191C340.675 98.5922 344.698 101.211 348.37 104.569Z" fill="#17B369"/>
<path d="M478.392 189.048C480.109 187.862 478.079 185.405 480.014 184.304C480.014 190.338 481.504 196.183 482.263 202.122C482.737 205.87 485.802 206.041 488.724 206.221C489.037 207.103 489.36 207.976 489.673 208.858C486.086 211.041 482.766 209.266 481.134 206.686C477.756 201.401 476.418 195.367 478.392 189.048Z" fill="#181A24"/>
<path d="M398.428 272.256C399.87 275.5 403.049 278.584 399.377 282.294C398.343 280.855 397.71 279.167 397.543 277.403C397.377 275.639 397.682 273.863 398.428 272.256Z" fill="#343940"/>
<path d="M47.3151 56.8744C47.2202 58.0793 46.5086 58.3924 46.0057 58.1742C45.2899 57.8836 44.6421 57.4478 44.1032 56.8942C43.5643 56.3406 43.146 55.6813 42.8748 54.9578C42.7135 54.4929 42.9792 53.5442 43.8236 53.8003C45.5788 54.3222 46.4706 55.7643 47.3151 56.8744Z" fill="#384053"/>
<path d="M503.135 206.989C498.628 206.989 494.074 207.938 489.662 206.24C494.188 206.069 498.704 205.671 503.135 206.989Z" fill="#181A24"/>
<path d="M55.9109 54.7493C55.114 56.0681 54.1842 57.4723 52.5333 58.0226C51.8122 58.2692 51.3758 57.4628 51.5845 56.884C52.2167 55.4768 53.3116 54.3284 54.687 53.6297C55.1519 53.3641 55.854 53.8669 55.9109 54.7493Z" fill="#222B3F"/>
<path d="M52.894 62.4628C54.1559 63.3546 55.4462 64.2465 55.9111 65.7835C56.1673 66.5994 55.1805 66.9315 54.7631 66.7322C53.3509 66.1063 52.2404 64.9515 51.6701 63.5159C51.4329 62.7948 52.2963 62.6335 52.894 62.4628Z" fill="#1C2438"/>
<path d="M44.176 66.9883C43.436 66.9029 42.7528 66.6373 43.0185 65.8688C43.6045 64.4116 44.7291 63.236 46.159 62.586C46.5764 62.3773 47.5346 63.0604 47.288 63.7056C46.6166 65.0963 45.529 66.2437 44.176 66.9883Z" fill="#232B3B"/>
<path d="M431.217 146.894C429.528 143.934 429.623 142.293 430.885 139.873C432.336 142.207 431.966 143.896 431.217 146.894Z" fill="#CBCCCC"/>
<path d="M439.396 136.571C437.84 138.26 436.208 138.175 434.168 137.255C435.904 134.807 437.773 136.496 439.396 136.571Z" fill="#CBCCCC"/>
<path d="M421.237 137.084C423.846 135.642 425.459 135.651 427.566 136.647C425.697 138.488 423.979 138.184 421.237 137.084Z" fill="#CBCCCC"/>
<path d="M430.487 127.33C431.176 128.21 431.604 129.264 431.725 130.373C431.846 131.483 431.654 132.605 431.17 133.611C429.093 131.828 429.529 130.091 430.487 127.33Z" fill="#CBCCCC"/>
<path d="M481.133 361.659C483.752 367.532 481.133 372.74 479.492 378.281C469.871 411.393 463.761 445.283 457.414 479.117C455.598 488.725 453.9 498.361 452.319 508.026C451.863 510.749 450.602 511.489 447.917 511.603C433.761 512.229 433.761 512.305 433.562 498.5C432.964 457.21 435.81 416.099 440.127 375.074C441.731 359.837 443.619 344.638 445.061 329.4C445.488 324.865 447.072 322.759 451.769 322.266C459.719 321.317 467.528 322.484 475.393 322.901L487.727 325.691C493.612 326.649 499.371 328.26 504.9 330.491C510.058 332.496 515.743 332.697 521.029 331.061C521.468 330.888 521.944 330.826 522.412 330.883C522.881 330.939 523.328 331.111 523.714 331.383C529.72 350.985 532.196 371.137 533.278 391.526C535.175 427.902 533.894 464.193 531.077 500.455C530.906 502.608 531.855 505.891 529.179 506.688C524.765 508.049 520.036 508.002 515.649 506.555C514.52 506.176 514.701 504.658 514.587 503.595C509.207 461.849 497.983 421.308 488.173 380.492C486.583 373.465 484.535 366.55 482.044 359.79C480.146 358.442 478.571 356.545 476.01 356.146C477.297 356.488 478.461 357.187 479.367 358.163C480.274 359.138 480.886 360.35 481.133 361.659Z" fill="#FEFEFE" fill-opacity="0.09"/>
<path d="M480.653 361.809L480.642 361.751C480.412 360.536 479.843 359.409 479.001 358.503C478.159 357.597 477.077 356.947 475.881 356.629L476.087 355.652C477.477 355.868 478.586 356.491 479.57 357.208C480.037 357.548 480.483 357.915 480.915 358.27L480.978 358.322C481.434 358.696 481.875 359.057 482.333 359.382L482.46 359.471L482.513 359.617C485.012 366.396 487.065 373.331 488.66 380.378C490.564 388.302 492.523 396.218 494.482 404.136C502.608 436.981 510.745 469.867 515.083 503.531L515.084 503.542L515.084 503.542C515.107 503.757 515.119 503.994 515.131 504.219C515.134 504.289 515.138 504.358 515.141 504.424C515.158 504.719 515.18 504.991 515.228 505.235C515.324 505.722 515.495 505.975 515.806 506.081C520.095 507.495 524.717 507.54 529.032 506.21L529.036 506.209C529.597 506.042 529.937 505.758 530.159 505.411C530.39 505.051 530.514 504.586 530.57 504.031C530.625 503.475 530.608 502.87 530.585 502.244L530.58 502.115C530.558 501.543 530.536 500.949 530.578 500.416C530.578 500.415 530.578 500.415 530.578 500.415L531.077 500.455C533.894 464.193 535.175 427.902 533.278 391.526L480.653 361.809ZM480.653 361.809L480.676 361.862C481.932 364.679 481.938 367.338 481.419 369.999C481.069 371.792 480.493 373.543 479.9 375.347C479.599 376.26 479.294 377.187 479.012 378.139L479.012 378.142C469.995 409.176 464.059 440.892 458.13 472.575C457.728 474.725 457.326 476.875 456.922 479.024C455.106 488.636 453.407 498.276 451.826 507.944C451.608 509.245 451.215 509.965 450.651 510.395C450.07 510.838 449.214 511.047 447.895 511.103L447.894 511.103L447.692 511.112C444.243 511.265 441.683 511.378 439.76 511.262C437.792 511.143 436.606 510.787 435.841 510.093C435.08 509.402 434.639 508.288 434.394 506.395C434.149 504.506 434.112 501.957 434.062 498.493C433.464 457.229 436.309 416.14 440.624 375.127C441.25 369.179 441.92 363.232 442.59 357.284C443.635 348.009 444.68 338.731 445.558 329.447L445.558 329.447C445.769 327.215 446.257 325.686 447.186 324.651C448.106 323.626 449.534 323.003 451.821 322.763L451.821 322.763L451.828 322.762C457.645 322.068 463.365 322.515 469.145 322.967C471.195 323.127 473.252 323.288 475.324 323.398L480.653 361.809Z" stroke="black" stroke-opacity="0.8"/>
<path d="M552.062 280.225C552.508 284.741 551.113 288.897 549.5 292.986C547.603 298.034 544.833 299.239 540.013 296.952C537.395 295.55 534.861 293.998 532.423 292.303C521.724 282.067 512.179 270.69 503.959 258.375C502.527 256.269 501.113 255.083 498.267 255.254C494.092 255.51 490.202 254.039 488.551 249.94C487.365 247.028 485.705 246.743 483.134 247.094C481.725 247.224 480.306 247.201 478.902 247.028C478.096 246.971 477.261 246.582 477.498 245.595C477.578 245.306 477.726 245.04 477.929 244.819C478.131 244.598 478.384 244.428 478.665 244.324C485.022 243.252 491.255 241.392 497.735 241.117C498.375 241.113 499.007 241.251 499.586 241.522C500.166 241.793 500.677 242.189 501.085 242.682C508.011 250.396 517.66 254.02 526.123 259.409C533.02 263.811 540.288 267.645 546.616 272.92C548.998 274.931 551.113 277.142 552.062 280.225Z" fill="#FDFDFD"/>
<path d="M478.391 189.048C478.989 193.669 479.34 198.356 480.288 202.9C481.322 207.805 485.507 208.526 489.7 208.849C488.751 211.306 485.905 213.925 481.911 215.576C472.357 219.513 463.533 218.327 454.69 211.06C460.459 210.025 464.178 207.511 464.178 201.695C464.178 200.841 465.383 200.908 466.076 200.623C472.717 197.976 473.343 197.046 472.916 190.244C472.755 187.777 472.727 184.997 475.763 184.551C479.007 184.171 477.433 187.568 478.391 189.048Z" fill="#FCFCFB"/>
<path d="M464.073 176.676C464.174 177.456 464.208 178.243 464.177 179.029C463.874 181.306 465.676 184.181 462.394 185.67C458.855 187.245 455.174 187.862 451.606 186.154C449.709 185.206 450.525 182.91 450.885 181.562C451.55 178.507 451.78 175.374 451.568 172.255C451.445 166.477 456.084 167.815 459.234 167.302C462.593 166.742 464.718 167.966 463.978 172.046C463.82 173.604 463.804 175.173 463.931 176.733L464.073 176.676Z" fill="#FBFAFB"/>
<path d="M523.771 331.383C514.283 333.67 505.089 332.133 496.124 328.641C493.363 327.569 490.535 326.668 487.736 325.691C493.865 325.577 499.596 325.842 505.165 329.666C509.217 332.446 514.852 332.095 519.776 330.719C521.503 330.235 522.651 329.78 523.771 331.383Z" fill="#0A0F27"/>
<path d="M469.519 176.904C467.83 176.828 466.606 176.392 467.214 174.674C467.821 172.957 467.612 170.196 470.402 170.196C471.986 170.196 472.669 171.714 472.641 173.261C472.565 175.433 471.493 176.752 469.519 176.904Z" fill="#E4E4E4"/>
<path d="M293.675 418.082C296.294 417.2 298.675 416.488 300.981 415.587C301.809 415.299 302.524 414.755 303.022 414.033C303.52 413.312 303.775 412.45 303.751 411.574C303.827 409.524 302.451 408.623 300.905 408.272C296.275 407.2 291.863 405.615 286.825 407.902C281.787 410.188 275.81 410.549 270.117 410.833C269.912 410.794 269.719 410.706 269.554 410.577C269.389 410.448 269.257 410.283 269.168 410.093C267.669 406.222 264.851 404.818 261.872 407.181C259.766 408.841 258.618 408.31 256.654 407.314C252.536 405.236 244.453 405.985 241.644 408.395C243.2 409.837 245.259 408.926 247.005 409.581C248.751 410.236 250.696 410.122 252.593 410.35C249.102 413.613 240.487 416.45 236.768 415.226C239.481 414.61 240.781 413.13 239.87 410.843C238.959 408.556 236.293 408.604 234.528 408.889C230.214 409.648 225.786 409.447 221.559 408.3C217.915 407.295 216.302 405.264 216.426 401.554C216.521 398.443 217.118 395.065 212.877 393.794C211.511 393.386 211.986 392.285 212.877 391.668C213.501 391.175 214.274 390.91 215.069 390.919C224.557 392.2 233.096 387.247 242.375 387.361C243.779 387.361 245.648 387.095 246.493 387.854C250.288 391.317 255.088 390.625 259.453 390.966C265.401 391.441 271.322 391.915 277.223 392.807C279.11 393.061 281.019 393.106 282.916 392.94C284.254 392.845 286.18 392.702 286.047 390.9C285.952 389.666 284.225 389.42 282.954 389.239C277.385 388.442 271.948 386.554 266.17 387.247C265.174 387.37 264.102 386.754 262.792 386.403C269.937 383.044 279.424 380.71 282.423 381.488C282.29 383.167 279.045 382.313 279.794 384.647C280.459 386.706 282.498 386.915 284.054 387.124C288.519 387.661 292.895 388.777 297.072 390.444C303.827 393.205 307.337 390.53 307.565 383.215C307.565 381.44 307.461 379.192 309.529 378.888C315.298 378.034 320.222 373.68 326.692 375.368C329.966 376.213 333.552 373.736 337.129 375.141C340.706 376.545 344.216 378.623 348.372 377.845C349.14 377.702 350.174 378.091 350.706 377.702C355.839 373.983 358.732 377.626 361.474 381.061C363.742 383.907 366.693 383.528 369.662 383.537C370.962 383.537 372.366 383.661 372.613 385.255C372.831 386.668 371.664 387.029 370.535 387.342C369.264 387.712 368.068 388.357 367.973 389.752C367.973 390.312 368.751 391.137 369.378 391.488C370.896 392.361 371.788 391.099 372.433 390.103C374.027 387.636 376.588 387.475 378.078 389.154C381.095 392.484 385.099 393.035 388.884 394.401C390.204 394.919 391.474 395.554 392.68 396.298C395.402 397.864 396.598 399.401 392.85 401.374C391.579 402.038 390.725 403.499 388.903 405.397C394.539 404.885 399.217 406.687 403.609 403.974C404.011 403.789 404.449 403.698 404.89 403.708C406.551 409.401 413.22 405.046 416.048 409.477C417.737 412.143 421.636 413.367 425.023 414.382C426.475 414.809 428.467 415.558 428.278 417.314C428.088 419.069 425.896 419.116 424.558 419.866C423.221 420.615 421.076 421.175 420.279 419.572C417.158 413.329 415.535 415.084 412.917 420.103C411.674 422.503 407.661 422.314 405.023 422.276C393.828 422.095 383.135 426.071 372.12 426.128C364.823 426.194 357.755 429.923 350.383 427.266C350.07 427.164 349.73 427.188 349.434 427.333C342.433 431.327 335.829 428.073 329.15 426.213C328.4 426.004 327.328 425.919 326.986 425.407C323.552 420.131 318.647 421.185 313.95 422.56C306.588 424.648 299.984 423.822 293.675 418.082Z" fill="#126F43"/>
<path d="M191.168 450.454C182.334 449.154 174.735 455.103 165.93 453.946C161.907 453.414 158.34 456.052 154.118 455.236C152.22 454.876 149.943 455.018 148.207 454.382C145.361 453.339 143.046 451.327 140.617 455.189C139.924 456.299 137.059 456.242 136.253 455.122C132.989 450.606 127.941 452.086 123.719 450.986C120.069 449.992 116.562 448.535 113.283 446.65C112.381 446.147 111.385 445.388 111.879 444.003C112.324 442.798 113.245 442.466 114.469 442.352C117.173 442.157 119.847 443.029 121.917 444.781C123.112 445.682 124.573 446.678 126.234 445.578C126.58 445.374 126.853 445.066 127.013 444.698C127.173 444.33 127.213 443.92 127.125 443.528C126.984 442.741 126.587 442.022 125.995 441.483C125.403 440.944 124.65 440.616 123.852 440.549C121.233 440.264 119.298 438.319 116.841 437.807C115.145 437.358 113.356 437.406 111.687 437.946C110.018 438.486 108.54 439.495 107.429 440.853C106.945 441.431 106.328 442.162 105.455 441.621C104.583 441.08 104.763 440.416 105.047 439.562C106.167 436.232 103.88 436.583 102.258 437.456C99.4117 438.974 98.1119 437.627 95.8158 435.995C91.6837 432.988 87.0609 430.722 82.1535 429.297C77.2957 427.978 74.2217 425.407 71.4893 421.061C74.5473 420.976 77.5183 422.086 79.7721 424.154C83.4438 427.228 88.311 427.836 92.7702 429.429C94.2598 429.97 95.3225 429.686 95.7779 428.206C96.2333 426.725 95.9676 425.207 94.3357 424.648C92.7039 424.088 90.6355 424.002 87.8841 421.906C93.5767 422.285 97.8083 419.23 102.694 422.342C107.77 425.568 108.814 424.771 112.381 420.008C114.279 417.418 117.524 418.215 119.972 419.629C121.48 420.492 122.704 421.706 124.621 421.526C125.712 421.412 127.059 421.64 127.467 420.407C127.875 419.173 126.319 419.107 125.939 418.414C124.042 415.008 127.391 414.021 129.156 413.319C131.698 412.304 134.678 412.371 137.486 412.057C138.871 411.925 140.645 411.849 141.006 413.623C141.395 415.615 139.412 415.52 138.16 416.109C137.458 416.422 136.822 416.868 135.37 417.712C139.317 419.382 144.146 419.885 142.657 425.91C145.503 422.114 148.093 419.097 153.093 421.27C154.393 421.83 155.418 420.52 155.579 419.097C155.795 417.843 155.821 416.564 155.655 415.302C154.706 409.97 157.998 409.543 162.04 407.94C168.511 405.369 175.038 406.592 181.443 405.53C182.486 405.359 183.919 405.264 184.64 405.815C187.24 407.816 189.384 409.809 191.386 405.074C191.974 403.689 194.042 404.353 195.077 405.482C197.335 407.968 198.872 406.858 200.181 404.591C202.012 401.498 203.397 402.769 204.375 405.131C205.75 408.462 207.591 410.084 211.68 410.369C216.68 410.72 221.329 413.718 226.804 412.333C227.796 412.209 228.804 412.349 229.725 412.739C230.646 413.129 231.448 413.754 232.05 414.553C226.955 417.864 221.614 416.839 216.063 415.976C212.354 415.397 208.122 415.416 205.494 419.335C205.207 419.713 204.835 420.019 204.408 420.229C203.982 420.438 203.512 420.544 203.037 420.539C197.04 421.109 191.158 422.902 185.01 421.147C183.699 420.869 182.345 420.853 181.028 421.101C179.711 421.348 178.456 421.854 177.334 422.589C172.496 425.539 167.524 425.141 162.591 423.272C157.306 421.27 153.463 423.414 149.83 426.896C147.695 428.955 147.628 430.995 149.64 433.063C151.651 435.132 153.435 437.893 156.623 435.302C158.919 433.405 161.129 434.818 163.378 434.79C163.682 434.79 164.127 434.79 164.327 434.989C167.23 438.784 167.439 439.467 170.968 438.395C176.063 436.849 181.5 440.245 186.376 436.991C185.133 434.591 182.297 436.773 180.741 434.572C185.598 432.2 190.228 430.264 195.181 434.012C196.13 434.752 197.524 435.644 198.587 435.511C204.792 434.743 209.801 437.181 214.64 441.412C213.597 441.412 212.638 441.412 211.68 441.412C210.727 441.513 209.765 441.449 208.834 441.223C205.541 439.894 203.084 440.672 201.082 443.604C199.517 445.9 197.391 445.635 195.276 444.335C194.327 443.765 193.53 442.75 192.553 442.57C190.76 442.247 188.511 441.688 187.467 443.832C186.424 445.976 188.264 446.925 189.678 447.94L191.139 449.003L191.168 450.454Z" fill="#126F43"/>
<path d="M299.453 411.346C295.183 413.414 159.272 431.782 155.239 431.099C157.678 429.041 292.375 410.397 299.453 411.346Z" fill="#181818"/>
<path d="M231.595 425.359C230.494 429.268 227.8 432.665 232.25 435.558C235.343 437.589 239.242 435.416 242.069 438.348C237.126 437.219 232.183 441.792 226.747 436.014C224.024 433.111 217.477 432.219 212.249 432.219C211.965 432.219 211.671 432.456 211.367 432.541C208.616 433.262 206.044 433.035 203.91 430.966C203.795 430.785 203.72 430.581 203.691 430.368C203.662 430.155 203.678 429.939 203.739 429.733C206.016 428.585 207.847 427.181 211.025 427.835C220.342 429.818 220.409 429.515 231.595 425.359Z" fill="#126F43"/>
<path d="M247.204 435.53L322.461 425.293C322.565 426.004 322.66 426.706 322.755 427.418L247.517 437.665L247.204 435.53Z" fill="#181818"/>
<path d="M232.989 440.454C233.612 440.598 234.219 440.801 234.802 441.061C236.035 441.754 238.9 440.872 238.379 442.892C237.923 444.676 235.219 446.896 233.274 445.682C230.304 443.784 228.027 444.439 225.437 445.815C225.149 445.979 224.819 446.055 224.488 446.033C222.221 445.862 219.745 446.982 217.762 445.245C217.287 444.837 216.974 443.348 217.249 443.12C219.052 441.46 221.348 442.617 223.426 442.371C225.124 442.162 226.908 442.475 228.578 442.162C230.101 441.739 231.579 441.167 232.989 440.454Z" fill="#126F43"/>
<path d="M279.954 422.124C274.119 424.278 268.645 423.073 263.294 423.196C262.974 423.163 262.681 423.004 262.479 422.755C262.276 422.506 262.18 422.187 262.212 421.868C262.212 420.985 262.772 419.904 263.37 420.075C268.578 421.574 274.252 417.105 279.954 422.124Z" fill="#126F43"/>
<path d="M272.089 428.082C266.957 429.562 262.981 429.097 259.034 428.775C258.561 428.698 258.135 428.445 257.841 428.066C257.547 427.688 257.408 427.212 257.45 426.735C257.554 425.17 258.949 424.648 260.097 424.515C264.12 424.06 267.431 425.976 272.089 428.082Z" fill="#126F43"/>
<path d="M96.2148 415.35C101.68 411.82 104.82 416.469 108.758 417.522C104.298 419.315 100.295 418.746 96.2148 415.35Z" fill="#126F43"/>
<path d="M280.012 438.3C274.993 437.039 270.895 443.566 264.766 439.249C270.278 438.462 274.766 435.084 280.012 438.3Z" fill="#126F43"/>
<path d="M328.153 432.304C326.255 434.202 324.899 434.107 323.523 432.959C323.421 432.773 323.367 432.564 323.367 432.352C323.367 432.139 323.421 431.93 323.523 431.744C325.183 430.207 326.398 431.526 328.153 432.304Z" fill="#126F43"/>
<path d="M43.8048 152.046C43.8048 198.852 43.7605 245.639 43.672 292.408C43.672 293.603 43.8143 294.153 44.8674 294.457C38.5012 296.203 37.5999 297.36 37.5999 304.011C37.5999 329.312 37.5999 354.612 37.5999 379.913C37.5999 381.488 37.4196 383.053 37.3247 384.657C36.2526 384.894 35.1995 385.198 34.1179 385.368C24.4783 386.896 20.1709 383.205 20.1709 373.433C20.1709 305.38 20.1709 237.328 20.1709 169.276C20.1709 159.152 23.6339 154.94 33.5391 153.27C36.8788 152.644 40.3703 152.426 43.8048 152.046Z" fill="#181818"/>
<path fill-rule="evenodd" clip-rule="evenodd" d="M434.617 409.536C434.672 408.506 434.727 407.472 434.784 406.441C434.474 405.723 434.553 404.834 434.629 403.972C434.746 402.646 434.858 401.383 433.541 400.9C432.106 400.344 430.817 399.506 429.531 398.67C427.61 397.423 425.698 396.18 423.323 395.89C421.798 394.3 419.915 393.235 418.025 392.166C417.716 391.992 417.407 391.817 417.099 391.64C410.776 387.984 404.434 384.371 398.095 380.759C391.716 377.125 385.339 373.492 378.987 369.818L378.793 369.706C370.689 365.018 362.609 360.345 352.848 359.752C342.514 359.113 332.394 360.625 322.277 362.138C317.811 362.805 313.346 363.472 308.863 363.955C300.723 364.837 292.608 365.962 284.486 367.088C279.249 367.813 274.01 368.539 268.758 369.201C263.005 369.927 257.254 370.668 251.502 371.409C243.862 372.393 236.221 373.377 228.578 374.325C227.638 374.443 226.659 374.476 225.669 374.509C222.752 374.608 219.739 374.71 217.344 376.991C216.932 377.465 216.374 377.789 215.758 377.912C215.141 378.036 214.502 377.952 213.938 377.674C210.229 375.905 206.631 376.813 203.039 377.72C202.836 377.771 202.633 377.822 202.43 377.873C201.509 379.627 201.62 381.462 201.731 383.298C201.789 384.264 201.847 385.23 201.756 386.184C201.433 389.609 202.97 390.444 205.978 389.097C206.668 388.415 207.524 388.355 208.391 388.294C208.621 388.278 208.852 388.262 209.08 388.234C220.466 386.817 231.851 385.372 243.236 383.898C258.834 381.861 274.426 379.834 290.011 377.816C294.33 377.252 298.654 376.722 302.978 376.192C312.533 375.022 322.089 373.852 331.586 372.304C344.812 370.141 357.298 371.137 368.873 378.319C379.546 384.932 390.519 391.028 401.493 397.125C411.6 402.74 421.706 408.354 431.577 414.372C433.285 415.399 433.585 414.663 433.886 413.923C434.022 413.59 434.158 413.256 434.424 413.082C434.49 411.909 434.553 410.724 434.617 409.536ZM493.218 476.257C497.997 475.687 502.776 475.117 507.555 474.544C507.205 474.044 506.942 473.489 506.777 472.902C506.029 463.608 503.782 454.614 501.535 445.621C501.018 443.552 500.501 441.483 500.002 439.411C499.59 437.478 498.151 436.57 496.69 435.648C496.574 435.574 496.457 435.5 496.34 435.426C492.507 432.961 488.488 430.81 484.464 428.658C480.79 426.691 477.111 424.723 473.57 422.513C473.216 422.198 472.765 422.014 472.292 421.991C471.818 421.969 471.352 422.109 470.97 422.39C466.84 440.669 463.209 459.044 460.078 477.513C460.268 479.193 460.647 480.559 462.924 480.141C465.837 479.601 468.778 479.193 471.719 478.832C478.886 477.967 486.052 477.112 493.218 476.257Z" fill="url(#paint1_linear_409_2)"/>
<path d="M438.439 513.367C439.217 513.472 439.985 513.614 440.763 513.662C448.353 514.107 448.354 514.098 447.13 521.622C446.522 525.18 443.126 526.498 440.422 524.098C439.207 523.007 437.832 523.149 436.475 522.96C436.475 520.512 436.532 518.064 436.475 515.616C436.371 514.107 436.883 513.329 438.439 513.367Z" fill="#F8F8F8"/>
<path d="M528.506 509.705V516.29C523.876 515.777 518.231 517.238 519.151 509.724L528.506 509.705Z" fill="#E8E8E7"/>
<path d="M481.132 361.659C479.424 359.097 477.242 357.285 474.035 356.915C473.266 356.839 472.46 356.402 472.706 355.397C472.953 354.391 473.797 354.581 474.604 354.714C477.896 355.235 481.103 355.871 482.09 359.79L481.132 361.659Z" fill="#126F43"/>
<path d="M199.489 394.885C198.445 396.924 196.7 397.579 194.489 397.864C155.551 402.861 116.617 407.902 77.6855 412.987C68.3021 414.211 58.9377 415.606 49.5354 416.659C42.9509 417.399 39.8863 414.458 39.8768 407.703C39.8768 372.968 39.8768 338.233 39.7725 303.499C39.7725 299.049 41.4803 297.294 45.6834 296.781C61.4899 294.836 77.2775 292.759 93.0651 290.662C102.894 289.353 112.714 287.92 122.534 286.544C129.175 283.698 136.367 283.821 143.312 282.749C156.974 280.633 170.827 279.504 184.432 277.313C189.935 276.43 195.457 275.614 199.764 280.538C200.105 280.831 200.359 281.211 200.501 281.637C200.643 282.063 200.667 282.519 200.571 282.958C199.337 293.48 199.916 304.04 199.888 314.58C199.802 339.638 199.888 364.695 199.888 389.742C199.84 391.46 200.191 393.215 199.489 394.885Z" fill="#15B067"/>
<path d="M238.123 283.024C238.123 291.041 237.971 299.068 238.256 307.066C238.379 310.52 237.051 311.895 233.901 312.303C224.413 313.511 214.954 314.761 205.523 316.051C203.417 316.336 202.212 315.814 202.316 313.385C202.459 310.244 202.411 307.095 202.449 303.954C203.91 302.218 206.007 302.057 208.028 301.772C213.977 301.041 219.878 299.874 225.884 299.704C229.281 299.59 230.628 298.043 230.448 294.628C230.252 290.708 230.271 286.78 230.504 282.863C221.017 283.223 211.994 287.18 202.421 284.76L201.368 283.005C201.003 282.623 200.762 282.141 200.675 281.62C200.277 277.569 203.341 276.781 206.112 276.629C212.117 276.307 217.952 274.865 223.901 274.257C229.594 273.679 230.258 272.787 230.315 267.161C230.419 257.749 230.4 257.673 221.254 258.726C198.417 261.477 175.637 264.665 152.847 267.768C150.191 268.128 147.525 268.347 144.859 268.593C141.215 268.935 139.413 267.645 140.162 263.849C141.434 260.69 144.28 260.235 147.117 259.884C172.677 256.772 198.151 252.976 223.73 249.978C229.888 249.257 230.201 248.697 230.277 242.521C230.372 233.185 230.381 233.185 221.159 234.475C185.485 239.466 149.745 243.963 114.024 248.565C103.53 249.902 92.9988 251.003 82.5528 252.739C78.8715 253.356 77.5052 254.912 77.4104 258.612C77.1447 269.58 77.2681 269.779 88.3023 267.844C90.9165 267.227 93.5697 266.79 96.2436 266.534C96.7654 266.534 97.2967 266.487 97.8185 266.478C100.959 266.525 103.976 265.32 107.135 265.529C107.938 265.521 108.737 265.422 109.517 265.235C117.24 263.527 125.115 262.863 132.933 261.876C135.39 261.563 138.407 260.804 140.067 263.935C140.788 267.996 138.73 269.675 134.963 270.121C119.65 271.952 104.394 274.182 89.0708 275.927C88.2928 276.013 87.5053 276.06 86.7273 276.183C77.4863 277.692 77.0878 277.313 77.4389 286.089C77.5341 286.875 77.4626 287.673 77.2288 288.43C76.995 289.187 76.6043 289.886 76.0821 290.481L74.2984 290.747C72.1067 290.301 68.3021 291.497 70.3041 286.8C69.6779 285.443 69.953 283.954 69.953 282.607C69.953 237.009 69.953 191.414 69.953 145.822C69.953 144.427 69.6115 142.976 70.3895 141.657C72.287 139.987 74.7443 139.864 77.0309 139.541C99.0804 136.439 121.196 133.792 143.284 130.86C171.624 127.065 199.973 123.45 228.313 119.655C237.801 118.393 237.801 118.308 237.801 127.596C237.801 177.691 237.801 227.783 237.801 277.872C237.82 279.58 237.516 281.335 238.123 283.024Z" fill="#FAFCFC"/>
<path d="M140.438 264.001C140.382 266.25 140.543 267.796 143.731 267.388C156.122 265.69 168.551 264.286 180.961 262.711C194.623 260.965 208.247 258.916 221.948 257.455C231.616 256.449 231.654 256.838 231.663 266.857C231.663 274.362 230.23 275.5 222.545 276.07C216.293 276.525 210.126 277.967 203.873 278.584C201.236 278.84 201.369 280.349 201.236 282.066C200.742 282.642 200.287 282.613 199.87 281.981L199.803 281.582L199.386 281.506C195.913 274.647 189.841 276.705 184.462 277.493C170.344 279.561 156.16 281.146 142.023 283.053C137.051 283.726 132.051 284.201 127.099 285.064C125.581 285.33 124.034 286.013 122.564 284.893L80.3147 290.112C78.9105 290.282 77.4683 290.349 76.0831 290.472C76.0831 287.464 76.4057 284.419 76.0072 281.468C75.4948 277.597 77.288 276.013 80.751 275.586C93.9833 273.929 107.216 272.284 120.448 270.652C125.742 269.998 131.036 269.314 136.33 268.669C139.177 268.328 139.945 266.525 139.822 264.011L140.438 264.001Z" fill="#181818"/>
<path d="M122.563 284.893C133.626 283.309 144.669 281.677 155.77 280.149C167.004 278.622 178.256 277.218 189.499 275.757C195.391 274.988 198.275 276.648 199.423 281.449C194.945 277.113 189.641 277.853 184.129 278.603C164.565 281.354 144.973 283.897 125.39 286.487C124.443 286.56 123.491 286.56 122.544 286.487L122.563 284.893Z" fill="#1A2239"/>
<path d="M199.869 281.981L201.235 282.066C201.235 282.379 201.321 282.702 201.368 283.015C201.368 284.912 201.283 286.81 201.245 288.707C199.679 290.292 200.391 292.294 200.391 294.096C200.34 325.887 200.318 357.683 200.324 389.486C200.324 391.298 201.007 393.281 199.489 394.894C199.451 358.335 199.42 321.778 199.395 285.225C199.468 284.133 199.627 283.048 199.869 281.981Z" fill="#1A2239"/>
<path d="M427.423 546.47H408.039C406.436 546.47 404.804 546.47 403.893 544.857C402.83 542.96 404.064 541.489 405.155 540.218C409.899 534.658 416.312 531.612 422.688 528.548C425.923 526.992 428.988 524.639 432.793 524.98C435.079 525.189 438.001 523.766 439.216 527.827C439.842 529.905 442.252 527.827 443.675 527.343C450.003 525.294 449.975 525.208 451.123 531.878C453.371 544.876 452.859 545.578 440.174 546.11C435.923 546.271 431.635 546.11 427.423 546.11V546.47Z" fill="#FBFBFB"/>
<path d="M517.584 521.014C518.836 520.493 520.43 523.149 521.237 519.999C521.92 517.2 525.032 516.992 526.512 519.563C527.622 521.517 528.191 522.589 529.975 520.236C531.009 518.861 531.455 520.236 531.872 520.939C535.753 527.409 537.432 534.629 538.713 541.925C539.13 544.307 537.527 545.673 535.051 545.825C530.8 546.081 526.512 546.489 522.29 546.034C518.068 545.578 515.544 543.007 516.464 538.823C517.734 532.977 518.112 526.973 517.584 521.014Z" fill="#FBFBFB"/>
<path d="M326.607 115.945C329.501 116.552 332.157 115.063 335.013 114.996C343.438 114.92 346.398 117.71 346.398 126.106C346.398 151.989 346.398 177.871 346.398 203.754C346.398 223.678 346.493 243.527 346.398 263.413C346.341 272.312 344.985 281.278 345.734 290.083C346.901 303.812 346.114 317.493 346.389 331.184C346.616 342.569 342.945 346.364 331.569 347.436C329.558 347.626 327.556 348.034 325.554 348.385C326.588 346.848 326.502 345.112 326.502 343.366C326.284 316.516 326.104 289.665 326.284 262.825C326.616 213.868 326.123 164.873 326.607 115.945Z" fill="#181818"/>
<path d="M245.03 75.6888C245.03 85.2524 245.03 85.556 236.026 86.8843C220.02 89.2278 203.948 91.1538 187.913 93.279C172.334 95.3473 156.765 97.4631 141.186 99.5219C136.205 100.186 131.186 100.604 126.224 101.419C123.786 101.818 123.568 100.623 123.568 98.8199C123.568 94.2468 123.786 89.6547 123.482 85.0911C123.264 81.7989 124.734 80.518 127.638 80.1575C138.397 78.8292 149.156 77.5768 159.896 76.1821C175.333 74.1707 190.75 72.055 206.177 70.0056C218.321 68.3832 230.475 66.7987 242.629 65.1479C244.726 64.8632 245.02 66.0967 245.02 67.6526L245.03 75.6888Z" fill="#181818"/>
<path d="M297.099 325.899C297.099 336.193 297.099 335.966 286.663 337.133C276.226 338.3 265.515 339.875 254.983 341.507C248.342 342.522 247.858 342.275 247.867 335.814V331.07C247.867 320.728 247.867 320.947 258.304 319.856C268.921 318.745 279.499 317.303 290.059 315.728C297.194 314.675 297.166 314.466 297.166 321.592L297.099 325.899Z" fill="#181818"/>
<path d="M211.853 346.583C201.53 346.222 202.242 348.395 202.27 336.526C202.27 333.385 202.384 330.254 202.441 327.114C210.657 326.032 218.883 324.989 227.109 323.831C230.401 323.376 232.128 324.106 231.853 327.968C231.616 332.205 231.616 336.453 231.853 340.691C231.957 343.414 231.17 344.609 228.229 344.78C222.716 345.084 217.403 346.886 211.853 346.583Z" fill="#181818"/>
<path d="M304.661 111.325L304.718 264.874C304.718 276.089 304.566 287.303 304.794 298.508C304.86 301.715 303.845 303.034 300.799 303.432C287.858 305.074 274.926 306.876 261.985 308.556C256.065 309.324 250.03 309.504 244.214 310.785C240.173 311.658 240.087 310.017 240.106 306.99C240.191 294.039 240.106 281.089 240.106 268.138C240.106 218.688 240.106 169.241 240.106 119.797C241.387 118.203 243.161 117.757 245.097 117.473C263.123 114.826 281.15 112.966 299.177 110.556C301.103 110.338 303.019 109.844 304.661 111.325Z" fill="#FCFDFB"/>
<path d="M238.124 283.024C236.767 281.184 237.374 279.049 237.374 277.056C237.336 226.512 237.336 175.968 237.374 125.423C237.374 121.372 237.033 119.731 232.118 120.594C218.37 122.9 204.499 124.513 190.666 126.287C175.125 128.298 159.556 130.139 144.015 132.169C130.969 133.877 117.98 136.201 104.887 137.397C93.3122 138.459 81.9649 141.126 70.3425 141.628C70.3425 136.885 70.4088 132.141 70.295 127.397C70.238 124.977 70.7694 123.848 73.5872 123.507C93.0561 121.135 112.487 118.573 131.937 115.964C149.821 113.564 167.668 110.955 185.552 108.573C202.193 106.362 218.873 104.417 235.514 102.178C238.475 101.78 238.199 103.45 238.209 105.195C238.209 110.414 238.209 115.632 238.209 120.85C238.209 173.798 238.209 226.749 238.209 279.703C238.285 280.813 238.18 281.924 238.124 283.024Z" fill="#12AE65"/>
<path d="M304.661 111.325C293.067 112.814 281.463 114.285 269.869 115.812C259.973 117.112 250.078 118.488 240.191 119.826C240.191 115.252 240.419 110.66 240.096 106.097C239.85 102.529 241.586 101.353 244.613 100.935C263.74 98.5161 282.867 96.1916 301.976 93.6299C304.385 93.3073 304.699 94.3415 304.699 96.1726C304.68 101.22 304.667 106.271 304.661 111.325Z" fill="#12AE65"/>
<path d="M202.421 284.77L231.956 281.592C231.956 286.677 231.956 292.246 231.956 297.816C231.956 300.776 229.47 300.823 227.582 300.89C219.11 301.193 210.818 302.787 202.468 303.954L202.421 284.77Z" fill="#181818"/>
<path d="M70.3891 141.638L70.3037 286.8C68.9469 285.32 69.5162 283.498 69.5162 281.829C69.4783 236.743 69.4783 191.66 69.5162 146.581C69.5257 144.949 68.8995 143.051 70.3891 141.638Z" fill="#CDDBFB"/>
<path d="M402.384 283.916C402.384 283.119 402.384 282.322 402.536 281.544C402.754 279.941 403.266 277.891 404.813 277.749C406.71 277.578 406.274 279.874 406.501 281.108C407.08 284.22 408.181 285.339 411.52 283.954C415.733 282.199 419.993 280.605 423.855 278.119C427.147 276.003 428.902 277.559 429.547 280.813C430.354 284.609 428.807 287.616 426.103 290.102C422.042 293.84 417.004 295.719 411.758 296.933C408.911 297.578 406.596 296.392 404.927 293.821C403.001 290.776 402.488 287.417 402.384 283.916Z" fill="#FAF9F9"/>
<path d="M504.388 336.601C504.851 336.611 505.298 336.778 505.655 337.074C506.012 337.371 506.257 337.779 506.352 338.233C509.34 345.416 514.995 349.258 522.272 351.146C523.221 351.393 524.919 351.146 524.549 352.816C524.179 354.486 522.652 353.433 521.779 353.319C513.059 352.161 504.625 344.04 504.388 336.601Z" fill="#126F43"/>
<path d="M454.587 331.412C456.342 337.104 452.101 344.249 446.911 345.501C446.238 345.662 445.564 345.691 445.251 345.102C445.182 344.961 445.142 344.807 445.134 344.65C445.126 344.493 445.151 344.336 445.206 344.188C445.261 344.041 445.346 343.906 445.454 343.793C445.563 343.679 445.694 343.589 445.839 343.527C450.735 340.994 453.22 336.687 454.587 331.412Z" fill="#126F43"/>
<path d="M78.1023 332.417C78.1023 344.59 78.1024 344.571 65.8442 345.577C62.0491 345.881 58.3393 346.336 54.5822 346.715C51.4987 347.019 49.6391 345.662 49.5822 342.531C49.4873 336.696 49.5822 330.852 49.5822 325.017C49.5822 323.214 50.3222 322.066 52.2862 321.81C59.2976 320.861 66.2901 319.827 73.3015 318.964C76.3756 318.603 78.0454 320.264 78.1118 323.385C78.1783 326.507 78.1023 329.419 78.1023 332.417Z" fill="#181818"/>
<path d="M99.8305 391.792C100.333 394.467 99.2707 395.663 95.8551 396.071C82.4679 397.645 69.1377 399.685 55.779 401.46C52.9326 401.849 49.963 402.057 49.5266 397.835C49.1281 394.04 49.8301 391.611 54.3463 391.118C67.7525 389.657 81.1681 388.129 94.5079 386.146C99.3941 385.416 99.8969 387.721 99.8305 391.792Z" fill="#111111"/>
<path d="M123.597 355.691C123.597 348.907 123.597 348.746 130.238 347.683C135.931 346.734 141.737 346.27 147.496 345.577C150.921 345.169 152.696 347.066 152.771 350.141C153.047 361.526 153.967 362.399 143.379 362.759C140.251 362.955 137.145 363.402 134.09 364.097C125.257 365.852 123.597 364.571 123.597 355.691Z" fill="#181818" fill-opacity="0.39"/>
<path d="M86.5572 360.539C86.5572 353.632 86.6142 353.471 93.1987 352.436C98.6067 351.602 104.053 350.985 109.499 350.416C113.294 350.017 115.656 351.829 115.713 355.681C115.636 358.808 115.361 361.926 114.888 365.017C114.717 366.488 113.654 367.104 112.269 367.275C106.681 367.939 101.102 368.812 95.4852 369.23C87.0981 369.875 86.5193 369.192 86.5572 360.539Z" fill="#181818" fill-opacity="0.39"/>
<path d="M78.0172 364.116C78.0172 371.251 78.0171 371.251 71.0057 372.247C65.721 372.996 60.4269 373.67 55.1707 374.571C52.7893 374.979 50.8348 374.401 50.1612 372.209C48.9088 368.101 49.3832 363.812 49.8765 359.6C49.9999 358.603 51.0151 358.148 52.0113 358.015C59.165 357.066 66.3093 356.032 73.4725 355.169C76.0912 354.856 77.6946 356.326 77.9792 358.907C78.0915 360.641 78.1042 362.38 78.0172 364.116Z" fill="#181818" fill-opacity="0.39"/>
<path d="M161.377 351.26C161.377 343.309 161.377 343.395 169.166 342.674C174.148 342.209 179.1 341.364 184.072 340.776C187.962 340.349 189.973 342.019 189.907 346.156C189.698 358.566 191.529 356.08 179.698 357.93C176.918 358.366 174.138 358.879 171.377 359.429C163.009 361.099 161.386 359.78 161.377 351.26Z" fill="#181818" fill-opacity="0.39"/>
<path d="M138.133 390.198C133.265 390.312 132.298 389.249 132.924 383.822C133.142 381.981 133.806 380.9 135.713 380.634C142.099 379.752 148.455 378.67 154.85 377.968C157.317 377.693 158.645 379.581 158.503 381.934C158.36 384.287 159.793 387.854 156.008 388.015C150.296 388.253 144.859 390.236 138.133 390.198Z" fill="#181818"/>
<path d="M231.663 167.483C231.663 177.084 231.663 176.781 222.175 177.758C211.274 178.877 200.439 180.661 189.566 182.056C175.885 183.82 162.184 185.433 148.513 187.189C137.934 188.545 127.383 190.035 116.823 191.468C104.255 193.175 91.6841 194.877 79.1097 196.572C77.2122 196.828 76.0926 196.145 76.1116 194.02C76.1685 189.598 76.1116 185.177 76.1116 180.737C76.1116 178.839 77.1173 177.938 78.9579 177.71C94.5178 175.813 110.087 173.915 125.628 171.942C138.835 170.224 151.995 168.204 165.201 166.477C178.57 164.722 191.957 163.194 205.335 161.515C212.801 160.566 220.325 159.883 227.688 158.403C231.34 157.672 231.805 158.82 231.625 161.78C231.568 163.687 231.663 165.585 231.663 167.483Z" fill="#181818"/>
<path d="M231.671 142.103C231.671 150.765 231.671 150.879 223.284 151.97C203.056 154.608 182.809 157.036 162.562 159.703C149.811 161.382 137.116 163.498 124.365 165.13C110.674 166.923 96.9642 168.536 83.2355 170.054C76.0912 170.851 76.0723 170.689 76.0723 163.204C76.0723 152.236 76.0723 152.454 86.9262 151.078C100.465 149.361 114.023 147.852 127.515 145.689C141.291 143.488 155.247 142.406 169.09 140.623C182.003 138.953 194.868 136.941 207.772 135.215C214.309 134.342 220.921 134.029 227.421 132.976C231.083 132.387 231.956 133.64 231.671 136.885C231.538 138.63 231.671 140.386 231.671 142.103Z" fill="#181818"/>
<path d="M231.662 191.743C231.662 200.282 231.662 200.367 223.588 201.458C204.489 204.039 185.371 206.468 166.263 209.048C148.094 211.477 129.953 214.153 111.765 216.42C101.955 217.644 92.1448 218.735 82.3534 220.282C76.3667 221.23 76.0631 220.69 76.0536 214.437C76.1909 212.542 76.175 210.638 76.0061 208.745C75.2471 204.067 77.1257 202.037 81.7937 201.486C97.05 199.703 112.278 197.691 127.506 195.689C141.026 193.915 154.517 191.98 168.037 190.225C183.588 188.194 199.157 186.297 214.707 184.314C218.284 183.858 221.861 183.365 225.4 182.739C230.969 181.695 231.624 182.169 231.633 187.947C231.671 189.209 231.662 190.49 231.662 191.743Z" fill="#181818"/>
<path d="M76.0928 237.606C76.0928 227.967 76.0928 228.204 86.1498 226.923C101.235 225.026 116.254 222.549 131.33 220.547C147.033 218.46 162.782 216.695 178.484 214.656C194.348 212.587 210.196 210.424 226.027 208.166C230.771 207.492 231.625 208.033 231.663 212.768C231.526 215.613 231.552 218.464 231.739 221.306C232.223 225.301 230.268 226.639 226.739 226.999C210.202 228.707 193.75 231.117 177.298 233.47C161.615 235.718 145.847 237.341 130.144 239.39C114.755 241.402 99.3662 243.46 84.0245 245.794C76.0453 246.99 76.0928 247.293 76.0928 237.606Z" fill="#181818"/>
<path d="M140.437 264.001H139.791C135.674 261.762 131.537 263.413 127.457 264.001C121.442 264.903 115.285 264.874 109.431 266.848C108.776 266.658 108.169 264.722 107.448 266.791L97.7038 267.635C97.4666 267.047 97.979 266.496 97.8177 265.908C97.5225 266.46 97.2963 267.047 97.1441 267.654C91.7266 268.479 86.2522 269.058 80.9011 270.216C77.4001 270.975 75.8251 270.453 76.0528 266.544C76.2805 262.635 76.1287 258.954 76.0528 255.159C76.0528 252.825 77.1249 251.914 79.4589 251.61C103.178 248.546 126.898 245.339 150.569 242.255C170.93 239.618 191.3 237.113 211.661 234.532C217.249 233.821 222.895 233.318 228.407 232.217C231.377 231.629 231.69 232.806 231.652 235.064C231.614 237.322 231.652 239.807 231.652 242.17C231.652 250.14 231.652 250.415 223.891 251.439C209.915 253.29 195.873 254.646 181.888 256.449C171.945 257.73 162.05 259.39 152.144 260.927C148.15 261.572 143.577 260.064 140.437 264.001Z" fill="#181818"/>
<path d="M97.1352 267.663C95.6456 264.381 98.492 264.039 100.456 262.493C101.149 265.5 98.5583 266.089 97.6949 267.645H97.4198L97.1352 267.663Z" fill="#1B2234"/>
<path d="M107.44 266.8C107.032 265.481 105.097 265.073 105.467 263.005C107.905 263.214 109.205 264.419 109.423 266.876L107.44 266.8Z" fill="#141B2C"/>
<path d="M408.106 541.831C421.674 542.068 435.137 541.138 449.397 540.104C445.109 543.823 413.761 545.132 408.106 541.831Z" fill="#353535"/>
<path d="M435.734 527.03C431.047 530.417 427.765 533.425 423.296 535.569C424.757 531.641 430.867 527.239 435.734 527.03Z" fill="#1E1E1E"/>
<path d="M536.105 541.802C530.877 544.345 525.412 544.108 519.919 543.349C519.763 543.335 519.613 543.283 519.482 543.198C519.351 543.113 519.244 542.996 519.168 542.859C519.093 542.722 519.053 542.569 519.052 542.412C519.05 542.256 519.087 542.102 519.16 541.963C519.274 541.778 519.43 541.622 519.617 541.51C519.804 541.397 520.015 541.332 520.232 541.318C525.498 542.333 530.782 541.309 536.105 541.802Z" fill="#1F1F1F"/>
<path d="M527.394 534.43C525.782 533.709 522.802 535.483 522.736 532.998C522.688 531.233 525.639 532.201 527.214 532.172C528.789 532.144 532.015 531.223 532.034 533.121C532.081 535.37 529.017 533.747 527.394 534.43Z" fill="#2E2E2E"/>
<path d="M203.198 337.398C202.458 333.603 203.473 330.861 209.024 331.174C211.377 331.307 213.834 329.913 216.215 329.116C218.597 328.319 220.608 327.37 223.066 327.541C224.963 327.673 226.993 327.19 227.809 329.666C228.246 331.051 228.568 332.408 227.61 333.727C226.149 335.729 224.365 335.083 222.496 334.476C221.566 334.25 220.605 334.17 219.65 334.239C218.701 334.239 217.648 334.362 217.639 335.662C217.644 335.901 217.699 336.136 217.799 336.354C217.898 336.571 218.041 336.765 218.219 336.925C218.397 337.085 218.605 337.207 218.832 337.283C219.058 337.36 219.298 337.389 219.536 337.37C221.092 337.427 222.667 337.076 224.223 337.104C224.625 337.104 225.023 337.185 225.393 337.341C225.763 337.498 226.098 337.727 226.377 338.016C226.657 338.304 226.876 338.646 227.021 339.021C227.166 339.396 227.234 339.796 227.221 340.197C227.354 342.228 225.855 342.588 224.062 342.778C220.161 343.071 216.308 343.819 212.582 345.008C206.917 347.038 203.189 344.087 203.198 337.398Z" fill="#181818"/>
<path d="M247.762 289.305V287.407C247.762 279.419 247.762 279.684 255.722 279.068C262.417 278.586 269.073 277.663 275.647 276.307C281.444 275.083 287.449 275.946 293.132 273.982C296.064 272.967 297.402 274.229 297.212 277.502C296.99 280.647 297.175 283.807 297.763 286.905C298.37 289.979 297.032 292.066 293.218 292.597C279.176 294.495 265.172 296.62 251.178 298.84C248.531 299.258 247.696 298.423 247.753 295.994C247.81 293.736 247.762 291.516 247.762 289.305Z" fill="#181818"/>
<path d="M247.601 264.276C247.782 254.637 247.791 254.722 257.222 253.498C269.499 251.895 281.767 250.253 293.996 248.365C296.53 247.976 297.137 248.64 297.099 250.87C297.099 253.546 297.099 256.231 297.099 258.916C297.099 266.677 297.099 266.753 289.575 267.73C281.501 268.792 273.256 269.049 265.372 270.88C260.192 272.094 254.793 270.377 249.86 272.891C248.095 273.783 247.317 272.977 247.545 270.889C247.682 268.688 247.701 266.48 247.601 264.276Z" fill="#181818"/>
<path d="M297.1 159.484C297.1 168.972 297.1 168.972 287.517 170.054C275.705 171.363 263.883 172.625 252.175 174.722C248.949 175.3 247.374 174.257 247.754 170.765C247.844 169.036 247.844 167.304 247.754 165.575C247.754 156.315 247.754 156.23 256.919 155.025C269.319 153.393 281.739 151.932 294.149 150.338C296.208 150.082 297.109 150.812 297.071 152.862C297.062 155.072 297.09 157.283 297.1 159.484Z" fill="#181818"/>
<path d="M247.783 239.276C247.783 230.149 247.783 230.016 257.167 228.992C269.32 227.682 281.455 226.306 293.514 224.305C295.763 223.925 297.195 224.418 297.119 227.151C297.015 231.25 297.053 235.358 297.119 239.485C297.119 242.094 295.876 242.91 293.324 243.204C279.33 244.846 265.335 246.582 251.369 248.536C248.466 248.935 247.574 248.157 247.726 245.462C247.859 243.384 247.783 241.335 247.783 239.276Z" fill="#181818"/>
<path d="M297.098 133.877C297.098 143.289 297.098 143.365 287.611 144.399C275.779 145.651 263.967 147.055 252.25 149.143C249.185 149.674 247.439 149.01 247.686 145.348C247.933 141.685 247.8 137.757 247.686 133.962C247.686 131.363 248.882 130.518 251.396 130.234C264.764 128.753 278.189 127.52 291.434 125.281C297.079 124.332 297.288 126.562 297.022 130.585C297.041 131.666 297.098 132.776 297.098 133.877Z" fill="#181818"/>
<path d="M297.099 184.039C297.099 193.042 297.099 192.834 288.133 193.877C277.251 195.149 266.388 196.724 255.562 198.384C248.665 199.447 247.782 198.925 247.782 192.198V187.454C247.782 180.092 248.086 180.196 255.372 179.494C266.435 178.431 277.45 176.781 288.485 175.367C288.949 175.3 289.386 175.063 289.851 174.987C296.426 173.887 297.147 174.494 297.147 181.202L297.099 184.039Z" fill="#181818"/>
<path d="M247.783 215.092C247.783 206.211 247.782 206.306 257.099 205.13C268.485 203.688 279.756 202.075 291.085 200.519C296.417 199.779 297.081 200.339 297.1 205.728C297.157 218.906 297.1 218.821 283.627 220.348C273.665 221.468 263.703 222.824 253.798 224.143C248.447 224.845 247.802 224.324 247.783 218.925C247.773 217.625 247.783 216.354 247.783 215.092Z" fill="#181818"/>
<path d="M109.488 255.007C108.71 256.421 107.752 257.853 106.025 258.242C105.304 258.422 104.896 257.455 105.133 256.99C105.763 255.582 106.902 254.463 108.321 253.859C109.033 253.622 109.355 254.286 109.488 255.007Z" fill="#31384D"/>
<path d="M101.528 258.536C98.1409 258.071 97.0782 256.639 96.1484 254.428C99.0801 254.2 99.8677 256.032 101.528 258.536Z" fill="#192231"/>
<path d="M519.178 62.7096C523.922 69.0379 527.641 75.7457 527.717 83.9336C530.564 90.8312 528.353 97.3588 525.469 103.431C518.562 117.985 506.493 125.841 490.62 126.258C474.747 126.676 462.309 119.2 454.709 105.101C447.015 90.8692 450.098 71.1062 461.702 59.237C475.848 44.7777 501.294 43.6866 516.029 57.7C517.48 59.0947 519.292 60.3092 519.178 62.7096Z" fill="#10653D"/>
<path d="M519.179 62.7094C513.956 56.2132 506.74 51.6174 498.644 49.6316C490.548 47.6459 482.024 48.3807 474.388 51.7226C466.672 55.1289 460.283 60.9674 456.197 68.3462C452.111 75.725 450.552 84.2385 451.76 92.5863C453.999 108.905 467.433 122.349 483.923 124.759C508.658 128.374 530.195 108.288 527.699 83.9619C530.014 81.6374 530.043 83.6488 530.128 85.2902C530.461 91.9457 529.096 98.5765 526.162 104.56C518.686 120.167 501.115 129.636 484.416 127.112C466.608 124.408 452.528 110.983 449.843 94.0948C446.997 75.8973 455.536 58.734 471.665 50.6884C479.369 46.8867 488.08 45.6257 496.546 47.0867C505.012 48.5477 512.797 52.6554 518.781 58.8194C521.637 61.7321 521.637 61.7511 519.179 62.7094Z" fill="#181818"/>
<path d="M434.633 17.4149C438.305 22.5004 438.618 28.5156 439.377 34.4169C441.208 36.6466 439.899 38.8762 439.443 41.1437C436.341 56.5803 421.417 67.3963 406.587 66.8176C391.758 66.2388 378.219 56.0964 375.278 40.8686C372.726 27.5004 376.71 15.6882 387.991 7.46229C399.272 -0.763581 411.398 -1.07668 423.561 5.50781C428.504 8.15489 433.4 11.172 434.633 17.4149Z" fill="#10653D"/>
<path d="M434.633 17.4149C427.043 5.95373 416.284 0.574181 402.726 2.55712C389.576 4.45467 380.591 12.3674 376.891 25.1759C373.371 37.3581 376.293 48.4303 385.638 57.1401C394.984 65.8498 406.369 68.3356 418.504 63.7815C430.98 59.0376 437.698 49.5499 439.254 36.3429C439.33 35.7168 439.33 35.0906 439.358 34.4454C443.153 34.3221 441.18 37.2348 441.056 38.4302C439.614 53.0129 427.071 65.6695 412.394 67.6525C394.367 70.0908 377.289 58.1647 374.073 40.7642C372.305 31.9899 374.06 22.8722 378.96 15.3819C383.86 7.8916 391.511 2.63038 400.259 0.735474C413.096 -2.11085 427.773 3.53436 434.842 14.1322C435.515 15.0999 437.992 16.599 434.633 17.4149Z" fill="#181818"/>
<path d="M479.006 101.04C478.949 97.6148 480.022 96.2391 483.579 97.501C486.146 98.404 488.949 98.3704 491.492 97.4061C492.188 97.2291 492.81 96.8381 493.272 96.2882C493.733 95.7383 494.01 95.0574 494.063 94.3416C494.09 93.6978 493.901 93.0636 493.526 92.5394C493.152 92.0152 492.613 91.631 491.995 91.4478C489.519 90.4516 486.938 89.6926 484.405 88.7248C480.752 87.3112 477.65 85.461 477.109 80.9259C476.568 76.3908 478.57 73.2314 482.223 71.0776C484.187 69.9296 485.496 68.8385 485.126 66.3338C484.889 64.7398 486.075 64.1041 487.498 64.0852C488.684 64.0852 490.524 63.5254 490.458 65.3755C490.316 69.1706 493.02 68.5824 495.202 69.0093C497.384 69.4363 499.633 69.4647 498.817 73.0036C498.134 75.9828 496.872 76.609 494.282 75.442C493.976 75.3401 493.654 75.3013 493.333 75.3281C490.572 75.3946 486.767 74.3794 485.942 77.7665C484.993 81.609 489.168 81.647 491.635 82.6716C492.934 83.2219 494.348 83.5066 495.686 83.962C499.813 85.3757 502.327 88.1935 502.716 92.5863C503.105 96.9792 500.923 100.177 497.232 102.33C495.591 103.279 493.02 103.507 493.921 106.543C494.377 108.042 494.32 109.465 492.175 109.503C490.506 109.503 488.447 110.158 488.513 107.311C488.589 103.991 485.999 105.025 484.206 104.465C482.232 103.81 478.684 105.044 479.006 101.04Z" fill="#F7FAFC"/>
<path d="M416.558 22.4341C415.998 24.1324 415.932 26.6846 412.763 25.1286C412.618 25.0664 412.464 25.0249 412.307 25.0053C409.727 24.5024 406.188 23.1077 405.192 26.2102C404.148 29.5025 408.237 29.844 410.382 31.1249C411.463 31.7605 412.687 32.1685 413.731 32.8516C419.262 36.457 418.958 44.1041 413.095 47.0832C411.027 48.1364 408.456 48.3831 408.939 51.7417C409.11 52.9182 407.991 53.1839 406.956 53.1839C405.922 53.1839 404.328 53.1839 404.461 51.7512C404.812 48.1554 402.137 48.2407 399.955 47.6905C397.772 47.1402 396.463 46.2768 397.288 43.4305C398.237 40.1098 399.983 41.9504 401.558 42.273C404.547 42.8897 408.446 44.7872 409.784 40.8878C411.036 37.2445 406.719 36.8365 404.338 35.7359C400.894 34.1515 397.753 32.3867 397.583 28.0888C397.412 23.7909 399.641 21.2481 403.436 19.8914C405.097 19.3031 405.211 18.0982 405.59 16.6656C406.292 13.9331 409.547 14.4265 409.651 15.7168C409.983 19.5973 412.782 19.4455 415.116 20.2424C415.592 20.3517 416.008 20.6406 416.277 21.0489C416.545 21.4572 416.646 21.9534 416.558 22.4341Z" fill="#F7FAFC"/>
<path d="M16.1188 412.845C8.52864 408.101 10.9006 406.204 11.8493 403.357C12.4599 401.526 26.206 399.571 36.9927 398.383C37.4671 399.725 38.2261 403.547 37.4671 408.101C36.5183 413.794 41.7366 418.063 46.4805 419.012C51.2243 419.961 54.545 418.063 56.917 418.538C59.2889 419.012 95.8167 439.411 114.318 450.796C132.819 462.181 149.422 458.386 155.589 457.912C161.756 457.437 413.181 424.23 417.925 423.756C421.72 423.376 430.576 421.384 434.529 420.435L430.734 483.529L417.925 485.9C360.208 493.016 239.841 508.102 220.106 511.517C200.372 514.933 186.583 510.094 182.155 507.248L84.4314 451.745C64.1906 440.359 22.191 416.64 16.1188 412.845Z" fill="url(#paint2_linear_409_2)"/>
<defs>
<linearGradient id="paint0_linear_409_2" x1="489.688" y1="38.0978" x2="489.688" y2="135.958" gradientUnits="userSpaceOnUse">
<stop stop-color="#3AF29B"/>
<stop offset="1" stop-color="#126F43" stop-opacity="0"/>
</linearGradient>
<linearGradient id="paint1_linear_409_2" x1="483.816" y1="421.989" x2="483.816" y2="480.217" gradientUnits="userSpaceOnUse">
<stop stop-color="#0FAA61"/>
<stop offset="1" stop-color="#07673A"/>
</linearGradient>
<linearGradient id="paint2_linear_409_2" x1="222.635" y1="397.665" x2="222.635" y2="512.692" gradientUnits="userSpaceOnUse">
<stop stop-color="#2ECC82"/>
<stop offset="1" stop-color="#049E55"/>
</linearGradient>
</defs>
</svg>
