<svg width="601" height="550" viewBox="0 0 601 550" fill="none" xmlns="http://www.w3.org/2000/svg">
<path d="M599.767 515.922C602.638 493.88 580.589 476.525 559.42 469.842C538.251 463.16 514.544 461.531 497.207 447.65C478.958 432.988 470.115 406.341 448.034 398.428C431.991 392.693 414.522 399.01 397.732 401.853C381.66 404.474 365.228 403.878 349.386 400.097C333.545 396.316 318.609 389.427 305.441 379.827C298.639 374.84 292.169 368.988 284.256 366.063C276.342 363.137 267.218 363.403 258.641 364.4C235.564 367.11 211.823 375.339 197.141 393.375C189.659 402.584 184.914 413.871 176.851 422.582C163.844 436.645 144.002 442.115 124.974 444.192C105.945 446.27 86.5009 445.622 67.9531 450.36C52.9626 454.31 39.0619 461.617 27.2972 471.729C15.5326 481.842 6.21056 494.496 0.032959 508.741C4.21368 508.275 9.48934 511.035 13.6535 510.586L599.767 515.922Z" fill="#242424"/>
<path d="M307.582 207.143V124.908C307.582 106.832 314.748 89.496 327.504 76.7143C340.26 63.9326 357.561 56.752 375.601 56.752H379.749C397.789 56.752 415.09 63.9326 427.846 76.7143C440.602 89.496 447.768 106.832 447.768 124.908V207.143" stroke="#2ECC82" stroke-width="7" stroke-miterlimit="10"/>
<path d="M442.078 207.143H222.972V56.7852H375.385C405.248 56.7852 442.078 81.0552 442.078 110.977V207.143Z" fill="#20BE74"/>
<path opacity="0.26" d="M403.821 123.977H299.303C293.839 123.959 288.569 121.948 284.478 118.32C280.386 114.691 277.754 109.694 277.072 104.262L264.53 66.9756H382.884C402.179 66.9756 428.491 82.7013 424.658 104.96C422.999 114.818 415.733 123.246 405.364 123.861C404.85 123.96 404.352 123.977 403.821 123.977Z" fill="url(#paint0_linear_336_3)"/>
<path d="M352.193 0H319.825V125.573C319.751 128.083 320.18 130.583 321.087 132.925C321.994 135.266 323.361 137.401 325.107 139.203C326.853 141.005 328.942 142.438 331.251 143.416C333.559 144.395 336.041 144.899 338.547 144.899C341.054 144.899 343.535 144.395 345.844 143.416C348.152 142.438 350.241 141.005 351.987 139.203C353.733 137.401 355.1 135.266 356.007 132.925C356.915 130.583 357.344 128.083 357.269 125.573V101.718L333.296 85.5105V25.3506H352.193C354.599 25.3506 356.908 24.3926 358.609 22.6873C360.311 20.9821 361.267 18.6692 361.267 16.2576V9.09297C361.267 6.68137 360.311 4.36853 358.609 2.66327C356.908 0.958009 354.599 0 352.193 0Z" fill="#3A3A3A"/>
<path d="M344.793 123.976C344.793 125.292 344.404 126.577 343.675 127.671C342.946 128.764 341.909 129.616 340.697 130.12C339.484 130.623 338.15 130.755 336.863 130.498C335.575 130.241 334.393 129.608 333.465 128.678C332.537 127.748 331.905 126.564 331.649 125.274C331.393 123.984 331.524 122.647 332.026 121.432C332.529 120.217 333.379 119.178 334.471 118.448C335.562 117.717 336.845 117.327 338.157 117.327C339.917 117.327 341.605 118.028 342.85 119.275C344.094 120.522 344.793 122.213 344.793 123.976Z" fill="white"/>
<path d="M442.062 168.71H295.985V207.143H442.062V168.71Z" fill="url(#paint1_linear_336_3)"/>
<path d="M293.032 207.143H152.895V124.908C152.895 106.832 160.061 89.496 172.817 76.7143C185.573 63.9326 202.875 56.752 220.914 56.752H225.062C243.102 56.752 260.403 63.9326 273.159 76.7143C285.915 89.496 293.082 106.832 293.082 124.908L293.032 207.143Z" fill="#126F43"/>
<path d="M293.032 193.146H78.7866V207.143H293.032V193.146Z" fill="#2ECC82"/>
<path d="M344.424 207.485H310.42V515.968H344.424V207.485Z" fill="#2ECC82"/>
<path d="M343.98 242.85L310.319 259.474V207.144H343.98V242.85Z" fill="#126F43"/>
<path d="M282.829 100.688H123.165V193.147H287.723V124.908C287.732 116.587 286.068 108.349 282.829 100.688Z" fill="#F3F3F5"/>
<path d="M212.138 100.688H123.149V193.147H212.138V100.688Z" fill="url(#paint2_linear_336_3)"/>
<path d="M163.413 112.706H134.331V115.266H163.413V112.706Z" fill="#9E9E9E"/>
<path d="M163.413 118.924H134.331V121.484H163.413V118.924Z" fill="#9E9E9E"/>
<path d="M163.413 125.124H134.331V127.684H163.413V125.124Z" fill="#9E9E9E"/>
<path d="M145.031 131.324H134.331V133.884H145.031V131.324Z" fill="#9E9E9E"/>
<path d="M252.054 154.63C262.628 154.63 271.199 146.042 271.199 135.447C271.199 124.852 262.628 116.264 252.054 116.264C241.481 116.264 232.909 124.852 232.909 135.447C232.909 146.042 241.481 154.63 252.054 154.63Z" fill="#D6D6D6"/>
<path d="M263.95 140.567H173.367V193.147H263.95V140.567Z" fill="#EDEDED"/>
<path d="M173.367 140.567L218.675 172.867L263.966 140.567H173.367Z" fill="url(#paint3_linear_336_3)"/>
<g style="mix-blend-mode:multiply" opacity="0.38">
<path d="M219.737 56.7852H215.589C209.91 56.7802 204.253 57.4895 198.75 58.8964C213.382 62.6464 226.352 71.1692 235.616 83.1212C244.879 95.0732 249.91 109.775 249.914 124.908V207.143H287.723V124.908C287.714 106.843 280.549 89.5211 267.801 76.7475C255.053 63.974 237.765 56.794 219.737 56.7852Z" fill="#606060"/>
</g>
<path d="M225.045 50.9667H220.832C205.482 50.8913 190.497 55.6508 177.994 64.5727C165.49 73.4946 156.101 86.1278 151.153 100.687H163.695C168.373 89.3752 176.304 79.7135 186.479 72.9316C196.653 66.1498 208.611 62.5544 220.832 62.603H224.996C241.483 62.6206 257.29 69.1899 268.95 80.87C280.61 92.55 287.17 108.387 287.192 124.907V207.143H298.805V124.907C298.779 105.311 291.001 86.5242 277.175 72.6643C263.348 58.8044 244.603 51.0019 225.045 50.9667Z" fill="#2ECC82"/>
<path d="M570.254 549.984C572.41 533.477 555.903 520.494 540.059 515.49C524.216 510.487 506.448 509.257 493.474 498.867C479.754 487.879 473.185 467.948 456.644 462.013C444.633 457.724 431.56 462.445 418.984 464.573C406.946 466.542 394.637 466.098 382.77 463.268C370.903 460.437 359.715 455.276 349.853 448.083C344.76 444.326 339.899 439.971 333.993 437.776C328.087 435.582 321.235 435.781 314.798 436.546C297.528 438.574 279.76 444.741 268.76 458.24C263.153 465.138 259.603 473.583 253.564 480.116C243.825 490.638 228.961 494.728 214.71 496.29C200.459 497.853 185.909 497.354 172.023 500.895C160.798 503.85 150.388 509.321 141.58 516.894C132.771 524.467 125.794 533.946 121.174 544.614C124.293 544.265 128.242 546.277 131.361 545.994L570.254 549.984Z" fill="url(#paint4_linear_336_3)"/>
<defs>
<linearGradient id="paint0_linear_336_3" x1="344.777" y1="123.977" x2="344.777" y2="67.0421" gradientUnits="userSpaceOnUse">
<stop offset="0.06" stop-color="white"/>
<stop offset="0.14" stop-color="white" stop-opacity="0.98"/>
<stop offset="0.26" stop-color="white" stop-opacity="0.9"/>
<stop offset="0.4" stop-color="white" stop-opacity="0.79"/>
<stop offset="0.55" stop-color="white" stop-opacity="0.63"/>
<stop offset="0.72" stop-color="white" stop-opacity="0.42"/>
<stop offset="0.89" stop-color="white" stop-opacity="0.18"/>
<stop offset="1" stop-color="white" stop-opacity="0"/>
</linearGradient>
<linearGradient id="paint1_linear_336_3" x1="369.032" y1="207.143" x2="369.032" y2="168.71" gradientUnits="userSpaceOnUse">
<stop stop-color="#2ECC82"/>
<stop offset="1" stop-color="#2ECC82" stop-opacity="0"/>
</linearGradient>
<linearGradient id="paint2_linear_336_3" x1="123.149" y1="146.917" x2="212.138" y2="146.917" gradientUnits="userSpaceOnUse">
<stop stop-color="white"/>
<stop offset="1" stop-color="white" stop-opacity="0"/>
</linearGradient>
<linearGradient id="paint3_linear_336_3" x1="173.367" y1="156.725" x2="263.966" y2="156.725" gradientUnits="userSpaceOnUse">
<stop offset="0.35" stop-color="white"/>
<stop offset="0.41" stop-color="white" stop-opacity="0.98"/>
<stop offset="0.49" stop-color="white" stop-opacity="0.91"/>
<stop offset="0.58" stop-color="white" stop-opacity="0.8"/>
<stop offset="0.69" stop-color="white" stop-opacity="0.65"/>
<stop offset="0.79" stop-color="white" stop-opacity="0.45"/>
<stop offset="0.91" stop-color="white" stop-opacity="0.22"/>
<stop offset="1" stop-color="white" stop-opacity="0"/>
</linearGradient>
<linearGradient id="paint4_linear_336_3" x1="345.805" y1="435.998" x2="345.805" y2="549.984" gradientUnits="userSpaceOnUse">
<stop stop-color="white" stop-opacity="0.5"/>
<stop offset="0.01" stop-color="white" stop-opacity="0.48"/>
<stop offset="0.08" stop-color="white" stop-opacity="0.35"/>
<stop offset="0.15" stop-color="white" stop-opacity="0.24"/>
<stop offset="0.24" stop-color="white" stop-opacity="0.15"/>
<stop offset="0.33" stop-color="white" stop-opacity="0.08"/>
<stop offset="0.45" stop-color="white" stop-opacity="0.04"/>
<stop offset="0.61" stop-color="white" stop-opacity="0.01"/>
<stop offset="1" stop-color="white" stop-opacity="0"/>
</linearGradient>
</defs>
</svg>
