<svg xmlns="http://www.w3.org/2000/svg" width="76" height="64" fill="none"><path fill="#2ECC82" d="M47.214.306c0 2.42-.018 4.763 0 7.11.035 3.918 1.982 5.873 5.916 5.9 3.008.023 6.016.032 9.021 0 3.753-.047 5.706-2.009 5.759-5.75.032-2.3.018-4.6.03-6.899.008-.1.028-.198.059-.294 4.173-1.365 7.761 1.14 7.764 5.466.012 17.229.012 34.458 0 51.687 0 3.621-1.996 5.71-5.62 5.73-8.379.049-16.76.049-25.142 0-3.63-.02-5.62-2.109-5.62-5.73 0-17.033.071-34.066-.056-51.1-.053-4.205 2.493-7.122 7.889-6.12Zm14.33 35.614c.296-.132.5-.246.725-.334 3.103-1.207 4.83-3.757 4.58-6.77a6.646 6.646 0 0 0-1.615-3.783 6.726 6.726 0 0 0-3.541-2.126c-3.05-.643-5.816.702-7.463 3.504a2.033 2.033 0 0 1-1.423.831c-1.497.112-3.008.041-4.481.041v13.113h13.219V35.92ZM34.856 6.928v35.847H0V14.408c0-4.907 2.61-7.533 7.552-7.544 8.625-.018 17.25-.018 25.875 0 .438-.003.876.038 1.429.064Zm-11.154 25.53c4.436-1.378 6.803-4.455 6.584-8.438-.195-3.709-2.83-6.687-6.602-7.459-3.686-.755-7.099 1.157-9.072 4.992a1.641 1.641 0 0 1-1.183.7c-1.461.085-2.931.032-4.437.032v14.57h14.724l-.014-4.397ZM34.82 56.07H7.513c-4.83 0-7.522-2.676-7.513-7.44v-1.27h34.82v8.71Z"/><path fill="#2ECC82" d="M63.482.215v7.474c0 .863-.364 1.24-1.236 1.233a1142.97 1142.97 0 0 0-9.442 0c-.795 0-1.183-.343-1.183-1.142V.218L63.482.215ZM62.43 29.289a2.183 2.183 0 0 0-.397-1.225 2.224 2.224 0 0 0-3.434-.238 2.187 2.187 0 0 0-.375 2.431 2.2 2.2 0 0 0 .874.95 2.222 2.222 0 0 0 2.744-.397 2.18 2.18 0 0 0 .587-1.521Zm-5.077 6.734c-1.13-1.392-2.123-2.623-3.13-3.844-.141-.174-.313-.394-.508-.444a3.974 3.974 0 0 0-.932-.017v4.384h3.352c.293-.011.585-.058 1.218-.088v.01Z"/><path fill="#2ECC82" d="M62.429 29.29c.016.43-.096.857-.323 1.226a2.204 2.204 0 0 1-.953.844 2.224 2.224 0 0 1-2.417-.365 2.18 2.18 0 0 1 .155-3.376 2.22 2.22 0 0 1 1.198-.438 2.206 2.206 0 0 1 1.622.56 2.18 2.18 0 0 1 .718 1.548Zm-5.076 6.724c-.633.041-.925.077-1.218.077h-3.352v-4.382c.31-.03.623-.025.932.018.195.05.367.27.509.443 1.006 1.23 2 2.452 3.13 3.844Zm-35.13-7.861a3.722 3.722 0 0 1-2.064-.597 3.672 3.672 0 0 1-1.38-1.638 3.64 3.64 0 0 1 .777-4.01 3.716 3.716 0 0 1 4.032-.807c.678.278 1.256.75 1.662 1.354a3.646 3.646 0 0 1-.448 4.615 3.698 3.698 0 0 1-2.58 1.083Zm-2.976 4.349h-5.853v-5.965c.461.244.996.344 1.094.605.87 2.28 2.5 3.818 4.626 4.899.056.03.053.185.133.46Z"/><path fill="#2ECC82" d="M7.13 15.158h24.065V37.44H7.13zm37.435 4.457h24.956v23.174H44.565z"/></svg>