<svg width="786" height="447" viewBox="0 0 786 447" fill="none" xmlns="http://www.w3.org/2000/svg">
<g clip-path="url(#clip0_724_789)">
<path d="M159.951 232.103L159.289 232.404L158.085 232.993C157.288 233.37 156.581 233.762 155.843 234.155C154.339 234.954 153.044 235.769 151.705 236.614C149.068 238.283 146.521 240.091 144.076 242.031C139.252 245.807 134.775 250.009 130.698 254.586C126.658 259.107 122.98 263.94 119.698 269.041C116.474 274.105 113.608 279.389 111.121 284.855C108.678 290.248 106.583 295.792 104.846 301.453C104.049 304.29 103.161 307.112 102.544 309.979L101.536 314.249L100.708 318.549C99.4176 325.568 98.5483 332.657 98.1047 339.78V312.906C99.3456 306.267 101.096 299.734 103.341 293.365C107.164 281.897 112.822 268.604 119.096 254.224C124.243 242.469 128.622 232.133 132.64 223.743C136.657 215.353 140.735 209.182 144.031 205.877C140.78 209.152 134.626 213.422 128.005 220.499C119.977 229.047 113.454 238.9 108.713 249.636C103.171 262.362 99.574 275.852 98.0445 289.653V231.62C99.3114 227.562 101.07 223.675 103.281 220.046C107.103 213.467 112.31 206.179 117.667 197.805C121.432 191.721 124.751 185.372 127.599 178.807C129.3 174.536 131.312 170.395 133.618 166.419C131.977 168.878 127.839 171.413 123.084 175.352C117.257 179.975 112.22 185.52 108.172 191.769C103.159 199.689 99.7393 208.516 98.1047 217.753V195.511C99.6095 185.265 102.935 169.859 102.935 151.948C102.935 132.815 97.2921 118.51 97.2921 111.75C97.2921 118.51 91.6492 132.875 91.6492 151.948C91.6492 169.829 94.9296 185.265 96.4946 195.511V219.729C94.7946 204.613 90.8907 189.829 84.9077 175.85C79.7951 164.235 72.9111 153.488 64.5028 143.996C59.2286 138.185 53.5188 132.788 47.4235 127.85C51.2607 131.2 55.4741 138.051 59.8229 147.165C64.1718 156.279 68.8516 167.596 74.5548 180.361C81.3113 196.069 87.2251 210.54 91.2128 223.094C93.5384 230.105 95.3045 237.29 96.4946 244.581V281.943C95.998 277.31 95.3509 272.708 94.5534 268.166C92.7356 258.025 90.2217 248.022 87.0295 238.229C83.9056 228.459 80.2023 218.886 75.9392 209.559C73.8174 204.881 71.4248 200.279 68.9871 195.677C66.3617 190.894 63.4522 186.273 60.2744 181.84C63.7565 186.684 65.234 192.692 64.3975 198.604C64.0649 201.317 63.4857 203.994 62.667 206.602C61.8544 209.182 60.9064 211.641 59.9885 213.905C59.3772 215.122 59.0588 216.465 59.0588 217.828C59.0588 219.191 59.3772 220.534 59.9885 221.751C61.237 223.874 62.9005 225.722 64.879 227.183C68.656 230.473 72.6588 233.566 69.8599 238.108C67.061 242.65 63.8407 246.86 64.0965 251.689C64.3021 254.731 65.4607 257.63 67.4071 259.973C70.6913 264.108 74.415 267.872 78.5124 271.199C81.6755 273.956 84.5541 277.024 87.1047 280.358C90.9501 285.311 94.0714 290.788 96.3742 296.625L96.4645 296.836V339.644C96.314 338.694 91.6191 311.744 75.6533 296.851C60.6054 282.848 46.6561 278.397 42.9844 276.345C46.6861 278.397 67.7983 304.547 74.7053 313.555C85.3441 327.452 96.4645 344.85 96.4645 364.104V422.44H98.0746V348.698C98.3436 347.013 98.7822 345.36 99.3838 343.764C100.489 340.973 101.973 338.348 103.793 335.963C105.61 333.677 107.624 331.556 109.812 329.625C111.979 327.754 114.176 326.094 116.237 324.585C117.474 323.817 118.532 322.792 119.339 321.579C120.147 320.366 120.685 318.993 120.917 317.554C121.182 314.923 121.014 312.268 120.421 309.692C120.195 308.349 119.939 307.021 119.774 305.739C119.646 304.53 119.646 303.311 119.774 302.102C119.847 300.956 120.263 299.859 120.966 298.952C121.669 298.045 122.627 297.371 123.716 297.017C128.847 295.086 134.144 293.999 137.44 290.166C138.356 289.14 139.093 287.967 139.622 286.696C140.3 285.116 140.804 283.466 141.127 281.777C142.016 276.339 142.629 270.86 142.962 265.359C143.874 256.772 146.904 248.547 151.78 241.428C155.904 235.392 160.162 231.952 160.884 231.695L159.951 232.103Z" fill="#ABDDC6"/>
<path d="M603.932 232.987L604.65 233.315L605.941 233.952C606.782 234.362 607.54 234.772 608.319 235.203C609.857 236.044 611.333 236.927 612.768 237.829C615.603 239.611 618.34 241.542 620.968 243.615C626.143 247.65 630.946 252.141 635.319 257.034C639.646 261.867 643.588 267.033 647.107 272.484C650.54 277.899 653.602 283.54 656.271 289.37C658.894 295.155 661.14 301.104 662.995 307.179C663.856 310.196 664.799 313.212 665.455 316.269L666.542 320.844L667.423 325.44C668.807 332.941 669.738 340.519 670.211 348.133V319.408C668.887 312.312 667.016 305.328 664.615 298.521C660.514 286.21 654.467 272.053 647.742 256.685C642.228 244.128 637.492 233.09 633.166 224.124C630.075 217.159 625.926 210.716 620.866 205.021C624.351 208.509 630.932 213.044 638.025 220.656C646.638 229.774 653.628 240.302 658.69 251.781C664.625 265.378 668.475 279.793 670.109 294.54V232.474C668.745 228.16 666.866 224.027 664.512 220.164C660.412 213.126 654.774 205.329 649.096 196.383C645.1 189.896 641.578 183.128 638.558 176.132C636.719 171.565 634.554 167.135 632.08 162.878C633.843 165.504 638.23 168.233 643.355 172.439C649.611 177.367 655.019 183.286 659.366 189.961C664.735 198.423 668.398 207.853 670.15 217.722V193.901C668.489 182.944 664.984 166.448 664.984 147.346C664.984 126.828 671.011 111.604 671.011 104.382C671.011 111.604 677.059 126.951 677.059 147.346C677.059 166.448 673.553 182.965 671.872 193.901V219.774C673.693 203.621 677.879 187.824 684.295 172.891C689.777 160.467 697.172 148.981 706.211 138.852C711.863 132.641 717.976 126.866 724.497 121.576C720.397 125.166 715.887 132.491 711.233 142.217C706.58 151.942 701.475 164.068 695.448 177.753C688.232 194.516 681.876 210.028 677.612 223.405C675.124 230.89 673.232 238.561 671.954 246.344V286.272C672.487 281.327 673.184 276.403 674.004 271.54C675.923 260.705 678.595 250.016 681.999 239.553C685.346 229.123 689.324 218.907 693.91 208.961C696.186 203.955 698.687 199.03 701.352 194.127C704.156 189.016 707.271 184.082 710.68 179.354C706.962 184.511 705.383 190.908 706.272 197.204C706.637 200.106 707.261 202.97 708.138 205.76C708.999 208.509 710.024 211.136 711.008 213.557C711.658 214.86 711.996 216.296 711.996 217.753C711.996 219.209 711.658 220.645 711.008 221.949C709.671 224.215 707.894 226.189 705.78 227.755C701.68 231.264 697.436 234.567 700.429 239.43C703.423 244.292 706.887 248.765 706.58 254.018C706.348 257.243 705.099 260.31 703.013 262.779C699.498 267.202 695.511 271.227 691.122 274.782C687.725 277.725 684.64 281.012 681.917 284.589C679.556 287.696 677.419 290.966 675.521 294.376C673.902 297.413 672.794 300.08 671.995 301.947V302.194V347.846C672.159 346.84 677.202 318.033 694.279 302.112C710.352 287.154 725.338 282.394 729.274 280.199C725.297 282.394 702.623 310.339 695.304 319.982C683.906 334.817 672.015 353.426 672.015 373.985V436.339H670.293V357.612C670.003 355.819 669.536 354.06 668.899 352.36C667.713 349.375 666.127 346.566 664.184 344.009C662.251 341.578 660.118 339.313 657.808 337.238C655.492 335.186 653.134 333.463 650.92 331.842C649.599 331.02 648.468 329.925 647.606 328.63C646.743 327.334 646.167 325.869 645.918 324.332C645.63 321.525 645.81 318.689 646.451 315.941C646.697 314.504 646.963 313.089 647.127 311.714C647.271 310.418 647.271 309.111 647.127 307.815C647.041 306.595 646.593 305.427 645.841 304.463C645.089 303.498 644.066 302.779 642.904 302.399C637.41 300.347 631.731 299.177 628.205 295.074C627.229 293.979 626.44 292.732 625.868 291.381C625.13 289.69 624.587 287.921 624.249 286.108C623.264 280.299 622.579 274.444 622.198 268.565C621.228 259.381 617.979 250.586 612.748 242.979C610.201 238.917 606.894 235.385 603.01 232.577L603.932 232.987Z" fill="#ABDDC6"/>
<path d="M272.906 396.054C276.269 410.273 281.107 426.215 286.334 441.193H371.495C373.401 435.038 375.328 428.349 377.132 421.291C387.588 380.543 376.579 345.375 366.677 329.31C356.775 313.245 348.226 294.43 363.356 271.04C378.486 247.649 379.88 229.614 379.88 229.614C377.686 220.812 370.798 217.775 352.942 209.24L350.215 208.337C346.381 223.705 338.406 236.016 324.343 238.519C305.892 241.761 289.266 230.517 280.861 210.758C272.66 213.159 263.702 215.703 259.396 218.145C259.396 218.145 281.947 267.162 286.253 294.881C290.558 322.601 262.615 352.536 272.906 396.054Z" fill="#252525"/>
<path d="M324.342 238.519C338.487 236.016 346.462 223.787 350.255 208.419C344.33 206.368 330.41 201.628 326.535 199.679C321.574 197.196 322.968 177.109 322.968 177.109L296.809 184.578V204.09C296.809 205.916 289.326 208.194 280.859 210.758C289.183 230.517 305.891 241.761 324.342 238.519Z" fill="url(#paint0_linear_724_789)"/>
<path d="M322.888 177.417L296.729 184.886V201.484C303.845 205.22 310.025 210.517 314.807 216.98C319.589 223.443 322.849 230.904 324.343 238.806C338.407 236.262 346.361 224.075 350.133 208.727C344.208 206.675 330.288 201.936 326.414 200.007C321.493 197.525 322.888 177.417 322.888 177.417Z" fill="#CB9EAE"/>
<path d="M339.023 299.046C327.338 302.616 316.329 306.535 310.507 306.535C298.944 306.535 281.806 290.285 273.81 300.216C265.815 310.146 264.544 316.63 270.858 321.144C277.172 325.658 297.284 319.482 306.919 321.411C311.224 322.272 325.882 323.011 341.463 322.785C342.795 316.589 342.59 305.263 339.023 299.046Z" fill="url(#paint1_linear_724_789)"/>
<path d="M380.288 229.696C377.582 218.843 355.257 238.786 360.751 256.964C365.466 272.558 363.765 293.507 363.765 293.507L385.619 315.625C393.04 306.535 382.482 238.519 380.288 229.696Z" fill="#2F2F2F"/>
<path d="M371.044 293.589C362.577 292.358 350.543 295.538 339.021 299.046C342.589 305.202 342.773 316.589 341.461 322.785C360.773 322.478 381.499 320.734 385.62 315.625C385.62 315.625 395.522 297.179 371.044 293.589Z" fill="#2F2F2F"/>
<path d="M290.68 147.051C286.088 155.976 286.58 186.363 299.352 189.153C310.505 191.615 316.696 180.741 316.696 180.741V160.593C314.741 159.433 313.08 157.837 311.843 155.929C310.605 154.022 309.825 151.854 309.562 149.595C308.885 143.44 305.236 142.763 305.236 142.763C305.236 142.763 297.569 147.297 290.68 147.051Z" fill="url(#paint2_linear_724_789)"/>
<path d="M270.855 294.881C265.094 283.268 261.281 268.639 257.899 260.391C251.543 244.818 250.498 223.09 259.313 218.145C275.55 209.815 282.417 238.437 283.525 246.726C284.632 255.015 286.825 274.446 292.893 281.401L270.855 294.881Z" fill="#2F2F2F"/>
<path d="M342.794 194.406C331.785 187.532 344.044 149.554 325.594 134.904C321.98 131.972 317.599 130.143 312.975 129.637C308.35 129.132 303.678 129.97 299.517 132.052C295.356 134.134 291.882 137.372 289.512 141.379C287.141 145.385 285.974 149.99 286.15 154.642V209.076C292.177 207.209 296.708 205.465 296.708 204.049V188.066C286.581 181.603 286.458 155.381 290.66 147.03C297.549 147.276 305.216 142.742 305.216 142.742C305.216 142.742 308.865 143.399 309.542 149.574C309.805 151.834 310.585 154.001 311.823 155.909C313.06 157.816 314.721 159.412 316.676 160.572V180.72C316.676 199.638 321.227 220.32 332.01 221.469C342.794 222.618 344.618 208.399 352.88 209.302C352.901 209.343 353.803 201.3 342.794 194.406Z" fill="#181818"/>
<path d="M286.6 267.429C280.593 275.636 271.163 282.837 270.855 294.881C275.96 305.14 282.602 313.081 291.787 312.055C305.317 310.516 310.012 294.574 311.611 279.985C302.57 280.683 291.049 273.522 286.6 267.429Z" fill="#2F2F2F"/>
<path d="M307.041 193.216C304.458 194.385 295.314 202.367 295.314 204.357C295.314 206.347 299.415 221.387 299.415 225.983C299.415 230.579 295.314 250.501 289.718 262.32C288.843 264.118 287.8 265.828 286.602 267.429C291.05 273.584 302.572 280.683 311.613 279.985C312.191 274.259 312.464 268.506 312.433 262.751C312.433 262.751 313.355 229.368 314.852 226.988C316.348 224.608 316.225 221.264 316.225 218.227V212.072C316.225 212.072 318.275 211.949 318.46 208.317V207.989C318.46 204.008 309.624 192.046 307.041 193.216Z" fill="url(#paint3_linear_724_789)"/>
<path d="M528.529 207.968V305.407C528.529 305.407 561.023 306.412 560.039 305.407C559.055 304.402 560.039 260.145 560.039 260.145L528.529 207.968Z" fill="#2ECC82"/>
<path d="M592.738 315.809C594.635 331.373 594.635 347.109 592.738 362.672C591.733 370.53 568.629 440.639 568.629 440.639H624.945L640.464 366.304L619.963 309.531L592.738 315.809Z" fill="url(#paint4_linear_724_789)"/>
<path d="M592.738 315.809C594.636 331.373 594.636 347.109 592.738 362.672C591.734 370.53 564.037 441.276 564.037 441.276H624.965L640.484 366.345L619.984 309.572L592.738 315.809Z" fill="url(#paint5_linear_724_789)"/>
<path d="M659.1 296.461C667.301 322.498 704.571 330.91 694.321 372.951C686.92 403.297 671.77 441.275 671.77 441.275H601.514C601.514 441.275 623.654 375.126 623.654 366.345C623.654 357.563 609.816 312.568 609.816 312.568L659.1 296.461Z" fill="url(#paint6_linear_724_789)"/>
<path d="M539.886 185.932C531.686 189.892 524.019 207.517 531.686 224.074C539.353 240.632 540.337 237.657 543.208 250.645C546.078 263.633 544.95 270.834 568.71 287.023C592.471 303.211 591.733 307.541 592.819 315.748C593.906 323.955 660.677 322.19 659.59 291.414C658.504 260.637 660.226 224.731 640.32 207.886C620.413 191.041 539.886 185.932 539.886 185.932Z" fill="#12BB6C"/>
<path d="M531.605 147.625V240.489C531.605 240.489 565.288 222.413 564.981 204.706C564.673 186.999 549.851 147.625 549.851 147.625H531.605Z" fill="#2F2F2F"/>
<path d="M555.264 203.351C555.264 203.351 559.753 210.615 561.27 213.754C562.787 216.893 556.043 230.681 558.257 242.479C560.471 254.277 575.129 252.286 578.389 242.479C579.373 239.504 581.997 218.514 581.997 218.514V183.819L555.264 203.351Z" fill="url(#paint7_linear_724_789)"/>
<path d="M561.27 213.754C570.742 203.126 580.541 248.08 565.022 250.358H565.125L567.359 250.604C569.809 250.56 572.186 249.757 574.161 248.306C576.136 246.855 577.613 244.826 578.389 242.499C579.373 239.524 581.997 218.535 581.997 218.535V183.819L555.346 203.351C555.346 203.351 559.753 210.615 561.27 213.754Z" fill="#CB9EAE"/>
<path d="M535.501 144.978C530.909 173.56 535.972 199.884 549.728 203.003C563.484 206.121 583.227 191.061 583.227 177.766C583.227 164.47 596.532 129.836 581.402 121.937C566.272 114.038 538.473 126.779 535.501 144.978Z" fill="url(#paint8_linear_724_789)"/>
<path d="M547.104 142.373C543.148 145.698 538.985 148.769 534.639 151.565C529.371 154.704 530.662 136.587 540.79 128.072C550.917 119.557 564.386 112.314 569.819 117.197C569.819 117.197 586.834 112.499 597.146 129.877C607.458 147.256 608.196 162.849 611.497 167.199C614.797 171.549 620.189 174.257 617.647 182.403C617.647 182.403 635.749 178.792 638.455 191.287C641.161 203.782 640.28 207.824 640.28 207.824C635.009 204.173 629.226 201.325 623.121 199.371C623.121 199.371 615.351 205.526 607.93 205.526C600.508 205.526 591.16 235.482 578.122 235.482L578.06 164.204C578.06 164.204 548.621 160.367 547.104 142.373Z" fill="#2F2F2F"/>
<path d="M381.929 294.184C347.734 329.823 318.377 438.526 318.377 438.526H367.394L398.146 366.345L381.929 294.184Z" fill="#0F9355"/>
<path d="M560.103 300.072C552.948 291.865 514.837 265.192 466.25 268.065C423.403 270.629 388.737 283.884 381.992 294.184C377.051 301.714 387.876 352.577 395.399 372.828C402.465 392.144 406.128 412.54 406.224 433.109C406.224 433.109 527.383 432.391 528.101 433.109C528.818 433.828 543.148 388.36 545.034 365.77C546.921 343.18 542.615 318.189 560.103 300.072Z" fill="url(#paint9_linear_724_789)"/>
<path d="M494.501 225.88C494.501 225.88 495.116 263.551 494.501 274.815C493.886 286.079 476.481 296.174 470.023 296.461C463.566 296.748 449.215 287.187 446.98 271.142V237.124L494.501 225.88Z" fill="url(#paint10_linear_724_789)"/>
<path d="M494.684 246.275C494.684 235.359 494.458 225.757 494.458 225.757L446.938 237.001V264.905C450.894 282.345 477.176 277.585 483.429 261.048C487.017 251.691 490.092 248.88 494.684 246.275Z" fill="#CB9EAE"/>
<path d="M434.33 211.23C436.113 238.847 447.368 265.561 465.183 262.75C487.283 259.262 493.987 225.819 493.105 207.353C492.224 188.887 481.83 177.643 465.983 177.622C450.915 177.684 432.813 187.84 434.33 211.23Z" fill="url(#paint11_linear_724_789)"/>
<path d="M498.312 220.422C497.123 225.921 494.437 230.107 492.326 229.758C490.214 229.409 489.435 224.649 490.624 219.15C491.813 213.652 494.478 209.466 496.61 209.815C498.742 210.164 499.48 214.924 498.312 220.422Z" fill="url(#paint12_linear_724_789)"/>
<path d="M434.679 215.498C431.317 210.348 431.091 208.317 431.337 199.761C431.583 191.205 438.799 190.897 438.656 187.245C438.512 183.593 443.166 173.744 462.211 172.883C481.257 172.021 480.108 180.823 486.013 181.398C491.917 181.972 501.06 188.025 496.612 209.692C496.612 209.692 491.425 210.184 489.395 220.669C489.347 220.837 489.253 220.989 489.123 221.108C488.993 221.226 488.833 221.305 488.66 221.337C488.488 221.369 488.31 221.352 488.146 221.289C487.983 221.225 487.84 221.117 487.735 220.976C486.927 219.714 486.331 218.328 485.972 216.873C484.557 211.641 478.858 219.52 477.771 209.076C477.033 201.628 458.89 215.231 445.442 203.208C445.442 203.208 443.392 205.875 437.713 205.711C434.433 205.814 434.679 215.498 434.679 215.498Z" fill="#181818"/>
<path d="M446.916 315.461C446.916 315.461 448.494 317.512 451.426 312.999C454.357 308.485 464.362 294.922 467.826 296.256C460.774 294.799 448.945 285.628 446.916 271.163V269.993C441.319 270.773 435.948 271.737 430.843 272.825C429.429 280.786 435.415 306.638 446.916 315.461Z" fill="#131313"/>
<path d="M494.499 274.815C493.966 284.581 480.723 293.527 473.035 295.866C476.664 294.451 490.01 312.034 492.326 315.912C494.643 319.79 498.887 314.537 503.13 303.725C506.185 295.887 510.941 282.366 508.953 272.825C504.228 271.508 499.438 270.439 494.602 269.624C494.499 271.676 494.499 273.44 494.499 274.815Z" fill="#131313"/>
<path d="M446.938 271.142V262.935C439.824 266.054 433.243 268.701 432.587 272.763C431.172 280.744 437.548 303.909 446.938 312.096C446.938 312.096 448.496 314.147 451.427 309.634C454.359 305.12 464.384 294.902 467.828 296.235C460.796 294.779 448.947 285.607 446.938 271.142Z" fill="#2F2F2F"/>
<path d="M506.328 269.768C504.381 265.315 497.985 261.684 494.725 260.145C494.725 266.198 494.725 271.594 494.458 274.815C493.946 284.581 480.702 293.527 472.994 295.866C476.643 294.45 489.989 308.69 492.306 312.568C494.622 316.445 497.472 311.911 502.167 301.303C506.861 290.696 509.547 277.051 506.328 269.768Z" fill="#2F2F2F"/>
<path d="M583.555 410.519C583.555 379.271 574.452 316.63 560.04 300.072C560.04 300.072 537.49 312.157 530.294 350.484C528.244 361.933 531.79 394.639 532.733 408.468L583.555 410.519Z" fill="#0FA05C"/>
<path d="M495.483 441.193H564.017C574.165 441.193 585.092 432.986 583.555 410.417C582.017 387.847 545.28 391.089 532.733 408.365L494.971 414.131L495.483 441.193Z" fill="#0FA05C"/>
<path d="M460.961 439.901L464.2 436.864L474.04 440.352C475.751 440.963 477.554 441.276 479.37 441.276H498.949C501.762 440.511 504.235 438.819 505.969 436.473C507.702 434.128 508.595 431.265 508.502 428.349C508.605 426.544 508.34 424.738 507.725 423.038C507.109 421.338 506.156 419.782 504.921 418.462C503.687 417.142 502.198 416.087 500.544 415.36C498.89 414.633 497.106 414.25 495.3 414.233H473.856C472.781 414.238 471.709 414.128 470.658 413.905L455.405 410.704C453.148 410.237 450.799 410.617 448.804 411.771L440.152 416.736C438.479 417.697 436.942 418.877 435.581 420.245L419.898 435.982C419.463 436.415 419.167 436.968 419.046 437.57C418.926 438.173 418.987 438.797 419.222 439.364C419.458 439.931 419.856 440.416 420.367 440.756C420.877 441.097 421.478 441.277 422.091 441.276H457.476C458.769 441.276 460.015 440.785 460.961 439.901Z" fill="url(#paint13_linear_724_789)"/>
<path d="M642.721 211.764C628.022 203.249 602.273 227.439 607.869 256C613.466 284.561 581.998 320.139 581.998 320.139C581.998 320.139 546.47 334.501 532.201 337.127C536.713 343.526 539.809 350.815 541.283 358.507C564.633 356.578 598.111 351.839 611.642 340.554C632.142 323.483 653.832 260.535 653.832 240.591C653.832 217.242 642.721 211.764 642.721 211.764Z" fill="#2ECC82"/>
<path d="M528.469 337.456H482.526C482.526 337.456 449.725 348.576 448.864 350.484C448.003 352.393 446.322 363.698 448.864 366.345C451.406 368.991 468.053 373.711 472.317 372.849C476.581 371.987 509.813 359.635 517.419 359.635C520.002 359.635 529.289 359.389 541.22 358.404C539.746 350.712 536.65 343.424 532.138 337.025C530.929 337.267 529.701 337.411 528.469 337.456Z" fill="url(#paint14_linear_724_789)"/>
<path d="M234.139 306.905C234.139 306.905 245.66 316.015 257.428 306.905C269.195 297.795 261.097 282.283 261.097 282.283L234.139 296.646V306.905Z" fill="#12BB6C"/>
<path d="M250.661 221.469V289.649H228.5V225.203L250.661 221.469Z" fill="#12BB6C"/>
<path d="M214.54 390.863C212.49 402.23 200.292 418.214 192.584 441.276H236.62C240.843 413.577 244.656 376.378 238.67 343.303H213.249C215.688 354.444 216.549 380.153 214.54 390.863Z" fill="#202020"/>
<path d="M172.33 388.401C172.33 388.401 177.414 413.146 180.838 441.194H192.523C200.232 418.132 212.348 402.21 214.48 390.781C216.53 380.071 215.525 354.362 213.188 343.221H173.376L172.33 388.401Z" fill="url(#paint15_linear_724_789)"/>
<path d="M213.248 343.303C213.008 342.113 212.686 340.94 212.284 339.795H135.734C136.8 376.727 139.691 413.33 141.454 441.276H192.563C200.271 418.214 212.387 402.292 214.519 390.863C216.548 380.153 215.687 354.444 213.248 343.303Z" fill="#292929"/>
<path d="M187.91 160.818C142.665 148.651 112.057 168.882 107.075 197.914C102.483 224.444 135.777 306.658 135.777 339.795C135.777 339.795 189.427 367.453 238.65 343.303C238.65 343.303 231.269 308.074 238.65 276.887C246.03 245.7 255.85 227.809 247.506 205.424C240.29 185.87 209.087 166.502 187.91 160.818Z" fill="url(#paint16_linear_724_789)"/>
<path d="M204.843 130.821C204.843 130.821 187.745 152.324 180.549 159.177C173.354 166.03 186.7 180.043 196.725 185.994C203.387 189.912 217.451 194.201 213.31 182.034C213.31 182.034 210.952 175.181 222.31 165.435C222.31 165.435 209.702 127.744 204.843 130.821Z" fill="url(#paint17_linear_724_789)"/>
<path d="M222.311 165.435C219.16 156.002 215.45 146.767 211.199 137.777L205.623 140.403C199.145 153.719 197.976 178.792 213.311 182.034C213.311 182.034 210.953 175.181 222.311 165.435Z" fill="#CB9EAE"/>
<path d="M211.59 126.943C213.045 118.736 205.706 118.141 203.39 124.892C200.765 132.709 203.656 138.125 206.649 136.32C206.649 136.32 200.827 153.986 208.166 164.614C215.506 175.242 224.874 171.159 236.601 159.608C246.667 149.677 253.227 137.551 254.252 132.934C256.917 120.624 244.248 110.878 232.378 111.514C217.863 112.314 211.59 126.943 211.59 126.943Z" fill="url(#paint18_linear_724_789)"/>
<path d="M211.589 126.943C211.138 131.765 211.917 135.52 214.767 133.878C217.616 132.237 224.32 122.512 230.429 129.529C236.539 136.546 241.52 143.091 252.386 141.942C266.408 140.444 269.668 121.424 257.306 118.039C257.306 118.039 262.677 111.494 253.206 108.457C244.452 105.687 244.103 107.411 237.994 100.537C234.468 96.5772 213.393 98.6905 207.591 120.419C207.489 120.419 212.286 119.434 211.589 126.943Z" fill="#2F2F2F"/>
<path d="M142.171 267.121C142.623 257.683 148.465 233.164 156.686 217.509C164.907 201.854 160.786 181.726 149.695 173.847C138.604 165.968 123.044 167.405 115.602 178.32C95.7577 207.619 101.518 273.543 112.24 295.805C114.29 300.216 119.477 303.089 126.427 304.812C111.359 297.918 126.468 263.53 142.171 267.121Z" fill="#12BB6C"/>
<path d="M200.539 293.979L230.265 257.97C230.893 257.206 231.729 256.643 232.672 256.348C233.615 256.052 234.624 256.039 235.574 256.308L286.006 270.219C286.289 270.297 286.545 270.448 286.749 270.659C286.953 270.869 287.097 271.13 287.166 271.415C287.235 271.699 287.226 271.998 287.142 272.278C287.057 272.558 286.898 272.811 286.683 273.009L248.49 307.479C248.087 307.834 247.605 308.089 247.085 308.221C246.564 308.353 246.02 308.359 245.497 308.238L201.81 297.979C201.397 297.884 201.017 297.682 200.706 297.395C200.396 297.108 200.165 296.745 200.037 296.341C199.908 295.937 199.887 295.507 199.975 295.093C200.063 294.679 200.257 294.295 200.539 293.979Z" fill="#030303"/>
<path d="M236.19 279.719C235.337 277.567 234.048 275.615 232.404 273.987C230.759 272.359 228.795 271.09 226.636 270.26C224.586 269.644 208.985 269.932 200.621 270.116C197.379 270.215 194.226 271.193 191.498 272.948C188.853 274.589 185.573 276.415 183.954 276.415H157.672C152.82 272.843 147.629 269.757 142.173 267.203C126.469 263.612 111.422 297.979 126.428 304.894C151.767 311.172 201.769 302.001 222.782 294.82C227.453 293.271 231.51 290.274 234.365 286.264C235.14 285.38 235.707 284.332 236.023 283.199C236.339 282.066 236.396 280.877 236.19 279.719Z" fill="url(#paint19_linear_724_789)"/>
<path d="M58.2012 441.255L142.603 440.762L227.025 440.578L395.87 440.229L564.714 440.578L649.136 440.762L733.538 441.255L649.136 441.768L564.714 441.932L395.87 442.281L227.025 441.932L142.603 441.747L58.2012 441.255Z" fill="#001462"/>
<path d="M414.548 447H486.526C487.509 447.003 488.484 446.811 489.393 446.435C490.302 446.06 491.128 445.508 491.823 444.813C492.518 444.117 493.07 443.29 493.445 442.38C493.82 441.47 494.011 440.495 494.009 439.511C494.009 439.064 493.921 438.621 493.75 438.208C493.579 437.794 493.328 437.419 493.012 437.103C492.696 436.786 492.321 436.535 491.908 436.364C491.495 436.193 491.052 436.105 490.606 436.105H414.548C414.101 436.105 413.658 436.193 413.245 436.364C412.832 436.535 412.457 436.786 412.141 437.103C411.825 437.419 411.575 437.794 411.404 438.208C411.233 438.621 411.145 439.064 411.145 439.511V443.614C411.15 444.514 411.511 445.375 412.148 446.01C412.786 446.644 413.649 447 414.548 447Z" fill="#111111"/>
<path d="M287.195 447H437.568C438.919 446.997 440.252 446.683 441.462 446.082C442.672 445.481 443.727 444.608 444.546 443.533C445.365 442.457 445.925 441.207 446.184 439.88C446.442 438.553 446.391 437.184 446.035 435.879L419.486 339.179C418.661 336.129 416.854 333.437 414.345 331.519C411.836 329.602 408.765 328.565 405.607 328.571H255.234C253.881 328.573 252.546 328.888 251.334 329.49C250.122 330.093 249.065 330.967 248.246 332.045C247.427 333.123 246.867 334.376 246.61 335.706C246.354 337.036 246.408 338.407 246.767 339.713L273.295 436.392C274.122 439.446 275.932 442.14 278.445 444.058C280.959 445.977 284.034 447.011 287.195 447Z" fill="#252525"/>
<path d="M728.209 372.131C725.953 372.746 722.796 375.27 719.332 378.614C715.512 382.457 711.466 386.068 707.216 389.427C704.305 391.684 701.435 393.715 698.646 395.706C695.858 397.696 693.234 399.624 690.918 401.553C686.161 405.349 682.553 409.104 681.303 411.915C682.553 409.124 683.086 403.974 685.403 397.696C686.678 394.25 688.365 390.971 690.426 387.929C692.832 384.441 695.765 381.347 699.118 378.758C704.25 374.999 710.359 372.805 716.708 372.438C722.058 372.007 725.974 372.746 728.209 372.131Z" fill="#2ECC82"/>
<path d="M679.437 409.801C679.663 407.011 678.289 402.497 677.387 396.567C676.157 389.496 676.282 382.254 677.756 375.229C679.881 366.477 683.479 358.151 688.396 350.608C692.496 344.124 696.371 339.425 697.847 336.061C696.371 339.425 695.571 345.478 694.71 352.865C693.861 361.361 692.56 369.805 690.815 378.163C689.194 384.78 686.921 391.22 684.029 397.388C681.631 402.743 679.663 407.011 679.437 409.801Z" fill="#2ECC82"/>
<path d="M637.656 361.338C639.911 362.385 644.217 362.405 649.567 364.006C656.06 365.784 661.931 369.336 666.521 374.265C672.066 380.604 675.779 388.336 677.264 396.629C678.617 403.605 678.227 409.104 678.924 412.284C678.248 409.063 675.316 404.385 671.196 399.419C667.075 394.454 661.806 389.16 656.578 383.231C652.232 378.45 648.973 373.629 645.877 369.545C643.743 366.262 640.942 363.466 637.656 361.338Z" fill="#2ECC82"/>
<path d="M706.374 393.715H661.99C661.435 393.714 660.887 393.831 660.381 394.058C659.874 394.285 659.422 394.617 659.054 395.032C658.686 395.448 658.41 395.936 658.244 396.466C658.079 396.996 658.028 397.555 658.095 398.106L663.507 443.533C663.618 444.488 664.076 445.37 664.794 446.009C665.513 446.649 666.441 447.001 667.402 447H700.962C701.923 447.001 702.852 446.649 703.57 446.009C704.288 445.37 704.746 444.488 704.857 443.533L710.269 398.106C710.336 397.555 710.285 396.996 710.12 396.466C709.955 395.936 709.679 395.448 709.31 395.032C708.942 394.617 708.49 394.285 707.984 394.058C707.478 393.831 706.929 393.714 706.374 393.715Z" fill="#232323"/>
<path d="M655.902 393.879L657.952 410.704C658.011 411.152 658.231 411.563 658.57 411.861C658.91 412.159 659.345 412.324 659.797 412.325H708.671C709.12 412.323 709.553 412.158 709.889 411.859C710.225 411.561 710.44 411.15 710.495 410.704L712.545 393.879C712.571 393.621 712.543 393.36 712.462 393.113C712.381 392.866 712.249 392.639 712.076 392.446C711.902 392.253 711.69 392.098 711.453 391.991C711.216 391.885 710.96 391.829 710.7 391.828H657.747C657.487 391.829 657.231 391.885 656.994 391.991C656.757 392.098 656.545 392.253 656.371 392.446C656.198 392.639 656.066 392.866 655.985 393.113C655.905 393.36 655.876 393.621 655.902 393.879Z" fill="#CBCBCB"/>
</g>
<defs>
<linearGradient id="paint0_linear_724_789" x1="337.708" y1="189.789" x2="301.108" y2="222.711" gradientUnits="userSpaceOnUse">
<stop stop-color="#F6B3B5"/>
<stop offset="1" stop-color="#FAD1D3"/>
</linearGradient>
<linearGradient id="paint1_linear_724_789" x1="294.393" y1="293.978" x2="309.623" y2="318.445" gradientUnits="userSpaceOnUse">
<stop stop-color="#F6B3B5"/>
<stop offset="1" stop-color="#FAD1D3"/>
</linearGradient>
<linearGradient id="paint2_linear_724_789" x1="310.382" y1="137.448" x2="292.806" y2="204.965" gradientUnits="userSpaceOnUse">
<stop stop-color="#F6B3B5"/>
<stop offset="1" stop-color="#FAD1D3"/>
</linearGradient>
<linearGradient id="paint3_linear_724_789" x1="274.691" y1="236.59" x2="321.801" y2="236.59" gradientUnits="userSpaceOnUse">
<stop stop-color="#F6B3B5"/>
<stop offset="1" stop-color="#FAD1D3"/>
</linearGradient>
<linearGradient id="paint4_linear_724_789" x1="604.013" y1="471.58" x2="605.574" y2="273.071" gradientUnits="userSpaceOnUse">
<stop stop-color="#001462"/>
<stop offset="0.07" stop-color="#081E71"/>
<stop offset="0.25" stop-color="#193595"/>
<stop offset="0.44" stop-color="#2748B0"/>
<stop offset="0.62" stop-color="#3055C4"/>
<stop offset="0.81" stop-color="#365CD0"/>
<stop offset="1" stop-color="#385FD4"/>
</linearGradient>
<linearGradient id="paint5_linear_724_789" x1="699.568" y1="375.414" x2="557.292" y2="375.414" gradientUnits="userSpaceOnUse">
<stop stop-color="#050505"/>
<stop offset="0.99" stop-color="#464646"/>
</linearGradient>
<linearGradient id="paint6_linear_724_789" x1="648.809" y1="268.906" x2="648.809" y2="472.524" gradientUnits="userSpaceOnUse">
<stop stop-color="#010101"/>
<stop offset="1" stop-color="#515151"/>
</linearGradient>
<linearGradient id="paint7_linear_724_789" x1="584.313" y1="211.682" x2="551.166" y2="235.026" gradientUnits="userSpaceOnUse">
<stop stop-color="#F6B3B5"/>
<stop offset="0.99" stop-color="#FAD1D3"/>
</linearGradient>
<linearGradient id="paint8_linear_724_789" x1="564.612" y1="155.873" x2="539.618" y2="185.747" gradientUnits="userSpaceOnUse">
<stop stop-color="#F6B3B5"/>
<stop offset="0.99" stop-color="#FAD1D3"/>
</linearGradient>
<linearGradient id="paint9_linear_724_789" x1="470.423" y1="267.849" x2="470.423" y2="433.118" gradientUnits="userSpaceOnUse">
<stop stop-color="#0FAA61"/>
<stop offset="1" stop-color="#0F8B51"/>
</linearGradient>
<linearGradient id="paint10_linear_724_789" x1="502.107" y1="249.886" x2="440.16" y2="274.329" gradientUnits="userSpaceOnUse">
<stop stop-color="#F6B3B5"/>
<stop offset="0.99" stop-color="#FAD1D3"/>
</linearGradient>
<linearGradient id="paint11_linear_724_789" x1="467.684" y1="168.861" x2="458.978" y2="260.205" gradientUnits="userSpaceOnUse">
<stop stop-color="#F6B3B5"/>
<stop offset="0.99" stop-color="#FAD1D3"/>
</linearGradient>
<linearGradient id="paint12_linear_724_789" x1="458.827" y1="344.637" x2="497.469" y2="209.483" gradientUnits="userSpaceOnUse">
<stop stop-color="#8CC6FF"/>
<stop offset="1" stop-color="#F6B3B5"/>
</linearGradient>
<linearGradient id="paint13_linear_724_789" x1="463.749" y1="443.533" x2="463.749" y2="405.431" gradientUnits="userSpaceOnUse">
<stop stop-color="#F6B3B5"/>
<stop offset="0.99" stop-color="#FAD1D3"/>
</linearGradient>
<linearGradient id="paint14_linear_724_789" x1="503.806" y1="387.334" x2="486.396" y2="336.787" gradientUnits="userSpaceOnUse">
<stop stop-color="#F6B3B5"/>
<stop offset="0.99" stop-color="#FAD1D3"/>
</linearGradient>
<linearGradient id="paint15_linear_724_789" x1="78.785" y1="369.566" x2="431.378" y2="437.187" gradientUnits="userSpaceOnUse">
<stop offset="0.1" stop-color="#001462"/>
<stop offset="0.3" stop-color="#142E8A"/>
<stop offset="0.49" stop-color="#2343AA"/>
<stop offset="0.68" stop-color="#2F53C1"/>
<stop offset="0.85" stop-color="#365CCF"/>
<stop offset="1" stop-color="#385FD4"/>
</linearGradient>
<linearGradient id="paint16_linear_724_789" x1="321.637" y1="71.8737" x2="128.749" y2="323.39" gradientUnits="userSpaceOnUse">
<stop stop-color="#26D784"/>
<stop offset="0.989583" stop-color="#0F874F"/>
</linearGradient>
<linearGradient id="paint17_linear_724_789" x1="196.643" y1="134.432" x2="203.788" y2="192.353" gradientUnits="userSpaceOnUse">
<stop stop-color="#F6B3B5"/>
<stop offset="1" stop-color="#FAD1D3"/>
</linearGradient>
<linearGradient id="paint18_linear_724_789" x1="254.929" y1="102.322" x2="201.392" y2="162.929" gradientUnits="userSpaceOnUse">
<stop stop-color="#F6B3B5"/>
<stop offset="1" stop-color="#FAD1D3"/>
</linearGradient>
<linearGradient id="paint19_linear_724_789" x1="178.316" y1="305.427" x2="178.316" y2="268.967" gradientUnits="userSpaceOnUse">
<stop stop-color="#F6B3B5"/>
<stop offset="1" stop-color="#FAD1D3"/>
</linearGradient>
<clipPath id="clip0_724_789">
<rect width="786" height="447" fill="white"/>
</clipPath>
</defs>
</svg>
