<svg width="786" height="447" fill="none" xmlns="http://www.w3.org/2000/svg"><g clip-path="url(#a)"><path d="m159.951 232.103-.662.301-1.204.589c-.797.377-1.504.769-2.242 1.162-1.504.799-2.799 1.614-4.138 2.459a87.927 87.927 0 0 0-7.629 5.417 102.646 102.646 0 0 0-13.378 12.555 115.411 115.411 0 0 0-11 14.455 128.665 128.665 0 0 0-8.577 15.814 139.128 139.128 0 0 0-6.275 16.598c-.797 2.837-1.685 5.659-2.302 8.526l-1.008 4.27-.828 4.3a178.92 178.92 0 0 0-2.603 21.231v-26.874a131.4 131.4 0 0 1 5.236-19.541c3.823-11.468 9.481-24.761 15.755-39.141 5.147-11.755 9.526-22.091 13.544-30.481 4.017-8.39 8.095-14.561 11.391-17.866-3.251 3.275-9.405 7.545-16.026 14.622a103.827 103.827 0 0 0-19.292 29.137 138.411 138.411 0 0 0-10.668 40.017V231.62a52.068 52.068 0 0 1 5.236-11.574c3.822-6.579 9.029-13.867 14.386-22.241a148.133 148.133 0 0 0 9.932-18.998 94.067 94.067 0 0 1 6.019-12.388c-1.641 2.459-5.779 4.994-10.534 8.933a68.483 68.483 0 0 0-14.912 16.417 72.064 72.064 0 0 0-10.067 25.984v-22.242c1.504-10.246 4.83-25.652 4.83-43.563 0-19.133-5.643-33.438-5.643-40.198 0 6.76-5.643 21.125-5.643 40.198 0 17.881 3.28 33.317 4.846 43.563v24.218a155.76 155.76 0 0 0-11.587-43.879 122.413 122.413 0 0 0-20.405-31.854 153.864 153.864 0 0 0-17.08-16.146c3.838 3.35 8.051 10.201 12.4 19.315s9.029 20.431 14.732 33.196c6.756 15.708 12.67 30.179 16.658 42.733a139.761 139.761 0 0 1 5.282 21.487v37.362a207.763 207.763 0 0 0-1.942-13.777 224.287 224.287 0 0 0-7.523-29.937 257.93 257.93 0 0 0-11.09-28.67c-2.123-4.678-4.515-9.28-6.953-13.882a136.41 136.41 0 0 0-8.713-13.837 23.165 23.165 0 0 1 4.123 16.764 44.976 44.976 0 0 1-1.73 7.998c-.813 2.58-1.76 5.039-2.678 7.303a8.739 8.739 0 0 0 0 7.846 18.255 18.255 0 0 0 4.89 5.432c3.777 3.29 7.78 6.383 4.98 10.925-2.798 4.542-6.018 8.752-5.762 13.581a14.493 14.493 0 0 0 3.31 8.284 72.72 72.72 0 0 0 11.105 11.226 62.633 62.633 0 0 1 8.593 9.159 66.054 66.054 0 0 1 9.27 16.267l.09.211v42.808c-.151-.95-4.846-27.9-20.812-42.793-15.048-14.003-28.997-18.454-32.669-20.506 3.702 2.052 24.814 28.202 31.721 37.21 10.64 13.897 21.76 31.295 21.76 50.549v58.336h1.61v-73.742a25.293 25.293 0 0 1 1.309-4.934 32.714 32.714 0 0 1 4.409-7.801 49.692 49.692 0 0 1 6.019-6.338c2.167-1.871 4.364-3.531 6.425-5.04a10.185 10.185 0 0 0 4.68-7.031 24.221 24.221 0 0 0-.496-7.862c-.226-1.343-.482-2.671-.647-3.953a17.272 17.272 0 0 1 0-3.637 5.738 5.738 0 0 1 3.942-5.085c5.131-1.931 10.428-3.018 13.724-6.851a12.314 12.314 0 0 0 2.182-3.47 23.822 23.822 0 0 0 1.505-4.919 162.685 162.685 0 0 0 1.835-16.418 52.085 52.085 0 0 1 8.818-23.931c4.124-6.036 8.382-9.476 9.104-9.733l-.933.408Zm443.981.884.718.328 1.291.637c.841.41 1.599.82 2.378 1.251a84.833 84.833 0 0 1 4.449 2.626 94.079 94.079 0 0 1 8.2 5.786 109.78 109.78 0 0 1 14.351 13.419 123.943 123.943 0 0 1 11.788 15.45 141.678 141.678 0 0 1 9.164 16.886 147.293 147.293 0 0 1 6.724 17.809c.861 3.017 1.804 6.033 2.46 9.09l1.087 4.575.881 4.596a189.99 189.99 0 0 1 2.788 22.693v-28.725a139.982 139.982 0 0 0-5.596-20.887c-4.101-12.311-10.148-26.468-16.873-41.836-5.514-12.557-10.25-23.595-14.576-32.561a73.879 73.879 0 0 0-12.3-19.103c3.485 3.488 10.066 8.023 17.159 15.635a109.909 109.909 0 0 1 20.665 31.125 147.487 147.487 0 0 1 11.419 42.759v-62.066a56.234 56.234 0 0 0-5.597-12.31c-4.1-7.038-9.738-14.835-15.416-23.781a158.023 158.023 0 0 1-10.538-20.251 102.795 102.795 0 0 0-6.478-13.254c1.763 2.626 6.15 5.355 11.275 9.561a73.055 73.055 0 0 1 16.011 17.522 76.908 76.908 0 0 1 10.784 27.761v-23.821c-1.661-10.957-5.166-27.453-5.166-46.555 0-20.518 6.027-35.742 6.027-42.964 0 7.222 6.048 22.569 6.048 42.964 0 19.102-3.506 35.619-5.187 46.555v25.873a165.823 165.823 0 0 1 12.423-46.883 129.853 129.853 0 0 1 21.916-34.039 166.828 166.828 0 0 1 18.286-17.276c-4.1 3.59-8.61 10.915-13.264 20.641-4.653 9.725-9.758 21.851-15.785 35.536-7.216 16.763-13.572 32.275-17.836 45.652a149.55 149.55 0 0 0-5.658 22.939v39.928a249.56 249.56 0 0 1 2.05-14.732 236.989 236.989 0 0 1 7.995-31.987 270.324 270.324 0 0 1 11.911-30.592c2.276-5.006 4.777-9.931 7.442-14.834a142.237 142.237 0 0 1 9.328-14.773 24.634 24.634 0 0 0-4.408 17.85 48.871 48.871 0 0 0 1.866 8.556c.861 2.749 1.886 5.376 2.87 7.797a9.398 9.398 0 0 1 0 8.392 19.652 19.652 0 0 1-5.228 5.806c-4.1 3.509-8.344 6.812-5.351 11.675 2.994 4.862 6.458 9.335 6.151 14.588a15.272 15.272 0 0 1-3.567 8.761 77.481 77.481 0 0 1-11.891 12.003 65.343 65.343 0 0 0-9.205 9.807 82.45 82.45 0 0 0-6.396 9.787c-1.619 3.037-2.727 5.704-3.526 7.571v45.899c.164-1.006 5.207-29.813 22.284-45.734 16.073-14.958 31.059-19.718 34.995-21.913-3.977 2.195-26.651 30.14-33.97 39.783-11.398 14.835-23.289 33.444-23.289 54.003v62.354h-1.722v-78.727a27.464 27.464 0 0 0-1.394-5.252 35.416 35.416 0 0 0-4.715-8.351 55.704 55.704 0 0 0-6.376-6.771c-2.316-2.052-4.674-3.775-6.888-5.396a10.896 10.896 0 0 1-5.002-7.51 25.489 25.489 0 0 1 .533-8.391c.246-1.437.512-2.852.676-4.227a17.65 17.65 0 0 0 0-3.899 6.156 6.156 0 0 0-4.223-5.416c-5.494-2.052-11.173-3.222-14.699-7.325a13.401 13.401 0 0 1-2.337-3.693 24.33 24.33 0 0 1-1.619-5.273 171.135 171.135 0 0 1-2.051-17.543 55.432 55.432 0 0 0-9.45-25.586 37.264 37.264 0 0 0-9.738-10.402l.922.41Z" fill="#ABDDC6"/><path d="M272.906 396.054c3.363 14.219 8.201 30.161 13.428 45.139h85.161a414.01 414.01 0 0 0 5.637-19.902c10.456-40.748-.553-75.916-10.455-91.981-9.902-16.065-18.451-34.88-3.321-58.27 15.13-23.391 16.524-41.426 16.524-41.426-2.194-8.802-9.082-11.839-26.938-20.374l-2.727-.903c-3.834 15.368-11.809 27.679-25.872 30.182-18.451 3.242-35.077-8.002-43.482-27.761-8.201 2.401-17.159 4.945-21.465 7.387 0 0 22.551 49.017 26.857 76.736 4.305 27.72-23.638 57.655-13.347 101.173Z" fill="#252525"/><path d="M324.342 238.519c14.145-2.503 22.12-14.732 25.913-30.1-5.925-2.051-19.845-6.791-23.72-8.74-4.961-2.483-3.567-22.57-3.567-22.57l-26.159 7.469v19.512c0 1.826-7.483 4.104-15.95 6.668 8.324 19.759 25.032 31.003 43.483 27.761Z" fill="url(#b)"/><path d="m322.888 177.417-26.159 7.469v16.598a53.322 53.322 0 0 1 18.078 15.496 53.361 53.361 0 0 1 9.536 21.826c14.064-2.544 22.018-14.731 25.79-30.079-5.925-2.052-19.845-6.791-23.719-8.72-4.921-2.482-3.526-22.59-3.526-22.59Z" fill="#CB9EAE"/><path d="M339.023 299.046c-11.685 3.57-22.694 7.489-28.516 7.489-11.563 0-28.701-16.25-36.697-6.319-7.995 9.93-9.266 16.414-2.952 20.928 6.314 4.514 26.426-1.662 36.061.267 4.305.861 18.963 1.6 34.544 1.374 1.332-6.196 1.127-17.522-2.44-23.739Z" fill="url(#c)"/><path d="M380.288 229.696c-2.706-10.853-25.031 9.09-19.537 27.268 4.715 15.594 3.014 36.543 3.014 36.543l21.854 22.118c7.421-9.09-3.137-77.106-5.331-85.929Z" fill="#2F2F2F"/><path d="M371.044 293.589c-8.467-1.231-20.501 1.949-32.023 5.457 3.568 6.156 3.752 17.543 2.44 23.739 19.312-.307 40.038-2.051 44.159-7.16 0 0 9.902-18.446-14.576-22.036Z" fill="#2F2F2F"/><path d="M290.68 147.051c-4.592 8.925-4.1 39.312 8.672 42.102 11.153 2.462 17.344-8.412 17.344-8.412v-20.148a14.769 14.769 0 0 1-7.134-10.998c-.677-6.155-4.326-6.832-4.326-6.832s-7.667 4.534-14.556 4.288Z" fill="url(#d)"/><path d="M270.855 294.881c-5.761-11.613-9.574-26.242-12.956-34.49-6.356-15.573-7.401-37.301 1.414-42.246 16.237-8.33 23.104 20.292 24.212 28.581 1.107 8.289 3.3 27.72 9.368 34.675l-22.038 13.48Z" fill="#2F2F2F"/><path d="M342.794 194.406c-11.009-6.874 1.25-44.852-17.2-59.502a24.21 24.21 0 0 0-12.619-5.267 24.203 24.203 0 0 0-23.463 11.742 24.241 24.241 0 0 0-3.362 13.263v54.434c6.027-1.867 10.558-3.611 10.558-5.027v-15.983c-10.127-6.463-10.25-32.685-6.048-41.036 6.889.246 14.556-4.288 14.556-4.288s3.649.657 4.326 6.832a14.773 14.773 0 0 0 7.134 10.998v20.148c0 18.918 4.551 39.6 15.334 40.749 10.784 1.149 12.608-13.07 20.87-12.167.021.041.923-8.002-10.086-14.896Z" fill="#181818"/><path d="M286.6 267.429c-6.007 8.207-15.437 15.408-15.745 27.452 5.105 10.259 11.747 18.2 20.932 17.174 13.53-1.539 18.225-17.481 19.824-32.07-9.041.698-20.562-6.463-25.011-12.556Z" fill="#2F2F2F"/><path d="M307.041 193.216c-2.583 1.169-11.727 9.151-11.727 11.141 0 1.99 4.101 17.03 4.101 21.626s-4.101 24.518-9.697 36.337a31.623 31.623 0 0 1-3.116 5.109c4.448 6.155 15.97 13.254 25.011 12.556.578-5.726.851-11.479.82-17.234 0 0 .922-33.383 2.419-35.763 1.496-2.38 1.373-5.724 1.373-8.761v-6.155s2.05-.123 2.235-3.755v-.328c0-3.981-8.836-15.943-11.419-14.773Z" fill="url(#e)"/><path d="M528.529 207.968v97.439s32.494 1.005 31.51 0c-.984-1.005 0-45.262 0-45.262l-31.51-52.177Z" fill="#2ECC82"/><path d="M592.738 315.809a193.66 193.66 0 0 1 0 46.863c-1.005 7.858-24.109 77.967-24.109 77.967h56.316l15.519-74.335-20.501-56.773-27.225 6.278Z" fill="url(#f)"/><path d="M592.738 315.809a193.559 193.559 0 0 1 0 46.863c-1.004 7.858-28.701 78.604-28.701 78.604h60.928l15.519-74.931-20.5-56.773-27.246 6.237Z" fill="url(#g)"/><path d="M659.1 296.461c8.201 26.037 45.471 34.449 35.221 76.49-7.401 30.346-22.551 68.324-22.551 68.324h-70.256s22.14-66.149 22.14-74.93c0-8.782-13.838-53.777-13.838-53.777l49.284-16.107Z" fill="url(#h)"/><path d="M539.886 185.932c-8.2 3.96-15.867 21.585-8.2 38.142 7.667 16.558 8.651 13.583 11.522 26.571 2.87 12.988 1.742 20.189 25.502 36.378 23.761 16.188 23.023 20.518 24.109 28.725 1.087 8.207 67.858 6.442 66.771-24.334-1.086-30.777.636-66.683-19.27-83.528-19.907-16.845-100.434-21.954-100.434-21.954Z" fill="#12BB6C"/><path d="M531.605 147.625v92.864s33.683-18.076 33.376-35.783c-.308-17.707-15.13-57.081-15.13-57.081h-18.246Z" fill="#2F2F2F"/><path d="M555.264 203.351s4.489 7.264 6.006 10.403c1.517 3.139-5.227 16.927-3.013 28.725 2.214 11.798 16.872 9.807 20.132 0 .984-2.975 3.608-23.965 3.608-23.965v-34.695l-26.733 19.532Z" fill="url(#i)"/><path d="M561.27 213.754c9.472-10.628 19.271 34.326 3.752 36.604h.103l2.234.246a11.85 11.85 0 0 0 11.03-8.105c.984-2.975 3.608-23.964 3.608-23.964v-34.716l-26.651 19.532s4.407 7.264 5.924 10.403Z" fill="#CB9EAE"/><path d="M535.501 144.978c-4.592 28.582.471 54.906 14.227 58.025 13.756 3.118 33.499-11.942 33.499-25.237 0-13.296 13.305-47.93-1.825-55.829-15.13-7.899-42.929 4.842-45.901 23.041Z" fill="url(#j)"/><path d="M547.104 142.373a121.781 121.781 0 0 1-12.465 9.192c-5.268 3.139-3.977-14.978 6.151-23.493 10.127-8.515 23.596-15.758 29.029-10.875 0 0 17.015-4.698 27.327 12.68 10.312 17.379 11.05 32.972 14.351 37.322 3.3 4.35 8.692 7.058 6.15 15.204 0 0 18.102-3.611 20.808 8.884 2.706 12.495 1.825 16.537 1.825 16.537a64.855 64.855 0 0 0-17.159-8.453s-7.77 6.155-15.191 6.155c-7.422 0-16.77 29.956-29.808 29.956l-.062-71.278s-29.439-3.837-30.956-21.831Z" fill="#2F2F2F"/><path d="M381.929 294.184c-34.195 35.639-63.552 144.342-63.552 144.342h49.017l30.752-72.181-16.217-72.161Z" fill="#0F9355"/><path d="M560.103 300.072c-7.155-8.207-45.266-34.88-93.853-32.007-42.847 2.564-77.513 15.819-84.258 26.119-4.941 7.53 5.884 58.393 13.407 78.644a177.884 177.884 0 0 1 10.825 60.281s121.159-.718 121.877 0c.717.719 15.047-44.749 16.933-67.339 1.887-22.59-2.419-47.581 15.069-65.698Z" fill="url(#k)"/><path d="M494.501 225.88s.615 37.671 0 48.935c-.615 11.264-18.02 21.359-24.478 21.646-6.457.287-20.808-9.274-23.043-25.319v-34.018l47.521-11.244Z" fill="url(#l)"/><path d="M494.684 246.275c0-10.916-.226-20.518-.226-20.518l-47.52 11.244v27.904c3.956 17.44 30.238 12.68 36.491-3.857 3.588-9.357 6.663-12.168 11.255-14.773Z" fill="#CB9EAE"/><path d="M434.33 211.23c1.783 27.617 13.038 54.331 30.853 51.52 22.1-3.488 28.804-36.931 27.922-55.397-.881-18.466-11.275-29.71-27.122-29.731-15.068.062-33.17 10.218-31.653 33.608Z" fill="url(#m)"/><path d="M498.312 220.422c-1.189 5.499-3.875 9.685-5.986 9.336-2.112-.349-2.891-5.109-1.702-10.608 1.189-5.498 3.854-9.684 5.986-9.335 2.132.349 2.87 5.109 1.702 10.607Z" fill="url(#n)"/><path d="M434.679 215.498c-3.362-5.15-3.588-7.181-3.342-15.737.246-8.556 7.462-8.864 7.319-12.516-.144-3.652 4.51-13.501 23.555-14.362 19.046-.862 17.897 7.94 23.802 8.515 5.904.574 15.047 6.627 10.599 28.294 0 0-5.187.492-7.217 10.977a.943.943 0 0 1-1.66.307 13.694 13.694 0 0 1-1.763-4.103c-1.415-5.232-7.114 2.647-8.201-7.797-.738-7.448-18.881 6.155-32.329-5.868 0 0-2.05 2.667-7.729 2.503-3.28.103-3.034 9.787-3.034 9.787Z" fill="#181818"/><path d="M446.916 315.461s1.578 2.051 4.51-2.462c2.931-4.514 12.936-18.077 16.4-16.743-7.052-1.457-18.881-10.628-20.91-25.093v-1.17a228.404 228.404 0 0 0-16.073 2.832c-1.414 7.961 4.572 33.813 16.073 42.636Zm47.583-40.646c-.533 9.766-13.776 18.712-21.464 21.051 3.629-1.415 16.975 16.168 19.291 20.046 2.317 3.878 6.561-1.375 10.804-12.187 3.055-7.838 7.811-21.359 5.823-30.9a140.268 140.268 0 0 0-14.351-3.201c-.103 2.052-.103 3.816-.103 5.191Z" fill="#131313"/><path d="M446.938 271.142v-8.207c-7.114 3.119-13.695 5.766-14.351 9.828-1.415 7.981 4.961 31.146 14.351 39.333 0 0 1.558 2.051 4.489-2.462 2.932-4.514 12.957-14.732 16.401-13.399-7.032-1.456-18.881-10.628-20.89-25.093Zm59.39-1.374c-1.947-4.453-8.343-8.084-11.603-9.623 0 6.053 0 11.449-.267 14.67-.512 9.766-13.756 18.712-21.464 21.051 3.649-1.416 16.995 12.824 19.312 16.702 2.316 3.877 5.166-.657 9.861-11.265 4.694-10.607 7.38-24.252 4.161-31.535Z" fill="#2F2F2F"/><path d="M583.555 410.519c0-31.248-9.103-93.889-23.515-110.447 0 0-22.55 12.085-29.746 50.412-2.05 11.449 1.496 44.155 2.439 57.984l50.822 2.051Z" fill="#0FA05C"/><path d="M495.483 441.193h68.534c10.148 0 21.075-8.207 19.538-30.776-1.538-22.57-38.275-19.328-50.822-2.052l-37.762 5.766.512 27.062Z" fill="#0FA05C"/><path d="m460.961 439.901 3.239-3.037 9.84 3.488a15.85 15.85 0 0 0 5.33.924h19.579a12.958 12.958 0 0 0 7.02-4.803 12.976 12.976 0 0 0 2.533-8.124 13.37 13.37 0 0 0-3.581-9.887 13.338 13.338 0 0 0-9.621-4.229h-21.444a15.07 15.07 0 0 1-3.198-.328l-15.253-3.201a9.384 9.384 0 0 0-6.601 1.067l-8.652 4.965a21.68 21.68 0 0 0-4.571 3.509l-15.683 15.737a3.103 3.103 0 0 0-.676 3.382 3.104 3.104 0 0 0 2.869 1.912h35.385a5.105 5.105 0 0 0 3.485-1.375Z" fill="url(#o)"/><path d="M642.721 211.764c-14.699-8.515-40.448 15.675-34.852 44.236 5.597 28.561-25.871 64.139-25.871 64.139s-35.528 14.362-49.797 16.988a55.095 55.095 0 0 1 9.082 21.38c23.35-1.929 56.828-6.668 70.359-17.953 20.5-17.071 42.19-80.019 42.19-99.963 0-23.349-11.111-28.827-11.111-28.827Z" fill="#2ECC82"/><path d="M528.469 337.456h-45.943s-32.801 11.12-33.662 13.028c-.861 1.909-2.542 13.214 0 15.861 2.542 2.646 19.189 7.366 23.453 6.504 4.264-.862 37.496-13.214 45.102-13.214 2.583 0 11.87-.246 23.801-1.231a55.09 55.09 0 0 0-9.082-21.379 22.973 22.973 0 0 1-3.669.431Z" fill="url(#p)"/><path d="M234.139 306.905s11.521 9.11 23.289 0c11.767-9.11 3.669-24.622 3.669-24.622l-26.958 14.363v10.259Z" fill="#12BB6C"/><path d="M250.661 221.469v68.18H228.5v-64.446l22.161-3.734Z" fill="#12BB6C"/><path d="M214.54 390.863c-2.05 11.367-14.248 27.351-21.956 50.413h44.036c4.223-27.699 8.036-64.898 2.05-97.973h-25.421c2.439 11.141 3.3 36.85 1.291 47.56Z" fill="#202020"/><path d="M172.33 388.401s5.084 24.745 8.508 52.793h11.685c7.709-23.062 19.825-38.984 21.957-50.413 2.05-10.71 1.045-36.419-1.292-47.56h-39.812l-1.046 45.18Z" fill="url(#q)"/><path d="M213.248 343.303a26.271 26.271 0 0 0-.964-3.508h-76.55c1.066 36.932 3.957 73.535 5.72 101.481h51.109c7.708-23.062 19.824-38.984 21.956-50.413 2.029-10.71 1.168-36.419-1.271-47.56Z" fill="#292929"/><path d="M187.91 160.818c-45.245-12.167-75.853 8.064-80.835 37.096-4.592 26.53 28.702 108.744 28.702 141.881 0 0 53.65 27.658 102.873 3.508 0 0-7.381-35.229 0-66.416 7.38-31.187 17.2-49.078 8.856-71.463-7.216-19.554-38.419-38.922-59.596-44.606Z" fill="url(#r)"/><path d="M204.843 130.821s-17.098 21.503-24.294 28.356c-7.195 6.853 6.151 20.866 16.176 26.817 6.662 3.918 20.726 8.207 16.585-3.96 0 0-2.358-6.853 9-16.599 0 0-12.608-37.691-17.467-34.614Z" fill="url(#s)"/><path d="M222.311 165.435a249.956 249.956 0 0 0-11.112-27.658l-5.576 2.626c-6.478 13.316-7.647 38.389 7.688 41.631 0 0-2.358-6.853 9-16.599Z" fill="#CB9EAE"/><path d="M211.59 126.943c1.455-8.207-5.884-8.802-8.2-2.051-2.625 7.817.266 13.233 3.259 11.428 0 0-5.822 17.666 1.517 28.294 7.34 10.628 16.708 6.545 28.435-5.006 10.066-9.931 16.626-22.057 17.651-26.674 2.665-12.31-10.004-22.056-21.874-21.42-14.515.8-20.788 15.429-20.788 15.429Z" fill="url(#t)"/><path d="M211.589 126.943c-.451 4.822.328 8.577 3.178 6.935 2.849-1.641 9.553-11.366 15.662-4.349 6.11 7.017 11.091 13.562 21.957 12.413 14.022-1.498 17.282-20.518 4.92-23.903 0 0 5.371-6.545-4.1-9.582-8.754-2.77-9.103-1.046-15.212-7.92-3.526-3.96-24.601-1.847-30.403 19.882-.102 0 4.695-.985 3.998 6.524Z" fill="#2F2F2F"/><path d="M142.171 267.121c.452-9.438 6.294-33.957 14.515-49.612 8.221-15.655 4.1-35.783-6.991-43.662-11.091-7.879-26.651-6.442-34.093 4.473-19.844 29.299-14.084 95.223-3.362 117.485 2.05 4.411 7.237 7.284 14.187 9.007-15.068-6.894.041-41.282 15.744-37.691Z" fill="#12BB6C"/><path d="m200.539 293.979 29.726-36.009a5.076 5.076 0 0 1 5.309-1.662l50.432 13.911a1.636 1.636 0 0 1 1.16 1.196 1.645 1.645 0 0 1-.483 1.594l-38.193 34.47a3.37 3.37 0 0 1-2.993.759l-43.687-10.259a2.432 2.432 0 0 1-1.773-1.638 2.437 2.437 0 0 1 .502-2.362Z" fill="#030303"/><path d="M236.19 279.719a16.74 16.74 0 0 0-9.554-9.459c-2.05-.616-17.651-.328-26.015-.144a17.867 17.867 0 0 0-9.123 2.832c-2.645 1.641-5.925 3.467-7.544 3.467h-26.282a91.766 91.766 0 0 0-15.499-9.212c-15.704-3.591-30.751 30.776-15.745 37.691 25.339 6.278 75.341-2.893 96.354-10.074a23.174 23.174 0 0 0 11.583-8.556 7.85 7.85 0 0 0 1.825-6.545Z" fill="url(#u)"/><path d="m58.201 441.255 84.402-.493 84.422-.184 168.845-.349 168.844.349 84.422.184 84.402.493-84.402.513-84.422.164-168.844.349-168.845-.349-84.422-.185-84.402-.492Z" fill="#001462"/><path d="M414.548 447h71.978a7.463 7.463 0 0 0 7.483-7.489 3.407 3.407 0 0 0-3.403-3.406h-76.058a3.407 3.407 0 0 0-2.407.998 3.407 3.407 0 0 0-.996 2.408v4.103a3.405 3.405 0 0 0 3.403 3.386Z" fill="#111"/><path d="M287.195 447h150.373a8.799 8.799 0 0 0 6.978-3.467 8.812 8.812 0 0 0 1.489-7.654l-26.549-96.7a14.348 14.348 0 0 0-13.879-10.608H255.234a8.798 8.798 0 0 0-8.467 11.142l26.528 96.679a14.365 14.365 0 0 0 5.15 7.666 14.337 14.337 0 0 0 8.75 2.942Z" fill="#252525"/><path d="M728.209 372.131c-2.256.615-5.413 3.139-8.877 6.483a135.9 135.9 0 0 1-12.116 10.813c-2.911 2.257-5.781 4.288-8.57 6.279-2.788 1.99-5.412 3.918-7.728 5.847-4.757 3.796-8.365 7.551-9.615 10.362 1.25-2.791 1.783-7.941 4.1-14.219a45.663 45.663 0 0 1 5.023-9.767 41.002 41.002 0 0 1 8.692-9.171 32.99 32.99 0 0 1 17.59-6.32c5.35-.431 9.266.308 11.501-.307Zm-48.772 37.67c.226-2.79-1.148-7.304-2.05-13.234a56.644 56.644 0 0 1 .369-21.338 79.387 79.387 0 0 1 10.64-24.621c4.1-6.484 7.975-11.183 9.451-14.547-1.476 3.364-2.276 9.417-3.137 16.804a241.065 241.065 0 0 1-3.895 25.298 103.037 103.037 0 0 1-6.786 19.225c-2.398 5.355-4.366 9.623-4.592 12.413Zm-41.781-48.463c2.255 1.047 6.561 1.067 11.911 2.668a36.25 36.25 0 0 1 16.954 10.259 46.384 46.384 0 0 1 10.743 22.364c1.353 6.976.963 12.475 1.66 15.655-.676-3.221-3.608-7.899-7.728-12.865-4.121-4.965-9.39-10.259-14.618-16.188-4.346-4.781-7.605-9.602-10.701-13.686a27.879 27.879 0 0 0-8.221-8.207Z" fill="#2ECC82"/><path d="M706.374 393.715H661.99a3.912 3.912 0 0 0-2.936 1.317 3.924 3.924 0 0 0-.959 3.074l5.412 45.427a3.921 3.921 0 0 0 3.895 3.467h33.56a3.913 3.913 0 0 0 3.895-3.467l5.412-45.427a3.924 3.924 0 0 0-.959-3.074 3.913 3.913 0 0 0-2.936-1.317Z" fill="#232323"/><path d="m655.902 393.879 2.05 16.825a1.865 1.865 0 0 0 1.845 1.621h48.874a1.844 1.844 0 0 0 1.824-1.621l2.05-16.825a1.86 1.86 0 0 0-.469-1.433 1.86 1.86 0 0 0-1.376-.618h-52.953a1.86 1.86 0 0 0-1.762 1.285c-.08.247-.109.508-.083.766Z" fill="#CBCBCB"/></g><defs><linearGradient id="b" x1="337.708" y1="189.789" x2="301.108" y2="222.711" gradientUnits="userSpaceOnUse"><stop stop-color="#F6B3B5"/><stop offset="1" stop-color="#FAD1D3"/></linearGradient><linearGradient id="c" x1="294.393" y1="293.978" x2="309.623" y2="318.445" gradientUnits="userSpaceOnUse"><stop stop-color="#F6B3B5"/><stop offset="1" stop-color="#FAD1D3"/></linearGradient><linearGradient id="d" x1="310.382" y1="137.448" x2="292.806" y2="204.965" gradientUnits="userSpaceOnUse"><stop stop-color="#F6B3B5"/><stop offset="1" stop-color="#FAD1D3"/></linearGradient><linearGradient id="e" x1="274.691" y1="236.59" x2="321.801" y2="236.59" gradientUnits="userSpaceOnUse"><stop stop-color="#F6B3B5"/><stop offset="1" stop-color="#FAD1D3"/></linearGradient><linearGradient id="f" x1="604.013" y1="471.58" x2="605.574" y2="273.071" gradientUnits="userSpaceOnUse"><stop stop-color="#001462"/><stop offset=".07" stop-color="#081E71"/><stop offset=".25" stop-color="#193595"/><stop offset=".44" stop-color="#2748B0"/><stop offset=".62" stop-color="#3055C4"/><stop offset=".81" stop-color="#365CD0"/><stop offset="1" stop-color="#385FD4"/></linearGradient><linearGradient id="g" x1="699.568" y1="375.414" x2="557.292" y2="375.414" gradientUnits="userSpaceOnUse"><stop stop-color="#050505"/><stop offset=".99" stop-color="#464646"/></linearGradient><linearGradient id="h" x1="648.809" y1="268.906" x2="648.809" y2="472.524" gradientUnits="userSpaceOnUse"><stop stop-color="#010101"/><stop offset="1" stop-color="#515151"/></linearGradient><linearGradient id="i" x1="584.313" y1="211.682" x2="551.166" y2="235.026" gradientUnits="userSpaceOnUse"><stop stop-color="#F6B3B5"/><stop offset=".99" stop-color="#FAD1D3"/></linearGradient><linearGradient id="j" x1="564.612" y1="155.873" x2="539.618" y2="185.747" gradientUnits="userSpaceOnUse"><stop stop-color="#F6B3B5"/><stop offset=".99" stop-color="#FAD1D3"/></linearGradient><linearGradient id="k" x1="470.423" y1="267.849" x2="470.423" y2="433.118" gradientUnits="userSpaceOnUse"><stop stop-color="#0FAA61"/><stop offset="1" stop-color="#0F8B51"/></linearGradient><linearGradient id="l" x1="502.107" y1="249.886" x2="440.16" y2="274.329" gradientUnits="userSpaceOnUse"><stop stop-color="#F6B3B5"/><stop offset=".99" stop-color="#FAD1D3"/></linearGradient><linearGradient id="m" x1="467.684" y1="168.861" x2="458.978" y2="260.205" gradientUnits="userSpaceOnUse"><stop stop-color="#F6B3B5"/><stop offset=".99" stop-color="#FAD1D3"/></linearGradient><linearGradient id="n" x1="458.827" y1="344.637" x2="497.469" y2="209.483" gradientUnits="userSpaceOnUse"><stop stop-color="#8CC6FF"/><stop offset="1" stop-color="#F6B3B5"/></linearGradient><linearGradient id="o" x1="463.749" y1="443.533" x2="463.749" y2="405.431" gradientUnits="userSpaceOnUse"><stop stop-color="#F6B3B5"/><stop offset=".99" stop-color="#FAD1D3"/></linearGradient><linearGradient id="p" x1="503.806" y1="387.334" x2="486.396" y2="336.787" gradientUnits="userSpaceOnUse"><stop stop-color="#F6B3B5"/><stop offset=".99" stop-color="#FAD1D3"/></linearGradient><linearGradient id="q" x1="78.785" y1="369.566" x2="431.378" y2="437.187" gradientUnits="userSpaceOnUse"><stop offset=".1" stop-color="#001462"/><stop offset=".3" stop-color="#142E8A"/><stop offset=".49" stop-color="#2343AA"/><stop offset=".68" stop-color="#2F53C1"/><stop offset=".85" stop-color="#365CCF"/><stop offset="1" stop-color="#385FD4"/></linearGradient><linearGradient id="r" x1="321.637" y1="71.874" x2="128.749" y2="323.39" gradientUnits="userSpaceOnUse"><stop stop-color="#26D784"/><stop offset=".99" stop-color="#0F874F"/></linearGradient><linearGradient id="s" x1="196.643" y1="134.432" x2="203.788" y2="192.353" gradientUnits="userSpaceOnUse"><stop stop-color="#F6B3B5"/><stop offset="1" stop-color="#FAD1D3"/></linearGradient><linearGradient id="t" x1="254.929" y1="102.322" x2="201.392" y2="162.929" gradientUnits="userSpaceOnUse"><stop stop-color="#F6B3B5"/><stop offset="1" stop-color="#FAD1D3"/></linearGradient><linearGradient id="u" x1="178.316" y1="305.427" x2="178.316" y2="268.967" gradientUnits="userSpaceOnUse"><stop stop-color="#F6B3B5"/><stop offset="1" stop-color="#FAD1D3"/></linearGradient><clipPath id="a"><path fill="#fff" d="M0 0h786v447H0z"/></clipPath></defs></svg>