<svg xmlns="http://www.w3.org/2000/svg" width="198" height="209" fill="none"><g clip-path="url(#a)"><path fill="#2C2C2C" d="M7.766 156.427s-2.802 1.137.45 7.112c3.252 5.976 5.443 8.914 5.443 8.914s.58 1.39-.594 1.638-3.778-.099-4.264 1.354c-.486 1.453.616 2.902 2.852 4.084 2.235 1.183 7.034 3.963 7.47 4.216.437.252.86.902.09 1.191-.768.289-6.593 1.061-6.067 3.809.526 2.749 7.291 5.028 8.029 5.29.737.262.9.568.868.97-.032.402-2.033.451-3.68.758-1.646.307-3.503.903-3.067 2.469.436 1.566 4.498 4.757 14.16 5.456l4.497.027 2.353-3.876c4.52-8.598 3.962-13.747 2.87-14.943-1.094-1.196-2.596.058-3.711 1.308-1.116 1.251-2.218 2.902-2.587 2.708-.368-.194-.526-.487-.36-1.25.167-.763 1.8-7.731-.224-9.635-2.024-1.905-5.776 2.653-6.437 3.159-.661.505-.971-.212-.958-.704.014-.492.207-6.061.387-8.575.18-2.514-.4-4.225-1.948-4.595-1.547-.37-2.577 2.049-3.41 2.916-.831.866-1.713-.334-1.713-.334s-1.318-3.435-4.66-9.347c-3.342-5.912-5.847-4.062-5.847-4.062"/><path fill="#E0E0E0" d="M34.196 204.78c-2.433-4.35-6.638-12.158-10.277-18.842a3058.632 3058.632 0 0 0-9.36-17.096l-2.866-5.163-.778-1.404c-.085-.158-.153-.28-.198-.37a1.276 1.276 0 0 1-.063-.126l.077.122.211.361.8 1.39a508.634 508.634 0 0 1 2.902 5.145c2.438 4.35 5.753 10.38 9.396 17.073 3.643 6.693 7.831 14.501 10.246 18.861"/><path fill="#E0E0E0" d="M12.408 176.086c.107.016.213.043.315.081.202.059.49.153.845.271.707.239 1.678.595 2.74 1.011l2.698 1.065.823.32c.105.031.206.074.302.127a1.46 1.46 0 0 1-.32-.077 25.53 25.53 0 0 1-.84-.275c-.707-.249-1.67-.619-2.735-1.029l-2.726-1.048-.828-.315a1.613 1.613 0 0 1-.274-.131Zm8.056 2.581c-.036 0 .612-2.053 1.444-4.558s1.534-4.513 1.57-4.513c.036 0-.608 2.053-1.44 4.554-.832 2.5-1.547 4.526-1.574 4.517Zm5.118 10.516a1.36 1.36 0 0 1 .176-.284l.513-.745c.45-.632 1.03-1.503 1.65-2.487.621-.984 1.156-1.9 1.534-2.563l.45-.786c.05-.099.11-.193.18-.279a2.032 2.032 0 0 1-.135.306c-.09.195-.23.452-.414.808a38.303 38.303 0 0 1-1.502 2.586 44.022 44.022 0 0 1-1.687 2.474c-.225.306-.414.55-.549.717a1.62 1.62 0 0 1-.215.253Zm-7.785-.727c.101-.01.204-.01.305 0l.833.045c.706.046 1.677.118 2.748.204 1.07.085 2.042.171 2.744.239l.832.09c.102.004.203.02.301.05-.102.01-.204.01-.306 0l-.832-.046a170.268 170.268 0 0 1-5.492-.442l-.832-.09a1.186 1.186 0 0 1-.301-.05Zm3.351 9.871c.132-.012.264-.012.396 0l1.066.054c.9.049 2.15.131 3.526.23 1.377.099 2.618.19 3.518.266l1.066.1c.131.007.262.025.39.054-.13.011-.26.011-.39 0l-1.071-.054a280.154 280.154 0 0 1-7.044-.497l-1.066-.099a2.579 2.579 0 0 1-.391-.054Zm9.729.609c.06-.127.132-.248.216-.361a93.1 93.1 0 0 1 .616-.971 115.59 115.59 0 0 0 1.988-3.222 111.828 111.828 0 0 0 1.876-3.295l.557-1.006c.062-.126.134-.247.216-.361a2.456 2.456 0 0 1-.17.388c-.117.244-.293.596-.513 1.029a72.43 72.43 0 0 1-1.844 3.317 63.4 63.4 0 0 1-2.681 4.148 2.17 2.17 0 0 1-.261.334Z"/><path fill="#222" d="M129.398 50.497c7.88-7.907 7.88-20.726 0-28.632-7.88-7.907-20.656-7.907-28.535 0-7.88 7.906-7.88 20.726-.001 28.632 7.88 7.907 20.656 7.907 28.536 0Z"/><path fill="#F5F5F5" d="M98.336 36.182a16.898 16.898 0 0 1 4.925-11.911 16.785 16.785 0 0 1 11.871-4.941 16.781 16.781 0 0 1 11.87 4.941 16.9 16.9 0 0 1 4.925 11.911 16.895 16.895 0 0 1-4.925 11.91 16.78 16.78 0 0 1-11.87 4.938 16.78 16.78 0 0 1-11.871-4.939 16.894 16.894 0 0 1-4.925-11.909Zm2.875 0c0 3.71 1.469 7.27 4.084 9.893a13.917 13.917 0 0 0 9.859 4.098 13.919 13.919 0 0 0 9.837-4.098 14.012 14.012 0 0 0 4.084-9.87 14.013 14.013 0 0 0-4.084-9.87 13.92 13.92 0 0 0-9.837-4.099c-3.69 0-7.23 1.468-9.844 4.082a14.013 14.013 0 0 0-4.099 9.864Z"/><path fill="#F5F5F5" d="M109.073 35.735a6.228 6.228 0 0 1 1.811-4.377 6.182 6.182 0 0 1 4.36-1.824 6.184 6.184 0 0 1 4.371 1.82 6.23 6.23 0 0 1 1.814 4.386 6.23 6.23 0 0 1-1.814 4.385 6.185 6.185 0 0 1-4.371 1.82 6.181 6.181 0 0 1-4.363-1.826 6.223 6.223 0 0 1-1.808-4.384Zm2.874 0c.001.88.351 1.725.971 2.348a3.31 3.31 0 0 0 2.34.974 3.308 3.308 0 0 0 2.339-.974 3.33 3.33 0 0 0 .971-2.348 3.33 3.33 0 0 0-.971-2.347 3.308 3.308 0 0 0-3.61-.724 3.318 3.318 0 0 0-2.053 3.071h.013Z"/><path fill="#2ECC82" d="M115.244 35.735h7.818l-1.363 2.424L140.1 46.62l-.621 1.038-18.464-8.367-1.264 2.405-4.507-5.962Zm24.865 10.881.193-.19a3.726 3.726 0 0 1 3.657-.903l7.341 2.145-4.089 1.805 1.642 4.383-6.886-2.465a3.749 3.749 0 0 1-2.479-3.718l.621-1.057Z"/><path fill="#242424" d="M19.335 73.06a11.27 11.27 0 0 1 2.793-1.22l.576-2.775 4.669-.081.674 2.753c.991.243 1.944.62 2.834 1.12l2.362-1.553 3.36 3.254-1.462 2.423c.525.877.934 1.82 1.214 2.803l2.762.578.085 4.684-2.743.677c-.245.993-.62 1.95-1.116 2.844l1.547 2.369-3.247 3.371-2.41-1.466c-.876.525-1.814.935-2.794 1.218l-.576 2.771-4.673.081-.67-2.748a11.557 11.557 0 0 1-2.834-1.12l-2.361 1.553-3.36-3.258 1.461-2.42a11.497 11.497 0 0 1-1.214-2.802l-2.766-.578-.081-4.689 2.743-.672a11.46 11.46 0 0 1 1.116-2.844l-1.547-2.37 3.243-3.37 2.415 1.466Zm2.492 6.241a5.037 5.037 0 0 0 .121 7.1 5.006 5.006 0 0 0 7.09-.127 5.037 5.037 0 0 0-1.775-8.172 4.996 4.996 0 0 0-5.45 1.199h.014ZM11.045 100.07a6.851 6.851 0 0 1 1.669-.726l.346-1.661 2.793-.05.405 1.648a6.977 6.977 0 0 1 1.696.668l1.412-.93 2.015 1.95-.877 1.453c.317.522.56 1.086.724 1.674l1.656.348.05 2.807-1.643.402a6.863 6.863 0 0 1-.665 1.701l.926 1.417-1.943 2.022-1.444-.903a6.969 6.969 0 0 1-1.673.732l-.346 1.66-2.793.046-.405-1.648a6.775 6.775 0 0 1-1.696-.668l-1.412.93-2.01-1.95.872-1.448a6.842 6.842 0 0 1-.724-1.679l-1.656-.348-.05-2.803 1.643-.406c.147-.594.37-1.166.665-1.701l-.926-1.417 1.943-2.018 1.448.876v.022Zm1.489 3.742a3.006 3.006 0 0 0-.842 2.144 3.019 3.019 0 0 0 .918 2.112 2.997 2.997 0 0 0 2.137.843 3 3 0 0 0 2.943-3.064 2.997 2.997 0 0 0-3.051-2.955 2.996 2.996 0 0 0-2.105.92Z"/><path fill="#202020" d="M11.045 100.07a.42.42 0 0 1-.094-.049l-.279-.158-1.089-.645h.036l-1.934 2.03v-.054c.28.429.594.903.931 1.413v.054a6.902 6.902 0 0 0-.656 1.688v.036h-.032l-1.641.406.049-.058c0 .902.036 1.805.054 2.802l-.054-.063 1.655.343h.04v.041c.168.581.41 1.138.72 1.656l.027.041-.027.036-.872 1.453v-.095l2.015 1.945h-.1l1.413-.929.04-.027.046.022a6.849 6.849 0 0 0 1.677.659h.05v.05l.405 1.647-.086-.063 2.798-.054-.081.072.342-1.661v-.054h.05a6.774 6.774 0 0 0 1.65-.718l.045-.027.045.027 1.444.876h-.108l1.943-2.018v.109l-.913-1.386-.027-.045.027-.045a6.668 6.668 0 0 0 .657-1.679v-.05h.05l1.64-.401-.062.081c0-.957-.032-1.896-.045-2.807l.063.077-1.655-.348h-.045v-.045a6.853 6.853 0 0 0-.715-1.661l-.023-.041.023-.036.877-1.448v.09l-2.011-1.954h.081l-1.412.902h-.063a6.922 6.922 0 0 0-1.683-.668H16.2v-.031l-.396-1.648.05.037-2.798.036.036-.027c-.14.659-.257 1.205-.356 1.656a6.99 6.99 0 0 0-1.277.492l-.301.158a.461.461 0 0 1-.1.049l.09-.063c.064-.036.163-.099.298-.167.405-.22.834-.396 1.277-.523.095-.452.202-1.002.333-1.666v-.027h.031l2.794-.058h.04v.036c.13.51.26 1.047.41 1.647l-.041-.04c.598.145 1.174.37 1.714.667h-.063l1.408-.934.044-.027.04.036 2.016 1.945.04.041-.031.05-.873 1.448v-.076c.322.529.57 1.1.738 1.697l-.058-.055 1.655.343h.063v.118l.054 2.802v.068h-.063l-1.642.406.058-.063a6.781 6.781 0 0 1-.674 1.724v-.086l.926 1.418.036.058-.05.05-1.938 2.017-.05.05-.058-.036-1.444-.88h.086a6.964 6.964 0 0 1-1.691.735l.063-.067c-.122.573-.239 1.137-.347 1.661v.067h-.067l-2.798.05h-.117v-.063l-.404-1.648.062.059a6.948 6.948 0 0 1-1.718-.677h.086l-1.413.93-.054.036-.045-.045c-.701-.677-1.38-1.354-2.01-1.954l-.045-.041.031-.054a56.6 56.6 0 0 1 .9-1.449v.077a6.838 6.838 0 0 1-.729-1.697l.054.054-1.655-.352h-.054v-.054c0-.984-.031-1.923-.045-2.807v-.05h.05l1.641-.402-.04.041a6.861 6.861 0 0 1 .679-1.711v.027l-.9-1.421v-.027l.023-.027 1.956-2.009 1.066.668.275.172.067.067Z"/><path fill="#2C2C2C" d="m170.25 94.465.053-7.406 7.121 1.728-7.174 5.678Z"/><path fill="#2C2C2C" d="m174.941 89.584-3.267 2.585 10.417 13.259 3.268-2.585-10.418-13.259Zm-13.998 23.019.999-14.997 14.213 4.36-15.212 10.637Z"/><path fill="#2C2C2C" d="m171.038 103.279-6.93 4.846 19.525 28.115 6.931-4.845-19.526-28.116Z"/><path fill="#263238" d="M197.16 203.959c0 .063-43.944.117-98.14.117-54.195 0-98.154-.054-98.154-.117s43.936-.117 98.154-.117c54.218 0 98.14.054 98.14.117Z"/><path fill="#455A64" d="M148.799 184.413a3.698 3.698 0 0 1 2.087 2.004c.387.919.559 1.914.504 2.911-.054 1.922-.972 3.935-2.006 5.555-1.714-1.263-2.285-3.673-2.501-4.915-.338-1.958.234-5.709 1.916-5.555Zm2.707 13.462a3.171 3.171 0 0 1 .761-3.078 4.185 4.185 0 0 1 2.991-1.223 1.75 1.75 0 0 1 1.399.492 1.367 1.367 0 0 1 .135 1.354 2.738 2.738 0 0 1-.9 1.083c-1.309.989-2.757 1.702-4.363 1.354"/><path fill="#263238" d="M149.95 203.878a2.289 2.289 0 0 1 .023-.397c.027-.28.063-.641.103-1.074a11.14 11.14 0 0 1 .805-3.466 6.766 6.766 0 0 1 2.2-2.781c.293-.211.61-.387.944-.523.117-.05.216-.072.279-.095l.099-.022c-.445.197-.87.437-1.268.717a7.023 7.023 0 0 0-2.128 2.758 11.857 11.857 0 0 0-.832 3.425c-.058.451-.108.817-.148 1.07a2.444 2.444 0 0 1-.077.388Z"/><path fill="#263238" d="M148.614 187.31a.6.6 0 0 1 .036.167l.068.487c.058.425.135 1.039.225 1.806.18 1.521.396 3.61.58 5.953.184 2.342.306 4.445.373 5.975.032.763.054 1.381.063 1.805V204a.977.977 0 0 1 0 .171s0-.058-.022-.171c-.023-.113-.023-.289-.036-.492l-.108-1.805c-.09-1.53-.225-3.638-.414-5.967a321.381 321.381 0 0 0-.54-5.957c-.072-.749-.135-1.354-.18-1.806l-.045-.491a.707.707 0 0 1 0-.172Z"/><path fill="#455A64" d="M148.839 199.261a7.407 7.407 0 0 0-1.62-3.068 7.37 7.37 0 0 0-2.837-1.987c-.558-.212-1.269-.32-1.674.117-.404.438-.247 1.142 0 1.679a6.287 6.287 0 0 0 6.095 3.417"/><path fill="#263238" d="M144.791 195.989c.12.03.238.07.351.122.137.049.27.106.4.171.175.08.347.169.513.266.204.115.402.24.594.375.23.151.449.319.656.501.468.401.888.855 1.251 1.354.361.503.663 1.047.899 1.62a7.303 7.303 0 0 1 .41 1.453c.045.212.054.407.076.578.009.15.009.301 0 .451.01.125.01.25 0 .375-.031 0-.022-.533-.189-1.354-.045-.208-.09-.451-.166-.672a8.315 8.315 0 0 0-.261-.75 8.488 8.488 0 0 0-.9-1.588 8.609 8.609 0 0 0-1.219-1.354c-.215-.181-.418-.352-.625-.492a6.005 6.005 0 0 0-.576-.384c-.728-.465-1.227-.641-1.214-.672Z"/><path fill="#2C2C2C" d="m153.243 76.539 5.258-2.993a13.989 13.989 0 0 0 7.368 2.09 14.04 14.04 0 0 0 9.945-4.133 14.136 14.136 0 0 0 3.049-15.38 14.115 14.115 0 0 0-3.049-4.577 14.02 14.02 0 0 0-9.945-4.13 14.003 14.003 0 0 0-5.382 1.072 14.102 14.102 0 0 0-7.613 7.635 14.166 14.166 0 0 0-1.07 5.4 14.08 14.08 0 0 0 2.946 8.63l-1.507 6.386Z"/><path fill="#263238" d="M153.243 76.539c.094-.402.535-2.365 1.444-6.395v-.09l.072.058-.081.081a14.116 14.116 0 0 1-2.857-6.77 12.615 12.615 0 0 1-.116-2.256c.022-.388.031-.78.067-1.173.036-.393.117-.795.175-1.196a14.34 14.34 0 0 1 1.867-4.766 14.298 14.298 0 0 1 3.787-4.062 14.036 14.036 0 0 1 5.447-2.392 14.315 14.315 0 0 1 6.27.167 13.892 13.892 0 0 1 5.798 3.033 14.177 14.177 0 0 1 3.877 5.452 14.44 14.44 0 0 1 .972 6.318 13.98 13.98 0 0 1-1.714 5.817 14.28 14.28 0 0 1-3.666 4.302 14.275 14.275 0 0 1-4.542 2.45 15.248 15.248 0 0 1-4.584.614 13.98 13.98 0 0 1-6.985-2.117h.054l-5.285 2.943 5.231-3.042h.058a13.97 13.97 0 0 0 6.932 2.053c1.531.022 3.056-.19 4.525-.627 1.63-.52 3.153-1.33 4.497-2.392a14.173 14.173 0 0 0 3.599-4.247 13.79 13.79 0 0 0 1.678-5.731 14.248 14.248 0 0 0-.972-6.256 14.014 14.014 0 0 0-3.814-5.361 13.686 13.686 0 0 0-5.704-2.983 14.068 14.068 0 0 0-6.171-.167 13.8 13.8 0 0 0-5.361 2.342 14.124 14.124 0 0 0-5.596 8.701c-.063.397-.121.79-.184 1.178-.063.388-.041.776-.068 1.156-.029.74.005 1.481.104 2.216a14.092 14.092 0 0 0 2.784 6.729l.279.36-.36-.28.09-.03-1.547 6.363Z"/><path fill="#2ECC82" d="M163.575 60.224h.823l1.799-2.51v-1.642s1.273-.082 1.12 2.076c-.153 2.157 0 1.61 0 1.61s2.699 0 2.924.245c.224.243.238 2.861.265 4.323a1.574 1.574 0 0 1-1.116 1.589 1.03 1.03 0 0 1-.287.04c-.675 0-4.116-.55-4.116-.55h-1.421l.009-5.181Zm-2.357-.447.508 5.646h1.408V59.89l-1.916-.113ZM50.33 85.119 43.583 87.6l-3.557 7.519c-.167 1.552-4.049 17.227-4.049 17.227l-3.89 13.95c7.448 3.416 17.326 8.29 27.221 7.898l1.269-11.969 6.782-26.01-5.177-10.321-1.767-.235-10.085-.541Z"/><path fill="#455A64" d="m18.948 187.102-5.083 6.653s5.033 7.42 4.21 8.742l-13.21-9.428 7.502-10.692 6.581 4.725Z"/><path fill="#fff" d="M10.186 190.266a.668.668 0 0 0-.814.352.643.643 0 0 0 .342.808.695.695 0 0 0 .859-.374.665.665 0 0 0-.45-.804m-5.258 2.821.796-1.047 12.37 9.432s.409.673.044 1.043l-13.21-9.428Z" opacity=".6"/><path fill="#263238" d="M14.126 193.841c-.05.063-.39-.136-.859-.154-.467-.018-.823.131-.868.064-.045-.068.324-.375.9-.343.575.031.868.406.827.433Zm.976 1.566c-.027.072-.386 0-.8.099-.414.099-.68.361-.742.316-.063-.045.157-.451.674-.582.518-.131.913.104.868.167Zm-.391 2.225c-.067-.027.072-.416.49-.655.419-.239.819-.158.805-.085-.013.072-.332.13-.67.329-.337.199-.558.451-.625.411Zm.405-5.434c-.067.036-.301-.262-.684-.497-.382-.234-.746-.325-.742-.401.005-.077.45-.118.9.167.45.284.594.699.526.731Z"/><path fill="#000" d="m16.636 190.321-.904 1.187-6.45-4.694.765-1.101 6.59 4.608Z" opacity=".3"/><path fill="#263238" d="M16.12 190.835c0 .027-.302-.118-.662-.452a3.572 3.572 0 0 1-.54-.708 3.915 3.915 0 0 1-.238-.451 1.122 1.122 0 0 1-.09-.298.348.348 0 0 1 .216-.366.423.423 0 0 1 .387.054c.085.058.16.128.224.208.117.141.221.292.31.451.153.259.263.541.325.835.083.266.083.551 0 .817-.045 0-.05-.307-.194-.763a3.536 3.536 0 0 0-.355-.758 3.353 3.353 0 0 0-.297-.388c-.112-.135-.234-.221-.315-.185-.08.036-.036.022-.036.086a.908.908 0 0 0 .068.216 4.793 4.793 0 0 0 .657 1.156c.328.316.562.51.54.546Z"/><path fill="#263238" d="M15.966 190.867a1.36 1.36 0 0 1 .283-.768c.162-.253.366-.476.603-.659a2.73 2.73 0 0 1 .45-.284.676.676 0 0 1 .661-.036.377.377 0 0 1 .144.384c-.021.102-.056.2-.103.293-.083.166-.19.318-.32.451a1.82 1.82 0 0 1-.764.483 1.03 1.03 0 0 1-.819 0c.253-.048.503-.115.747-.198.248-.11.47-.272.652-.474.102-.12.19-.252.26-.393.077-.158.109-.307.046-.329a.448.448 0 0 0-.387.049 2.71 2.71 0 0 0-.418.244 2.818 2.818 0 0 0-.585.573c-.302.388-.405.682-.45.664Z"/><path fill="#455A64" d="m59.146 191.557-2.928 7.392s8.411 3.056 8.519 4.608l-16.193.131 2.528-12.09 8.074-.041Z"/><path fill="#fff" d="M51.189 198.3a.668.668 0 0 0-.45.762.645.645 0 0 0 .751.452.695.695 0 0 0 .45-.808.656.656 0 0 0-.832-.388m-2.595 5.384.288-1.314 15.293.361s.724.312.647.822l-16.228.131Z" opacity=".6"/><path fill="#263238" d="M56.47 198.882c0 .077-.396.117-.787.375-.392.257-.59.595-.666.564-.077-.032.045-.492.517-.795.473-.302.954-.221.936-.144Zm1.705.69c0 .077-.324.212-.59.551-.265.338-.342.695-.418.695-.076 0-.135-.451.207-.867.342-.415.8-.455.8-.379Zm.971 2.036c-.072 0-.189-.379 0-.817.19-.438.567-.614.603-.546.036.067-.193.298-.35.659-.158.361-.163.695-.253.704Zm-2.051-4.238c-.032.072-.396-.032-.846 0-.45.032-.791.18-.836.113-.045-.068.292-.357.818-.388.527-.032.904.212.864.275Zm.157-.971a1.561 1.561 0 0 1-.814 0 3.764 3.764 0 0 1-.85-.252 3.095 3.095 0 0 1-.45-.248.92.92 0 0 1-.247-.19.343.343 0 0 1-.04-.42.45.45 0 0 1 .346-.185.992.992 0 0 1 .301.041 2.759 2.759 0 0 1 1.26.654c.382.348.512.646.485.659-.027.014-.22-.221-.607-.505a3.236 3.236 0 0 0-.729-.407 3.36 3.36 0 0 0-.45-.139c-.17-.041-.314-.041-.36.036-.044.076 0 .04 0 .09a.92.92 0 0 0 .18.14c.146.088.296.168.45.239.253.124.517.224.788.298.25.045.496.108.737.189Z"/><path fill="#263238" d="M57.23 196.4a1.31 1.31 0 0 1-.22-.786c-.019-.304.016-.61.103-.902.052-.172.12-.338.203-.497a.66.66 0 0 1 .512-.415.372.372 0 0 1 .342.226c.043.094.072.195.086.298.029.18.029.365 0 .546a1.813 1.813 0 0 1-.338.844c-.315.424-.643.523-.652.496-.009-.027.247-.194.49-.6.138-.236.222-.5.248-.772a1.55 1.55 0 0 0 0-.451c-.027-.172-.09-.312-.158-.294a.56.56 0 0 0-.279.271 2.252 2.252 0 0 0-.197.452 2.93 2.93 0 0 0-.153.812c-.032.442.058.758.013.772Z"/><path fill="#FFD6BD" d="m78.1 58.27-2.492 17-11.415 10.986 4.228 7.316 12.963-12.136a5.278 5.278 0 0 0 1.947-3.01v-17.59l-.085-5.722-5.146 3.154Z"/><path fill="#263238" d="M32.388 124.974c-.333.668-6.468 32.63-6.468 32.63L8.778 185.586l8.91 6.513 21.181-27.698 11.578-35.203-18.06-4.224Z"/><path fill="#263238" d="M55.67 128.296c.498.334 13.61 27.792 13.443 29.787-.166 1.994-10.052 38.655-10.052 38.655l-10.071-1.859 6.238-35.758-11.825-16.663 3.864-15.169 8.402 1.007Z"/><path fill="#2ECC82" d="m69.401 80.195-6.5 5.415-1.214.19 4.894 10.85 9.023-7.312-6.203-9.143Z"/><path fill="#2ECC82" d="M50.33 85.119 43.583 87.6l-3.557 7.519c-.167 1.552-4.049 17.227-4.049 17.227l-3.89 13.95c7.448 3.416 17.326 8.29 27.221 7.898l1.269-11.969 6.845-26.244-5.24-10.087-1.767-.235-10.085-.541Z"/><path fill="#FFD6BD" d="M60.234 87.168c.162-1.255.302-2.298.324-2.424 0 0 4.273.158 5.128-3.994.41-2.008.922-6.206 1.35-10.015a7.918 7.918 0 0 0-1.489-5.547 7.869 7.869 0 0 0-4.84-3.069l-.4-.076c-4.364-.582-7.296 2.807-7.755 7.198l-2.1 16.036s4.048 3.61 6.4 4.788c3.045 1.503 3.382-2.897 3.382-2.897Z"/><path fill="#FFB394" d="M60.576 84.685a9.838 9.838 0 0 1-5.11-2.59s.702 3.24 4.912 3.669l.198-1.079Z"/><path fill="#263238" d="M66.01 72.69c-.086.072-.643-.177-1.426-.118-.783.059-1.35.365-1.43.307-.081-.059.045-.154.292-.298a2.63 2.63 0 0 1 1.138-.325 2.4 2.4 0 0 1 1.142.176c.243.108.329.226.284.257Zm-6.522-.552c-.108.028-.504-.45-1.224-.73-.72-.28-1.349-.271-1.407-.366-.059-.095.103-.113.386-.131a2.73 2.73 0 0 1 1.16.216c.36.145.683.37.941.66.17.207.198.342.144.351Zm-.391 1.079a.451.451 0 0 1-.531.375.45.45 0 0 1-.33-.675.45.45 0 0 1 .47-.205.448.448 0 0 1 .39.505Zm6.283 1.128a.451.451 0 0 1-.53.38.448.448 0 1 1 .139-.885.45.45 0 0 1 .391.505Zm-4.52 2.356a4.16 4.16 0 0 1 1.07 0c.167 0 .324 0 .374-.094a.846.846 0 0 0 0-.506 247.31 247.31 0 0 1-.243-1.354c-.328-1.9-.531-3.448-.45-3.462.081-.013.405 1.517.733 3.417.077.451.149.903.22 1.354a.992.992 0 0 1-.04.659.418.418 0 0 1-.315.185c-.094.01-.189.01-.283 0a4.193 4.193 0 0 1-1.066-.199Zm-1.165-7.771c-.086.144-.63-.036-1.305-.082-.674-.045-1.246.037-1.304-.121-.027-.077.094-.208.337-.32a2.203 2.203 0 0 1 1.993.154c.22.148.32.297.279.369Zm6.499 2.09c-.09.121-.62-.086-1.282-.186-.66-.099-1.219-.08-1.273-.22 0-.069.1-.168.342-.24.326-.088.666-.105.999-.05.337.054.66.175.949.357.211.149.301.284.265.338Z"/><path fill="#FFD6BD" d="M52.291 72.41c-.067-.041-2.698-1.395-3.148 1.466-.45 2.861 2.5 2.73 2.519 2.65.018-.082.63-4.117.63-4.117Z"/><path fill="#FFB394" d="M50.969 75.28s-.059.027-.149.05a.47.47 0 0 1-.369-.05 1.254 1.254 0 0 1-.395-1.2c.033-.247.12-.483.256-.691a.578.578 0 0 1 .45-.32.255.255 0 0 1 .274.18c.023.09 0 .144 0 .149 0 .004.068-.036.063-.158a.343.343 0 0 0-.204-.284.363.363 0 0 0-.142-.032.71.71 0 0 0-.59.36 1.69 1.69 0 0 0-.3.768 1.323 1.323 0 0 0 .526 1.354.54.54 0 0 0 .45 0c.112-.059.139-.122.13-.126Z"/><path fill="#263238" d="M59.947 78.61c.04-.067-.504-.302-.832-.902a3.391 3.391 0 0 1-.31-.8c-.06-.216-.109-.356-.14-.351-.032.004-.04.149 0 .383.02.318.112.627.27.903.158.273.389.498.665.65.19.117.338.14.347.117Zm13.08-10.975a.704.704 0 0 0-.275-.452 2.108 2.108 0 0 0-1.048-.298 6.04 6.04 0 0 1-3.027-1.354 14.075 14.075 0 0 0-1.255-1.95c-1.11-1.462-2.046-2.477-3.072-3.041a9.714 9.714 0 0 0-5.132-1.025c-1.502.208-2.946 1.237-3.324 2.708-.738-.79-1.961-.93-3-.645h-.023c-1.156.262-1.92 1.354-2.384 2.455-.463 1.101-.742 2.284-1.457 3.227-.148.199-.328.451-.247.668a.451.451 0 0 0 .45.27c.191-.018.376-.076.544-.17a57.37 57.37 0 0 1-.477.843c.394.116.81.137 1.215.063.088 1.035.238 2.062.45 3.078.42.007.825.168 1.137.452.347.397.45 1.074 1.116.902.342-.09.724-.744.872-1.065a16.557 16.557 0 0 0 1.525-6.842 5.198 5.198 0 0 1 1.759-.98l-.059.037c1.22-.266 2.587-.51 3.63.171.81.529 1.21 1.485 1.768 2.257a6.629 6.629 0 0 0 4.421 2.708c-.08 1.187-.377 2.843-.45 4.03L67.9 71.91c.095-.126.182-.257.26-.393l.028-.036c.13-.212.256-.424.414-.632a.742.742 0 0 0 1.192-.858 1.7 1.7 0 0 0-.315-.401 1.184 1.184 0 0 0 1.075.42.899.899 0 0 0 .75-.83.787.787 0 0 0-.386-.678 2.65 2.65 0 0 0 1.53-.153c.314-.09.643-.33.58-.713Z"/><path fill="#455A64" d="M57.149 62.89a4.254 4.254 0 0 0-.45.34c-.377.36-.655.812-.805 1.313a5.367 5.367 0 0 0-.234 1.056c-.045.383-.063.803-.085 1.24a11.84 11.84 0 0 1-.135 1.382 4.73 4.73 0 0 1-.18.713 1.513 1.513 0 0 1-.378.668.633.633 0 0 1-.612.13.945.945 0 0 1-.495-.365 2.195 2.195 0 0 1-.278-1.115l.09.023c-.168.3-.375.574-.617.817a1.244 1.244 0 0 1-.863.347.803.803 0 0 1-.423-.126.686.686 0 0 1-.256-.325.711.711 0 0 1-.045-.383.488.488 0 0 1 .17-.307l.041.045c-.283.257-.617.45-.98.568-.095.031-.19.055-.288.073a.3.3 0 0 1-.104 0 .557.557 0 0 1 .1-.027c.062 0 .161-.046.282-.09.352-.13.675-.327.95-.583l.04.045a.537.537 0 0 0-.103.619.636.636 0 0 0 .233.288.733.733 0 0 0 .383.109c.3-.004.588-.121.805-.33.234-.239.434-.51.594-.803l.076-.127v.15a2.16 2.16 0 0 0 .261 1.065c.11.154.269.268.45.325a.548.548 0 0 0 .522-.109 1.46 1.46 0 0 0 .35-.627c.076-.229.135-.462.176-.7.074-.448.119-.9.135-1.354.027-.45.05-.857.099-1.25a5.4 5.4 0 0 1 .247-1.065c.16-.508.453-.964.846-1.322.143-.128.305-.231.481-.307ZM69.6 68.514h-.037l-.112.064c-.06.037-.124.068-.19.094-.08.032-.166.073-.274.104a3.69 3.69 0 0 1-1.826.109 4.77 4.77 0 0 1-2.41-1.233 8.28 8.28 0 0 1-1.872-2.766c-.243-.542-.45-1.092-.648-1.607a5.766 5.766 0 0 0-.782-1.39 2.907 2.907 0 0 0-1.12-.875 1.975 1.975 0 0 0-.625-.15 2.134 2.134 0 0 0-.594.046 2.415 2.415 0 0 0-1.48.98 2.932 2.932 0 0 0-.288.6v-.041l.032-.127c.056-.157.128-.308.216-.45a2.465 2.465 0 0 1 1.497-1.034 2.104 2.104 0 0 1 1.264.1 2.97 2.97 0 0 1 1.16.902c.332.429.602.903.801 1.408.22.514.405 1.065.648 1.602a8.302 8.302 0 0 0 1.844 2.74 4.69 4.69 0 0 0 2.362 1.231c.597.12 1.214.094 1.799-.076a6.35 6.35 0 0 0 .634-.23Z"/><path fill="#455A64" d="M70.198 66.714s-.054.036-.162.09a3.17 3.17 0 0 1-.45.171c-.24.07-.485.12-.733.15-.3.024-.6.024-.9 0a5.087 5.087 0 0 1-.9-.172 4.443 4.443 0 0 1-.697-.271 2.9 2.9 0 0 1-.45-.253.603.603 0 0 1-.143-.113s.225.131.607.303c.223.099.453.182.688.248.296.075.596.128.9.158.3.023.6.023.9 0 .243-.025.485-.067.723-.126.36-.095.612-.199.617-.185Z"/><path fill="#000" d="M41.798 98.82s5.645 8.196 9.697 8.124h1.417l.675-1.219s8.995 1.806 10.993 1.093l-11.128-4.143-2.141 1.25-9.513-5.105Z" opacity=".3"/><path fill="#FFD6BD" d="M48.747 102.575s20.24 5.917 22.624 5.366c2.384-.55 17.169-12.442 17.169-12.442l-3.338-4.026-15.261 8.467-18.325-5.836-2.87 8.471Z"/><path fill="#2ECC82" d="M43.664 87.57s-3.382.748-3.882 6.318c-.593 6.656 12.51 11.865 12.51 11.865l6.472-10.868-15.1-7.316Z"/><path fill="#263238" d="M50.68 91.91a.66.66 0 0 1 .145.055l.41.185 1.542.722 5.492 2.65.099.044-.054.095-4.404 7.672a454.34 454.34 0 0 0-1.434 2.478l-.05.081-.09-.031a28.677 28.677 0 0 1-5.19-2.347 19.825 19.825 0 0 1-3.635-2.771 20.512 20.512 0 0 1-2.699-3.123c.072.062.137.131.194.207l.53.623a27.742 27.742 0 0 0 2.088 2.185 20.667 20.667 0 0 0 3.634 2.707 28.987 28.987 0 0 0 5.164 2.302l-.135.054 1.43-2.477 4.43-7.637.046.14-5.456-2.708-1.52-.776-.397-.212c-.099-.086-.144-.113-.14-.117Zm15.712 1.662c-.067.022-.625-1.354-1.444-2.966-.818-1.61-1.578-2.883-1.52-2.924.226.235.42.5.576.785a23.262 23.262 0 0 1 2.1 4.175c.136.296.233.609.288.93Z"/><path fill="#455A64" d="M17.689 192.103a.693.693 0 0 1 .09-.14l.283-.392c.265-.353.639-.849 1.111-1.49.985-1.295 2.388-3.159 4.125-5.447l13.664-17.927 1.8-2.373v.036l6.44-19.515 1.953-5.813c.227-.674.407-1.198.54-1.571l.143-.402a.526.526 0 0 1 .054-.135.651.651 0 0 1-.036.14c-.027.104-.072.239-.121.415-.117.37-.283.903-.5 1.58-.45 1.385-1.088 3.371-1.88 5.835-1.623 4.965-3.868 11.825-6.391 19.538v.036l-1.8 2.374-13.718 17.881-4.183 5.416-1.143 1.462-.305.375a.9.9 0 0 1-.126.117Zm41.341-34.846a9.694 9.694 0 0 1-1.984.826 9.606 9.606 0 0 1-2.06.605 9.99 9.99 0 0 1 1.983-.826 10.205 10.205 0 0 1 2.06-.605Zm-.127 2.852a6.891 6.891 0 0 1-1.754-.379 6.742 6.742 0 0 1-1.687-.6 6.807 6.807 0 0 1 1.75.374c.588.127 1.156.33 1.691.605Z"/><path fill="#263238" d="M59.227 120.249a3.17 3.17 0 0 1-.517.357c-.337.221-.841.519-1.48.857a27.403 27.403 0 0 1-5.23 2.103 27.022 27.022 0 0 1-5.551.975c-.72.05-1.305.063-1.71.054-.209.012-.418 0-.625-.036a3.86 3.86 0 0 1 .625-.054c.4 0 .981-.059 1.696-.126a31.942 31.942 0 0 0 5.501-1.038 31.444 31.444 0 0 0 5.222-2.027 35.08 35.08 0 0 0 1.507-.785c.178-.112.366-.205.562-.28Z"/><path fill="#455A64" d="m125.922 191.832 3.009 7.366s-8.379 3.159-8.469 4.694l16.192-.041-2.653-12.059-8.079.04Z"/><path fill="#fff" d="M133.942 198.48a.664.664 0 0 1 .45.758.637.637 0 0 1-.742.452.705.705 0 0 1-.481-.808.654.654 0 0 1 .823-.393m2.68 5.362-.288-1.309-15.293.524s-.719.316-.634.826l16.215-.041Z" opacity=".6"/><path fill="#263238" d="M128.666 199.117c0 .076.4.112.792.37.391.257.598.586.67.555.072-.032-.045-.492-.522-.79-.477-.298-.953-.208-.94-.135Zm-1.696.708c0 .077.324.212.594.546.27.334.346.691.427.686.081-.004.126-.451-.216-.862-.342-.411-.805-.447-.805-.37Zm-.962 2.045c.072 0 .18-.379 0-.813-.18-.433-.576-.609-.608-.541-.031.067.194.298.356.654.162.357.175.691.252.7Zm2.019-4.256c.031.072.396-.036.841 0 .445.036.801.171.841.104.041-.068-.297-.352-.823-.379-.526-.028-.9.212-.859.275Zm-.166-.971c.266.074.547.074.814 0 .291-.051.575-.139.845-.261.155-.074.305-.157.45-.249.09-.052.172-.118.243-.194a.345.345 0 0 0 .036-.424.456.456 0 0 0-.346-.181c-.104 0-.207.015-.306.046a2.738 2.738 0 0 0-.504.176 2.75 2.75 0 0 0-.747.492c-.377.352-.503.649-.476.663.027.014.22-.221.602-.51.222-.168.464-.307.72-.415.147-.058.297-.107.45-.145.171-.045.315-.045.36.032.045.077 0 .041 0 .09a.814.814 0 0 1-.18.14 3.72 3.72 0 0 1-.428.248 4.502 4.502 0 0 1-.782.303 5.095 5.095 0 0 0-.751.189Z"/><path fill="#263238" d="M127.883 196.644a1.33 1.33 0 0 0 .212-.79 2.63 2.63 0 0 0-.324-1.399.685.685 0 0 0-.518-.411.375.375 0 0 0-.337.23c-.041.095-.07.195-.085.298a1.884 1.884 0 0 0 .346 1.39c.319.42.648.515.657.487.009-.027-.252-.194-.495-.595a1.855 1.855 0 0 1-.256-.768 1.483 1.483 0 0 1 0-.451c.022-.171.085-.311.152-.293a.57.57 0 0 1 .284.266c.081.144.149.295.202.451.093.262.146.536.158.813.045.46-.041.758.004.772Z"/><path fill="#263238" d="M136.533 130.769c-.45.235-17.092 23.599-21.901 30.035a4.911 4.911 0 0 0-.926 4.125c2.127 8.304 10.858 33.822 10.858 33.822l11.694-2.433-7.349-30.486 18.144-19.529-2.046-15.52-8.474-.014Z"/><path fill="#455A64" d="M128.752 166.284a6.198 6.198 0 0 1-1.516-.741 6.042 6.042 0 0 1-1.399-.943 6.267 6.267 0 0 1 1.516.74c.507.248.978.565 1.399.944Z"/><path fill="#C78976" d="M88.306 76.322c.08.045.756.384 1.394.7a4.21 4.21 0 0 1 1.772 1.67c.482.835 1.071 1.846 1.12 1.886L95 82.451l-3.275 4.513-.9-.73s-3.265-.172-4.497-.773c-1.233-.6-2.37-1.575-2.227-2.003l.19-.565a2.054 2.054 0 0 1-.316-1.47s-.746-.867-.611-1.486a1.465 1.465 0 0 1 1.156-1.128s-.37-1.006 0-1.548a1.98 1.98 0 0 1 1.102-.695l3.058 1.322-.373-1.566Z"/><path fill="#455A64" d="m171.558 193.028 5.348 6.445s-4.727 7.618-3.855 8.905l12.819-9.956-7.925-10.381-6.387 4.987Z"/><path fill="#fff" d="M180.441 195.835a.662.662 0 0 1 .824.316.644.644 0 0 1-.306.826.698.698 0 0 1-.873-.343.667.667 0 0 1 .414-.821m5.371 2.608-.841-1.015-11.978 9.929s-.378.695 0 1.047l12.819-9.961Z" opacity=".6"/><path fill="#263238" d="M176.65 199.568c.049.063.382-.154.845-.19.464-.036.832.1.873.027.04-.072-.337-.356-.9-.302-.562.054-.877.42-.818.465Zm-.918 1.602c.036.072.387-.031.805.068.418.099.697.334.756.284.058-.049-.176-.451-.697-.55-.522-.1-.909.14-.864.198Zm.486 2.207c.067-.027-.09-.411-.517-.632-.428-.221-.824-.126-.81-.054.013.072.337.117.684.302.346.185.575.429.643.384Zm-.625-5.411c.067.036.288-.276.661-.524.373-.248.733-.356.724-.451-.009-.095-.45-.1-.9.203-.449.302-.557.745-.485.772Z"/><path fill="#000" d="m173.996 196.151.954 1.151 6.256-4.955-.814-1.07-6.396 4.874Z" opacity=".3"/><path fill="#263238" d="M174.536 196.643c0 .028.296-.126.638-.5a3.55 3.55 0 0 0 .513-.727c.084-.156.156-.317.216-.483a.932.932 0 0 0 .076-.302.335.335 0 0 0-.225-.357.448.448 0 0 0-.386.068 1.077 1.077 0 0 0-.216.221 2.978 2.978 0 0 0-.293.451 3.04 3.04 0 0 0-.292.849c-.075.268-.066.554.027.817.045 0 .036-.312.162-.772.076-.268.185-.526.324-.767.084-.141.179-.276.283-.402.108-.14.221-.235.301-.199.081.036.041 0 .045.082a1.075 1.075 0 0 1-.058.221 3.92 3.92 0 0 1-.189.451 4.636 4.636 0 0 1-.45.722c-.27.393-.503.596-.476.627Z"/><path fill="#263238" d="M174.689 196.67a1.358 1.358 0 0 0-.311-.753 2.738 2.738 0 0 0-.634-.637 2.716 2.716 0 0 0-.45-.266.673.673 0 0 0-.661 0 .377.377 0 0 0-.13.388c.024.102.063.199.116.289.087.167.2.319.333.451.222.212.493.367.787.452.263.108.557.108.819 0a7.25 7.25 0 0 1-.756-.172 1.858 1.858 0 0 1-.67-.451 1.733 1.733 0 0 1-.274-.384c-.086-.153-.122-.302-.059-.325a.616.616 0 0 1 .387.036 2.805 2.805 0 0 1 1.048.772c.297.33.41.618.455.6Z"/><path fill="#263238" d="M160.039 130.232c.252.704 3.23 36.773 3.23 36.773l20.042 26.655-8.519 5.962-22.656-23.342a8.133 8.133 0 0 1-2.154-4.021l-8.371-39.965 18.428-2.062Z"/><path fill="#2ECC82" d="m112.64 92.439 17.645.383 1.215.19-4.894 10.85-18.019-2.6-17.694-13.138 4.727-6.639 17.02 10.954Z"/><path fill="#2ECC82" d="m140.837 91.987 6.774 1.765a5.68 5.68 0 0 1 3.725 3.516l1.902 6.905 3.985 15.381 3.891 13.955c-6.927 3.159-12.419 7.51-21.113 7.78a8.313 8.313 0 0 1-3.545-.663l-5.685-2.424 1.853-8.764-6.783-26.01 5.177-10.321 1.773-.24 8.046-.88Z"/><path fill="#263238" d="M115.487 83.52c-.042-.266.01-.54.149-.77a2.858 2.858 0 0 1 1.484-1.048 7.428 7.428 0 0 0-.167-2.446c-.271.112-.571.14-.859.081a.77.77 0 0 1-.144 0c-.647-.04-1.021-.848-.863-1.48a3.413 3.413 0 0 1 1.133-1.557c-.404.19-.652.6-1.003.902-.351.303-.962.357-1.169-.04a.986.986 0 0 1-.081-.397c0-.276-.032-.551-.05-.826a.908.908 0 0 1 .126-.641 2.34 2.34 0 0 1 .383-.266c.418-.307.449-.966.854-1.273a2.24 2.24 0 0 1 1.098-.248c.378-.054.805-.298.782-.677a3.587 3.587 0 0 1-1.565-.547 1.219 1.219 0 0 1-.45-1.475c.263-.355.645-.6 1.075-.69.45-.159 1.071-.272 1.35.121a1.262 1.262 0 0 1 1.799.37l1.124-.573c-.449-.226-1.007-.262-1.439-.542-.432-.28-.652-1.002-.22-1.286.157-.104.364-.117.503-.248.14-.131.158-.235.279-.289a.5.5 0 0 1 .293 0l3.108.672-1.269-1.3c-.387-.4-.8-1.001-.49-1.462.31-.46 1.066-.266 1.349.2a.86.86 0 0 1 1.264.36.9.9 0 0 1 1.048-.108.902.902 0 0 1 .387.988 2.46 2.46 0 0 1 1.314-.104.77.77 0 0 1-.003-.404.77.77 0 0 1 .558-.543.758.758 0 0 1 .403.013 1.295 1.295 0 0 1-.063-.799c.072-.252.382-.451.607-.32a.904.904 0 0 1 .04-1.034.902.902 0 0 1 .99-.298l.216-.65a1.158 1.158 0 0 1 1.264.14.682.682 0 0 1-.189 1.101c.288-.117.405.38.324.682-.108.425-.221.853-.333 1.278a.98.98 0 0 1 1.097-.542.772.772 0 0 1 .431-.413.757.757 0 0 1 .595.025.618.618 0 0 1 .825-.436c.11.042.206.115.277.21 0-.221.256-.334.45-.388a1.42 1.42 0 0 1 .926-.036c.288.126.45.56.216.767.193-.24.625-.086.738.199a1.093 1.093 0 0 1-.131.902c-.165.26-.284.547-.351.849.186-.251.456-.426.761-.492a3.284 3.284 0 0 1 1.61-.28c0-.24.288-.356.522-.397a3.736 3.736 0 0 1 2.159.284c.314.145.652.415.607.758a.874.874 0 0 1-.216.42c-.4.533-.805 1.065-1.206 1.602a4.625 4.625 0 0 1 2.762.7c.392-.012.784.003 1.174.045.373.117.585.736.221.876a.723.723 0 0 1 .494.708.695.695 0 0 1-.144.37.874.874 0 0 1-.094.262 1.363 1.363 0 0 1-.342.393.906.906 0 0 1-.585.6c.399.137.772.341 1.102.605a1.523 1.523 0 0 1 .558 1.462c0 .027-.022.054-.031.086a.734.734 0 0 1-.135.555.685.685 0 0 1 .207.37 1.675 1.675 0 0 1 1.47.87 1.7 1.7 0 0 1-.076 1.716c-.265.401-.963.614-1.165.18a1.305 1.305 0 0 1-.661 1.025 1.255 1.255 0 0 1 0 1.85 1.356 1.356 0 0 1 .396 2.194 1.065 1.065 0 0 1-.122 1.444 1.058 1.058 0 0 1-1.439-.122 2.163 2.163 0 0 1-.369 1.173.743.743 0 0 1-1.084.122 1.413 1.413 0 0 1-1.076 1.343c-.2.048-.409.052-.611.011a.942.942 0 0 1-.45 1.165.936.936 0 0 1-1.187-.366l-2.195.826c-.48.197-.977.348-1.484.451a4.149 4.149 0 0 1-1.966-.126 1.418 1.418 0 0 0-.621-.113c-.236.065-.453.19-.629.361a3.799 3.799 0 0 1-3.666.506 1.937 1.937 0 0 0-.58-.185 1.705 1.705 0 0 0-.68.158 6.918 6.918 0 0 1-1.677.388 1.795 1.795 0 0 1-1.404-.307c-.368-.33-.368-1.06.095-1.232a1.04 1.04 0 0 0-.562-.736.634.634 0 0 0-.819.275c-.126.298.153.7.45.628-.365.532-1.314.347-1.561-.249a1.283 1.283 0 0 1 .76-1.566 2.976 2.976 0 0 1-.544-1.313 1.035 1.035 0 0 1-1.264.663 1.8 1.8 0 0 1-.783 1.2 1.075 1.075 0 0 1-1.349-.175.782.782 0 0 1 .328-1.2.931.931 0 0 1 .288-1.553 1.442 1.442 0 0 1 .27-1.747.757.757 0 0 1-1.156 0c-.108.547-.828.7-1.381.61a1.008 1.008 0 0 1-.94-.8Z"/><path fill="#455A64" d="M115.487 83.52a.881.881 0 0 0 .045.19.83.83 0 0 0 .36.452c.276.148.586.222.899.216.207 0 .412-.042.603-.122a.753.753 0 0 0 .45-.528h-.05a.8.8 0 0 0 .603.28.787.787 0 0 0 .603-.28l-.05-.045a1.484 1.484 0 0 0-.283 1.805l.022-.058a.907.907 0 0 0-.593.695.905.905 0 0 0 .292.93v-.082a.784.784 0 0 0-.522.835.863.863 0 0 0 .72.767 1.247 1.247 0 0 0 1.093-.306c.293-.288.492-.658.571-1.061l-.072.04c.272.079.563.05.813-.08.251-.13.443-.352.537-.619h-.113c.068.49.257.955.549 1.354l.027-.095a1.47 1.47 0 0 0-.697.618 1.207 1.207 0 0 0-.122.957 1.002 1.002 0 0 0 .742.65.9.9 0 0 0 .959-.316l.098-.149-.17.046a.372.372 0 0 1-.405-.316.413.413 0 0 1 .301-.451.629.629 0 0 1 .616.112c.177.153.3.358.351.587l.045-.082a.596.596 0 0 0-.355.37.914.914 0 0 0 .216.962c.127.122.281.211.45.262.322.1.663.13.998.085.335-.03.667-.083.994-.162.666-.108 1.287-.64 1.912-.221a3.824 3.824 0 0 0 2.114.23 3.97 3.97 0 0 0 1.043-.338c.333-.18.645-.395.931-.641a.68.68 0 0 1 .45-.122c.177.038.351.086.522.144.369.104.75.158 1.133.163a5.928 5.928 0 0 0 2.249-.52l2.204-.825-.108-.036a1.024 1.024 0 0 0 1.26.42 1.036 1.036 0 0 0 .526-1.3l-.108.121a1.493 1.493 0 0 0 1.651-.82 1.5 1.5 0 0 0 .148-.642l-.162.063a.685.685 0 0 0 .617.213.973.973 0 0 0 .589-.312 2.21 2.21 0 0 0 .414-1.246l-.167.05a1.154 1.154 0 0 0 1.534.167 1.158 1.158 0 0 0 .171-1.611v.135a1.36 1.36 0 0 0 .427-1.254 1.353 1.353 0 0 0-.85-1.106l.032.167a1.35 1.35 0 0 0 .439-1 1.352 1.352 0 0 0-.439-1v.163a1.404 1.404 0 0 0 .71-1.101l-.184.031a.49.49 0 0 0 .256.249c.11.044.23.058.347.04.221-.033.427-.134.589-.289a1.658 1.658 0 0 0 .45-1.214 1.706 1.706 0 0 0-.536-1.196 1.796 1.796 0 0 0-1.228-.5l.095.085a.733.733 0 0 0-.234-.424v.135a.85.85 0 0 0 .157-.636v.05a1.489 1.489 0 0 0-.359-1.454 3.149 3.149 0 0 0-1.35-.821v.19a.998.998 0 0 0 .652-.673l-.031.05c.235-.173.403-.424.472-.709v.036a.75.75 0 0 0 .122-.704.818.818 0 0 0-.527-.528v.19a.378.378 0 0 0 .239-.266.604.604 0 0 0-.023-.335.729.729 0 0 0-.45-.45 7.771 7.771 0 0 0-1.187-.05h.04a4.775 4.775 0 0 0-2.824-.718l.09.162c.171-.23.36-.483.553-.73l.418-.556c.151-.185.287-.381.41-.587a.619.619 0 0 0 .049-.401.767.767 0 0 0-.198-.343 1.627 1.627 0 0 0-.621-.38 3.791 3.791 0 0 0-1.376-.275 4.087 4.087 0 0 0-.702.054 1.139 1.139 0 0 0-.35.131.448.448 0 0 0-.23.357l.117-.095a2.88 2.88 0 0 0-1.318.167c-.207.068-.409.131-.616.221a1.08 1.08 0 0 0-.54.451l.189.064c.041-.425.4-.776.504-1.269a.749.749 0 0 0 .005-.39.75.75 0 0 0-.189-.34.678.678 0 0 0-.365-.168.445.445 0 0 0-.391.154l.139.135a.456.456 0 0 0 .149-.366.713.713 0 0 0-.126-.347.608.608 0 0 0-.293-.225.892.892 0 0 0-.341-.064c-.22.008-.438.044-.648.109a1.1 1.1 0 0 0-.315.14.418.418 0 0 0-.198.338l.185-.045a.655.655 0 0 0-.729-.293.651.651 0 0 0-.553.555l.144-.077a.855.855 0 0 0-.974.16.852.852 0 0 0-.191.291l.117-.058a1.075 1.075 0 0 0-1.21.59l.184.069c.09-.362.184-.723.279-1.08.067-.187.088-.388.063-.586a.674.674 0 0 0-.113-.302.304.304 0 0 0-.157-.118.323.323 0 0 0-.198 0l.063.186a.666.666 0 0 0 .45-.587.831.831 0 0 0-.243-.731 1.27 1.27 0 0 0-1.349-.145h-.041v.04l-.216.655.122-.063a1.001 1.001 0 0 0-1.098.339 1 1 0 0 0-.04 1.137l.126-.135a.45.45 0 0 0-.477.026.62.62 0 0 0-.275.362c-.05.277-.017.563.095.821l.126-.117a.785.785 0 0 0-.864.207.798.798 0 0 0-.216.849l.104-.127a2.58 2.58 0 0 0-1.35.104l.122.113a.992.992 0 0 0-.45-1.092.986.986 0 0 0-1.151.122l.148.036a.95.95 0 0 0-1.403-.402h.13a1.051 1.051 0 0 0-.544-.451.931.931 0 0 0-.697 0 .697.697 0 0 0-.374.596c-.001.23.065.456.189.65.242.35.522.673.837.96l.864.903.08-.144-1.911-.406-.936-.199a1.952 1.952 0 0 0-.49-.077.404.404 0 0 0-.252.145c-.054.068-.094.135-.139.18a1.322 1.322 0 0 1-.392.19.608.608 0 0 0-.35.374 1.02 1.02 0 0 0 .256.93c.227.224.512.38.823.452.283.071.559.165.828.28V69.9l-1.125.573.104.032a1.353 1.353 0 0 0-1.422-.606 1.35 1.35 0 0 0-.499.218h.103a.863.863 0 0 0-.796-.294 3.092 3.092 0 0 0-.791.199 2.324 2.324 0 0 0-.711.37.998.998 0 0 0-.369.718 1.478 1.478 0 0 0 .774 1.286c.439.22.912.363 1.399.424l-.059-.063a.526.526 0 0 1-.292.451c-.174.101-.37.159-.571.167a4.95 4.95 0 0 0-.621.077.939.939 0 0 0-.535.338c-.261.339-.329.75-.581 1.016-.117.14-.301.185-.449.33a.716.716 0 0 0-.18.559c.022.37.04.736.063 1.088a.63.63 0 0 0 .238.501c.156.1.343.14.526.112.173-.026.338-.088.486-.18.137-.097.262-.21.373-.334.196-.241.434-.445.702-.6l-.054-.082a5.964 5.964 0 0 0-.783.835c-.22.283-.358.622-.395.98-.019.334.082.663.283.93a.87.87 0 0 0 .805.356c.301.064.615.035.9-.081l-.05-.027a7.43 7.43 0 0 1 .18 2.437v-.023a4.396 4.396 0 0 0-1.043.56 1.67 1.67 0 0 0-.518.645c-.061.152-.09.315-.085.478.003.054.011.106.022.158a1.198 1.198 0 0 1 .09-.622c.116-.25.292-.466.513-.628a4.37 4.37 0 0 1 1.039-.541 7.59 7.59 0 0 0-.157-2.46v-.036h-.041a1.429 1.429 0 0 1-.836.072.791.791 0 0 1-.734-.33 1.333 1.333 0 0 1-.26-.875 1.81 1.81 0 0 1 .386-.93c.231-.297.49-.57.774-.816l.229-.208-.283.126a2.55 2.55 0 0 0-.733.619 2.67 2.67 0 0 1-.355.316 1.15 1.15 0 0 1-.45.162.624.624 0 0 1-.45-.095.528.528 0 0 1-.189-.42c0-.352-.04-.712-.058-1.078a.615.615 0 0 1 .144-.474c.121-.113.323-.172.449-.33.279-.306.351-.726.585-1.024.234-.298.666-.33 1.075-.361.22-.01.435-.073.625-.185a.639.639 0 0 0 .36-.578v-.05h-.049a3.962 3.962 0 0 1-1.35-.41 1.318 1.318 0 0 1-.701-1.16.846.846 0 0 1 .319-.614c.203-.151.429-.267.67-.343.244-.092.497-.154.756-.185a.717.717 0 0 1 .661.235l.049.063.059-.05a1.196 1.196 0 0 1 .922-.192 1.189 1.189 0 0 1 .774.54l.036.063.067-.031 1.125-.57.144-.071-.144-.073a5.779 5.779 0 0 0-.855-.288 1.598 1.598 0 0 1-.765-.366.86.86 0 0 1-.22-.772.453.453 0 0 1 .261-.275c.163-.042.316-.118.45-.221.126-.135.184-.27.296-.275.152.008.303.033.45.072l.931.203 1.912.41.279.06-.198-.208-.864-.903a5.392 5.392 0 0 1-.809-.93 1.046 1.046 0 0 1-.167-.55.52.52 0 0 1 .275-.452.847.847 0 0 1 1.012.352l.054.086.076-.058a.776.776 0 0 1 .635-.098.767.767 0 0 1 .49.418l.049.13.099-.094a.809.809 0 0 1 .931-.1.813.813 0 0 1 .355.903l-.049.176.166-.063a2.4 2.4 0 0 1 1.233-.068l.175.037-.072-.163a.674.674 0 0 1 .832-.812l.194.09-.063-.203a1.301 1.301 0 0 1-.095-.713c.05-.203.311-.375.473-.271l.373.235-.243-.37a.822.822 0 0 1 .032-.903.828.828 0 0 1 .899-.27l.09.03.032-.09.22-.65-.054.055a1.076 1.076 0 0 1 1.138.113c.283.243.229.848-.13.947l.063.185a.093.093 0 0 1 .125.041.493.493 0 0 1 .081.212c.021.173-.001.348-.063.51l-.283 1.079.185.068a.899.899 0 0 1 .98-.488l.09.027.032-.086a.648.648 0 0 1 .377-.363.657.657 0 0 1 .522.025l.14.077v-.154a.526.526 0 0 1 .394-.362.522.522 0 0 1 .505.177l.221.451-.032-.496c0-.13.184-.235.369-.284a2.3 2.3 0 0 1 .594-.104.54.54 0 0 1 .449.208.341.341 0 0 1 0 .45l.144.14c.095-.126.333-.094.45.037a.55.55 0 0 1 .126.541c-.076.42-.45.768-.513 1.287l-.063.492.252-.452c.189-.325.652-.42 1.044-.564a2.662 2.662 0 0 1 1.255-.167h.117v-.113c0-.153.215-.261.418-.297a3.58 3.58 0 0 1 .661-.05 3.64 3.64 0 0 1 1.304.257c.204.072.391.186.549.334a.46.46 0 0 1 .141.241c.02.093.01.19-.028.278a4.93 4.93 0 0 1-.392.55l-.418.556-.553.73-.135.177h.22c.949-.06 1.893.18 2.699.686a9.3 9.3 0 0 1 1.16.04.542.542 0 0 1 .315.339c.054.158.023.307-.099.348l-.305.099.31.09a.634.634 0 0 1 .396.402.552.552 0 0 1-.095.523v.023a1.05 1.05 0 0 1-.405.596h-.027v.031a.8.8 0 0 1-.517.533l-.292.081.283.108c.472.151.901.415 1.251.768a1.285 1.285 0 0 1 .319 1.254v.05a.652.652 0 0 1-.112.483l-.059.072.067.063a.52.52 0 0 1 .176.307v.086h.085c.409.002.802.163 1.093.451a1.48 1.48 0 0 1 .473 1.06c.022.39-.111.774-.369 1.066a.899.899 0 0 1-.481.235.359.359 0 0 1-.401-.176l-.157-.352-.027.383a1.222 1.222 0 0 1-.607.948l-.131.068.113.09a1.16 1.16 0 0 1 .273 1.315 1.16 1.16 0 0 1-.273.386l-.135.113.166.054a1.157 1.157 0 0 1 .724.948 1.15 1.15 0 0 1-.36 1.079l-.076.063.067.072a.97.97 0 0 1-.139 1.354.968.968 0 0 1-1.277-.13l-.113-.168-.027.221a2.02 2.02 0 0 1-.364 1.142.658.658 0 0 1-.927.104l-.18-.217v.28a1.266 1.266 0 0 1-.512 1.03 1.235 1.235 0 0 1-1.057.247l-.176-.05.072.172a.858.858 0 0 1-.427 1.065.856.856 0 0 1-1.039-.343l-.036-.063h-.072l-2.2.83a5.784 5.784 0 0 1-2.19.51c-.368 0-.735-.052-1.089-.153a4.495 4.495 0 0 0-.553-.149.83.83 0 0 0-.576.15c-.278.23-.58.433-.899.604a3.748 3.748 0 0 1-.999.32 3.64 3.64 0 0 1-2.028-.212 2.047 2.047 0 0 0-.509-.167 1.141 1.141 0 0 0-.539.077 7.907 7.907 0 0 1-.958.307 7.29 7.29 0 0 1-.972.162 2.244 2.244 0 0 1-.936-.076.824.824 0 0 1-.589-.605.598.598 0 0 1 .293-.718l.058-.022v-.059a1.254 1.254 0 0 0-.405-.668.766.766 0 0 0-.751-.13.54.54 0 0 0-.312.236.544.544 0 0 0-.07.386.502.502 0 0 0 .567.42l-.072-.104a.762.762 0 0 1-.815.262.868.868 0 0 1-.652-.56 1.229 1.229 0 0 1 .742-1.417l.077-.032-.05-.063a2.898 2.898 0 0 1-.535-1.286l-.036-.257-.076.248a.98.98 0 0 1-1.192.627h-.059v.059a1.924 1.924 0 0 1-.535 1.006 1.135 1.135 0 0 1-1.003.29.755.755 0 0 1-.643-.673.69.69 0 0 1 .45-.74l.085-.023-.072-.059a.904.904 0 0 1 .27-1.476h.049l-.027-.045a1.427 1.427 0 0 1 .261-1.706l-.049-.045a.73.73 0 0 1-.858.189.74.74 0 0 1-.249-.189l-.04-.054v.068a.707.707 0 0 1-.427.492c-.185.08-.384.123-.585.126a1.793 1.793 0 0 1-.9-.203.82.82 0 0 1-.364-.42c-.05-.104-.059-.171-.063-.171Z"/><path fill="#C78976" d="m141.008 92.452-5.352-15.498c-1.273-4.22-4.782-6.99-8.947-5.6l-.377.153a7.857 7.857 0 0 0-4.175 3.919 7.903 7.903 0 0 0-.418 5.72c1.12 3.652 2.407 7.673 3.185 9.555 1.61 3.909 5.766 2.952 5.766 2.952s.337.902.747 2.094c0 0 .665 3.93 3.728 2.988 3.064-.944 5.843-6.283 5.843-6.283Z"/><path fill="#8B5D54" d="M130.663 93.662a10.194 10.194 0 0 0 4.498-3.552s0 3.475-4.048 4.684l-.45-1.132Z"/><path fill="#263238" d="M123.885 83.868a.602.602 0 0 0 .764.352.584.584 0 0 0 .341-.289.58.58 0 0 0 .033-.447.602.602 0 0 0-.765-.352.569.569 0 0 0-.341.29.582.582 0 0 0-.032.446Zm-.697-1.421c.099.045.4-.452 1.003-.677.602-.226 1.16-.113 1.196-.212.036-.1-.103-.154-.351-.217a1.684 1.684 0 0 0-.998.081 1.584 1.584 0 0 0-.756.632c-.13.217-.139.375-.094.393Zm6.301-.379a.601.601 0 0 0 .765.352.58.58 0 0 0 .373-.736.605.605 0 0 0-.765-.352.57.57 0 0 0-.341.289.58.58 0 0 0-.032.447Zm-.31-1.734c.099.045.396-.45.998-.681.603-.23 1.165-.113 1.201-.212.036-.1-.103-.15-.355-.212a1.637 1.637 0 0 0-.994.08c-.313.124-.58.344-.76.628-.126.217-.135.375-.09.397Zm-.315 5.502a4.284 4.284 0 0 0-1.044.212c-.162.045-.319.072-.386-.022a.86.86 0 0 1-.081-.497v-1.354c-.036-1.927-.126-3.48-.203-3.48-.076 0-.112 1.562-.081 3.485 0 .451.027.902.036 1.354a.97.97 0 0 0 .162.636.413.413 0 0 0 .342.122c.094-.01.186-.033.274-.068.342-.09.671-.22.981-.388Zm-.639-7.487c.126.14.693-.176 1.435-.37.742-.194 1.39-.23 1.421-.415 0-.09-.144-.204-.449-.271a2.473 2.473 0 0 0-1.161.05 2.437 2.437 0 0 0-1.016.55c-.207.208-.284.384-.23.456Zm-5.6 1.972c.158.1.522-.203 1.021-.397.5-.194.963-.253 1.008-.452 0-.085-.099-.198-.337-.257a1.5 1.5 0 0 0-.9.086 1.498 1.498 0 0 0-.715.582c-.135.226-.135.388-.077.438Z"/><path fill="#8B5D54" d="M128.864 87.619c.156.21.343.395.553.55a.9.9 0 0 0 .738.154.805.805 0 0 0 .539-.582 1.308 1.308 0 0 0-.063-.817c-.089-.235-.292-.483-.535-.43a.573.573 0 0 0-.265.159l-1.075.902"/><path fill="#263238" d="M129.714 88.48a1.9 1.9 0 0 0 .634-.302.996.996 0 0 0 .351-.623 1.051 1.051 0 0 0-.252-.816.884.884 0 0 0-.171-.15c-.067-.035-.058-.035-.108 0-.049.037-.112.095-.171.145l-.175.154-.621.51a2.344 2.344 0 0 1-.607.428c.138-.207.306-.393.499-.55.167-.163.365-.348.585-.55l.171-.159c.063-.054.108-.104.193-.167a.308.308 0 0 1 .189-.059.347.347 0 0 1 .171.064c.079.054.152.118.216.19a1.242 1.242 0 0 1 .292 1.01 1.127 1.127 0 0 1-.449.718 1.025 1.025 0 0 1-.531.198c-.144-.004-.216-.027-.216-.04Zm-10.296-10.204a3.9 3.9 0 0 1-.139-.622 1.92 1.92 0 0 1 .238-.944c.45-1.029.963-2.098 1.799-2.708.517-.37 1.138-.546 1.66-.902.313-.246.614-.508.899-.785a9.184 9.184 0 0 1 4.363-1.968 7.624 7.624 0 0 1 2.699-.145 8.976 8.976 0 0 1 2.897 1.129 13.985 13.985 0 0 1 3.877 2.933 6.927 6.927 0 0 1 1.745 3.516c.18 1.327-.256 2.748-1.241 3.322l-.553-.357-.868-.514c.206.257.103.27-.09.505a.549.549 0 0 1-.396.176.538.538 0 0 1-.396-.176c-.117.32-.643.18-.684-.18-.202.207-.616-.028-.625-.357-.252.194-.549-.212-.787-.451a4.268 4.268 0 0 0-.423-.384 3.282 3.282 0 0 1-.953-1.557 3.248 3.248 0 0 1-1.017-1.503 69.262 69.262 0 0 1-.45-1.079l-.283-.198a.631.631 0 0 1-.23.695 1.31 1.31 0 0 1-.679.19l-.706.067-.378.244c.188.342.258.737.198 1.124.017.257-.056.513-.207.722a.325.325 0 0 1-.473-.05.316.316 0 0 1-.066-.162.376.376 0 0 1-.266.173.365.365 0 0 1-.301-.097 1.208 1.208 0 0 1-.351-.645 3.096 3.096 0 0 1 .058-1.778l-.836 1.43a.56.56 0 0 1-.23.258.316.316 0 0 1-.004.282.318.318 0 0 1-.225.17.806.806 0 0 1-.513-.163c-.369-.217-.814-.632-.661-1.038-.139 0-.274-.19-.22-.339l-1.017 1.39c.108-.113.31.05.333.226a.744.744 0 0 1-.157.474c.168.152.285.354.332.577.176-.28.644 0 .671.37a.782.782 0 0 1-.536.75.532.532 0 0 1-.697-.213c-.27.15-.666-.166-.661-.523-.166.199-.45-.122-.553-.402a4.229 4.229 0 0 1-.221-1.53c0 .046-.054.082-.099.064a.152.152 0 0 1-.045-.046c-.063.632-.13 1.264-.193 1.896-.087.54-.075 1.09.036 1.625.058.216.121.523-.054.595a.292.292 0 0 1-.153 0 2.84 2.84 0 0 1-1.588-1.033 2.09 2.09 0 0 1-.369-.582 9.358 9.358 0 0 1-.211-1.472Z"/><path fill="#455A64" d="M124.816 75.569a.666.666 0 0 1-.261-.271.445.445 0 0 1 0-.41.487.487 0 0 1 .45-.267h.112l-.072-.09a.521.521 0 0 1-.032-.596.512.512 0 0 1 .63-.158l.059-.1a.193.193 0 0 1-.05-.054.275.275 0 0 1-.044-.12.278.278 0 0 1 .013-.128.362.362 0 0 1 .166-.19c.08-.04.168-.06.257-.058a.69.69 0 0 0 .296-.023c.113-.054.14-.157.189-.216a.874.874 0 0 1 .162-.176c.11-.093.237-.164.374-.208a1.1 1.1 0 0 1 .62-.031c.149.036.221.08.23.072a.588.588 0 0 0-.216-.118 1.106 1.106 0 0 0-.661 0c-.15.043-.289.115-.41.213a.902.902 0 0 0-.18.194c-.058.072-.094.158-.153.18a.745.745 0 0 1-.251 0 .643.643 0 0 0-.311.072.45.45 0 0 0-.22.253.41.41 0 0 0 .04.352.389.389 0 0 0 .086.086l.058-.104a.613.613 0 0 0-.778.203.62.62 0 0 0 .05.722l.04-.085a.586.586 0 0 0-.522.329.533.533 0 0 0 0 .451.518.518 0 0 0 .216.217c.081.059.113.059.113.059Zm-2.573 1.516a.804.804 0 0 1-.301-.248.59.59 0 0 1-.099-.452.617.617 0 0 1 .346-.45l.076-.032-.071-.046a.732.732 0 0 1-.369-.56.395.395 0 0 1 .153-.315.301.301 0 0 1 .341-.054l.419.248-.351-.339a.604.604 0 0 1-.084-.74.593.593 0 0 1 .588-.261l.148.026-.09-.121a.381.381 0 0 1 .185-.533.986.986 0 0 1 .634 0l.126.027-.068-.108a.457.457 0 0 1 0-.451.827.827 0 0 1 .333-.28 2.05 2.05 0 0 1 .724-.194c.223-.009.446.005.666.04a.666.666 0 0 0-.171-.054 1.976 1.976 0 0 0-1.255.126.86.86 0 0 0-.382.312.526.526 0 0 0 0 .546l.054-.077a1.058 1.058 0 0 0-.706.023.55.55 0 0 0-.27.293.41.41 0 0 0 .04.42l.059-.095a.69.69 0 0 0-.45.081.688.688 0 0 0-.351.537.724.724 0 0 0 .211.573l.068-.09a.418.418 0 0 0-.45.068.513.513 0 0 0-.189.406.83.83 0 0 0 .428.632v-.081a.691.691 0 0 0-.383.52.623.623 0 0 0 .131.473.598.598 0 0 0 .238.194c.036.036.072.04.072.036Zm-5.87 2.275a.453.453 0 0 1 .059-.348.556.556 0 0 1 .332-.244c.188-.044.381-.053.572-.027h.067l-.027-.068a.508.508 0 0 1 .257-.586c.261-.115.55-.151.832-.104l.386.031-.364-.135a.419.419 0 0 1-.135-.587.946.946 0 0 1 .652-.365h.036l.225-.045-.22-.068a.443.443 0 0 1-.24-.31.44.44 0 0 1 .091-.38.667.667 0 0 1 .738-.14l.283.112-.224-.203a1.016 1.016 0 0 1-.284-.988.943.943 0 0 1 .54-.618c.172-.078.361-.107.549-.086.13 0 .198.04.202.036l-.049-.027a.755.755 0 0 0-.149-.045 1.052 1.052 0 0 0-.953.315.994.994 0 0 0-.225.398 1.105 1.105 0 0 0 .297 1.092l.058-.09a.781.781 0 0 0-.868.167.566.566 0 0 0-.126.478.517.517 0 0 0 .324.402v-.118h-.036a1.034 1.034 0 0 0-.729.425.643.643 0 0 0-.063.424.454.454 0 0 0 .257.32l.027-.103a1.553 1.553 0 0 0-.9.126.599.599 0 0 0-.283.709l.04-.06a1.701 1.701 0 0 0-.594.05.584.584 0 0 0-.355.285.41.41 0 0 0-.054.28.183.183 0 0 0 .054.094Zm1.493-6.666a.36.36 0 0 0 .162 0c.154-.017.305-.052.45-.104.209-.083.434-.114.657-.09a.452.452 0 0 1 .301.212.302.302 0 0 1 0 .365l.095.032c0-.153.135-.298.27-.451.13-.15.281-.28.449-.384a.71.71 0 0 1 .563-.072.453.453 0 0 1 .35.352l.023.144.076-.126c.157-.237.383-.418.648-.519.209-.08.434-.11.657-.09.198.026.39.083.571.167a.579.579 0 0 0-.13-.095 1.272 1.272 0 0 0-.45-.14 1.495 1.495 0 0 0-.697.072 1.35 1.35 0 0 0-.707.546l.099.023a.576.576 0 0 0-.427-.451.816.816 0 0 0-.648.076c-.183.11-.348.247-.49.406a2.53 2.53 0 0 0-.198.23.404.404 0 0 0-.094.303v.113l.081-.081a.41.41 0 0 0 .031-.492.512.512 0 0 0-.373-.253 1.346 1.346 0 0 0-.697.117 2.631 2.631 0 0 1-.45.131c-.063.054-.122.05-.122.059Zm4.957-3.796c.101-.03.205-.045.31-.045a.737.737 0 0 1 .333.095c.13.074.231.19.288.33l.023.058.054-.036a.384.384 0 0 1 .476.112c.125.183.195.398.203.619l.031.23.086-.221v-.036a.488.488 0 0 1 .337-.271.555.555 0 0 1 .418.054.866.866 0 0 1 .419.6c.028.174.028.35 0 .524a.942.942 0 0 0 0 .198s.036-.063.063-.19a1.499 1.499 0 0 0 0-.55.982.982 0 0 0-.45-.681.656.656 0 0 0-.737.067.658.658 0 0 0-.163.204v.045h.113a1.277 1.277 0 0 0-.234-.677.491.491 0 0 0-.621-.118h.077a.717.717 0 0 0-.347-.36.705.705 0 0 0-.607-.032c-.05.059-.072.077-.072.081Zm5.919 2a.35.35 0 0 0 .14-.077 1.048 1.048 0 0 0 .36-.984.545.545 0 0 1 0-.33c.04-.099.166-.189.211-.343a.6.6 0 0 0-.364-.722l.027.082a1.92 1.92 0 0 0 .288-.813.657.657 0 0 0 0-.33s0 .123-.05.321a2.117 2.117 0 0 1-.315.763l-.04.059.067.022a.487.487 0 0 1 .288.582c-.031.113-.139.195-.202.334a.589.589 0 0 0 0 .398 1.04 1.04 0 0 1-.063.586 1.61 1.61 0 0 1-.347.452Zm1.737.572a.274.274 0 0 0 .099 0c.09-.026.177-.06.26-.103.304-.158.548-.41.698-.718l-.077.022c.224.152.499.209.765.158.146-.029.285-.087.409-.171a.637.637 0 0 0 .274-.388v-.176a.228.228 0 0 1 .041-.127.72.72 0 0 1 .225-.19 1 1 0 0 0 .256-.202.343.343 0 0 0 .081-.325l-.058.067c.245.025.491-.041.692-.184a1.12 1.12 0 0 0 .369-.416.962.962 0 0 0 .104-.343v-.13a1.38 1.38 0 0 1-.149.45c-.091.152-.215.28-.364.375a.97.97 0 0 1-.63.154h-.085l.027.081a.239.239 0 0 1-.063.221.983.983 0 0 1-.23.176.823.823 0 0 0-.265.226.33.33 0 0 0-.058.185v.162a.558.558 0 0 1-.23.312.896.896 0 0 1-.36.153.894.894 0 0 1-.683-.126l-.05-.036-.022.054a1.605 1.605 0 0 1-.635.708c-.211.086-.346.118-.341.131Zm9.913.885v-.04c.002-.04.002-.082 0-.122a1.215 1.215 0 0 0-.185-.451 2.74 2.74 0 0 0-.485-.551c-.11-.105-.229-.2-.356-.285a.69.69 0 0 0-.238-.094.313.313 0 0 0-.279.081l.086.027a.798.798 0 0 0-.558-.614.795.795 0 0 0-.855.312h.104a.552.552 0 0 0-.333-.361.526.526 0 0 0-.67.316h.112a.334.334 0 0 0-.198-.23.447.447 0 0 0-.283-.032c-.171.048-.326.14-.45.266h.072a.826.826 0 0 0-.585-.198c-.194.006-.384.06-.553.157a3.05 3.05 0 0 0-.729.673l.072.036a.199.199 0 0 0-.076-.19.343.343 0 0 0-.171-.067.606.606 0 0 0-.315.04c-.149.07-.287.16-.409.271-.079.065-.15.14-.212.221l-.058.09s.094-.112.301-.275c.123-.1.259-.182.405-.243a.555.555 0 0 1 .274-.028c.099 0 .194.073.18.168l-.027.144.099-.108c.203-.251.444-.467.715-.641a1.07 1.07 0 0 1 .504-.14.73.73 0 0 1 .508.176l.036.031.041-.031a.948.948 0 0 1 .396-.24c.139-.031.319.041.342.177l.04.203.072-.194a.417.417 0 0 1 .135-.18.402.402 0 0 1 .387-.069.446.446 0 0 1 .261.285l.031.122.072-.104a.685.685 0 0 1 .729-.271.698.698 0 0 1 .49.524v.094l.068-.067c.098-.109.274-.055.4 0 .124.077.24.166.346.266.186.152.352.326.495.519.128.188.214.402.252.627Zm.328 3.503s0-.028.036-.09a2.15 2.15 0 0 0 .067-.263.845.845 0 0 0-.031-.45.571.571 0 0 0-.157-.236.45.45 0 0 0-.306-.117l.04.054a.544.544 0 0 0-.455-.715.565.565 0 0 0-.341.065l.077.068a.458.458 0 0 0-.162-.5.657.657 0 0 0-.549-.087c-.082.03-.166.054-.252.073a.218.218 0 0 1-.109-.02.208.208 0 0 1-.084-.07 1.054 1.054 0 0 0-.216-.2.513.513 0 0 0-.311-.072 2.993 2.993 0 0 0-.607.163.664.664 0 0 1-.526 0 2.139 2.139 0 0 1-.216-.171.618.618 0 0 0-.283-.113.621.621 0 0 0-.518.185l.086.05a.448.448 0 0 0-.212-.505.67.67 0 0 0-.485-.087 2.172 2.172 0 0 0-.711.307c-.14.09-.271.193-.391.307-.081.081-.122.126-.117.13.004.005.18-.17.539-.383.213-.133.448-.226.693-.275a.573.573 0 0 1 .418.081.364.364 0 0 1 .167.393l-.068.212.153-.163a.541.541 0 0 1 .45-.144.488.488 0 0 1 .229.095c.072.064.147.124.225.18a.625.625 0 0 0 .311.068 1.39 1.39 0 0 0 .31-.054 2.81 2.81 0 0 1 .576-.158c.084-.009.17.01.243.054.074.05.139.113.193.185a.351.351 0 0 0 .292.122c.091-.02.179-.045.266-.077a.543.543 0 0 1 .45.063.336.336 0 0 1 .13.37l-.054.145.131-.081a.47.47 0 0 1 .539.058.49.49 0 0 1 .126.452v.058h.059a.448.448 0 0 1 .4.294.845.845 0 0 1 .045.41c-.063.258-.099.389-.09.389Zm2.632 5.826a.473.473 0 0 0 .099-.068.861.861 0 0 0 .097-1.14.9.9 0 0 0-.264-.24l.023.058a1.56 1.56 0 0 0 .13-.65.617.617 0 0 0-.13-.352.485.485 0 0 0-.347-.203l.041.095a.687.687 0 0 0 .108-.672.743.743 0 0 0-.221-.335.645.645 0 0 0-.36-.149c-.121 0-.188-.054-.22-.162-.04-.113-.1-.219-.175-.312a1.173 1.173 0 0 0-.549-.33l-.513-.18a1.905 1.905 0 0 0-.783-.121.893.893 0 0 0-.215.04l-.068.032s.099-.027.283-.027c.26.003.517.056.756.158l.504.194c.193.053.367.16.504.307a.826.826 0 0 1 .148.28.35.35 0 0 0 .117.166.415.415 0 0 0 .189.068.564.564 0 0 1 .49.406.567.567 0 0 1-.085.56l-.077.09h.117a.451.451 0 0 1 .378.451 1.63 1.63 0 0 1-.112.61v.04h.031a.832.832 0 0 1 .387.501.782.782 0 0 1-.027.492 1.26 1.26 0 0 1-.256.393Zm-12.892-6.116a.936.936 0 0 0 .297-.234.89.89 0 0 0 .225-.352.63.63 0 0 0-.031-.523.454.454 0 0 0-.081-.105v.086a.57.57 0 0 0 .171-.451.521.521 0 0 0-.18-.348c-.176-.144-.329-.122-.324-.108a.93.93 0 0 1 .27.167.427.427 0 0 1 .126.298.457.457 0 0 1-.144.36l-.041.037.041.05a.247.247 0 0 1 .058.076.557.557 0 0 1 .032.451c-.041.12-.104.233-.185.33-.144.131-.247.235-.234.266Zm-2.977-.451a.717.717 0 0 1-.198-.392.487.487 0 0 1 .162-.451.525.525 0 0 1 .562-.073l.09.045v-.099a1.027 1.027 0 0 1 .032-.37.45.45 0 0 1 .225-.284c.171-.082.423.031.418.194h.113a.898.898 0 0 1 .575-.984 1.3 1.3 0 0 1 .5-.05.345.345 0 0 0-.135-.045.927.927 0 0 0-.873.366.975.975 0 0 0-.18.73h.113a.34.34 0 0 0-.207-.297.478.478 0 0 0-.369 0 .534.534 0 0 0-.288.361.956.956 0 0 0-.032.415l.081-.054a.617.617 0 0 0-.679.104.543.543 0 0 0-.166.51.593.593 0 0 0 .157.316c.054.022.095.058.099.058Z"/><path fill="#C78976" d="M136.461 80c.054-.058 2.37-1.877 3.351.844.98 2.722-1.939 3.16-1.97 3.07L136.461 80Z"/><path fill="#8B5D54" d="M138.31 82.582s.058 0 .153.023a.489.489 0 0 0 .355-.118 1.258 1.258 0 0 0 .162-1.25 1.76 1.76 0 0 0-.378-.632.606.606 0 0 0-.49-.235.263.263 0 0 0-.23.235c0 .086.027.135 0 .144-.027.01-.072 0-.09-.144a.321.321 0 0 1 .045-.208.386.386 0 0 1 .234-.166.713.713 0 0 1 .648.243c.204.194.358.434.45.7a1.321 1.321 0 0 1-.266 1.426.551.551 0 0 1-.449.086c-.144-.04-.144-.095-.144-.104Z"/><path fill="#000" d="M130.582 121.603s5.397.645 8.996-1.742c3.598-2.388 8.096-11.649 8.096-11.649s-9.018 10.448-17.542 11.798l.45 1.593Z" opacity=".3"/><path fill="#2ECC82" d="M140.819 99.312c-3.072 4.012-8.861 11.59-8.861 11.59l-21.423 3.159 1.12 7.122 21.284-1.223a12.382 12.382 0 0 0 8.146-4.112c2.604-2.92 6.153-6.972 8.361-9.784a5.507 5.507 0 0 0 1.106-4.294 5.49 5.49 0 0 0-2.419-3.713 5.454 5.454 0 0 0-7.314 1.255Z"/><path fill="#455A64" d="M150.004 172.259c-.063 0-1.439-6.319-3.081-14.14-1.642-7.821-2.915-14.171-2.852-14.185.063-.013 1.444 6.319 3.081 14.14 1.638 7.821 2.893 14.171 2.852 14.185Zm12.689-5.15c.045.045-.275.452-.711.903-.436.451-.832.794-.899.749-.068-.045.269-.451.71-.903.441-.451.85-.794.9-.749Z"/><path fill="#263238" d="M144.26 95.246s-.067.104-.211.293l-.639.84-2.46 3.16-8.915 11.408-.023.032h-.04l-21.419 3.159.099-.135c.211 1.309.45 2.708.665 4.111.167 1.047.338 2.09.504 3.114l-.126-.099 22.688-1.412a12.388 12.388 0 0 0 3.908-1.63 12.892 12.892 0 0 0 2.897-2.496l4.093-4.729 2.632-3.024.697-.79c.157-.176.247-.262.247-.262s-.072.1-.225.285l-.674.807-2.591 3.056-4.048 4.761a12.877 12.877 0 0 1-6.891 4.211l-22.679 1.453h-.108v-.108l-.503-3.114c-.225-1.408-.45-2.798-.662-4.107l-.022-.117h.117l21.428-3.133-.063.037 8.996-11.36 2.501-3.16.661-.82c.085-.14.166-.23.166-.23Zm2.65 24.276c-.071.168-.16.327-.266.474-.18.298-.45.709-.845 1.205a20.796 20.796 0 0 1-3.396 3.475 20.665 20.665 0 0 1-4.107 2.586c-.44.215-.89.406-1.349.574a2.146 2.146 0 0 1-.513.158c0-.037.697-.316 1.799-.903a23.59 23.59 0 0 0 4.048-2.618 24.046 24.046 0 0 0 3.414-3.398c.756-.934 1.161-1.575 1.215-1.553Zm1.965 3.196c.032.054-1.875 1.2-4.255 2.559-2.379 1.358-4.34 2.414-4.372 2.36-.031-.054 1.871-1.205 4.255-2.563 2.384-1.359 4.341-2.415 4.372-2.356Z"/><path fill="#263238" d="M127.514 110.058a2.785 2.785 0 0 1-.153-.451c-.099-.343-.22-.763-.364-1.25-.31-1.115-.711-2.555-1.156-4.144a196.162 196.162 0 0 1-1.111-4.156l-.31-1.264a2.235 2.235 0 0 1-.086-.451c.078.141.136.293.171.451.099.293.23.718.387 1.246.31 1.056.729 2.518 1.174 4.143.445 1.625.832 3.091 1.093 4.161.171.559.29 1.133.355 1.715Z"/><path fill="#000" d="M138.543 129.406c2.11-.221 4.26-.275 6.23-1.074 1.97-.799 3.774-2.202 4.615-4.156a69.519 69.519 0 0 1-10.845 5.23Z" opacity=".3"/><path fill="#FFBE9D" d="M101.233 123.345c-.045.05-.45.451-.805.794a3.37 3.37 0 0 0-.9 1.49c-.17.636-.288 1.133-.315 1.169l-.877 2.798 3.239 2.383.517-2.352a7.681 7.681 0 0 0 2.065-1.227c.715-.691 1.039-1.002 1.223-1.598a.8.8 0 0 0-.09-.668s-.04-1.281-.504-1.322a1.76 1.76 0 0 0 .095-1.029c-.301-.645-1.197-.596-1.197-.596a.3.3 0 0 0 .121-.261.312.312 0 0 0-.045-.142.308.308 0 0 0-.107-.102.45.45 0 0 0-.589.103l-1.799 1.612-.032-1.052Z"/><path fill="#2ECC82" d="M75.307 131.469a5.04 5.04 0 0 0 .931 6.481c4.269 3.736 15.833 10.235 17.57 9.929 2.504-.42 9.063-15.065 9.063-15.065l-4.88-4.035-6.1 9.929s-5.038-4.771-8.973-7.898c-2.393-1.9-5.974-1.941-7.61.645v.014Z"/><path fill="#263238" d="M82.68 130.629a1 1 0 0 1 .175.136l.485.41 1.858 1.602 6.747 5.868-.135.022 6.081-9.929.068-.108.099.081 4.88 4.03.067.059-.036.081a140.785 140.785 0 0 1-1.673 3.566c-1.03 2.125-2.083 4.183-3.18 6.124a46.116 46.116 0 0 1-1.714 2.803c-.301.451-.607.902-.944 1.291-.32.421-.7.795-1.125 1.11a1.21 1.21 0 0 1-.778.23 3.69 3.69 0 0 1-.756-.167c-.47-.151-.932-.325-1.385-.524a41.43 41.43 0 0 1-2.546-1.209 83.682 83.682 0 0 1-4.421-2.455c-2.663-1.58-4.737-2.979-6.13-4.008a31.69 31.69 0 0 1-1.566-1.228c-.175-.144-.301-.266-.391-.343a1.037 1.037 0 0 1-.126-.121c.051.029.1.064.144.103.099.082.234.185.4.325.355.28.9.686 1.592 1.192 1.403 1.002 3.49 2.378 6.158 3.935a96.32 96.32 0 0 0 4.426 2.424c.81.411 1.655.821 2.541 1.196.45.185.9.365 1.35.51.231.074.469.127.71.158a.986.986 0 0 0 .643-.199 5.484 5.484 0 0 0 1.07-1.069c.33-.402.63-.835.932-1.273a42.894 42.894 0 0 0 1.7-2.794 99.19 99.19 0 0 0 3.149-6.115c.589-1.21 1.156-2.415 1.673-3.561l.031.14-4.87-4.035.166-.031-6.068 9.897-.059.095-.076-.073-6.702-5.943-1.8-1.639c-.202-.185-.359-.325-.471-.451a1.611 1.611 0 0 1-.194-.113Z"/><path fill="#FFD6BD" d="M77.02 51.161c-.048.16-.12.312-.21.452a2.873 2.873 0 0 0 .076 2.996l1.025 1.571.122 2.42 5.23 1.254-.247-4.26s.864-1.806.873-3.016c.01-1.209-.31-2.504-.706-2.558l-.522-.073a1.8 1.8 0 0 0-1.039-.83s-.315-1.57-.854-1.706c-.54-.135-1.022.42-1.022.42s-.67-1.282-1.236-1.2a1.348 1.348 0 0 0-1.16 1.353l-.347 3.322.018-.145Z"/><path fill="#E0E0E0" d="M64.827 1.471a1.328 1.328 0 0 0-1.149-.928 1.318 1.318 0 0 0-.515.057 1.35 1.35 0 0 0-.868 1.666l63.034 201.477 2.757.112L64.827 1.471Z"/><path fill="#2ECC82" d="M66.455 4.139S49.705 15.598 36.77 16.63C23.834 17.664 9.153 18.656 1.443 27.34c0 0 28.477 4.482 30.082 8.282 0 0-17.024 13.566-19.602 21.351 0 0 12.248-4.355 14.771-5.415 8.394-3.57 24.712-1.982 30.928-4.23 6.886-2.495 13.4-9.504 19.067-10.592L66.455 4.14Z"/><path fill="#fff" d="m47.07 18.757 5.293 5.339 7.386-1.345-3.428 6.702 3.563 6.63-7.413-1.196-5.186 5.443-1.156-7.442-6.765-3.268 6.698-3.398 1.007-7.465Z" opacity=".3"/><path fill="#263238" d="M61.31 15.846a2.003 2.003 0 0 1-.1.307l-.328.866c-.14.375-.32.835-.558 1.354-.238.52-.48 1.124-.81 1.76-.328.637-.66 1.354-1.079 2.09-.418.736-.863 1.516-1.35 2.333a53.68 53.68 0 0 1-3.598 5.032 52.922 52.922 0 0 1-4.183 4.545c-.692.645-1.349 1.268-1.997 1.805-.647.537-1.25 1.043-1.799 1.485-.549.442-1.093.817-1.556 1.151-.463.334-.868.61-1.206.826l-.778.496a2.031 2.031 0 0 1-.279.163c.078-.076.162-.144.252-.203l.756-.533a24.42 24.42 0 0 0 1.178-.853c.45-.347.981-.717 1.53-1.178.548-.46 1.165-.939 1.799-1.503.634-.564 1.29-1.169 1.979-1.805a56.457 56.457 0 0 0 4.152-4.54 56.8 56.8 0 0 0 3.598-5c.495-.809.971-1.571 1.35-2.311.377-.74.773-1.431 1.097-2.067.324-.637.593-1.228.836-1.743.243-.514.45-.965.594-1.354l.369-.848c.035-.095.079-.188.13-.275Zm9.486 17.461a1.144 1.144 0 0 1-.1-.248l-.242-.718c-.207-.654-.49-1.552-.841-2.649a1000.88 1000.88 0 0 1-2.672-8.774c-1.026-3.43-1.948-6.548-2.56-8.814a68.756 68.756 0 0 1-.71-2.708 9.39 9.39 0 0 1-.162-.74 1.063 1.063 0 0 1-.027-.198s0-.06.027-.046c-.032-.045 0 .046.036.213l.202.726.783 2.667c.684 2.257 1.606 5.371 2.627 8.792 1.02 3.421 1.93 6.517 2.609 8.796.314 1.101.575 2.009.769 2.672.08.293.144.537.198.727.034.097.055.199.063.302Z"/><path fill="#000" d="M64.935 12.921c.189 4.13.378 8.282 1.3 12.308.922 4.025 2.613 7.965 5.46 10.953a296.684 296.684 0 0 1-6.774-23.27" opacity=".3"/><path fill="#C78976" d="M99.398 112.008h3.342a2.3 2.3 0 0 1 1.538.587l2.541 2.297 3.716-.425 1.034 6.161-5.141-.194a16.151 16.151 0 0 1-3.571.618c-1.35 0-2.816-.415-2.865-.866-.05-.452-.068-.592-.068-.592a2.036 2.036 0 0 1-.9-1.196s-1.763-.397-1.902-1.015c-.14-.618.5-1.146.5-1.146s-1.418-.786-1.319-1.431a1.576 1.576 0 0 1 .725-.993l2.784-.375-.414-1.43Z"/><path fill="#263238" d="M91.171 109.526a6.386 6.386 0 0 1 .868 5.831c-.333.938-.9 1.958-.45 2.856.45.899 1.629 1.196 2.016 2.104.45 1.06-.477 2.207-.522 3.366a2.282 2.282 0 0 0 1.898 2.28 8.86 8.86 0 0 1-4.768.699c-.26-.623-.517-1.245-.778-1.864a1.653 1.653 0 0 1-.634 1.918 3.74 3.74 0 0 1-2.07.578 11.294 11.294 0 0 1-5.062-1.011 11.33 11.33 0 0 1-4.09-3.159"/><path fill="#263238" d="M70.967 113.1c.45-.672 1.021-1.241 1.385-1.95.783-1.53.49-3.57 1.67-4.815.836-.903 2.163-1.07 3.381-1.11 1.22-.041 2.506 0 3.567-.61.779-.451 1.35-1.178 2.132-1.62 1.107-.632 2.479-.578 3.725-.316a7.596 7.596 0 0 1 3.53 1.607 4.192 4.192 0 0 1 1.507 3.475 12.45 12.45 0 0 0-.283 1.896c.036.699.405 1.353.553 2.03a3.35 3.35 0 0 1-1.862 3.67l-11.695 8.859c-2.001.194-6.18-1.841-7.219-3.57-1.039-1.728-1.498-5.858-.391-7.546Z"/><path fill="#FFBE9D" d="M90.429 113.872c.333-2.64-.783-6.174-3.427-6.395l-8.488.505a1.552 1.552 0 0 0-1.66 1.291l-2.865 19.754h-.058s.778 5.867 6.454 5.226c1.125-.13 1.498.348 1.939-.807l.027-.145c.346-1.458.994-4.477.994-4.477.315-1.58.45-2.229.45-2.211 0 .018 3.431.081 4.947-4.139.751-2.099 1.318-5.664 1.687-8.602Z"/><path fill="#263238" d="M83.205 116.494a.567.567 0 0 1-.643.451.548.548 0 0 1-.368-.205.55.55 0 0 1-.109-.409.568.568 0 0 1 .644-.451.547.547 0 0 1 .368.206.54.54 0 0 1 .108.408Zm5.708.853a.574.574 0 0 1-.643.451.55.55 0 0 1-.37-.205.547.547 0 0 1-.111-.409.568.568 0 0 1 .643-.451.551.551 0 0 1 .37.205.556.556 0 0 1 .111.409Zm.612-1.656c-.085.081-.508-.379-1.165-.452-.656-.072-1.187.244-1.25.14-.063-.104.067-.203.297-.356.3-.194.658-.275 1.012-.231.346.05.664.22.9.479.197.203.247.379.206.42Zm-6.09-.926c-.1.073-.5-.424-1.188-.582-.688-.158-1.282.1-1.349 0-.067-.099.09-.194.346-.316a1.725 1.725 0 0 1 1.093-.103c.363.083.688.287.922.577.203.217.239.393.176.424Zm1.3 4.663c.333-.04.67-.04 1.003 0 .157 0 .305 0 .35-.086a.78.78 0 0 0 0-.474c-.072-.402-.148-.817-.229-1.255a20.2 20.2 0 0 1-.45-3.249c.317 1.047.549 2.119.693 3.204l.211 1.259a.908.908 0 0 1-.036.619.394.394 0 0 1-.126.12.393.393 0 0 1-.166.056 1.307 1.307 0 0 1-.265 0 3.894 3.894 0 0 1-.985-.194Z"/><path fill="#EB996E" d="M83.795 126.617a11.23 11.23 0 0 1-5.51-2.668s.84 3.259 5.258 3.683l.252-1.015Z"/><path fill="#2ECC82" d="M84.204 120.827a1.105 1.105 0 0 0-.9-.587 1.007 1.007 0 0 0-.746.235.63.63 0 0 0-.185.708.738.738 0 0 0 .747.348c.301-.046.59-.152.85-.312a.608.608 0 0 0 .207-.144.198.198 0 0 0 .04-.221"/><path fill="#263238" d="M82.89 119.509c.1 0-.022.663.45 1.232.473.568 1.174.632 1.161.722-.014.09-.175.099-.472.05a1.655 1.655 0 0 1-.976-.565 1.446 1.446 0 0 1-.329-1.029c.023-.275.126-.424.167-.41Zm1.044-6.761c-.09.153-.67-.041-1.39-.09-.72-.05-1.322.036-1.39-.131-.027-.077.104-.212.36-.325.342-.14.712-.196 1.08-.163.367.027.723.14 1.039.33.252.153.342.307.301.379Zm5.483 1.043c-.144.112-.59-.118-1.156-.235-.567-.117-1.062-.108-1.147-.271-.032-.077.067-.198.301-.289.318-.106.66-.122.985-.045.327.067.63.223.873.451.17.181.211.334.144.389Z"/><path fill="#263238" d="M76.63 108.126a3.597 3.597 0 0 1 2.086-.695 40.452 40.452 0 0 1 9.63.149c.212.741-.377 1.508-1.079 1.806a7.435 7.435 0 0 1-2.249.356c-.765.072-1.583.28-2.055.903-.473.623-.477 1.575-.94 2.256-.806 1.151-2.7 1.079-3.491 2.234-.603.876-.324 2.058-.45 3.115a3.885 3.885 0 0 1-1.965 2.87 3.871 3.871 0 0 1-2.758.329c.783-3.721 1.564-7.443 2.344-11.165.144-.799.337-1.629.926-2.158Z"/><path fill="#263238" d="M66.766 115.379c.72-.361 1.56-.614 1.992-1.291.63-.988.108-2.495.931-3.33.751-.759 2.25-.307 2.955-1.093.563-.618.31-1.354.621-1.958a1.77 1.77 0 0 1 1.966-.65l3.027 8.611c-.194 2.559-.077 3.981-.985 5.262a12.024 12.024 0 0 0-1.408 2.158 2.448 2.448 0 0 0 .162 2.455c-3.045-.578-5.398-2.907-7.593-5.123-.764-.78-1.53-1.566-2.298-2.347a2.108 2.108 0 0 1-.58-.83c-.22-.776.494-1.507 1.21-1.864Z"/><path fill="#455A64" d="M68.56 119.667c.095.06.196.11.302.149.303.115.624.178.949.185a2.95 2.95 0 0 0 2.834-1.864c.147-.373.219-.772.21-1.174a4.849 4.849 0 0 0-.251-1.263 4.426 4.426 0 0 1-.26-1.309 1.54 1.54 0 0 1 .503-1.223c.369-.294.9-.244 1.417-.307.278-.022.544-.126.764-.298a1.42 1.42 0 0 0 .414-.731c.08-.547.108-1.1.086-1.652.006-.267.076-.528.202-.763.13-.232.342-.407.594-.492a3.072 3.072 0 0 1 1.615 0 3.38 3.38 0 0 0 1.66-.036 3.016 3.016 0 0 0 1.349-.857 5.1 5.1 0 0 0 .778-1.332c.173-.443.393-.867.656-1.263.262-.359.598-.656.986-.871a3.584 3.584 0 0 1 2.316-.375 3.592 3.592 0 0 1 1.745.903c.367.341.671.744.9 1.191.195.386.346.794.45 1.214a.588.588 0 0 0 0-.086c0-.054 0-.14-.045-.248a3.918 3.918 0 0 0-.32-.903 4.156 4.156 0 0 0-.9-1.232 3.659 3.659 0 0 0-1.799-.943 3.688 3.688 0 0 0-2.415.37c-.409.222-.765.53-1.043.903a7.311 7.311 0 0 0-.68 1.291 4.885 4.885 0 0 1-.75 1.281 2.816 2.816 0 0 1-1.287.804 3.117 3.117 0 0 1-1.579.027 3.22 3.22 0 0 0-1.71 0c-.29.1-.534.302-.687.568-.14.26-.217.549-.225.844.025.542 0 1.084-.077 1.621-.05.245-.176.467-.36.636a1.22 1.22 0 0 1-.67.262c-.247.036-.508.031-.764.067a1.467 1.467 0 0 0-.734.276 1.68 1.68 0 0 0-.557 1.354c.023.462.116.919.274 1.354.137.395.223.806.256 1.223.011.384-.055.766-.193 1.124a2.843 2.843 0 0 1-1.255 1.475c-.44.242-.933.368-1.435.366a3.31 3.31 0 0 1-1.264-.266Z"/><path fill="#263238" d="M65.978 113.425a.672.672 0 0 0-.166.221 1.116 1.116 0 0 0-.072.777c.048.188.142.362.274.505.16.169.364.288.59.343a1.534 1.534 0 0 0 1.53-.474c.215-.245.37-.539.448-.857.086-.341.105-.695.059-1.043-.059-.713-.32-1.462-.126-2.22a1.454 1.454 0 0 1 .625-.935 1.557 1.557 0 0 1 1.179-.045c.426.151.875.224 1.327.217.243-.029.472-.135.652-.302.174-.169.309-.374.396-.601.14-.439.224-.894.251-1.354.048-.428.186-.842.405-1.214a3.207 3.207 0 0 1 1.88-1.448 4.472 4.472 0 0 1 2.195.09 6.207 6.207 0 0 0 1.97.212 4.051 4.051 0 0 0 1.566-.478c.365-.195.697-.447.985-.745.253-.245.46-.534.612-.853a5.54 5.54 0 0 1-.653.781c-.29.283-.623.521-.985.704a3.984 3.984 0 0 1-1.525.451 6.229 6.229 0 0 1-1.93-.235 4.661 4.661 0 0 0-2.27-.103 3.377 3.377 0 0 0-1.989 1.521 3.2 3.2 0 0 0-.45 1.281 5.483 5.483 0 0 1-.242 1.314 1.156 1.156 0 0 1-.9.798 3.752 3.752 0 0 1-1.264-.212 1.698 1.698 0 0 0-1.304.068 1.587 1.587 0 0 0-.697 1.043 3.03 3.03 0 0 0-.032 1.187c.054.379.13.74.167 1.087a2.8 2.8 0 0 1-.04.993 1.985 1.985 0 0 1-.424.808 1.42 1.42 0 0 1-1.412.451 1.13 1.13 0 0 1-.553-.302 1.14 1.14 0 0 1-.266-.451 1.128 1.128 0 0 1 .036-.745c.047-.081.098-.16.153-.235Zm30.95 10.349c.018.278-.06.553-.22.781a1.086 1.086 0 0 1-.791.451 1.117 1.117 0 0 1-1.013-.6 1.01 1.01 0 0 1-.09-.695c.062-.26.17-.506.32-.727.297-.451.769-.925.9-1.602a2.517 2.517 0 0 0-.45-1.977 2.977 2.977 0 0 0-.797-.74 4.107 4.107 0 0 0-1.02-.451 5.829 5.829 0 0 1-1.004-.393 1.41 1.41 0 0 1-.665-.718 1.758 1.758 0 0 1-.05-.965 3.25 3.25 0 0 1 .324-.903 7.442 7.442 0 0 0 .742-1.679 2.792 2.792 0 0 0-.14-1.602 3.61 3.61 0 0 0-.75-1.088 6.22 6.22 0 0 1-.63-.749 2.19 2.19 0 0 1-.32-.763.163.163 0 0 0 0 .054.97.97 0 0 0 0 .167c.045.208.127.405.243.583.184.275.39.535.617.776.298.311.537.673.706 1.069.184.486.223 1.014.112 1.521a7.346 7.346 0 0 1-.746 1.634 3.62 3.62 0 0 0-.347.943c-.08.352-.062.719.054 1.061.144.352.409.64.747.812.33.168.675.304 1.03.407a4.2 4.2 0 0 1 .985.419c.29.185.543.422.747.7a2.32 2.32 0 0 1 .418 1.837c-.108.618-.549 1.065-.86 1.552a2.32 2.32 0 0 0-.327.781 1.14 1.14 0 0 0 .112.785 1.213 1.213 0 0 0 1.129.637 1.14 1.14 0 0 0 .846-.524 1.16 1.16 0 0 0 .193-.6.74.74 0 0 0-.005-.194Z"/><path fill="#2ECC82" d="m38.455 190.388 8.753-1.864 1.458 7.221-6.432.145.063 5.822c2.887.817 3.292 2.283 3.292 2.283l-6.036-.14-5.254-10.718 4.156-2.749Z"/><path fill="#fff" d="m34.277 193.118 5.254 10.719 6.036.14-.657-.925-4.907-.384-4.844-10.132-.882.582Z" opacity=".6"/><path fill="#263238" d="M42.297 199.026c-.045.063-.391-.144-.86-.14-.467.005-.813.19-.858.127-.045-.064.292-.402.863-.397.572.004.909.365.855.41Zm-.067-1.444c-.06.041-.32-.32-.801-.451-.482-.131-.868.108-.9.045-.031-.063.05-.126.22-.217a1.11 1.11 0 0 1 .743-.085c.25.054.473.193.634.392.112.158.135.298.103.316Zm.08-1.855c-.063.032-.265-.32-.68-.478-.413-.158-.8-.023-.827-.095-.027-.072.063-.113.23-.172.224-.078.468-.078.692 0 .223.085.409.244.527.452.09.185.09.284.058.293Zm.446 0c-.072 0-.027-.401-.207-.812-.18-.411-.477-.645-.45-.713.027-.068.45.104.684.609.234.506.04.948-.027.916Zm.714-.686a2.532 2.532 0 0 1-.143-.812l-.081-.903a1.987 1.987 0 0 1 0-.568.498.498 0 0 1 .216-.298.38.38 0 0 1 .414 0c.161.144.28.329.342.537a2.021 2.021 0 0 1-.05 1.453c-.216.492-.522.672-.53.65a7.48 7.48 0 0 0 .355-.718c.085-.268.116-.55.09-.83a2.046 2.046 0 0 0-.108-.479 1 1 0 0 0-.252-.406.11.11 0 0 0-.126 0 .25.25 0 0 0-.1.14c-.02.161-.02.323 0 .483v.903c.038.282.029.569-.026.848Zm.1.266s.153-.279.616-.451a1.496 1.496 0 0 1 1.714.614.259.259 0 0 1-.027.235.312.312 0 0 1-.158.131.914.914 0 0 1-.283.054 2.51 2.51 0 0 1-.49 0 2.58 2.58 0 0 1-.801-.203c-.45-.19-.63-.411-.612-.452.231.073.458.159.68.258.243.076.496.121.75.135.15.011.3.011.45 0a.738.738 0 0 0 .203-.041c.05-.031.036-.022.036-.04a.517.517 0 0 0-.122-.145 1.07 1.07 0 0 0-.175-.14 1.464 1.464 0 0 0-1.116-.23 6.327 6.327 0 0 0-.665.275Z"/><path fill="#fff" d="M39.099 193.042a.721.721 0 0 1-.733.704.72.72 0 0 1-.48-1.24.716.716 0 0 1 1.213.536Z" opacity=".6"/><path fill="#2ECC82" d="m104.863 191.178-.085 7.934s8.42 3.16 8.546 4.608H97.581l-.378-12.366 7.66-.176Z"/><path fill="#fff" d="M100.019 198.566a.632.632 0 0 0-.414.727.599.599 0 0 0 .715.42.662.662 0 0 0 .45-.772.627.627 0 0 0-.791-.357m-2.399 5.159v-1.25l14.7.09s1.102.672 1.039 1.16H97.581Z" opacity=".6"/><path fill="#263238" d="M105.025 199.026c0 .077-.374.118-.733.37-.36.253-.554.574-.621.542-.068-.032.031-.451.472-.758.441-.307.882-.221.882-.154Zm1.628.627c0 .073-.301.208-.549.533-.247.325-.31.663-.387.659-.076-.005-.134-.424.18-.821.315-.398.752-.443.756-.371Zm.963 1.91c-.068 0-.184-.357 0-.772.184-.415.526-.591.562-.528.036.063-.18.284-.324.632-.144.347-.166.654-.238.668Zm-2.771-4.347c-.032.068-.378-.027-.801 0-.422.027-.746.181-.787.118-.04-.064.27-.339.769-.38.5-.04.855.204.819.262Z"/><path fill="#000" d="m104.845 192.749-.014 1.412-7.538.127-.045-1.273 7.597-.266Z" opacity=".3"/><path fill="#263238" d="M104.831 195.619c-.251.07-.517.07-.769 0a3.611 3.611 0 0 1-.809-.23 3.908 3.908 0 0 1-.45-.221 1.117 1.117 0 0 1-.239-.176.336.336 0 0 1-.045-.398.406.406 0 0 1 .324-.18.936.936 0 0 1 .293.032 2.71 2.71 0 0 1 1.201.604c.364.321.49.601.449.614-.04.014-.211-.203-.58-.451a3.026 3.026 0 0 0-.697-.37 2.603 2.603 0 0 0-.45-.122c-.162-.041-.301-.036-.342.036-.04.072 0 .036.023.086.05.05.108.093.171.126.133.082.272.155.414.221.239.113.489.202.746.266.257.036.511.09.76.163Z"/><path fill="#263238" d="M104.737 195.727a1.243 1.243 0 0 1-.22-.74 2.476 2.476 0 0 1 .081-.848c.046-.157.108-.308.184-.452a.636.636 0 0 1 .481-.401.346.346 0 0 1 .324.203c.042.089.072.183.09.279.025.173.025.347 0 .519a1.775 1.775 0 0 1-.31.808c-.288.406-.598.501-.607.479.162-.183.312-.376.449-.578.127-.224.203-.474.221-.731a1.516 1.516 0 0 0-.023-.451c-.027-.163-.094-.294-.153-.276a.6.6 0 0 0-.265.262c-.07.136-.129.278-.175.424-.081.25-.125.51-.131.772.009.438.095.718.054.731Zm-41.642-21.32c.54 0 3.122 10.565 3.122 10.565l-23.875 3.57 1.516 9.555s28.188-1.891 30.136-2.334c3.44-.785 6.036-4.12 5.923-8.498-.13-5.041-3.067-16.915-3.067-16.915l-13.755 4.057Z"/><path fill="#000" d="m78.11 176.126-13.854 1.011s1.151 2.401 5.051 2.681c3.9.28 9.59 0 9.59 0l-.788-3.692Z" opacity=".3"/><path fill="#263238" d="M107.661 166.324a8.353 8.353 0 0 0-2.684-5.454 8.295 8.295 0 0 0-5.66-2.178h-4.246l-22.94 1.187-12.454-3.8s-4.327 7.767-1.84 14.257a11.874 11.874 0 0 0 3.57 4.993 11.82 11.82 0 0 0 5.579 2.535c5.186.903 28.94-4.13 28.94-4.13v21.212l10.795-.28.985-27.945c-.027-.122-.032-.257-.045-.397Z"/><path fill="#455A64" d="m95.921 173.735-.14.036-.418.085-1.61.303-5.924 1.069-8.788 1.562-5.196.903a22.389 22.389 0 0 1-5.662.32 16.565 16.565 0 0 1-2.852-.451 11.68 11.68 0 0 1-2.636-.975 10.213 10.213 0 0 1-3.8-3.66 12.948 12.948 0 0 1-1.755-4.464 13.671 13.671 0 0 1-.153-4.179c.291-2 .815-3.958 1.561-5.835.265-.664.504-1.165.675-1.499.09-.167.157-.293.207-.374.05-.082.076-.127.08-.122a.861.861 0 0 1-.058.131l-.184.383c-.158.343-.383.849-.635 1.512a26.93 26.93 0 0 0-1.48 5.822 13.585 13.585 0 0 0 .176 4.121 12.844 12.844 0 0 0 1.745 4.386 10.063 10.063 0 0 0 3.729 3.575c.82.421 1.689.739 2.586.948.922.233 1.863.384 2.812.451 1.875.133 3.76.027 5.608-.316l5.196-.903 8.797-1.507 5.938-.997 1.615-.262.422-.059a.578.578 0 0 1 .144-.004Zm-28.301 22.71h-.117l-.342.032-1.35.112-4.947.375-17.011 1.232h-.104v-.104c-.39-2.455-.81-5.082-1.24-7.785-.095-.6-.185-1.191-.28-1.765v-.117h.117l23.884-3.52a16.639 16.639 0 0 1 3.553 2.342c.374.325.644.596.82.781l.197.217c.04.049.063.076.059.076-.005 0-.027 0-.072-.063l-.207-.203c-.185-.176-.45-.451-.841-.754a17.538 17.538 0 0 0-3.563-2.256h.036l-23.866 3.61.1-.135.278 1.764c.45 2.708.841 5.331 1.232 7.79l-.121-.099 17.016-1.128 4.947-.307 1.35-.077h.346l.126-.018Z"/><path fill="#455A64" d="M98.314 171.139c-.53.294-1.02.651-1.462 1.065a7.21 7.21 0 0 0-.967 1.526c-.027 0 0-.221.1-.546.15-.426.39-.815.7-1.142a3.293 3.293 0 0 1 1.09-.772c.319-.131.53-.158.539-.131Zm-19.283-11.544a3.25 3.25 0 0 1-.643.094c-.41.045-1.012.095-1.754.136-1.484.085-3.54.126-5.807.149-2.267.022-4.318.058-5.798.144-.742.036-1.35.081-1.754.117a3.077 3.077 0 0 1-.643.032c.207-.059.42-.1.634-.122a25.427 25.427 0 0 1 1.754-.194c1.484-.126 3.536-.185 5.807-.212 2.272-.027 4.318-.036 5.798-.081l1.759-.059a3.68 3.68 0 0 1 .647-.004Z"/><path fill="#2ECC82" d="m74.439 126.003-.238.285a8.719 8.719 0 0 0-4.183 2.186 8.766 8.766 0 0 0-2.438 4.051c-.873 3.091-1.138 8.818-2.928 16.577 0 0-4.386 3.98-5.2 6.977l12.666 3.832 6.913-.389L81.7 151.2c2.586 0 3.688-1.304 4.619-3.43 1.237-2.834-2.843-15.837-2.843-15.837l.293 2.221-9.329-8.151Z"/><path fill="#000" d="m85.315 136.97 3.067 6.296-1.893.289s-1.16-6.115-1.174-6.585Z" opacity=".3"/><path fill="#263238" d="M82.95 151.2c0-.027.22-.072.593-.239a4.44 4.44 0 0 0 1.394-1.006 5.736 5.736 0 0 0 1.273-2.207 8.316 8.316 0 0 0 .293-3.128 22.417 22.417 0 0 0-.518-3.159c-.211-.957-.404-1.828-.526-2.564a13.756 13.756 0 0 1-.18-1.76 2.618 2.618 0 0 1 0-.65c.039.212.061.426.068.641.054.584.14 1.164.256 1.738.14.731.346 1.588.571 2.55.262 1.037.443 2.093.54 3.159a8.41 8.41 0 0 1-.32 3.213 5.737 5.737 0 0 1-1.349 2.257 4.2 4.2 0 0 1-1.48.979 2.67 2.67 0 0 1-.45.131c-.107.045-.166.054-.166.045Z"/><path fill="#000" d="M68.259 138.008s4.282 14.813 7.08 17.065a3.844 3.844 0 0 0 5.19-.037l.517-2.549-12.787-14.479Z" opacity=".3"/><path fill="#FFBE9D" d="M108.686 136.826c-.49-.451-.773-.28-.773-.28s.26-1.2-.365-1.62a4.335 4.335 0 0 0-.351-.23c-.063-.158-.449-1.02-1.088-1.169 0 0-.09-1.124-.562-1.228-.9-.198-1.273.763-1.273.763l-1.615 3.096-.769 3.159-13.22 6.179 1.417 6.083 14.843-7.672 2.645-2.545s1.601-4.098 1.111-4.536Z"/><path fill="#2ECC82" d="M69.24 133.545c0 .474 7.461 20.016 10.992 21.379 1.35.519 21.707-7.136 21.707-7.136l-2.478-7.532s-14.227 4.815-14.713 4.784c-.486-.032-4.948-12.384-4.948-12.384s-2.793-5.867-6.99-4.035c-2.667 1.169-3.57 4.924-3.57 4.924Z"/><path fill="#263238" d="M84.748 145.04c.085-.038.173-.071.261-.099l.774-.271 2.964-.989 10.683-3.52.094-.027.031.09c.756 2.284 1.593 4.825 2.488 7.528l.031.1-.094.04a471.625 471.625 0 0 1-10.345 3.863c-2.25.795-4.44 1.557-6.58 2.225-1.076.325-2.128.65-3.19.903a6.937 6.937 0 0 1-.796.149l-.405.059c-.15.017-.303.004-.45-.036a3.293 3.293 0 0 1-1.277-.957 16.598 16.598 0 0 1-1.763-2.469 46.92 46.92 0 0 1-1.381-2.496 85.498 85.498 0 0 1-2.2-4.617 148.36 148.36 0 0 1-2.829-6.837 111.02 111.02 0 0 1-.706-1.887c-.076-.207-.13-.37-.175-.492a1.032 1.032 0 0 1-.05-.171s.027.054.072.162l.194.488.75 1.864a181.53 181.53 0 0 0 2.897 6.806c.644 1.421 1.35 2.969 2.218 4.594.423.812.9 1.643 1.385 2.478.507.86 1.092 1.673 1.745 2.428.32.394.73.704 1.197.902.247.043.5.033.742-.031.263-.03.523-.08.778-.149 1.048-.23 2.1-.56 3.171-.903 2.137-.668 4.327-1.43 6.567-2.225a437.656 437.656 0 0 0 10.345-3.849l-.067.135c-.9-2.708-1.714-5.249-2.465-7.533l.126.064-10.71 3.434-2.982.943-.782.24a5.722 5.722 0 0 1-.266.063Z"/><path fill="#263238" d="M73.99 128.449a.658.658 0 0 1 .206-.027c.2-.012.4-.012.598 0a4.535 4.535 0 0 1 2.11.614c.437.27.829.609 1.16 1.002.39.435.745.9 1.062 1.39a25.136 25.136 0 0 1 1.8 3.565c1.123 2.6 1.942 5.028 2.518 6.77.288.903.508 1.598.657 2.094.09.253.16.513.207.777a5.897 5.897 0 0 1-.293-.75c-.184-.523-.45-1.223-.728-2.071-.612-1.742-1.458-4.161-2.578-6.747a25.862 25.862 0 0 0-1.776-3.539 11.5 11.5 0 0 0-1.026-1.381 4.887 4.887 0 0 0-1.102-.993 4.718 4.718 0 0 0-2.029-.663c-.48-.032-.764-.018-.787-.041Z"/><path fill="#EB996E" d="M106.109 133.572a2.142 2.142 0 0 1-.373.902c-.266.451-.522.808-.576.776-.054-.031.108-.451.369-.902.26-.452.521-.808.58-.776Zm.913 1.083c.054.036-.14.393-.392.821-.252.429-.449.772-.521.745-.072-.027.063-.424.319-.862s.544-.745.594-.704Zm.899 1.882c.054.027-.022.307-.175.623s-.324.555-.378.523c-.054-.031 0-.307.171-.623s.324-.564.382-.523Z"/><path fill="#263238" d="M84.784 144.846c.059.04-.382.722-.706 1.656-.324.934-.418 1.738-.49 1.733a3.667 3.667 0 0 1 .27-1.805 3.6 3.6 0 0 1 .926-1.584Z"/><path fill="#C78976" d="m88.886 76.751-3.544-1.44a1.33 1.33 0 0 0 .36 1.756 8.823 8.823 0 0 0 2.105 1.385s.405 1.806 1.313 2.708c.909.903 2.965-.532 2.965-.532s0-2.681-3.199-3.877Z"/><path fill="#FFD6BD" d="M94.203 88.318c-.423-.596-.846-.243-.846-.243s.504-1.26-.103-1.833a8.635 8.635 0 0 0-.342-.316c-.045-.185-.31-1.196-.99-1.475 0 0 0-1.188-.504-1.382-.787-.28-1.686.623-1.686.623l-2.051 3.029-3.05 5.077 1.7 5.416 4.84-3.02.963-.938s2.546-4.243 2.069-4.938Z"/><path fill="#FFB394" d="M91.98 84.4c.06.032-.094.38-.332.768-.238.388-.477.677-.535.64-.059-.035.094-.374.337-.766.243-.393.459-.677.53-.641Zm.927 1.395a1.926 1.926 0 0 1-.45 1.178c-.404.587-.899.88-.944.826-.045-.054.378-.41.751-.961.374-.55.576-1.065.643-1.043Zm.423 2.085c.054.028-.045.38-.319.732s-.585.532-.625.483c-.04-.05.189-.303.45-.628.26-.325.436-.613.494-.586Z"/><path fill="#C78976" d="M84.073 81.468a5.794 5.794 0 0 0 2.15 1.602c.329.168.701.231 1.067.18a.782.782 0 0 0 .643-.772 1.16 1.16 0 0 0-.428-.667L85.9 80.258c.172.29.387.552.638.776a1.148 1.148 0 0 0 .936.284.715.715 0 0 0 .576-.722 1.229 1.229 0 0 0-.288-.55l-2.078-2.672"/><path fill="#8B5D54" d="M87.933 82.654s.026.082-.027.203a.903.903 0 0 1-.392.402 1.66 1.66 0 0 1-.8.221 1.957 1.957 0 0 1-.967-.293 4.01 4.01 0 0 1-1.71-1.805 9.793 9.793 0 0 0 1.826 1.606c.259.162.552.258.855.28a1.6 1.6 0 0 0 .72-.153 1.04 1.04 0 0 0 .495-.46Zm.077-1.787s0 .077-.073.19a.724.724 0 0 1-.45.302 2.24 2.24 0 0 1-1.713-.478 4.06 4.06 0 0 1-1.061-1.427 2.03 2.03 0 0 1-.261-.681c.031 0 .175.221.404.605a4.96 4.96 0 0 0 1.062 1.318c.436.346.982.524 1.538.5.405-.054.517-.36.553-.329Z"/><path fill="#8B5D54" d="M87.402 83.24s.09 0 .202.109c.157.15.255.352.275.569a.906.906 0 0 1-.428.835 1.274 1.274 0 0 1-1.138.027 3.944 3.944 0 0 1-1.623-1.151 1.735 1.735 0 0 1-.423-.709c.031-.022.198.244.544.596.446.46.986.815 1.583 1.043a1.1 1.1 0 0 0 .945 0 .762.762 0 0 0 .373-.646.874.874 0 0 0-.175-.51c-.081-.104-.144-.162-.135-.162Zm2.415-1.777a1.58 1.58 0 0 1-1.08-.569 2.949 2.949 0 0 1-.67-1.169 4.49 4.49 0 0 1-.175-.772.879.879 0 0 0-.099-.347.589.589 0 0 0-.283-.199 6.62 6.62 0 0 1-1.422-.798 2.513 2.513 0 0 1-.796-1.093 1.58 1.58 0 0 1-.099-.902c.054-.213.14-.307.149-.298.009.009-.036.113-.059.316-.02.285.036.57.162.826.17.388.437.727.774.984.433.303.9.556 1.39.753a.845.845 0 0 1 .382.289c.073.14.117.294.13.451.029.251.08.499.154.74.111.412.31.794.584 1.12.273.283.599.51.958.668Z"/><path fill="#FFBE9D" d="m101.004 123.445 2.757-2.144a1.212 1.212 0 0 1 .117 1.629 8.04 8.04 0 0 1-1.512 1.738s.09 1.688-.481 2.708c-.571 1.019-2.73.27-2.73.27s-.666-2.36 1.849-4.201Z"/><path fill="#FFBE9D" d="M105.241 126.233c-.338.56-.8 1.034-1.35 1.386a1.52 1.52 0 0 1-.854.076.564.564 0 0 1-.509-.519.903.903 0 0 1 .275-.505l1.066-1.205c-.11.218-.251.418-.419.596a.806.806 0 0 1-.652.252.51.51 0 0 1-.45-.482.862.862 0 0 1 .18-.411l1.35-2.031"/><path fill="#FFBE9D" d="M105.241 127.186a3.038 3.038 0 0 1-1.35 1.354 1.014 1.014 0 0 1-.728.126.62.62 0 0 1-.419-.451.625.625 0 0 1 .234-.587"/><path fill="#EB996E" d="M103.001 127.596c.031.023-.18.181-.158.506a.535.535 0 0 0 .297.415.746.746 0 0 0 .648-.063 3.3 3.3 0 0 0 1.075-.822c.229-.27.342-.451.378-.451.036 0-.036.235-.248.546-.28.405-.662.729-1.106.939a.947.947 0 0 1-.846.041.697.697 0 0 1-.364-.605.647.647 0 0 1 .175-.451c.081-.05.144-.068.149-.055Z"/><path fill="#EB996E" d="M102.596 127.204a.958.958 0 0 0 .396.28c.164.06.339.08.513.058a1.35 1.35 0 0 0 .58-.244 9.76 9.76 0 0 0 1.241-1.232 2.619 2.619 0 0 1-1.111 1.427c-.203.148-.442.24-.692.266a1.216 1.216 0 0 1-.599-.122.675.675 0 0 1-.306-.28c-.045-.09-.036-.149-.022-.153Zm-.162-1.151c.031-.027.135.176.45.18a1.685 1.685 0 0 0 1.052-.451 3.59 3.59 0 0 0 .688-.993c.149-.284.248-.451.279-.451.032 0 0 .208-.126.514a2.917 2.917 0 0 1-.683 1.102 1.652 1.652 0 0 1-1.228.451.559.559 0 0 1-.365-.208c-.072-.081-.081-.14-.067-.144Z"/><path fill="#EB996E" d="M101.346 127.813a2.98 2.98 0 0 0 .665-.84 2.75 2.75 0 0 0 .239-1.123 5.327 5.327 0 0 0-.05-.691.96.96 0 0 1 0-.42.751.751 0 0 1 .27-.356 6.641 6.641 0 0 0 1.03-1.002c.236-.307.391-.669.45-1.052a1.526 1.526 0 0 0-.063-.767c-.063-.171-.135-.248-.121-.262.013-.013.103.05.206.226.128.253.177.54.14.821-.033.419-.181.82-.427 1.16a6.3 6.3 0 0 1-1.053 1.056.519.519 0 0 0-.202.244.826.826 0 0 0 0 .321c.035.24.049.483.04.726-.01.417-.114.826-.306 1.196a1.444 1.444 0 0 1-.818.763Z"/><path fill="#FFB394" d="M81.388 49.47c.106.392.157.797.153 1.204.02.45-.034.9-.162 1.331a1.889 1.889 0 0 1-.386.723.858.858 0 0 1-.4.239.637.637 0 0 1-.5-.077 1.287 1.287 0 0 1-.45-.78 7.53 7.53 0 0 1-.153-.772 8.138 8.138 0 0 1-.094-1.323c-.02-.408.026-.817.14-1.21.035 0 0 .452.026 1.206.021.432.068.863.14 1.29.045.24.094.492.162.75.039.248.163.474.35.64a.484.484 0 0 0 .603-.126c.162-.18.28-.394.347-.627.13-.409.199-.835.202-1.264a11.01 11.01 0 0 1 .022-1.205Zm1.62 1.127c.06.214.079.438.054.659a3.349 3.349 0 0 1-.374 1.566 1.606 1.606 0 0 1-.292.383.642.642 0 0 1-.45.195.7.7 0 0 1-.612-.479.973.973 0 0 1-.031-.672c.045 0 .04.261.184.604a.546.546 0 0 0 .45.33c.203 0 .396-.226.54-.478a3.98 3.98 0 0 0 .41-1.458c.008-.221.05-.44.12-.65Z"/><path fill="#FFD6BD" d="M78.123 57.868c1.43-.903.234-5.782-.657-6.928.976-.993 1.422-2.108.729-3.317-.9.902-2.433 2.026-2.699 4.513l.279 1.9 2.348 3.832Z"/><path fill="#FFB394" d="M78.487 55.842c.073-.43.122-.862.148-1.296a4.6 4.6 0 0 0-.985-2.88 4.056 4.056 0 0 0-.48-.518l-.104-.1.117-.08a2.829 2.829 0 0 0 1.165-2.203 5.854 5.854 0 0 0-.122-1.06s.068.085.13.261c.09.257.138.527.145.799a2.72 2.72 0 0 1-.234 1.2 2.94 2.94 0 0 1-.958 1.192v-.18a4.482 4.482 0 0 1 1.47 3.574c-.014.326-.072.65-.17.961a.87.87 0 0 1-.122.33Z"/></g><defs><clipPath id="a"><path fill="#fff" transform="translate(.866 .537)" d="M0 0h196.294v207.84H0z"/></clipPath></defs></svg>