<svg xmlns="http://www.w3.org/2000/svg" width="1229" height="614" fill="none">
    <rect width="293" height="293" x="614.182" fill="url(#a)" rx="32" transform="rotate(45 614.182 0)"/>
    <path fill="url(#b)" d="M321.217 541.602c3.965.409 6.332 3.26 8.897 5.812 17.078 17.077 34.159 34.146 51.244 51.207 15.862 15.825 34.922 15.8 50.673 0a279091.984 279091.984 0 0 1 155.763-155.837c15.379-15.38 15.528-34.365.248-49.707-20.386-20.461-40.722-40.983-61.306-61.245a14.295 14.295 0 0 1-4.685-11.314c0-5.874 2.776-13.731-1.239-17.089-3.408-2.888-11.029-1.066-16.767-.843a13.289 13.289 0 0 1-10.906-4.176c-20.708-21.068-41.688-41.764-62.471-62.72-15.602-15.726-15.652-37.177 0-52.879A113332.02 113332.02 0 0 1 588.265 25.227c16.482-16.433 37.686-16.272 54.243.26a255655.311 255655.311 0 0 1 155.874 155.688c17.35 17.35 17.35 38.641 0 56.201a15344.07 15344.07 0 0 1-51.491 51.789c-9.915 6.766-15.082 15.676-12.765 28.032.261 1.388-.161 2.912.075 4.312.954 5.651-1.673 7.436-6.903 6.68-12.926-1.723-24.376.459-32.085 12.318a7.122 7.122 0 0 1-.359.508c-18.118 18.056-36.397 35.939-54.317 54.206-13.062 13.309-12.392 32.877 1.239 46.546a21928.674 21928.674 0 0 0 67.862 67.862c29.619 29.619 59.241 59.245 88.868 88.88 15.776 15.813 34.823 15.888 50.624.099l155.86-155.775c15.26-15.255 15.37-34.501.19-49.756a14551.025 14551.025 0 0 0-61.73-61.753 12.968 12.968 0 0 1-4.164-10.273c0-6.085 2.813-14.252-1.239-17.672-3.557-2.987-11.463-1.103-17.35-.793-4.337.235-7.25-1.339-10.211-4.338-20.647-20.807-41.491-41.416-62.187-62.173-15.813-15.851-15.974-37.513-.161-53.363A94609.386 94609.386 0 0 1 1006.58 24.248c15.19-15.169 37.18-14.748 52.98.941a33805.6 33805.6 0 0 1 86.24 86.191l70.02 70.043c17.27 17.35 17.34 38.231 0 55.618a62304.758 62304.758 0 0 1-151.48 151.376c-1.51 1.512-3.2 6.085-5.85 3.259-2.18-2.342 2.06-4.238 3.72-5.886a84376.042 84376.042 0 0 1 150.15-150.199c17.02-17.002 17.21-35.381.18-52.408-51.92-51.966-103.88-103.9-155.88-155.8-14.21-14.177-33.72-14.462-47.91-.322a61847.48 61847.48 0 0 0-158.901 158.898c-12.294 12.392-13.744 31.874-2.479 43.733 18.341 19.246 37.562 37.674 56.411 56.449 6.717 9.579 15.243 15.131 27.561 12.715 2.194-.434 4.549.111 6.804-.099 3.891-.385 5.031 1.412 4.957 5.056-.198 5.973 0 11.959-.074 17.944 0 2.342.247 4.486 2.094 6.197 3.482 3.197 6.903 6.468 10.335 9.703 17.846 18.044 35.753 36.013 53.502 54.131 11.62 11.884 14.19 26.768 7.51 41.552a34.072 34.072 0 0 1-7.04 10.076 377951.427 377951.427 0 0 1-160.214 160.137c-14.251 14.214-36.706 13.719-51.627-1.128a31515.58 31515.58 0 0 1-94.184-94.06c-21.588-21.6-43.275-43.101-64.727-64.85-14.623-14.871-14.437-36.831.161-51.578 11.6-11.736 23.336-23.348 35.022-34.997 9.493-9.48 19.122-18.812 28.429-28.503a11.53 11.53 0 0 1 9.121-3.904c6.27 0 14.412 2.85 18.328-1.239 3.631-3.817 1.091-11.835.967-17.982a11.306 11.306 0 0 1 3.829-9.108c20.832-20.609 41.441-41.416 62.186-62.112 14.946-14.871 15.132-34.365.186-49.323A174102.786 174102.786 0 0 0 639.719 27.581c-14.722-14.71-34.005-14.673-48.814.1a146638.314 146638.314 0 0 0-156.271 156.258c-16.111 16.11-16.011 34.513-.075 50.525a15784.14 15784.14 0 0 0 48.58 48.591 43.094 43.094 0 0 0 4.349 3.371c5.106 5.824 8.675 13.433 18.726 12.541 6.06-.545 14.078-2.763 17.932.942 4.188 4.028 1.4 12.145 1.239 18.428-.099 4.957 1.066 8.873 4.486 12.182 2.652 2.553 5.515 4.883 8.278 7.311 17.177 17.251 34.348 34.502 51.516 51.752 17.449 17.461 17.672 38.838.335 56.176a175254.513 175254.513 0 0 1-156.717 156.568c-15.292 15.268-37.116 15.602-52.532.471-19.296-18.923-38.318-38.107-57.44-57.217-1.091-1.09-2.764-2.057-1.921-4.126l-.173.148Z"/>
    <path fill="url(#c)" d="M278.214 340.768c-18.712 18.589-37.772 36.843-56.027 55.866-12.144 12.665-10.744 31.998 2.293 45.097 28.503 28.639 57.192 57.117 85.707 85.769 4.201 4.226 9.406 7.807 11.03 14.103l.124-.124c-2.702.942-3.718-1.487-4.957-2.813a38824.936 38824.936 0 0 1-94.011-94.184c-15.937-16.036-15.875-37.352 0-53.289 20.535-20.621 41.206-41.106 61.629-61.826 3.309-3.346 6.593-5.044 11.327-4.672 4.957.384 9.914 0 14.871.136 2.677.074 3.854-.867 3.532-3.569-.075-.607.086-1.239 0-1.859-2.838-14.487 3.532-24.475 14.078-34.08 17.808-16.259 34.352-33.918 51.417-50.995 15.416-15.442 15.627-34.303.309-49.645a131539.644 131539.644 0 0 0-159.294-159.32c-14.549-14.536-33.708-14.809-48.406-.173C119.242 77.524 66.933 130.13 14.351 182.465c-13.868 13.805-14.698 34.823.421 49.768 50.81 50.19 101.074 100.827 151.45 151.401 1.723 1.723 6.383 3.532 3.582 6.357-1.896 1.921-4.127-2.317-5.887-4.064A200349.661 200349.661 0 0 1 13.223 235.493c-12.22-12.17-16.63-25.951-10.348-42.47a33.14 33.14 0 0 1 7.882-11.711 577511.317 577511.317 0 0 1 159.307-159.17c14.71-14.674 36.794-14.872 51.615-.236 34.464 34.092 68.655 68.444 102.958 102.697l56.436 56.399c17.548 17.536 17.61 38.653.223 56.151a23449.368 23449.368 0 0 0-51.367 51.826c-9.79 6.766-15.454 15.417-12.975 27.908.272 1.376-.124 2.888.074 4.301.744 5.44-1.028 7.943-7.014 7.348-5.292-.52-10.67 0-15.999-.136-2.342 0-4.387.198-6.11 2.119-3.135 3.507-6.456 6.841-9.691 10.249Z"/>
    <path fill="#2ECC82" d="M966.481 168.087c8.254 0 16.519.223 24.785-.075 4.362-.161 5.614 1.24 5.54 5.602-.186 10.137 0 10.149-10.15 10.149-9.914 0-19.828.124-29.742-.062-3.619-.074-5.465.868-5.143 4.796.322 3.929-2.763 8.526-.111 11.315 2.652 2.788 6.815-.682 10.434-.831 9.617-.384 19.023-.359 27.388 5.243 10.025 6.716 15.308 19.828 12.728 31.316-3.087 13.743-11.154 21.897-24.997 23.88-12.393 1.76-24.649 1.636-35.678-5.589a24.244 24.244 0 0 1-11.501-19.419c-.235-3.135.707-4.189 3.718-4.015 1.852.142 3.713.142 5.565 0 4.424-.446 7.695.111 8.947 5.49.892 3.866 4.052 6.283 8.253 7.311a40.156 40.156 0 0 0 17.164.459c5.75-1.078 10.633-7.337 11.154-13.397.545-6.481-2.801-12.851-8.514-15.181-8.241-3.358-16.755-3.346-24.538.893-4.808 2.627-9.505 2.106-14.387 2.032-2.814 0-3.718-1.375-3.557-4.374.942-13.769 1.772-27.549 2.317-41.342.149-3.83 1.872-4.288 4.957-4.239 8.452.137 16.904.038 25.368.038ZM312.232 452.45c15.392 0 29.569.248 43.721-.137 5.106-.123 6.32 1.475 6.073 6.283-.533 10.609 1.772 9.469-9.58 9.518h-50.19c-11.996 0-12.69-.855-9.022-12.492 2.28-7.274 7.002-13.012 12.529-18.081 6.729-6.196 14.462-10.905 22.096-15.8a48.127 48.127 0 0 0 10.596-8.44c3.395-3.878 5.874-8.055 3.966-13.483-1.909-5.428-6.284-7.113-11.526-7.844-9.914-1.363-18.465 3.395-20.286 12.653-.967 4.957-3.16 5.651-7.436 5.576-11.252-.186-12.752-2.156-8.985-12.888 6.11-17.35 25.542-25.764 46.832-20.324 13.967 3.569 21.997 14.673 20.436 28.949-.967 8.873-5.961 15.603-12.765 21.068-6.803 5.465-14.871 9.48-22.604 13.855-4.808 2.838-9.456 5.799-13.855 11.587Z"/>
    <path fill="#fff" d="M527.444 182.385c-8.675 0-18.948-.223-29.222.112-4.51.136-6.196-.942-6.035-5.751.236-10.025 0-10.038 10.162-10.038 16.309 0 32.618 0 48.926.075 1.822 0 4.598-1.24 5.267 1.611a6.858 6.858 0 0 1-1.425 6.754c-6.122 6.989-13.273 12.876-19.68 19.555-1.388 1.463-3.048 2.665-4.957 4.313 3.966 2.702 7.87 2.119 11.154 3.47 11.562 4.672 18.985 15.664 18.403 27.474-.669 13.471-7.944 23.336-20.733 26.806-12.393 3.383-24.934 3.494-36.794-2.38-8.575-4.238-13.371-11.339-14.326-20.943-.297-2.975.385-4.833 3.941-4.449 2.06.224 4.137.224 6.197 0 4.287-.508 6.989.57 7.795 5.39.532 3.223 3.246 5.267 6.196 6.519a26.282 26.282 0 0 0 22.121-.087c6.035-2.776 8.414-8.848 7.051-15.627-1.153-5.738-6.543-10.583-13.198-11.351-4.709-.546-9.654-1.029-14.078.929-5.23 2.317-5.713-2.367-7.795-4.635-2.627-2.863.211-4.263 1.797-6.023 6.531-7.349 13.049-14.734 19.233-21.724Z"/>
    <path fill="#2ECC82" d="M764.129 406.287c0 7.634.26 15.293-.099 22.902-.248 5.056 1.239 7.163 6.568 6.742 2.392-.186 6.196-1.587 7.101 1.735a20.231 20.231 0 0 1-.174 12.181c-.88 2.392-4.151 1.24-6.196 1.066-5.527-.595-7.597 1.239-7.324 7.076.458 10.113.074 9.766-10.001 10.274-6.035.297-8.402-1.016-7.956-7.634.644-9.641.161-9.679-9.765-9.679-10.732 0-21.464.137-32.221 0-2.231 0-5.54 1.537-6.556-1.499a9.112 9.112 0 0 1 1.933-9.22c7.027-8.093 13.818-16.396 20.721-24.587 9.976-11.823 20.2-23.435 29.829-35.53 3.718-4.622 8.092-3.086 12.392-3.135 2.392 0 1.723 2.478 1.735 3.928v25.38h.013Zm-43.907 30.796h23.323c1.908 0 3.296-.57 3.296-2.689v-27.425l-1.314-.409c-8.03 9.716-16.097 19.419-25.305 30.523ZM134.026 213.694c0 13.409-.161 26.818.074 40.226.075 4.152-1.239 5.193-5.291 5.193-12.864 0-12.864.186-12.864-12.393 0-17.944-.149-35.938.099-53.821.075-5.291-1.301-7.435-6.642-5.366l-.595.174c-9.641 2.367-12.566 0-13-10.125-.074-1.611.384-2.318 1.772-2.59 10.695-2.07 20.931-6.283 31.998-6.655 3.544-.112 4.573 1.016 4.523 4.548-.186 13.582-.074 27.202-.074 40.809Z"/>
    <path fill="#2ECC82" d="M694.854 341.065c.124-.161.248-.335.359-.508 7.709-11.86 19.159-14.041 32.085-12.318 5.23.694 7.857-1.029 6.903-6.68-.236-1.4.186-2.925-.075-4.313-2.317-12.392 2.838-21.265 12.765-28.032.111 16.111.186 32.134.359 48.195 0 2.999-1.413 3.941-4.189 3.929-16.061-.124-32.134-.124-48.207-.273Zm260.505-3.396c-3.432-3.234-6.853-6.506-10.335-9.703-1.846-1.71-2.119-3.854-2.095-6.197 0-5.985-.123-11.971.075-17.944.124-3.643-1.016-5.44-4.957-5.056-2.256.21-4.61-.335-6.804.099-12.318 2.416-20.844-3.135-27.561-12.715 16.111-.149 32.221-.26 48.269-.471 3.222 0 3.644 1.71 3.632 4.325-.087 15.887-.137 31.775-.224 47.662Zm-677.145 3.099c3.235-3.408 6.556-6.742 9.679-10.249 1.723-1.921 3.718-2.156 6.11-2.119 5.328.074 10.707-.384 15.998.136 5.986.595 7.758-1.908 7.015-7.349-.199-1.412.198-2.924-.075-4.3-2.478-12.492 3.185-21.142 12.975-27.908 0 15.664 0 31.316.161 46.968 0 3.718-1.04 5.056-4.882 4.957-15.664-.161-31.316-.099-46.981-.136Z" opacity=".3"/>
    <path fill="#fff" d="M538.1 337.855c-2.764-2.479-5.626-4.759-8.278-7.312-3.421-3.308-4.585-7.274-4.486-12.182.136-6.283 2.924-14.4-1.24-18.427-3.854-3.718-11.872-1.488-17.932-.942-10.013.892-13.632-6.717-18.725-12.542 15.788-1.611 31.626-.409 47.439-.632 3.185 0 3.507 2.008 3.495 4.524-.124 15.838-.215 31.675-.273 47.513Z"/>
    <path fill="#181818" d="M163.512 221.392c-1.941 0-3.575-.429-4.9-1.288a7.036 7.036 0 0 1-2.8-3.556l3.304-1.932c.765 1.997 2.268 2.996 4.508 2.996 1.083 0 1.876-.196 2.38-.588.504-.392.756-.887.756-1.484 0-.691-.308-1.223-.924-1.596-.616-.392-1.717-.812-3.304-1.26a21.659 21.659 0 0 1-2.24-.784 10.714 10.714 0 0 1-1.82-1.036 4.441 4.441 0 0 1-1.372-1.68c-.317-.672-.476-1.456-.476-2.352 0-1.773.625-3.183 1.876-4.228 1.269-1.064 2.791-1.596 4.564-1.596 1.587 0 2.977.392 4.172 1.176 1.213.765 2.156 1.839 2.828 3.22l-3.248 1.876c-.784-1.68-2.035-2.52-3.752-2.52-.803 0-1.437.187-1.904.56a1.699 1.699 0 0 0-.672 1.4c0 .616.252 1.12.756 1.512.523.373 1.512.784 2.968 1.232.597.187 1.045.336 1.344.448.317.093.737.252 1.26.476.541.205.952.401 1.232.588.299.187.635.439 1.008.756s.653.644.84.98c.205.336.373.747.504 1.232.149.467.224.98.224 1.54 0 1.811-.663 3.248-1.988 4.312-1.307 1.064-3.015 1.596-5.124 1.596Zm16.511 0c-2.109 0-3.873-.709-5.292-2.128-1.4-1.419-2.1-3.173-2.1-5.264s.7-3.845 2.1-5.264c1.419-1.419 3.183-2.128 5.292-2.128 1.363 0 2.604.327 3.724.98s1.969 1.531 2.548 2.632l-3.108 1.82a3.143 3.143 0 0 0-1.288-1.372c-.56-.336-1.195-.504-1.904-.504-1.083 0-1.979.364-2.688 1.092-.709.709-1.064 1.624-1.064 2.744 0 1.101.355 2.016 1.064 2.744.709.709 1.605 1.064 2.688 1.064.728 0 1.372-.159 1.932-.476a3.143 3.143 0 0 0 1.288-1.372l3.136 1.792a7.119 7.119 0 0 1-2.604 2.66c-1.12.653-2.361.98-3.724.98Zm19.948-2.128c-1.438 1.419-3.192 2.128-5.264 2.128s-3.827-.709-5.264-2.128c-1.419-1.437-2.128-3.192-2.128-5.264s.709-3.817 2.128-5.236c1.437-1.437 3.192-2.156 5.264-2.156s3.826.719 5.264 2.156c1.437 1.419 2.156 3.164 2.156 5.236 0 2.072-.719 3.827-2.156 5.264Zm-7.98-2.492c.728.728 1.633 1.092 2.716 1.092 1.082 0 1.988-.364 2.716-1.092.728-.728 1.092-1.652 1.092-2.772 0-1.12-.364-2.044-1.092-2.772-.728-.728-1.634-1.092-2.716-1.092-1.083 0-1.988.364-2.716 1.092-.71.728-1.064 1.652-1.064 2.772 0 1.12.354 2.044 1.064 2.772Zm20.825-10.164c1.885 0 3.49.719 4.816 2.156 1.344 1.419 2.016 3.164 2.016 5.236 0 2.072-.672 3.827-2.016 5.264-1.326 1.419-2.931 2.128-4.816 2.128-1.96 0-3.472-.681-4.536-2.044v7.252h-3.612V207h3.612v1.652c1.064-1.363 2.576-2.044 4.536-2.044Zm-3.444 10.248c.728.728 1.652 1.092 2.772 1.092 1.12 0 2.044-.364 2.772-1.092.746-.747 1.12-1.699 1.12-2.856 0-1.157-.374-2.1-1.12-2.828-.728-.747-1.652-1.12-2.772-1.12-1.12 0-2.044.373-2.772 1.12-.728.728-1.092 1.671-1.092 2.828 0 1.157.364 2.109 1.092 2.856Zm14.615-11.536c-.597 0-1.12-.215-1.568-.644-.429-.448-.644-.971-.644-1.568 0-.597.215-1.12.644-1.568.448-.448.971-.672 1.568-.672a2.09 2.09 0 0 1 1.568.672c.448.448.672.971.672 1.568 0 .597-.224 1.12-.672 1.568a2.135 2.135 0 0 1-1.568.644ZM222.195 221v-14h3.612v14h-3.612Zm14.702-14.392c1.531 0 2.791.513 3.78 1.54 1.008 1.027 1.512 2.445 1.512 4.256V221h-3.612v-8.148c0-.933-.252-1.643-.756-2.128-.504-.504-1.176-.756-2.016-.756-.933 0-1.68.289-2.24.868-.56.579-.84 1.447-.84 2.604V221h-3.612v-14h3.612v1.568c.877-1.307 2.268-1.96 4.172-1.96Zm19.1.392h3.528v13.328c0 2.165-.719 3.817-2.156 4.956-1.419 1.139-3.136 1.708-5.152 1.708-1.512 0-2.847-.289-4.004-.868a6.086 6.086 0 0 1-2.632-2.548l3.08-1.764c.709 1.307 1.932 1.96 3.668 1.96 1.139 0 2.035-.299 2.688-.896s.98-1.447.98-2.548v-1.512c-1.064 1.419-2.557 2.128-4.48 2.128-1.979 0-3.64-.691-4.984-2.072-1.325-1.4-1.988-3.099-1.988-5.096 0-1.979.672-3.668 2.016-5.068 1.344-1.4 2.996-2.1 4.956-2.1 1.923 0 3.416.709 4.48 2.128V207Zm-6.748 9.548c.747.709 1.689 1.064 2.828 1.064 1.139 0 2.072-.355 2.8-1.064.747-.728 1.12-1.652 1.12-2.772 0-1.101-.373-2.007-1.12-2.716-.728-.728-1.661-1.092-2.8-1.092-1.139 0-2.081.364-2.828 1.092-.728.709-1.092 1.615-1.092 2.716 0 1.12.364 2.044 1.092 2.772Zm37.155 3.332-3.08 1.764-1.792-1.932c-1.512 1.12-3.266 1.68-5.264 1.68-2.016 0-3.668-.523-4.956-1.568-1.269-1.064-1.904-2.483-1.904-4.256 0-1.157.28-2.231.84-3.22.56-.989 1.372-1.792 2.436-2.408a6.04 6.04 0 0 1-.952-3.276c0-1.661.579-3.015 1.736-4.06 1.158-1.064 2.623-1.596 4.396-1.596 1.4 0 2.651.364 3.752 1.092 1.12.709 1.951 1.745 2.492 3.108l-3.304 1.904c-.541-1.568-1.502-2.352-2.884-2.352-.672 0-1.232.196-1.68.588-.429.392-.644.887-.644 1.484 0 .523.122.999.364 1.428.262.429.672.943 1.232 1.54l4.2 4.592c.411-.877.728-1.96.952-3.248l3.248 1.848a13.213 13.213 0 0 1-1.708 4.116l2.52 2.772Zm-9.884-2.044c.971 0 1.839-.233 2.604-.7l-4.228-4.592c-.037-.037-.056-.065-.056-.084-1.026.635-1.54 1.54-1.54 2.716 0 .803.271 1.447.812 1.932.56.485 1.363.728 2.408.728Zm-115.836 34.468h8.26V256H156.82v-19.6h11.984v3.696h-8.12v4.172h7.42v3.64h-7.42v4.396Zm14.148-6.328c0 .373.242.681.728.924.504.224 1.11.429 1.82.616.709.168 1.418.392 2.128.672.709.261 1.306.709 1.792 1.344.504.635.756 1.428.756 2.38 0 1.437-.542 2.548-1.624 3.332-1.064.765-2.399 1.148-4.004 1.148-2.875 0-4.835-1.111-5.88-3.332l3.136-1.764c.41 1.213 1.325 1.82 2.744 1.82 1.288 0 1.932-.401 1.932-1.204 0-.373-.252-.672-.756-.896-.486-.243-1.083-.457-1.792-.644-.71-.187-1.419-.42-2.128-.7a4.524 4.524 0 0 1-1.82-1.316c-.486-.616-.728-1.381-.728-2.296 0-1.381.504-2.464 1.512-3.248 1.026-.803 2.296-1.204 3.808-1.204 1.138 0 2.174.261 3.108.784a5.538 5.538 0 0 1 2.212 2.184l-3.08 1.68c-.448-.952-1.195-1.428-2.24-1.428-.467 0-.859.103-1.176.308a.966.966 0 0 0-.448.84Zm17.144-.504h-3.164v5.824c0 .485.122.84.364 1.064.243.224.598.355 1.064.392.467.019 1.046.009 1.736-.028V256c-2.482.28-4.237.047-5.264-.7-1.008-.747-1.512-2.081-1.512-4.004v-5.824h-2.436V242h2.436v-2.828l3.612-1.092V242h3.164v3.472Zm4.339-5.152c-.597 0-1.12-.215-1.568-.644-.429-.448-.644-.971-.644-1.568 0-.597.215-1.12.644-1.568.448-.448.971-.672 1.568-.672a2.09 2.09 0 0 1 1.568.672c.448.448.672.971.672 1.568 0 .597-.224 1.12-.672 1.568a2.135 2.135 0 0 1-1.568.644ZM194.523 256v-14h3.612v14h-3.612Zm22.402-14.392c1.605 0 2.884.523 3.836 1.568.971 1.045 1.456 2.445 1.456 4.2V256h-3.612v-8.372c0-.84-.205-1.493-.616-1.96-.411-.467-.989-.7-1.736-.7-.821 0-1.465.271-1.932.812-.448.541-.672 1.325-.672 2.352V256h-3.612v-8.372c0-.84-.205-1.493-.616-1.96-.411-.467-.989-.7-1.736-.7-.803 0-1.447.271-1.932.812-.467.541-.7 1.325-.7 2.352V256h-3.612v-14h3.612v1.484c.84-1.251 2.137-1.876 3.892-1.876 1.717 0 2.987.672 3.808 2.016.933-1.344 2.324-2.016 4.172-2.016Zm19 .392h3.612v14h-3.612v-1.652c-1.083 1.363-2.604 2.044-4.564 2.044-1.867 0-3.472-.709-4.816-2.128-1.326-1.437-1.988-3.192-1.988-5.264s.662-3.817 1.988-5.236c1.344-1.437 2.949-2.156 4.816-2.156 1.96 0 3.481.681 4.564 2.044V242Zm-6.664 9.856c.728.728 1.652 1.092 2.772 1.092 1.12 0 2.044-.364 2.772-1.092.746-.747 1.12-1.699 1.12-2.856 0-1.157-.374-2.1-1.12-2.828-.728-.747-1.652-1.12-2.772-1.12-1.12 0-2.044.373-2.772 1.12-.728.728-1.092 1.671-1.092 2.828 0 1.157.364 2.109 1.092 2.856Zm21.559-6.384h-3.164v5.824c0 .485.121.84.364 1.064.243.224.597.355 1.064.392.467.019 1.045.009 1.736-.028V256c-2.483.28-4.237.047-5.264-.7-1.008-.747-1.512-2.081-1.512-4.004v-5.824h-2.436V242h2.436v-2.828l3.612-1.092V242h3.164v3.472Zm4.339-5.152c-.597 0-1.12-.215-1.568-.644-.429-.448-.644-.971-.644-1.568 0-.597.215-1.12.644-1.568.448-.448.971-.672 1.568-.672a2.09 2.09 0 0 1 1.568.672c.448.448.672.971.672 1.568 0 .597-.224 1.12-.672 1.568a2.135 2.135 0 0 1-1.568.644ZM253.367 256v-14h3.612v14h-3.612Zm18.846-1.736c-1.438 1.419-3.192 2.128-5.264 2.128s-3.827-.709-5.264-2.128c-1.419-1.437-2.128-3.192-2.128-5.264s.709-3.817 2.128-5.236c1.437-1.437 3.192-2.156 5.264-2.156s3.826.719 5.264 2.156c1.437 1.419 2.156 3.164 2.156 5.236 0 2.072-.719 3.827-2.156 5.264Zm-7.98-2.492c.728.728 1.633 1.092 2.716 1.092 1.082 0 1.988-.364 2.716-1.092.728-.728 1.092-1.652 1.092-2.772 0-1.12-.364-2.044-1.092-2.772-.728-.728-1.634-1.092-2.716-1.092-1.083 0-1.988.364-2.716 1.092-.71.728-1.064 1.652-1.064 2.772 0 1.12.354 2.044 1.064 2.772Zm20.461-10.164c1.53 0 2.79.513 3.78 1.54 1.008 1.027 1.512 2.445 1.512 4.256V256h-3.612v-8.148c0-.933-.252-1.643-.756-2.128-.504-.504-1.176-.756-2.016-.756-.934 0-1.68.289-2.24.868-.56.579-.84 1.447-.84 2.604V256h-3.612v-14h3.612v1.568c.877-1.307 2.268-1.96 4.172-1.96ZM384.908 431l-5.488-19.6h4.06l3.752 14.532 4.088-14.532h3.304l4.116 14.532 3.752-14.532h4.06l-5.488 19.6h-4.396l-3.696-12.936L389.304 431h-4.396Zm33.977-1.736c-1.438 1.419-3.192 2.128-5.264 2.128s-3.827-.709-5.264-2.128c-1.419-1.437-2.128-3.192-2.128-5.264s.709-3.817 2.128-5.236c1.437-1.437 3.192-2.156 5.264-2.156s3.826.719 5.264 2.156c1.437 1.419 2.156 3.164 2.156 5.236 0 2.072-.719 3.827-2.156 5.264Zm-7.98-2.492c.728.728 1.633 1.092 2.716 1.092 1.082 0 1.988-.364 2.716-1.092.728-.728 1.092-1.652 1.092-2.772 0-1.12-.364-2.044-1.092-2.772-.728-.728-1.634-1.092-2.716-1.092-1.083 0-1.988.364-2.716 1.092-.71.728-1.064 1.652-1.064 2.772 0 1.12.354 2.044 1.064 2.772Zm16.289-7.364c.336-.896.886-1.568 1.652-2.016a5.155 5.155 0 0 1 2.604-.672v4.032c-1.102-.131-2.091.093-2.968.672-.859.579-1.288 1.54-1.288 2.884V431h-3.612v-14h3.612v2.408ZM446.47 431h-4.2l-5.096-6.356V431h-3.612v-19.6h3.612v11.76l4.816-6.16h4.312l-5.628 6.916L446.47 431Zm4.205-10.024c0 .373.243.681.728.924a12.17 12.17 0 0 0 1.82.616c.71.168 1.419.392 2.128.672.71.261 1.307.709 1.792 1.344.504.635.756 1.428.756 2.38 0 1.437-.541 2.548-1.624 3.332-1.064.765-2.398 1.148-4.004 1.148-2.874 0-4.834-1.111-5.88-3.332l3.136-1.764c.411 1.213 1.326 1.82 2.744 1.82 1.288 0 1.932-.401 1.932-1.204 0-.373-.252-.672-.756-.896-.485-.243-1.082-.457-1.792-.644a19.017 19.017 0 0 1-2.128-.7 4.53 4.53 0 0 1-1.82-1.316c-.485-.616-.728-1.381-.728-2.296 0-1.381.504-2.464 1.512-3.248 1.027-.803 2.296-1.204 3.808-1.204 1.139 0 2.175.261 3.108.784a5.525 5.525 0 0 1 2.212 2.184l-3.08 1.68c-.448-.952-1.194-1.428-2.24-1.428-.466 0-.858.103-1.176.308a.968.968 0 0 0-.448.84Zm17.331-4.368c1.531 0 2.791.513 3.78 1.54 1.008 1.027 1.512 2.445 1.512 4.256V431h-3.612v-8.148c0-.933-.252-1.643-.756-2.128-.504-.504-1.176-.756-2.016-.756-.933 0-1.68.289-2.24.868-.56.579-.84 1.447-.84 2.604V431h-3.612v-19.6h3.612v7.168c.878-1.307 2.268-1.96 4.172-1.96Zm20.304 12.656c-1.437 1.419-3.192 2.128-5.264 2.128s-3.826-.709-5.264-2.128c-1.418-1.437-2.128-3.192-2.128-5.264s.71-3.817 2.128-5.236c1.438-1.437 3.192-2.156 5.264-2.156s3.827.719 5.264 2.156c1.438 1.419 2.156 3.164 2.156 5.236 0 2.072-.718 3.827-2.156 5.264Zm-7.98-2.492c.728.728 1.634 1.092 2.716 1.092 1.083 0 1.988-.364 2.716-1.092.728-.728 1.092-1.652 1.092-2.772 0-1.12-.364-2.044-1.092-2.772-.728-.728-1.633-1.092-2.716-1.092-1.082 0-1.988.364-2.716 1.092-.709.728-1.064 1.652-1.064 2.772 0 1.12.355 2.044 1.064 2.772Zm20.825-10.164c1.886 0 3.491.719 4.816 2.156 1.344 1.419 2.016 3.164 2.016 5.236 0 2.072-.672 3.827-2.016 5.264-1.325 1.419-2.93 2.128-4.816 2.128-1.96 0-3.472-.681-4.536-2.044v7.252h-3.612V417h3.612v1.652c1.064-1.363 2.576-2.044 4.536-2.044Zm-3.444 10.248c.728.728 1.652 1.092 2.772 1.092 1.12 0 2.044-.364 2.772-1.092.747-.747 1.12-1.699 1.12-2.856 0-1.157-.373-2.1-1.12-2.828-.728-.747-1.652-1.12-2.772-1.12-1.12 0-2.044.373-2.772 1.12-.728.728-1.092 1.671-1.092 2.828 0 1.157.364 2.109 1.092 2.856Zm15.855-5.88c0 .373.243.681.728.924a12.17 12.17 0 0 0 1.82.616 15.56 15.56 0 0 1 2.128.672 3.938 3.938 0 0 1 1.792 1.344c.504.635.756 1.428.756 2.38 0 1.437-.541 2.548-1.624 3.332-1.064.765-2.399 1.148-4.004 1.148-2.875 0-4.835-1.111-5.88-3.332l3.136-1.764c.411 1.213 1.325 1.82 2.744 1.82 1.288 0 1.932-.401 1.932-1.204 0-.373-.252-.672-.756-.896-.485-.243-1.083-.457-1.792-.644a18.95 18.95 0 0 1-2.128-.7 4.53 4.53 0 0 1-1.82-1.316c-.485-.616-.728-1.381-.728-2.296 0-1.381.504-2.464 1.512-3.248 1.027-.803 2.296-1.204 3.808-1.204 1.139 0 2.175.261 3.108.784a5.532 5.532 0 0 1 2.212 2.184l-3.08 1.68c-.448-.952-1.195-1.428-2.24-1.428-.467 0-.859.103-1.176.308a.966.966 0 0 0-.448.84Zm33.288 8.904-3.08 1.764-1.792-1.932c-1.512 1.12-3.267 1.68-5.264 1.68-2.016 0-3.668-.523-4.956-1.568-1.27-1.064-1.904-2.483-1.904-4.256 0-1.157.28-2.231.84-3.22.56-.989 1.372-1.792 2.436-2.408a6.031 6.031 0 0 1-.952-3.276c0-1.661.578-3.015 1.736-4.06 1.157-1.064 2.622-1.596 4.396-1.596 1.4 0 2.65.364 3.752 1.092 1.12.709 1.95 1.745 2.492 3.108l-3.304 1.904c-.542-1.568-1.503-2.352-2.884-2.352-.672 0-1.232.196-1.68.588-.43.392-.644.887-.644 1.484 0 .523.121.999.364 1.428.261.429.672.943 1.232 1.54l4.2 4.592c.41-.877.728-1.96.952-3.248l3.248 1.848c-.355 1.512-.924 2.884-1.708 4.116l2.52 2.772Zm-9.884-2.044c.97 0 1.838-.233 2.604-.7l-4.228-4.592c-.038-.037-.056-.065-.056-.084-1.027.635-1.54 1.54-1.54 2.716 0 .803.27 1.447.812 1.932.56.485 1.362.728 2.408.728ZM388.128 446.4c1.885 0 3.472.635 4.76 1.904 1.288 1.269 1.932 2.828 1.932 4.676 0 1.848-.644 3.407-1.932 4.676-1.288 1.269-2.875 1.904-4.76 1.904h-3.444V466h-3.864v-19.6h7.308Zm0 9.548c.821 0 1.503-.28 2.044-.84.541-.579.812-1.288.812-2.128 0-.859-.271-1.568-.812-2.128s-1.223-.84-2.044-.84h-3.444v5.936h3.444Zm12.351-1.54c.336-.896.887-1.568 1.652-2.016a5.155 5.155 0 0 1 2.604-.672v4.032c-1.101-.131-2.091.093-2.968.672-.859.579-1.288 1.54-1.288 2.884V466h-3.612v-14h3.612v2.408Zm8.901 6.076c.485 1.755 1.801 2.632 3.948 2.632 1.381 0 2.426-.467 3.136-1.4l2.912 1.68c-1.382 1.997-3.416 2.996-6.104 2.996-2.315 0-4.172-.7-5.572-2.1-1.4-1.4-2.1-3.164-2.1-5.292 0-2.109.69-3.864 2.072-5.264 1.381-1.419 3.154-2.128 5.32-2.128 2.053 0 3.742.709 5.068 2.128 1.344 1.419 2.016 3.173 2.016 5.264 0 .467-.047.961-.14 1.484H409.38Zm-.056-2.8h7.14c-.206-.952-.635-1.661-1.288-2.128-.635-.467-1.363-.7-2.184-.7-.971 0-1.774.252-2.408.756-.635.485-1.055 1.176-1.26 2.072Zm21.421-6.076c1.886 0 3.491.719 4.816 2.156 1.344 1.419 2.016 3.164 2.016 5.236 0 2.072-.672 3.827-2.016 5.264-1.325 1.419-2.93 2.128-4.816 2.128-1.96 0-3.472-.681-4.536-2.044v7.252h-3.612V452h3.612v1.652c1.064-1.363 2.576-2.044 4.536-2.044Zm-3.444 10.248c.728.728 1.652 1.092 2.772 1.092 1.12 0 2.044-.364 2.772-1.092.747-.747 1.12-1.699 1.12-2.856 0-1.157-.373-2.1-1.12-2.828-.728-.747-1.652-1.12-2.772-1.12-1.12 0-2.044.373-2.772 1.12-.728.728-1.092 1.671-1.092 2.828 0 1.157.364 2.109 1.092 2.856ZM450.765 452h3.612v14h-3.612v-1.652c-1.083 1.363-2.604 2.044-4.564 2.044-1.867 0-3.472-.709-4.816-2.128-1.326-1.437-1.988-3.192-1.988-5.264s.662-3.817 1.988-5.236c1.344-1.437 2.949-2.156 4.816-2.156 1.96 0 3.481.681 4.564 2.044V452Zm-6.664 9.856c.728.728 1.652 1.092 2.772 1.092 1.12 0 2.044-.364 2.772-1.092.746-.747 1.12-1.699 1.12-2.856 0-1.157-.374-2.1-1.12-2.828-.728-.747-1.652-1.12-2.772-1.12-1.12 0-2.044.373-2.772 1.12-.728.728-1.092 1.671-1.092 2.828 0 1.157.364 2.109 1.092 2.856Zm17.163-7.448c.336-.896.887-1.568 1.652-2.016a5.155 5.155 0 0 1 2.604-.672v4.032c-1.101-.131-2.091.093-2.968.672-.859.579-1.288 1.54-1.288 2.884V466h-3.612v-14h3.612v2.408ZM477.753 452h3.612v14h-3.612v-1.652c-1.083 1.363-2.604 2.044-4.564 2.044-1.867 0-3.472-.709-4.816-2.128-1.325-1.437-1.988-3.192-1.988-5.264s.663-3.817 1.988-5.236c1.344-1.437 2.949-2.156 4.816-2.156 1.96 0 3.481.681 4.564 2.044V452Zm-6.664 9.856c.728.728 1.652 1.092 2.772 1.092 1.12 0 2.044-.364 2.772-1.092.747-.747 1.12-1.699 1.12-2.856 0-1.157-.373-2.1-1.12-2.828-.728-.747-1.652-1.12-2.772-1.12-1.12 0-2.044.373-2.772 1.12-.728.728-1.092 1.671-1.092 2.828 0 1.157.364 2.109 1.092 2.856Zm21.559-6.384h-3.164v5.824c0 .485.122.84.364 1.064.243.224.598.355 1.064.392.467.019 1.046.009 1.736-.028V466c-2.482.28-4.237.047-5.264-.7-1.008-.747-1.512-2.081-1.512-4.004v-5.824h-2.436V452h2.436v-2.828l3.612-1.092V452h3.164v3.472Zm4.339-5.152c-.597 0-1.12-.215-1.568-.644-.429-.448-.644-.971-.644-1.568 0-.597.215-1.12.644-1.568.448-.448.971-.672 1.568-.672a2.09 2.09 0 0 1 1.568.672c.448.448.672.971.672 1.568 0 .597-.224 1.12-.672 1.568a2.135 2.135 0 0 1-1.568.644ZM495.195 466v-14h3.612v14h-3.612Zm18.846-1.736c-1.437 1.419-3.192 2.128-5.264 2.128s-3.827-.709-5.264-2.128c-1.419-1.437-2.128-3.192-2.128-5.264s.709-3.817 2.128-5.236c1.437-1.437 3.192-2.156 5.264-2.156s3.827.719 5.264 2.156c1.437 1.419 2.156 3.164 2.156 5.236 0 2.072-.719 3.827-2.156 5.264Zm-7.98-2.492c.728.728 1.633 1.092 2.716 1.092 1.083 0 1.988-.364 2.716-1.092.728-.728 1.092-1.652 1.092-2.772 0-1.12-.364-2.044-1.092-2.772-.728-.728-1.633-1.092-2.716-1.092-1.083 0-1.988.364-2.716 1.092-.709.728-1.064 1.652-1.064 2.772 0 1.12.355 2.044 1.064 2.772Zm20.461-10.164c1.531 0 2.791.513 3.78 1.54 1.008 1.027 1.512 2.445 1.512 4.256V466h-3.612v-8.148c0-.933-.252-1.643-.756-2.128-.504-.504-1.176-.756-2.016-.756-.933 0-1.68.289-2.24.868-.56.579-.84 1.447-.84 2.604V466h-3.612v-14h3.612v1.568c.877-1.307 2.268-1.96 4.172-1.96Z"/>
    <path fill="#fff" d="M586.604 194.4c2.688 0 4.928.943 6.72 2.828 1.811 1.885 2.716 4.209 2.716 6.972 0 2.763-.905 5.087-2.716 6.972-1.792 1.885-4.032 2.828-6.72 2.828h-7.784v-19.6h7.784Zm0 15.904c1.699 0 3.08-.56 4.144-1.68 1.064-1.139 1.596-2.613 1.596-4.424 0-1.811-.532-3.276-1.596-4.396-1.064-1.139-2.445-1.708-4.144-1.708h-3.92v12.208h3.92Zm15.061-1.82c.485 1.755 1.801 2.632 3.948 2.632 1.381 0 2.427-.467 3.136-1.4l2.912 1.68c-1.381 1.997-3.416 2.996-6.104 2.996-2.315 0-4.172-.7-5.572-2.1-1.4-1.4-2.1-3.164-2.1-5.292 0-2.109.691-3.864 2.072-5.264 1.381-1.419 3.155-2.128 5.32-2.128 2.053 0 3.743.709 5.068 2.128 1.344 1.419 2.016 3.173 2.016 5.264 0 .467-.047.961-.14 1.484h-10.556Zm-.056-2.8h7.14c-.205-.952-.635-1.661-1.288-2.128-.635-.467-1.363-.7-2.184-.7-.971 0-1.773.252-2.408.756-.635.485-1.055 1.176-1.26 2.072Zm16.059-1.708c0 .373.242.681.728.924.504.224 1.11.429 1.82.616.709.168 1.418.392 2.128.672.709.261 1.306.709 1.792 1.344.504.635.756 1.428.756 2.38 0 1.437-.542 2.548-1.624 3.332-1.064.765-2.399 1.148-4.004 1.148-2.875 0-4.835-1.111-5.88-3.332l3.136-1.764c.41 1.213 1.325 1.82 2.744 1.82 1.288 0 1.932-.401 1.932-1.204 0-.373-.252-.672-.756-.896-.486-.243-1.083-.457-1.792-.644-.71-.187-1.419-.42-2.128-.7a4.524 4.524 0 0 1-1.82-1.316c-.486-.616-.728-1.381-.728-2.296 0-1.381.504-2.464 1.512-3.248 1.026-.803 2.296-1.204 3.808-1.204 1.138 0 2.174.261 3.108.784a5.538 5.538 0 0 1 2.212 2.184l-3.08 1.68c-.448-.952-1.195-1.428-2.24-1.428-.467 0-.859.103-1.176.308a.966.966 0 0 0-.448.84Zm11.339-5.656c-.598 0-1.12-.215-1.568-.644-.43-.448-.644-.971-.644-1.568 0-.597.214-1.12.644-1.568.448-.448.97-.672 1.568-.672a2.09 2.09 0 0 1 1.568.672c.448.448.672.971.672 1.568 0 .597-.224 1.12-.672 1.568-.43.429-.952.644-1.568.644ZM627.215 214v-14h3.612v14h-3.612Zm17.641-14h3.528v13.328c0 2.165-.718 3.817-2.156 4.956-1.418 1.139-3.136 1.708-5.152 1.708-1.512 0-2.846-.289-4.004-.868a6.091 6.091 0 0 1-2.632-2.548l3.08-1.764c.71 1.307 1.932 1.96 3.668 1.96 1.139 0 2.035-.299 2.688-.896.654-.597.98-1.447.98-2.548v-1.512c-1.064 1.419-2.557 2.128-4.48 2.128-1.978 0-3.64-.691-4.984-2.072-1.325-1.4-1.988-3.099-1.988-5.096 0-1.979.672-3.668 2.016-5.068 1.344-1.4 2.996-2.1 4.956-2.1 1.923 0 3.416.709 4.48 2.128V200Zm-6.748 9.548c.747.709 1.69 1.064 2.828 1.064 1.139 0 2.072-.355 2.8-1.064.747-.728 1.12-1.652 1.12-2.772 0-1.101-.373-2.007-1.12-2.716-.728-.728-1.661-1.092-2.8-1.092-1.138 0-2.081.364-2.828 1.092-.728.709-1.092 1.615-1.092 2.716 0 1.12.364 2.044 1.092 2.772Zm21.336-9.94c1.53 0 2.79.513 3.78 1.54 1.008 1.027 1.512 2.445 1.512 4.256V214h-3.612v-8.148c0-.933-.252-1.643-.756-2.128-.504-.504-1.176-.756-2.016-.756-.934 0-1.68.289-2.24.868-.56.579-.84 1.447-.84 2.604V214h-3.612v-14h3.612v1.568c.877-1.307 2.268-1.96 4.172-1.96Zm31.98 13.272-3.08 1.764-1.792-1.932c-1.512 1.12-3.267 1.68-5.264 1.68-2.016 0-3.668-.523-4.956-1.568-1.269-1.064-1.904-2.483-1.904-4.256 0-1.157.28-2.231.84-3.22.56-.989 1.372-1.792 2.436-2.408a6.031 6.031 0 0 1-.952-3.276c0-1.661.579-3.015 1.736-4.06 1.157-1.064 2.623-1.596 4.396-1.596 1.4 0 2.651.364 3.752 1.092 1.12.709 1.951 1.745 2.492 3.108l-3.304 1.904c-.541-1.568-1.503-2.352-2.884-2.352-.672 0-1.232.196-1.68.588-.429.392-.644.887-.644 1.484 0 .523.121.999.364 1.428.261.429.672.943 1.232 1.54l4.2 4.592c.411-.877.728-1.96.952-3.248l3.248 1.848c-.355 1.512-.924 2.884-1.708 4.116l2.52 2.772Zm-9.884-2.044c.971 0 1.839-.233 2.604-.7l-4.228-4.592c-.037-.037-.056-.065-.056-.084-1.027.635-1.54 1.54-1.54 2.716 0 .803.271 1.447.812 1.932.56.485 1.363.728 2.408.728ZM586.604 229.4c2.688 0 4.928.943 6.72 2.828 1.811 1.885 2.716 4.209 2.716 6.972 0 2.763-.905 5.087-2.716 6.972-1.792 1.885-4.032 2.828-6.72 2.828h-7.784v-19.6h7.784Zm0 15.904c1.699 0 3.08-.56 4.144-1.68 1.064-1.139 1.596-2.613 1.596-4.424 0-1.811-.532-3.276-1.596-4.396-1.064-1.139-2.445-1.708-4.144-1.708h-3.92v12.208h3.92Zm15.061-1.82c.485 1.755 1.801 2.632 3.948 2.632 1.381 0 2.427-.467 3.136-1.4l2.912 1.68c-1.381 1.997-3.416 2.996-6.104 2.996-2.315 0-4.172-.7-5.572-2.1-1.4-1.4-2.1-3.164-2.1-5.292 0-2.109.691-3.864 2.072-5.264 1.381-1.419 3.155-2.128 5.32-2.128 2.053 0 3.743.709 5.068 2.128 1.344 1.419 2.016 3.173 2.016 5.264 0 .467-.047.961-.14 1.484h-10.556Zm-.056-2.8h7.14c-.205-.952-.635-1.661-1.288-2.128-.635-.467-1.363-.7-2.184-.7-.971 0-1.773.252-2.408.756-.635.485-1.055 1.176-1.26 2.072ZM623.548 235h3.976l-5.32 14h-4.116l-5.32-14h3.976l3.388 9.8 3.416-9.8Zm8.222 8.484c.486 1.755 1.802 2.632 3.948 2.632 1.382 0 2.427-.467 3.136-1.4l2.912 1.68c-1.381 1.997-3.416 2.996-6.104 2.996-2.314 0-4.172-.7-5.572-2.1-1.4-1.4-2.1-3.164-2.1-5.292 0-2.109.691-3.864 2.072-5.264 1.382-1.419 3.155-2.128 5.32-2.128 2.054 0 3.743.709 5.068 2.128 1.344 1.419 2.016 3.173 2.016 5.264 0 .467-.046.961-.14 1.484H631.77Zm-.056-2.8h7.14c-.205-.952-.634-1.661-1.288-2.128-.634-.467-1.362-.7-2.184-.7-.97 0-1.773.252-2.408.756-.634.485-1.054 1.176-1.26 2.072ZM644.988 249v-20.44h3.612V249h-3.612Zm18.846-1.736c-1.437 1.419-3.192 2.128-5.264 2.128s-3.827-.709-5.264-2.128c-1.419-1.437-2.128-3.192-2.128-5.264s.709-3.817 2.128-5.236c1.437-1.437 3.192-2.156 5.264-2.156s3.827.719 5.264 2.156c1.437 1.419 2.156 3.164 2.156 5.236 0 2.072-.719 3.827-2.156 5.264Zm-7.98-2.492c.728.728 1.633 1.092 2.716 1.092 1.083 0 1.988-.364 2.716-1.092.728-.728 1.092-1.652 1.092-2.772 0-1.12-.364-2.044-1.092-2.772-.728-.728-1.633-1.092-2.716-1.092-1.083 0-1.988.364-2.716 1.092-.709.728-1.064 1.652-1.064 2.772 0 1.12.355 2.044 1.064 2.772Zm20.825-10.164c1.885 0 3.491.719 4.816 2.156 1.344 1.419 2.016 3.164 2.016 5.236 0 2.072-.672 3.827-2.016 5.264-1.325 1.419-2.931 2.128-4.816 2.128-1.96 0-3.472-.681-4.536-2.044v7.252h-3.612V235h3.612v1.652c1.064-1.363 2.576-2.044 4.536-2.044Zm-3.444 10.248c.728.728 1.652 1.092 2.772 1.092 1.12 0 2.044-.364 2.772-1.092.747-.747 1.12-1.699 1.12-2.856 0-1.157-.373-2.1-1.12-2.828-.728-.747-1.652-1.12-2.772-1.12-1.12 0-2.044.373-2.772 1.12-.728.728-1.092 1.671-1.092 2.828 0 1.157.364 2.109 1.092 2.856Zm28.307-10.248c1.606 0 2.884.523 3.836 1.568.971 1.045 1.456 2.445 1.456 4.2V249h-3.612v-8.372c0-.84-.205-1.493-.616-1.96-.41-.467-.989-.7-1.736-.7-.821 0-1.465.271-1.932.812-.448.541-.672 1.325-.672 2.352V249h-3.612v-8.372c0-.84-.205-1.493-.616-1.96-.41-.467-.989-.7-1.736-.7-.802 0-1.446.271-1.932.812-.466.541-.7 1.325-.7 2.352V249h-3.612v-14h3.612v1.484c.84-1.251 2.138-1.876 3.892-1.876 1.718 0 2.987.672 3.808 2.016.934-1.344 2.324-2.016 4.172-2.016Zm11.412 8.876c.485 1.755 1.801 2.632 3.948 2.632 1.381 0 2.427-.467 3.136-1.4l2.912 1.68c-1.381 1.997-3.416 2.996-6.104 2.996-2.315 0-4.172-.7-5.572-2.1-1.4-1.4-2.1-3.164-2.1-5.292 0-2.109.691-3.864 2.072-5.264 1.381-1.419 3.155-2.128 5.32-2.128 2.053 0 3.743.709 5.068 2.128 1.344 1.419 2.016 3.173 2.016 5.264 0 .467-.047.961-.14 1.484h-10.556Zm-.056-2.8h7.14c-.205-.952-.635-1.661-1.288-2.128-.635-.467-1.363-.7-2.184-.7-.971 0-1.773.252-2.408.756-.635.485-1.055 1.176-1.26 2.072Zm21.058-6.076c1.53 0 2.79.513 3.78 1.54 1.008 1.027 1.512 2.445 1.512 4.256V249h-3.612v-8.148c0-.933-.252-1.643-.756-2.128-.504-.504-1.176-.756-2.016-.756-.934 0-1.68.289-2.24.868-.56.579-.84 1.447-.84 2.604V249h-3.612v-14h3.612v1.568c.877-1.307 2.268-1.96 4.172-1.96Zm16.384 3.864h-3.164v5.824c0 .485.121.84.364 1.064.242.224.597.355 1.064.392.466.019 1.045.009 1.736-.028V249c-2.483.28-4.238.047-5.264-.7-1.008-.747-1.512-2.081-1.512-4.004v-5.824h-2.436V235h2.436v-2.828l3.612-1.092V235h3.164v3.472Z"/>
    <path fill="#181818" d="M811.128 403.4c1.885 0 3.472.635 4.76 1.904 1.288 1.269 1.932 2.828 1.932 4.676 0 1.848-.644 3.407-1.932 4.676-1.288 1.269-2.875 1.904-4.76 1.904h-3.444V423h-3.864v-19.6h7.308Zm0 9.548c.821 0 1.503-.28 2.044-.84.541-.579.812-1.288.812-2.128 0-.859-.271-1.568-.812-2.128s-1.223-.84-2.044-.84h-3.444v5.936h3.444Zm12.351-1.54c.336-.896.887-1.568 1.652-2.016a5.155 5.155 0 0 1 2.604-.672v4.032c-1.101-.131-2.091.093-2.968.672-.859.579-1.288 1.54-1.288 2.884V423h-3.612v-14h3.612v2.408Zm17.777 9.856c-1.438 1.419-3.192 2.128-5.264 2.128s-3.827-.709-5.264-2.128c-1.419-1.437-2.128-3.192-2.128-5.264s.709-3.817 2.128-5.236c1.437-1.437 3.192-2.156 5.264-2.156s3.826.719 5.264 2.156c1.437 1.419 2.156 3.164 2.156 5.236 0 2.072-.719 3.827-2.156 5.264Zm-7.98-2.492c.728.728 1.633 1.092 2.716 1.092 1.082 0 1.988-.364 2.716-1.092.728-.728 1.092-1.652 1.092-2.772 0-1.12-.364-2.044-1.092-2.772-.728-.728-1.634-1.092-2.716-1.092-1.083 0-1.988.364-2.716 1.092-.71.728-1.064 1.652-1.064 2.772 0 1.12.354 2.044 1.064 2.772Zm23.289-15.372h3.612V423h-3.612v-1.652c-1.064 1.363-2.576 2.044-4.536 2.044-1.886 0-3.5-.709-4.844-2.128-1.326-1.437-1.988-3.192-1.988-5.264s.662-3.817 1.988-5.236c1.344-1.437 2.958-2.156 4.844-2.156 1.96 0 3.472.681 4.536 2.044V403.4Zm-6.664 15.456c.746.728 1.68 1.092 2.8 1.092 1.12 0 2.044-.364 2.772-1.092.728-.747 1.092-1.699 1.092-2.856 0-1.157-.364-2.1-1.092-2.828-.728-.747-1.652-1.12-2.772-1.12-1.12 0-2.054.373-2.8 1.12-.728.728-1.092 1.671-1.092 2.828 0 1.157.364 2.109 1.092 2.856ZM872.72 409h3.612v14h-3.612v-1.568c-.877 1.307-2.268 1.96-4.172 1.96-1.531 0-2.8-.513-3.808-1.54-.989-1.027-1.484-2.445-1.484-4.256V409h3.612v8.148c0 .933.252 1.652.756 2.156.504.485 1.176.728 2.016.728.933 0 1.68-.289 2.24-.868.56-.579.84-1.447.84-2.604V409Zm13.584 14.392c-2.109 0-3.873-.709-5.292-2.128-1.4-1.419-2.1-3.173-2.1-5.264s.7-3.845 2.1-5.264c1.419-1.419 3.183-2.128 5.292-2.128 1.363 0 2.604.327 3.724.98s1.97 1.531 2.548 2.632l-3.108 1.82a3.143 3.143 0 0 0-1.288-1.372c-.56-.336-1.194-.504-1.904-.504-1.082 0-1.978.364-2.688 1.092-.709.709-1.064 1.624-1.064 2.744 0 1.101.355 2.016 1.064 2.744.71.709 1.606 1.064 2.688 1.064.728 0 1.372-.159 1.932-.476a3.143 3.143 0 0 0 1.288-1.372l3.136 1.792a7.119 7.119 0 0 1-2.604 2.66c-1.12.653-2.361.98-3.724.98Zm16.247-10.92h-3.164v5.824c0 .485.121.84.364 1.064.242.224.597.355 1.064.392.466.019 1.045.009 1.736-.028V423c-2.483.28-4.238.047-5.264-.7-1.008-.747-1.512-2.081-1.512-4.004v-5.824h-2.436V409h2.436v-2.828l3.612-1.092V409h3.164v3.472ZM814.572 458l-3.948-6.804h-2.94V458h-3.864v-19.6h7.84c1.811 0 3.351.635 4.62 1.904 1.269 1.269 1.904 2.8 1.904 4.592 0 1.213-.345 2.343-1.036 3.388a6.52 6.52 0 0 1-2.744 2.324l4.34 7.392h-4.172Zm-6.888-15.988v5.796h3.976c.728 0 1.353-.28 1.876-.84.523-.579.784-1.269.784-2.072 0-.803-.261-1.484-.784-2.044s-1.148-.84-1.876-.84h-3.976Zm15.508 10.472c.486 1.755 1.802 2.632 3.948 2.632 1.382 0 2.427-.467 3.136-1.4l2.912 1.68c-1.381 1.997-3.416 2.996-6.104 2.996-2.314 0-4.172-.7-5.572-2.1-1.4-1.4-2.1-3.164-2.1-5.292 0-2.109.691-3.864 2.072-5.264 1.382-1.419 3.155-2.128 5.32-2.128 2.054 0 3.743.709 5.068 2.128 1.344 1.419 2.016 3.173 2.016 5.264 0 .467-.046.961-.14 1.484h-10.556Zm-.056-2.8h7.14c-.205-.952-.634-1.661-1.288-2.128-.634-.467-1.362-.7-2.184-.7-.97 0-1.773.252-2.408.756-.634.485-1.054 1.176-1.26 2.072ZM836.41 458v-20.44h3.612V458h-3.612Zm9.97-5.516c.485 1.755 1.801 2.632 3.948 2.632 1.381 0 2.426-.467 3.136-1.4l2.912 1.68c-1.382 1.997-3.416 2.996-6.104 2.996-2.315 0-4.172-.7-5.572-2.1-1.4-1.4-2.1-3.164-2.1-5.292 0-2.109.69-3.864 2.072-5.264 1.381-1.419 3.154-2.128 5.32-2.128 2.053 0 3.742.709 5.068 2.128 1.344 1.419 2.016 3.173 2.016 5.264 0 .467-.047.961-.14 1.484H846.38Zm-.056-2.8h7.14c-.206-.952-.635-1.661-1.288-2.128-.635-.467-1.363-.7-2.184-.7-.971 0-1.774.252-2.408.756-.635.485-1.055 1.176-1.26 2.072ZM870.128 444h3.612v14h-3.612v-1.652c-1.083 1.363-2.604 2.044-4.564 2.044-1.867 0-3.472-.709-4.816-2.128-1.325-1.437-1.988-3.192-1.988-5.264s.663-3.817 1.988-5.236c1.344-1.437 2.949-2.156 4.816-2.156 1.96 0 3.481.681 4.564 2.044V444Zm-6.664 9.856c.728.728 1.652 1.092 2.772 1.092 1.12 0 2.044-.364 2.772-1.092.747-.747 1.12-1.699 1.12-2.856 0-1.157-.373-2.1-1.12-2.828-.728-.747-1.652-1.12-2.772-1.12-1.12 0-2.044.373-2.772 1.12-.728.728-1.092 1.671-1.092 2.828 0 1.157.364 2.109 1.092 2.856Zm16.774-5.88c0 .373.243.681.728.924a12.17 12.17 0 0 0 1.82.616 15.56 15.56 0 0 1 2.128.672 3.938 3.938 0 0 1 1.792 1.344c.504.635.756 1.428.756 2.38 0 1.437-.541 2.548-1.624 3.332-1.064.765-2.399 1.148-4.004 1.148-2.875 0-4.835-1.111-5.88-3.332l3.136-1.764c.411 1.213 1.325 1.82 2.744 1.82 1.288 0 1.932-.401 1.932-1.204 0-.373-.252-.672-.756-.896-.485-.243-1.083-.457-1.792-.644a18.95 18.95 0 0 1-2.128-.7 4.53 4.53 0 0 1-1.82-1.316c-.485-.616-.728-1.381-.728-2.296 0-1.381.504-2.464 1.512-3.248 1.027-.803 2.296-1.204 3.808-1.204 1.139 0 2.175.261 3.108.784a5.532 5.532 0 0 1 2.212 2.184l-3.08 1.68c-.448-.952-1.195-1.428-2.24-1.428-.467 0-.859.103-1.176.308a.966.966 0 0 0-.448.84Zm12.407 4.508c.486 1.755 1.802 2.632 3.948 2.632 1.382 0 2.427-.467 3.136-1.4l2.912 1.68c-1.381 1.997-3.416 2.996-6.104 2.996-2.314 0-4.172-.7-5.572-2.1-1.4-1.4-2.1-3.164-2.1-5.292 0-2.109.691-3.864 2.072-5.264 1.382-1.419 3.155-2.128 5.32-2.128 2.054 0 3.743.709 5.068 2.128 1.344 1.419 2.016 3.173 2.016 5.264 0 .467-.046.961-.14 1.484h-10.556Zm-.056-2.8h7.14c-.205-.952-.634-1.661-1.288-2.128-.634-.467-1.362-.7-2.184-.7-.97 0-1.773.252-2.408.756-.634.485-1.054 1.176-1.26 2.072Zm140.601-255.906c1.89 0 3.48.635 4.76 1.904 1.29 1.269 1.94 2.828 1.94 4.676 0 1.848-.65 3.407-1.94 4.676-1.28 1.269-2.87 1.904-4.76 1.904h-3.44v6.44h-3.86v-19.6h7.3Zm0 9.548c.82 0 1.51-.28 2.05-.84.54-.579.81-1.288.81-2.128 0-.859-.27-1.568-.81-2.128s-1.23-.84-2.05-.84h-3.44v5.936h3.44Zm12.35-1.54c.34-.896.89-1.568 1.66-2.016.78-.448 1.65-.672 2.6-.672v4.032c-1.1-.131-2.09.093-2.97.672-.86.579-1.29 1.54-1.29 2.884v6.692h-3.61v-14h3.61v2.408Zm17.78 9.856c-1.44 1.419-3.19 2.128-5.26 2.128s-3.83-.709-5.27-2.128c-1.42-1.437-2.12-3.192-2.12-5.264s.7-3.817 2.12-5.236c1.44-1.437 3.2-2.156 5.27-2.156 2.07 0 3.82.719 5.26 2.156 1.44 1.419 2.16 3.164 2.16 5.236 0 2.072-.72 3.827-2.16 5.264Zm-7.98-2.492c.73.728 1.63 1.092 2.72 1.092 1.08 0 1.99-.364 2.71-1.092.73-.728 1.1-1.652 1.1-2.772 0-1.12-.37-2.044-1.1-2.772-.72-.728-1.63-1.092-2.71-1.092-1.09 0-1.99.364-2.72 1.092-.71.728-1.06 1.652-1.06 2.772 0 1.12.35 2.044 1.06 2.772Zm23.29-15.372h3.61v19.6h-3.61v-1.652c-1.06 1.363-2.58 2.044-4.54 2.044-1.88 0-3.5-.709-4.84-2.128-1.33-1.437-1.99-3.192-1.99-5.264s.66-3.817 1.99-5.236c1.34-1.437 2.96-2.156 4.84-2.156 1.96 0 3.48.681 4.54 2.044v-7.252Zm-6.66 15.456c.74.728 1.68 1.092 2.8 1.092 1.12 0 2.04-.364 2.77-1.092.73-.747 1.09-1.699 1.09-2.856 0-1.157-.36-2.1-1.09-2.828-.73-.747-1.65-1.12-2.77-1.12s-2.06.373-2.8 1.12c-.73.728-1.1 1.671-1.1 2.828 0 1.157.37 2.109 1.1 2.856Zm22.82-9.856h3.61v14h-3.61v-1.568c-.88 1.307-2.27 1.96-4.18 1.96-1.53 0-2.8-.513-3.8-1.54-.99-1.027-1.49-2.445-1.49-4.256v-8.596h3.61v8.148c0 .933.26 1.652.76 2.156.5.485 1.18.728 2.02.728.93 0 1.68-.289 2.24-.868.56-.579.84-1.447.84-2.604v-7.56Zm13.58 14.392c-2.11 0-3.87-.709-5.29-2.128-1.4-1.419-2.1-3.173-2.1-5.264s.7-3.845 2.1-5.264c1.42-1.419 3.18-2.128 5.29-2.128 1.36 0 2.6.327 3.72.98s1.97 1.531 2.55 2.632l-3.11 1.82a3.177 3.177 0 0 0-1.28-1.372c-.56-.336-1.2-.504-1.91-.504-1.08 0-1.98.364-2.69 1.092-.71.709-1.06 1.624-1.06 2.744 0 1.101.35 2.016 1.06 2.744.71.709 1.61 1.064 2.69 1.064.73 0 1.37-.159 1.93-.476a3.142 3.142 0 0 0 1.29-1.372l3.14 1.792a7.165 7.165 0 0 1-2.61 2.66c-1.12.653-2.36.98-3.72.98Zm16.25-10.92h-3.17v5.824c0 .485.12.84.37 1.064.24.224.59.355 1.06.392.47.019 1.05.009 1.74-.028v3.276c-2.49.28-4.24.047-5.27-.7-1.01-.747-1.51-2.081-1.51-4.004v-5.824h-2.44v-3.472h2.44v-2.828l3.61-1.092v3.92h3.17v3.472Zm-79.5 35v1.512c0 2.8-.89 5.068-2.69 6.804-1.79 1.736-4.1 2.604-6.94 2.604-3.02 0-5.54-.98-7.53-2.94-1.98-1.979-2.97-4.387-2.97-7.224 0-2.856.98-5.273 2.94-7.252 1.98-1.979 4.42-2.968 7.34-2.968 1.82 0 3.5.42 5.01 1.26 1.51.821 2.69 1.923 3.53 3.304l-3.31 1.904c-.47-.803-1.17-1.456-2.13-1.96-.93-.504-1.98-.756-3.13-.756-1.87 0-3.41.616-4.62 1.848-1.2 1.213-1.79 2.753-1.79 4.62 0 1.848.6 3.379 1.82 4.592 1.23 1.195 2.85 1.792 4.87 1.792 1.49 0 2.72-.327 3.69-.98.99-.672 1.66-1.587 2.02-2.744h-5.94v-3.416h9.83Zm6.19-1.064c.34-.896.89-1.568 1.66-2.016.78-.448 1.65-.672 2.6-.672v4.032c-1.1-.131-2.09.093-2.97.672-.86.579-1.29 1.54-1.29 2.884v6.692h-3.61v-14h3.61v2.408Zm17.78 9.856c-1.44 1.419-3.19 2.128-5.26 2.128-2.08 0-3.83-.709-5.27-2.128-1.42-1.437-2.13-3.192-2.13-5.264s.71-3.817 2.13-5.236c1.44-1.437 3.19-2.156 5.27-2.156 2.07 0 3.82.719 5.26 2.156 1.44 1.419 2.16 3.164 2.16 5.236 0 2.072-.72 3.827-2.16 5.264Zm-7.98-2.492c.73.728 1.63 1.092 2.72 1.092 1.08 0 1.98-.364 2.71-1.092.73-.728 1.09-1.652 1.09-2.772 0-1.12-.36-2.044-1.09-2.772-.73-.728-1.63-1.092-2.71-1.092-1.09 0-1.99.364-2.72 1.092-.71.728-1.06 1.652-1.06 2.772 0 1.12.35 2.044 1.06 2.772Zm27.89-9.772h3.84l-4.45 14h-3.45l-2.57-8.484-2.58 8.484h-3.44l-4.45-14h3.83l2.38 8.596 2.55-8.596h3.42l2.54 8.624 2.38-8.624Zm13.8 3.472h-3.17v5.824c0 .485.12.84.37 1.064.24.224.59.355 1.06.392.47.019 1.05.009 1.74-.028v3.276c-2.49.28-4.24.047-5.27-.7-1.01-.747-1.51-2.081-1.51-4.004v-5.824h-2.44v-3.472h2.44v-2.828l3.61-1.092v3.92h3.17v3.472Zm10.33-3.864c1.53 0 2.79.513 3.78 1.54 1 1.027 1.51 2.445 1.51 4.256v8.596h-3.61v-8.148c0-.933-.26-1.643-.76-2.128-.5-.504-1.18-.756-2.02-.756-.93 0-1.68.289-2.24.868-.56.579-.84 1.447-.84 2.604v7.56h-3.61v-19.6h3.61v7.168c.88-1.307 2.27-1.96 4.18-1.96Z"/>
    <path fill="#777" d="M163.033 140.509a5.832 5.832 0 0 1-1.022-3.626c.008-.301.01-.603.01-.904.002-15.655-.001-31.311-.01-46.966a7.654 7.654 0 0 1 2.597-6.165 7.621 7.621 0 0 1 5.149-1.808c2.7-.017 2.708-.02 2.708 2.642v8.278h49.054v-9.132c0-1.509.284-1.757 1.829-1.792a8.514 8.514 0 0 1 5.518 1.404 7.599 7.599 0 0 1 3.108 6.523c-.019 13.243-.022 26.486-.007 39.728 0 2.814.026 5.627.033 8.442a5.818 5.818 0 0 1-5.293 5.85c-.375.038-.754.054-1.131.054h-17.573c-13.209 0-26.417.003-39.624.009h-.008a6.053 6.053 0 0 1-5.338-2.537Zm63.184.321a3.594 3.594 0 0 0 3.251-4.956 3.514 3.514 0 0 0-3.295-2.162c-.661-.018-1.323-.014-1.983-.012h-.887c-1.509 0-1.791-.288-1.791-1.822V94.26h-49.046v37.76c0 1.356-.34 1.691-1.699 1.696h-1.014c-.72 0-1.439-.008-2.158.016a3.504 3.504 0 0 0-3.317 4.015c.297 1.928 1.764 3.09 3.921 3.09h57.566c.149-.003.3.001.451-.007h.001Zm.64-9.281c.992.232 1.964.542 2.907.926v-.457c0-14.422-.002-28.844-.006-43.267a7.604 7.604 0 0 0-.129-1.347 5.153 5.153 0 0 0-5.841-4.062v48.174c.647 0 1.28-.045 1.898-.045.393-.005.786.021 1.175.078h-.004Zm-62.64-42.728c-.006 14.368-.006 28.737 0 43.105 0 .212.019.424.025.549.93-.384 1.888-.692 2.867-.921a20.292 20.292 0 0 1 3.099-.035V83.317a6.092 6.092 0 0 0-.748-.047 5.24 5.24 0 0 0-5.243 5.551Zm32.751 48.712c-.708 0-1.074-.433-1.097-1.325-.014-.648 0-1.296 0-1.936a17.033 17.033 0 0 1-15.694-15.657c-.712 0-1.435.026-2.155-.008-.587-.029-1.097-.352-1.074-.946.097-.437.32-.837.64-1.149.081-.101.307-.097.508-.092h.14c.65-.011 1.301 0 1.983 0a16.629 16.629 0 0 1 2.705-8.019 16.47 16.47 0 0 1 12.314-7.51c.511-.057.706-.226.668-.742-.032-.527-.03-1.055.006-1.582a1.064 1.064 0 0 1 .313-.784 1.06 1.06 0 0 1 .787-.307 1.039 1.039 0 0 1 1.053 1.063c.03.552.032 1.105.006 1.657-.033.5.183.64.646.685a16.619 16.619 0 0 1 14.452 12.28c.282 1.036.432 2.107.663 3.256.616 0 1.288-.008 1.961 0 .776.012 1.271.436 1.279 1.078a1.14 1.14 0 0 1-1.244 1.133c-.673.023-1.348.005-1.981.005-1.415 9.125-6.63 14.32-15.784 15.713 0 .576.007 1.223 0 1.87-.012.882-.376 1.316-1.086 1.316l-.009.001Zm1.091-7.521c.014.64 0 1.28 0 1.92 7.014-.239 13.188-6.532 13.36-13.298-.649 0-1.299.022-1.948-.005a1.119 1.119 0 0 1-1.202-1.165 1.103 1.103 0 0 1 .781-1.006c.145-.043.298-.056.448-.038.649-.013 1.299 0 1.942 0 .33-6.216-7.525-14.018-13.298-13.282-.014.021-.038.042-.039.063-.011.603-.012 1.205-.03 1.807-.023.774-.457 1.275-1.089 1.276-.632 0-1.071-.5-1.088-1.274-.015-.64 0-1.28 0-1.928a14.398 14.398 0 0 0-13.375 13.334c.702 0 1.402-.019 2.102.006a1.042 1.042 0 0 1 .807.34 1.052 1.052 0 0 1 .267.834c-.052.62-.496.991-1.272 1.018-.64.022-1.285 0-1.933 0 .574 8.16 7.699 13.234 13.382 13.283 0-.645-.02-1.293.006-1.938.031-.773.418-1.179 1.077-1.188h.02c.677.009 1.064.439 1.082 1.241Zm-1.108-3.101a9.342 9.342 0 0 1-9.308-9.363 9.347 9.347 0 0 1 9.345-9.326 9.346 9.346 0 0 1 6.627 15.933 9.342 9.342 0 0 1-6.59 2.756h-.074Zm-7.146-9.394a7.184 7.184 0 0 0 12.245 5.12 7.178 7.178 0 0 0 1.581-7.824 7.187 7.187 0 0 0-6.624-4.453h-.011a7.165 7.165 0 0 0-5.083 2.084 7.168 7.168 0 0 0-2.108 5.073ZM401.727 369.92a1.284 1.284 0 0 1-.659-.882c-.08-1.246-.07-2.496.032-3.741a3.613 3.613 0 0 1 2.918-3.257c.664-.17 1.337-.311 2.075-.482a5.781 5.781 0 0 1-.844-6.164 5.775 5.775 0 0 1 5.239-3.358 5.782 5.782 0 0 1 5.742 6.543 5.785 5.785 0 0 1-1.312 2.963c.581.14 1.122.276 1.666.399a3.888 3.888 0 0 1 3.393 4.202c0 .892.012 1.787 0 2.678-.014.734-.358 1.138-.938 1.152-.609.015-.977-.405-.988-1.167-.014-.982.005-1.964-.008-2.946a1.876 1.876 0 0 0-1.593-2.008 72.452 72.452 0 0 0-3.196-.698 1.767 1.767 0 0 0-.838.083 5.972 5.972 0 0 1-3.81 0 1.477 1.477 0 0 0-.705-.102c-1.2.244-2.398.494-3.582.802a1.747 1.747 0 0 0-1.346 1.778c-.022 1.048.006 2.097-.016 3.146-.014.657-.408 1.134-.887 1.134a.786.786 0 0 1-.343-.075Zm8.762-15.976a3.866 3.866 0 0 0-2.726 1.137 3.856 3.856 0 0 0 .008 5.456 3.863 3.863 0 0 0 5.466-5.456 3.862 3.862 0 0 0-2.726-1.137h-.022Zm12.62 14.926a206.197 206.197 0 0 1 0-3.146 3.737 3.737 0 0 1 2.802-3.64c.706-.189 1.424-.333 2.204-.513-1.927-3.355-1.638-6.236.766-8.202a5.736 5.736 0 0 1 7.44.07 5.865 5.865 0 0 1 .665 8.116c.584.137 1.128.276 1.676.394a3.818 3.818 0 0 1 3.337 4.159c0 .938.008 1.875 0 2.811-.006.67-.363 1.061-.936 1.059-.572-.003-.925-.392-.929-1.065-.01-.982 0-1.965 0-2.946a1.99 1.99 0 0 0-1.721-2.138c-.998-.229-1.996-.465-3.002-.652a2.077 2.077 0 0 0-.968.077 6.02 6.02 0 0 1-3.749 0 1.273 1.273 0 0 0-.574-.14c-1.348.29-2.708.545-4.024.947a1.736 1.736 0 0 0-1.107 1.821c-.015 1.004 0 2.009-.008 3.013-.006.688-.344 1.071-.918 1.084h-.022c-.578 0-.929-.404-.932-1.109Zm9.406-14.931a3.821 3.821 0 0 0-2.674 6.53 3.827 3.827 0 0 0 6.525-2.695 3.825 3.825 0 0 0-3.799-3.835h-.052Zm-35.578 16.04a.92.92 0 0 1-.908-1.018c-.014-.982 0-1.964-.007-2.946a1.999 1.999 0 0 0-1.737-2.188c-.998-.229-1.994-.466-3.002-.652a2.133 2.133 0 0 0-.968.087 5.992 5.992 0 0 1-3.749-.018c-.167-.057-.356-.17-.508-.136-1.389.306-2.795.568-4.147.994a1.708 1.708 0 0 0-1.033 1.798c-.008.982 0 1.965 0 2.946 0 .73-.344 1.131-.931 1.132-.588.001-.935-.396-.944-1.126v-3.143a3.714 3.714 0 0 1 .783-2.298 3.728 3.728 0 0 1 2.034-1.326c.705-.188 1.419-.333 2.202-.516a5.861 5.861 0 0 1 .605-8.081 5.746 5.746 0 0 1 7.491-.115c2.4 1.95 2.689 4.816.776 8.193.574.135 1.123.271 1.677.392a3.82 3.82 0 0 1 3.327 4.109c0 .958.01 1.918 0 2.878a.925.925 0 0 1-.233.733.925.925 0 0 1-.704.308l-.024-.007Zm-12.326-12.226a3.841 3.841 0 1 0 7.392-1.44 3.843 3.843 0 0 0-3.55-2.376h-.011a3.85 3.85 0 0 0-3.831 3.816Zm-.459-7.892c-1.186 0-1.473-.279-1.473-1.449v-14.059c-.409 0-.738.011-1.066 0a2.674 2.674 0 0 1-2.605-2.687c-.005-3.62-.005-7.236-.005-10.852a3.784 3.784 0 0 1 3.188-3.879c.604-.127 1.207-.273 1.826-.414-1.95-3.299-1.655-6.227.774-8.213a5.789 5.789 0 0 1 7.494.14 5.86 5.86 0 0 1 .573 8.058l1.873.433a3.792 3.792 0 0 1 3.164 3.967c0 3.44-.061 6.88.026 10.311a2.884 2.884 0 0 1-3.134 3.145 5.238 5.238 0 0 0-.574.025v13.967c0 1.232-.269 1.502-1.484 1.502h-8.573l-.004.005Zm-1.032-17.384c1.23 0 1.491.257 1.491 1.484v13.975h2.213c.195 0 .39-.024.663-.043v-13.809c0-.201-.01-.403.008-.603a.97.97 0 0 1 .267-.7.95.95 0 0 1 1.064-.219.96.96 0 0 1 .586.914c.02.199.008.401.008.603v13.801h2.877V333.7c0-.884.345-1.215 1.21-1.222h1.475c.697-.015 1.032-.326 1.032-1.023.009-3.549.009-7.099 0-10.649a1.922 1.922 0 0 0-1.63-1.995 75.938 75.938 0 0 0-3.134-.675 1.934 1.934 0 0 0-.894.058 4.6 4.6 0 0 1-2.954.189 5.454 5.454 0 0 0-3.441.115c-.429.115-.869.197-1.303.292a1.999 1.999 0 0 0-1.355.729 1.986 1.986 0 0 0-.424 1.479c-.005 1.808 0 3.617 0 5.425v4.955c0 .783.321 1.086 1.098 1.099h1.143Zm1.491-19.722a3.836 3.836 0 0 0 2.384 3.526 3.838 3.838 0 1 0 1.478-7.391h-.015a3.856 3.856 0 0 0-3.847 3.865Zm34.064 35.114a2.983 2.983 0 0 1 1.369-3.729.856.856 0 0 0 .534-.928c-.031-.774-.008-1.553-.008-2.408h-16.061c-1.185 0-1.399-.216-1.399-1.409v-26.407c-.356-.014-.679-.026-1.003-.044-.702-.042-1.053-.344-1.068-1.023a88.414 88.414 0 0 1 .001-3.888c.017-.727.395-1.017 1.198-1.019h38.394c1.125 0 1.367.242 1.367 1.371v3.348c0 .899-.29 1.188-1.201 1.212-.241.006-.483 0-.825 0v26.347c0 1.278-.229 1.506-1.525 1.506h-15.977c0 .994-.023 1.884.02 2.771.008.172.25.383.434.489a3.1 3.1 0 0 1 1.632 3.19 3.043 3.043 0 0 1-2.444 2.522 3.005 3.005 0 0 1-.606.064 3.039 3.039 0 0 1-2.832-1.965Zm1.72-1.092a1.097 1.097 0 0 0 1.13 1.146 1.146 1.146 0 0 0 1.169-1.13 1.206 1.206 0 0 0-1.155-1.17h-.01a1.163 1.163 0 0 0-1.135 1.154h.001Zm-15.349-7.912h32.963V312.98h-32.965l.002 25.885Zm-2.051-27.864h37.08v-2.064h-37.082l.002 2.064Zm16.864 24.997a.89.89 0 0 1-.932-.999 5.962 5.962 0 0 1 0-.802c.053-.429-.141-.614-.517-.791a.627.627 0 0 0-.857.216 6.28 6.28 0 0 1-.574.568.968.968 0 0 1-1.482-.029 95.25 95.25 0 0 1-2.18-2.178.957.957 0 0 1-.297-1.182.974.974 0 0 1 .275-.339 5.37 5.37 0 0 1 .528-.528.672.672 0 0 0 .23-.906.692.692 0 0 0-.821-.466 5.38 5.38 0 0 1-.803 0 .929.929 0 0 1-.379-.067.946.946 0 0 1-.591-.917 89.66 89.66 0 0 1 0-3.28.89.89 0 0 1 .244-.679.885.885 0 0 1 .667-.277c.289-.032.58-.036.869-.011.452.054.656-.127.842-.542.186-.415 0-.602-.243-.846-1.219-1.22-1.216-1.342 0-2.559.536-.536 1.067-1.079 1.613-1.605a.985.985 0 0 1 1.267-.303.994.994 0 0 1 .352.311c.168.148.325.307.471.476a.671.671 0 0 0 .179.189.65.65 0 0 0 .739.009.677.677 0 0 0 .475-.745c0-1.806.056-1.845 1.835-1.845.76 0 1.519-.008 2.279 0a.992.992 0 0 1 1.116 1.111c.021.245.021.491 0 .736-.062.441.161.606.533.774.373.169.559.031.803-.205 1.294-1.275 1.369-1.27 2.658.018.52.522 1.057 1.032 1.556 1.57.203.274.381.565.531.871-.328.4-.617.774-.929 1.128-.243.276-.539.452-.317.954a.784.784 0 0 0 .941.501c.221-.014.446 0 .67 0a.91.91 0 0 1 .714.243.899.899 0 0 1 .282.699 69.16 69.16 0 0 1 0 3.347.95.95 0 0 1-.073.38.94.94 0 0 1-.551.516.925.925 0 0 1-.383.049 4.319 4.319 0 0 1-.804 0c-.421-.054-.619.115-.792.505a.644.644 0 0 0 .229.858c.217.192.422.399.613.618a.907.907 0 0 1 .29.66.9.9 0 0 1-.29.661 69.58 69.58 0 0 1-2.318 2.324.946.946 0 0 1-.717.32.963.963 0 0 1-.713-.328 6.74 6.74 0 0 1-.522-.52c-.25-.276-.459-.458-.907-.269a.722.722 0 0 0-.495.864c.017.246.017.492 0 .738a.92.92 0 0 1-.253.711.926.926 0 0 1-.698.289c-.566.013-1.132.02-1.698.02a70.39 70.39 0 0 1-1.668-.025l.003.009Zm-.659-4.31c.02.011.041.018.063.022a1.687 1.687 0 0 1 1.63 1.435c.04.26.018.526-.063.777 0 .034.036.075.066.133h1.356c0-.302.014-.567 0-.827a1.138 1.138 0 0 1 .999-1.338 6.075 6.075 0 0 0 1.295-.535c.764-.381 1.032-.35 1.651.261.199.196.402.385.644.615l.724-.771c.076-.081.146-.167.295-.335-.214-.174-.438-.327-.626-.515-.648-.64-.661-.877-.255-1.703.221-.46.407-.937.558-1.425a1.038 1.038 0 0 1 1.071-.824h1.087v-1.436h-.773c-.962 0-1.123-.14-1.432-1.046-.174-.48-.38-.949-.616-1.402a1.001 1.001 0 0 1 .184-1.326c.268-.229.574-.422.993-.72l-.978-.812-.368-.302c-.202.244-.394.487-.6.719a1.07 1.07 0 0 1-1.491.229 6.968 6.968 0 0 0-1.473-.61 1.085 1.085 0 0 1-.888-1.222c.015-.304 0-.61 0-.98h-.746c-.219 0-.431.021-.699.034v.843c0 .857-.184 1.076-.986 1.355-.505.171-.995.38-1.469.625a.985.985 0 0 1-1.325-.196 8.929 8.929 0 0 1-.624-.918l-1.197 1.239c.242.207.459.367.642.554.637.635.649.84.251 1.644a9.04 9.04 0 0 0-.546 1.356 1.134 1.134 0 0 1-1.262.938c-.301-.019-.604 0-.925 0v1.432h.748c1.025.012 1.175.123 1.471 1.087.03.153.081.301.152.44.763 1.138.897 2.178-.493 2.95l1.107 1.079a1.667 1.667 0 0 1 1.445-1.054c.51.035.998.219 1.403.53Zm-2.079-5.776a4.457 4.457 0 0 1 4.411-4.386 4.402 4.402 0 0 1 4.414 4.383 4.396 4.396 0 0 1-4.385 4.412h-.009a4.41 4.41 0 0 1-4.431-4.408v-.001Zm4.371-2.452a2.43 2.43 0 0 0-1.744.724 2.415 2.415 0 0 0-.695 1.755 2.497 2.497 0 0 0 .73 1.778 2.493 2.493 0 0 0 1.78.726 2.555 2.555 0 0 0 2.466-2.508 2.49 2.49 0 0 0-.745-1.763 2.493 2.493 0 0 0-.818-.533 2.492 2.492 0 0 0-.961-.175l-.013-.004Z"/>
    <path fill="#fff" d="M611.505 144.202a2.065 2.065 0 0 1-2.12-1.334 2.063 2.063 0 0 1-.127-.88c-.018-.854-.011-1.709-.017-2.564a.47.47 0 0 0-.04-.127c-2.318-.544-2.98-2.694-1.391-5.035-.92-.866-1.857-1.77-2.828-2.636a1.158 1.158 0 0 0-.7-.127c-3.824-.006-7.647-.008-11.471-.005a2.463 2.463 0 0 1-2.681-1.639 2.45 2.45 0 0 1-.107-1.121V88.719c0-1.9.9-2.792 2.822-2.792h18.557a2.46 2.46 0 0 1 2.78 2.088c.449 1.546.449 1.546 2.064 1.546h5.466a8.281 8.281 0 0 0-.715-1.186 2.208 2.208 0 0 1-.779-1.735 2.19 2.19 0 0 1 .864-1.693c.333-.336.659-.68 1-1a1.946 1.946 0 0 1 2.846-.014c1.207 1.312 2.691.81 3.856-.086.387-.395.619-.915.656-1.466.19-1.656.91-2.372 2.564-2.375.428 0 .856-.013 1.283 0a2.123 2.123 0 0 1 1.527.612 2.12 2.12 0 0 1 .628 1.522 2.087 2.087 0 0 0 1.314 2.133c1.115.488 2.15.72 3.146-.3a2.022 2.022 0 0 1 3.007.01c.391.37.779.749 1.142 1.147a2.117 2.117 0 0 1 .656 1.547 2.109 2.109 0 0 1-.684 1.535c-.969.959-.754 1.949-.292 3.028a2.157 2.157 0 0 0 2.092 1.4 2.103 2.103 0 0 1 2.109 1.44c.096.291.127.6.091.904.004.607-.029 1.214-.1 1.818a2.002 2.002 0 0 1-2.025 1.794 2.125 2.125 0 0 0-2.165 1.285c-.491 1.125-.774 2.182.291 3.2a2.013 2.013 0 0 1 .014 2.956c-.4.427-.814.84-1.241 1.241a1.943 1.943 0 0 1-2.846.043c-1.205-1.292-2.554-.916-3.675-.1a2.291 2.291 0 0 0-.913 1.655 11.767 11.767 0 0 1-.479 1.568 3.09 3.09 0 0 0-.152.837c-.009 5.8.008 11.606-.027 17.409a3.968 3.968 0 0 1-.488 1.835 2.16 2.16 0 0 1-2.031.967h-1.95c-1.4 0-2.794 0-4.19-.012a1.47 1.47 0 0 0-1.231.5c-.761.823-1.589 1.585-2.406 2.388 1.593 2.04.814 4.548-1.49 4.9 0 .881.006 1.776 0 2.671a2.071 2.071 0 0 1-2.262 2.263 1065.653 1065.653 0 0 1-7.152 0Zm-.451-2.244a.671.671 0 0 0 .463.464c2.378.031 4.754.028 7.132.008.169 0 .477-.2.482-.311.042-.86.022-1.723.022-2.585h-8.121c0 .86-.029 1.646.022 2.426v-.002Zm-2.273-5.407c.011.535-.013.954.759.934 1.864-.049 3.731-.015 5.6-.015 1.843 0 3.688-.029 5.531.013.762.019.747-.41.765-.946.02-.569-.092-.851-.769-.846-3.711.031-7.421.031-11.131 0h-.02c-.68.001-.745.32-.735.862v-.002Zm5.124-22.033c-2.584 4.266-5.166 8.533-7.746 12.8a2.566 2.566 0 0 0 .413 3.379 96.477 96.477 0 0 0 2.871 2.851c.229.199.519.314.823.324 3.214.021 6.429.021 9.645 0 .345-.019.673-.155.931-.385.888-.827 1.73-1.7 2.587-2.566a2.688 2.688 0 0 0 1.056-1.828 2.688 2.688 0 0 0-.581-2.029c-1.684-2.788-3.37-5.573-5.058-8.357l-2.782-4.58c-.035.3-.055.386-.055.474 0 2.7.005 5.4-.012 8.095 0 .391.167.527.5.67a3.699 3.699 0 0 1 2.156 4.594 3.735 3.735 0 0 1-7.259-.569 3.658 3.658 0 0 1 2.165-3.947.94.94 0 0 0 .667-1.042c-.026-2.474-.011-4.947-.013-7.42 0-.226-.023-.451-.043-.814-.162.209-.22.277-.265.352v-.002Zm-22.292-19.083v33.326c0 .929.222 1.152 1.148 1.153h10.659c.2 0 .4-.017.6-.025l-.149-1.607h-8.994c-1.28 0-1.644-.363-1.644-1.64V97.836c0-1.018.4-1.42 1.423-1.451.2-.006.4 0 .608 0h21.575v-1.591h-25.197c-.012.247-.029.445-.029.64Zm34.568 34.479h5.73c1.09 0 1.292-.2 1.292-1.294v-16.659c0-.239-.02-.476-.032-.741h-1.614v15.382c0 1.3-.38 1.68-1.687 1.681h-3.531l-.158 1.631Zm-13.016-3.2a1.941 1.941 0 0 0 .497 1.417 1.932 1.932 0 0 0 1.361.635 1.997 1.997 0 0 0 1.898-1.167 2.02 2.02 0 0 0 .18-.761 1.863 1.863 0 0 0-1.624-1.9h-.195c-1.337 0-2.073.615-2.117 1.779v-.003Zm3.858-14.533c2.681 4.416 5.4 8.809 8 13.271a2.29 2.29 0 0 0 2.562 1.42 19.002 19.002 0 0 1 2.559-.022c.025-.081.045-.164.059-.248.003-5.194.003-10.39 0-15.586a1.942 1.942 0 0 0-.178-.546c-.2-.579-.382-1.163-.6-1.736-.185-.487-.275-1.142-.638-1.408-1.168-.856-2.637-1.426-3.857-.091a1.997 1.997 0 0 1-1.458.616 1.986 1.986 0 0 1-1.447-.642c-.361-.337-.7-.7-1.052-1.047a2.106 2.106 0 0 1-.076-3.263c.926-.969.615-1.956.169-2.99a2.12 2.12 0 0 0-1.99-1.341 6.552 6.552 0 0 1-1.5-.482 3.328 3.328 0 0 0-.965-.317c-7.108-.018-14.214-.023-21.32-.014-.219 0-.437.02-.688.033v29a1.6 1.6 0 0 0 .248.049c3.037 0 6.072.014 9.11-.012a.96.96 0 0 0 .625-.447c2.913-4.774 5.8-9.565 8.726-14.33a2.66 2.66 0 0 1 1.192-1c.221-.094.459-.144.7-.146a2.205 2.205 0 0 1 1.819 1.279Zm13.082-6.268a4.301 4.301 0 0 1 1.161 2.055c.365 1.3.282 1.306 1.669 1.3.477 0 .633-.174.629-.628a3.054 3.054 0 0 1 1.006-2.487 9.001 9.001 0 0 1 2.542-1.442 3.578 3.578 0 0 1 3.709.751c.181.155.359.311.524.455l1.414-1.353a15.104 15.104 0 0 1-1.116-1.8c-.907-2.031.777-6.143 3.842-6.1.2 0 .563-.2.58-.333.041-.587.05-1.175.027-1.762a4.25 4.25 0 0 1-4.284-2.87 4.208 4.208 0 0 1 1.135-5.122c-.401-.282-.781-.59-1.139-.925-.345-.366-.564-.36-.926-.011a3.355 3.355 0 0 1-3.085 1.008c-2.544-.542-4.235-1.654-4.324-4.508 0-.036-.043-.072-.072-.12h-1.974c-.076.52-.125.988-.214 1.448-.486 2.469-4.928 4.533-7.286 2.145a.68.68 0 0 0-.635-.117c-.431.335-.843.695-1.233 1.078.052.104.113.205.182.3 2.051 1.894 1.382 4.566-.139 6.349-.565.57-1.277.97-2.056 1.157-1.294.36-1.3.276-1.282 1.682.006.42.129.583.572.618a4.639 4.639 0 0 1 4.179 5.08 4.31 4.31 0 0 1-1.363 2.666l1.442 1.455a.71.71 0 0 0 .17-.1 3.776 3.776 0 0 1 2.847-1.293 5.61 5.61 0 0 1 3.498 1.424Zm-37.729-18.391a.677.677 0 0 0-.706.405.672.672 0 0 0-.056.283c-.023 1.635-.009 3.27-.009 4.954.2.015.283.03.372.03h25.081c.197-.014.391-.053.578-.116a13.11 13.11 0 0 1 1.594-.43 1.874 1.874 0 0 0 1.812-1.5h-17.049c-1.063 0-1.436-.272-1.722-1.233a11.892 11.892 0 0 0-.538-1.73 1.189 1.189 0 0 0-.8-.632 293.305 293.305 0 0 0-4.69-.031c-1.286-.007-2.577-.002-3.867 0Zm16.267 0 .566 2.014h3.72a9.413 9.413 0 0 0-.426-1.434 1.017 1.017 0 0 0-.666-.548c-.494-.028-.99-.035-1.492-.035-.556-.005-1.122.004-1.702.004v-.001Zm-5.389 0 .562 2h3.754a9.377 9.377 0 0 0-.447-1.447 1.006 1.006 0 0 0-.672-.528 26.979 26.979 0 0 0-1.455-.033c-.567 0-1.145.009-1.742.009v-.001Zm-5.019 37a1.474 1.474 0 0 1-1.519-.965 1.46 1.46 0 0 1-.081-.635c-.009-6.837-.009-13.672 0-20.506a1.522 1.522 0 0 1 .43-1.176 1.523 1.523 0 0 1 1.17-.446c1.349-.025 2.7-.023 4.046 0a1.495 1.495 0 0 1 1.541 1.006c.072.209.097.431.073.651.005 3.417.005 6.835 0 10.254v10.049c0 1.256-.5 1.762-1.751 1.768-.685 0-1.369.001-2.052.005-.618.002-1.237 0-1.857-.005Zm.211-1.777h3.64v-3.6h-3.641l.001 3.6Zm-.01-5.523h3.66v-3.61h-3.661l.001 3.61Zm.02-5.5h3.637v-3.636h-3.638l.001 3.636Zm-.016-5.48h3.639v-3.59h-3.64l.001 3.59Zm18.7.178c-1.684-.011-3.369 0-5.052 0h-4.985c-.553 0-1-.13-1.031-.782-.024-.522.324-.806 1.009-.808 3.368-.006 6.737-.006 10.105 0 .653 0 1.052.323 1.007.818-.057.626-.487.772-1.038.772h-.015Zm15.283-2.918a7.901 7.901 0 1 1 .008 0h-.008Zm-.017-13.932a6.036 6.036 0 0 0-5.98 6.025 6.011 6.011 0 0 0 12.021.03 6.087 6.087 0 0 0-6.011-6.055h-.03Zm-21.842 13.323c-1.145 0-2.291.005-3.436 0-.733 0-1.1-.284-1.06-.827.046-.653.5-.763 1.049-.76 1.386.003 2.774.003 4.163 0h2.776c.686 0 1.037.273 1.04.777.003.504-.357.8-1.027.807a88.94 88.94 0 0 1-1.461 0l-2.044.003Zm17.7-7.276a4.145 4.145 0 0 1 4.942-4.076 4.148 4.148 0 0 1-.761 8.219h-.04a4.184 4.184 0 0 1-4.137-4.143h-.004Zm4.128-2.283a2.242 2.242 0 0 0-2.205 2.252 2.178 2.178 0 0 0 .627 1.584 2.192 2.192 0 0 0 1.573.657 2.241 2.241 0 0 0 2.291-2.231 2.288 2.288 0 0 0-2.255-2.263h-.031Z"/>
    <path fill="#888" d="M804.73 362.982a3.896 3.896 0 0 1-3.166-1.123 3.893 3.893 0 0 1-1.108-3.17v-3.339c0-.741.384-1.207.956-1.204.571.002.934.454.94 1.214.01 1.216 0 2.431.007 3.655a1.881 1.881 0 0 0 .542 1.527 1.877 1.877 0 0 0 1.529.536h40.49a1.831 1.831 0 0 0 2.046-1.9c.018-6.822.007-13.64.007-20.464a1.945 1.945 0 0 0-.042-.272h-44.575v12.413c0 .996-.292 1.462-.918 1.487-.626.025-.982-.485-.982-1.494v-11.58c-.241.146-.414.241-.575.35l-5.116 3.465c-.381.258-.767.505-1.254.243s-.503-.693-.501-1.169c0-5.296.012-10.592-.007-15.888a1.418 1.418 0 0 1 .708-1.315c2.294-1.534 4.564-3.099 6.871-4.619a2.34 2.34 0 0 1 1.189-.369c2.471-.032 4.945-.025 7.416-.007.419 0 .611-.098.701-.541.284-1.41.629-2.808.945-4.21a5.824 5.824 0 0 1 6.744-4.813c2.068.206 4.148.292 6.222.453a1.19 1.19 0 0 0 1.024-.4 35.218 35.218 0 0 1 6.864-5.912c1.141-.689 2.339-1.303 3.517-1.922a.95.95 0 0 1 .768-.147.933.933 0 0 1 .635 1.292.944.944 0 0 1-.605.536 29.806 29.806 0 0 0-8.917 6.521c-3.069 3.14-6.194 6.217-9.302 9.318-.173.174-.377.321-.536.454l12.582 12.582c.101-.095.25-.227.39-.367l10.403-10.4a26.37 26.37 0 0 0 7.601-14.797c.293-1.837.301-3.721.439-5.649a32.028 32.028 0 0 0-3.782.027c-1.768.218-3.508.614-5.262.958-.652.127-1.108-.063-1.283-.611-.176-.548.118-.985.774-1.18a28.11 28.11 0 0 1 10.314-1.052.948.948 0 0 1 .684.313.957.957 0 0 1 .25.71 28.44 28.44 0 0 1-4.851 18.324c-.088.131-.162.272-.3.51.842 0 1.598-.042 2.339.016.423.023.833.148 1.197.364 2.304 1.519 4.58 3.077 6.86 4.628.242.183.475.378.697.585v17.311c-.631.714-.944.757-1.732.228a3528.52 3528.52 0 0 1-5.116-3.463c-.165-.111-.335-.214-.595-.377v19.486a3.882 3.882 0 0 1-4.256 4.248h-39.87Zm-9.373-36.884a.983.983 0 0 0-.507.94c.019 4.322.012 8.649.012 12.974v.69c.242-.146.397-.225.542-.323 1.519-1.023 3.026-2.062 4.556-3.069a.99.99 0 0 0 .503-.948c-.019-4.325-.01-8.649-.01-12.974v-.726c-1.786 1.209-3.432 2.338-5.096 3.436Zm53.508-3.08c0 4.513-.007 9.022.014 13.534a.99.99 0 0 0 .398.664c1.378.969 2.777 1.908 4.181 2.853.292.201.599.395.885.585.063-.07.088-.085.088-.098.008-4.613.011-9.227.009-13.842a.63.63 0 0 0-.249-.439c-1.727-1.188-3.467-2.361-5.284-3.59-.02.11-.034.222-.042.333Zm-41.067 13.512a.698.698 0 0 0 .767-.524c.712-1.754 1.423-3.508 2.18-5.238a6.818 6.818 0 0 1 8.856-3.58 6.824 6.824 0 0 1 3.75 8.786c-.062.16-.111.325-.187.545h3.047a.554.554 0 0 0 .347-.088c.619-.617 1.227-1.248 1.783-1.821l-12.501-12.505c-.111.101-.263.234-.406.377l-3.847 3.847c-.611.613-1.231 1.216-1.835 1.836a.959.959 0 0 1-.561.359.96.96 0 0 1-.661-.09.925.925 0 0 1-.438-1.169c.026-.12.057-.239.085-.361l1.135-5.037h-6.918v14.617c.224.011.403.032.585.032h2.64c.726-.003 1.453 0 2.179.014Zm5.046-5.683c-.923 1.797-1.643 3.694-2.504 5.676.858 0 1.555.019 2.251-.016a.61.61 0 0 0 .438-.311c1.141-2.522 1.983-5.176 3.376-7.626a4.384 4.384 0 0 0-3.561 2.277Zm16.596 5.676h6.807c1.146 0 1.336-.127 1.74-1.212.088-.208.143-.43.161-.656.016-.731.026-1.473-.015-2.209-.079-1.472-.194-2.943-.292-4.329l-8.401 8.406Zm-10.086-1.21c-.84.375-1.694.719-2.54 1.077l.055.133h2.655c1.558 0 1.811-.19 2.241-1.713.071-.254.108-.519.146-.707-.857.399-1.697.822-2.552 1.205l-.005.005Zm24.557-13.465a.782.782 0 0 0-.45.261c-1.169 1.191-2.339 2.381-3.478 3.602a1.377 1.377 0 0 0-.352.9c.06 1.462.219 2.924.293 4.377.086 1.814.543 3.654-.402 5.488h7.396V321.83h-1.517c-.509-.003-.996 0-1.488.012l-.002.006Zm-26.417 8.58c-.62 1.383-1.189 2.789-1.776 4.188l.116.155c1.477-.639 2.972-1.239 4.416-1.942.321-.195.569-.49.705-.84.137-.349.155-.734.051-1.095a1.91 1.91 0 0 0-1.694-1.485 1.803 1.803 0 0 0-1.818 1.019Zm-4.713-15.231c-.439 1.798-.829 3.604-1.242 5.408l-.867 3.787 11.781-11.768-.802-.058c-1.561-.106-3.125-.185-4.678-.323a4.317 4.317 0 0 0-.392-.018 3.81 3.81 0 0 0-3.8 2.97v.002Zm21.804 7.776a7.114 7.114 0 0 1-4.993-12.157 7.11 7.11 0 0 1 5.036-2.068 7.11 7.11 0 0 1 4.999 12.154 7.109 7.109 0 0 1-5.034 2.071h-.008Zm-5.237-7.083a5.246 5.246 0 1 0 5.255-5.263h-.026a5.26 5.26 0 0 0-5.229 5.261v.002ZM1008.4 144c-1.11 0-1.38-.268-1.38-1.366 0-20.093 0-40.184-.01-60.275a1.445 1.445 0 0 1 .62-1.359h31.38c.17.17.34.336.51.509 3.87 4.04 7.74 8.081 11.62 12.123.18.176.32.388.42.623.09.235.14.488.13.74-.02 6.995-.02 13.987-.01 20.979 0 .213.01.425.03.711 1.48-.852 2.89-1.643 4.27-2.479a1.478 1.478 0 0 1 1.7-.014c3.83 2.241 7.69 4.448 11.53 6.689.29.213.56.457.8.727v14.765c-.19.203-.41.387-.64.55-3.96 2.3-7.93 4.594-11.9 6.882a1.207 1.207 0 0 1-1.33-.037c-1.28-.759-2.58-1.499-3.88-2.243-.17-.097-.34-.182-.59-.308v1.369c0 1.149-.26 1.414-1.39 1.414h-41.88Zm.62-2.004h40.69c0-.569.02-1.099-.01-1.627a1.182 1.182 0 0 0-.09-.269.83.83 0 0 0-.19-.209c-1.3-.774-2.62-1.522-3.73-2.16-.45.14-.92.239-1.4.298-1.7.029-3.4.012-5.1.012h-24.72c-1.06 0-1.42-.307-1.42-1.239V106.66c0-.767.37-1.224.98-1.227.61-.004.98.444.99 1.215v29.324h28.64v-1.764c-.85 0-1.64.016-2.44 0-.79-.017-1.11-.371-1.11-1.151-.01-6.56-.01-13.122 0-19.684 0-.779.35-1.108 1.14-1.115 1.04-.007 2.09 0 3.13 0 .94 0 1.26.323 1.26 1.246v6.028c0 .189.03.381.04.639 1.21-.695 2.33-1.361 3.48-1.992.18-.077.33-.21.43-.38a.87.87 0 0 0 .13-.566c-.02-6.972-.02-13.944-.01-20.915v-.686h-11.21c-1.12 0-1.44-.323-1.45-1.419V82.997h-28.03v58.999Zm58.73-18.193c-3.19 1.839-6.38 3.671-9.56 5.534a.903.903 0 0 0-.24.294c-.06.114-.1.24-.11.37-.02 2.15-.01 4.3-.01 6.45v4.778c.09-.026.18-.057.27-.093 3.2-1.851 6.41-3.695 9.61-5.569.1-.085.18-.191.23-.309a.843.843 0 0 0 .09-.38c.02-3.564.02-7.13.02-10.694v-.525c-.16.08-.24.103-.3.144Zm-22.1.099c0 3.711-.01 7.422.02 11.132.02.129.08.251.15.357.08.106.18.195.29.261 3.08 1.799 6.16 3.574 9.25 5.353.13.079.28.141.44.22a.762.762 0 0 0 .06-.208c0-3.711.01-7.422-.02-11.133a.917.917 0 0 0-.15-.355 1.01 1.01 0 0 0-.29-.26c-2.37-1.388-4.75-2.748-7.12-4.123l-2.56-1.478a.97.97 0 0 0-.07.234Zm-3.53 8.25h1.53v-17.899h-1.53v17.899Zm14.23-15.855c-3.06 1.783-6.13 3.547-9.2 5.319-.15.084-.28.19-.47.317 3.35 1.927 6.62 3.823 9.91 5.692.11.033.24.04.36.022a.913.913 0 0 0 .34-.126c2.96-1.693 5.93-3.397 8.88-5.113.26-.151.52-.307.83-.491-.21-.134-.37-.239-.52-.328-3.05-1.76-6.1-3.513-9.14-5.291a.87.87 0 0 0-.5-.16.87.87 0 0 0-.5.16l.01-.001Zm-17.25-22.732h9.21l-9.21-9.616v9.616Zm-5.56 40.639c-.85-.014-1.17-.358-1.18-1.216v-15.44c0-.94.31-1.249 1.25-1.254 1.05 0 2.1-.009 3.14 0 .82.01 1.14.349 1.14 1.173.01 5.188.01 10.376 0 15.563 0 .81-.33 1.157-1.15 1.172a97.213 97.213 0 0 1-3.2.002Zm.83-2.045h1.52v-13.856h-1.52v13.856Zm-16.31 2.045c-.85-.014-1.19-.37-1.2-1.211v-7.43c0-.802.36-1.187 1.15-1.202 1.08-.02 2.17-.017 3.25 0 .8.013 1.14.378 1.15 1.187.01 1.248 0 2.497 0 3.746v3.685c0 .889-.33 1.216-1.23 1.228a115.894 115.894 0 0 1-3.12-.003Zm.83-2.019h1.5v-5.775h-1.49l-.01 5.775Zm6.96 2.02c-.93-.012-1.24-.346-1.24-1.285v-11.372c0-.956.33-1.281 1.3-1.285h3.07c.81.006 1.16.359 1.17 1.16v11.496c0 .955-.31 1.273-1.23 1.285a109.725 109.725 0 0 1-3.07.001Zm.77-2.03h1.52v-9.894h-1.51l-.01 9.894Zm-9.7-10.788c-.18-.553.14-1.055.87-1.313a69.72 69.72 0 0 0 17.01-8.663c1.67-1.176 3.27-2.452 4.99-3.753-.71-.171-1.15-.417-1.15-1.075-.01-.114 0-.23.03-.34a.87.87 0 0 1 .42-.518c.1-.054.21-.087.33-.097a36.66 36.66 0 0 1 3.13-.188.999.999 0 0 1 .81.383c.09.123.16.266.19.419.03.153.02.311-.02.461-.11.769-.24 1.536-.34 2.306-.12.885-.41 1.287-1.02 1.314-.6.028-.9-.307-1.11-1.194-.94.746-1.86 1.495-2.79 2.213a71.433 71.433 0 0 1-19.84 10.614c-.18.068-.38.104-.57.108a.955.955 0 0 1-.59-.176.945.945 0 0 1-.35-.501Zm-2.65-25.763c-.77-.01-1.22-.39-1.22-1.006 0-.615.43-.989 1.22-.992 2.33-.006 4.67 0 7 0 2.38 0 4.76-.008 7.13.005a.99.99 0 0 1 .41.044.92.92 0 0 1 .36.206c.11.093.19.206.25.333a.94.94 0 0 1 .09.403 1.07 1.07 0 0 1-1.11 1.006c-.16.01-.32 0-.49 0h-12.77c-.29.003-.58.003-.87 0Zm-.02-5.645c-.77 0-1.21-.378-1.2-1.006.01-.607.44-.956 1.17-.956 2.36-.004 4.72-.004 7.07 0h7.01c.76 0 1.22.391 1.21.998-.02.582-.48.963-1.2.963h-14.06Z"/>
    <defs>
        <linearGradient id="a" x1="626.781" x2="897.957" y1="12.857" y2="284.032" gradientUnits="userSpaceOnUse">
            <stop stop-color="#2ECC82"/>
            <stop offset="1" stop-color="#044526"/>
        </linearGradient>
        <linearGradient id="b" x1="774.98" x2="774.98" y1="12.995" y2="613.963" gradientUnits="userSpaceOnUse">
            <stop stop-color="#D3D3D3"/>
            <stop offset=".469" stop-color="#CACACA" stop-opacity=".653"/>
            <stop offset="1" stop-color="#C8C8C8" stop-opacity=".26"/>
        </linearGradient>
        <linearGradient id="c" x1="197.157" x2="197.157" y1="11.032" y2="541.69" gradientUnits="userSpaceOnUse">
            <stop stop-color="#D3D3D3"/>
            <stop offset=".469" stop-color="#CACACA" stop-opacity=".653"/>
            <stop offset="1" stop-color="#C8C8C8" stop-opacity=".26"/>
        </linearGradient>
    </defs>
</svg>
