<svg xmlns="http://www.w3.org/2000/svg" width="518" height="1037" fill="none"><rect width="247.712" height="247.712" x="342.159" y="344.159" fill="url(#a)" rx="32" transform="rotate(45 342.159 344.159)"/><path fill="url(#b)" d="M61.047 271.047c-.345 3.347-2.75 5.344-4.904 7.509a83861.21 83861.21 0 0 0-43.2 43.247c-13.35 13.387-13.33 29.473 0 42.766 43.841 43.801 87.665 87.62 131.471 131.456 12.974 12.979 28.991 13.104 41.934.209 17.261-17.205 34.575-34.367 51.668-51.739a12.054 12.054 0 0 1 9.546-3.954c4.955 0 11.584 2.343 14.417-1.046 2.436-2.876.899-9.308.711-14.15a11.22 11.22 0 0 1 3.523-9.204c17.773-17.477 35.233-35.183 52.912-52.723 13.268-13.167 31.365-13.209 44.611 0a95807.427 95807.427 0 0 1 132.945 133.004c13.863 13.91 13.727 31.805-.22 45.778a211577.207 211577.207 0 0 1-131.345 131.55c-14.636 14.642-32.598 14.642-47.413 0a12888.57 12888.57 0 0 1-43.691-43.456c-5.708-8.367-13.225-12.728-23.648-10.773-1.171.22-2.457-.136-3.639.063-4.767.805-6.273-1.412-5.635-5.825 1.453-10.909-.387-20.573-10.392-27.078a6.6 6.6 0 0 1-.429-.303c-15.233-15.291-30.319-30.718-45.729-45.841-11.229-11.023-27.737-10.459-39.269 1.046a18500.052 18500.052 0 0 0-57.25 57.272 768146.214 768146.214 0 0 1-74.983 74.999c-13.34 13.314-13.403 29.389-.084 42.724l131.418 131.54c12.87 12.874 29.106 12.969 41.976.157a12243.014 12243.014 0 0 0 52.097-52.095 10.948 10.948 0 0 1 8.667-3.514c5.133 0 12.023 2.374 14.909-1.046 2.519-3.002.93-9.675.669-14.643-.199-3.66 1.129-6.118 3.659-8.617 17.554-17.425 34.94-35.016 52.452-52.482 13.372-13.346 31.647-13.482 45.019-.136a80640.503 80640.503 0 0 1 133.687 133.715c12.796 12.822 12.441 31.376-.795 44.711a27566.963 27566.963 0 0 1-72.714 72.782c-19.697 19.704-39.394 39.4-59.091 59.09-14.637 14.58-32.253 14.64-46.921 0a52355.665 52355.665 0 0 1-127.707-127.835c-1.275-1.276-5.133-2.699-2.749-4.937 1.976-1.841 3.575 1.736 4.966 3.138 42.293 42.19 84.531 84.43 126.713 126.714 14.344 14.37 29.849 14.53 44.214.16 43.84-43.822 87.653-87.675 131.438-131.56 11.961-11.986 12.201-28.458.272-40.433a52799.636 52799.636 0 0 0-134.052-134.102c-10.455-10.375-26.89-11.599-36.896-2.092-16.236 15.479-31.782 31.701-47.622 47.608-8.081 5.669-12.765 12.865-10.726 23.261.366 1.851-.094 3.838.083 5.741.325 3.285-1.191 4.247-4.265 4.184-5.039-.167-10.089 0-15.139-.063-1.976 0-3.785.209-5.227 1.768-2.698 2.939-5.458 5.825-8.186 8.722-15.223 15.061-30.382 30.174-45.667 45.151-10.027 9.81-22.583 11.975-35.056 6.338a28.645 28.645 0 0 1-8.499-5.941c-45.047-45.056-90.08-90.126-135.098-135.21-11.992-12.028-11.574-30.979.95-43.571a26604.77 26604.77 0 0 1 79.353-79.487c18.223-18.219 36.363-36.522 54.711-54.626 12.546-12.341 31.072-12.184 43.513.136 9.901 9.79 19.697 19.694 29.525 29.557 7.998 8.011 15.87 16.137 24.046 23.992a9.733 9.733 0 0 1 3.293 7.698c0 5.292-2.404 12.163 1.046 15.468 3.22 3.064 9.984.92 15.17.816a9.533 9.533 0 0 1 7.684 3.231c17.387 17.582 34.94 34.975 52.4 52.482 12.546 12.614 28.991 12.771 41.61.157 44.225-44.184 88.428-88.404 132.61-132.658 12.41-12.425 12.379-28.699-.083-41.197a124180.181 124180.181 0 0 0-131.826-131.885c-13.591-13.596-29.117-13.512-42.625-.062a13315.213 13315.213 0 0 0-40.993 40.998 36.447 36.447 0 0 0-2.844 3.671c-4.914 4.309-11.333 7.321-10.58 15.803.46 5.114 2.331 11.881-.795 15.134-3.398 3.535-10.246 1.181-15.546 1.045-4.182-.083-7.486.9-10.277 3.787-2.154 2.238-4.12 4.654-6.169 6.986a255127.709 255127.709 0 0 1-43.659 43.477c-14.731 14.726-32.766 14.914-47.392.282A146838.653 146838.653 0 0 1 9.818 365.625c-12.88-12.906-13.163-31.324-.398-44.334 15.965-16.285 32.15-32.339 48.27-48.476.92-.921 1.736-2.333 3.482-1.622l-.125-.146Z"/><path fill="url(#c)" d="M230.626 234.963c-15.694-15.805-31.105-31.904-47.164-47.322-10.693-10.258-27.014-9.075-38.072 1.937-24.179 24.074-48.221 48.306-72.41 72.39-3.568 3.549-6.591 7.945-11.906 9.316l.105.105c-.795-2.282 1.255-3.14 2.375-4.187a32813 32813 0 0 1 79.513-79.404c13.538-13.461 31.533-13.408 44.988 0 17.409 17.344 34.703 34.804 52.196 52.053 2.825 2.795 4.258 5.569 3.944 9.567-.324 4.187 0 8.374-.115 12.561-.063 2.261.733 3.255 3.013 2.983.513-.063 1.047.073 1.57 0 12.23-2.397 20.663 2.983 28.771 11.891 13.726 15.041 28.635 29.015 43.052 43.428 13.036 13.021 28.96 13.199 41.912.262 44.869-44.807 89.704-89.655 134.503-134.545 12.272-12.289 12.503-28.471.147-40.885-44.183-44.422-88.595-88.604-132.777-133.016-11.655-11.713-29.399-12.414-42.017.356-42.372 42.915-85.121 85.37-127.817 127.919-1.455 1.455-2.982 5.39-5.367 3.025-1.622-1.602 1.956-3.486 3.431-4.972 42.317-42.455 84.65-84.882 127.002-127.28 10.274-10.321 21.908-14.048 35.854-8.74a27.983 27.983 0 0 1 9.887 6.656c44.799 44.842 89.592 89.693 134.377 134.555 12.388 12.425 12.555 31.077.199 43.596-28.782 29.109-57.783 57.988-86.701 86.961l-47.614 47.668c-14.804 14.821-32.631 14.873-47.404.188a19659.771 19659.771 0 0 0-43.753-43.386c-5.713-8.269-13.015-13.053-23.561-10.959-1.162.23-2.438-.105-3.631.062-4.593.628-6.706-.868-6.204-5.924.439-4.47 0-9.012.115-13.513 0-1.978-.167-3.706-1.789-5.161-2.961-2.648-5.775-5.453-8.652-8.185Z"/><path fill="#2ECC82" d="M294.044 856.073c7.024 0 14.058.189 21.092-.063 3.712-.136 4.777 1.047 4.714 4.731-.158 8.561 0 8.571-8.637 8.571-8.437 0-16.873.105-25.31-.052-3.079-.063-4.651.733-4.377 4.05.275 3.318-2.351 7.201-.094 9.556 2.256 2.355 5.8-.576 8.879-.702 8.184-.324 16.188-.303 23.306 4.428 8.532 5.672 13.025 16.745 10.831 26.447-2.626 11.606-9.491 18.493-21.271 20.167-10.546 1.486-20.975 1.382-30.361-4.72a20.548 20.548 0 0 1-6.934-7 20.366 20.366 0 0 1-2.853-9.4c-.2-2.648.601-3.537 3.164-3.391 1.576.121 3.159.121 4.735 0 3.765-.376 6.549.095 7.614 4.637.759 3.265 3.449 5.306 7.024 6.175a34.444 34.444 0 0 0 14.606.387c4.893-.911 9.048-6.196 9.491-11.314.464-5.473-2.384-10.853-7.245-12.82-7.013-2.837-14.258-2.826-20.881.753-4.092 2.219-8.088 1.779-12.244 1.717-2.393 0-3.163-1.162-3.026-3.695.801-11.627 1.508-23.265 1.972-34.914.126-3.234 1.592-3.621 4.218-3.579 7.192.115 14.385.031 21.587.031ZM71.764 371.819c13.047 0 25.066.208 37.063-.115 4.328-.104 5.358 1.24 5.147 5.282-.451 8.919 1.503 7.96-8.12 8.002H63.307c-10.17 0-10.758-.719-7.648-10.502 1.933-6.116 5.936-10.94 10.621-15.201 5.704-5.209 12.26-9.168 18.731-13.284a40.71 40.71 0 0 0 8.982-7.095c2.879-3.261 4.98-6.772 3.362-11.335-1.618-4.563-5.326-5.98-9.77-6.595-8.404-1.146-15.653 2.855-17.197 10.637-.82 4.168-2.68 4.751-6.304 4.689-9.539-.157-10.81-1.813-7.616-10.836 5.18-14.585 21.652-21.66 39.7-17.086 11.839 3.001 18.647 12.336 17.323 24.338-.819 7.459-5.053 13.117-10.82 17.711-5.768 4.595-12.607 7.971-19.162 11.648-4.076 2.386-8.016 4.876-11.745 9.742Z"/><path fill="#fff" d="M266.339 506.37c-7.355 0-16.065-.188-24.775.094-3.825.115-5.254-.793-5.117-4.844.199-8.446 0-8.457 8.615-8.457 13.828 0 27.655 0 41.482.063 1.545 0 3.898-1.044 4.466 1.357a5.747 5.747 0 0 1-1.209 5.69c-5.19 5.888-11.253 10.848-16.685 16.475-1.177 1.232-2.584 2.245-4.203 3.633 3.363 2.276 6.672 1.786 9.457 2.924 9.803 3.936 16.097 13.196 15.603 23.146-.567 11.348-6.735 19.659-17.579 22.582-10.507 2.85-21.14 2.944-31.195-2.004-7.271-3.571-11.337-9.553-12.146-17.644-.252-2.506.326-4.072 3.341-3.749 1.746.189 3.508.189 5.254 0 3.635-.428 5.926.481 6.609 4.542.451 2.714 2.752 4.437 5.253 5.492a22.416 22.416 0 0 0 18.755-.073c5.117-2.339 7.134-7.455 5.979-13.166-.977-4.834-5.548-8.916-11.19-9.563-3.993-.459-8.185-.867-11.936.783-4.434 1.952-4.844-1.994-6.609-3.905-2.228-2.411.178-3.591 1.523-5.074 5.537-6.191 11.064-12.413 16.307-18.302Z"/><path fill="#2ECC82" d="M110.797 688.83c0 6.422.22 12.865-.084 19.266-.209 4.254 1.049 6.026 5.557 5.671 2.023-.156 5.242-1.334 6.008 1.46a16.935 16.935 0 0 1-.147 10.248c-.745 2.012-3.512 1.043-5.242.897-4.676-.501-6.427 1.042-6.197 5.953.388 8.507.063 8.215-8.461 8.642-5.105.251-7.108-.854-6.73-6.422.545-8.111.136-8.142-8.262-8.142-9.08 0-18.16.115-27.26 0-1.887 0-4.686 1.293-5.546-1.261a7.624 7.624 0 0 1 1.636-7.757c5.944-6.808 11.69-13.793 17.53-20.684 8.44-9.946 17.089-19.714 25.235-29.89 3.146-3.888 6.847-2.596 10.485-2.637 2.023 0 1.457 2.085 1.468 3.305v21.351h.01Zm-37.146 25.907h19.732c1.614 0 2.788-.48 2.788-2.262v-23.072l-1.111-.344c-6.794 8.174-13.62 16.337-21.41 25.678Zm213.284-527.76c0 11.225-.134 22.451.063 33.676.062 3.475-1.036 4.347-4.421 4.347-10.747 0-10.747.155-10.747-10.375 0-15.022-.124-30.086.083-45.056.062-4.43-1.087-6.225-5.549-4.493l-.497.146c-8.055 1.981-10.498 0-10.861-8.476-.062-1.349.321-1.94 1.481-2.169 8.935-1.732 17.486-5.26 26.732-5.571 2.961-.093 3.82.851 3.779 3.808-.156 11.37-.063 22.772-.063 34.163Z"/><path fill="#2ECC82" d="M230.23 586c.136.104.283.208.429.302 10.012 6.473 11.853 16.089 10.399 26.943-.586 4.392.868 6.598 5.638 5.797 1.182-.198 2.469.156 3.641-.063 10.461-1.946 17.951 2.383 23.663 10.719-13.6.094-27.126.156-40.684.302-2.531 0-3.326-1.186-3.316-3.518.105-13.487.105-26.984.23-40.482ZM233 805.81c2.738-2.91 5.507-5.809 8.213-8.761 1.447-1.566 3.262-1.797 5.244-1.776 5.066 0 10.132-.105 15.188.063 3.083.105 4.604-.862 4.279-4.203-.178-1.912.283-3.908-.084-5.767-2.045-10.443 2.654-17.672 10.761-23.366.126 13.658.221 27.316.399 40.921 0 2.732-1.447 3.089-3.661 3.079-13.446-.074-26.893-.116-40.339-.19ZM230.12 235c2.887 2.682 5.712 5.435 8.683 8.025 1.628 1.428 1.827 3.082 1.796 5.065-.063 4.418.325 8.878-.116 13.265-.504 4.963 1.617 6.432 6.227 5.815 1.197-.164 2.478.165 3.644-.061 10.584-2.055 17.913 2.64 23.646 10.757-13.272 0-26.534 0-39.796.134-3.15 0-4.284-.863-4.2-4.048.137-12.988.084-25.965.116-38.952ZM233 453.769c2.087-2.333 4.007-4.749 6.156-6.988 2.786-2.888 6.125-3.871 10.257-3.788 5.29.116 12.124 2.47 15.515-1.046 3.13-3.253 1.252-10.023.793-15.139-.751-8.453 5.655-11.508 10.559-15.808 1.356 13.329.344 26.7.532 40.049 0 2.689-1.69 2.961-3.808 2.951a9526.201 9526.201 0 0 0-40.004-.231Z" opacity=".3"/><path fill="#181818" d="M311.992 195.322c-1.595 0-2.936-.353-4.025-1.058a5.78 5.78 0 0 1-2.3-2.921l2.714-1.587c.629 1.641 1.863 2.461 3.703 2.461.889 0 1.541-.161 1.955-.483.414-.322.621-.728.621-1.219 0-.567-.253-1.004-.759-1.311-.506-.322-1.411-.667-2.714-1.035a17.74 17.74 0 0 1-1.84-.644 8.777 8.777 0 0 1-1.495-.851 3.648 3.648 0 0 1-1.127-1.38c-.261-.552-.391-1.196-.391-1.932 0-1.457.514-2.614 1.541-3.473 1.043-.874 2.292-1.311 3.749-1.311 1.303 0 2.446.322 3.427.966.997.629 1.771 1.51 2.323 2.645l-2.668 1.541c-.644-1.38-1.671-2.07-3.082-2.07-.659 0-1.181.153-1.564.46a1.396 1.396 0 0 0-.552 1.15c0 .506.207.92.621 1.242.429.307 1.242.644 2.438 1.012.491.153.859.276 1.104.368.261.077.606.207 1.035.391.445.169.782.33 1.012.483.245.153.521.36.828.621.307.261.537.529.69.805.169.276.307.613.414 1.012.123.383.184.805.184 1.265 0 1.487-.544 2.668-1.633 3.542-1.073.874-2.476 1.311-4.209 1.311Zm13.563 0c-1.733 0-3.182-.583-4.347-1.748-1.15-1.165-1.725-2.607-1.725-4.324 0-1.717.575-3.159 1.725-4.324 1.165-1.165 2.614-1.748 4.347-1.748 1.119 0 2.139.268 3.059.805.92.537 1.617 1.257 2.093 2.162l-2.553 1.495a2.589 2.589 0 0 0-1.058-1.127 2.982 2.982 0 0 0-1.564-.414c-.89 0-1.626.299-2.208.897-.583.583-.874 1.334-.874 2.254 0 .905.291 1.656.874 2.254.582.583 1.318.874 2.208.874.598 0 1.127-.13 1.587-.391a2.589 2.589 0 0 0 1.058-1.127l2.576 1.472a5.843 5.843 0 0 1-2.139 2.185c-.92.537-1.94.805-3.059.805Zm16.385-1.748c-1.181 1.165-2.622 1.748-4.324 1.748s-3.143-.583-4.324-1.748c-1.165-1.181-1.748-2.622-1.748-4.324s.583-3.136 1.748-4.301c1.181-1.181 2.622-1.771 4.324-1.771s3.143.59 4.324 1.771c1.181 1.165 1.771 2.599 1.771 4.301s-.59 3.143-1.771 4.324Zm-6.555-2.047c.598.598 1.342.897 2.231.897.889 0 1.633-.299 2.231-.897.598-.598.897-1.357.897-2.277 0-.92-.299-1.679-.897-2.277-.598-.598-1.342-.897-2.231-.897-.889 0-1.633.299-2.231.897-.583.598-.874 1.357-.874 2.277 0 .92.291 1.679.874 2.277Zm17.106-8.349c1.549 0 2.868.59 3.956 1.771 1.104 1.165 1.656 2.599 1.656 4.301s-.552 3.143-1.656 4.324c-1.088 1.165-2.407 1.748-3.956 1.748-1.61 0-2.852-.56-3.726-1.679v5.957h-2.967v-16.1h2.967v1.357c.874-1.119 2.116-1.679 3.726-1.679Zm-2.829 8.418c.598.598 1.357.897 2.277.897.92 0 1.679-.299 2.277-.897.614-.613.92-1.395.92-2.346 0-.951-.306-1.725-.92-2.323-.598-.613-1.357-.92-2.277-.92-.92 0-1.679.307-2.277.92-.598.598-.897 1.372-.897 2.323 0 .951.299 1.733.897 2.346Zm12.006-9.476c-.491 0-.92-.176-1.288-.529a1.801 1.801 0 0 1-.529-1.288c0-.491.176-.92.529-1.288.368-.368.797-.552 1.288-.552.506 0 .935.184 1.288.552.368.368.552.797.552 1.288s-.184.92-.552 1.288a1.752 1.752 0 0 1-1.288.529ZM360.196 195v-11.5h2.967V195h-2.967Zm12.076-11.822c1.258 0 2.293.422 3.105 1.265.828.843 1.242 2.009 1.242 3.496V195h-2.967v-6.693c0-.767-.207-1.349-.621-1.748-.414-.414-.966-.621-1.656-.621-.766 0-1.38.238-1.84.713-.46.475-.69 1.188-.69 2.139V195h-2.967v-11.5h2.967v1.288c.721-1.073 1.863-1.61 3.427-1.61Zm15.69.322h2.898v10.948c0 1.779-.59 3.136-1.771 4.071-1.165.935-2.576 1.403-4.232 1.403-1.242 0-2.338-.238-3.289-.713a4.999 4.999 0 0 1-2.162-2.093l2.53-1.449c.583 1.073 1.587 1.61 3.013 1.61.935 0 1.671-.245 2.208-.736.537-.491.805-1.188.805-2.093v-1.242c-.874 1.165-2.101 1.748-3.68 1.748-1.625 0-2.99-.567-4.094-1.702-1.089-1.15-1.633-2.545-1.633-4.186 0-1.625.552-3.013 1.656-4.163 1.104-1.15 2.461-1.725 4.071-1.725 1.579 0 2.806.583 3.68 1.748V183.5Zm-5.543 7.843c.613.583 1.388.874 2.323.874s1.702-.291 2.3-.874c.613-.598.92-1.357.92-2.277 0-.905-.307-1.648-.92-2.231-.598-.598-1.365-.897-2.3-.897-.935 0-1.71.299-2.323.897-.598.583-.897 1.326-.897 2.231 0 .92.299 1.679.897 2.277Zm30.52 2.737-2.53 1.449-1.472-1.587c-1.242.92-2.683 1.38-4.324 1.38-1.656 0-3.013-.429-4.071-1.288-1.042-.874-1.564-2.039-1.564-3.496 0-.951.23-1.832.69-2.645.46-.813 1.127-1.472 2.001-1.978a4.96 4.96 0 0 1-.782-2.691c0-1.365.476-2.476 1.426-3.335.951-.874 2.155-1.311 3.611-1.311 1.15 0 2.178.299 3.082.897.92.583 1.603 1.434 2.047 2.553l-2.714 1.564c-.444-1.288-1.234-1.932-2.369-1.932-.552 0-1.012.161-1.38.483a1.582 1.582 0 0 0-.529 1.219c0 .429.1.82.299 1.173.215.353.552.774 1.012 1.265l3.45 3.772c.338-.721.598-1.61.782-2.668l2.668 1.518a10.859 10.859 0 0 1-1.403 3.381l2.07 2.277Zm-8.119-1.679c.798 0 1.511-.192 2.139-.575l-3.473-3.772c-.03-.031-.046-.054-.046-.069-.843.521-1.265 1.265-1.265 2.231 0 .659.223 1.188.667 1.587.46.399 1.12.598 1.978.598Zm-95.151 27.563h6.785V223h-9.959v-16.1h9.844v3.036h-6.67v3.427h6.095v2.99h-6.095v3.611Zm11.621-5.198c0 .307.2.56.598.759.414.184.913.353 1.495.506.583.138 1.166.322 1.748.552a3.238 3.238 0 0 1 1.472 1.104c.414.521.621 1.173.621 1.955 0 1.181-.444 2.093-1.334 2.737-.874.629-1.97.943-3.289.943-2.361 0-3.971-.912-4.83-2.737l2.576-1.449c.338.997 1.089 1.495 2.254 1.495 1.058 0 1.587-.33 1.587-.989 0-.307-.207-.552-.621-.736a7.68 7.68 0 0 0-1.472-.529 15.51 15.51 0 0 1-1.748-.575 3.718 3.718 0 0 1-1.495-1.081c-.398-.506-.598-1.135-.598-1.886 0-1.135.414-2.024 1.242-2.668.844-.659 1.886-.989 3.128-.989.936 0 1.787.215 2.553.644a4.538 4.538 0 0 1 1.817 1.794l-2.53 1.38c-.368-.782-.981-1.173-1.84-1.173-.383 0-.705.084-.966.253a.796.796 0 0 0-.368.69Zm14.083-.414h-2.599v4.784c0 .399.1.69.299.874.2.184.491.291.874.322.384.015.859.008 1.426-.023V223c-2.039.23-3.48.038-4.324-.575-.828-.613-1.242-1.71-1.242-3.289v-4.784h-2.001V211.5h2.001v-2.323l2.967-.897v3.22h2.599v2.852Zm3.564-4.232a1.803 1.803 0 0 1-1.817-1.817c0-.491.177-.92.529-1.288.368-.368.798-.552 1.288-.552.506 0 .936.184 1.288.552.368.368.552.797.552 1.288s-.184.92-.552 1.288a1.75 1.75 0 0 1-1.288.529ZM337.465 223v-11.5h2.967V223h-2.967Zm18.402-11.822c1.319 0 2.369.429 3.151 1.288.797.859 1.196 2.009 1.196 3.45V223h-2.967v-6.877c0-.69-.169-1.227-.506-1.61-.337-.383-.813-.575-1.426-.575-.675 0-1.204.222-1.587.667-.368.445-.552 1.089-.552 1.932V223h-2.967v-6.877c0-.69-.169-1.227-.506-1.61-.337-.383-.813-.575-1.426-.575-.659 0-1.188.222-1.587.667-.383.445-.575 1.089-.575 1.932V223h-2.967v-11.5h2.967v1.219c.69-1.027 1.756-1.541 3.197-1.541 1.411 0 2.453.552 3.128 1.656.767-1.104 1.909-1.656 3.427-1.656Zm15.607.322h2.967V223h-2.967v-1.357c-.889 1.119-2.139 1.679-3.749 1.679-1.533 0-2.852-.583-3.956-1.748-1.089-1.181-1.633-2.622-1.633-4.324s.544-3.136 1.633-4.301c1.104-1.181 2.423-1.771 3.956-1.771 1.61 0 2.86.56 3.749 1.679V211.5ZM366 219.596c.598.598 1.357.897 2.277.897.92 0 1.679-.299 2.277-.897.613-.613.92-1.395.92-2.346 0-.951-.307-1.725-.92-2.323-.598-.613-1.357-.92-2.277-.92-.92 0-1.679.307-2.277.92-.598.598-.897 1.372-.897 2.323 0 .951.299 1.733.897 2.346Zm17.709-5.244h-2.599v4.784c0 .399.1.69.299.874.2.184.491.291.874.322.384.015.859.008 1.426-.023V223c-2.039.23-3.48.038-4.324-.575-.828-.613-1.242-1.71-1.242-3.289v-4.784h-2.001V211.5h2.001v-2.323l2.967-.897v3.22h2.599v2.852Zm3.564-4.232a1.803 1.803 0 0 1-1.817-1.817c0-.491.177-.92.529-1.288.368-.368.798-.552 1.288-.552.506 0 .936.184 1.288.552.368.368.552.797.552 1.288s-.184.92-.552 1.288a1.75 1.75 0 0 1-1.288.529ZM385.801 223v-11.5h2.967V223h-2.967Zm15.481-1.426c-1.181 1.165-2.622 1.748-4.324 1.748s-3.143-.583-4.324-1.748c-1.165-1.181-1.748-2.622-1.748-4.324s.583-3.136 1.748-4.301c1.181-1.181 2.622-1.771 4.324-1.771s3.143.59 4.324 1.771c1.181 1.165 1.771 2.599 1.771 4.301s-.59 3.143-1.771 4.324Zm-6.555-2.047c.598.598 1.342.897 2.231.897.889 0 1.633-.299 2.231-.897.598-.598.897-1.357.897-2.277 0-.92-.299-1.679-.897-2.277-.598-.598-1.342-.897-2.231-.897-.889 0-1.633.299-2.231.897-.583.598-.874 1.357-.874 2.277 0 .92.291 1.679.874 2.277Zm16.807-8.349c1.258 0 2.293.422 3.105 1.265.828.843 1.242 2.009 1.242 3.496V223h-2.967v-6.693c0-.767-.207-1.349-.621-1.748-.414-.414-.966-.621-1.656-.621-.766 0-1.38.238-1.84.713-.46.475-.69 1.188-.69 2.139V223h-2.967v-11.5h2.967v1.288c.721-1.073 1.863-1.61 3.427-1.61ZM132.853 355l-4.508-16.1h3.335l3.082 11.937 3.358-11.937h2.714l3.381 11.937 3.082-11.937h3.335l-4.508 16.1h-3.611l-3.036-10.626L136.464 355h-3.611Zm27.909-1.426c-1.18 1.165-2.622 1.748-4.324 1.748s-3.143-.583-4.324-1.748c-1.165-1.181-1.748-2.622-1.748-4.324s.583-3.136 1.748-4.301c1.181-1.181 2.622-1.771 4.324-1.771s3.144.59 4.324 1.771c1.181 1.165 1.771 2.599 1.771 4.301s-.59 3.143-1.771 4.324Zm-6.555-2.047c.598.598 1.342.897 2.231.897.89 0 1.633-.299 2.231-.897.598-.598.897-1.357.897-2.277 0-.92-.299-1.679-.897-2.277-.598-.598-1.341-.897-2.231-.897-.889 0-1.633.299-2.231.897-.582.598-.874 1.357-.874 2.277 0 .92.292 1.679.874 2.277Zm13.381-6.049c.276-.736.728-1.288 1.357-1.656a4.235 4.235 0 0 1 2.139-.552v3.312c-.905-.107-1.718.077-2.438.552-.706.475-1.058 1.265-1.058 2.369V355h-2.967v-11.5h2.967v1.978ZM183.422 355h-3.45l-4.186-5.221V355h-2.967v-16.1h2.967v9.66l3.956-5.06h3.542l-4.623 5.681 4.761 5.819Zm3.454-8.234c0 .307.2.56.598.759.414.184.913.353 1.495.506.583.138 1.166.322 1.748.552a3.238 3.238 0 0 1 1.472 1.104c.414.521.621 1.173.621 1.955 0 1.181-.444 2.093-1.334 2.737-.874.629-1.97.943-3.289.943-2.361 0-3.971-.912-4.83-2.737l2.576-1.449c.338.997 1.089 1.495 2.254 1.495 1.058 0 1.587-.33 1.587-.989 0-.307-.207-.552-.621-.736a7.68 7.68 0 0 0-1.472-.529 15.51 15.51 0 0 1-1.748-.575 3.718 3.718 0 0 1-1.495-1.081c-.398-.506-.598-1.135-.598-1.886 0-1.135.414-2.024 1.242-2.668.844-.659 1.886-.989 3.128-.989.936 0 1.787.215 2.553.644a4.538 4.538 0 0 1 1.817 1.794l-2.53 1.38c-.368-.782-.981-1.173-1.84-1.173-.383 0-.705.084-.966.253a.796.796 0 0 0-.368.69Zm14.236-3.588c1.258 0 2.293.422 3.105 1.265.828.843 1.242 2.009 1.242 3.496V355h-2.967v-6.693c0-.767-.207-1.349-.621-1.748-.414-.414-.966-.621-1.656-.621-.766 0-1.38.238-1.84.713-.46.475-.69 1.188-.69 2.139V355h-2.967v-16.1h2.967v5.888c.721-1.073 1.863-1.61 3.427-1.61Zm16.679 10.396c-1.181 1.165-2.622 1.748-4.324 1.748s-3.144-.583-4.324-1.748c-1.166-1.181-1.748-2.622-1.748-4.324s.582-3.136 1.748-4.301c1.18-1.181 2.622-1.771 4.324-1.771s3.143.59 4.324 1.771c1.18 1.165 1.771 2.599 1.771 4.301s-.591 3.143-1.771 4.324Zm-6.555-2.047c.598.598 1.341.897 2.231.897.889 0 1.633-.299 2.231-.897.598-.598.897-1.357.897-2.277 0-.92-.299-1.679-.897-2.277-.598-.598-1.342-.897-2.231-.897-.89 0-1.633.299-2.231.897-.583.598-.874 1.357-.874 2.277 0 .92.291 1.679.874 2.277Zm17.106-8.349c1.549 0 2.867.59 3.956 1.771 1.104 1.165 1.656 2.599 1.656 4.301s-.552 3.143-1.656 4.324c-1.089 1.165-2.407 1.748-3.956 1.748-1.61 0-2.852-.56-3.726-1.679v5.957h-2.967v-16.1h2.967v1.357c.874-1.119 2.116-1.679 3.726-1.679Zm-2.829 8.418c.598.598 1.357.897 2.277.897.92 0 1.679-.299 2.277-.897.613-.613.92-1.395.92-2.346 0-.951-.307-1.725-.92-2.323-.598-.613-1.357-.92-2.277-.92-.92 0-1.679.307-2.277.92-.598.598-.897 1.372-.897 2.323 0 .951.299 1.733.897 2.346Zm13.023-4.83c0 .307.2.56.598.759.414.184.913.353 1.495.506.583.138 1.166.322 1.748.552a3.238 3.238 0 0 1 1.472 1.104c.414.521.621 1.173.621 1.955 0 1.181-.444 2.093-1.334 2.737-.874.629-1.97.943-3.289.943-2.361 0-3.971-.912-4.83-2.737l2.576-1.449c.338.997 1.089 1.495 2.254 1.495 1.058 0 1.587-.33 1.587-.989 0-.307-.207-.552-.621-.736a7.68 7.68 0 0 0-1.472-.529 15.51 15.51 0 0 1-1.748-.575 3.718 3.718 0 0 1-1.495-1.081c-.398-.506-.598-1.135-.598-1.886 0-1.135.414-2.024 1.242-2.668.844-.659 1.886-.989 3.128-.989.936 0 1.787.215 2.553.644a4.538 4.538 0 0 1 1.817 1.794l-2.53 1.38c-.368-.782-.981-1.173-1.84-1.173-.383 0-.705.084-.966.253a.796.796 0 0 0-.368.69Zm27.344 7.314-2.53 1.449-1.472-1.587c-1.242.92-2.684 1.38-4.324 1.38-1.656 0-3.013-.429-4.071-1.288-1.043-.874-1.564-2.039-1.564-3.496 0-.951.23-1.832.69-2.645.46-.813 1.127-1.472 2.001-1.978a4.95 4.95 0 0 1-.782-2.691c0-1.365.475-2.476 1.426-3.335.95-.874 2.154-1.311 3.611-1.311 1.15 0 2.177.299 3.082.897.92.583 1.602 1.434 2.047 2.553l-2.714 1.564c-.445-1.288-1.235-1.932-2.369-1.932-.552 0-1.012.161-1.38.483a1.578 1.578 0 0 0-.529 1.219c0 .429.099.82.299 1.173.214.353.552.774 1.012 1.265l3.45 3.772c.337-.721.598-1.61.782-2.668l2.668 1.518a10.882 10.882 0 0 1-1.403 3.381l2.07 2.277Zm-8.119-1.679c.797 0 1.51-.192 2.139-.575l-3.473-3.772c-.031-.031-.046-.054-.046-.069-.844.521-1.265 1.265-1.265 2.231 0 .659.222 1.188.667 1.587.46.399 1.119.598 1.978.598ZM135.498 366.9c1.549 0 2.852.521 3.91 1.564 1.058 1.043 1.587 2.323 1.587 3.841 0 1.518-.529 2.798-1.587 3.841-1.058 1.043-2.361 1.564-3.91 1.564h-2.829V383h-3.174v-16.1h6.003Zm0 7.843c.675 0 1.234-.23 1.679-.69.445-.475.667-1.058.667-1.748 0-.705-.222-1.288-.667-1.748-.445-.46-1.004-.69-1.679-.69h-2.829v4.876h2.829Zm10.145-1.265c.276-.736.729-1.288 1.357-1.656a4.235 4.235 0 0 1 2.139-.552v3.312c-.904-.107-1.717.077-2.438.552-.705.475-1.058 1.265-1.058 2.369V383h-2.967v-11.5h2.967v1.978Zm7.312 4.991c.398 1.441 1.479 2.162 3.243 2.162 1.134 0 1.993-.383 2.576-1.15l2.392 1.38c-1.135 1.641-2.806 2.461-5.014 2.461-1.902 0-3.427-.575-4.577-1.725-1.15-1.15-1.725-2.599-1.725-4.347 0-1.733.567-3.174 1.702-4.324 1.134-1.165 2.591-1.748 4.37-1.748 1.686 0 3.074.583 4.163 1.748 1.104 1.165 1.656 2.607 1.656 4.324 0 .383-.039.79-.115 1.219h-8.671Zm-.046-2.3h5.865c-.169-.782-.522-1.365-1.058-1.748a2.954 2.954 0 0 0-1.794-.575c-.798 0-1.457.207-1.978.621-.522.399-.867.966-1.035 1.702Zm17.596-4.991c1.549 0 2.867.59 3.956 1.771 1.104 1.165 1.656 2.599 1.656 4.301s-.552 3.143-1.656 4.324c-1.089 1.165-2.407 1.748-3.956 1.748-1.61 0-2.852-.56-3.726-1.679v5.957h-2.967v-16.1h2.967v1.357c.874-1.119 2.116-1.679 3.726-1.679Zm-2.829 8.418c.598.598 1.357.897 2.277.897.92 0 1.679-.299 2.277-.897.613-.613.92-1.395.92-2.346 0-.951-.307-1.725-.92-2.323-.598-.613-1.357-.92-2.277-.92-.92 0-1.679.307-2.277.92-.598.598-.897 1.372-.897 2.323 0 .951.299 1.733.897 2.346Zm19.274-8.096h2.967V383h-2.967v-1.357c-.89 1.119-2.139 1.679-3.749 1.679-1.534 0-2.852-.583-3.956-1.748-1.089-1.181-1.633-2.622-1.633-4.324s.544-3.136 1.633-4.301c1.104-1.181 2.422-1.771 3.956-1.771 1.61 0 2.859.56 3.749 1.679V371.5Zm-5.474 8.096c.598.598 1.357.897 2.277.897.92 0 1.679-.299 2.277-.897.613-.613.92-1.395.92-2.346 0-.951-.307-1.725-.92-2.323-.598-.613-1.357-.92-2.277-.92-.92 0-1.679.307-2.277.92-.598.598-.897 1.372-.897 2.323 0 .951.299 1.733.897 2.346Zm14.098-6.118c.276-.736.728-1.288 1.357-1.656a4.235 4.235 0 0 1 2.139-.552v3.312c-.905-.107-1.717.077-2.438.552-.705.475-1.058 1.265-1.058 2.369V383h-2.967v-11.5h2.967v1.978Zm13.544-1.978h2.967V383h-2.967v-1.357c-.889 1.119-2.139 1.679-3.749 1.679-1.533 0-2.852-.583-3.956-1.748-1.088-1.181-1.633-2.622-1.633-4.324s.545-3.136 1.633-4.301c1.104-1.181 2.423-1.771 3.956-1.771 1.61 0 2.86.56 3.749 1.679V371.5Zm-5.474 8.096c.598.598 1.357.897 2.277.897.92 0 1.679-.299 2.277-.897.614-.613.92-1.395.92-2.346 0-.951-.306-1.725-.92-2.323-.598-.613-1.357-.92-2.277-.92-.92 0-1.679.307-2.277.92-.598.598-.897 1.372-.897 2.323 0 .951.299 1.733.897 2.346Zm17.71-5.244h-2.599v4.784c0 .399.1.69.299.874.199.184.491.291.874.322.383.015.859.008 1.426-.023V383c-2.039.23-3.481.038-4.324-.575-.828-.613-1.242-1.71-1.242-3.289v-4.784h-2.001V371.5h2.001v-2.323l2.967-.897v3.22h2.599v2.852Zm3.564-4.232c-.491 0-.92-.176-1.288-.529a1.801 1.801 0 0 1-.529-1.288c0-.491.176-.92.529-1.288.368-.368.797-.552 1.288-.552.506 0 .935.184 1.288.552.368.368.552.797.552 1.288s-.184.92-.552 1.288a1.752 1.752 0 0 1-1.288.529ZM223.446 383v-11.5h2.967V383h-2.967Zm15.48-1.426c-1.18 1.165-2.622 1.748-4.324 1.748s-3.143-.583-4.324-1.748c-1.165-1.181-1.748-2.622-1.748-4.324s.583-3.136 1.748-4.301c1.181-1.181 2.622-1.771 4.324-1.771s3.144.59 4.324 1.771c1.181 1.165 1.771 2.599 1.771 4.301s-.59 3.143-1.771 4.324Zm-6.555-2.047c.598.598 1.342.897 2.231.897.89 0 1.633-.299 2.231-.897.598-.598.897-1.357.897-2.277 0-.92-.299-1.679-.897-2.277-.598-.598-1.341-.897-2.231-.897-.889 0-1.633.299-2.231.897-.582.598-.874 1.357-.874 2.277 0 .92.292 1.679.874 2.277Zm16.808-8.349c1.257 0 2.292.422 3.105 1.265.828.843 1.242 2.009 1.242 3.496V383h-2.967v-6.693c0-.767-.207-1.349-.621-1.748-.414-.414-.966-.621-1.656-.621-.767 0-1.38.238-1.84.713-.46.475-.69 1.188-.69 2.139V383h-2.967v-11.5h2.967v1.288c.72-1.073 1.863-1.61 3.427-1.61Z"/><path fill="#fff" d="M315.889 518.9c2.208 0 4.048.774 5.52 2.323 1.487 1.549 2.231 3.458 2.231 5.727s-.744 4.178-2.231 5.727c-1.472 1.549-3.312 2.323-5.52 2.323h-6.394v-16.1h6.394Zm0 13.064c1.395 0 2.53-.46 3.404-1.38.874-.935 1.311-2.147 1.311-3.634s-.437-2.691-1.311-3.611c-.874-.935-2.009-1.403-3.404-1.403h-3.22v10.028h3.22Zm12.371-1.495c.399 1.441 1.48 2.162 3.243 2.162 1.135 0 1.994-.383 2.576-1.15l2.392 1.38c-1.134 1.641-2.806 2.461-5.014 2.461-1.901 0-3.427-.575-4.577-1.725-1.15-1.15-1.725-2.599-1.725-4.347 0-1.733.568-3.174 1.702-4.324 1.135-1.165 2.592-1.748 4.37-1.748 1.687 0 3.075.583 4.163 1.748 1.104 1.165 1.656 2.607 1.656 4.324 0 .383-.038.79-.115 1.219h-8.671Zm-.046-2.3h5.865c-.168-.782-.521-1.365-1.058-1.748a2.95 2.95 0 0 0-1.794-.575c-.797 0-1.456.207-1.978.621-.521.399-.866.966-1.035 1.702Zm13.192-1.403c0 .307.199.56.598.759.414.184.912.353 1.495.506.582.138 1.165.322 1.748.552a3.248 3.248 0 0 1 1.472 1.104c.414.521.621 1.173.621 1.955 0 1.181-.445 2.093-1.334 2.737-.874.629-1.971.943-3.289.943-2.362 0-3.972-.912-4.83-2.737l2.576-1.449c.337.997 1.088 1.495 2.254 1.495 1.058 0 1.587-.33 1.587-.989 0-.307-.207-.552-.621-.736a7.73 7.73 0 0 0-1.472-.529 15.378 15.378 0 0 1-1.748-.575 3.712 3.712 0 0 1-1.495-1.081c-.399-.506-.598-1.135-.598-1.886 0-1.135.414-2.024 1.242-2.668.843-.659 1.886-.989 3.128-.989.935 0 1.786.215 2.553.644a4.55 4.55 0 0 1 1.817 1.794l-2.53 1.38c-.368-.782-.982-1.173-1.84-1.173-.384 0-.706.084-.966.253a.794.794 0 0 0-.368.69Zm9.314-4.646c-.491 0-.92-.176-1.288-.529a1.801 1.801 0 0 1-.529-1.288c0-.491.176-.92.529-1.288.368-.368.797-.552 1.288-.552.506 0 .935.184 1.288.552.368.368.552.797.552 1.288s-.184.92-.552 1.288a1.752 1.752 0 0 1-1.288.529ZM349.248 535v-11.5h2.967V535h-2.967Zm14.491-11.5h2.898v10.948c0 1.779-.59 3.136-1.771 4.071-1.165.935-2.576 1.403-4.232 1.403-1.242 0-2.338-.238-3.289-.713a4.999 4.999 0 0 1-2.162-2.093l2.53-1.449c.583 1.073 1.587 1.61 3.013 1.61.936 0 1.672-.245 2.208-.736.537-.491.805-1.188.805-2.093v-1.242c-.874 1.165-2.1 1.748-3.68 1.748-1.625 0-2.99-.567-4.094-1.702-1.088-1.15-1.633-2.545-1.633-4.186 0-1.625.552-3.013 1.656-4.163 1.104-1.15 2.461-1.725 4.071-1.725 1.58 0 2.806.583 3.68 1.748V523.5Zm-5.543 7.843c.614.583 1.388.874 2.323.874.936 0 1.702-.291 2.3-.874.614-.598.92-1.357.92-2.277 0-.905-.306-1.648-.92-2.231-.598-.598-1.364-.897-2.3-.897-.935 0-1.709.299-2.323.897-.598.583-.897 1.326-.897 2.231 0 .92.299 1.679.897 2.277Zm17.526-8.165c1.257 0 2.292.422 3.105 1.265.828.843 1.242 2.009 1.242 3.496V535h-2.967v-6.693c0-.767-.207-1.349-.621-1.748-.414-.414-.966-.621-1.656-.621-.767 0-1.38.238-1.84.713-.46.475-.69 1.188-.69 2.139V535h-2.967v-11.5h2.967v1.288c.72-1.073 1.863-1.61 3.427-1.61Zm26.269 10.902-2.53 1.449-1.472-1.587c-1.242.92-2.683 1.38-4.324 1.38-1.656 0-3.013-.429-4.071-1.288-1.043-.874-1.564-2.039-1.564-3.496 0-.951.23-1.832.69-2.645.46-.813 1.127-1.472 2.001-1.978a4.96 4.96 0 0 1-.782-2.691c0-1.365.475-2.476 1.426-3.335.951-.874 2.154-1.311 3.611-1.311 1.15 0 2.177.299 3.082.897.92.583 1.602 1.434 2.047 2.553l-2.714 1.564c-.445-1.288-1.234-1.932-2.369-1.932-.552 0-1.012.161-1.38.483a1.578 1.578 0 0 0-.529 1.219c0 .429.1.82.299 1.173.215.353.552.774 1.012 1.265l3.45 3.772c.337-.721.598-1.61.782-2.668l2.668 1.518a10.859 10.859 0 0 1-1.403 3.381l2.07 2.277Zm-8.119-1.679c.797 0 1.51-.192 2.139-.575l-3.473-3.772c-.031-.031-.046-.054-.046-.069-.843.521-1.265 1.265-1.265 2.231 0 .659.222 1.188.667 1.587.46.399 1.119.598 1.978.598ZM315.889 546.9c2.208 0 4.048.774 5.52 2.323 1.487 1.549 2.231 3.458 2.231 5.727s-.744 4.178-2.231 5.727c-1.472 1.549-3.312 2.323-5.52 2.323h-6.394v-16.1h6.394Zm0 13.064c1.395 0 2.53-.46 3.404-1.38.874-.935 1.311-2.147 1.311-3.634s-.437-2.691-1.311-3.611c-.874-.935-2.009-1.403-3.404-1.403h-3.22v10.028h3.22Zm12.371-1.495c.399 1.441 1.48 2.162 3.243 2.162 1.135 0 1.994-.383 2.576-1.15l2.392 1.38c-1.134 1.641-2.806 2.461-5.014 2.461-1.901 0-3.427-.575-4.577-1.725-1.15-1.15-1.725-2.599-1.725-4.347 0-1.733.568-3.174 1.702-4.324 1.135-1.165 2.592-1.748 4.37-1.748 1.687 0 3.075.583 4.163 1.748 1.104 1.165 1.656 2.607 1.656 4.324 0 .383-.038.79-.115 1.219h-8.671Zm-.046-2.3h5.865c-.168-.782-.521-1.365-1.058-1.748a2.95 2.95 0 0 0-1.794-.575c-.797 0-1.456.207-1.978.621-.521.399-.866.966-1.035 1.702Zm18.022-4.669h3.266l-4.37 11.5h-3.381l-4.37-11.5h3.266l2.783 8.05 2.806-8.05Zm6.754 6.969c.399 1.441 1.48 2.162 3.243 2.162 1.135 0 1.993-.383 2.576-1.15l2.392 1.38c-1.135 1.641-2.806 2.461-5.014 2.461-1.901 0-3.427-.575-4.577-1.725-1.15-1.15-1.725-2.599-1.725-4.347 0-1.733.567-3.174 1.702-4.324 1.135-1.165 2.591-1.748 4.37-1.748 1.687 0 3.074.583 4.163 1.748 1.104 1.165 1.656 2.607 1.656 4.324 0 .383-.038.79-.115 1.219h-8.671Zm-.046-2.3h5.865c-.169-.782-.521-1.365-1.058-1.748a2.95 2.95 0 0 0-1.794-.575c-.797 0-1.457.207-1.978.621-.521.399-.866.966-1.035 1.702ZM363.847 563v-16.79h2.967V563h-2.967Zm15.481-1.426c-1.181 1.165-2.622 1.748-4.324 1.748s-3.143-.583-4.324-1.748c-1.165-1.181-1.748-2.622-1.748-4.324s.583-3.136 1.748-4.301c1.181-1.181 2.622-1.771 4.324-1.771s3.143.59 4.324 1.771c1.181 1.165 1.771 2.599 1.771 4.301s-.59 3.143-1.771 4.324Zm-6.555-2.047c.598.598 1.342.897 2.231.897.889 0 1.633-.299 2.231-.897.598-.598.897-1.357.897-2.277 0-.92-.299-1.679-.897-2.277-.598-.598-1.342-.897-2.231-.897-.889 0-1.633.299-2.231.897-.583.598-.874 1.357-.874 2.277 0 .92.291 1.679.874 2.277Zm17.106-8.349c1.549 0 2.867.59 3.956 1.771 1.104 1.165 1.656 2.599 1.656 4.301s-.552 3.143-1.656 4.324c-1.089 1.165-2.407 1.748-3.956 1.748-1.61 0-2.852-.56-3.726-1.679v5.957h-2.967v-16.1h2.967v1.357c.874-1.119 2.116-1.679 3.726-1.679Zm-2.829 8.418c.598.598 1.357.897 2.277.897.92 0 1.679-.299 2.277-.897.613-.613.92-1.395.92-2.346 0-.951-.307-1.725-.92-2.323-.598-.613-1.357-.92-2.277-.92-.92 0-1.679.307-2.277.92-.598.598-.897 1.372-.897 2.323 0 .951.299 1.733.897 2.346Zm23.253-8.418c1.318 0 2.369.429 3.151 1.288.797.859 1.196 2.009 1.196 3.45V563h-2.967v-6.877c0-.69-.169-1.227-.506-1.61-.338-.383-.813-.575-1.426-.575-.675 0-1.204.222-1.587.667-.368.445-.552 1.089-.552 1.932V563h-2.967v-6.877c0-.69-.169-1.227-.506-1.61-.338-.383-.813-.575-1.426-.575-.66 0-1.189.222-1.587.667-.384.445-.575 1.089-.575 1.932V563h-2.967v-11.5h2.967v1.219c.69-1.027 1.755-1.541 3.197-1.541 1.41 0 2.453.552 3.128 1.656.766-1.104 1.909-1.656 3.427-1.656Zm9.374 7.291c.398 1.441 1.479 2.162 3.243 2.162 1.134 0 1.993-.383 2.576-1.15l2.392 1.38c-1.135 1.641-2.806 2.461-5.014 2.461-1.902 0-3.427-.575-4.577-1.725-1.15-1.15-1.726-2.599-1.726-4.347 0-1.733.568-3.174 1.703-4.324 1.134-1.165 2.591-1.748 4.37-1.748 1.686 0 3.074.583 4.163 1.748 1.104 1.165 1.656 2.607 1.656 4.324 0 .383-.039.79-.115 1.219h-8.671Zm-.046-2.3h5.865c-.169-.782-.522-1.365-1.058-1.748a2.954 2.954 0 0 0-1.794-.575c-.798 0-1.457.207-1.978.621-.522.399-.867.966-1.035 1.702Zm17.297-4.991c1.257 0 2.292.422 3.105 1.265.828.843 1.242 2.009 1.242 3.496V563h-2.967v-6.693c0-.767-.207-1.349-.621-1.748-.414-.414-.966-.621-1.656-.621-.767 0-1.38.238-1.84.713-.46.475-.69 1.188-.69 2.139V563h-2.967v-11.5h2.967v1.288c.72-1.073 1.863-1.61 3.427-1.61Zm13.458 3.174h-2.599v4.784c0 .399.1.69.299.874.2.184.491.291.874.322.384.015.859.008 1.426-.023V563c-2.039.23-3.48.038-4.324-.575-.828-.613-1.242-1.71-1.242-3.289v-4.784h-2.001V551.5h2.001v-2.323l2.967-.897v3.22h2.599v2.852Z"/><path fill="#181818" d="M150.498 688.9c1.549 0 2.852.521 3.91 1.564 1.058 1.043 1.587 2.323 1.587 3.841 0 1.518-.529 2.798-1.587 3.841-1.058 1.043-2.361 1.564-3.91 1.564h-2.829V705h-3.174v-16.1h6.003Zm0 7.843c.675 0 1.234-.23 1.679-.69.445-.475.667-1.058.667-1.748 0-.705-.222-1.288-.667-1.748-.445-.46-1.004-.69-1.679-.69h-2.829v4.876h2.829Zm10.145-1.265c.276-.736.729-1.288 1.357-1.656a4.235 4.235 0 0 1 2.139-.552v3.312c-.904-.107-1.717.077-2.438.552-.705.475-1.058 1.265-1.058 2.369V705h-2.967v-11.5h2.967v1.978Zm14.603 8.096c-1.181 1.165-2.622 1.748-4.324 1.748s-3.144-.583-4.324-1.748c-1.166-1.181-1.748-2.622-1.748-4.324s.582-3.136 1.748-4.301c1.18-1.181 2.622-1.771 4.324-1.771s3.143.59 4.324 1.771c1.18 1.165 1.771 2.599 1.771 4.301s-.591 3.143-1.771 4.324Zm-6.555-2.047c.598.598 1.341.897 2.231.897.889 0 1.633-.299 2.231-.897.598-.598.897-1.357.897-2.277 0-.92-.299-1.679-.897-2.277-.598-.598-1.342-.897-2.231-.897-.89 0-1.633.299-2.231.897-.583.598-.874 1.357-.874 2.277 0 .92.291 1.679.874 2.277Zm19.13-12.627h2.967V705h-2.967v-1.357c-.874 1.119-2.116 1.679-3.726 1.679-1.549 0-2.875-.583-3.979-1.748-1.089-1.181-1.633-2.622-1.633-4.324s.544-3.136 1.633-4.301c1.104-1.181 2.43-1.771 3.979-1.771 1.61 0 2.852.56 3.726 1.679V688.9Zm-5.474 12.696c.613.598 1.38.897 2.3.897.92 0 1.679-.299 2.277-.897.598-.613.897-1.395.897-2.346 0-.951-.299-1.725-.897-2.323-.598-.613-1.357-.92-2.277-.92-.92 0-1.687.307-2.3.92-.598.598-.897 1.372-.897 2.323 0 .951.299 1.733.897 2.346Zm18.745-8.096h2.967V705h-2.967v-1.288c-.721 1.073-1.863 1.61-3.427 1.61-1.258 0-2.3-.422-3.128-1.265-.813-.843-1.219-2.009-1.219-3.496V693.5h2.967v6.693c0 .767.207 1.357.621 1.771.414.399.966.598 1.656.598.766 0 1.38-.238 1.84-.713.46-.475.69-1.188.69-2.139v-6.21Zm11.158 11.822c-1.733 0-3.182-.583-4.347-1.748-1.15-1.165-1.725-2.607-1.725-4.324 0-1.717.575-3.159 1.725-4.324 1.165-1.165 2.614-1.748 4.347-1.748 1.119 0 2.139.268 3.059.805.92.537 1.618 1.257 2.093 2.162l-2.553 1.495a2.589 2.589 0 0 0-1.058-1.127 2.98 2.98 0 0 0-1.564-.414c-.889 0-1.625.299-2.208.897-.583.583-.874 1.334-.874 2.254 0 .905.291 1.656.874 2.254.583.583 1.319.874 2.208.874.598 0 1.127-.13 1.587-.391a2.589 2.589 0 0 0 1.058-1.127l2.576 1.472a5.843 5.843 0 0 1-2.139 2.185c-.92.537-1.94.805-3.059.805Zm13.345-8.97h-2.599v4.784c0 .399.1.69.299.874.199.184.491.291.874.322.383.015.859.008 1.426-.023V705c-2.039.23-3.481.038-4.324-.575-.828-.613-1.242-1.71-1.242-3.289v-4.784h-2.001V693.5h2.001v-2.323l2.967-.897v3.22h2.599v2.852ZM153.327 733l-3.243-5.589h-2.415V733h-3.174v-16.1h6.44c1.487 0 2.752.521 3.795 1.564 1.043 1.043 1.564 2.3 1.564 3.772 0 .997-.284 1.924-.851 2.783a5.356 5.356 0 0 1-2.254 1.909l3.565 6.072h-3.427Zm-5.658-13.133v4.761h3.266c.598 0 1.112-.23 1.541-.69a2.454 2.454 0 0 0 .644-1.702c0-.659-.215-1.219-.644-1.679-.429-.46-.943-.69-1.541-.69h-3.266Zm12.739 8.602c.399 1.441 1.48 2.162 3.243 2.162 1.135 0 1.993-.383 2.576-1.15l2.392 1.38c-1.135 1.641-2.806 2.461-5.014 2.461-1.901 0-3.427-.575-4.577-1.725-1.15-1.15-1.725-2.599-1.725-4.347 0-1.733.567-3.174 1.702-4.324 1.135-1.165 2.591-1.748 4.37-1.748 1.687 0 3.074.583 4.163 1.748 1.104 1.165 1.656 2.607 1.656 4.324 0 .383-.038.79-.115 1.219h-8.671Zm-.046-2.3h5.865c-.169-.782-.521-1.365-1.058-1.748a2.95 2.95 0 0 0-1.794-.575c-.797 0-1.457.207-1.978.621-.521.399-.866.966-1.035 1.702ZM171.265 733v-16.79h2.967V733h-2.967Zm8.19-4.531c.398 1.441 1.479 2.162 3.243 2.162 1.134 0 1.993-.383 2.576-1.15l2.392 1.38c-1.135 1.641-2.806 2.461-5.014 2.461-1.902 0-3.427-.575-4.577-1.725-1.15-1.15-1.725-2.599-1.725-4.347 0-1.733.567-3.174 1.702-4.324 1.134-1.165 2.591-1.748 4.37-1.748 1.686 0 3.074.583 4.163 1.748 1.104 1.165 1.656 2.607 1.656 4.324 0 .383-.039.79-.115 1.219h-8.671Zm-.046-2.3h5.865c-.169-.782-.522-1.365-1.058-1.748a2.954 2.954 0 0 0-1.794-.575c-.798 0-1.457.207-1.978.621-.522.399-.867.966-1.035 1.702Zm19.553-4.669h2.967V733h-2.967v-1.357c-.889 1.119-2.139 1.679-3.749 1.679-1.533 0-2.852-.583-3.956-1.748-1.088-1.181-1.633-2.622-1.633-4.324s.545-3.136 1.633-4.301c1.104-1.181 2.423-1.771 3.956-1.771 1.61 0 2.86.56 3.749 1.679V721.5Zm-5.474 8.096c.598.598 1.357.897 2.277.897.92 0 1.679-.299 2.277-.897.614-.613.92-1.395.92-2.346 0-.951-.306-1.725-.92-2.323-.598-.613-1.357-.92-2.277-.92-.92 0-1.679.307-2.277.92-.598.598-.897 1.372-.897 2.323 0 .951.299 1.733.897 2.346Zm13.779-4.83c0 .307.199.56.598.759.414.184.912.353 1.495.506.583.138 1.165.322 1.748.552a3.243 3.243 0 0 1 1.472 1.104c.414.521.621 1.173.621 1.955 0 1.181-.445 2.093-1.334 2.737-.874.629-1.97.943-3.289.943-2.361 0-3.971-.912-4.83-2.737l2.576-1.449c.337.997 1.089 1.495 2.254 1.495 1.058 0 1.587-.33 1.587-.989 0-.307-.207-.552-.621-.736a7.705 7.705 0 0 0-1.472-.529 15.444 15.444 0 0 1-1.748-.575 3.712 3.712 0 0 1-1.495-1.081c-.399-.506-.598-1.135-.598-1.886 0-1.135.414-2.024 1.242-2.668.843-.659 1.886-.989 3.128-.989.935 0 1.786.215 2.553.644a4.544 4.544 0 0 1 1.817 1.794l-2.53 1.38c-.368-.782-.981-1.173-1.84-1.173-.383 0-.705.084-.966.253a.796.796 0 0 0-.368.69Zm10.192 3.703c.398 1.441 1.479 2.162 3.243 2.162 1.134 0 1.993-.383 2.576-1.15l2.392 1.38c-1.135 1.641-2.806 2.461-5.014 2.461-1.902 0-3.427-.575-4.577-1.725-1.15-1.15-1.725-2.599-1.725-4.347 0-1.733.567-3.174 1.702-4.324 1.134-1.165 2.591-1.748 4.37-1.748 1.686 0 3.074.583 4.163 1.748 1.104 1.165 1.656 2.607 1.656 4.324 0 .383-.039.79-.115 1.219h-8.671Zm-.046-2.3h5.865c-.169-.782-.522-1.365-1.058-1.748a2.954 2.954 0 0 0-1.794-.575c-.798 0-1.457.207-1.978.621-.522.399-.867.966-1.035 1.702ZM350.498 880.9c1.549 0 2.852.521 3.91 1.564 1.058 1.043 1.587 2.323 1.587 3.841 0 1.518-.529 2.798-1.587 3.841-1.058 1.043-2.361 1.564-3.91 1.564h-2.829V897h-3.174v-16.1h6.003Zm0 7.843c.675 0 1.234-.23 1.679-.69.445-.475.667-1.058.667-1.748 0-.705-.222-1.288-.667-1.748-.445-.46-1.004-.69-1.679-.69h-2.829v4.876h2.829Zm10.145-1.265c.276-.736.729-1.288 1.357-1.656a4.235 4.235 0 0 1 2.139-.552v3.312c-.904-.107-1.717.077-2.438.552-.705.475-1.058 1.265-1.058 2.369V897h-2.967v-11.5h2.967v1.978Zm14.603 8.096c-1.181 1.165-2.622 1.748-4.324 1.748s-3.144-.583-4.324-1.748c-1.166-1.181-1.748-2.622-1.748-4.324s.582-3.136 1.748-4.301c1.18-1.181 2.622-1.771 4.324-1.771s3.143.59 4.324 1.771c1.18 1.165 1.771 2.599 1.771 4.301s-.591 3.143-1.771 4.324Zm-6.555-2.047c.598.598 1.341.897 2.231.897.889 0 1.633-.299 2.231-.897.598-.598.897-1.357.897-2.277 0-.92-.299-1.679-.897-2.277-.598-.598-1.342-.897-2.231-.897-.89 0-1.633.299-2.231.897-.583.598-.874 1.357-.874 2.277 0 .92.291 1.679.874 2.277Zm19.13-12.627h2.967V897h-2.967v-1.357c-.874 1.119-2.116 1.679-3.726 1.679-1.549 0-2.875-.583-3.979-1.748-1.089-1.181-1.633-2.622-1.633-4.324s.544-3.136 1.633-4.301c1.104-1.181 2.43-1.771 3.979-1.771 1.61 0 2.852.56 3.726 1.679V880.9Zm-5.474 12.696c.613.598 1.38.897 2.3.897.92 0 1.679-.299 2.277-.897.598-.613.897-1.395.897-2.346 0-.951-.299-1.725-.897-2.323-.598-.613-1.357-.92-2.277-.92-.92 0-1.687.307-2.3.92-.598.598-.897 1.372-.897 2.323 0 .951.299 1.733.897 2.346Zm18.745-8.096h2.967V897h-2.967v-1.288c-.721 1.073-1.863 1.61-3.427 1.61-1.258 0-2.3-.422-3.128-1.265-.813-.843-1.219-2.009-1.219-3.496V885.5h2.967v6.693c0 .767.207 1.357.621 1.771.414.399.966.598 1.656.598.766 0 1.38-.238 1.84-.713.46-.475.69-1.188.69-2.139v-6.21Zm11.158 11.822c-1.733 0-3.182-.583-4.347-1.748-1.15-1.165-1.725-2.607-1.725-4.324 0-1.717.575-3.159 1.725-4.324 1.165-1.165 2.614-1.748 4.347-1.748 1.119 0 2.139.268 3.059.805.92.537 1.618 1.257 2.093 2.162l-2.553 1.495a2.589 2.589 0 0 0-1.058-1.127 2.98 2.98 0 0 0-1.564-.414c-.889 0-1.625.299-2.208.897-.583.583-.874 1.334-.874 2.254 0 .905.291 1.656.874 2.254.583.583 1.319.874 2.208.874.598 0 1.127-.13 1.587-.391a2.589 2.589 0 0 0 1.058-1.127l2.576 1.472a5.843 5.843 0 0 1-2.139 2.185c-.92.537-1.94.805-3.059.805Zm13.345-8.97h-2.599v4.784c0 .399.1.69.299.874.199.184.491.291.874.322.383.015.859.008 1.426-.023V897c-2.039.23-3.481.038-4.324-.575-.828-.613-1.242-1.71-1.242-3.289v-4.784h-2.001V885.5h2.001v-2.323l2.967-.897v3.22h2.599v2.852Zm-65.299 28v1.242c0 2.3-.736 4.163-2.208 5.589-1.472 1.426-3.373 2.139-5.704 2.139-2.484 0-4.546-.805-6.187-2.415-1.625-1.625-2.438-3.603-2.438-5.934 0-2.346.805-4.332 2.415-5.957 1.625-1.625 3.634-2.438 6.026-2.438 1.503 0 2.875.345 4.117 1.035 1.242.675 2.208 1.579 2.898 2.714l-2.714 1.564c-.383-.659-.966-1.196-1.748-1.61-.767-.414-1.625-.621-2.576-.621-1.533 0-2.798.506-3.795 1.518-.981.997-1.472 2.262-1.472 3.795 0 1.518.498 2.775 1.495 3.772 1.012.981 2.346 1.472 4.002 1.472 1.227 0 2.239-.268 3.036-.805a4.093 4.093 0 0 0 1.656-2.254h-4.876v-2.806h8.073Zm5.087-.874c.276-.736.728-1.288 1.357-1.656a4.235 4.235 0 0 1 2.139-.552v3.312c-.905-.107-1.718.077-2.438.552-.706.475-1.058 1.265-1.058 2.369V925h-2.967v-11.5h2.967v1.978Zm14.602 8.096c-1.181 1.165-2.622 1.748-4.324 1.748s-3.143-.583-4.324-1.748c-1.165-1.181-1.748-2.622-1.748-4.324s.583-3.136 1.748-4.301c1.181-1.181 2.622-1.771 4.324-1.771s3.143.59 4.324 1.771c1.181 1.165 1.771 2.599 1.771 4.301s-.59 3.143-1.771 4.324Zm-6.555-2.047c.598.598 1.342.897 2.231.897.889 0 1.633-.299 2.231-.897.598-.598.897-1.357.897-2.277 0-.92-.299-1.679-.897-2.277-.598-.598-1.342-.897-2.231-.897-.889 0-1.633.299-2.231.897-.583.598-.874 1.357-.874 2.277 0 .92.291 1.679.874 2.277Zm22.913-8.027h3.151l-3.657 11.5h-2.829l-2.116-6.969-2.116 6.969h-2.829l-3.657-11.5h3.151l1.955 7.061 2.093-7.061h2.806l2.093 7.084 1.955-7.084Zm11.328 2.852h-2.599v4.784c0 .399.1.69.299.874.2.184.491.291.874.322.384.015.859.008 1.426-.023V925c-2.039.23-3.48.038-4.324-.575-.828-.613-1.242-1.71-1.242-3.289v-4.784h-2.001V913.5h2.001v-2.323l2.967-.897v3.22h2.599v2.852Zm8.486-3.174c1.258 0 2.293.422 3.105 1.265.828.843 1.242 2.009 1.242 3.496V925h-2.967v-6.693c0-.767-.207-1.349-.621-1.748-.414-.414-.966-.621-1.656-.621-.766 0-1.38.238-1.84.713-.46.475-.69 1.188-.69 2.139V925h-2.967v-16.1h2.967v5.888c.721-1.073 1.863-1.61 3.427-1.61Z"/><path fill="#777" d="M311.539 123.616a4.918 4.918 0 0 1-.862-3.059c.007-.254.008-.509.008-.762.002-13.21-.001-26.419-.008-39.628a6.468 6.468 0 0 1 2.191-5.202 6.433 6.433 0 0 1 4.345-1.526c2.278-.013 2.284-.017 2.284 2.23v6.984h41.39v-7.704c0-1.274.239-1.483 1.542-1.513a7.188 7.188 0 0 1 4.657 1.185 6.406 6.406 0 0 1 2.622 5.504c-.017 11.174-.019 22.347-.006 33.52 0 2.374.022 4.748.027 7.123a4.907 4.907 0 0 1-4.465 4.936 9.505 9.505 0 0 1-.954.046h-14.828c-11.144 0-22.289.002-33.433.007h-.006a5.104 5.104 0 0 1-4.504-2.141Zm53.311.272a3.037 3.037 0 0 0 2.971-3.035 2.967 2.967 0 0 0-1.858-2.758 2.976 2.976 0 0 0-1.15-.213 49.11 49.11 0 0 0-1.673-.01h-.748c-1.274 0-1.511-.243-1.511-1.538v-31.74h-41.383v31.86c0 1.144-.287 1.427-1.433 1.431h-.856c-.607 0-1.214-.007-1.821.014a2.955 2.955 0 0 0-2.798 3.387c.25 1.627 1.488 2.607 3.308 2.607h48.571c.126-.002.253.001.381-.005Zm.54-7.832c.837.196 1.657.458 2.453.782v-.385c0-12.169-.002-24.338-.005-36.507a6.56 6.56 0 0 0-.108-1.136 4.349 4.349 0 0 0-4.929-3.428v40.646c.546 0 1.08-.037 1.601-.037.332-.005.663.017.991.065h-.003Zm-52.852-36.05a44092.08 44092.08 0 0 0 0 36.369c0 .179.016.358.021.462a15.772 15.772 0 0 1 2.419-.776c.87-.077 1.744-.086 2.615-.029V75.361c-.21-.026-.42-.04-.631-.04a4.42 4.42 0 0 0-4.424 4.684Zm27.634 41.1c-.598 0-.906-.366-.926-1.119-.012-.546 0-1.093 0-1.633a14.371 14.371 0 0 1-13.242-13.211c-.601 0-1.211.023-1.818-.007-.496-.023-.926-.296-.906-.797.082-.369.27-.706.54-.97.068-.085.258-.082.428-.077h.119c.548-.01 1.097 0 1.673 0a14.042 14.042 0 0 1 2.282-6.767 13.898 13.898 0 0 1 10.39-6.336c.431-.048.595-.191.564-.626-.027-.445-.026-.89.004-1.334a.897.897 0 0 1 .57-.861.889.889 0 0 1 .359-.06.875.875 0 0 1 .888.897c.025.465.027.932.005 1.398-.028.421.154.54.545.578a14.027 14.027 0 0 1 12.194 10.361c.238.874.365 1.778.559 2.747.52 0 1.087-.007 1.655 0 .655.01 1.073.368 1.08.91a.975.975 0 0 1-.315.709.965.965 0 0 1-.735.246c-.568.02-1.138.005-1.672.005-1.193 7.699-5.594 12.082-13.318 13.257 0 .486.006 1.032 0 1.578-.01.745-.317 1.111-.916 1.111l-.007.001Zm.92-6.346c.012.54 0 1.079 0 1.619 5.918-.201 11.127-5.51 11.273-11.219-.548 0-1.097.018-1.644-.005a.933.933 0 0 1-.949-.592.947.947 0 0 1 .028-.758.92.92 0 0 1 .944-.513c.547-.011 1.096 0 1.639 0 .278-5.245-6.35-11.828-11.221-11.207-.011.018-.032.035-.033.053-.009.508-.01 1.017-.025 1.525-.02.653-.386 1.075-.919 1.076-.533 0-.903-.421-.918-1.075-.012-.54 0-1.08 0-1.626a12.15 12.15 0 0 0-11.285 11.25c.592 0 1.183-.016 1.774.005a.89.89 0 0 1 .68.287.89.89 0 0 1 .226.703c-.044.524-.419.837-1.074.86-.539.018-1.084 0-1.63 0 .484 6.885 6.496 11.166 11.291 11.207 0-.544-.017-1.091.004-1.635.027-.653.354-.995.91-1.003h.017c.57.008.897.371.912 1.048Zm-.935-2.616a7.887 7.887 0 0 1-7.853-7.901 7.881 7.881 0 0 1 7.884-7.869 7.884 7.884 0 0 1 .032 15.77h-.063Zm-6.029-7.927a6.059 6.059 0 0 0 7.223 5.969 6.062 6.062 0 0 0 4.442-8.25 6.053 6.053 0 0 0-5.589-3.757h-.009a6.039 6.039 0 0 0-6.067 6.038Zm-187.014 197.72a1.071 1.071 0 0 1-.36-.309 1.066 1.066 0 0 1-.194-.434c-.068-1.048-.059-2.1.027-3.146a3.045 3.045 0 0 1 2.454-2.741c.559-.143 1.124-.262 1.746-.405a4.865 4.865 0 0 1-.711-5.186 4.861 4.861 0 0 1 7.026-2.066 4.87 4.87 0 0 1 2.21 4.745 4.869 4.869 0 0 1-1.104 2.493c.489.118.944.233 1.402.336a3.275 3.275 0 0 1 2.141 1.191c.532.66.787 1.5.712 2.345 0 .75.011 1.503 0 2.252-.012.618-.301.958-.788.97-.513.012-.822-.341-.832-.982-.012-.826.005-1.653-.007-2.479a1.576 1.576 0 0 0-1.339-1.689 60.13 60.13 0 0 0-2.688-.588 1.495 1.495 0 0 0-.705.07 5.02 5.02 0 0 1-3.204 0 1.252 1.252 0 0 0-.593-.086 58.257 58.257 0 0 0-3.013.675 1.464 1.464 0 0 0-1.132 1.496c-.018.881.005 1.764-.013 2.647-.012.553-.344.954-.746.954a.672.672 0 0 1-.289-.063Zm7.37-13.441a3.246 3.246 0 0 0-3.24 3.253 3.251 3.251 0 0 0 3.249 3.243 3.247 3.247 0 0 0 .009-6.496h-.018Zm10.613 12.558c-.007-.882-.007-1.765 0-2.648a3.144 3.144 0 0 1 2.357-3.062c.593-.159 1.197-.28 1.853-.432-1.62-2.823-1.377-5.246.645-6.9a4.82 4.82 0 0 1 6.257.058 4.937 4.937 0 0 1 .559 6.829c.492.115.949.232 1.41.332a3.207 3.207 0 0 1 2.807 3.499c0 .789.006 1.577 0 2.365-.005.563-.306.892-.788.891-.481-.002-.777-.33-.781-.897-.009-.826 0-1.652 0-2.478a1.672 1.672 0 0 0-1.447-1.798c-.84-.193-1.679-.392-2.525-.549a1.76 1.76 0 0 0-.815.064 5.057 5.057 0 0 1-3.153 0 1.074 1.074 0 0 0-.482-.117c-1.134.244-2.278.458-3.385.797a1.459 1.459 0 0 0-.931 1.532c-.012.845 0 1.69-.006 2.535-.005.579-.29.901-.772.911h-.019c-.486 0-.781-.339-.784-.932Zm7.911-12.563a3.218 3.218 0 0 0-2.249 5.495 3.221 3.221 0 0 0 4.542 0 3.219 3.219 0 0 0 .015-4.541 3.218 3.218 0 0 0-2.264-.954h-.044Zm-29.923 13.495a.76.76 0 0 1-.731-.537.767.767 0 0 1-.032-.319c-.011-.826 0-1.653-.006-2.479a1.68 1.68 0 0 0-1.46-1.84c-.84-.193-1.678-.393-2.525-.549a1.788 1.788 0 0 0-.815.073 5.029 5.029 0 0 1-3.153-.015c-.141-.048-.299-.143-.427-.114-1.168.257-2.35.477-3.488.836-.29.123-.533.337-.69.61a1.444 1.444 0 0 0-.178.903c-.007.826 0 1.653 0 2.478 0 .615-.29.952-.784.953-.494 0-.786-.333-.794-.948v-2.644a3.127 3.127 0 0 1 2.37-3.049c.592-.158 1.193-.28 1.851-.434a4.938 4.938 0 0 1 .51-6.799 4.833 4.833 0 0 1 6.3-.096c2.019 1.64 2.262 4.051.652 6.892.483.114.945.228 1.411.33a3.216 3.216 0 0 1 2.798 3.457c0 .806.009 1.614 0 2.421a.786.786 0 0 1-.788.876l-.021-.006Zm-10.366-10.285a3.23 3.23 0 1 0 3.231-3.211h-.009a3.236 3.236 0 0 0-3.222 3.211Zm-.386-6.64c-.997 0-1.238-.235-1.238-1.22v-11.828c-.345 0-.622.009-.898 0a2.248 2.248 0 0 1-2.19-2.26c-.005-3.046-.005-6.089-.005-9.131a3.185 3.185 0 0 1 2.682-3.263c.508-.107 1.014-.23 1.536-.348-1.641-2.776-1.393-5.24.651-6.911a4.864 4.864 0 0 1 6.302.118 4.927 4.927 0 0 1 .482 6.78l1.575.364a3.188 3.188 0 0 1 2.661 3.338c0 2.894-.051 5.788.022 8.674a2.42 2.42 0 0 1-.695 1.943 2.435 2.435 0 0 1-1.941.704 4.308 4.308 0 0 0-.482.021v11.751c0 1.036-.227 1.264-1.249 1.264h-7.21l-.003.004Zm-.868-14.626c1.034 0 1.254.216 1.254 1.248v11.758h1.861c.164 0 .328-.02.558-.036v-11.618c0-.17-.009-.339.007-.507a.812.812 0 0 1 .803-.837.814.814 0 0 1 .581.244.802.802 0 0 1 .228.588c.016.168.007.337.007.507v11.612h2.42v-11.93c0-.744.289-1.023 1.017-1.028h1.24c.587-.013.869-.274.869-.861.007-2.986.007-5.973 0-8.959a1.622 1.622 0 0 0-1.371-1.679 65.73 65.73 0 0 0-2.636-.568 1.623 1.623 0 0 0-.752.049 3.87 3.87 0 0 1-2.484.159 4.59 4.59 0 0 0-2.895.097c-.361.096-.73.166-1.096.246a1.664 1.664 0 0 0-1.495 1.857c-.005 1.521 0 3.044 0 4.564v4.169c0 .659.269.914.923.925h.961Zm1.254-16.593a3.227 3.227 0 0 0 3.867 3.145 3.23 3.23 0 0 0-.619-6.397h-.013a3.247 3.247 0 0 0-2.992 2.01 3.245 3.245 0 0 0-.243 1.242Zm28.649 29.543a2.513 2.513 0 0 1-.023-1.789 2.512 2.512 0 0 1 1.175-1.348.72.72 0 0 0 .449-.782c-.027-.651-.007-1.306-.007-2.026h-13.508c-.996 0-1.177-.181-1.177-1.185v-22.217c-.299-.012-.571-.022-.843-.037-.591-.035-.886-.29-.898-.861a72.797 72.797 0 0 1 .001-3.271c.014-.612.331-.856 1.007-.857h32.291c.946 0 1.15.204 1.15 1.153v2.817c0 .756-.244.999-1.01 1.02-.203.004-.407 0-.694 0v22.167c0 1.075-.193 1.266-1.283 1.266H164.56c0 .837-.019 1.586.018 2.332.007.145.21.322.365.411a2.609 2.609 0 0 1 1.372 2.684 2.556 2.556 0 0 1-2.056 2.122 2.417 2.417 0 0 1-.509.053 2.56 2.56 0 0 1-2.382-1.652Zm1.447-.919a.92.92 0 0 0 .95.964.973.973 0 0 0 .905-.582.973.973 0 0 0 .079-.369 1.02 1.02 0 0 0-.972-.984h-.009a.977.977 0 0 0-.954.971h.001Zm-12.909-6.657h27.723v-21.777h-27.725l.002 21.777Zm-1.725-23.443h31.186v-1.736h-31.188l.002 1.736Zm14.183 21.031a.749.749 0 0 1-.784-.84 5.068 5.068 0 0 1 0-.675c.044-.361-.119-.516-.435-.666a.528.528 0 0 0-.721.182c-.15.17-.311.329-.482.478a.82.82 0 0 1-.971.194.815.815 0 0 1-.276-.218 83.366 83.366 0 0 1-1.833-1.833.804.804 0 0 1-.25-.994.794.794 0 0 1 .232-.285 4.24 4.24 0 0 1 .444-.445.562.562 0 0 0 .193-.762.584.584 0 0 0-.69-.392 4.487 4.487 0 0 1-.676 0 .81.81 0 0 1-.319-.056.817.817 0 0 1-.27-.179.803.803 0 0 1-.227-.593 74.689 74.689 0 0 1 0-2.76.746.746 0 0 1 .206-.571.762.762 0 0 1 .255-.176.762.762 0 0 1 .305-.057 3.73 3.73 0 0 1 .732-.009c.38.045.551-.107.708-.456.156-.35 0-.507-.205-.712-1.025-1.027-1.023-1.129 0-2.153.451-.451.897-.907 1.357-1.35a.827.827 0 0 1 1.065-.255.82.82 0 0 1 .296.262c.141.124.274.257.397.4a.542.542 0 0 0 .569.249.532.532 0 0 0 .202-.082.571.571 0 0 0 .4-.627c0-1.52.047-1.552 1.544-1.552.638 0 1.277-.007 1.916 0a.836.836 0 0 1 .7.235.827.827 0 0 1 .239.699c.017.206.017.414 0 .62-.053.37.135.509.448.651.314.142.47.026.676-.173 1.088-1.072 1.151-1.069 2.235.016.437.439.889.868 1.308 1.32.171.231.321.476.447.733-.276.336-.519.651-.781.949-.205.232-.454.38-.267.803a.663.663 0 0 0 .791.421c.187-.011.376 0 .564 0a.754.754 0 0 1 .601.204.759.759 0 0 1 .236.589c.024.938.024 1.877 0 2.816a.775.775 0 0 1-.525.754.782.782 0 0 1-.322.041c-.224.021-.45.021-.675 0-.354-.045-.521.096-.667.424a.541.541 0 0 0 .193.722c.183.162.355.336.515.52a.747.747 0 0 1 .244.556.756.756 0 0 1-.244.555 57.055 57.055 0 0 1-1.949 1.956.804.804 0 0 1-.603.269.786.786 0 0 1-.6-.276 5.656 5.656 0 0 1-.439-.437c-.21-.232-.386-.386-.763-.227a.609.609 0 0 0-.416.728c.014.206.014.414 0 .62a.772.772 0 0 1-.48.782.778.778 0 0 1-.32.059 56.66 56.66 0 0 1-1.428.018c-.472-.002-.94-.009-1.402-.022l.002.008Zm-.554-3.626a.158.158 0 0 0 .053.018 1.429 1.429 0 0 1 1.371 1.208c.033.219.015.442-.053.653 0 .029.03.064.055.112h1.14c0-.254.013-.477 0-.696a.954.954 0 0 1 .841-1.125 5.177 5.177 0 0 0 1.089-.45c.642-.321.868-.295 1.388.219.168.165.339.324.542.518l.609-.649c.064-.068.123-.14.248-.282-.18-.146-.368-.275-.527-.433-.545-.538-.555-.738-.214-1.433.186-.387.342-.788.469-1.199a.874.874 0 0 1 .901-.693h.914v-1.208h-.649c-.81 0-.945-.118-1.205-.88a9.822 9.822 0 0 0-.519-1.18.841.841 0 0 1 .156-1.115c.225-.193.482-.355.834-.606l-.822-.683-.309-.255c-.17.206-.331.41-.505.605a.898.898 0 0 1-1.254.193 5.856 5.856 0 0 0-1.239-.513.913.913 0 0 1-.747-1.028c.013-.256 0-.514 0-.824h-.627c-.184 0-.363.017-.588.028v.709c0 .721-.155.906-.829 1.14-.424.144-.837.32-1.235.526a.828.828 0 0 1-1.115-.165 7.49 7.49 0 0 1-.525-.772l-1.007 1.042c.204.175.386.309.54.466.536.534.547.707.212 1.383a7.463 7.463 0 0 0-.459 1.142.955.955 0 0 1-1.062.789c-.254-.017-.508 0-.778 0v1.205h.629c.862.009.989.103 1.238.914.024.129.067.253.127.37.642.958.754 1.833-.415 2.482l.931.908a1.408 1.408 0 0 1 1.216-.887 2.18 2.18 0 0 1 1.18.446Zm-1.749-4.859a3.745 3.745 0 0 1 3.71-3.69 3.697 3.697 0 0 1 2.637 6.307 3.698 3.698 0 0 1-2.613 1.092h-.007a3.72 3.72 0 0 1-2.634-1.08 3.718 3.718 0 0 1-1.093-2.628v-.001Zm3.676-2.064a2.03 2.03 0 0 0-1.466.609 2.032 2.032 0 0 0-.585 1.477 2.087 2.087 0 0 0 .614 1.496 2.09 2.09 0 0 0 1.497.611 2.153 2.153 0 0 0 2.074-2.11 2.098 2.098 0 0 0-.626-1.484 2.096 2.096 0 0 0-1.497-.595l-.011-.004Z"/><path fill="#fff" d="M337.156 472.992a1.735 1.735 0 0 1-1.381-.504 1.791 1.791 0 0 1-.516-1.393c-.015-.731-.009-1.464-.014-2.196a.384.384 0 0 0-.034-.109c-1.957-.466-2.516-2.307-1.175-4.312-.776-.742-1.567-1.517-2.387-2.258a.972.972 0 0 0-.591-.109c-3.228-.005-6.456-.007-9.685-.004a2.047 2.047 0 0 1-1.759-.586 2.102 2.102 0 0 1-.504-.818 2.142 2.142 0 0 1-.091-.96v-34.275c0-1.627.76-2.391 2.383-2.391h15.667a2.052 2.052 0 0 1 1.538.401c.441.335.731.834.809 1.387.379 1.324.379 1.324 1.743 1.324h4.615a7.12 7.12 0 0 0-.604-1.016 1.887 1.887 0 0 1-.657-1.485 1.898 1.898 0 0 1 .729-1.451c.281-.288.556-.581.844-.856a1.645 1.645 0 0 1 1.199-.535 1.632 1.632 0 0 1 1.204.523c1.019 1.123 2.272.694 3.255-.074.327-.338.524-.784.554-1.256.161-1.418.769-2.031 2.165-2.034.361 0 .723-.011 1.083 0a1.777 1.777 0 0 1 1.29.524 1.818 1.818 0 0 1 .53 1.304 1.81 1.81 0 0 0 .255 1.101c.2.329.5.584.854.726.942.418 1.815.617 2.656-.257a1.686 1.686 0 0 1 1.966-.417c.218.099.413.244.573.425.33.318.658.642.964.983.177.17.318.376.413.604a1.835 1.835 0 0 1-.013 1.439 1.79 1.79 0 0 1-.423.597c-.819.821-.637 1.669-.247 2.593.133.363.376.674.693.889a1.8 1.8 0 0 0 1.073.311c.258-.015.517.028.757.126s.456.247.633.439a1.83 1.83 0 0 1 .468 1.442 12.84 12.84 0 0 1-.085 1.557 1.72 1.72 0 0 1-.56 1.107 1.673 1.673 0 0 1-1.149.43 1.774 1.774 0 0 0-1.092.247 1.81 1.81 0 0 0-.736.854c-.415.963-.654 1.869.245 2.741a1.722 1.722 0 0 1 .554 1.263 1.747 1.747 0 0 1-.542 1.269c-.338.365-.687.719-1.048 1.063a1.621 1.621 0 0 1-2.402.036c-1.018-1.106-2.157-.784-3.103-.085a1.963 1.963 0 0 0-.771 1.417c-.104.457-.239.906-.404 1.343a2.689 2.689 0 0 0-.129.717c-.007 4.968.007 9.941-.022 14.912a3.438 3.438 0 0 1-.413 1.572 1.816 1.816 0 0 1-1.714.828h-1.647c-1.182 0-2.359 0-3.537-.01a1.24 1.24 0 0 0-1.039.428c-.643.705-1.342 1.358-2.032 2.045 1.345 1.748.687 3.896-1.258 4.197 0 .755.005 1.522 0 2.288a1.787 1.787 0 0 1-.503 1.427 1.738 1.738 0 0 1-1.407.512 1012.153 1012.153 0 0 1-6.038 0Zm-.381-1.923a.572.572 0 0 0 .391.398c2.008.026 4.014.024 6.022.007.142 0 .402-.172.407-.267.035-.736.018-1.475.018-2.214h-6.856c0 .737-.025 1.41.018 2.078v-.002Zm-1.919-4.631c.01.458-.011.817.641.8 1.574-.042 3.15-.013 4.728-.013 1.556 0 3.114-.025 4.67.011.643.017.631-.351.646-.81.017-.487-.078-.729-.65-.724-3.132.026-6.265.026-9.397 0h-.017c-.574 0-.629.274-.621.738v-.002Zm4.326-18.872c-2.181 3.655-4.361 7.309-6.539 10.964a2.22 2.22 0 0 0 .348 2.894 82.083 82.083 0 0 0 2.424 2.442 1.1 1.1 0 0 0 .695.277c2.714.019 5.429.019 8.143 0 .292-.015.569-.132.786-.329.75-.709 1.461-1.456 2.184-2.198a2.312 2.312 0 0 0 .892-1.566 2.318 2.318 0 0 0-.071-.919 2.319 2.319 0 0 0-.42-.819 5192.273 5192.273 0 0 0-4.27-7.158l-2.349-3.923c-.029.257-.046.331-.046.406 0 2.313.004 4.625-.01 6.934 0 .335.141.451.422.574.74.297 1.341.869 1.68 1.601.338.731.388 1.566.14 2.334a3.204 3.204 0 0 1-1.242 1.696 3.12 3.12 0 0 1-3.92-.312 3.216 3.216 0 0 1-.967-1.872c-.11-.689.01-1.397.341-2.009a3.11 3.11 0 0 1 1.487-1.372.794.794 0 0 0 .448-.338.815.815 0 0 0 .115-.554c-.022-2.119-.009-4.237-.011-6.356 0-.193-.019-.386-.036-.697-.137.179-.186.237-.224.302v-.002Zm-18.82-16.345v28.545c0 .795.187.986.969.987h8.999c.169 0 .338-.014.507-.021l-.126-1.377h-7.594c-1.08 0-1.388-.311-1.388-1.404v-24.674c0-.872.338-1.216 1.202-1.243.169-.005.337 0 .513 0h18.216v-1.363h-21.274c-.01.212-.024.382-.024.55Zm29.185 29.532h4.838c.92 0 1.09-.171 1.09-1.108v-14.269c0-.205-.016-.408-.027-.635h-1.362v13.175c0 1.114-.321 1.439-1.425 1.44h-2.981l-.133 1.397Zm-10.989-2.741a1.666 1.666 0 0 0 .94 1.604c.197.093.411.146.628.154a1.671 1.671 0 0 0 1.216-.456 1.716 1.716 0 0 0 .539-1.195 1.61 1.61 0 0 0-.376-1.082 1.567 1.567 0 0 0-.995-.546h-.165c-1.129 0-1.75.527-1.787 1.524v-.003Zm3.257-12.448c2.263 3.783 4.559 7.545 6.754 11.367.164.427.47.782.865 1.004.395.222.854.298 1.298.213a15.743 15.743 0 0 1 2.161-.019c.021-.07.038-.141.05-.213.002-4.448.002-8.899 0-13.35a1.669 1.669 0 0 0-.151-.467c-.169-.496-.322-.997-.506-1.487-.157-.417-.232-.978-.539-1.206-.986-.734-2.226-1.222-3.256-.078-.159.168-.35.302-.562.393a1.66 1.66 0 0 1-1.891-.416c-.305-.288-.591-.599-.888-.896a1.818 1.818 0 0 1-.064-2.795c.781-.83.519-1.676.142-2.56a1.809 1.809 0 0 0-.664-.84 1.774 1.774 0 0 0-1.016-.31 5.438 5.438 0 0 1-1.266-.413 2.764 2.764 0 0 0-.815-.271c-6.001-.016-12.001-.02-18-.012-.185 0-.369.017-.581.028v24.84c.069.02.139.034.209.042 2.564 0 5.127.012 7.692-.011a.798.798 0 0 0 .528-.382c2.459-4.09 4.896-8.193 7.367-12.275.244-.38.594-.679 1.006-.856.187-.081.388-.123.591-.125.329.028.644.145.914.337.269.193.484.454.622.758Zm11.045-5.369c.482.483.821 1.093.98 1.761.308 1.113.238 1.118 1.409 1.113.403 0 .535-.149.531-.538a2.658 2.658 0 0 1 .182-1.164c.147-.37.376-.7.668-.966a7.595 7.595 0 0 1 2.146-1.235 2.992 2.992 0 0 1 3.131.643c.153.133.303.266.443.39l1.193-1.159a13.098 13.098 0 0 1-.942-1.542c-.766-1.739.656-5.262 3.244-5.225.169 0 .475-.171.49-.285.035-.502.042-1.006.022-1.509a3.553 3.553 0 0 1-2.218-.609 3.636 3.636 0 0 1-1.399-1.85 3.654 3.654 0 0 1-.277-2.363 3.612 3.612 0 0 1 1.236-2.024 8.895 8.895 0 0 1-.962-.792c-.291-.314-.476-.308-.782-.009a2.799 2.799 0 0 1-2.604.863c-2.148-.464-3.576-1.417-3.651-3.861 0-.031-.036-.062-.061-.102h-1.666c-.065.445-.106.845-.181 1.239-.41 2.115-4.161 3.883-6.152 1.837a.569.569 0 0 0-.536-.1c-.364.288-.711.596-1.041.924.045.089.096.175.154.257 1.732 1.622 1.167 3.911-.117 5.438a3.626 3.626 0 0 1-1.736.991c-1.093.309-1.098.236-1.083 1.44.005.361.109.5.483.53a3.866 3.866 0 0 1 1.469.447c.456.245.859.58 1.187.984a4.005 4.005 0 0 1 .873 2.92 3.72 3.72 0 0 1-1.151 2.284l1.217 1.246c.052-.022.1-.05.144-.086a3.192 3.192 0 0 1 1.083-.818 3.14 3.14 0 0 1 1.32-.289 4.705 4.705 0 0 1 2.954 1.219Zm-31.854-15.752a.572.572 0 0 0-.596.347.591.591 0 0 0-.048.242c-.019 1.4-.007 2.801-.007 4.243.169.013.239.026.314.026h21.175c.167-.012.331-.045.488-.099.441-.151.89-.274 1.346-.368.362-.004.71-.134.989-.368a1.61 1.61 0 0 0 .541-.917h-14.394c-.898 0-1.213-.233-1.454-1.057-.114-.504-.266-1-.454-1.481a.995.995 0 0 0-.676-.542c-1.319-.021-2.64-.026-3.959-.026-1.086-.006-2.176-.002-3.265 0Zm13.734 0 .478 1.725h3.14a8.037 8.037 0 0 0-.359-1.228.866.866 0 0 0-.563-.47c-.417-.024-.835-.03-1.259-.03-.47-.004-.948.004-1.437.004v-.001Zm-4.55 0 .474 1.713h3.17a8.101 8.101 0 0 0-.378-1.24.857.857 0 0 0-.567-.452 22.729 22.729 0 0 0-1.228-.028c-.479 0-.967.008-1.471.008v-.001Zm-4.238 31.692a1.225 1.225 0 0 1-.992-.364 1.257 1.257 0 0 1-.358-1.007c-.008-5.856-.008-11.71 0-17.564a1.302 1.302 0 0 1 .816-1.307 1.25 1.25 0 0 1 .534-.082 92.62 92.62 0 0 1 3.416 0 1.25 1.25 0 0 1 1.011.384 1.304 1.304 0 0 1 .352 1.035c.005 2.927.005 5.855 0 8.783v8.607c0 1.076-.422 1.51-1.478 1.515-.578 0-1.156.001-1.733.004-.521.002-1.044 0-1.568-.004Zm.179-1.522h3.073v-3.084h-3.074l.001 3.084Zm-.009-4.731h3.09v-3.092h-3.091l.001 3.092Zm.017-4.711h3.071v-3.114h-3.072l.001 3.114Zm-.013-4.694h3.072v-3.075h-3.073l.001 3.075Zm15.788.153c-1.422-.01-2.845 0-4.266 0h-4.208c-.467 0-.845-.112-.871-.67-.02-.447.274-.691.852-.692 2.844-.005 5.688-.005 8.531 0 .552 0 .889.276.851.7-.048.537-.411.662-.877.662h-.012Zm12.903-2.5a6.622 6.622 0 0 1-4.715-1.983 6.822 6.822 0 0 1-1.952-4.785 6.821 6.821 0 0 1 1.955-4.784 6.622 6.622 0 0 1 4.715-1.981c1.769 0 3.465.713 4.716 1.981a6.816 6.816 0 0 1 1.954 4.784 6.818 6.818 0 0 1-1.952 4.785 6.622 6.622 0 0 1-4.714 1.983h-.007Zm-.015-11.933a5.057 5.057 0 0 0-3.569 1.527 5.206 5.206 0 0 0-1.479 3.634 5.181 5.181 0 0 0 1.5 3.602 5.035 5.035 0 0 0 3.562 1.494 5.038 5.038 0 0 0 3.569-1.476 5.186 5.186 0 0 0 1.518-3.595 5.252 5.252 0 0 0-1.492-3.646 5.103 5.103 0 0 0-3.583-1.54h-.026Zm-18.44 11.412c-.967 0-1.935.004-2.901 0-.619 0-.929-.244-.895-.709.039-.559.422-.653.885-.651 1.171.003 2.343.003 3.515 0h2.344c.579 0 .875.234.878.666.002.432-.301.685-.867.691-.412.003-.823.003-1.234 0l-1.725.003Zm14.943-6.233c0-.701.204-1.387.587-1.972a3.511 3.511 0 0 1 1.566-1.31 3.453 3.453 0 0 1 2.02-.209c.679.134 1.303.47 1.795.964a3.57 3.57 0 0 1 .966 1.811 3.603 3.603 0 0 1-.188 2.051 3.54 3.54 0 0 1-1.277 1.601 3.463 3.463 0 0 1-1.939.613h-.033a3.51 3.51 0 0 1-2.46-1.051 3.612 3.612 0 0 1-1.033-2.498h-.004Zm3.486-1.955a1.881 1.881 0 0 0-1.322.576 1.938 1.938 0 0 0-.54 1.353 1.87 1.87 0 0 0 1.137 1.775c.229.096.473.145.72.144a1.871 1.871 0 0 0 1.363-.543c.18-.178.323-.391.421-.626.099-.234.15-.487.151-.742a1.973 1.973 0 0 0-.564-1.361 1.92 1.92 0 0 0-1.34-.577l-.026.001Z"/><path fill="#888" d="M144.901 652.2a3.279 3.279 0 0 1-3.606-3.622v-2.817c0-.625.325-1.019.807-1.016.482.002.788.383.793 1.025.008 1.026 0 2.051.006 3.083a1.59 1.59 0 0 0 .457 1.289 1.587 1.587 0 0 0 1.291.453h34.162a1.547 1.547 0 0 0 1.727-1.604c.015-5.756.006-11.509.006-17.266a1.506 1.506 0 0 0-.036-.23h-37.609v10.474c0 .84-.247 1.233-.775 1.254-.528.021-.829-.409-.829-1.26v-9.771c-.203.124-.349.204-.484.295l-4.317 2.924c-.322.217-.648.426-1.058.205-.411-.221-.425-.585-.423-.987 0-4.468.01-8.936-.006-13.405a1.189 1.189 0 0 1 .141-.64c.106-.196.264-.358.457-.47 1.935-1.293 3.85-2.614 5.796-3.897.301-.192.648-.3 1.004-.311 2.084-.027 4.172-.021 6.257-.006.354 0 .515-.083.592-.456.239-1.19.53-2.369.797-3.552a4.904 4.904 0 0 1 3.759-4.01 4.924 4.924 0 0 1 1.931-.051c1.745.173 3.5.246 5.25.382a1.003 1.003 0 0 0 .864-.338 29.747 29.747 0 0 1 5.791-4.988c.963-.582 1.974-1.1 2.968-1.621a.794.794 0 0 1 1.166.283.805.805 0 0 1-.493 1.135 25.135 25.135 0 0 0-7.523 5.502c-2.59 2.649-5.227 5.245-7.849 7.862-.146.147-.318.27-.453.382l10.617 10.617c.085-.08.211-.191.329-.31l8.777-8.775a22.25 22.25 0 0 0 6.414-12.485c.246-1.55.254-3.14.37-4.766a26.962 26.962 0 0 0-3.191.023c-1.492.184-2.96.518-4.44.808-.55.107-.935-.053-1.083-.516-.148-.462.1-.831.654-.995a23.72 23.72 0 0 1 8.702-.888.804.804 0 0 1 .577.265.798.798 0 0 1 .211.598 23.996 23.996 0 0 1-4.093 15.461c-.074.111-.137.23-.253.431.711 0 1.348-.036 1.973.013.357.019.704.125 1.011.307 1.943 1.282 3.864 2.596 5.788 3.905.204.154.4.319.588.493v14.606c-.533.604-.797.639-1.462.193a4084.92 4084.92 0 0 1-4.316-2.922c-.14-.094-.283-.18-.502-.318v16.441a3.28 3.28 0 0 1-3.592 3.584h-33.64Zm-7.908-31.12a.829.829 0 0 0-.428.793c.016 3.647.01 7.298.01 10.947v.582c.205-.123.336-.19.458-.272 1.281-.864 2.553-1.741 3.844-2.59a.831.831 0 0 0 .424-.8c-.016-3.649-.008-7.297-.008-10.947v-.612c-1.507 1.019-2.896 1.973-4.3 2.899Zm45.147-2.599c0 3.808-.006 7.612.012 11.42a.826.826 0 0 0 .336.56c1.163.817 2.343 1.609 3.527 2.407.247.169.506.333.748.493.053-.059.074-.071.074-.082.006-3.893.009-7.786.007-11.68a.524.524 0 0 0-.21-.37c-1.457-1.002-2.925-1.992-4.458-3.029a2.665 2.665 0 0 0-.036.281Zm-34.65 11.401a.584.584 0 0 0 .408-.098.585.585 0 0 0 .24-.345c.6-1.48 1.2-2.959 1.839-4.418a5.752 5.752 0 0 1 10.568.039 5.752 5.752 0 0 1 .068 4.352c-.052.136-.094.275-.158.46h2.571a.461.461 0 0 0 .293-.074c.522-.52 1.036-1.053 1.504-1.536l-10.547-10.551c-.094.085-.222.197-.343.318l-3.246 3.246c-.516.517-1.039 1.026-1.548 1.549a.812.812 0 0 1-1.031.227.778.778 0 0 1-.37-.987c.022-.101.048-.201.072-.304l.958-4.25h-5.837v12.333c.188.01.34.027.493.027h2.227c.613-.003 1.226 0 1.839.012Zm4.258-4.795c-.779 1.516-1.387 3.117-2.113 4.789.724 0 1.312.016 1.899-.013a.528.528 0 0 0 .37-.263c.962-2.128 1.673-4.367 2.848-6.434a3.704 3.704 0 0 0-3.004 1.921Zm14.003 4.789h5.743c.967 0 1.127-.107 1.468-1.022.075-.176.12-.363.135-.554.014-.617.023-1.243-.012-1.864-.066-1.242-.164-2.484-.247-3.653l-7.087 7.093Zm-8.51-1.021c-.709.317-1.43.607-2.144.909l.047.112h2.24c1.315 0 1.528-.16 1.89-1.445.061-.215.092-.438.124-.597-.723.336-1.432.694-2.154 1.017l-.003.004Zm20.719-11.361a.659.659 0 0 0-.379.22c-.987 1.005-1.974 2.009-2.934 3.039a1.161 1.161 0 0 0-.298.76c.051 1.233.185 2.467.247 3.692.073 1.531.459 3.084-.339 4.632h6.24v-12.358h-1.28c-.429-.003-.84 0-1.255.01l-.002.005Zm-22.289 7.239c-.523 1.167-1.003 2.353-1.499 3.534l.099.13c1.246-.539 2.507-1.044 3.726-1.638a1.442 1.442 0 0 0 .637-1.632 1.613 1.613 0 0 0-1.429-1.253 1.522 1.522 0 0 0-1.534.859Zm-3.976-12.851c-.37 1.517-.7 3.041-1.049 4.563l-.731 3.196 9.94-9.93-.677-.049c-1.317-.089-2.637-.155-3.946-.273a4.109 4.109 0 0 0-.331-.014 3.209 3.209 0 0 0-3.206 2.506v.001Zm18.397 6.561a6 6 0 0 1-4.213-10.257 6.004 6.004 0 0 1 10.235 4.271 6.004 6.004 0 0 1-6.016 5.986h-.006Zm-4.419-5.976a4.426 4.426 0 1 0 4.434-4.44h-.023a4.434 4.434 0 0 0-3.12 1.31 4.435 4.435 0 0 0-1.291 3.128v.002ZM329.399 837.84c-.936 0-1.165-.226-1.165-1.153 0-16.953-.003-33.905-.008-50.856a1.204 1.204 0 0 1 .525-1.147h26.472c.143.143.289.283.429.429 3.267 3.41 6.535 6.819 9.806 10.229a1.524 1.524 0 0 1 .463 1.151c-.013 5.901-.015 11.801-.008 17.7 0 .18.015.359.027.6 1.246-.719 2.437-1.386 3.601-2.091a1.242 1.242 0 0 1 1.436-.012c3.234 1.89 6.488 3.753 9.728 5.644.247.179.473.385.676.613v12.458a3.814 3.814 0 0 1-.535.464c-3.346 1.94-6.694 3.876-10.045 5.807a1.019 1.019 0 0 1-1.118-.031c-1.086-.641-2.182-1.265-3.275-1.893-.143-.082-.293-.153-.497-.26v1.155c0 .969-.222 1.193-1.179 1.193h-35.333Zm.522-1.691h34.332c0-.48.02-.927-.012-1.373a.563.563 0 0 0-.235-.403c-1.097-.653-2.207-1.284-3.14-1.822a7.056 7.056 0 0 1-1.183.251c-1.437.024-2.872.01-4.307.01h-20.859c-.894 0-1.192-.259-1.192-1.045v-25.433c0-.647.313-1.032.827-1.035.514-.003.826.375.833 1.025v24.742h24.161v-1.488c-.712 0-1.382.014-2.053 0s-.94-.313-.94-.971c-.004-5.535-.004-11.072 0-16.609 0-.657.294-.934.959-.94.882-.006 1.764 0 2.646 0 .791 0 1.064.272 1.065 1.051v5.087c0 .159.018.321.031.539 1.017-.587 1.965-1.149 2.932-1.681a.784.784 0 0 0 .477-.798c-.017-5.883-.021-11.766-.012-17.647v-.579h-9.46c-.937 0-1.214-.273-1.215-1.197v-9.464H329.92l.001 49.78Zm49.552-15.35c-2.69 1.552-5.383 3.098-8.061 4.669a.757.757 0 0 0-.295.56c-.022 1.814-.013 3.629-.013 5.443v4.031a2 2 0 0 0 .225-.079c2.706-1.561 5.415-3.117 8.109-4.698a.773.773 0 0 0 .274-.582c.017-3.007.012-6.015.012-9.023v-.442c-.133.067-.195.086-.251.121Zm-18.642.083c0 3.132-.01 6.263.012 9.393a.79.79 0 0 0 .376.521c2.594 1.518 5.199 3.016 7.802 4.517.114.067.238.119.375.186a.82.82 0 0 0 .046-.175c0-3.132.009-6.263-.013-9.394a.784.784 0 0 0-.374-.519c-1.997-1.172-4.005-2.318-6.01-3.479l-2.161-1.247c-.025.064-.044.13-.056.197h.003Zm-2.981 6.961h1.287v-15.102h-1.29l.003 15.102Zm12.002-13.378c-2.581 1.505-5.17 2.994-7.759 4.488-.124.072-.237.161-.394.268 2.821 1.626 5.58 3.225 8.357 4.803a.741.741 0 0 0 .589-.088c2.505-1.428 5.005-2.867 7.499-4.314.22-.127.437-.259.697-.415-.18-.113-.309-.201-.441-.276-2.571-1.485-5.147-2.964-7.713-4.465a.724.724 0 0 0-.839 0l.004-.001Zm-14.553-19.18h7.771l-7.771-8.113v8.113Zm-4.689 34.29c-.72-.012-.99-.302-.991-1.026v-13.027c0-.793.259-1.055 1.054-1.059.882 0 1.764-.008 2.646 0 .689.009.965.295.965.99a7184.3 7184.3 0 0 1 0 13.131c0 .683-.28.977-.975.989a78.1 78.1 0 0 1-2.699.002Zm.699-1.726h1.287v-11.69h-1.287v11.69Zm-13.761 1.726c-.714-.012-1.003-.313-1.008-1.022-.003-2.089-.003-4.179 0-6.269 0-.677.303-1.002.966-1.015a83.606 83.606 0 0 1 2.743 0c.672.011.963.32.968 1.002.008 1.053 0 2.107 0 3.161 0 1.037.005 2.072 0 3.109 0 .751-.274 1.026-1.033 1.036a96.845 96.845 0 0 1-2.636-.002Zm.705-1.703h1.265v-4.873h-1.26l-.005 4.873Zm5.865 1.704c-.778-.01-1.042-.292-1.042-1.085v-9.595c0-.806.282-1.08 1.094-1.084h2.594c.681.006.981.303.983.979.006 1.625 0 3.251 0 4.876v4.823c0 .807-.255 1.075-1.037 1.085a90.143 90.143 0 0 1-2.587.001h-.005Zm.656-1.713h1.278v-8.348h-1.273l-.005 8.348Zm-8.184-9.102c-.156-.467.113-.891.732-1.109a58.742 58.742 0 0 0 14.352-7.309c1.41-.992 2.758-2.069 4.213-3.166-.599-.144-.976-.352-.974-.907a.733.733 0 0 1 .381-.724.711.711 0 0 1 .276-.082 31.01 31.01 0 0 1 2.639-.159.848.848 0 0 1 .684.323.834.834 0 0 1 .146.743c-.091.649-.202 1.296-.288 1.946-.1.747-.347 1.085-.856 1.108-.509.023-.766-.259-.943-1.008-.792.63-1.563 1.262-2.353 1.868a60.242 60.242 0 0 1-16.738 8.956 1.45 1.45 0 0 1-.483.09.783.783 0 0 1-.788-.57Zm-2.24-21.738c-.644-.008-1.024-.33-1.025-.849-.001-.519.363-.834 1.025-.837 1.97-.005 3.941 0 5.911 0 2.005 0 4.009-.006 6.014.005a.85.85 0 0 1 .934.831.898.898 0 0 1-.934.849c-.138.008-.276 0-.413 0h-10.777c-.245.003-.49.003-.735.001Zm-.02-4.763c-.647 0-1.016-.319-1.007-.849.01-.512.367-.806.989-.806 1.989-.003 3.977-.004 5.966-.001h5.912c.637 0 1.03.331 1.018.843-.014.49-.404.812-1.008.812h-11.87v.001Z"/><defs><linearGradient id="a" x1="352.811" x2="582.071" y1="355.029" y2="584.289" gradientUnits="userSpaceOnUse"><stop stop-color="#2ECC82"/><stop offset="1" stop-color="#044526"/></linearGradient><linearGradient id="b" x1="507" x2="0" y1="654" y2="654" gradientUnits="userSpaceOnUse"><stop stop-color="#D3D3D3"/><stop offset=".469" stop-color="#CACACA" stop-opacity=".653"/><stop offset="1" stop-color="#C8C8C8" stop-opacity=".26"/></linearGradient><linearGradient id="c" x1="509" x2="61" y1="166.5" y2="166.5" gradientUnits="userSpaceOnUse"><stop stop-color="#D3D3D3"/><stop offset=".469" stop-color="#CACACA" stop-opacity=".653"/><stop offset="1" stop-color="#C8C8C8" stop-opacity=".26"/></linearGradient></defs></svg>