<svg width="383" height="392" fill="none" xmlns="http://www.w3.org/2000/svg"><g clip-path="url(#a)"><path d="M19.494 94.957C43.47 48.35 88.01 13.099 143.515 8.137a154.07 154.07 0 0 1 106.721 30.872c15.152 11.688 28.623 26.567 37.556 43.559 10.272 19.509 13.256 42.003 23.825 61.414 13.13 24.148 37.79 34.1 54.344 54.958 13.643 17.181 18.316 40.205 16.752 62.088-2.84 39.953-26.206 77.866-60.662 98.337-29.082 17.306-64.15 22.08-97.959 20.507-52.125-2.418-104.016-19.608-145.06-51.83C37.99 295.821 8.468 248.207 1.52 196.486c-4.79-35.153 2.112-70.818 17.974-101.53Z" fill="#92E3A9"/><path opacity=".7" d="M19.494 94.957C43.47 48.35 88.01 13.099 143.515 8.137a154.07 154.07 0 0 1 106.721 30.872c15.152 11.688 28.623 26.567 37.556 43.559 10.272 19.509 13.256 42.003 23.825 61.414 13.13 24.148 37.79 34.1 54.344 54.958 13.643 17.181 18.316 40.205 16.752 62.088-2.84 39.953-26.206 77.866-60.662 98.337-29.082 17.306-64.15 22.08-97.959 20.507-52.125-2.418-104.016-19.608-145.06-51.83C37.99 295.821 8.468 248.207 1.52 196.486c-4.79-35.153 2.112-70.818 17.974-101.53Z" fill="#fff"/><path d="M3.63 112.003c1.061 4.198.54-3.534 2.616-13 2.076-9.467 5.635-5.62 5.635-5.62m-8.906 8.955 6.515-2.67m5.392-3.209s-3.891 8.091 1.977 11.48m3.531-13.737s6.426 3.596 2.4 11.31m-6.794-6.321 4.61 3.363m-.996-4.846-3.604 5.736M40.35 183.82c.878-5.345-2.743-10.39-8.087-11.267-5.343-.878-10.386 2.745-11.263 8.09-.877 5.346 2.744 10.39 8.087 11.268 5.344.877 10.387-2.745 11.264-8.091Z" stroke="#242424" stroke-linecap="round" stroke-linejoin="round"/><path d="M46.135 196.753c5.884-1.207 9.675-6.957 8.468-12.843-1.206-5.885-6.954-9.678-12.837-8.471-5.883 1.208-9.675 6.957-8.468 12.843 1.207 5.885 6.954 9.678 12.837 8.471Zm-6.555-18.581-4.521 1.61m5.148.251-6.488 2.347m6.721-.099-7.243 2.787m6.733.279-6.606 3.02m5.446-.665-5.024 2.086m1.636-22.521c-.288-.899-3.46-1.456-3.595.899-.135 2.356 3.361.396 4.34-.899 0 0-1.797 2.427-1.033 2.904" stroke="#242424" stroke-linecap="round" stroke-linejoin="round"/><path d="m52.978 170.198-2.822 5.87s1.411-2.93 2.921-2.697c1.86.324.63 3.372-1.627 2.248m308.632 90.435 4.431 4.198m.001-5.286-3.711 5.547m8.078-3.956 4.43-1.654m2.13-4.621 2.697 2.382m2.066-5.259-3.415 11.732m-64.212-136.222-5.284 16.425 16.446-2.221-11.162-14.204Zm.001 0 2.939 15.22" stroke="#242424" stroke-linecap="round" stroke-linejoin="round"/><path d="m315.049 145.699 1.923-.306.449 2.58M105.463 283.216l8.223 4.046m-2.661-7.12-2.345 8.585m3.496-12.775a1.241 1.241 0 0 1 1.977.252c.818 1.294-.791 4.009-.791 4.009l3.289-1.258M169.963.45c7.836 4.405-1.151 15.194-1.151 21.487 0 6.293 8.988 5.394 13.481 7.192 1.797 0 5.392 0 5.302 4.576" stroke="#242424" stroke-linecap="round" stroke-linejoin="round"/><path d="M161.219 6.14c1.357 7.445 9.885 4.801 15.116 6.5 8.987 2.923 3.999 12.2 1.312 17.81-1.6 3.354-3.199 8.038-.333 11.22M162.359 9.036l9.356-7.777m-5.68 10.096 7.037-5.844m-2.902 11.751 5.949-4.675m-7.181 11.678 11.638-8.37m-7.18 11.634 8.107-5.952m-4.657 18.601 10.128-8.253m-9.876 1.762 6.605-4.648M44.862 287.686c9.65-3.862 14.345-14.818 10.485-24.471-3.86-9.654-14.812-14.35-24.462-10.489-9.65 3.862-14.344 14.818-10.484 24.471 3.86 9.654 14.811 14.35 24.461 10.489Z" stroke="#242424" stroke-linecap="round" stroke-linejoin="round"/><path d="M42.607 252.002c6.56-7.696 12.133-12.066 14.29-10.645 3.262 2.149-2.607 16.821-13.112 32.77-10.506 15.949-21.668 27.115-24.94 24.966-2.147-1.42-.34-8.271 4.153-17.333" stroke="#242424" stroke-linecap="round" stroke-linejoin="round"/><path d="M19.493 274.082c-9.14-2.634-14.981-5.709-14.622-8.163.575-3.875 16.348-4.747 35.23-1.951 18.881 2.796 33.728 8.199 33.153 12.074-.396 2.697-8.089 3.92-19 3.506" stroke="#242424" stroke-linecap="round" stroke-linejoin="round"/><path d="M21.847 260.443c-6.902-12.451-10.353-22.179-8.007-23.689 3.074-1.996 14.954 10.896 26.53 28.769 11.575 17.873 18.486 34.02 15.412 36.006-2.03 1.313-7.917-3.883-15.017-12.73" stroke="#242424" stroke-linecap="round" stroke-linejoin="round"/><path d="M59.54 249.502a3.092 3.092 0 1 1-5.171-3.392 3.092 3.092 0 0 1 5.17 3.392Zm-10.237 47.371a3.092 3.092 0 1 1-5.17-3.392 3.092 3.092 0 0 1 5.17 3.392ZM32.794 264.75a3.092 3.092 0 1 1-5.17-3.391 3.092 3.092 0 0 1 5.17 3.391Z" fill="#242424"/><path d="M229.879 130.172h10.596l5.293-9.17-5.293-9.17h-10.596l-5.293 9.17 5.293 9.17Zm-1.536 20.13-5.293-9.179h-10.587m1.418-20.121h10.587l5.293-9.17-5.293-9.179h-10.587l-5.293 9.179 5.293 9.17Z" stroke="#242424" stroke-linecap="round" stroke-linejoin="round"/><path d="M229.879 111.832h10.596l5.293-9.179-5.293-9.17h-10.596l-5.293 9.17 5.293 9.179Z" stroke="#242424" stroke-linecap="round" stroke-linejoin="round"/><path d="M229.772 113.253a1.42 1.42 0 1 0-.001-2.84 1.42 1.42 0 0 0 .001 2.84Zm-22.118-19.258a1.42 1.42 0 1 0 0-2.84 1.42 1.42 0 0 0 0 2.84Zm19.268 56.298a1.43 1.43 0 0 1 1.719-1.382 1.435 1.435 0 0 1 1.113 1.127 1.435 1.435 0 0 1-.611 1.463 1.43 1.43 0 0 1-2.221-1.208Zm-14.459-7.75a1.42 1.42 0 1 0 0-2.84 1.42 1.42 0 0 0 0 2.84Zm43.551-39.647a1.424 1.424 0 0 1 .876-1.313 1.422 1.422 0 0 1 1.333 2.494 1.423 1.423 0 0 1-1.793-.177 1.417 1.417 0 0 1-.416-1.004Zm-33.073 39.647a1.42 1.42 0 1 0 0-2.84 1.42 1.42 0 0 0 0 2.84Zm21.407-39.647a1.424 1.424 0 0 1 .876-1.313 1.422 1.422 0 0 1 1.332 2.494 1.418 1.418 0 0 1-.788.239 1.428 1.428 0 0 1-1.42-1.42Zm-15.996 27.267a1.421 1.421 0 0 1 2.424-1.004 1.42 1.42 0 1 1-2.424 1.004Z" fill="#242424"/><path d="M245.768 102.896h11.656m-27.652 27.276-6.831 10.951m-9.059-38.47-6.228-10.078m81.325-26.073a19.604 19.604 0 0 1 19.229-14.06 19.595 19.595 0 0 1 11.818 4.294 19.614 19.614 0 0 1 6.779 10.593m-21.246 24.176a19.61 19.61 0 0 1-17.354-19.465m39.175 0a19.602 19.602 0 0 1-12.098 18.118 19.587 19.587 0 0 1-7.503 1.49" stroke="#242424" stroke-linecap="round" stroke-linejoin="round"/><path d="M328.486 59.616c6.138-.791 10.245-.36 10.874 1.465 1.267 3.65-11.845 11.526-29.28 17.576-17.435 6.05-32.614 8.002-33.881 4.352-.674-1.951 2.759-5.116 8.762-8.55M222.94 46.184l1.879 3.803 4.197.611-3.038 2.967.719 4.18-3.757-1.977-3.756 1.978.719-4.18-3.038-2.968 4.197-.611 1.878-3.803ZM90.265 36.043a12.768 12.768 0 0 1-3.735 9.015 12.76 12.76 0 0 1-10.222 3.688 12.75 12.75 0 0 1-10.894-8.665A12.762 12.762 0 0 1 68.93 26.61a12.75 12.75 0 0 1 21.335 9.433v0Z" stroke="#242424" stroke-linecap="round" stroke-linejoin="round"/><path d="M88.216 38.353a1.97 1.97 0 0 1-2.358 1.921 1.968 1.968 0 1 1 2.358-1.92v0Zm-17.741 5.008a3.185 3.185 0 0 1-1.15 2.454 12.64 12.64 0 0 1-3.712-5.205 3.1 3.1 0 0 1 1.645-.459 3.208 3.208 0 0 1 3.217 3.21Zm15.774 1.969a12.66 12.66 0 0 1-8.727 3.47c-.413 0-.818-.018-1.213-.054a5.093 5.093 0 0 1-.108-1.052 5.305 5.305 0 0 1 4.088-5.16 5.3 5.3 0 0 1 5.96 2.796v0ZM74.43 30.99a2.93 2.93 0 1 0-.001-5.86 2.93 2.93 0 0 0 0 5.86Zm2.714 5.386a1.358 1.358 0 1 1-2.716 0 1.358 1.358 0 0 1 2.716 0Zm10.721-7.804c-.356.117-.73.175-1.105.17a3.728 3.728 0 0 1-3.73-3.74 3.963 3.963 0 0 1 0-.467 12.698 12.698 0 0 1 4.835 4.037v0Zm293.013 155.534 1.375-3.093-2.22-1.231a7.676 7.676 0 0 0 0-1.646l2.283-1.114-1.213-3.156-2.445.701a7.106 7.106 0 0 0-1.132-1.187l.827-2.4-3.083-1.376-1.231 2.221a7.182 7.182 0 0 0-1.645 0l-1.114-2.283-3.154 1.213.7 2.446c-.44.327-.838.708-1.186 1.132l-2.408-.836-1.375 3.093 2.228 1.232a7.298 7.298 0 0 0 0 1.645l-2.282 1.115 1.213 3.155 2.444-.701c.33.438.71.837 1.133 1.187l-.836 2.409 3.092 1.367 1.231-2.221a7.176 7.176 0 0 0 1.644.045l1.115 2.284 3.154-1.214-.71-2.445a6.792 6.792 0 0 0 1.196-1.133l2.399.791Zm-9.391-1.735a3.93 3.93 0 0 1 2.459-7.423 3.928 3.928 0 0 1 2.726 5.427 3.925 3.925 0 0 1-5.185 1.978v.018Zm-7.028 17.585 1.87-4.198-3.029-1.673c.11-.738.131-1.486.063-2.229l3.1-1.511-1.644-4.297-3.317.962a9.645 9.645 0 0 0-1.536-1.618l1.123-3.264-4.197-1.87-1.671 3.021a9.239 9.239 0 0 0-2.229-.054l-1.51-3.111-4.287 1.654.953 3.318a9.293 9.293 0 0 0-1.609 1.537l-3.271-1.132-1.861 4.207 3.02 1.663a9.867 9.867 0 0 0-.063 2.239l-3.1 1.51 1.644 4.289 3.317-.962a9.74 9.74 0 0 0 1.545 1.618l-1.132 3.264 4.197 1.87 1.671-3.021a9.289 9.289 0 0 0 2.229.054l1.51 3.11 4.287-1.654-.953-3.317a9.315 9.315 0 0 0 1.618-1.538l3.262 1.133Zm-12.761-2.355a5.338 5.338 0 0 1-2.184-7.964 5.333 5.333 0 0 1 5.541-2.121 5.336 5.336 0 1 1-3.357 10.076v.009Z" stroke="#242424" stroke-linecap="round" stroke-linejoin="round"/><path d="M178.159 160.092a55.787 55.787 0 0 1-4.17 6.725 56.616 56.616 0 0 1-33.03 22.07 56.597 56.597 0 0 1-43.036-7.173 53.365 53.365 0 0 1-3.397-2.292 52.31 52.31 0 0 1-3.838-3.057 1.626 1.626 0 0 1-.224-.207 56.741 56.741 0 0 1-.65-84.372 56.691 56.691 0 0 1 59.174-10.812 56.701 56.701 0 0 1 24.757 19.144 56.733 56.733 0 0 1 4.45 60.01l-.036-.036Z" fill="#92E3A9"/><g opacity=".6" fill="#fff"><path d="M178.159 160.093a57.712 57.712 0 0 1-4.161 6.724l-1.096-.899-1.888-.998-1.986-1.042.333-2.401-.108-2.167c-.117-2.166 1.447-.395 2.741-1.051a7.27 7.27 0 0 0 2.291-2.698s.899-2.885.603-4.045a32.744 32.744 0 0 0-1.708-3.902l-3.217 4.495-2.651-.207-2.643-1.384-.332-3.551-1.312-.684-.548-2.04-7.091-1.987-.809-1.421c-.809-1.42-4.071-2.149-4.071-2.149l.8-1.852 1.258-2.067c1.267-2.068 2.579 1.366 2.579 1.366l1.501.782 2.786-2.337.737-3.354 4.538.261a2.02 2.02 0 0 1 1.187-2.247c1.509-.594.844-3.875.269-5.089-.575-1.214-2.696-.234-2.696-.234s-2.31-3.515-2.624-4.918c-.315-1.402 4.404-.899 6.426-2.31 2.022-1.412 1.33-4.217.341-4.28-.988-.062 1.932-6.383 7.549-4.648 1.564.486 2.553.315 3.164-.224a56.66 56.66 0 0 1-.162 52.558Zm-39.301-24.32-1.923 2.419s-.818-1.951-1.986-.899l-1.797 1.6-1.303 3.65-2.337 1.511-1.429-.747-1.348-.719-1.465-.773-1.402 2.697-1.141 2.158a13.786 13.786 0 0 0 2.058 2.922l2.48 4.378 2.957 1.555c1.259.047 2.513.197 3.748.45l2.076 1.088-.737 4.495s-1.564 2.544-2.607 1.798l-1.051-.692-1.708 5.915-.072 3.255s-1.015.422-2.04.764c-1.024.342-.377.162-2.525.827-2.148.666-1.977.639-3.721 1.133a23.422 23.422 0 0 0-4.268 1.996l.152 3.129-4.107.602-2.3-1.223.566-1.978.269-3.092-.314-2.311-.989-2.041 2.768-2.508-.611-1.573-1.573-3.129-3.325 1.798-1.707.899-3.865-1.735-.422-2.347-1.312-4.234-1.204-2.625-2.14-2.895-.539-2.491 1.205-2.283.638-1.205-1.969-2.697-.539-1.888-3.316-3.012s.962-.063.746-1.402c-.216-1.34 1.896-3.596 1.896-3.596 1.196.629 4.781 3.128 4.781 3.128l3.137.432s.629 0 1.24-1.187a16.85 16.85 0 0 1 2.498-2.994s-1.446-5.025-.413-5.7c1.034-.674 2.085-3.964 2.085-3.964l.827-1.574s-1.95-.854-2.319-1.888c-.368-1.034-5.176.342-5.176.342l-3.317 2.301-2.534 2.014-1.132 2.149s-2.31-2.778-2.319-1.223a22.046 22.046 0 0 1-1.042 4.684s.476.252-.153 1.457c-.63 1.205-1.312 1.142-2.696 1.312a34.502 34.502 0 0 1-5.392-.368s-.9 3.326-.28 3.902l.612.557s-.962 2.418-1.914 1.915l-2.319-1.223-3.244 1.313-3.595 3.974-.8-.162a56.728 56.728 0 0 1 10.35-41.893 56.686 56.686 0 0 1 36.823-22.478c.207.898.431 1.744.431 1.744l-.898 4.44-1.151 2.194-.862 1.987-1.393 2.644 3.469 3.29-.764 3.893-1.932 1.214-.558 2.922 3.317 6.482.898 2.544a8.915 8.915 0 0 0-.8 3.884s.405 2.427 2.175 3.389a124.97 124.97 0 0 0 4.098 2.095l-.188 3.596-.8.899 1.33 3.875c4.053 1.591 3.667 2.922 4.053 1.591l.395-1.321 2.759-.998 3.514 4.198a2.436 2.436 0 0 1 2.067 1.097c.998 1.277 2.625.153.665 2.571Z"/><path d="M91.227 167.087c.099 1.277-1.519 2.877-1.519 2.877l1.321.692.405 3.596-.998 1.906a56.47 56.47 0 0 1-15.682-23.033l.719-3.812 3.172-.45s2.84-1.888 4.098-1.384c1.259.503 2.409 3.596 2.409 3.596s.899 4.172.782 4.091h-.054.072l1.294.683.368 1.645-1.797 3.417h-2.894s-.575-.306-.629 1.195a3.656 3.656 0 0 0 1.5 2.635l3.128-.801.836-3.236 3.074-.603s-.44 1.987.278 2.365l.728.387.432 2.373a2.128 2.128 0 0 0-1.043 1.861Zm14.865 5.088c-.279-.764-.396-1.438-2.31-2.454-1.914-1.016-1.797-.638-2.552.189a2.7 2.7 0 0 1-2.858 1.016c-1.258-.279-.602 1.142-.602 1.142l.296 3.838-3.54 3.516c1.087.8 2.228 1.564 3.397 2.292l.754-2.319 5.905 1.798c-1.258-.369-.512-2.077-.512-2.077l-1.268-.665s3.568-5.52 3.29-6.276Zm37.126-19.958-1.932-1.951-2.202.701-.944 1.798-.683 1.286.899 1.753 1.797 2.185 1.034-1.96s2.849 0 4.34-1.645c1.492-1.646-2.309-2.167-2.309-2.167Zm-5.671-8.802 3.595 1.897.144-.845a4.932 4.932 0 0 1 .97-1.852l-2.75-2.913-1.959 3.713Zm-1.223 41.85-1.043-1.51-1.195-.638h-3.685l-2.085 3.964s-2.004-.269-4.637-.494c-2.633-.225-1.986.845-1.986.845l-.683 2.499c6.643.823 13.38.461 19.897-1.069a25.238 25.238 0 0 0-2.355-1.448l-2.228-2.149Z"/></g><path d="M178.159 160.092a55.787 55.787 0 0 1-4.17 6.725 56.616 56.616 0 0 1-33.03 22.07 56.597 56.597 0 0 1-43.036-7.173 53.365 53.365 0 0 1-3.397-2.292 52.31 52.31 0 0 1-3.838-3.057 1.626 1.626 0 0 1-.224-.207v0a56.741 56.741 0 0 1-.65-84.372 56.691 56.691 0 0 1 59.174-10.812 56.701 56.701 0 0 1 24.757 19.144 56.733 56.733 0 0 1 4.45 60.01l-.036-.036Z" stroke="#242424" stroke-linecap="round" stroke-linejoin="round"/><path d="M140.908 188.87a56.568 56.568 0 0 1-19.861 1.07l.683-2.499s-.647-1.088 1.986-.845c2.633.243 4.637.494 4.637.494l2.085-3.965h3.685l1.195.639 1.043 1.51 2.229 2.158c.798.437 1.572.918 2.318 1.438v0Zm37.449-81.282c-.611.54-1.6.701-3.163.225-5.617-1.744-8.538 4.567-7.55 4.639.989.072 1.672 2.913-.341 4.279-2.013 1.367-6.74.899-6.435 2.311.306 1.411 2.624 4.918 2.624 4.918s2.067-.971 2.697.242c.629 1.214 1.249 4.496-.261 5.089a2.013 2.013 0 0 0-1.186 2.248l-4.548-.27-.728 3.353-2.786 2.347-1.501-.791s-1.312-3.426-2.579-1.367l-1.258 2.068-.809 1.852s3.262.728 4.08 2.149l.809 1.42 7.082 1.996.557 2.032 1.312.692.333 3.542 2.642 1.385 2.642.216 3.226-4.496a33.457 33.457 0 0 1 1.708 3.902c.315 1.16-.602 4.046-.602 4.046a7.235 7.235 0 0 1-2.301 2.697c-1.285.665-2.849-1.106-2.696 1.061l.108 2.158-.324 2.4 1.987 1.052 1.887.989 1.087.899M71.932 142.012l.79.153 3.595-3.973 3.236-1.313 2.318 1.223c.962.503 1.924-1.906 1.924-1.906l-.62-.567c-.62-.566.287-3.902.287-3.902 1.785.269 3.588.395 5.392.378 1.42-.171 2.094-.117 2.696-1.322.603-1.204.162-1.447.162-1.447.516-1.519.865-3.09 1.043-4.684 0-1.555 2.31 1.214 2.31 1.214l1.132-2.149 2.543-2.014 3.307-2.301s4.808-1.376 5.186-.342c.377 1.034 2.318 1.888 2.318 1.888l-.826 1.573s-1.061 3.273-2.094 3.965c-1.034.692.422 5.7.422 5.7-.944.9-1.782 1.904-2.498 2.994-.638 1.204-1.241 1.195-1.241 1.195l-3.145-.431s-3.595-2.499-4.781-3.138c0 0-2.103 2.257-1.896 3.596.206 1.34-.737 1.403-.737 1.403l3.316 3.012.539 1.888 1.968 2.697-.638 1.214-1.204 2.283.53 2.49 2.148 2.886 1.204 2.626 1.312 4.234.423 2.347 3.864 1.735 1.708-.899 3.316-1.798 1.573 3.128.62 1.574-2.768 2.508.979 2.041.324 2.319-.279 3.093-.566 1.978 2.31 1.214 4.098-.594-.144-3.137a24.108 24.108 0 0 1 4.269-1.996c1.743-.495 1.564-.468 3.72-1.124 2.157-.656 1.483-.486 2.517-.836a46.124 46.124 0 0 0 2.04-.755l.081-3.264 1.698-5.916 1.016.675c1.051.701 2.615-1.798 2.615-1.798l.728-4.496-2.067-1.087a23.376 23.376 0 0 0-3.748-.441l-2.965-1.564-2.472-4.37a14.058 14.058 0 0 1-2.058-2.922l1.133-2.157 1.402-2.697 1.464.773 1.358.71 1.428.755 2.328-1.519 1.303-3.65 1.798-1.601c1.168-1.06 1.986.899 1.986.899l1.923-2.418c1.932-2.409.333-1.295-.656-2.535a2.43 2.43 0 0 0-2.067-1.097l-3.523-4.199-2.75 1.007-.395 1.313c-.396 1.331 0 0-4.054-1.591l-1.366-3.974.8-.899.198-3.596s-2.337-1.133-4.098-2.086c-1.762-.953-2.175-3.399-2.175-3.399a8.901 8.901 0 0 1 .791-3.874l-.899-2.554-3.325-6.482.566-2.922 1.923-1.213.764-3.884-3.469-3.29 1.402-2.662.989-1.879 1.159-2.194.899-4.45s-.216-.818-.423-1.744" stroke="#242424" stroke-linecap="round" stroke-linejoin="round"/><path d="M90.689 176.365a1.23 1.23 0 0 0-.234-.225l1.007-1.906-.405-3.551-1.32-.701s1.608-1.601 1.518-2.868a2.144 2.144 0 0 1 1.007-1.924l-.432-2.374-.719-.377c-.719-.378-.278-2.374-.278-2.374l-3.074.602-.845 3.237-3.118.8a3.635 3.635 0 0 1-1.501-2.625c.054-1.51.629-1.205.629-1.205h2.894l1.797-3.416-.36-1.636-1.302-.693" stroke="#242424" stroke-linecap="round" stroke-linejoin="round"/><path d="M85.916 155.103c.144.081-.782-4.091-.782-4.091s-1.141-3.048-2.4-3.596c-1.257-.548-4.097 1.393-4.097 1.393l-3.173.45-.728 3.803m23.941 26.332-.755 2.32a52.96 52.96 0 0 1-3.397-2.293l3.541-3.515-.296-3.839s-.656-1.42.602-1.141a2.7 2.7 0 0 0 2.858-1.016c.737-.828.638-1.187 2.552-.189 1.914.998 2.031 1.69 2.31 2.454.278.764-3.29 6.231-3.29 6.231l1.268.665s-.746 1.708.512 2.077l-5.905-1.754Zm40.405-28.427 2.202-.701 1.932 1.951s3.829.494 2.337 2.157-4.341 1.645-4.341 1.645l-1.033 1.96-1.798-2.184-.899-1.753.683-1.286.917-1.789Zm3.174-8.352a4.932 4.932 0 0 0-.97 1.852l-.144.845-3.595-1.897 1.959-3.713 2.75 2.913Z" stroke="#242424" stroke-linecap="round" stroke-linejoin="round"/><path d="M333.168 348.542c-5.61 4.669-48.78 34.339-110.526 29.597-3.318-28.079-15.971-143.432-1.581-161.523 0 0 34.913-16.657 67.074-9.663 32.16 6.993 44.677 13.694 46.969 19.494 1.779 4.345-.701 86.027-1.936 122.095Z" fill="#242424"/><path d="M287.11 219.233c-18.524 16.05-42.386 12.658-41.862.335.083-1.926 2.093-4.313 2.093-4.313l-.722-1.11-3.14-4.743c-2.292-3.549-5.16-8.009-7.158-11.255-1.675-2.763 40.072-28.455 40.072-13.683 0 20.813 10.214 24.729 10.214 24.729 3.904 1.549 7.483 3.999.503 10.04Z" fill="#fff" stroke="#242424" stroke-linecap="round" stroke-linejoin="round"/><path d="M298.809 251.019s-3.737 12.815-1.958 16.489m-2.397-53.74c0 12.364-36.87 24.478-47.681 12.071" stroke="#fff" stroke-linecap="round" stroke-linejoin="round"/><path d="M264.126 199.541s-2.48 9.317-13.971 16.604a4.353 4.353 0 0 0-2.481-1.968 3.595 3.595 0 0 0-1.046 0l-3.14-4.743c5.945-4.292 20.638-9.893 20.638-9.893Z" fill="#242424"/><path d="M269.285 188.097s-.115 9.192-2.093 11.056c-14.652 14.008-28.874 15.118-31.229 11.422-15.855-24.865-12.109-31.408-13.72-35.659-2.857-7.486-6.363-19.683-4.825-27.085 3.454-16.51 34.536-29.314 50.915-12.709 7.849 7.946 10.329 25.2 8.665 39.553" fill="#fff"/><path d="M269.285 188.097s-.115 9.192-2.093 11.056c-14.652 14.008-28.874 15.118-31.229 11.422-15.855-24.865-12.109-31.408-13.72-35.659-2.857-7.486-6.363-19.683-4.825-27.085 3.454-16.51 34.536-29.314 50.915-12.709 7.849 7.946 10.329 25.2 8.665 39.553" stroke="#242424" stroke-linecap="round" stroke-linejoin="round"/><path d="M224.243 167.221s-4.354-1.957-5.296.377m15.887-.272s9.074-3.801 13.155.806" stroke="#242424" stroke-linecap="round" stroke-linejoin="round"/><path d="M244.868 173.807c.147 1.361-.513 2.554-1.486 2.659-.973.105-1.873-.911-2.02-2.272-.146-1.361.513-2.555 1.476-2.659.963-.105 1.884.911 2.03 2.272Zm-17.769.408c.146 1.361-.513 2.554-1.486 2.659-.974.105-1.874-.911-2.02-2.272-.147-1.361.512-2.554 1.486-2.659.973-.105 1.873.911 2.02 2.272Z" fill="#242424"/><path d="M227.551 170.645c1.266 2.041.575 5.517-1.047 10.301-1.622 4.785-.199 6.512 6.216 6.994" fill="#fff"/><path d="M227.551 170.645c1.266 2.041.575 5.517-1.047 10.301-1.622 4.785-.199 6.512 6.216 6.994m-.042 8.281s8.372-.764 12.213-2.868" stroke="#242424" stroke-linecap="round" stroke-linejoin="round"/><path d="M285.708 148.753c0-6.219-6.133-18.981-16.902-20.415-6.175-6.471-14.997-8.847-25.693-6.387-24.709 5.685-32.234 30.089-33.322 34.141-.105.377-.146.576-.146.576l6.614-1.675-2.857 5.57 3.474 2.282-.795.879 4.019 3.874-1.256-7.067c.774-4.575 6.017-10.951 6.017-10.951a17.095 17.095 0 0 0-3.443 8.575c2.093-5.445 14.652-10.47 14.652-10.47-4.071 3.308-6.279 9.779-6.279 9.779 3.882-4.774 12.956-7.863 18.764-9.507 1.957 4.733 5.066 9.664 9.503 12.396 4.186 2.576 4.029 7.884 4.029 7.884a24.388 24.388 0 0 1 9.419 12.94l5.065 6.931s9.147-11.224 9.137-39.355Z" fill="#242424"/><path d="M264.409 170.006c-1.695-3.633 4.459-13.474 8.812-12.249 2.449.68 5.652 5.151 6.28 9.851.628 4.701-2.7 13.611-6.28 15.537-2.239 1.256-4.092-2.157-4.092-2.157" fill="#fff"/><path d="M264.409 170.006c-1.695-3.633 4.459-13.474 8.812-12.249 2.449.68 5.652 5.151 6.28 9.851.628 4.701-2.7 13.611-6.28 15.537-2.239 1.256-4.092-2.157-4.092-2.157" stroke="#242424" stroke-linecap="round" stroke-linejoin="round"/><path d="m-2.598 347.715 118.25-27.661 246.651 28.498L298.809 392-2.598 347.715Z" fill="#fff"/><path d="m-2.598 347.715 118.25-27.661 246.651 28.498" fill="#fff"/><path d="m-2.598 347.715 118.25-27.661 246.651 28.498" stroke="#242424" stroke-linecap="round" stroke-linejoin="round"/><path d="m99.734 353.263 47.87-21.169 60.522 3.131-26.918 23.022-81.474-4.984Z" fill="#fff" stroke="#242424" stroke-linecap="round" stroke-linejoin="round"/><path d="M223.436 215.548c-15.353 6.282-18.67 20.394-44.75 76.207 0 0-11.596 2.377-17.792 16.468-6.195 14.092 4.187 25.2 16.149 24.813 0 0 4.793 4.188 14.651 3.759 9.859-.43 53.375-67.057 53.375-67.057l-21.633-54.19Z" fill="#242424"/><path d="M183.25 295.022c6.876 6.125 10.811 15.086 8.718 25.032m-2.093-22.09s8.446 1.842 9.743 12.657m14.955-44.275a61.591 61.591 0 0 1-3.998-31.063" stroke="#fff" stroke-linecap="round" stroke-linejoin="round"/><path d="M213.37 252.118c-.638 4.397 3.904 27.797 3.872 52.421" stroke="#fff" stroke-linecap="round" stroke-linejoin="round"/><path d="M328.134 220.155c19.204 9.653 21.486 39.354 3.36 74.867-12.789 25.064-30.465 62.073-41.643 64.565-11.177 2.492-22.071-4.481-22.071-4.481s-9.419-.45-12.266-7.14c-7.786-18.364 12.004-41.459 19.79-35.921 0 0 24.866-54.095 29.398-57.498" fill="#242424"/><path d="M253.733 336.826c-2.585-12.637 17.289-27.545 21.569-24.781 0 0 14.767.827 16.975 11.045m15.553 16.438c8.645-15.254 23.663-44.506 23.663-44.506" stroke="#fff" stroke-linecap="round" stroke-linejoin="round"/><path d="M275.303 312.045s10.35-6.188 18.074-.335m-14.588-7.171s5.725-12.564 11.512-24.08c5.788-11.516 19.058-28.571 24.584-29.409" stroke="#fff" stroke-linecap="round" stroke-linejoin="round"/><path d="M169.728 327.1a8.52 8.52 0 0 1-3.559-.973c-17.791-9.287-31.626-24.635-39.957-35.649a131.752 131.752 0 0 1-8.927-13.223l4.27-18.3s4.019 10.469 20.167 20.76c16.148 10.292 35.332 13.684 41.538 24.08 5.494 9.13-4.187 23.776-13.532 23.305Z" fill="#fff"/><path opacity=".4" d="M169.728 327.1a17.293 17.293 0 0 0-1.046-3.863c-3.736-9.36-26.342-27.964-26.342-27.964-5.379-.167-11.292-2.408-16.106-4.795a131.583 131.583 0 0 1-8.927-13.223l4.27-18.3s4.018 10.469 20.167 20.76c16.148 10.292 35.331 13.684 41.537 24.08 5.474 9.13-4.207 23.776-13.553 23.305Z" fill="#92E3A9"/><path d="M169.728 327.1a8.52 8.52 0 0 1-3.559-.973c-17.791-9.287-31.626-24.635-39.957-35.649a131.752 131.752 0 0 1-8.927-13.223l4.27-18.3s4.019 10.469 20.167 20.76c16.148 10.292 35.332 13.684 41.538 24.08 5.494 9.13-4.187 23.776-13.532 23.305Z" stroke="#242424" stroke-linecap="round" stroke-linejoin="round"/><path d="M129.435 276.187s-2.208 9.768-8.027 7.58c-3.139-1.193-9.199-10.574-10.34-15.296l18.367 7.716Zm-25.65-60.073 4.751-2.461s13.428.115 21.758 6.889c7.567 6.156 11.397 15.799 11.397 15.799s29.408-16.239 59.423-6.921l12.255 68.282-56.294 3.706-35.132-33.418-18.158-51.876Z" fill="#fff" stroke="#242424" stroke-linecap="round" stroke-linejoin="round"/><path d="M217.241 300.424s-6.604-.199-15.437.094c-13.354.419-31.805 1.926-40.24 6.836l-.397-.136-7.724-2.69-.157-.231c-1.423-2.094-12.904-18.583-29.303-25.294l-23.192-64.827s24.071 1.047 37.226 22.803l6.604 2.387s39.298-11.642 61.275-7.455l11.345 68.513Z" fill="#92E3A9"/><path opacity=".3" d="M153.286 304.297c-1.423-2.094-12.904-18.583-29.303-25.294l-23.192-64.827s24.071 1.047 37.226 22.803l15.269 67.318Zm48.518-3.779c-13.354.419-31.805 1.927-40.24 6.837l-.398-.136-15.426-65.497s12.611-2.837 16.504-1.403c0 0 25.651 18.95 39.56 60.199Z" fill="#000" fill-opacity=".7"/><path d="M217.241 300.424s-6.604-.199-15.437.094c-13.354.419-31.805 1.926-40.24 6.836l-.397-.136-7.724-2.69-.157-.231c-1.423-2.094-12.904-18.583-29.303-25.294l-23.192-64.827s24.071 1.047 37.226 22.803l6.604 2.387s39.298-11.642 61.275-7.455l11.345 68.513Zm-72.61-61.048 15.143 62.849m-6.341 2.314-14.704-62.807" stroke="#242424" stroke-linecap="round" stroke-linejoin="round"/><path d="M116.061 277.36c-3.37-.943-10.131-21.138-7.033-29.828 0 0 3.684-6.397 5.181-6.836 2.354-.691 11.815-.492 11.355 1.047-1.047 3.685-8.373 3.622-8.373 3.622l-2.344 4.366.105 2.387s3.411-2.502 4.678-2.429a41.908 41.908 0 0 1 6.656 3.088c2.271 1.204 3.663 1.854 3.139 2.953-1.684 3.622-8.864 1.047-8.864 1.047l-2.637 4.104s2.606.45 3.747.586c1.14.136 10.612 6.428 10.319 7.214-1.11 3.078-10.1-.252-10.1-.252l-1.59 1.33s6.624 1.706 7.325 1.958c1.047.387 5.087 3.496 5.024 3.852-.482 2.712-6.039.712-6.039.712l-4.866-.199a6.147 6.147 0 0 1-2.606 1.351" fill="#fff"/><path d="M116.061 277.36c-3.37-.943-10.131-21.138-7.033-29.828 0 0 3.684-6.397 5.181-6.836 2.354-.691 11.815-.492 11.355 1.047-1.047 3.685-8.373 3.622-8.373 3.622l-2.344 4.366.105 2.387s3.411-2.502 4.678-2.429a41.908 41.908 0 0 1 6.656 3.088c2.271 1.204 3.663 1.854 3.139 2.953-1.684 3.622-8.864 1.047-8.864 1.047l-2.637 4.104s2.606.45 3.747.586c1.14.136 10.612 6.428 10.319 7.214-1.11 3.078-10.1-.252-10.1-.252l-1.59 1.33s6.624 1.706 7.325 1.958c1.047.387 5.087 3.496 5.024 3.852-.482 2.712-6.039.712-6.039.712l-4.866-.199a6.147 6.147 0 0 1-2.606 1.351" stroke="#242424" stroke-linecap="round" stroke-linejoin="round"/><path d="M114.993 252.118s-3.139 2.638-3.956 3.392c-.816.754-.607 3.193-.607 3.193m2.322 5.319c0 2.67 1.779 4.272 2.595 5.13.817.858-1.308 3.204 1.047 4.879" stroke="#242424" stroke-linecap="round" stroke-linejoin="round"/><path d="M267.736 348.353c-6.646 1.811-13.867-9.873-22.679-22.625-5.819-8.375-12.328-17.306-19.811-23.033a52.662 52.662 0 0 0-1.81-1.308l4.374-21.986c9.084 4.753 14.715 12.385 24.134 20.216 15.175 12.637 28.623 20.395 32.348 25.986 3.726 5.59-5.138 19.64-16.556 22.75Z" fill="#fff"/><path opacity=".4" d="M245.057 325.718c-5.819-8.376-12.328-17.306-19.811-23.033a7.322 7.322 0 0 0 2.899-.44s11.826 9.601 16.912 23.473Z" fill="#92E3A9"/><path d="M267.736 348.353c-6.646 1.811-13.867-9.873-22.679-22.625-5.819-8.375-12.328-17.306-19.811-23.033a52.662 52.662 0 0 0-1.81-1.308l4.374-21.986c9.084 4.753 14.715 12.385 24.134 20.216 15.175 12.637 28.623 20.395 32.348 25.986 3.726 5.59-5.138 19.64-16.556 22.75Z" stroke="#242424" stroke-linecap="round" stroke-linejoin="round"/><path d="M230.271 300.518a3.63 3.63 0 0 1-2.093 1.696 7.275 7.275 0 0 1-.722.241h-.199c-7.022 1.832-22.825-1.979-22.825-1.979s-10.351-4.921-10.978-6.083a28.234 28.234 0 0 1-1.162-2.826l-.283-.827s-3.725-2.094-4.186-3.728c-.46-1.633-1.245-2.093 1.047-2.387 2.292-.293 14.651 0 14.651 0l-13.448-5.486s-8.906-4.491-9.733-6.072c-.827-1.581-1.863-2.628 2.69-2 4.552.629 14.495 3.56 14.495 3.56l7.786 1.654-7.786-3.319s-15.322-1.853-12.423-6.616h8.697c4.927.217 9.827.841 14.652 1.863 2.532.775 19.277 11.182 19.277 11.182" fill="#fff"/><path opacity=".4" d="M227.225 302.497c-7.022 1.832-22.825-1.979-22.825-1.979s-10.351-4.921-10.979-6.083a28.483 28.483 0 0 1-1.161-2.827l12.705 1.424a5.39 5.39 0 0 0 0 5.235c1.413 2.513 17.509 5.088 22.26 4.23Z" fill="#92E3A9"/><path d="M230.271 300.518a3.63 3.63 0 0 1-2.093 1.696 7.275 7.275 0 0 1-.722.241h-.199c-7.022 1.832-22.825-1.979-22.825-1.979s-10.351-4.921-10.978-6.083a28.234 28.234 0 0 1-1.162-2.826l-.283-.827s-3.725-2.094-4.186-3.728c-.46-1.633-1.245-2.093 1.047-2.387 2.292-.293 14.651 0 14.651 0l-13.448-5.486s-8.906-4.491-9.733-6.072c-.827-1.581-1.863-2.628 2.69-2 4.552.629 14.495 3.56 14.495 3.56l7.786 1.654-7.786-3.319s-15.322-1.853-12.423-6.616h8.697c4.927.217 9.827.841 14.652 1.863 2.532.775 19.277 11.182 19.277 11.182m-35.761 11.401 15.3 2.251" stroke="#242424" stroke-linecap="round" stroke-linejoin="round"/><path d="m39.557 337.622 38.324 11.516L148 333.131s-42.835-12.197-43.243-11.904c-.408.293-65.2 16.395-65.2 16.395Z" fill="#92E3A9"/><path opacity=".3" d="m39.557 337.622 38.324 11.516L148 333.131s-42.835-12.197-43.243-11.904c-.408.293-65.2 16.395-65.2 16.395Z" fill="#000" fill-opacity=".7"/><path d="m39.557 337.622 38.324 11.516L148 333.131s-42.835-12.197-43.243-11.904c-.408.293-65.2 16.395-65.2 16.395Z" stroke="#242424" stroke-linecap="round" stroke-linejoin="round"/><path d="M40.111 324.117c-2.69.188-3.36 9.893-.555 13.505l61.904-12.877 5.013-11.726-66.362 11.098Z" fill="#92E3A9"/><path opacity=".3" d="M40.111 324.117c-2.69.188-3.36 9.893-.555 13.505l61.904-12.877 5.013-11.726-66.362 11.098Z" fill="#000" fill-opacity=".7"/><path d="M40.111 324.117c-2.69.188-3.36 9.893-.555 13.505l61.904-12.877 5.013-11.726-66.362 11.098Z" stroke="#242424" stroke-linecap="round" stroke-linejoin="round"/><path d="M144.999 323.98s-.921 5.109-.324 8.24l-66.864 15.138-35.248-10.354s-3.674-6.491-.471-11.516l64.384-10.93 38.523 9.422Z" fill="#fff" stroke="#242424" stroke-linecap="round" stroke-linejoin="round"/><path d="m40.103 324.127 66.32-11.098 41.182 10.438-69.26 13.81-38.242-13.15Z" fill="#242424" stroke="#242424" stroke-linecap="round" stroke-linejoin="round"/><path d="m42.457 330.325 35.07 10.438 57.403-11.548m9.544 1.068-61.726 13.171m-39.455-9.025c.523.052 26.436 8.03 26.436 8.03m69.701-14.594 4.908-.796m-67.953 17.337-2.596-.586" stroke="#242424" stroke-linecap="round" stroke-linejoin="round"/><path d="M42.092 325.498a9.267 9.267 0 0 1 .47 11.516 10.888 10.888 0 0 1-.47-11.516Z" fill="#242424"/><path opacity=".3" d="M42.09 325.499a9.266 9.266 0 0 1 .47 11.516 10.89 10.89 0 0 1-.47-11.516Z" fill="#fff" fill-opacity=".7"/><path d="M42.092 325.498a9.267 9.267 0 0 1 .47 11.516 10.888 10.888 0 0 1-.47-11.516Z" stroke="#242424" stroke-linecap="round" stroke-linejoin="round"/><path d="m185.321 340.763 66.927 2.753-6.52 23.043-82.322-3.14 21.915-22.656Z" fill="#fff"/><path opacity=".4" d="m185.321 340.762 66.927 2.754-6.52 23.043-82.322-3.141 21.915-22.656Z" fill="#92E3A9"/><path d="m185.321 340.763 66.927 2.753-6.52 23.043-82.322-3.14 21.915-22.656Z" stroke="#242424" stroke-linecap="round" stroke-linejoin="round"/></g><defs><clipPath id="a"><path fill="#fff" d="M0 0h383v392H0z"/></clipPath></defs></svg>