<svg width="383" height="392" viewBox="0 0 383 392" fill="none" xmlns="http://www.w3.org/2000/svg">
<g clip-path="url(#clip0_794_1421)">
<path d="M19.4937 94.9568C43.4711 48.3505 88.0107 13.0991 143.515 8.13636C181.688 4.79652 219.736 15.8033 250.236 39.0094C265.388 50.697 278.859 65.5761 287.792 82.568C298.064 102.077 301.048 124.571 311.617 143.982C324.747 168.13 349.407 178.082 365.961 198.94C379.604 216.121 384.277 239.145 382.713 261.028C379.873 300.981 356.507 338.894 322.051 359.365C292.969 376.671 257.901 381.445 224.092 379.872C171.967 377.454 120.076 360.264 79.0327 328.042C37.989 295.821 8.46659 248.207 1.51962 196.486C-3.27046 161.333 3.63158 125.668 19.4937 94.9568Z" fill="#92E3A9"/>
<path opacity="0.7" d="M19.4937 94.9568C43.4711 48.3505 88.0107 13.0991 143.515 8.13636C181.688 4.79652 219.736 15.8033 250.236 39.0094C265.388 50.697 278.859 65.5761 287.792 82.568C298.064 102.077 301.048 124.571 311.617 143.982C324.747 168.13 349.407 178.082 365.961 198.94C379.604 216.121 384.277 239.145 382.713 261.028C379.873 300.981 356.507 338.894 322.051 359.365C292.969 376.671 257.901 381.445 224.092 379.872C171.967 377.454 120.076 360.264 79.0327 328.042C37.989 295.821 8.46659 248.207 1.51962 196.486C-3.27046 161.333 3.63158 125.668 19.4937 94.9568Z" fill="white"/>
<path d="M3.63086 112.003C4.69133 116.201 4.17011 108.469 6.24611 99.0025C8.32212 89.5356 11.881 93.3835 11.881 93.3835" stroke="#242424" stroke-linecap="round" stroke-linejoin="round"/>
<path d="M2.97461 102.338L9.4902 99.668" stroke="#242424" stroke-linecap="round" stroke-linejoin="round"/>
<path d="M14.882 96.4585C14.882 96.4585 10.9906 104.55 16.8591 107.939" stroke="#242424" stroke-linecap="round" stroke-linejoin="round"/>
<path d="M20.3906 94.2017C20.3906 94.2017 26.8163 97.7978 22.7901 105.512" stroke="#242424" stroke-linecap="round" stroke-linejoin="round"/>
<path d="M15.9961 99.1914L20.6064 102.554" stroke="#242424" stroke-linecap="round" stroke-linejoin="round"/>
<path d="M19.6097 97.708L16.0059 103.444" stroke="#242424" stroke-linecap="round" stroke-linejoin="round"/>
<path d="M40.3508 183.82C41.2278 178.475 37.6069 173.43 32.2633 172.553C26.9197 171.675 21.8769 175.298 21 180.643C20.123 185.989 23.7439 191.033 29.0875 191.911C34.4311 192.788 39.4739 189.166 40.3508 183.82Z" stroke="#242424" stroke-linecap="round" stroke-linejoin="round"/>
<path d="M46.1353 196.753C52.0185 195.546 55.8098 189.796 54.6032 183.91C53.3966 178.025 47.6491 174.232 41.7658 175.439C35.8826 176.647 32.0914 182.396 33.298 188.282C34.5046 194.167 40.252 197.96 46.1353 196.753Z" stroke="#242424" stroke-linecap="round" stroke-linejoin="round"/>
<path d="M39.5791 178.172L35.0586 179.782" stroke="#242424" stroke-linecap="round" stroke-linejoin="round"/>
<path d="M40.2074 180.033L33.7188 182.38" stroke="#242424" stroke-linecap="round" stroke-linejoin="round"/>
<path d="M40.4408 182.281L33.1973 185.068" stroke="#242424" stroke-linecap="round" stroke-linejoin="round"/>
<path d="M39.9297 185.347L33.3242 188.367" stroke="#242424" stroke-linecap="round" stroke-linejoin="round"/>
<path d="M38.7698 187.702L33.7461 189.788" stroke="#242424" stroke-linecap="round" stroke-linejoin="round"/>
<path d="M35.3818 167.267C35.0942 166.368 31.9218 165.811 31.787 168.166C31.6522 170.522 35.1482 168.562 36.1277 167.267C36.1277 167.267 34.3303 169.694 35.0942 170.171" stroke="#242424" stroke-linecap="round" stroke-linejoin="round"/>
<path d="M52.9782 170.198L50.1562 176.068C50.1562 176.068 51.5672 173.138 53.077 173.371C54.9373 173.695 53.7061 176.743 51.4504 175.619" stroke="#242424" stroke-linecap="round" stroke-linejoin="round"/>
<path d="M360.082 266.054L364.513 270.252" stroke="#242424" stroke-linecap="round" stroke-linejoin="round"/>
<path d="M364.514 264.966L360.803 270.513" stroke="#242424" stroke-linecap="round" stroke-linejoin="round"/>
<path d="M368.881 266.557L373.311 264.903" stroke="#242424" stroke-linecap="round" stroke-linejoin="round"/>
<path d="M375.441 260.282L378.138 262.664" stroke="#242424" stroke-linecap="round" stroke-linejoin="round"/>
<path d="M380.204 257.405L376.789 269.137" stroke="#242424" stroke-linecap="round" stroke-linejoin="round"/>
<path d="M312.577 132.915L307.293 149.34L323.739 147.119L312.577 132.915Z" stroke="#242424" stroke-linecap="round" stroke-linejoin="round"/>
<path d="M312.578 132.915L315.517 148.135" stroke="#242424" stroke-linecap="round" stroke-linejoin="round"/>
<path d="M315.049 145.699L316.972 145.393L317.421 147.973" stroke="#242424" stroke-linecap="round" stroke-linejoin="round"/>
<path d="M105.463 283.216L113.686 287.262" stroke="#242424" stroke-linecap="round" stroke-linejoin="round"/>
<path d="M111.025 280.142L108.68 288.727" stroke="#242424" stroke-linecap="round" stroke-linejoin="round"/>
<path d="M112.176 275.952C112.31 275.812 112.475 275.706 112.658 275.641C112.84 275.576 113.036 275.555 113.228 275.58C113.42 275.604 113.604 275.673 113.764 275.782C113.925 275.89 114.058 276.035 114.153 276.204C114.971 277.498 113.362 280.213 113.362 280.213L116.651 278.955" stroke="#242424" stroke-linecap="round" stroke-linejoin="round"/>
<path d="M169.963 0.449707C177.799 4.85501 168.812 15.6435 168.812 21.9368C168.812 28.2301 177.8 27.331 182.293 29.1291C184.09 29.1291 187.685 29.1291 187.595 33.7052" stroke="#242424" stroke-linecap="round" stroke-linejoin="round"/>
<path d="M161.219 6.14062C162.576 13.5847 171.104 10.9415 176.335 12.6407C185.322 15.5626 180.334 24.8407 177.647 30.4507C176.047 33.8041 174.448 38.4881 177.314 41.6707" stroke="#242424" stroke-linecap="round" stroke-linejoin="round"/>
<path d="M162.359 9.0355L171.715 1.25879" stroke="#242424" stroke-linecap="round" stroke-linejoin="round"/>
<path d="M166.035 11.355L173.072 5.51123" stroke="#242424" stroke-linecap="round" stroke-linejoin="round"/>
<path d="M170.17 17.2619L176.119 12.5869" stroke="#242424" stroke-linecap="round" stroke-linejoin="round"/>
<path d="M168.938 24.2651L180.576 15.895" stroke="#242424" stroke-linecap="round" stroke-linejoin="round"/>
<path d="M173.396 27.5288L181.503 21.5771" stroke="#242424" stroke-linecap="round" stroke-linejoin="round"/>
<path d="M176.846 40.1785L186.974 31.9253" stroke="#242424" stroke-linecap="round" stroke-linejoin="round"/>
<path d="M177.098 33.6871L183.703 29.0391" stroke="#242424" stroke-linecap="round" stroke-linejoin="round"/>
<path d="M44.8625 287.686C54.5126 283.824 59.2066 272.868 55.3468 263.215C51.4871 253.561 40.5352 248.865 30.8851 252.726C21.235 256.588 16.5411 267.544 20.4008 277.197C24.2606 286.851 35.2125 291.547 44.8625 287.686Z" stroke="#242424" stroke-linecap="round" stroke-linejoin="round"/>
<path d="M42.6072 252.002C49.1678 244.306 54.7397 239.936 56.8966 241.357C60.1589 243.506 54.2904 258.178 43.7846 274.127C33.2787 290.076 22.1169 301.242 18.8456 299.093C16.6977 297.673 18.5041 290.822 22.9976 281.76" stroke="#242424" stroke-linecap="round" stroke-linejoin="round"/>
<path d="M19.4931 274.082C10.3533 271.448 4.51169 268.373 4.87117 265.919C5.44634 262.044 21.2186 261.172 40.1003 263.968C58.9821 266.764 73.8286 272.167 73.2535 276.042C72.858 278.739 65.1651 279.962 54.2549 279.548" stroke="#242424" stroke-linecap="round" stroke-linejoin="round"/>
<path d="M21.8474 260.443C14.9454 247.992 11.4944 238.264 13.84 236.754C16.9136 234.758 28.7944 247.65 40.3697 265.523C51.945 283.396 58.856 299.543 55.7824 301.529C53.7514 302.842 47.8649 297.646 40.7651 288.799" stroke="#242424" stroke-linecap="round" stroke-linejoin="round"/>
<path d="M59.5398 249.502C59.2047 250.013 58.7257 250.413 58.1634 250.652C57.601 250.891 56.9805 250.958 56.3802 250.844C55.7799 250.731 55.2267 250.442 54.7904 250.014C54.3542 249.586 54.0544 249.038 53.9291 248.44C53.8037 247.842 53.8583 247.22 54.086 246.653C54.3138 246.086 54.7044 245.599 55.2085 245.254C55.7127 244.908 56.3078 244.72 56.9187 244.713C57.5297 244.706 58.129 244.88 58.6411 245.213C58.9822 245.436 59.2761 245.723 59.5059 246.059C59.7358 246.395 59.8971 246.773 59.9805 247.171C60.064 247.569 60.0681 247.98 59.9924 248.38C59.9168 248.78 59.763 249.162 59.5398 249.502Z" fill="#242424"/>
<path d="M49.3035 296.873C48.9684 297.384 48.4894 297.784 47.9271 298.023C47.3647 298.262 46.7442 298.329 46.1439 298.215C45.5435 298.101 44.9903 297.812 44.5541 297.385C44.1178 296.957 43.8181 296.409 43.6927 295.811C43.5674 295.213 43.622 294.591 43.8497 294.023C44.0774 293.456 44.4681 292.969 44.9722 292.624C45.4764 292.279 46.0715 292.091 46.6825 292.084C47.2934 292.077 47.8927 292.251 48.4048 292.584C48.7458 292.806 49.0397 293.093 49.2696 293.429C49.4994 293.765 49.6607 294.143 49.7442 294.542C49.8277 294.94 49.8318 295.351 49.7562 295.751C49.6805 296.151 49.5267 296.532 49.3035 296.873Z" fill="#242424"/>
<path d="M32.7937 264.75C32.4586 265.261 31.9797 265.661 31.4173 265.9C30.855 266.139 30.2344 266.206 29.6341 266.092C29.0338 265.979 28.4806 265.69 28.0443 265.262C27.6081 264.834 27.3083 264.286 27.183 263.688C27.0576 263.09 27.1122 262.468 27.34 261.901C27.5677 261.334 27.9583 260.847 28.4625 260.502C28.9666 260.156 29.5617 259.968 30.1726 259.961C30.7836 259.954 31.3829 260.128 31.895 260.462C32.2361 260.684 32.53 260.971 32.7598 261.307C32.9897 261.643 33.151 262.021 33.2345 262.419C33.3179 262.818 33.322 263.228 33.2464 263.628C33.1707 264.028 33.0169 264.41 32.7937 264.75Z" fill="#242424"/>
<path d="M229.879 130.172H240.475L245.768 121.002L240.475 111.832H229.879L224.586 121.002L229.879 130.172Z" stroke="#242424" stroke-linecap="round" stroke-linejoin="round"/>
<path d="M228.343 150.302L223.05 141.123H212.463" stroke="#242424" stroke-linecap="round" stroke-linejoin="round"/>
<path d="M213.881 121.002H224.468L229.761 111.832L224.468 102.653H213.881L208.588 111.832L213.881 121.002Z" stroke="#242424" stroke-linecap="round" stroke-linejoin="round"/>
<path d="M229.879 111.832H240.475L245.768 102.653L240.475 93.4824H229.879L224.586 102.653L229.879 111.832Z" stroke="#242424" stroke-linecap="round" stroke-linejoin="round"/>
<path d="M229.772 113.253C230.556 113.253 231.191 112.617 231.191 111.832C231.191 111.048 230.556 110.412 229.772 110.412C228.987 110.412 228.352 111.048 228.352 111.832C228.352 112.617 228.987 113.253 229.772 113.253Z" fill="#242424"/>
<path d="M207.654 93.9948C208.439 93.9948 209.074 93.3588 209.074 92.5743C209.074 91.7898 208.439 91.1538 207.654 91.1538C206.87 91.1538 206.234 91.7898 206.234 92.5743C206.234 93.3588 206.87 93.9948 207.654 93.9948Z" fill="#242424"/>
<path d="M226.922 150.293C226.926 150.011 227.012 149.736 227.172 149.504C227.331 149.271 227.555 149.091 227.816 148.985C228.078 148.88 228.365 148.854 228.641 148.911C228.917 148.968 229.169 149.106 229.368 149.306C229.566 149.507 229.7 149.762 229.754 150.038C229.807 150.315 229.778 150.602 229.669 150.862C229.561 151.122 229.377 151.344 229.143 151.501C228.908 151.657 228.633 151.74 228.351 151.74C228.162 151.74 227.974 151.703 227.8 151.63C227.625 151.557 227.467 151.45 227.334 151.315C227.201 151.181 227.096 151.021 227.026 150.845C226.955 150.67 226.92 150.482 226.922 150.293Z" fill="#242424"/>
<path d="M212.463 142.543C213.247 142.543 213.883 141.907 213.883 141.123C213.883 140.338 213.247 139.702 212.463 139.702C211.679 139.702 211.043 140.338 211.043 141.123C211.043 141.907 211.679 142.543 212.463 142.543Z" fill="#242424"/>
<path d="M256.014 102.896C256.014 102.615 256.097 102.34 256.253 102.106C256.409 101.873 256.631 101.691 256.89 101.583C257.15 101.476 257.435 101.448 257.711 101.502C257.986 101.557 258.239 101.692 258.438 101.891C258.636 102.09 258.771 102.343 258.826 102.618C258.881 102.894 258.853 103.18 258.745 103.439C258.638 103.699 258.456 103.921 258.223 104.077C257.989 104.233 257.714 104.316 257.434 104.316C257.057 104.316 256.696 104.166 256.43 103.9C256.163 103.634 256.014 103.272 256.014 102.896Z" fill="#242424"/>
<path d="M222.941 142.543C223.726 142.543 224.361 141.907 224.361 141.123C224.361 140.338 223.726 139.702 222.941 139.702C222.157 139.702 221.521 140.338 221.521 141.123C221.521 141.907 222.157 142.543 222.941 142.543Z" fill="#242424"/>
<path d="M244.348 102.896C244.348 102.615 244.431 102.34 244.587 102.106C244.743 101.873 244.965 101.691 245.224 101.583C245.484 101.476 245.769 101.448 246.045 101.502C246.32 101.557 246.573 101.692 246.772 101.891C246.97 102.09 247.105 102.343 247.16 102.618C247.215 102.894 247.187 103.18 247.079 103.439C246.972 103.699 246.79 103.921 246.556 104.077C246.323 104.233 246.048 104.316 245.768 104.316C245.392 104.314 245.032 104.163 244.766 103.897C244.5 103.632 244.35 103.272 244.348 102.896Z" fill="#242424"/>
<path d="M228.352 130.163C228.352 129.882 228.435 129.608 228.591 129.374C228.747 129.14 228.969 128.958 229.228 128.851C229.488 128.743 229.773 128.715 230.049 128.77C230.324 128.825 230.577 128.96 230.776 129.159C230.974 129.357 231.109 129.61 231.164 129.886C231.219 130.162 231.191 130.447 231.083 130.707C230.976 130.966 230.794 131.188 230.56 131.344C230.327 131.5 230.052 131.584 229.771 131.584C229.585 131.584 229.4 131.547 229.228 131.476C229.056 131.404 228.899 131.3 228.767 131.168C228.636 131.036 228.531 130.879 228.46 130.707C228.388 130.534 228.352 130.35 228.352 130.163Z" fill="#242424"/>
<path d="M245.768 102.896H257.424" stroke="#242424" stroke-linecap="round" stroke-linejoin="round"/>
<path d="M229.772 130.172L222.941 141.123" stroke="#242424" stroke-linecap="round" stroke-linejoin="round"/>
<path d="M213.882 102.653L207.654 92.5747" stroke="#242424" stroke-linecap="round" stroke-linejoin="round"/>
<path d="M288.979 66.5022C290.196 62.3714 292.738 58.7563 296.214 56.2152C299.689 53.674 303.904 52.3481 308.208 52.4422C312.512 52.5363 316.665 54.0452 320.026 56.7358C323.387 59.4265 325.769 63.1493 326.805 67.3293" stroke="#242424" stroke-linecap="round" stroke-linejoin="round"/>
<path d="M305.559 91.5048C300.785 90.9517 296.38 88.6638 293.18 85.0755C289.981 81.4873 288.211 76.8486 288.205 72.0405" stroke="#242424" stroke-linecap="round" stroke-linejoin="round"/>
<path d="M327.38 72.0405C327.381 74.6158 326.875 77.1661 325.89 79.5456C324.906 81.9251 323.462 84.0872 321.642 85.9082C319.821 87.7292 317.66 89.1735 315.282 90.1584C312.903 91.1434 310.354 91.6498 307.779 91.6486" stroke="#242424" stroke-linecap="round" stroke-linejoin="round"/>
<path d="M328.486 59.6157C334.624 58.8245 338.731 59.256 339.36 61.0811C340.627 64.7312 327.515 72.6068 310.08 78.6573C292.645 84.7079 277.466 86.6588 276.199 83.0087C275.525 81.0578 278.958 77.8932 284.961 74.4588" stroke="#242424" stroke-linecap="round" stroke-linejoin="round"/>
<path d="M222.94 46.1841L224.819 49.987L229.016 50.5984L225.978 53.5652L226.697 57.7458L222.94 55.7679L219.184 57.7458L219.903 53.5652L216.865 50.5984L221.062 49.987L222.94 46.1841Z" stroke="#242424" stroke-linecap="round" stroke-linejoin="round"/>
<path d="M90.2649 36.0429C90.2626 39.4241 88.9195 42.6662 86.5304 45.0579C84.1412 47.4496 80.9013 48.7955 77.5213 48.8003C77.1079 48.8003 76.7035 48.7823 76.3081 48.7464C73.8483 48.513 71.5094 47.5698 69.5755 46.0315C67.6416 44.4931 66.196 42.426 65.4145 40.0812C64.633 37.7364 64.5492 35.215 65.1733 32.8234C65.7975 30.4319 67.1026 28.2732 68.9301 26.6098C70.7576 24.9464 73.0288 23.8499 75.4676 23.4536C77.9064 23.0573 80.4077 23.3783 82.6676 24.3775C84.9275 25.3766 86.8485 27.011 88.1973 29.082C89.546 31.1529 90.2643 33.5712 90.2649 36.0429V36.0429Z" stroke="#242424" stroke-linecap="round" stroke-linejoin="round"/>
<path d="M88.2156 38.3534C88.2138 38.7424 88.0969 39.1222 87.8796 39.4448C87.6622 39.7674 87.3542 40.0183 86.9944 40.166C86.6346 40.3136 86.2392 40.3513 85.858 40.2744C85.4768 40.1974 85.1269 40.0091 84.8526 39.7334C84.5782 39.4577 84.3917 39.1069 84.3165 38.7252C84.2412 38.3435 84.2808 37.9481 84.43 37.5889C84.5792 37.2296 84.8315 36.9226 85.1549 36.7067C85.4784 36.4907 85.8586 36.3755 86.2475 36.3755C86.5067 36.3755 86.7634 36.4267 87.0027 36.5262C87.2421 36.6257 87.4594 36.7716 87.6423 36.9553C87.8252 37.1391 87.97 37.3572 88.0684 37.5971C88.1667 37.8371 88.2168 38.0941 88.2156 38.3534V38.3534Z" stroke="#242424" stroke-linecap="round" stroke-linejoin="round"/>
<path d="M70.4752 43.361C70.4759 43.8296 70.3732 44.2926 70.1744 44.7169C69.9755 45.1411 69.6855 45.5163 69.3249 45.8154C67.6622 44.4271 66.3841 42.6346 65.6133 40.61C66.1078 40.3062 66.6776 40.1473 67.2579 40.1514C67.68 40.1503 68.0981 40.2324 68.4884 40.3932C68.8787 40.5539 69.2335 40.7902 69.5324 41.0883C69.8313 41.3865 70.0684 41.7407 70.2302 42.1307C70.392 42.5207 70.4752 42.9388 70.4752 43.361Z" stroke="#242424" stroke-linecap="round" stroke-linejoin="round"/>
<path d="M86.2487 45.3299C83.892 47.5628 80.7682 48.8051 77.5223 48.8002C77.1089 48.8002 76.7044 48.7823 76.309 48.7463C76.2367 48.4004 76.2005 48.0478 76.2012 47.6944C76.2017 46.4992 76.6058 45.3393 77.3478 44.4025C78.0898 43.4658 79.1263 42.8072 80.2893 42.5335C81.4523 42.2598 82.6736 42.3871 83.7553 42.8947C84.8369 43.4022 85.7156 44.2603 86.2487 45.3299V45.3299Z" stroke="#242424" stroke-linecap="round" stroke-linejoin="round"/>
<path d="M74.4298 30.9902C76.0478 30.9902 77.3595 29.678 77.3595 28.0593C77.3595 26.4406 76.0478 25.1284 74.4298 25.1284C72.8117 25.1284 71.5 26.4406 71.5 28.0593C71.5 29.678 72.8117 30.9902 74.4298 30.9902Z" stroke="#242424" stroke-linecap="round" stroke-linejoin="round"/>
<path d="M77.1438 36.3756C77.1438 36.6441 77.0642 36.9066 76.9151 37.1298C76.766 37.3531 76.554 37.5271 76.306 37.6298C76.0581 37.7326 75.7852 37.7595 75.522 37.7071C75.2587 37.6547 75.017 37.5254 74.8272 37.3356C74.6374 37.1457 74.5081 36.9038 74.4558 36.6405C74.4034 36.3771 74.4303 36.1042 74.533 35.8561C74.6357 35.608 74.8096 35.396 75.0328 35.2469C75.256 35.0977 75.5184 35.0181 75.7868 35.0181C76.1467 35.0181 76.4918 35.1611 76.7463 35.4157C77.0008 35.6703 77.1438 36.0156 77.1438 36.3756Z" stroke="#242424" stroke-linecap="round" stroke-linejoin="round"/>
<path d="M87.8654 28.5719C87.5087 28.6889 87.1352 28.7466 86.7599 28.7427C86.2694 28.7427 85.7837 28.6459 85.3306 28.4578C84.8775 28.2697 84.466 27.9941 84.1195 27.6467C83.7731 27.2993 83.4985 26.8869 83.3116 26.4332C83.1247 25.9795 83.0291 25.4934 83.0303 25.0027C83.0211 24.847 83.0211 24.6909 83.0303 24.5352C84.9553 25.4532 86.6181 26.8415 87.8654 28.5719V28.5719Z" stroke="#242424" stroke-linecap="round" stroke-linejoin="round"/>
<path d="M380.878 184.106L382.253 181.013L380.033 179.782C380.092 179.235 380.092 178.683 380.033 178.136L382.316 177.022L381.103 173.866L378.658 174.567C378.328 174.129 377.948 173.731 377.526 173.38L378.353 170.98L375.27 169.604L374.039 171.825C373.493 171.762 372.941 171.762 372.394 171.825L371.28 169.542L368.126 170.755L368.826 173.201C368.386 173.528 367.988 173.909 367.64 174.333L365.232 173.497L363.857 176.59L366.085 177.822C366.023 178.368 366.023 178.92 366.085 179.467L363.803 180.582L365.016 183.737L367.46 183.036C367.79 183.474 368.17 183.873 368.593 184.223L367.757 186.632L370.849 187.999L372.08 185.778C372.624 185.856 373.176 185.871 373.724 185.823L374.839 188.107L377.993 186.893L377.283 184.448C377.726 184.12 378.128 183.74 378.479 183.315L380.878 184.106ZM371.487 182.371C370.777 182.055 370.177 181.536 369.762 180.879C369.347 180.222 369.137 179.457 369.157 178.681C369.176 177.904 369.426 177.15 369.874 176.516C370.322 175.881 370.947 175.393 371.672 175.114C372.397 174.835 373.188 174.778 373.946 174.948C374.704 175.119 375.394 175.511 375.929 176.074C376.464 176.637 376.82 177.346 376.953 178.112C377.085 178.877 376.987 179.665 376.672 180.375C376.246 181.325 375.461 182.066 374.488 182.437C373.516 182.808 372.437 182.778 371.487 182.353V182.371Z" stroke="#242424" stroke-linecap="round" stroke-linejoin="round"/>
<path d="M364.459 199.956L366.329 195.758L363.3 194.085C363.41 193.347 363.431 192.599 363.363 191.856L366.463 190.345L364.819 186.048L361.502 187.01C361.054 186.413 360.539 185.87 359.966 185.392L361.089 182.128L356.892 180.258L355.221 183.279C354.482 183.171 353.734 183.153 352.992 183.225L351.482 180.114L347.195 181.768L348.148 185.086C347.552 185.532 347.012 186.048 346.539 186.623L343.268 185.491L341.407 189.698L344.427 191.361C344.321 192.103 344.3 192.854 344.364 193.6L341.264 195.11L342.908 199.399L346.225 198.437C346.676 199.034 347.195 199.577 347.77 200.055L346.638 203.319L350.835 205.189L352.506 202.168C353.244 202.275 353.993 202.294 354.735 202.222L356.245 205.332L360.532 203.678L359.579 200.361C360.178 199.915 360.721 199.399 361.197 198.823L364.459 199.956ZM351.698 197.601C350.733 197.171 349.917 196.464 349.354 195.57C348.791 194.676 348.506 193.635 348.534 192.579C348.563 191.523 348.903 190.499 349.514 189.637C350.124 188.774 350.976 188.113 351.963 187.735C352.949 187.358 354.025 187.281 355.055 187.516C356.085 187.75 357.022 188.285 357.748 189.052C358.474 189.82 358.956 190.785 359.133 191.827C359.31 192.868 359.175 193.939 358.743 194.903C358.164 196.194 357.097 197.201 355.776 197.705C354.455 198.209 352.989 198.168 351.698 197.592V197.601Z" stroke="#242424" stroke-linecap="round" stroke-linejoin="round"/>
<path d="M178.159 160.092C176.93 162.43 175.536 164.677 173.989 166.817C166.004 177.923 154.272 185.762 140.959 188.887C127.646 192.012 113.652 190.212 101.563 183.818C100.31 183.153 99.0971 182.451 97.9228 181.714C96.7545 180.986 95.6131 180.222 94.5257 179.422C93.1836 178.451 91.9045 177.432 90.6882 176.365C90.607 176.303 90.5317 176.234 90.4636 176.158C82.4976 169.107 76.6751 159.956 73.6613 149.751C70.6475 139.546 70.5641 128.699 73.4204 118.449C76.2768 108.199 81.9577 98.9591 89.8142 91.7857C97.6707 84.6123 107.386 79.7945 117.85 77.8826C128.313 75.9707 139.104 77.0419 148.988 80.9738C158.872 84.9057 167.451 91.5397 173.745 100.118C180.039 108.696 183.794 118.872 184.581 129.484C185.368 140.096 183.155 150.715 178.195 160.128L178.159 160.092Z" fill="#92E3A9"/>
<g opacity="0.6">
<path d="M178.159 160.093C176.927 162.427 175.537 164.674 173.998 166.817L172.902 165.918L171.014 164.92L169.028 163.878L169.361 161.477L169.253 159.31C169.136 157.144 170.7 158.915 171.994 158.259C172.968 157.562 173.755 156.636 174.285 155.561C174.285 155.561 175.184 152.676 174.888 151.516C174.404 150.179 173.833 148.876 173.18 147.614L169.963 152.109L167.312 151.902L164.669 150.518L164.337 146.967L163.025 146.283L162.477 144.243L155.386 142.256L154.577 140.835C153.768 139.415 150.506 138.686 150.506 138.686L151.306 136.834L152.564 134.767C153.831 132.699 155.143 136.133 155.143 136.133L156.644 136.915L159.43 134.578L160.167 131.224L164.705 131.485C164.616 131.031 164.686 130.561 164.902 130.152C165.117 129.743 165.467 129.42 165.892 129.238C167.401 128.644 166.736 125.363 166.161 124.149C165.586 122.935 163.465 123.915 163.465 123.915C163.465 123.915 161.155 120.4 160.841 118.997C160.526 117.595 165.245 118.098 167.267 116.687C169.289 115.275 168.597 112.47 167.608 112.407C166.62 112.345 169.54 106.024 175.157 107.759C176.721 108.245 177.71 108.074 178.321 107.535C182.541 115.656 184.731 124.68 184.703 133.834C184.675 142.987 182.429 151.997 178.159 160.093Z" fill="white"/>
<path d="M138.858 135.773L136.935 138.192C136.935 138.192 136.117 136.241 134.949 137.293L133.152 138.893L131.849 142.543L129.512 144.054L128.083 143.307L126.735 142.588L125.27 141.815L123.868 144.512L122.727 146.67C123.283 147.729 123.975 148.711 124.785 149.592L127.265 153.97L130.222 155.525C131.481 155.572 132.735 155.722 133.97 155.975L136.046 157.063L135.309 161.558C135.309 161.558 133.745 164.102 132.702 163.356L131.651 162.664L129.943 168.579L129.871 171.834C129.871 171.834 128.856 172.256 127.831 172.598C126.807 172.94 127.454 172.76 125.306 173.425C123.158 174.091 123.329 174.064 121.585 174.558C120.099 175.078 118.669 175.747 117.317 176.554L117.469 179.683L113.362 180.285L111.062 179.062L111.628 177.084L111.897 173.992L111.583 171.681L110.594 169.64L113.362 167.132L112.751 165.559L111.178 162.43L107.853 164.228L106.146 165.127L102.281 163.392L101.859 161.045L100.547 156.811L99.3425 154.186L97.2036 151.291L96.6644 148.8L97.8686 146.517L98.5067 145.312L96.5385 142.615L95.9993 140.727L92.6831 137.715C92.6831 137.715 93.6447 137.652 93.4291 136.313C93.2134 134.973 95.3253 132.717 95.3253 132.717C96.5206 133.346 100.106 135.845 100.106 135.845L103.243 136.277C103.243 136.277 103.872 136.277 104.483 135.09C105.197 133.999 106.035 132.994 106.981 132.096C106.981 132.096 105.535 127.071 106.568 126.396C107.602 125.722 108.653 122.432 108.653 122.432L109.48 120.858C109.48 120.858 107.53 120.004 107.161 118.97C106.793 117.936 101.985 119.312 101.985 119.312L98.6684 121.613L96.1342 123.627L95.0018 125.776C95.0018 125.776 92.6921 122.998 92.6831 124.553C92.5069 126.148 92.1574 127.719 91.6406 129.237C91.6406 129.237 92.1169 129.489 91.4878 130.694C90.8587 131.899 90.1757 131.836 88.7917 132.006C86.9875 132.025 85.1845 131.901 83.3995 131.638C83.3995 131.638 82.5008 134.964 83.1209 135.54L83.732 136.097C83.732 136.097 82.7704 138.515 81.8178 138.012L79.4992 136.789L76.2548 138.102L72.66 142.076L71.8602 141.914C69.657 127.131 73.3766 112.075 82.2103 100.021C91.044 87.9667 104.277 79.8883 119.033 77.5425C119.24 78.4415 119.464 79.2866 119.464 79.2866L118.566 83.7279L117.415 85.9215L116.553 87.9084L115.16 90.5516L118.629 93.8421L117.865 97.7349L115.933 98.9487L115.375 101.871L118.692 108.353L119.59 110.897C119.035 112.115 118.762 113.442 118.79 114.781C118.79 114.781 119.195 117.208 120.965 118.17C122.736 119.132 125.063 120.265 125.063 120.265L124.875 123.861L124.075 124.76L125.405 128.635C129.458 130.226 129.072 131.557 129.458 130.226L129.853 128.905L132.612 127.907L136.126 132.105C136.535 132.1 136.939 132.197 137.3 132.389C137.661 132.581 137.969 132.86 138.193 133.202C139.191 134.479 140.818 133.355 138.858 135.773Z" fill="white"/>
<path d="M91.2271 167.087C91.326 168.364 89.7083 169.964 89.7083 169.964L91.0294 170.656L91.4338 174.252L90.4363 176.158C83.3676 169.912 77.976 161.993 74.7539 153.125L75.4729 149.313L78.6453 148.863C78.6453 148.863 81.4852 146.975 82.7434 147.479C84.0016 147.982 85.1519 151.075 85.1519 151.075C85.1519 151.075 86.0506 155.247 85.9338 155.166H85.8798H85.9518L87.2459 155.849L87.6143 157.494L85.8169 160.911H82.9231C82.9231 160.911 82.348 160.605 82.294 162.106C82.3409 162.627 82.4991 163.132 82.7581 163.587C83.017 164.041 83.3706 164.435 83.7949 164.741L86.9224 163.94L87.7582 160.704L90.8317 160.101C90.8317 160.101 90.3913 162.088 91.1103 162.466L91.8382 162.853L92.2696 165.226C91.9477 165.417 91.6818 165.69 91.4988 166.017C91.3158 166.343 91.2221 166.713 91.2271 167.087Z" fill="white"/>
<path d="M106.092 172.175C105.813 171.411 105.696 170.737 103.782 169.721C101.868 168.705 101.985 169.083 101.23 169.91C100.91 170.346 100.467 170.677 99.9571 170.858C99.4474 171.039 98.8951 171.063 98.3719 170.926C97.1137 170.647 97.7697 172.068 97.7697 172.068L98.0663 175.906L94.5254 179.422C95.6128 180.222 96.7542 180.986 97.9225 181.714L98.6774 179.395L104.582 181.193C103.324 180.824 104.07 179.116 104.07 179.116L102.802 178.451C102.802 178.451 106.37 172.931 106.092 172.175Z" fill="white"/>
<path d="M143.218 152.217L141.286 150.266L139.084 150.967L138.14 152.765L137.457 154.051L138.356 155.804L140.153 157.989L141.187 156.029C141.187 156.029 144.036 156.029 145.527 154.384C147.019 152.738 143.218 152.217 143.218 152.217Z" fill="white"/>
<path d="M137.547 143.415L141.142 145.312L141.286 144.467C141.473 143.788 141.804 143.156 142.256 142.615L139.506 139.702L137.547 143.415Z" fill="white"/>
<path d="M136.324 185.265L135.281 183.755L134.086 183.117H130.401L128.316 187.081C128.316 187.081 126.312 186.812 123.679 186.587C121.046 186.362 121.693 187.432 121.693 187.432L121.01 189.931C127.653 190.754 134.39 190.392 140.907 188.862C140.149 188.337 139.363 187.853 138.552 187.414L136.324 185.265Z" fill="white"/>
</g>
<path d="M178.159 160.092C176.93 162.43 175.536 164.677 173.989 166.817C166.004 177.923 154.272 185.762 140.959 188.887C127.646 192.012 113.652 190.212 101.563 183.818C100.31 183.153 99.0971 182.451 97.9228 181.714C96.7545 180.986 95.6131 180.222 94.5257 179.422C93.1836 178.451 91.9045 177.432 90.6882 176.365C90.607 176.303 90.5317 176.234 90.4636 176.158V176.158C82.4976 169.107 76.6751 159.956 73.6613 149.751C70.6475 139.546 70.5641 128.699 73.4204 118.449C76.2768 108.199 81.9577 98.9591 89.8142 91.7857C97.6707 84.6123 107.386 79.7945 117.85 77.8826C128.313 75.9707 139.104 77.0419 148.988 80.9738C158.872 84.9057 167.451 91.5397 173.745 100.118C180.039 108.696 183.794 118.872 184.581 129.484C185.368 140.096 183.155 150.715 178.195 160.128L178.159 160.092Z" stroke="#242424" stroke-linecap="round" stroke-linejoin="round"/>
<path d="M140.908 188.87C134.403 190.397 127.679 190.759 121.047 189.94L121.73 187.441C121.73 187.441 121.083 186.353 123.716 186.596C126.349 186.839 128.353 187.09 128.353 187.09L130.438 183.125H134.123L135.318 183.764L136.361 185.274L138.59 187.432C139.388 187.869 140.162 188.35 140.908 188.87V188.87Z" stroke="#242424" stroke-linecap="round" stroke-linejoin="round"/>
<path d="M178.357 107.588C177.746 108.128 176.757 108.289 175.194 107.813C169.577 106.069 166.656 112.38 167.644 112.452C168.633 112.524 169.316 115.365 167.303 116.731C165.29 118.098 160.563 117.63 160.868 119.042C161.174 120.453 163.492 123.96 163.492 123.96C163.492 123.96 165.559 122.989 166.189 124.202C166.818 125.416 167.438 128.698 165.928 129.291C165.502 129.472 165.152 129.795 164.936 130.204C164.72 130.613 164.651 131.085 164.742 131.539L160.194 131.269L159.466 134.622L156.68 136.969L155.179 136.178C155.179 136.178 153.867 132.752 152.6 134.811L151.342 136.879L150.533 138.731C150.533 138.731 153.795 139.459 154.613 140.88L155.422 142.3L162.504 144.296L163.061 146.328L164.373 147.02L164.706 150.562L167.348 151.947L169.99 152.163L173.216 147.667C173.868 148.93 174.438 150.234 174.924 151.569C175.239 152.729 174.322 155.615 174.322 155.615C173.79 156.691 173 157.618 172.021 158.312C170.736 158.977 169.172 157.206 169.325 159.373L169.433 161.531L169.109 163.931L171.096 164.983L172.983 165.972L174.07 166.871" stroke="#242424" stroke-linecap="round" stroke-linejoin="round"/>
<path d="M71.9316 142.012L72.7225 142.165L76.3173 138.192L79.5527 136.879L81.8713 138.102C82.8329 138.605 83.7945 136.196 83.7945 136.196L83.1744 135.629C82.5543 135.063 83.462 131.727 83.462 131.727C85.2466 131.996 87.0497 132.122 88.8542 132.105C90.2742 131.934 90.9482 131.988 91.5503 130.783C92.1525 129.579 91.7121 129.336 91.7121 129.336C92.2276 127.817 92.5772 126.246 92.7546 124.652C92.7546 123.097 95.0643 125.866 95.0643 125.866L96.1966 123.717L98.7399 121.703L102.047 119.402C102.047 119.402 106.855 118.026 107.233 119.06C107.61 120.094 109.551 120.948 109.551 120.948L108.725 122.521C108.725 122.521 107.664 125.794 106.631 126.486C105.597 127.178 107.053 132.186 107.053 132.186C106.109 133.086 105.271 134.09 104.555 135.18C103.917 136.384 103.314 136.375 103.314 136.375L100.169 135.944C100.169 135.944 96.5741 133.445 95.3878 132.806C95.3878 132.806 93.2849 135.063 93.4916 136.402C93.6983 137.742 92.7546 137.805 92.7546 137.805L96.0708 140.817L96.61 142.705L98.5782 145.402L97.9401 146.616L96.7359 148.899L97.2661 151.389L99.414 154.275L100.618 156.901L101.93 161.135L102.353 163.482L106.217 165.217L107.925 164.318L111.241 162.52L112.814 165.648L113.434 167.222L110.666 169.73L111.645 171.771L111.969 174.09L111.69 177.183L111.124 179.161L113.434 180.375L117.532 179.781L117.388 176.644C118.743 175.841 120.172 175.172 121.657 174.648C123.4 174.153 123.221 174.18 125.377 173.524C127.534 172.868 126.86 173.038 127.894 172.688C128.927 172.337 129.934 171.933 129.934 171.933L130.015 168.669L131.713 162.753L132.729 163.428C133.78 164.129 135.344 161.63 135.344 161.63L136.072 157.134L134.005 156.047C132.77 155.799 131.516 155.652 130.257 155.606L127.292 154.042L124.82 149.672C124.013 148.79 123.321 147.808 122.762 146.75L123.895 144.593L125.297 141.896L126.761 142.669L128.119 143.379L129.547 144.134L131.875 142.615L133.178 138.965L134.976 137.364C136.144 136.304 136.962 138.263 136.962 138.263L138.885 135.845C140.817 133.436 139.218 134.55 138.229 133.31C138.004 132.968 137.697 132.688 137.336 132.497C136.974 132.305 136.571 132.207 136.162 132.213L132.639 128.014L129.889 129.021L129.494 130.334C129.098 131.665 129.494 130.334 125.44 128.743L124.074 124.769L124.874 123.87L125.072 120.274C125.072 120.274 122.735 119.141 120.974 118.188C119.212 117.235 118.799 114.789 118.799 114.789C118.769 113.455 119.039 112.131 119.59 110.915L118.691 108.361L115.366 101.879L115.932 98.9574L117.855 97.7437L118.619 93.8598L115.15 90.5693L116.552 87.9082L117.541 86.0292L118.7 83.8355L119.599 79.3852C119.599 79.3852 119.383 78.5671 119.176 77.6411" stroke="#242424" stroke-linecap="round" stroke-linejoin="round"/>
<path d="M90.6888 176.365C90.621 176.28 90.5425 176.204 90.4552 176.14L91.4617 174.234L91.0573 170.683L89.7361 169.982C89.7361 169.982 91.3448 168.381 91.255 167.114C91.2359 166.732 91.3192 166.353 91.4961 166.014C91.6731 165.676 91.9374 165.391 92.2615 165.19L91.8301 162.816L91.1112 162.439C90.3922 162.061 90.8326 160.065 90.8326 160.065L87.759 160.667L86.9143 163.904L83.7957 164.704C83.3722 164.4 83.019 164.008 82.76 163.555C82.5011 163.102 82.3425 162.599 82.2949 162.079C82.3488 160.569 82.924 160.874 82.924 160.874H85.8178L87.6152 157.458L87.2558 155.822L85.9526 155.129" stroke="#242424" stroke-linecap="round" stroke-linejoin="round"/>
<path d="M85.9162 155.103C86.06 155.184 85.1343 151.012 85.1343 151.012C85.1343 151.012 83.993 147.964 82.7348 147.416C81.4766 146.868 78.6367 148.809 78.6367 148.809L75.4643 149.259L74.7363 153.062" stroke="#242424" stroke-linecap="round" stroke-linejoin="round"/>
<path d="M98.6774 179.394L97.9225 181.714C96.7542 180.986 95.6128 180.222 94.5254 179.421L98.0663 175.906L97.7697 172.067C97.7697 172.067 97.1137 170.647 98.3719 170.926C98.8951 171.062 99.4474 171.039 99.9571 170.858C100.467 170.677 100.91 170.346 101.23 169.91C101.967 169.082 101.868 168.723 103.782 169.721C105.696 170.719 105.813 171.411 106.092 172.175C106.37 172.939 102.802 178.406 102.802 178.406L104.07 179.071C104.07 179.071 103.324 180.779 104.582 181.148L98.6774 179.394Z" stroke="#242424" stroke-linecap="round" stroke-linejoin="round"/>
<path d="M139.082 150.967L141.284 150.266L143.216 152.217C143.216 152.217 147.045 152.711 145.553 154.374C144.061 156.037 141.212 156.019 141.212 156.019L140.179 157.979L138.381 155.795L137.482 154.042L138.165 152.756L139.082 150.967Z" stroke="#242424" stroke-linecap="round" stroke-linejoin="round"/>
<path d="M142.256 142.615C141.804 143.156 141.473 143.788 141.286 144.467L141.142 145.312L137.547 143.415L139.506 139.702L142.256 142.615Z" stroke="#242424" stroke-linecap="round" stroke-linejoin="round"/>
<path d="M333.168 348.542C327.558 353.211 284.388 382.881 222.642 378.139C219.324 350.06 206.671 234.707 221.061 216.616C221.061 216.616 255.974 199.959 288.135 206.953C320.295 213.946 332.812 220.647 335.104 226.447C336.883 230.792 334.403 312.474 333.168 348.542Z" fill="#242424"/>
<path d="M287.11 219.233C268.586 235.283 244.724 231.891 245.248 219.568C245.331 217.642 247.341 215.255 247.341 215.255L246.619 214.145L243.479 209.402C241.187 205.853 238.319 201.393 236.321 198.147C234.646 195.384 276.393 169.692 276.393 184.464C276.393 205.277 286.607 209.193 286.607 209.193C290.511 210.742 294.09 213.192 287.11 219.233Z" fill="white" stroke="#242424" stroke-linecap="round" stroke-linejoin="round"/>
<path d="M298.809 251.019C298.809 251.019 295.072 263.834 296.851 267.508" stroke="white" stroke-linecap="round" stroke-linejoin="round"/>
<path d="M294.454 213.768C294.454 226.132 257.584 238.246 246.773 225.839" stroke="white" stroke-linecap="round" stroke-linejoin="round"/>
<path d="M264.126 199.541C264.126 199.541 261.646 208.858 250.155 216.145C249.604 215.201 248.719 214.498 247.674 214.177C247.327 214.126 246.975 214.126 246.628 214.177L243.488 209.434C249.433 205.142 264.126 199.541 264.126 199.541Z" fill="#242424"/>
<path d="M269.285 188.097C269.285 188.097 269.17 197.289 267.192 199.153C252.54 213.161 238.318 214.271 235.963 210.575C220.108 185.71 223.854 179.167 222.243 174.916C219.386 167.43 215.88 155.233 217.418 147.831C220.872 131.321 251.954 118.517 268.333 135.122C276.182 143.068 278.662 160.322 276.998 174.675" fill="white"/>
<path d="M269.285 188.097C269.285 188.097 269.17 197.289 267.192 199.153C252.54 213.161 238.318 214.271 235.963 210.575C220.108 185.71 223.854 179.167 222.243 174.916C219.386 167.43 215.88 155.233 217.418 147.831C220.872 131.321 251.954 118.517 268.333 135.122C276.182 143.068 278.662 160.322 276.998 174.675" stroke="#242424" stroke-linecap="round" stroke-linejoin="round"/>
<path d="M224.243 167.221C224.243 167.221 219.889 165.264 218.947 167.598" stroke="#242424" stroke-linecap="round" stroke-linejoin="round"/>
<path d="M234.834 167.326C234.834 167.326 243.908 163.525 247.989 168.132" stroke="#242424" stroke-linecap="round" stroke-linejoin="round"/>
<path d="M244.868 173.807C245.015 175.168 244.355 176.361 243.382 176.466C242.409 176.571 241.509 175.555 241.362 174.194C241.216 172.833 241.875 171.639 242.838 171.535C243.801 171.43 244.722 172.446 244.868 173.807Z" fill="#242424"/>
<path d="M227.099 174.215C227.245 175.576 226.586 176.769 225.613 176.874C224.639 176.979 223.739 175.963 223.593 174.602C223.446 173.241 224.105 172.048 225.079 171.943C226.052 171.838 226.952 172.854 227.099 174.215Z" fill="#242424"/>
<path d="M227.551 170.645C228.817 172.686 228.126 176.162 226.504 180.946C224.882 185.731 226.305 187.458 232.72 187.94" fill="white"/>
<path d="M227.551 170.645C228.817 172.686 228.126 176.162 226.504 180.946C224.882 185.731 226.305 187.458 232.72 187.94" stroke="#242424" stroke-linecap="round" stroke-linejoin="round"/>
<path d="M232.678 196.221C232.678 196.221 241.05 195.457 244.891 193.353" stroke="#242424" stroke-linecap="round" stroke-linejoin="round"/>
<path d="M285.708 148.753C285.708 142.534 279.575 129.772 268.806 128.338C262.631 121.867 253.809 119.491 243.113 121.951C218.404 127.636 210.879 152.04 209.791 156.092C209.686 156.469 209.645 156.668 209.645 156.668L216.259 154.993L213.402 160.563L216.876 162.845L216.081 163.724L220.1 167.598L218.844 160.531C219.618 155.956 224.861 149.58 224.861 149.58C222.948 152.068 221.757 155.034 221.418 158.155C223.511 152.71 236.07 147.685 236.07 147.685C231.999 150.993 229.791 157.464 229.791 157.464C233.673 152.69 242.747 149.601 248.555 147.957C250.512 152.69 253.621 157.621 258.058 160.353C262.244 162.929 262.087 168.237 262.087 168.237C266.592 171.367 269.911 175.926 271.506 181.177L276.571 188.108C276.571 188.108 285.718 176.884 285.708 148.753Z" fill="#242424"/>
<path d="M264.409 170.006C262.714 166.373 268.868 156.532 273.221 157.757C275.67 158.437 278.873 162.908 279.501 167.608C280.129 172.309 276.801 181.219 273.221 183.145C270.982 184.401 269.129 180.988 269.129 180.988" fill="white"/>
<path d="M264.409 170.006C262.714 166.373 268.868 156.532 273.221 157.757C275.67 158.437 278.873 162.908 279.501 167.608C280.129 172.309 276.801 181.219 273.221 183.145C270.982 184.401 269.129 180.988 269.129 180.988" stroke="#242424" stroke-linecap="round" stroke-linejoin="round"/>
<path d="M-2.59766 347.715L115.652 320.054L362.303 348.552L298.809 392L-2.59766 347.715Z" fill="white"/>
<path d="M-2.59766 347.715L115.652 320.054L362.303 348.552" fill="white"/>
<path d="M-2.59766 347.715L115.652 320.054L362.303 348.552" stroke="#242424" stroke-linecap="round" stroke-linejoin="round"/>
<path d="M99.7344 353.263L147.604 332.094L208.126 335.225L181.208 358.247L99.7344 353.263Z" fill="white" stroke="#242424" stroke-linecap="round" stroke-linejoin="round"/>
<path d="M223.436 215.548C208.083 221.83 204.766 235.942 178.686 291.755C178.686 291.755 167.09 294.132 160.894 308.223C154.699 322.315 165.081 333.423 177.043 333.036C177.043 333.036 181.836 337.224 191.694 336.795C201.553 336.365 245.069 269.738 245.069 269.738L223.436 215.548Z" fill="#242424"/>
<path d="M183.25 295.022C190.126 301.147 194.061 310.108 191.968 320.054" stroke="white" stroke-linecap="round" stroke-linejoin="round"/>
<path d="M189.875 297.964C189.875 297.964 198.321 299.806 199.618 310.621" stroke="white" stroke-linecap="round" stroke-linejoin="round"/>
<path d="M214.573 266.346C210.586 256.51 209.209 245.809 210.575 235.283" stroke="white" stroke-linecap="round" stroke-linejoin="round"/>
<path d="M213.37 252.118C212.732 256.515 217.274 279.915 217.242 304.539" stroke="white" stroke-linecap="round" stroke-linejoin="round"/>
<path d="M328.134 220.155C347.338 229.808 349.62 259.509 331.494 295.022C318.705 320.086 301.029 357.095 289.851 359.587C278.674 362.079 267.78 355.106 267.78 355.106C267.78 355.106 258.361 354.656 255.514 347.966C247.728 329.602 267.518 306.507 275.304 312.045C275.304 312.045 300.17 257.95 304.702 254.547" fill="#242424"/>
<path d="M253.733 336.826C251.148 324.189 271.022 309.281 275.302 312.045C275.302 312.045 290.069 312.872 292.277 323.09" stroke="white" stroke-linecap="round" stroke-linejoin="round"/>
<path d="M307.83 339.528C316.475 324.274 331.493 295.022 331.493 295.022" stroke="white" stroke-linecap="round" stroke-linejoin="round"/>
<path d="M275.303 312.045C275.303 312.045 285.653 305.857 293.377 311.71" stroke="white" stroke-linecap="round" stroke-linejoin="round"/>
<path d="M278.789 304.539C278.789 304.539 284.514 291.975 290.301 280.459C296.089 268.943 309.359 251.888 314.885 251.05" stroke="white" stroke-linecap="round" stroke-linejoin="round"/>
<path d="M169.728 327.1C168.485 327.04 167.27 326.707 166.169 326.127C148.378 316.84 134.543 301.492 126.212 290.478C122.972 286.255 119.991 281.839 117.285 277.255L121.555 258.955C121.555 258.955 125.574 269.424 141.722 279.715C157.87 290.007 177.054 293.399 183.26 303.795C188.754 312.925 179.073 327.571 169.728 327.1Z" fill="white"/>
<path opacity="0.4" d="M169.728 327.1C169.53 325.776 169.179 324.48 168.682 323.237C164.946 313.877 142.34 295.273 142.34 295.273C136.961 295.106 131.048 292.865 126.234 290.478C122.994 286.255 120.012 281.839 117.307 277.255L121.577 258.955C121.577 258.955 125.595 269.424 141.744 279.715C157.892 290.007 177.075 293.399 183.281 303.795C188.755 312.925 179.074 327.571 169.728 327.1Z" fill="#92E3A9"/>
<path d="M169.728 327.1C168.485 327.04 167.27 326.707 166.169 326.127C148.378 316.84 134.543 301.492 126.212 290.478C122.972 286.255 119.991 281.839 117.285 277.255L121.555 258.955C121.555 258.955 125.574 269.424 141.722 279.715C157.87 290.007 177.054 293.399 183.26 303.795C188.754 312.925 179.073 327.571 169.728 327.1Z" stroke="#242424" stroke-linecap="round" stroke-linejoin="round"/>
<path d="M129.435 276.187C129.435 276.187 127.227 285.955 121.408 283.767C118.269 282.574 112.209 273.193 111.068 268.471L129.435 276.187Z" fill="white" stroke="#242424" stroke-linecap="round" stroke-linejoin="round"/>
<path d="M103.785 216.114L108.536 213.653C108.536 213.653 121.964 213.768 130.294 220.542C137.861 226.698 141.691 236.341 141.691 236.341C141.691 236.341 171.099 220.102 201.114 229.42L213.369 297.702L157.075 301.408L121.943 267.99L103.785 216.114Z" fill="white" stroke="#242424" stroke-linecap="round" stroke-linejoin="round"/>
<path d="M217.241 300.424C217.241 300.424 210.637 300.225 201.804 300.518C188.45 300.937 169.999 302.444 161.564 307.354L161.167 307.218L153.443 304.528L153.286 304.297C151.863 302.203 140.382 285.714 123.983 279.003L100.791 214.176C100.791 214.176 124.862 215.223 138.017 236.979L144.621 239.366C144.621 239.366 183.919 227.724 205.896 231.911L217.241 300.424Z" fill="#92E3A9"/>
<path opacity="0.3" d="M153.286 304.297C151.863 302.203 140.382 285.714 123.983 279.003L100.791 214.176C100.791 214.176 124.862 215.223 138.017 236.979L153.286 304.297Z" fill="black" fill-opacity="0.7"/>
<path opacity="0.3" d="M201.804 300.518C188.45 300.937 169.999 302.445 161.564 307.355L161.166 307.219L145.74 241.722C145.74 241.722 158.351 238.885 162.244 240.319C162.244 240.319 187.895 259.269 201.804 300.518Z" fill="black" fill-opacity="0.7"/>
<path d="M217.241 300.424C217.241 300.424 210.637 300.225 201.804 300.518C188.45 300.937 169.999 302.444 161.564 307.354L161.167 307.218L153.443 304.528L153.286 304.297C151.863 302.203 140.382 285.714 123.983 279.003L100.791 214.176C100.791 214.176 124.862 215.223 138.017 236.979L144.621 239.366C144.621 239.366 183.919 227.724 205.896 231.911L217.241 300.424Z" stroke="#242424" stroke-linecap="round" stroke-linejoin="round"/>
<path d="M144.631 239.376L159.774 302.225" stroke="#242424" stroke-linecap="round" stroke-linejoin="round"/>
<path d="M153.433 304.539L138.729 241.732" stroke="#242424" stroke-linecap="round" stroke-linejoin="round"/>
<path d="M116.061 277.36C112.691 276.417 105.93 256.222 109.028 247.532C109.028 247.532 112.712 241.135 114.209 240.696C116.563 240.005 126.024 240.204 125.564 241.743C124.517 245.428 117.191 245.365 117.191 245.365L114.847 249.731L114.952 252.118C114.952 252.118 118.363 249.616 119.63 249.689C121.935 250.522 124.162 251.555 126.286 252.777C128.557 253.981 129.949 254.631 129.425 255.73C127.741 259.352 120.561 256.777 120.561 256.777L117.924 260.881C117.924 260.881 120.53 261.331 121.671 261.467C122.811 261.603 132.283 267.895 131.99 268.681C130.88 271.759 121.89 268.429 121.89 268.429L120.3 269.759C120.3 269.759 126.924 271.465 127.625 271.717C128.672 272.104 132.712 275.213 132.649 275.569C132.167 278.281 126.61 276.281 126.61 276.281L121.744 276.082C120.997 276.736 120.103 277.2 119.138 277.433" fill="white"/>
<path d="M116.061 277.36C112.691 276.417 105.93 256.222 109.028 247.532C109.028 247.532 112.712 241.135 114.209 240.696C116.563 240.005 126.024 240.204 125.564 241.743C124.517 245.428 117.191 245.365 117.191 245.365L114.847 249.731L114.952 252.118C114.952 252.118 118.363 249.616 119.63 249.689C121.935 250.522 124.162 251.555 126.286 252.777C128.557 253.981 129.949 254.631 129.425 255.73C127.741 259.352 120.561 256.777 120.561 256.777L117.924 260.881C117.924 260.881 120.53 261.331 121.671 261.467C122.811 261.603 132.283 267.895 131.99 268.681C130.88 271.759 121.89 268.429 121.89 268.429L120.3 269.759C120.3 269.759 126.924 271.465 127.625 271.717C128.672 272.104 132.712 275.213 132.649 275.569C132.167 278.281 126.61 276.281 126.61 276.281L121.744 276.082C120.997 276.736 120.103 277.2 119.138 277.433" stroke="#242424" stroke-linecap="round" stroke-linejoin="round"/>
<path d="M114.993 252.118C114.993 252.118 111.854 254.756 111.037 255.51C110.221 256.264 110.43 258.703 110.43 258.703" stroke="#242424" stroke-linecap="round" stroke-linejoin="round"/>
<path d="M112.752 264.022C112.752 266.692 114.531 268.294 115.347 269.152C116.164 270.01 114.039 272.356 116.394 274.031" stroke="#242424" stroke-linecap="round" stroke-linejoin="round"/>
<path d="M267.736 348.353C261.09 350.164 253.869 338.48 245.057 325.728C239.238 317.353 232.729 308.422 225.246 302.695C224.65 302.245 224.043 301.806 223.436 301.387L227.81 279.401C236.894 284.154 242.525 291.786 251.944 299.617C267.119 312.254 280.567 320.012 284.292 325.603C288.018 331.193 279.154 345.243 267.736 348.353Z" fill="white"/>
<path opacity="0.4" d="M245.057 325.718C239.238 317.342 232.729 308.412 225.246 302.685C226.232 302.735 227.218 302.586 228.145 302.245C228.145 302.245 239.971 311.846 245.057 325.718Z" fill="#92E3A9"/>
<path d="M267.736 348.353C261.09 350.164 253.869 338.48 245.057 325.728C239.238 317.353 232.729 308.422 225.246 302.695C224.65 302.245 224.043 301.806 223.436 301.387L227.81 279.401C236.894 284.154 242.525 291.786 251.944 299.617C267.119 312.254 280.567 320.012 284.292 325.603C288.018 331.193 279.154 345.243 267.736 348.353Z" stroke="#242424" stroke-linecap="round" stroke-linejoin="round"/>
<path d="M230.271 300.518C229.817 301.331 229.067 301.938 228.178 302.214C227.942 302.307 227.701 302.387 227.456 302.455H227.257C220.235 304.287 204.432 300.476 204.432 300.476C204.432 300.476 194.081 295.555 193.454 294.393C193.016 293.473 192.628 292.529 192.292 291.567L192.009 290.74C192.009 290.74 188.284 288.646 187.823 287.012C187.363 285.379 186.578 284.919 188.87 284.625C191.162 284.332 203.521 284.625 203.521 284.625L190.073 279.139C190.073 279.139 181.167 274.648 180.34 273.067C179.513 271.486 178.477 270.439 183.03 271.067C187.582 271.696 197.525 274.627 197.525 274.627L205.311 276.281L197.525 272.962C197.525 272.962 182.203 271.109 185.102 266.346H193.799C198.726 266.563 203.626 267.187 208.451 268.209C210.983 268.984 227.728 279.391 227.728 279.391" fill="white"/>
<path opacity="0.4" d="M227.225 302.497C220.203 304.329 204.4 300.518 204.4 300.518C204.4 300.518 194.049 295.597 193.421 294.435C192.984 293.514 192.596 292.571 192.26 291.608L204.965 293.032C204.52 293.833 204.287 294.734 204.287 295.65C204.287 296.565 204.52 297.466 204.965 298.267C206.378 300.78 222.474 303.355 227.225 302.497Z" fill="#92E3A9"/>
<path d="M230.271 300.518C229.817 301.331 229.067 301.938 228.178 302.214C227.942 302.307 227.701 302.387 227.456 302.455H227.257C220.235 304.287 204.432 300.476 204.432 300.476C204.432 300.476 194.081 295.555 193.454 294.393C193.016 293.473 192.628 292.529 192.292 291.567L192.009 290.74C192.009 290.74 188.284 288.646 187.823 287.012C187.363 285.379 186.578 284.919 188.87 284.625C191.162 284.332 203.521 284.625 203.521 284.625L190.073 279.139C190.073 279.139 181.167 274.648 180.34 273.067C179.513 271.486 178.477 270.439 183.03 271.067C187.582 271.696 197.525 274.627 197.525 274.627L205.311 276.281L197.525 272.962C197.525 272.962 182.203 271.109 185.102 266.346H193.799C198.726 266.563 203.626 267.187 208.451 268.209C210.983 268.984 227.728 279.391 227.728 279.391" stroke="#242424" stroke-linecap="round" stroke-linejoin="round"/>
<path d="M191.967 290.792L207.267 293.043" stroke="#242424" stroke-linecap="round" stroke-linejoin="round"/>
<path d="M39.5566 337.622L77.8813 349.138L148 333.131C148 333.131 105.165 320.934 104.757 321.227C104.349 321.52 39.5566 337.622 39.5566 337.622Z" fill="#92E3A9"/>
<path opacity="0.3" d="M39.5566 337.622L77.8813 349.138L148 333.131C148 333.131 105.165 320.934 104.757 321.227C104.349 321.52 39.5566 337.622 39.5566 337.622Z" fill="black" fill-opacity="0.7"/>
<path d="M39.5566 337.622L77.8813 349.138L148 333.131C148 333.131 105.165 320.934 104.757 321.227C104.349 321.52 39.5566 337.622 39.5566 337.622Z" stroke="#242424" stroke-linecap="round" stroke-linejoin="round"/>
<path d="M40.1111 324.117C37.4215 324.305 36.7517 334.01 39.5564 337.622L101.46 324.745L106.473 313.019L40.1111 324.117Z" fill="#92E3A9"/>
<path opacity="0.3" d="M40.1111 324.117C37.4215 324.305 36.7517 334.01 39.5564 337.622L101.46 324.745L106.473 313.019L40.1111 324.117Z" fill="black" fill-opacity="0.7"/>
<path d="M40.1111 324.117C37.4215 324.305 36.7517 334.01 39.5564 337.622L101.46 324.745L106.473 313.019L40.1111 324.117Z" stroke="#242424" stroke-linecap="round" stroke-linejoin="round"/>
<path d="M144.999 323.98C144.999 323.98 144.078 329.089 144.675 332.22L77.8107 347.358L42.5629 337.004C42.5629 337.004 38.8895 330.513 42.0919 325.488L106.476 314.558L144.999 323.98Z" fill="white" stroke="#242424" stroke-linecap="round" stroke-linejoin="round"/>
<path d="M40.1035 324.127L106.423 313.029L147.605 323.467L78.3445 337.277L40.1035 324.127Z" fill="#242424" stroke="#242424" stroke-linecap="round" stroke-linejoin="round"/>
<path d="M42.457 330.325L77.5269 340.763L134.93 329.215" stroke="#242424" stroke-linecap="round" stroke-linejoin="round"/>
<path d="M144.474 330.283L82.748 343.454" stroke="#242424" stroke-linecap="round" stroke-linejoin="round"/>
<path d="M43.293 334.429C43.8162 334.481 69.7288 342.459 69.7288 342.459" stroke="#242424" stroke-linecap="round" stroke-linejoin="round"/>
<path d="M139.43 327.865L144.338 327.069" stroke="#242424" stroke-linecap="round" stroke-linejoin="round"/>
<path d="M76.3845 344.406L73.7891 343.82" stroke="#242424" stroke-linecap="round" stroke-linejoin="round"/>
<path d="M42.0917 325.498C43.4589 327.082 44.2496 329.083 44.3351 331.174C44.4206 333.265 43.7959 335.324 42.5627 337.014C41.4149 335.331 40.7623 333.36 40.679 331.324C40.5958 329.288 41.0852 327.269 42.0917 325.498Z" fill="#242424"/>
<path opacity="0.3" d="M42.0898 325.499C43.4569 327.083 44.2476 329.083 44.3332 331.175C44.4187 333.266 43.794 335.324 42.5607 337.015C41.4129 335.332 40.7603 333.36 40.6771 331.324C40.5938 329.288 41.0832 327.27 42.0898 325.499Z" fill="white" fill-opacity="0.7"/>
<path d="M42.0917 325.498C43.4589 327.082 44.2496 329.083 44.3351 331.174C44.4206 333.265 43.7959 335.324 42.5627 337.014C41.4149 335.331 40.7623 333.36 40.679 331.324C40.5958 329.288 41.0852 327.269 42.0917 325.498Z" stroke="#242424" stroke-linecap="round" stroke-linejoin="round"/>
<path d="M185.321 340.763L252.248 343.516L245.728 366.559L163.406 363.419L185.321 340.763Z" fill="white"/>
<path opacity="0.4" d="M185.321 340.762L252.248 343.516L245.728 366.559L163.406 363.418L185.321 340.762Z" fill="#92E3A9"/>
<path d="M185.321 340.763L252.248 343.516L245.728 366.559L163.406 363.419L185.321 340.763Z" stroke="#242424" stroke-linecap="round" stroke-linejoin="round"/>
</g>
<defs>
<clipPath id="clip0_794_1421">
<rect width="383" height="392" fill="white"/>
</clipPath>
</defs>
</svg>
