<svg width="93" height="93" fill="none" xmlns="http://www.w3.org/2000/svg"><g clip-path="url(#a)"><path d="M.084 57.1C.062 49.835.044 42.582.029 35.34V7.593c0-3.633 3.382-7.073 7-7.185C32.281-.39 57.543.262 82.797.084c3.632-.026 6.922.82 8.953 4.311 1.122 1.933 1.137 4.072 1.151 6.125.098 15.838.076 31.675.087 47.513 0 .534.11 1.09-.312 1.555-.76-1.486-2.041-1.675-3.567-1.653-1.638.022-3.334.396-4.914-.407-1.072-2.502-.806-5.216-1.173-7.828-.363-2.543-.305-2.575-2.83-2.63-1.38-.029-2.785.23-4.133-.29-.853-.661-.65-1.628-.668-2.503-.044-1.983.062-3.967-.541-5.914-1.638-5.314-6.672-8.355-12.607-7.603-4.806.621-8.92 5.394-9.055 10.506-.03 1.202.025 2.412-.026 3.614-.029.726.019 1.475-.726 1.932-2.34.563-4.722.222-7.068.244-1.63-.051-2.18.85-2.285 2.36a85.77 85.77 0 0 1-.606 5.937c-.2 1.485-.923 2.215-2.506 2.215H1.784c-.6-.014-1.214-.01-1.7-.468Z" fill="#E8E8E8"/><path d="m45.376 46.53 7.242.039c.886.894.432 2.041.588 3.073.11.694-.294 1.86.854 1.816.937-.036.857-1.126.962-1.885.153-1.14-.363-2.437.781-3.353a4.595 4.595 0 0 1 1.95-.294c4.333-.015 8.666-.015 13 0a5.083 5.083 0 0 1 1.954.269c.763.414.69 1.177.814 1.885.203 1.17-.541 3.24.897 3.27 1.623.032.675-2.02.944-3.135.138-.57.022-1.217.567-1.646 1.816 0 3.614.102 5.397-.084 1.783-.185 2.096.604 2.197 2.115.2 2.927.582 5.84.89 8.761 1.134 1.57.807 3.458 1.04 5.202.162 1.202.573 2.488-.066 3.705.518 5.287 1.037 10.573 1.558 15.86.323 3.247.628 6.495 1.002 9.731.102.861-.047 1.163-.988 1.156-7.554-.051-15.11-.055-22.664-.073-1.286-1.99-1.002-4.312-1.242-6.484-.8-7.313-1.595-14.625-2.336-21.94-.236-2.37-.424-2.51-2.796-2.522H46.523c-.897 0-1.816.102-2.63-.457-.81-1.257-.486-2.623-.38-3.97.446-2.907.624-5.838.962-8.755.098-.872.17-1.704.9-2.285Z" fill="#2ECC82"/><path d="M43.832 61.393c5.136.026 10.272.091 15.408.048 1.26 0 1.758.261 1.888 1.638.618 6.538 1.37 13.077 2.074 19.616.366 3.414.73 6.83 1.09 10.247-10.602 0-21.204.022-31.806.073-1.12 0-1.3-.433-1.174-1.41.251-1.965.414-3.938.614-5.91-.497-.574-.341-1.246-.272-1.903.56-5.41 1.151-10.814 1.718-16.223.432-1.34.138-2.75.44-4.116.468-2.129.85-2.543 2.97-2.6 1.384-.037 2.772-.066 4.152.028.995.026 2.045-.283 2.898.512Z" fill="#126F43"/><path d="M41.042 61.419c-1.678.029-3.36.105-5.038.065-1.024-.022-1.5.233-1.558 1.377-.08 1.605-.396 3.197-.61 4.795-1.09-.894-2.626-.309-3.72-1.163L9.11 66.381c-1.7 0-3.389-.127-4.91-.985-3.106-1.75-4.556-4.359-4.116-7.951.298-.284.676-.215 1.028-.215 13.377 0 26.758-.032 40.135.022 1.278 1.453.65 2.816-.204 4.167Z" fill="#414141"/><path d="M30.118 66.493c.84 0 1.686.033 2.525-.021.839-.055 1.17.414 1.195 1.184-.454 6.026-1.13 12.03-1.907 18.024-4.65 0-9.302-.047-13.955.026-1.227.018-1.507-.385-1.507-1.544 0-4.61 2.379-7.069 6.991-7.094 4.094-.026 4.098-.026 5.085-4.072.542-2.165 1.05-4.334 1.573-6.503Zm55.266-.239-.974-8.907c1.983 0 3.974.12 5.946-.026 1.787-.134 2.76.266 2.317 2.267-1.115 4.116-3.36 6.183-7.29 6.666Z" fill="#414141"/><path d="m41.434 57.47-41.34-.025a.654.654 0 0 1 0-.345c13.18 0 26.365-.04 39.55 0 1.394 0 2.23-.127 2.255-1.85.032-1.972.483-3.937.588-5.917.153-2.768.146-2.826 2.906-2.793-.363 3.091-.705 6.175-1.064 9.267-.062.53-.171 1.053-.258 1.58-.868.668-1.747.726-2.637.083Z" fill="#BEBEBE"/><path d="M42.808 27.644c-.516 4.166-.948 8.354-1.58 12.495-.363 2.26-1.99 3.738-4.231 3.767-6.444.091-12.89.03-19.338 0a2.026 2.026 0 0 1-.657-.247c1.453-.999 2.906-.632 4.09-.363-1.428-.755-1.976-2.401-2.18-4.25-.214-1.914-.486-3.821-.759-5.728-.606-4.232 1.217-6.125 5.5-5.758.726.142 1.035.76 1.452 1.271 1.526 1.886 3.138 1.882 4.602 0 .363-.472.628-1.042 1.275-1.227a70.333 70.333 0 0 1 11.826.04Z" fill="#2ECC82"/><path d="M24.023 27.981h-1.268c-3.192.019-4.63 1.657-4.191 4.813.345 2.492.752 4.977 1.057 7.476.163 1.333 1.184 2.045 2.078 3.102-1.653.444-3.2.062-4.697.28-2.106-.548-3.269-1.773-3.527-3.814a3367.74 3367.74 0 0 1-1.852-14.498c-.076-.631-.221-1.06-.904-1.384-1.518-.726-1.936-2.262-1.431-4.358.385-1.595 1.54-1.817 2.905-1.784 1.747.04 3.494.04 5.241.058.498.625.127 1.26 0 1.885-.508 2.768.204 3.633 2.979 3.71 1.275.043 2.655-.408 3.78.613.466 1.344.644 2.645-.17 3.901Z" fill="#126F43"/><path d="M75.94 46.554c0 1.323-.022 2.641-.019 3.963 0 1-.218 1.857-1.43 1.846-1.214-.011-1.4-.923-1.42-1.889-.034-1.319-.052-2.637-.074-3.956-.824-1.09-.465-2.328-.49-3.505-.033-1.639-.05-3.24-.77-4.78-1.572-3.36-5.234-5.45-8.532-4.785-4.267.85-6.9 3.724-7.097 7.752-.05 1.09 0 2.18-.022 3.27 0 .726.051 1.452-.512 2.052-.029 1.257-.054 2.514-.09 3.77-.026.996-.084 2.05-1.417 2.078-1.333.03-1.453-.977-1.427-2.009V46.58c.294-2.808-.415-5.667.584-8.45 2.121-5.924 6.967-8.92 13.392-7.838 5.223.879 9.338 5.485 9.305 11.555-.029 1.562-.003 3.13.018 4.707Z" fill="#FEFEFE"/><path d="M24.023 27.981 24 24.015a7.033 7.033 0 0 1 0-6.176c.036-1.747.044-3.49.109-5.234.084-2.263 1.286-3.575 3.218-3.59 2.027 0 3.204 1.32 3.233 3.699.025 1.685.021 3.37.029 5.06.284.393.435.866.432 1.351 0 2.34.05 4.683.09 7.022a2.71 2.71 0 0 1-.537 1.863c-.363 1.588-1.369 2.641-2.974 2.75-1.9.131-2.899-1.184-3.578-2.779Z" fill="#414141"/><path d="M30.876 17.88c4.025 0 8.049-.048 12.073-.033 1.816 0 2.42.693 2.514 2.52.094 1.828.12 3.568-2.238 3.996-3.766.49-7.544.233-11.317.135-.727-.022-1.253-.385-1.203-1.254.106-1.783-.21-3.585.171-5.365Z" fill="#2ECC82"/><path d="M75.81 16.074h-9.233c-.999 0-1.896-.182-1.907-1.388-.01-1.206.893-1.453 1.874-1.453h18.647c.981 0 1.907.262 1.915 1.435.007 1.173-.865 1.428-1.886 1.42-3.138-.025-6.276-.014-9.41-.014Z" fill="#404350"/><path d="M76.01 19.913h9.047c1.038 0 2.063.124 2.044 1.453 0 1.185-.991 1.399-1.95 1.403h-18.64c-.98 0-1.878-.287-1.852-1.49.025-1.202.98-1.351 1.94-1.351l9.41-.015Z" fill="#414350"/><path d="M30.876 17.88c0 1.561.054 3.127 0 4.689-.048 1.09.363 1.475 1.453 1.453 3.185-.051 6.374 0 9.563 0 .472 0 .977-.084 1.336.363-.138 1.09-.28 2.18-.417 3.27-.945.595-1.998.334-3.008.345-3.076.036-6.152.025-9.229.029V17.792c.107.002.21.032.302.087Z" fill="#126F43"/><path d="M24 17.847v6.175h-4.304c-2.274 0-2.953-.727-2.989-2.993 0-1.123.563-2.064.726-3.117L24 17.847Zm32.628-1.784c-.966 0-1.932.022-2.905 0-.84-.029-1.366-.483-1.413-1.333a1.286 1.286 0 0 1 1.31-1.453 84.56 84.56 0 0 1 6.147 0 1.28 1.28 0 0 1 1.314 1.435c-.043.977-.657 1.351-1.569 1.355h-2.905l.021-.004Zm.2 3.869h2.713c.897 0 1.525.381 1.554 1.366a1.285 1.285 0 0 1-1.336 1.413 96.753 96.753 0 0 1-6.142 0 1.278 1.278 0 0 1-1.3-1.453c.047-.876.624-1.28 1.453-1.312 1.02-.043 2.048 0 3.072 0l-.014-.014Z" fill="#2ECC82"/><path d="M55.565 46.51c.134-2.397-.327-4.82.287-7.195a8.609 8.609 0 0 1 8.862-6.51 8.717 8.717 0 0 1 8.281 8.65v5.063l-17.43-.007Z" fill="#CBE0F0"/><path d="m41.435 57.47 2.637-.094c-.073 1.34-.149 2.677-.225 4.017a8.171 8.171 0 0 1-2.79.026c-.025-1.33.567-2.601.378-3.949Z" fill="#33333D"/><path d="M55.237 70.86c0 1.09.066 2.18 0 3.269a7.498 7.498 0 0 1-7.413 6.811c-3.723.025-7.17-2.906-7.46-6.568-.182-2.284-.062-4.591-.08-6.901 0-.934.458-1.555 1.37-1.58.91-.026 1.408.693 1.452 1.55.066 1.875 0 3.75.054 5.62.059 2.939 1.951 4.984 4.599 5.01 2.648.025 4.598-2.024 4.674-4.93.044-1.755 0-3.505.022-5.26 0-.963.236-1.95 1.395-1.976 1.286-.033 1.485.966 1.453 2.03-.026.967 0 1.937 0 2.907l-.066.018Z" fill="#E8E8E8"/></g><defs><clipPath id="a"><path fill="#fff" d="M0 0h93v93H0z"/></clipPath></defs></svg>