<svg width="1920" height="946" viewBox="0 0 1920 946" fill="none" xmlns="http://www.w3.org/2000/svg">
<path d="M1920 0H0V945.231H1920V0Z" fill="#2ECC82"/>
<path d="M734.762 731.146L0.636719 731.371V945.903H1918.27V733.084H1155.6C1154.98 716.899 1148.1 701.587 1136.43 690.362C1124.75 679.137 1109.18 672.873 1092.98 672.885C1084.2 672.875 1075.52 674.719 1067.51 678.296C1065.51 670.277 1060.89 663.156 1054.38 658.065C1047.88 652.974 1039.85 650.205 1031.59 650.199C1031.59 649.526 1031.52 648.864 1031.43 648.202C1031.57 647.263 1031.63 646.315 1031.64 645.367C1031.63 639.437 1029.27 633.751 1025.08 629.559C1020.89 625.367 1015.2 623.012 1009.27 623.012C1006.53 623.014 1003.82 623.523 1001.27 624.512C1000.64 620.36 998.859 616.469 996.124 613.283C993.389 610.096 989.812 607.744 985.804 606.494L974.898 577.617H957.175L946.435 605.974C945.027 605.652 943.589 605.486 942.146 605.478C937.054 605.478 932.17 607.501 928.569 611.101C924.969 614.702 922.946 619.586 922.946 624.678C922.952 625.612 923.031 626.544 923.182 627.466C923.182 627.679 923.111 627.88 923.087 628.093C919.917 626.906 916.56 626.293 913.174 626.285C905.605 626.288 898.346 629.292 892.989 634.639C887.631 639.985 884.612 647.238 884.593 654.807C883.594 654.633 882.582 654.542 881.568 654.535C878.069 654.533 874.643 655.534 871.694 657.418C868.746 659.303 866.4 661.993 864.932 665.169C854.715 658.419 842.736 654.827 830.49 654.843C822.267 654.843 814.124 656.462 806.526 659.609C798.928 662.756 792.025 667.369 786.21 673.184C780.395 678.999 775.783 685.902 772.636 693.5C769.489 701.097 767.869 709.24 767.869 717.464C767.869 718.386 767.869 719.295 767.951 720.205C767.951 720.501 767.951 720.808 767.951 721.103C766.292 718.538 764.017 716.43 761.335 714.968C758.652 713.507 755.646 712.741 752.591 712.738C742.454 712.738 733.344 722.722 733.344 732.824" fill="white"/>
<path d="M1106.32 642.224C1106.22 640.566 1105.49 639.008 1104.28 637.87C1103.07 636.733 1101.47 636.101 1099.81 636.104C1098.48 636.102 1097.17 636.511 1096.08 637.274C1094.99 638.037 1094.16 639.117 1093.7 640.369C1093.08 639.689 1092.33 639.145 1091.49 638.773C1090.65 638.401 1089.74 638.208 1088.82 638.207C1087.07 638.207 1085.39 638.901 1084.16 640.138C1082.92 641.374 1082.23 643.051 1082.23 644.8C1082.23 645.986 1082.55 647.151 1083.15 648.171C1083.76 649.19 1084.63 650.026 1085.68 650.589C1084.65 651.776 1084.08 653.295 1084.08 654.866C1084.08 656.594 1084.77 658.251 1085.99 659.474C1087.21 660.697 1088.86 661.385 1090.59 661.388C1091.79 661.394 1092.97 661.063 1093.99 660.431C1093.93 660.739 1093.9 661.051 1093.9 661.365C1093.9 662.618 1094.4 663.82 1095.28 664.707C1096.17 665.593 1097.37 666.091 1098.63 666.091C1099.88 666.091 1101.08 665.593 1101.97 664.707C1102.85 663.82 1103.35 662.618 1103.35 661.365C1103.35 660.994 1103.3 660.626 1103.21 660.266C1104.04 660.498 1104.89 660.617 1105.75 660.62C1108.2 660.62 1110.54 659.649 1112.27 657.921C1114 656.193 1114.97 653.849 1114.97 651.404C1114.96 649.062 1114.07 646.808 1112.46 645.103C1110.85 643.398 1108.66 642.368 1106.32 642.224Z" fill="white"/>
<path d="M878.283 601.12C878.184 599.462 877.454 597.905 876.244 596.767C875.033 595.629 873.434 594.997 871.773 595C870.44 594.999 869.139 595.407 868.047 596.17C866.954 596.933 866.122 598.014 865.664 599.265C865.046 598.585 864.293 598.042 863.452 597.669C862.612 597.297 861.703 597.104 860.784 597.103C859.038 597.103 857.363 597.796 856.127 599.03C854.891 600.264 854.195 601.938 854.191 603.684C854.192 604.874 854.513 606.041 855.123 607.062C855.732 608.083 856.607 608.921 857.653 609.486C856.614 610.668 856.042 612.189 856.046 613.763C856.046 615.491 856.732 617.148 857.953 618.37C859.173 619.593 860.829 620.282 862.557 620.285C863.757 620.285 864.935 619.954 865.96 619.328C865.898 619.639 865.867 619.956 865.865 620.273C865.865 621.527 866.363 622.729 867.249 623.615C868.136 624.501 869.338 624.999 870.591 624.999C871.845 624.999 873.047 624.501 873.933 623.615C874.819 622.729 875.317 621.527 875.317 620.273C875.312 619.899 875.265 619.526 875.176 619.162C876.001 619.404 876.856 619.527 877.716 619.529C880.16 619.529 882.504 618.558 884.233 616.829C885.961 615.101 886.932 612.757 886.932 610.313C886.93 607.968 886.035 605.712 884.428 604.004C882.821 602.296 880.624 601.265 878.283 601.12Z" fill="white"/>
<path d="M1136.39 659.145C1136.34 658.406 1136.02 657.711 1135.48 657.204C1134.94 656.696 1134.22 656.415 1133.48 656.416C1132.89 656.417 1132.3 656.599 1131.81 656.939C1131.32 657.279 1130.95 657.76 1130.74 658.318C1130.47 658.014 1130.13 657.77 1129.76 657.603C1129.38 657.436 1128.98 657.35 1128.57 657.349C1127.79 657.349 1127.04 657.659 1126.49 658.211C1125.93 658.763 1125.63 659.511 1125.63 660.291C1125.62 660.823 1125.76 661.346 1126.03 661.803C1126.3 662.261 1126.69 662.637 1127.16 662.891C1126.7 663.421 1126.45 664.102 1126.45 664.805C1126.45 665.576 1126.76 666.315 1127.3 666.86C1127.85 667.405 1128.59 667.712 1129.36 667.712C1129.9 667.712 1130.42 667.565 1130.88 667.286C1130.86 667.423 1130.86 667.562 1130.88 667.7C1130.88 667.977 1130.94 668.252 1131.04 668.509C1131.15 668.766 1131.31 668.999 1131.5 669.195C1131.7 669.392 1131.93 669.547 1132.19 669.654C1132.45 669.76 1132.72 669.815 1133 669.815C1133.56 669.815 1134.1 669.592 1134.49 669.195C1134.89 668.799 1135.11 668.261 1135.11 667.7C1135.11 667.537 1135.09 667.374 1135.05 667.215C1135.44 667.32 1135.84 667.372 1136.24 667.369C1137.33 667.369 1138.38 666.934 1139.15 666.161C1139.92 665.388 1140.36 664.339 1140.36 663.245C1140.35 662.183 1139.93 661.164 1139.19 660.401C1138.46 659.637 1137.45 659.188 1136.39 659.145Z" fill="white"/>
<path d="M919.366 584.826C919.309 583.847 918.879 582.927 918.165 582.255C917.451 581.583 916.507 581.209 915.526 581.211C914.739 581.21 913.97 581.451 913.323 581.901C912.677 582.351 912.184 582.989 911.911 583.728C911.546 583.325 911.101 583.004 910.605 582.784C910.108 582.564 909.571 582.451 909.028 582.452C908.516 582.452 908.01 582.552 907.538 582.749C907.065 582.945 906.636 583.232 906.275 583.594C905.914 583.957 905.628 584.386 905.433 584.859C905.238 585.332 905.139 585.839 905.141 586.351C905.14 587.05 905.328 587.737 905.686 588.338C906.044 588.939 906.558 589.433 907.173 589.765C906.56 590.465 906.224 591.364 906.228 592.294C906.228 593.315 906.634 594.295 907.356 595.017C908.078 595.74 909.058 596.146 910.079 596.146C910.789 596.149 911.485 595.952 912.088 595.578C912.07 595.763 912.07 595.949 912.088 596.134C912.088 596.873 912.382 597.583 912.905 598.105C913.428 598.628 914.137 598.922 914.877 598.922C915.617 598.922 916.328 598.629 916.852 598.106C917.377 597.584 917.674 596.874 917.677 596.134C917.673 595.915 917.646 595.697 917.594 595.484C918.083 595.621 918.587 595.693 919.095 595.697C920.537 595.693 921.92 595.118 922.939 594.097C923.957 593.076 924.53 591.692 924.53 590.25C924.528 588.856 923.992 587.516 923.031 586.507C922.07 585.498 920.758 584.896 919.366 584.826Z" fill="white"/>
<path d="M850.365 632.134C850.32 631.393 849.995 630.697 849.455 630.188C848.915 629.679 848.201 629.394 847.459 629.393C846.861 629.392 846.277 629.576 845.787 629.918C845.297 630.261 844.924 630.745 844.718 631.307C844.445 631 844.11 630.754 843.735 630.587C843.36 630.42 842.954 630.335 842.544 630.338C841.762 630.338 841.013 630.647 840.459 631.199C839.906 631.75 839.593 632.498 839.59 633.28C839.589 633.811 839.733 634.332 840.005 634.788C840.278 635.244 840.669 635.617 841.138 635.867C840.672 636.401 840.416 637.085 840.417 637.793C840.42 638.565 840.729 639.305 841.276 639.849C841.823 640.394 842.563 640.7 843.335 640.7C843.873 640.701 844.4 640.553 844.86 640.275C844.841 640.412 844.841 640.551 844.86 640.688C844.86 641.249 845.082 641.787 845.479 642.184C845.876 642.58 846.414 642.803 846.974 642.803C847.533 642.8 848.068 642.576 848.462 642.179C848.856 641.783 849.078 641.247 849.078 640.688C849.101 640.523 849.101 640.356 849.078 640.192C849.461 640.305 849.859 640.36 850.259 640.357C850.8 640.357 851.336 640.25 851.835 640.043C852.335 639.836 852.789 639.532 853.171 639.149C853.553 638.766 853.855 638.311 854.061 637.811C854.267 637.311 854.372 636.775 854.371 636.234C854.365 635.164 853.944 634.139 853.197 633.374C852.45 632.609 851.434 632.164 850.365 632.134Z" fill="white"/>
<path d="M585.771 350.574C579.654 350.553 573.644 352.186 568.379 355.3C567.778 346.692 563.934 338.632 557.623 332.746C551.312 326.86 543.004 323.588 534.374 323.588C530.116 323.588 525.895 324.39 521.933 325.951C519.462 317.751 514.416 310.565 507.543 305.458C500.669 300.35 492.332 297.593 483.769 297.594C478.537 297.592 473.357 298.621 468.523 300.622C463.689 302.623 459.297 305.557 455.597 309.255C451.898 312.954 448.963 317.345 446.96 322.179C444.958 327.012 443.927 332.192 443.927 337.423C443.927 337.991 443.927 338.546 443.927 339.101C433.361 339.101 423.227 343.299 415.755 350.771C408.283 358.242 404.086 368.376 404.086 378.943C404.089 389.507 408.288 399.638 415.759 407.107C423.231 414.576 433.363 418.772 443.927 418.772C445.298 418.772 446.657 418.701 447.992 418.571H582.061C583.293 418.704 584.532 418.771 585.771 418.772C590.248 418.774 594.682 417.893 598.819 416.181C602.956 414.469 606.716 411.958 609.882 408.793C613.049 405.627 615.561 401.869 617.274 397.732C618.988 393.596 619.87 389.162 619.87 384.685C619.872 380.206 618.991 375.771 617.278 371.632C615.565 367.494 613.054 363.733 609.887 360.566C606.72 357.398 602.961 354.885 598.823 353.171C594.685 351.456 590.25 350.574 585.771 350.574Z" fill="white"/>
<path d="M1345.57 499.744C1350.67 499.741 1355.67 501.112 1360.06 503.714C1360.55 496.536 1363.76 489.814 1369.02 484.911C1374.29 480.008 1381.22 477.289 1388.41 477.306C1391.96 477.303 1395.48 477.968 1398.78 479.268C1400.83 472.435 1405.03 466.446 1410.76 462.189C1416.48 457.933 1423.43 455.635 1430.56 455.637C1439.36 455.637 1447.79 459.131 1454.01 465.351C1460.23 471.571 1463.73 480.006 1463.73 488.802C1463.73 489.263 1463.73 489.736 1463.73 490.197C1472.52 490.197 1480.96 493.691 1487.18 499.91C1493.4 506.129 1496.9 514.565 1496.9 523.362C1496.9 532.162 1493.41 540.601 1487.19 546.823C1480.96 553.045 1472.52 556.54 1463.73 556.54C1462.6 556.541 1461.47 556.481 1460.35 556.363H1348.71C1347.69 556.482 1346.65 556.541 1345.62 556.54C1338.1 556.54 1330.89 553.553 1325.57 548.235C1320.25 542.917 1317.26 535.704 1317.26 528.183C1317.25 524.456 1317.97 520.764 1319.39 517.317C1320.81 513.87 1322.89 510.736 1325.52 508.095C1328.15 505.454 1331.27 503.357 1334.72 501.924C1338.16 500.491 1341.84 499.75 1345.57 499.744Z" fill="white"/>
<path d="M504.33 515.505C507.12 515.505 509.859 516.256 512.258 517.679C512.525 513.748 514.274 510.065 517.151 507.374C520.029 504.683 523.82 503.184 527.76 503.181C529.701 503.182 531.625 503.547 533.432 504.257C534.546 500.505 536.842 497.213 539.978 494.872C543.114 492.53 546.922 491.263 550.836 491.26C555.652 491.26 560.271 493.173 563.677 496.579C567.083 499.984 568.996 504.604 568.996 509.42C568.996 509.68 568.996 509.928 568.996 510.188C573.813 510.188 578.434 512.101 581.841 515.506C585.249 518.912 587.165 523.531 587.168 528.348C587.165 533.166 585.249 537.785 581.841 541.19C578.434 544.596 573.813 546.509 568.996 546.509C568.37 546.509 567.814 546.508 567.141 546.414H506.02C505.459 546.475 504.895 546.507 504.33 546.509C500.209 546.509 496.255 544.872 493.34 541.958C490.424 539.045 488.784 535.093 488.781 530.971C488.803 526.862 490.451 522.928 493.365 520.03C496.278 517.132 500.221 515.505 504.33 515.505Z" fill="white"/>
<path d="M1253.92 274.732C1250.4 274.727 1246.95 275.674 1243.94 277.473C1243.59 272.541 1241.39 267.922 1237.78 264.544C1234.17 261.166 1229.42 259.28 1224.48 259.265C1222.3 259.274 1220.15 259.641 1218.1 260.352C1216.65 255.689 1213.75 251.61 1209.82 248.715C1205.89 245.819 1201.13 244.258 1196.25 244.26C1195.48 244.26 1194.72 244.26 1193.97 244.378C1189.35 244.66 1184.93 246.334 1181.29 249.179C1177.64 252.025 1174.94 255.908 1173.55 260.317C1171.49 259.594 1169.32 259.222 1167.14 259.218C1162.19 259.23 1157.43 261.115 1153.82 264.493C1150.21 267.872 1148.02 272.493 1147.68 277.426C1144.65 275.629 1141.2 274.682 1137.68 274.684C1132.49 274.688 1127.52 276.75 1123.85 280.419C1120.18 284.087 1118.12 289.062 1118.11 294.251C1118.11 299.44 1120.17 304.417 1123.84 308.086C1127.51 311.756 1132.49 313.817 1137.68 313.817C1138.39 313.82 1139.11 313.78 1139.82 313.699H1169.88C1170.76 313.812 1171.65 313.871 1172.55 313.876C1173.34 313.876 1174.12 313.876 1174.91 313.758H1217.81C1218.25 313.758 1218.69 313.758 1219.13 313.758C1219.58 313.758 1220.01 313.758 1220.45 313.758H1251.86C1252.57 313.833 1253.28 313.873 1253.99 313.876C1259.18 313.876 1264.16 311.815 1267.83 308.145C1271.5 304.476 1273.56 299.499 1273.56 294.31C1273.56 291.733 1273.05 289.182 1272.06 286.802C1271.08 284.422 1269.63 282.261 1267.8 280.442C1265.98 278.622 1263.81 277.182 1261.43 276.202C1259.05 275.222 1256.5 274.722 1253.92 274.732Z" fill="white"/>
<path d="M985.58 526.459H942.229C942.229 526.459 928.051 541.346 929.977 563.264C932.186 560.77 934.597 558.462 937.184 556.364C937.312 556.268 937.466 556.212 937.625 556.204C937.785 556.196 937.944 556.235 938.081 556.318C938.218 556.4 938.327 556.522 938.395 556.667C938.462 556.812 938.485 556.974 938.46 557.132C937.692 562.082 938.342 576.934 963.91 602.172C989.467 576.934 990.129 562.082 989.361 557.132C989.332 556.974 989.352 556.811 989.417 556.665C989.483 556.519 989.591 556.396 989.728 556.312C989.866 556.229 990.025 556.189 990.185 556.199C990.345 556.208 990.498 556.265 990.625 556.364C993.215 558.464 995.63 560.771 997.844 563.264C999.794 541.346 985.58 526.459 985.58 526.459Z" fill="url(#paint0_linear_1263_1049)"/>
<path d="M963.781 509.562C963.781 509.562 936.026 531.598 963.781 569.537C991.547 531.598 963.781 509.562 963.781 509.562Z" fill="#FFE697"/>
<path d="M963.781 523.645C963.781 523.645 947.24 536.807 963.781 559.481C980.37 536.807 963.781 523.645 963.781 523.645Z" fill="white"/>
<path d="M932.633 516.51L935.787 522.595C936.446 523.863 937.439 524.926 938.66 525.667C939.881 526.409 941.283 526.801 942.711 526.801H984.538C985.967 526.803 987.369 526.411 988.59 525.669C989.811 524.927 990.805 523.864 991.462 522.595L994.616 516.51H932.633Z" fill="#949494" stroke="#424242" stroke-width="2" stroke-miterlimit="10"/>
<path d="M923.703 504.979L927.768 512.812C928.614 514.448 929.894 515.821 931.467 516.779C933.04 517.737 934.846 518.245 936.688 518.247H990.531C992.373 518.245 994.179 517.737 995.752 516.779C997.326 515.821 998.605 514.448 999.452 512.812L1003.52 504.979H923.703Z" fill="#4D4D4D" stroke="#424242" stroke-width="2" stroke-miterlimit="10"/>
<path d="M1002.13 444.979C1002.13 444.979 1070.08 468.326 1065.76 536.607C1065.76 536.607 1008.55 478.322 977.414 490.799L1002.13 444.979Z" fill="#E02424"/>
<path d="M925.687 444.979C925.687 444.979 857.737 468.326 862.061 536.607C862.061 536.607 919.259 478.322 950.405 490.799L925.687 444.979Z" fill="#E02424"/>
<path d="M996.628 314.444C988.595 293.96 977.461 274.832 963.615 257.73C949.915 274.656 938.871 293.569 930.863 313.818C952.522 308.791 975.068 309.006 996.628 314.444Z" fill="#E02424"/>
<path d="M997.523 316.759L996.613 314.396C960.258 305.062 930.825 313.782 930.825 313.782L929.644 316.712C899.597 394.493 913.22 478.925 918.053 502.757C918.438 504.615 919.45 506.284 920.919 507.484C922.388 508.685 924.226 509.343 926.123 509.35H1000.99C1002.88 509.346 1004.72 508.688 1006.2 507.488C1007.67 506.287 1008.68 504.617 1009.07 502.757C1013.95 478.973 1027.56 394.54 997.523 316.759Z" fill="white"/>
<path d="M962.255 405.173C977.649 405.173 990.128 392.694 990.128 377.3C990.128 361.907 977.649 349.428 962.255 349.428C946.862 349.428 934.383 361.907 934.383 377.3C934.383 392.694 946.862 405.173 962.255 405.173Z" fill="#043146" stroke="#424242" stroke-width="2" stroke-miterlimit="10"/>
<path d="M971.665 398.324C982.568 393.866 987.792 381.415 983.334 370.512C978.876 359.61 966.424 354.386 955.521 358.844C944.619 363.302 939.395 375.754 943.853 386.656C948.311 397.558 960.763 402.782 971.665 398.324Z" fill="#7C7C7C" stroke="#424242" stroke-width="2" stroke-miterlimit="10"/>
<path d="M962.259 398.426C973.926 398.426 983.385 388.967 983.385 377.3C983.385 365.632 973.926 356.174 962.259 356.174C950.591 356.174 941.133 365.632 941.133 377.3C941.133 388.967 950.591 398.426 962.259 398.426Z" fill="#3EC2E5" stroke="#424242" stroke-width="2" stroke-miterlimit="10"/>
<g opacity="0.08">
<path d="M963.606 359.742C967.574 359.745 971.461 360.866 974.821 362.976C978.182 365.087 980.879 368.102 982.605 371.676C981.377 367.222 978.721 363.293 975.046 360.493C971.371 357.693 966.879 356.176 962.259 356.174C956.657 356.177 951.285 358.404 947.324 362.365C943.363 366.326 941.136 371.698 941.133 377.3C941.136 380.485 941.863 383.629 943.26 386.492C942.753 384.66 942.49 382.769 942.48 380.868C942.483 375.266 944.71 369.894 948.671 365.933C952.632 361.972 958.004 359.745 963.606 359.742Z" fill="black" stroke="#424242" stroke-width="2" stroke-miterlimit="10"/>
</g>
<path d="M963.912 453.486C941.144 505.32 963.912 550.124 963.912 550.124C963.912 550.124 986.68 505.32 963.912 453.486Z" fill="#E02424"/>
<defs>
<linearGradient id="paint0_linear_1263_1049" x1="963.91" y1="526.459" x2="963.91" y2="602.172" gradientUnits="userSpaceOnUse">
<stop offset="0.01" stop-color="#F7BD6F"/>
<stop offset="0.45" stop-color="#F39958"/>
<stop offset="1" stop-color="#ED6637"/>
</linearGradient>
</defs>
</svg>
