<svg width="98" height="98" fill="none" xmlns="http://www.w3.org/2000/svg"><g clip-path="url(#a)"><path d="m94.53 25.74-3.36 35.93c-1.07 11.53-2.13 23.064-3.179 34.601-.08.88.08 1.748-1.347 1.733-6.944-.08-13.888-.069-20.832-.092-.662-.696-.474-1.53-.382-2.352 2.157-18.392 4.273-36.792 6.504-55.177.275-2.248-.295-4.184-2.04-5.668-1.166-.99-1.744-2.153-1.484-3.69a4.247 4.247 0 0 0-.023-1.148c-.31-3.01-.93-3.572-3.956-3.545-.445.015-.891 0-1.335-.042a.614.614 0 0 1-.46-.803c1.466-1.304 3.23-.528 4.856-.708 8.337-.149 16.673-.069 25.006-.03.784.007 1.756-.13 2.031.99Z" fill="#2ECC82"/><path d="m62.686 25.74.413.427c1.718 1.706 2.078 4.184.991 6.793-.67.585-1.446.271-2.169.203-3.122-.295-5.578.623-6.96 3.644-.18.383-.382.796-.902.876a1.363 1.363 0 0 1-.765-.81c-1.236-2.781-3.413-3.925-6.393-3.745-2.71.16-4.442 1.591-5.44 4.039-.165.405-.295.86-.858.89-.612-.336-.765-.993-1.056-1.529-1.148-2.13-2.846-3.32-5.33-3.396-2.624-.084-4.514 1.017-5.81 3.255-.31.531-.44 1.227-1.19 1.388-.705-.077-.869-.68-1.13-1.17-1.418-2.678-3.687-3.74-6.641-3.442-2.659.267-4.182 1.912-5.077 4.287a2.049 2.049 0 0 1-.55.983c-.766 0-.812-.685-1.034-1.17-1.434-3.129-3.248-4.208-6.726-4.1-.73.026-1.5.409-2.196-.15-1.503-5.69 2.261-10.934 8.054-10.865 1.396 0 1.633-.486 1.832-1.442 1.106-5.324 4.415-6.647 7.794-7.06 1.19-.145 2.498.333 3.692.711.822.264 1.377.153 1.775-.547 2.402-4.207 9.913-4.792 13.157-.466.865 1.147 1.607 1.147 2.977.738 3.596-1.094 6.821-.138 9.082 2.952.938 1.286 1.963 1.557 3.382 1.488.85-.042 1.787-.31 2.575.325-.708.765-1.649.47-2.506.547-.662.058-1.32.061-1.27.998.042.819.406 1.312 1.29 1.297a8.419 8.419 0 0 1 5.642 1.912c.712.543 1.351 1.136 1.347 2.138Z" fill="#DCDCDC"/><path d="M3.872 32.998c5.242-1.327 8.345.352 9.821 5.316.64.383.682 1.048.705 1.675.175 5.007.654 9.998.791 15.004.065 2.34.635 4.662.299 7.018-1.864 4.173-1.53 8.215.72 12.15.309 3.133.722 6.261.428 9.42-.184 1.373-1.26 1.79-2.361 2.13-2.827.873-5.666 1.699-8.536 2.414-.623-5.033-1.258-10.062-1.859-15.095a8099.7 8099.7 0 0 1-2.877-24.393c-.306-2.582-.646-5.163-.93-7.749-.378-3.411.777-6.108 3.8-7.89Z" fill="#2ECC82"/><path d="M60.85 97.916H50.597a1.53 1.53 0 0 1-.47-1.388c.256-4.697.409-9.397.814-14.09.234-2.72-.023-5.477.578-8.17a2.874 2.874 0 0 1 .41-1.441c1.82-2.98 1.878-6.085.676-9.282a1.79 1.79 0 0 1-.053-.888 1.21 1.21 0 0 1 .275-.504c4.232-3.706 7.752-8.032 11.118-12.518.417-.639.886-1.243 1.4-1.805.59-.566 1.179-.838 1.63.164.383 2.823-.36 5.561-.677 8.315-1.5 12.984-3.06 25.96-4.549 38.945-.107.948-.164 1.92-.899 2.662Z" fill="#126F43"/><path d="M60.852 97.916c1.113-9.37 2.25-18.74 3.328-28.114.853-7.424 1.634-14.851 2.445-22.278-.654-1.977 0-3.924.314-5.821.512-3.16.053-5.806-2.678-7.776a.96.96 0 0 1-.471-.975c.719-2.36.317-4.59-.697-6.784 1.504-.765 3.333-.892 4.515-.066 1.477 1.033 1.614 3.156 1.408 4.884-.165 1.366-.05 2.265 1.094 3.095 3.443 2.5 2.468 6.038 2.078 9.412-.456 3.893-.945 7.779-1.408 11.668-.433 3.641-.846 7.267-1.282 10.923-.454 3.825-.92 7.65-1.397 11.474-.612 5.018-1.243 10.032-1.832 15.053-.207 1.76-.31 3.53-.463 5.293l-4.954.012Z" fill="#4D4D4D"/><path d="M40.582 97.916h-13.39a2.249 2.249 0 0 1-.605-1.74 627.89 627.89 0 0 1 0-14.197 2.887 2.887 0 0 1 .364-1.453c.639-.765 1.492-.6 2.295-.452 3.049.582 6.18.582 9.228 0 .796-.153 1.645-.313 2.322.383.425.68.421 1.45.425 2.21 0 4.307.023 8.613 0 12.924-.015.826.02 1.675-.639 2.325Z" fill="#126F43"/><path d="M94.53 25.74c-.67-.555-1.465-.276-2.196-.284-8.327-.058-16.654-.098-24.979-.119-2.043-2.482-4.346-4.627-7.395-5.84a.486.486 0 0 1-.264-.63c3.06 0 6.152 0 9.228-.027.665 0 1.404.214 1.913-.452 2.25-.072 4.526-.558 6.71.429 6.18 0 12.362.06 18.54 0 1.397 0 1.99.352 1.86 1.816-.119 1.331.24 2.758-.126 3.99-.456 1.575-2.357.171-3.29 1.116Z" fill="#DCDCDC"/><path d="M40.582 97.916V80.434c.172-.673.765-.819 1.3-.952 3.348-.826 6.141-2.616 8.643-4.926.414-.383.815-.823 1.473-.72l-1.392 24.095-10.024-.015ZM27.198 80.45v17.466H17.033a1.503 1.503 0 0 1-.716-1.469c.1-3.377-.547-6.72-.432-10.093-.02-.573.09-1.142.321-1.667.138-.631.616-.91 1.148-1.105 2.95-1.064 5.785-2.395 8.696-3.546a1.148 1.148 0 0 1 1.148.413Z" fill="#515151"/><path d="M77.558 18.817c-2.223-.344-4.518.382-6.71-.429 0-5.515.065-11.033 0-16.552 0-1.278.256-1.855 1.656-1.729 1.63.145 3.757-.497 4.783.318 1.094.868.344 3.082.352 4.704.015 4.562-.042 9.125-.08 13.688Z" fill="#4C4C4C"/><path d="M16.44 84.216c.19 4.57.384 9.137.58 13.704-2.968 0-5.937 0-8.902.08-1.098.034-1.45-.463-1.53-1.411-.272-2.823-.563-5.641-.846-8.464.092-.765.658-.734 1.236-.887 2.567-.692 5.115-1.473 7.652-2.222.673-.2 1.388-.352 1.5-1.24.31.02.52.08.31.44Z" fill="#126F43"/><path d="M59.696 18.866c2.846 1.339 5.654 2.735 7.318 5.611.136.278.25.565.34.86-1.53.276-3.163-.359-4.667.402-1.783-2.54-4.25-3.824-7.319-3.518-2.349.225-1.258-1.653-1.595-2.486-.436-1.094.765-.826 1.366-.86 1.014-.058 2.035-.032 3.06-.043l1.497.034Z" fill="#C5C5C5"/><path d="m15.025 62.294-1.332-23.98c.693-3.281 2.713-5.385 5.487-5.714 3.902-.462 6.144.972 7.996 5.114a1.85 1.85 0 0 1 .6 1.549c.02 4.972.21 9.944-.095 14.892a1.934 1.934 0 0 1-1.53 1.488 19.823 19.823 0 0 0-10.017 6.161c-.283.303-.558.754-1.11.49Zm25.618-24.24c1.385-4 3.363-5.572 6.921-5.503 3.397.065 5.276 1.53 6.447 5.052.899 1.193.577 2.558.478 3.863-.455 6.073-.765 12.154-1.048 18.239-.046.94.1 1.912-.674 2.677l-.126-.073c-.612.115-.914-.336-1.236-.711-2.521-2.918-5.773-4.662-9.373-5.84-.869-.283-1.691-.574-1.913-1.606-.325-4.804-.119-9.608-.119-14.407-.011-.616.065-1.262.643-1.69Z" fill="#515151"/><path d="M52.785 62.394c.023-6.705.712-13.386.98-20.064.065-1.576.176-3.151.264-4.727 2.241-4.712 4.786-5.92 9.786-4.65 3.375 2.022 4.488 4.933 3.63 8.758-.424 1.912-.542 3.87-.802 5.813-2.063 1.086-2.782 3.32-4.19 4.972-2.7 3.166-5.337 6.383-8.363 9.259-.39.352-.75.707-1.305.639Zm-12.142-24.34-.038 16.683c-.486.573-1.148.516-1.764.405a28.383 28.383 0 0 0-9.863 0c-.62.111-1.278.168-1.772-.382 0-5.678-.01-11.357-.03-17.035 1.125-2.6 2.678-4.78 5.77-5.086 4.036-.417 6.377 1.285 7.697 5.415Z" fill="#2ECC82"/><path d="M22.22 24.829c0-3.442 3.188-6.322 6.65-5.982.807.08 1.34.333 1.374 1.216.034.884.05 1.653-1.102 1.86-2.208.382-3.654 1.552-3.899 3.95-.118 1.166-1.102 1.067-1.913.983-1.308-.13-1.071-1.17-1.11-2.027Z" fill="#C6C6C6"/><path d="M27.206 54.745a37.725 37.725 0 0 1 13.39 0c2.097.814 4.277 1.415 6.263 2.535a20.88 20.88 0 0 1 5.777 5.048c.05.295.1.586.153.88-1.454 2.222-3.684 3.633-5.693 5.225A97.692 97.692 0 0 1 30.232 79.14c-1.309.662-2.678 1.216-4.186 1.082-1.878.425-3.29-.741-4.786-1.491-2.223-1.117-4.3-2.467-5.494-4.792-2.582-3.725-2.866-7.6-.765-11.627 3.114-4.1 7.4-6.257 12.205-7.569Z" fill="#DCDCDC"/><path d="M15.773 73.92c2.942 2.842 6.099 5.328 10.273 6.12a.216.216 0 0 1 .16.21.214.214 0 0 1-.022.092c-3.114 1.626-6.279 3.129-9.737 3.893l-.306-.436-.368-9.878Z" fill="#515151"/><path d="M26.185 80.323a4.286 4.286 0 0 0-.138-.302c3.256-.383 5.819-2.364 8.577-3.825 6.615-3.534 12.396-8.264 18.173-12.98 1.776 2.98 1.53 5.978.077 8.98-.272.562-.59 1.105-.884 1.656a23.232 23.232 0 0 1-11.416 6.597 35.128 35.128 0 0 1-13.39 0l-1-.126Z" fill="#C5C5C5"/></g><defs><clipPath id="a"><path fill="#fff" d="M0 0h98v98H0z"/></clipPath></defs></svg>