<svg width="416" height="355" fill="none" xmlns="http://www.w3.org/2000/svg"><path d="M92.6 82.838c-20.46 10.64-36.36 28.52-48.92 47.85-17.79 27.53-29.8 60.53-24.72 92.91 5.08 32.38 30.93 62.76 63.6 65.34 41.86 3.31 75.93-36.28 117.69-40.65 15.91-1.66 31.84 1.95 47.8 3 47.21 3 95.33-18.28 124.85-55.25 19.33-24.21 30.88-56.15 24.83-86.53-6.29-31.58-31.25-57.66-61.11-69.7-29.86-12.04-63.86-11.19-94.81-2.32-28.67 8.22-51.54 24-77.24 38.11-10.36 5.71-22.12-2-33.71-2.1a81.411 81.411 0 0 0-38.26 9.34Z" fill="#DEF7E5"/><path d="m119.42 15.648 3.73 4.82h170.86l3.76-4.82H119.42Z" fill="#0C884E"/><path d="M294.051 11.978h-171.25v303.58h171.25V11.978Z" fill="#2F2F2F"/><g opacity=".8" fill="#7B7B7B"><path d="M129.741 16.908a3.103 3.103 0 0 1-3.07 3.56 4 4 0 0 1-3.81-3.56 3.094 3.094 0 0 1 3.06-3.6 4 4 0 0 1 3.82 3.6Z"/><path d="M136.041 16.908a3.136 3.136 0 0 1-.737 2.481 3.123 3.123 0 0 1-2.353 1.079 4.003 4.003 0 0 1-3.79-3.56 3.147 3.147 0 0 1 .727-2.51 3.14 3.14 0 0 1 2.373-1.09 4 4 0 0 1 3.78 3.6Z"/><path d="M142.35 16.908a3.17 3.17 0 0 1-3.13 3.56 3.909 3.909 0 0 1-3.75-3.56 3.155 3.155 0 0 1 .741-2.51 3.16 3.16 0 0 1 2.379-1.09 3.908 3.908 0 0 1 3.76 3.6Z"/><path d="M148.682 16.908a3.196 3.196 0 0 1-1.85 3.274 3.194 3.194 0 0 1-1.3.286 3.869 3.869 0 0 1-3.73-3.56 3.196 3.196 0 0 1 3.15-3.6 3.87 3.87 0 0 1 3.73 3.6Z"/><path d="M154.951 16.908a3.21 3.21 0 0 1-.8 2.485 3.222 3.222 0 0 1-2.38 1.075 3.84 3.84 0 0 1-3.7-3.56 3.23 3.23 0 0 1 .785-2.512 3.216 3.216 0 0 1 2.395-1.088 3.83 3.83 0 0 1 3.7 3.6Z"/><path d="M161.26 16.908a3.258 3.258 0 0 1-.821 2.486 3.246 3.246 0 0 1-2.389 1.074 3.8 3.8 0 0 1-3.67-3.56 3.249 3.249 0 0 1 3.21-3.6 3.798 3.798 0 0 1 3.67 3.6Z"/><path d="M167.562 16.908a3.29 3.29 0 0 1-.843 2.487 3.281 3.281 0 0 1-2.397 1.073 3.763 3.763 0 0 1-3.64-3.56 3.276 3.276 0 0 1 1.918-3.312 3.285 3.285 0 0 1 1.322-.288 3.751 3.751 0 0 1 3.64 3.6Z"/><path d="M173.861 16.908a3.31 3.31 0 0 1-3.26 3.56 3.74 3.74 0 0 1-3.62-3.56 3.318 3.318 0 0 1 3.27-3.6 3.71 3.71 0 0 1 3.61 3.6Z"/><path d="M180.171 16.908a3.348 3.348 0 0 1-3.3 3.56 3.69 3.69 0 0 1-3.58-3.56 3.346 3.346 0 0 1 1.965-3.309 3.338 3.338 0 0 1 1.325-.291 3.69 3.69 0 0 1 3.59 3.6Z"/><path d="M186.471 16.908a3.376 3.376 0 0 1-.9 2.488 3.364 3.364 0 0 1-2.42 1.072 3.65 3.65 0 0 1-3.56-3.56 3.39 3.39 0 0 1 .888-2.512 3.384 3.384 0 0 1 2.432-1.088 3.651 3.651 0 0 1 3.56 3.6Z"/><path d="M192.782 16.908a3.416 3.416 0 0 1-2.035 3.272 3.412 3.412 0 0 1-1.325.288 3.613 3.613 0 0 1-3.52-3.56 3.405 3.405 0 0 1 2.018-3.306c.42-.187.873-.287 1.332-.294a3.62 3.62 0 0 1 3.53 3.6Z"/><path d="M199.081 16.908a3.44 3.44 0 0 1-3.38 3.56 3.581 3.581 0 0 1-3.5-3.56 3.452 3.452 0 0 1 2.044-3.306 3.443 3.443 0 0 1 1.336-.294 3.581 3.581 0 0 1 3.5 3.6Z"/><path d="M205.38 16.908a3.475 3.475 0 0 1-.963 2.49 3.467 3.467 0 0 1-2.447 1.07 3.55 3.55 0 0 1-3.47-3.56 3.486 3.486 0 0 1 .952-2.514 3.475 3.475 0 0 1 2.458-1.086 3.548 3.548 0 0 1 3.47 3.6Z"/><path d="M211.681 16.908a3.438 3.438 0 0 1-4.2 3.194 3.443 3.443 0 0 1-2.403-4.698 3.444 3.444 0 0 1 3.153-2.096 3.51 3.51 0 0 1 3.45 3.6Z"/><path d="M217.991 16.908a3.544 3.544 0 0 1-3.47 3.56 3.467 3.467 0 0 1-3.41-3.56 3.547 3.547 0 0 1 3.47-3.6 3.479 3.479 0 0 1 3.41 3.6Z"/><path d="M224.29 16.908a3.569 3.569 0 0 1-3.49 3.56 3.453 3.453 0 0 1-3.165-2.22 3.445 3.445 0 0 1-.225-1.34 3.576 3.576 0 0 1 3.5-3.6 3.443 3.443 0 0 1 3.38 3.6Z"/><path d="M230.6 16.908a3.613 3.613 0 0 1-3.53 3.56 3.41 3.41 0 0 1-3.35-3.56 3.61 3.61 0 0 1 3.52-3.6 3.417 3.417 0 0 1 3.36 3.6Z"/><path d="M236.9 16.908a3.645 3.645 0 0 1-3.55 3.56 3.375 3.375 0 0 1-3.13-2.223 3.383 3.383 0 0 1-.2-1.337 3.65 3.65 0 0 1 3.55-3.6 3.378 3.378 0 0 1 3.33 3.6Z"/><path d="M243.201 16.908a3.67 3.67 0 0 1-3.57 3.56 3.336 3.336 0 0 1-3.115-2.224 3.355 3.355 0 0 1-.185-1.336 3.672 3.672 0 0 1 3.58-3.6 3.35 3.35 0 0 1 3.29 3.6Z"/><path d="M249.511 16.908a3.724 3.724 0 0 1-3.61 3.56 3.31 3.31 0 0 1-3.27-3.56 3.707 3.707 0 0 1 3.61-3.6 3.324 3.324 0 0 1 3.106 2.255c.146.432.202.89.164 1.345Z"/><path d="M255.811 16.908a3.74 3.74 0 0 1-3.63 3.56 3.29 3.29 0 0 1-3.25-3.56 3.75 3.75 0 0 1 3.64-3.6 3.277 3.277 0 0 1 3.092 2.255c.142.433.193.891.148 1.345Z"/><path d="M262.121 16.908a3.801 3.801 0 0 1-3.67 3.56 3.252 3.252 0 0 1-3.21-3.56 3.779 3.779 0 0 1 3.66-3.6 3.259 3.259 0 0 1 3.22 3.6Z"/><path d="M268.42 16.908a3.83 3.83 0 0 1-3.69 3.56 3.226 3.226 0 0 1-3.048-2.232 3.214 3.214 0 0 1-.142-1.328 3.829 3.829 0 0 1 3.7-3.6 3.228 3.228 0 0 1 3.18 3.6Z"/><path d="M274.682 16.908a3.865 3.865 0 0 1-3.72 3.56 3.201 3.201 0 0 1-3.16-3.56 3.868 3.868 0 0 1 3.73-3.6 3.186 3.186 0 0 1 3.038 2.262c.132.433.17.889.112 1.338Z"/><path d="M281.03 16.908a3.909 3.909 0 0 1-3.75 3.56 3.155 3.155 0 0 1-2.368-1.074 3.173 3.173 0 0 1-.649-1.161 3.177 3.177 0 0 1-.113-1.325 3.903 3.903 0 0 1 3.75-3.6 3.171 3.171 0 0 1 3.13 3.6Z"/><path d="M287.33 16.908a3.996 3.996 0 0 1-3.78 3.56 3.136 3.136 0 0 1-2.996-2.239 3.141 3.141 0 0 1-.104-1.321 3.94 3.94 0 0 1 3.78-3.6 3.143 3.143 0 0 1 3.01 2.266c.125.433.156.888.09 1.334Z"/><path d="M293.681 16.908a4 4 0 0 1-3.8 3.56 3.125 3.125 0 0 1-2.351-1.079 3.121 3.121 0 0 1-.729-2.481 3.997 3.997 0 0 1 3.81-3.6 3.11 3.11 0 0 1 3.07 3.6Z"/></g><path d="M119.41 10.768h178.37l-.01 4.88H119.42l-.01-4.88Z" fill="#2ECC82"/><path d="m119.4 5.888 3.72 4.88h170.91l3.76-4.88H119.4Z" fill="#0C884E"/><path d="M119.381.988h178.42l-.01 4.9h-178.39l-.02-4.9Z" fill="#2ECC82"/><path d="M123.111 5.888h170.93l-.01 4.88h-170.91l-.01-4.88Z" fill="#407BFF"/><path d="M123.111 5.888h170.93l-.01 4.88h-170.91l-.01-4.88Z" fill="#fff" opacity=".8"/><path d="M294.092 106.838h-171.24v2.15h171.24v-2.15Z" fill="#fff" opacity=".7"/><path d="M294.081 213.538h-170.88v2.14h170.88v-2.14Z" fill="#fff" opacity=".8"/><path d="M179.512 29.808h-21.17v22.87h21.17v-22.87Zm40.658 0H199v22.87h21.17v-22.87Zm40.66 0h-21.17v22.87h21.17v-22.87Zm-81.318 34.25h-21.17v22.87h21.17v-22.87Zm40.658 0H199v22.87h21.17v-22.87Zm40.66 0h-21.17v22.87h21.17v-22.87Zm-81.318 165.95h-21.17v22.87h21.17v-22.87Zm40.658 0H199v22.87h21.17v-22.87Zm40.66 0h-21.17v22.87h21.17v-22.87Zm-104 48.15h-21.17v22.87h21.17v-22.87Zm124.381 0h-21.17v22.87h21.17v-22.87Zm-101.699-151.15h-21.17v22.87h21.17v-22.87Zm40.658 0H199v22.87h21.17v-22.87Zm40.66 0h-21.17v22.87h21.17v-22.87Zm-81.318 34.24h-21.17v22.87h21.17v-22.87Zm40.658 0H199v22.87h21.17v-22.87Zm40.66 0h-21.17v22.87h21.17v-22.87Z" fill="#2ECC82"/><path d="M183.941 280.848h21.91l-.09 22.75h-21.97l.15-22.75Zm26.141 0h22.81l-1.08 22.75h-21.97l.24-22.75Z" fill="#fff" opacity=".8"/><path d="M236.382 308.178h-57.81l-.23-4.58h58.26l-.22 4.58Z" fill="#263238"/><path d="M238.711 313.018h-62.18l-.25-4.52h62.66l-.23 4.52Z" fill="#2ECC82"/><path d="M240.771 272.788h-66.46l-.29-5.16h67.01l-.26 5.16Z" fill="#fff" opacity=".4"/><path d="m174.311 272.788 9.63 8.06h48.95l7.88-8.06h-66.46Z" fill="#263238"/><path d="m178.811 276.558 3.39 27h2.71l-1.09-27a5.403 5.403 0 0 0-5 0h-.01Zm58.389 0-3.33 27h-2.7l1-27a4.52 4.52 0 0 1 5 0h.03Z" fill="#2ECC82"/><path d="M320.77 162.148c-5.38 7.25-7.45 10.57-9.54 12.63-2.26 2.23-25.44.53-28.24-.64-2.15-.91-.67-3.69.35-3.55 3.81.53 18.15-2 22.4-3.84.75-.32 8-9.15 8-9.15l7.03 4.55Z" fill="#FFB573"/><path d="M311.939 157.358c4.55-8.33 13.5-14.45 16.21-14.79 3.89-.51 5.21.26 4.06 3.4-1.94 5.32-5.51 10.93-10.54 17.71l-9.73-6.32Z" fill="#11A962"/><path d="M328.15 142.578a58.722 58.722 0 0 1 6.7-2 89.946 89.946 0 0 1 12.6-2.08c2.69-.3 5.34-.39 7.45-.41.252.002.503.029.75.08a3.752 3.752 0 0 1 2.75 4.39c-4.17 22-4.37 31.82-3.77 43.18l-25.38.91a1.367 1.367 0 0 1-1.35-1.14c-1.12-5.73-4.64-18.44-4.64-18.44-3.17-3-3.69-6.81-4-9-.17-1.19 2.49-2.47 5.37-8.78-.01-.01 2.21-6.24 3.52-6.71Z" fill="#11A962"/><path d="m344.191 186.088-9.26.34c-1.38-11-1.11-20.72-.64-31.65a315.394 315.394 0 0 0 9.9 31.31Z" fill="#263238"/><path d="M346.87 270.678c-.23-.51-.47-1-.69-1.57-10-23.85-17.61-72.05-17.61-72.05l17.8-9.08s5.07 42.37 12 69.94c1.07 4.2 2.16 8.05 3.28 11.33l-12.14 5.58-2.64-4.15Z" fill="#FFB573"/><path d="M346.87 270.678c-.23-.51-.47-1-.69-1.57-10-23.85-17.61-72.05-17.61-72.05l17.8-9.08s5.07 42.37 12 69.94c1.07 4.2 2.16 8.05 3.28 11.33l-12.14 5.58-2.64-4.15Z" fill="#263238" opacity=".8"/><path d="M329.891 190.798s-8.14 57-6.21 80.32c2 24.56 9.3 66.64 9.3 66.64l6-.41a286.374 286.374 0 0 0-1.48-65.88c13.74-35.39 15.28-79.77 15.28-79.77l-22.89-.9Z" fill="#FFB573"/><path opacity=".8" d="M329.891 190.798s-8.14 57-6.21 80.32c2 24.56 9.3 66.64 9.3 66.64l6-.41a286.374 286.374 0 0 0-1.48-65.88c13.74-35.39 15.28-79.77 15.28-79.77l-22.89-.9Z" fill="#263238"/><path d="M339.751 339.218c.419.797.652 1.68.68 2.58.16 3.3.39 12.06.39 12.06l-.73.05s-.44-4.3-.93-6.45c-.49-2.15-.83-.29-1.93 2s-4.19 4.76-8.89 5.2c-5.52.52-7.77.41-6.25-1.13 1.52-1.54 5.12-2.71 5.12-2.71s4.79-8.22 4.52-13.75c-.3-5.91 6.52-.36 7.85-1.19.46.12-.09 2.86.17 3.34Zm19.029-79.22c-3.5.76-6.59 3.32-15.77 4.25h-.55c-.38.04-.78.07-1.2.09-2.47.14-16.55-.52-19.17-2 2.28-23.46 6.75-73.28 6.75-73.28l10.76-1.31 13.86-.42s15.3 15.8 11.79 30.13c-5.26 21.44-2.63 24.78-6.47 42.54Z" fill="#263238"/><path d="M354.5 174.458a3.42 3.42 0 0 1-1-2.84s0-1.57-.06-4c-.08-7-.14-21 .6-22.87 1.6-4 4.33-6.19 5.77-3.84 1.67 2.74 1.8 23.52 1.8 23.52-.44 13.78-5.47 11.93-7.11 10.03Z" fill="#FFB573"/><path d="m351.17 137.668-.84 1.52c-3.24 5.88-10.74 13.44-13.68 14.19a10.767 10.767 0 0 0-3.07-4.09 6.42 6.42 0 0 0-3.27 3.86 16.546 16.546 0 0 1-1.63-11.79c1.48-.45 3-.9 4.56-1.27a91.096 91.096 0 0 1 12.6-2 42.837 42.837 0 0 1 5.33-.42Z" fill="#263238"/><path opacity=".8" d="m351.171 137.668-.84 1.52c-3.24 5.88-10.74 13.44-13.68 14.19a39.119 39.119 0 0 1-1.39-4.34c-1.57.77-2.72 3-3.24 4.68-2.52-4.09-4-9.81-3.37-12.37 1.48-.45 3-.9 4.56-1.27a91.072 91.072 0 0 1 12.6-2 42.718 42.718 0 0 1 5.36-.41Z" fill="#fff"/><path d="m331.859 166.278-3.47-4.71-3.11 6.16s3.18 1.77 5.81 1.18l.77-2.63Z" fill="#FFB573"/><path d="m322.88 160.108-1.48 4.98 3.88 2.61 3.11-6.13-5.51-1.46Z" fill="#FFB573"/><path d="m354.611 188.638-12.86.34h-1.07l-2.78.07h-1.07l-7.54.2c-.24 0-.44-.11-.45-.26l-.3-2.42c0-.17.18-.32.44-.33l7.46-.29h.9l3.69-.14h.87l12.37-.49a.497.497 0 0 1 .45.19l.31 2.75c.1.17-.12.37-.42.38Z" fill="#407BFF"/><path opacity=".2" d="m354.611 188.638-12.86.34h-1.07l-2.78.07h-1.07l-7.54.2c-.24 0-.44-.11-.45-.26l-.3-2.42c0-.17.18-.32.44-.33l7.46-.29h.9l3.69-.14h.87l12.37-.49a.497.497 0 0 1 .45.19l.31 2.75c.1.17-.12.37-.42.38Z" fill="#fff"/><path d="M332.841 189.538h.83a.222.222 0 0 0 .096.001.227.227 0 0 0 .184-.201l-.46-3.43c0-.1-.16-.19-.33-.19h-.83a.244.244 0 0 0-.097-.001.217.217 0 0 0-.088.038.214.214 0 0 0-.065.072.213.213 0 0 0-.03.091l.46 3.43a.323.323 0 0 0 .133.15c.06.034.129.048.197.04Zm14.318-.18h.79a.217.217 0 0 0 .175-.034.222.222 0 0 0 .06-.069.2.2 0 0 0 .025-.087l-.46-3.45c0-.09-.16-.18-.31-.17h-.79c-.16 0-.27.09-.26.19l.46 3.43a.289.289 0 0 0 .31.19Z" fill="#263238"/><path d="m350.25 205.629-2-.71 8.91-26.63c1.41-4.24.87-8.27-4.37-10.12-4.91-1.74-8.77.74-10.2 5l-9 26.55-2-.71 9-26.54c1.66-4.91 4.86-8.24 12.58-5.51 7.72 2.73 7.56 7.14 5.92 12.06l-8.84 26.61Z" fill="#141414"/><path d="m356.449 220.558-39-14 8.85-25.82a4.725 4.725 0 0 1 2.395-2.77 4.732 4.732 0 0 1 3.655-.23l28.42 10.1a6.369 6.369 0 0 1 3.85 8l-8.17 24.72Z" fill="#2ECC82"/><path d="m350.22 205.629-1.57 1.37-.42-2.08 8.91-26.63c1.41-4.24.87-8.27-4.37-10.12-4.91-1.74-8.77.74-10.2 5l-9 26.55-1.62 1.34-.36-2.05 9-26.54c1.66-4.91 4.86-8.24 12.58-5.51 7.72 2.73 7.56 7.14 5.92 12.06l-8.87 26.61Z" fill="#141414" opacity=".3"/><path d="m338.83 188.108-3.25-1.16.41-1.23 3.25 1.16-.41 1.23Zm-2.701 7.98-3.26-1.16.42-1.24 3.25 1.17-.41 1.23Zm19.41-2.02-3.26-1.17.41-1.23 3.26 1.16-.41 1.24Zm-2.669 8.01-3.27-1.17.41-1.24 3.27 1.16-.41 1.25Z" fill="#2F2F2F"/><path d="m349.089 192.548-6.98-2.48.88-2.64 6.98 2.49-.88 2.63Z" fill="#fff"/><path d="M357.501 175.698c-3.12 1.79-15.79-.24-26.49-6.68a7.745 7.745 0 0 0-1.2-.38c-.66-.5 1-1.62 2-2.14.55-.29 24.19 2.7 25.82 2.93 1.84 4.81.18 4.75-.13 6.27Zm-10.091 96.91c1.73 4.91 7.5 7.07 11.53 4 .17-.13.33-.26.48-.4 17.49-16.2 39.75-39.81 39.75-39.81l-3.75-4.75a246.945 246.945 0 0 0-37.05 26.24c-4 3.44-8.14 7.18-12.19 11.19l1.23 3.53Z" fill="#FFB573"/><path opacity=".8" d="M347.41 272.608c1.73 4.91 7.5 7.07 11.53 4 .17-.13.33-.26.48-.4 17.49-16.2 39.75-39.81 39.75-39.81l-3.75-4.75a246.945 246.945 0 0 0-37.05 26.24c-4 3.44-8.14 7.18-12.19 11.19l1.23 3.53Z" fill="#263238"/><path d="M393.161 232.248a5.007 5.007 0 0 1 1.27-2.12c2.1-2.19 7.78-7.83 7.78-7.83l.52.51s-2.56 3-3.67 4.71c-1.11 1.71.35.81 2.65.16s5.94.14 9.37 3.36c4 3.79 5.46 5.53 3.43 5.37-2.03-.16-5.22-2.12-5.22-2.12s-8.68 1.6-12.2 5.31c-3.77 4-4.59-4.67-6-5.14-.29-.39 1.92-1.71 2.07-2.21Z" fill="#263238"/><path d="M333.09 136.948c1.89 2.23 3.35 4.94.84 8.25a3.784 3.784 0 0 0-.82 2.43c.07 1.42 1 2.73 5.32-.28 6.3-4.36 5.45-8.73 5.45-8.73-3.53-.82-6.09-8-7.17-12.07l-3.62 10.4Z" fill="#FFB573"/><path opacity=".2" d="M336.77 132.818c.63 1.74-1 4.7-2.39 5.92a12.033 12.033 0 0 0-1.28-1.8l2.14-6.15a6.018 6.018 0 0 1 1.53 2.03Z" fill="#000"/><path d="M318.061 117.858c-1.68 6.52.83 13.69 5.44 18.61 4.66-5.11 13.47-4 18.37-8.88 3.27-3.24 3.88-8.69 1.85-12.82-2.19-4.47-8.63-8.76-13.7-8.06-5.7.79-10.55 5.65-11.96 11.15Z" fill="#263238"/><path d="M337.471 115.628a9.153 9.153 0 0 0-5.867-3.844 9.13 9.13 0 0 0-6.863 1.444c-5.92 4-4.81 14-2.18 19.64 2.91 6.33 11.37 6.58 15.33.38 2.65-4.13 2.08-6.95 1.1-13.65a9.243 9.243 0 0 0-1.52-3.97Z" fill="#FFB573"/><path d="M325.91 129.638a2.38 2.38 0 0 1-2 0 14.449 14.449 0 0 0 1.2-3.85l.8 3.85Z" fill="#ED893E"/><path d="M331.039 129.058a.18.18 0 0 0-.09-.22.17.17 0 0 0-.126.005.182.182 0 0 0-.052.039.185.185 0 0 0-.032.056 4.3 4.3 0 0 1-1.275 1.578 4.3 4.3 0 0 1-1.855.822.189.189 0 0 0-.093.074.184.184 0 0 0-.027.116c.004.02.011.039.023.056a.144.144 0 0 0 .097.065c.02.004.041.004.06-.001.256-.05.506-.12.75-.21a4.613 4.613 0 0 0 2.62-2.38Zm-4.748-18.88a6.681 6.681 0 0 0-1 2.79c7.81 1.81 13.57 10 15.78 17.77 2.12-2.77 6.26-6.17 7.86-9.51 1.8-3.75-.6-8.05-4.2-10.11a64.327 64.327 0 0 0-9.9-3.91 7.368 7.368 0 0 0-8.54 2.97Z" fill="#263238"/><path d="M341.941 123.638a2.233 2.233 0 0 0-2.61-1.74c-1.65.37-2.25 2.67-2.15 4.15.13 1.63 1.399 2.76 2.799 1.74a4.997 4.997 0 0 0 1.951-3.24c.068-.299.071-.609.01-.91Z" fill="#FFB573"/><path d="M329.07 122.968c.17.66 0 1.28-.47 1.4-.47.12-.91-.32-1.08-1-.17-.68 0-1.28.46-1.4.46-.12.91.39 1.09 1Zm-5.959 2.14c.17.65 0 1.28-.46 1.4-.46.12-.91-.32-1.09-1-.18-.68 0-1.27.46-1.39.46-.12.92.33 1.09.99Z" fill="#263238"/><path d="M322.209 124.108h-1.68s1.15.99 1.68 0Zm8.111-4.1a.443.443 0 0 0 .13-.11.338.338 0 0 0-.1-.46 3.883 3.883 0 0 0-3.54-.43.352.352 0 0 0-.16.44.326.326 0 0 0 .179.177.313.313 0 0 0 .251-.007 3.24 3.24 0 0 1 2.92.38.331.331 0 0 0 .32.01Zm-10.051 3.58a.357.357 0 0 0 .1-.14 3.281 3.281 0 0 1 2.17-2 .313.313 0 0 0 .122-.047.31.31 0 0 0 .142-.212.321.321 0 0 0-.004-.131.331.331 0 0 0-.141-.211.326.326 0 0 0-.249-.049 3.919 3.919 0 0 0-2.66 2.4.338.338 0 0 0 .17.44.315.315 0 0 0 .184.023.31.31 0 0 0 .166-.083v.01Zm7.901-1.61h-1.68s1.13.98 1.68 0Z" fill="#263238"/><path d="M319.359 127.288c.76 4.1 4.1 9.77 7.65 11.95-2.39 1.82-6.68-.24-9.2-1.84a10.667 10.667 0 0 1-4.51-7.46 18.012 18.012 0 0 1 1.18-8.81c1.71-4.62 5-8.29 8.79-11.36.77-.61 2.07-1.11 2.57-.26.34.58-.05 1.3-.43 1.86-3.73 5.38-6.6 9.13-6.05 15.92Z" fill="#263238"/><path d="M337.921 134.798h-.06a.237.237 0 0 1-.18-.3c2.67-10.8-8.91-19-12.52-21.31a.25.25 0 0 1-.08-.34.26.26 0 0 1 .35-.08c3.68 2.31 15.48 10.72 12.73 21.85a.263.263 0 0 1-.24.18Z" fill="#263238"/><path d="m339.95 126.978-.22 3.81 1.02.84.5-1.17-1.3-3.48Zm16.841 11.44a4.706 4.706 0 0 0-4.51 1.26 9.091 9.091 0 0 0-2.3 5.06c-.37 2.88.35 5.79 1.14 8.6.79 2.81 1.65 5.68 1.57 8.61 3.07-1.68 7.51-5 11.8-5.44-.6-6.82-1.38-11.35-2.71-13.61a12.679 12.679 0 0 0-2.7-3.56 6.2 6.2 0 0 0-2.29-.92Z" fill="#11A962"/><path d="M283.921 170.528s-7.55 1.24-7.65 1.58c-.1.34-.06 4.59-.06 4.59l6.78-2.56.93-3.61Z" fill="#FFB573"/><path d="m276.21 176.708-6.38-6.01 2.85-.83 4.73 2.56-1.2 4.28Z" fill="#FFB573"/><path d="m83.594 329.208 7.13-.39.63 16.88-7.13.39-.63-16.88Z" fill="#F7978D"/><path d="M93.103 344.168c2.21 1.38 5.42 2.58 11.28 3.17 1.29.13 1.72 3.1-1.3 3.42-3.02.32-8.26.8-10.43 1-3.55.39-4.87.7-7.68 1.05a1.27 1.27 0 0 1-1.39-1.13l-.3-6.42a.514.514 0 0 1 .278-.496.5.5 0 0 1 .192-.054l8.06-.89c.456-.019.906.103 1.29.35Z" fill="#263238"/><path opacity=".2" d="m83.914 337.918 7.14-.39-.33-8.7-7.13.39.32 8.7Z" fill="#000"/><path d="M96.563 344.778a.923.923 0 0 0 .11-.93.6.6 0 0 0-.44-.42c-.91-.25-2.79 1.35-3 1.54a.17.17 0 0 0 0 .18.191.191 0 0 0 .14.12 8.392 8.392 0 0 0 1.94 0c.462-.01.905-.183 1.25-.49Zm-2.8.2c.77-.58 1.91-1.36 2.39-1.22a.276.276 0 0 1 .21.22.588.588 0 0 1 0 .61c-.3.38-1.23.52-2.55.4l-.05-.01Z" fill="#407BFF"/><path d="M93.453 345.228c.68-.51 1.58-2.12 1.33-2.88a.63.63 0 0 0-.66-.44.867.867 0 0 0-.69.3c-.64.78-.22 2.84-.24 2.92a.168.168 0 0 0 .1.12h.08l.08-.02Zm.64-3c.24 0 .36.11.34.2a3.379 3.379 0 0 1-1 2.32 3.83 3.83 0 0 1 .22-2.34.487.487 0 0 1 .35-.18h.09Z" fill="#407BFF"/><path d="m27.244 321.718 7.07 1.49-5.15 16-7.06-1.5 5.14-15.99Z" fill="#F7978D"/><path d="M31.073 339.208c1.66 2 5.08 4.43 10.46 6.8 1.2.54.67 3.49-2.3 2.86-2.97-.63-8.82-2.1-11-2.56-3.48-.74-4.84-.85-7.61-1.38a1.269 1.269 0 0 1-.817-.551 1.287 1.287 0 0 1-.183-.969l1.71-6.2a.513.513 0 0 1 .429-.384.51.51 0 0 1 .201.014l7.93 1.68c.46.089.877.332 1.18.69Z" fill="#263238"/><path opacity=".2" d="m24.594 329.968 7.06 1.49 2.66-8.24-7.07-1.49-2.65 8.24Z" fill="#000"/><path d="M72.123 172.008s7.53 65.08 8.1 89.4c.53 22.41.15 72 .15 72l13-.6s5.41-46.08 7-68.66c1.42-20.68-3-86.81-3-86.81l-25.25-5.33Z" fill="#2ECC82"/><path opacity=".2" d="M75.213 197.688c1.17 13.47 2.74 30.79 4.18 45.28 3-8.39 4.8-29.48 1.25-42.42-2.16-7.86-4.11-6.13-5.43-2.86Z" fill="#000"/><path d="m78.254 330.818 16.77-1.27-.77 5.51-14.11 1.17-1.89-5.41Z" fill="#263238"/><path d="M57.414 174.528s-12.14 59.89-16.34 83.83c-3.86 22.08-19 68.91-19 68.91l12.94 2.74s21.43-47.37 27.38-69.24c5.43-20 19-81.19 19-81.19l-23.98-5.05Z" fill="#2ECC82"/><path d="m21.733 322.908 17.38 2.88-1.81 4.74-15.78-3.34.21-4.28Z" fill="#263238"/><path d="M33.543 340.218a.931.931 0 0 0 .39-.87.63.63 0 0 0-.28-.55c-.79-.51-3.08.43-3.34.53a.223.223 0 0 0-.1.16.153.153 0 0 0 .1.15 9.055 9.055 0 0 0 1.82.66c.465.139.964.111 1.41-.08Zm-2.68-.73c.93-.35 2.23-.7 2.61-.4a.338.338 0 0 1 .13.27.63.63 0 0 1-.24.56c-.41.26-1.35.1-2.55-.41l.05-.02Z" fill="#407BFF"/><path d="M30.473 339.648c.77-.29 2.2-1.52 2.2-2.29a.632.632 0 0 0-.49-.62.844.844 0 0 0-.74.08c-.86.54-1.12 2.6-1.14 2.69a.17.17 0 0 0 .05.15c.03.01.06.01.09 0a.107.107 0 0 0 .03-.01Zm1.56-2.65c.24.08.29.21.26.31 0 .53-.94 1.5-1.66 1.88a3.751 3.751 0 0 1 .94-2.14.475.475 0 0 1 .39-.07l.07.02Z" fill="#407BFF"/><path d="M33.673 187.888c1.69-1.68 1.93-3.52 3-5.47.71-1.33-.94-.81.71-.63a7.283 7.283 0 0 1 1.75.61c1.43.54 2.8 1.22 4.23 1.73 1.24.44 3.45.24 4.49.85 1.71 1 .07 5.41-.28 6.83-.42 1.72 2.2 2.61 2.63.88.61-2.48 2.2-6.91.28-9.24-1.18-1.44-3-1.15-4.66-1.47-3.1-.61-6.28-3.44-9.55-3.11a2.48 2.48 0 0 0-2.21 1.61c-.52 1.14-.21 2.41-.89 3.61a7.833 7.833 0 0 1-1.31 1.72c-1.26 1.25.56 3.35 1.83 2.08h-.02Z" fill="#fff"/><path d="m14.819 180.823 49.996 16.758a3.24 3.24 0 0 1 2.043 4.102l-8.969 26.757a5.591 5.591 0 0 1-7.076 3.523L5.3 216.709a5.587 5.587 0 0 1-3.524-7.077l8.969-26.757a3.238 3.238 0 0 1 4.101-2.042l-.028-.01Z" fill="#2ECC82"/><path d="m36.97 201.494-7.868 22.483.943.33 7.87-22.482-.944-.331Z" fill="#407BFF"/><path d="m36.97 201.494-7.868 22.483.943.33 7.87-22.482-.944-.331Z" fill="#000" opacity=".3"/><path opacity=".2" d="m63.953 200.838-50.46-16.91a2.992 2.992 0 0 0-2.292.157 3.01 3.01 0 0 0-1.508 1.733l-.34 1.05a8.428 8.428 0 0 0 5.32 10.68l40.13 13.45a8.449 8.449 0 0 0 10.69-5.32l.35-1a3 3 0 0 0-1.89-3.84Z" fill="#000"/><path d="m65.063 197.658-50.46-16.91a3.003 3.003 0 0 0-3.79 1.89l-.35 1.05a8.429 8.429 0 0 0 5.32 10.67l40.13 13.45a8.449 8.449 0 0 0 10.69-5.32l.35-1a2.998 2.998 0 0 0-1.89-3.83Z" fill="#407BFF"/><path d="m65.063 197.658-50.46-16.91a3.003 3.003 0 0 0-3.79 1.89l-.35 1.05a8.429 8.429 0 0 0 5.32 10.67l40.13 13.45a8.449 8.449 0 0 0 10.69-5.32l.35-1a2.998 2.998 0 0 0-1.89-3.83Z" fill="#263238"/><path d="m24.153 192.633-1.672-.563a1.956 1.956 0 0 0-2.476 1.229l-2.56 7.6a1.954 1.954 0 0 0 1.228 2.476l1.672.563a1.954 1.954 0 0 0 2.477-1.228l2.56-7.6a1.956 1.956 0 0 0-1.229-2.477Zm27.775 8.515-1.669-.559a1.95 1.95 0 0 0-2.468 1.23l-2.54 7.586a1.95 1.95 0 0 0 1.23 2.469l1.67.558a1.95 1.95 0 0 0 2.467-1.23l2.54-7.586a1.95 1.95 0 0 0-1.23-2.468Z" fill="#407BFF"/><path d="m24.153 192.633-1.672-.563a1.956 1.956 0 0 0-2.476 1.229l-2.56 7.6a1.954 1.954 0 0 0 1.228 2.476l1.672.563a1.954 1.954 0 0 0 2.477-1.228l2.56-7.6a1.956 1.956 0 0 0-1.229-2.477Zm27.775 8.515-1.669-.559a1.95 1.95 0 0 0-2.468 1.23l-2.54 7.586a1.95 1.95 0 0 0 1.23 2.469l1.67.558a1.95 1.95 0 0 0 2.467-1.23l2.54-7.586a1.95 1.95 0 0 0-1.23-2.468Z" fill="#fff"/><path d="M106.443 123.358c.45.89 1 1.95 1.54 2.93.54.98 1.1 2 1.67 3 1.14 1.95 2.31 3.88 3.56 5.7a57.657 57.657 0 0 0 3.88 5.09 17.25 17.25 0 0 0 3.92 3.51l.21.13h.08l.25.05a3.893 3.893 0 0 0 1.61-.38 19.502 19.502 0 0 0 4.72-3.16 47.47 47.47 0 0 0 4.71-4.59c.76-.83 1.53-1.67 2.26-2.54l2.12-2.59.13-.16a3.889 3.889 0 0 1 6.46 4.33 62.52 62.52 0 0 1-9 12.52 28.48 28.48 0 0 1-6.78 5.38c-1.613.9-3.38 1.49-5.21 1.74a10.907 10.907 0 0 1-3.32-.11 10.16 10.16 0 0 1-1.7-.45 3.488 3.488 0 0 1-.79-.31l-.59-.27a27.293 27.293 0 0 1-7.23-5.44 52.285 52.285 0 0 1-5.17-6.06c-1.55-2.07-3-4.17-4.31-6.32-.69-1.07-1.32-2.13-1.94-3.25-.62-1.12-1.21-2.17-1.84-3.42a6.026 6.026 0 0 1 10.75-5.45l.01.12Z" fill="#263238"/><path d="m140.313 133.438 5.67 2.06-.4-6.62s-5.89-2.09-6.68 1v1.48a2.174 2.174 0 0 0 1.41 2.08Zm11.501.49 1.2-5.65-7.42.6.39 6.62 5.83-1.57Z" fill="#F7978D"/><path opacity=".3" d="M108.123 146.518c-.67-.76-1.3-1.52-1.92-2.29a63.14 63.14 0 0 1-5.23-7.87 84.078 84.078 0 0 1-4.09-8.24 33.3 33.3 0 0 1-.49-1.2c3-1.81 9.48-.92 11.57 7.5a31.44 31.44 0 0 1 .16 12.1Z" fill="#000"/><path d="m95.134 182.518-37.72-8c.44-3.43 3.51-14.24 5.92-28.33a227.436 227.436 0 0 0 2.59-29.36v-.08a4.64 4.64 0 0 1 4.88-4.39h.08c2.35.15 5.27.41 8.11.87 5.41.827 10.769 1.962 16.05 3.4a41.874 41.874 0 0 1 5.09 2 7 7 0 0 1 4.21 5.82c.66 8.33.33 24.46-9.21 58.07Z" fill="#fff"/><path d="m90.374 122.118-1.08 2.16a.909.909 0 0 1-.83.6l-1.87-.16c-.27 0-.49-.24-.59-.59l-.76-2.59 2.8-1.74 2.33 2.32Z" fill="#25A368"/><path d="M78.583 112.618c-3-.48-6.07-.76-8.55-.92h-.23a4.849 4.849 0 0 0-5 4.69 238.807 238.807 0 0 1-2.72 31c-3.66 26.3-7.29 31.53-7.29 31.53l16.83 3.17c5.08-23.88 9-56.5 8.59-69.18l-1.63-.29Z" fill="#263238"/><path opacity=".3" d="M62.674 143.688c1.22-8.48 1.76-17.25 2-23.64.08-.088.166-.168.26-.24 2.12-1.8 7.38 2.52 6 10.58-1.42 7.67-5.14 12.28-8.26 13.3Z" fill="#000"/><path d="m97.963 187.988-10.16-2.72c6.38-44.75 7.87-56.65 6.44-69.19a71.171 71.171 0 0 1 7.43 2.39 8.194 8.194 0 0 1 4.58 6.63c.86 7.02-4.46 24.94-8.29 62.89Z" fill="#263238"/><path d="M86.264 169.538a2.13 2.13 0 0 1 2.87.95 2.151 2.151 0 0 1-3.65 2.23 2.152 2.152 0 0 1 .76-3.23l.02.05Z" fill="#263238"/><path d="M84.994 172.618a2.511 2.511 0 0 1 1.08-3.38 2.525 2.525 0 0 1 2.35-.029 2.531 2.531 0 0 1-.51 4.703 2.529 2.529 0 0 1-1.21.016 2.455 2.455 0 0 1-1.71-1.31Z" fill="#fff"/><path d="M88.293 119.858c-8.05-1.25-9.93-6.63-9.93-6.63 4.22-2.75 4.88-12.45 4.78-17.87l3.53 4.47 4.82 6.09c-.34.743-.63 1.508-.87 2.29-1 3.09-.78 6.16 3.65 8.25.01 0 .88 4.43-5.98 3.4Z" fill="#F7978D"/><path d="m76.854 112.288 2.65-.39a24.65 24.65 0 0 0 8.25 7.84 9.576 9.576 0 0 0-4.33 3.5c-7.86-4.67-6.57-10.95-6.57-10.95Z" fill="#fff"/><path d="m94.354 116.008-2.19-1s-1.92 4.56-4.42 4.73c3.77 2.46 4 4.63 4 4.63 6.33-.62 2.61-8.36 2.61-8.36Z" fill="#fff"/><path opacity=".2" d="m90.884 107.478-4.61-5.8c-.21.73-.34 1.481-.39 2.24-.15 2.29 2.24 5.2 4.33 6.12l.67-2.56Z" fill="#000"/><path d="M95.954 96.878s.25 3.61 4 2.23c.16-3.84 1.42-3.54 2.72-5.79a8.33 8.33 0 0 0 .5-8.52l-2.39-1.2c-9.32-2.89-4.83 13.28-4.83 13.28Z" fill="#263238"/><path opacity=".6" d="M95.954 96.878s.25 3.61 4 2.23c.16-3.84 1.42-3.54 2.72-5.79a8.33 8.33 0 0 0 .5-8.52l-2.39-1.2c-9.32-2.89-4.83 13.28-4.83 13.28Z" fill="#fff"/><path d="M86.214 82.358a9.46 9.46 0 0 1 13.35-.77c5.81 4.94 3.76 15.44.49 21.12a9.333 9.333 0 0 1-16.52-.35c-2.4-4.67-1.12-8.67.48-15.67a9.43 9.43 0 0 1 2.2-4.33Z" fill="#F7978D"/><path d="M82.873 93.048s.94 3.11 4.34 1.44c-.59-3.36.7-3.27 1.53-5.39a6.82 6.82 0 0 0-1.15-7.54l-2.57-.75c-12.22-1.17-2.15 12.24-2.15 12.24Z" fill="#263238"/><path opacity=".6" d="M82.873 93.048s.94 3.11 4.34 1.44c-.59-3.36.7-3.27 1.53-5.39a6.82 6.82 0 0 0-1.15-7.54l-2.57-.75c-12.22-1.17-2.15 12.24-2.15 12.24Z" fill="#fff"/><path d="M95.013 73.828a3.81 3.81 0 0 0-3.76.68c-.67.58-1.33 1.47-2.2 1.29a3.19 3.19 0 0 1-1.13-.7 4.16 4.16 0 0 0-4.8.48 14.321 14.321 0 0 0-3.13 4.09 9.4 9.4 0 0 1-3.46 3.74 10.92 10.92 0 0 0 8.92.22 5.8 5.8 0 0 1-3.13 2 12.14 12.14 0 0 0 8.51-.69c1.49-.71 2.87-1.74 4.49-2s3.64.6 3.79 2.25a1.58 1.58 0 0 1 2.21-.77 4.287 4.287 0 0 1 1.74 2 5.283 5.283 0 0 0 1.61 1.94 1.689 1.689 0 0 0 1.262.266 1.679 1.679 0 0 0 1.078-.706 2.478 2.478 0 0 1-2.29-2.3 4.28 4.28 0 0 0 2.89.47c-1.31-.09-3.85-4.73-4.25-6a5.936 5.936 0 0 0-2.07-3.25c-1.21-.83-2.44.62-3.59 0s-1.39-2.48-2.69-3.01Zm-1.619 25.26a4.558 4.558 0 0 1-1.64-3.11l2 .8c.84.33 3.29 1.36 2.74 2.71-.55 1.35-2.45.14-3.1-.4Z" fill="#263238"/><path d="M99.134 101.288a4.591 4.591 0 0 0 3.21-1.41l-2.09-.64c-.87-.27-3.42-1-3.83.4-.41 1.4 1.86 1.72 2.71 1.65Z" fill="#263238"/><path d="M96.363 98.978a3.3 3.3 0 0 0 2.75.37 21.53 21.53 0 0 1-1.23-5.66l-1.52 5.29Z" fill="#FF5652"/><path d="M83.283 88.198c1.7.58 2.36 3.42 2.28 5.21-.09 2-1.4 3.22-2.87 2a6.75 6.75 0 0 1-2.02-4.05c-.3-2 .91-3.73 2.61-3.16Z" fill="#F7978D"/><path d="M94.573 91.358c.36.12.51.73.35 1.23-.16.5-.58.86-.94.75-.36-.11-.47-.66-.35-1.23s.58-.87.94-.75Zm6.32 1.74c.36.13.52.67.35 1.23-.17.56-.59.92-.95.8s-.52-.68-.35-1.24c.17-.56.59-.91.95-.79Zm-5.17 9.01a.16.16 0 0 0 .2-.14.19.19 0 0 0-.14-.2 4.786 4.786 0 0 1-3.51-2.36.16.16 0 0 0-.22-.08.173.173 0 0 0-.088.098.172.172 0 0 0 .008.132 5 5 0 0 0 3.1 2.41c.21.06.44.08.65.14Zm4.95-11.41a.357.357 0 0 0 .21.24 2.887 2.887 0 0 1 1.85 1.73.34.34 0 0 0 .41.24.351.351 0 0 0 .24-.42 3.555 3.555 0 0 0-2.28-2.18.36.36 0 0 0-.44.21.604.604 0 0 0 .01.18Zm-7.291-1.79a.35.35 0 0 0 .31.07 2.9 2.9 0 0 1 2.52.22.33.33 0 0 0 .47-.06.36.36 0 0 0-.07-.48 3.56 3.56 0 0 0-3.14-.32.35.35 0 0 0-.21.44.36.36 0 0 0 .12.13Z" fill="#263238"/><path d="m39.323 175.928-1.3-.15c-3.05 1.48.27 7.13.27 7.13l9-1.09-2.62-3.06a8.31 8.31 0 0 0-5.35-2.83Z" fill="#F7978D"/><path d="m47.563 185.688-.29-3.89-9 1.1.51 4.61a1.214 1.214 0 0 0 0 .2 1.38 1.38 0 0 0 1.67 1l6.07-1.59a1.36 1.36 0 0 0 1.04-1.43Z" fill="#F7978D"/><path d="M91.764 159.608s-3.13 7.53-4.51 6.49-4.58-6.8-4.58-6.92c0-.12 3.91-34.46 3.91-34.46l1.87.16c-.78 3.85 3.31 34.73 3.31 34.73Z" fill="#25A368"/><path d="M40.213 140.998c-3.73 5.35-4.63 30.45-3.65 36.9a4.88 4.88 0 0 1 6.4-.8c.09-4.42 3.68-20.21 5.22-26.8a7.87 7.87 0 0 1 3.07-4.61c6.59-4.79 18.54-14.24 19.86-18 2.13-6 .3-18.3-5-14.52-5 3.6-22.92 23.56-25.9 27.83Z" fill="#263238"/><path d="M339.44 14.478c-.713-.173-1.411-.4-2.09-.68-1.26-.49-2.88-1.32-4.56-2.14a13.836 13.836 0 0 0-4.47-1.33c-1.19-.14-2 0-2.11-.32-.11-.32.59-.89 2-1.15a9.18 9.18 0 0 1 5.43.93 16.116 16.116 0 0 1 4.23 3.14c.99.92 1.57 1.55 1.57 1.55Z" fill="#2ECC82"/><path d="m346.779 8.568-1.52.59c-.9.37-2 .88-3.3 1.44-2.53 1.11-4.68 2.27-5 1.77-.17-.23.17-.8.89-1.51a11.202 11.202 0 0 1 3.32-2.17 7.621 7.621 0 0 1 4-.56c.409.05.811.145 1.2.28l.41.16Zm-20.959 10.31-.42-.25c-.26-.16-.64-.38-1.11-.64a26.02 26.02 0 0 0-3.7-1.61c-2.94-1-5.58-.82-5.66-1.27 0-.19.61-.53 1.74-.69a9.681 9.681 0 0 1 4.43.49 8.86 8.86 0 0 1 3.68 2.45c.297.334.561.696.79 1.08l.25.44Z" fill="#2ECC82"/><path d="m328.68 12.798-1 .61-2.35 1.32c-1.78 1-3.14 2.11-3.48 1.8-.16-.14 0-.61.45-1.23a7.107 7.107 0 0 1 2.28-1.94 5.997 5.997 0 0 1 2.91-.71c.401.002.8.052 1.19.15Zm-5.3-3.44s-1-.35-2.52-1-3.58-1.55-5.82-2.29a15.868 15.868 0 0 0-5.9-.82c-1.54.09-2.52.38-2.66.11-.14-.27.68-1 2.4-1.56a11.76 11.76 0 0 1 6.81.29 17.317 17.317 0 0 1 5.71 3.38c.697.59 1.358 1.222 1.98 1.89Z" fill="#2ECC82"/><path d="m330.139.748-.57.17c-.36.09-.88.24-1.49.44a40.257 40.257 0 0 0-4.52 1.78c-3.42 1.53-5.62 3.8-6.1 3.43-.21-.16.07-1 .94-2.08a12.123 12.123 0 0 1 4.28-3.24c1.654-.75 3.47-1.07 5.28-.93.54.043 1.076.134 1.6.27l.58.16ZM98.51 39.728a13.012 13.012 0 0 1-2.09-.68c-1.26-.49-2.87-1.32-4.56-2.13a13.528 13.528 0 0 0-4.46-1.34c-1.19-.13-2 0-2.11-.31-.11-.31.59-.89 2-1.16a9.19 9.19 0 0 1 5.43.93 16.765 16.765 0 0 1 4.23 3.14c.98.93 1.56 1.55 1.56 1.55Z" fill="#2ECC82"/><path d="m105.85 33.818-1.51.59c-.9.37-2 .89-3.3 1.44-2.53 1.11-4.69 2.27-5 1.77-.16-.23.17-.8.9-1.5a11.267 11.267 0 0 1 3.32-2.18 7.58 7.58 0 0 1 4-.56c.411.057.816.15 1.21.28l.38.16Zm-20.96 10.32-.41-.25c-.26-.17-.65-.39-1.12-.65a25.115 25.115 0 0 0-3.7-1.6c-2.94-1.06-5.57-.83-5.65-1.27 0-.2.6-.54 1.74-.7a9.911 9.911 0 0 1 4.42.49 8.71 8.71 0 0 1 3.68 2.48c.299.331.567.69.8 1.07l.24.43Z" fill="#2ECC82"/><path d="M87.78 38.048s-.42.26-1.06.61l-2.35 1.32c-1.77 1-3.14 2.11-3.48 1.81-.15-.15 0-.62.46-1.24a7.308 7.308 0 0 1 2.27-1.94 5.999 5.999 0 0 1 2.92-.7 5.37 5.37 0 0 1 1.24.14Z" fill="#2ECC82"/></svg>