<svg width="416" height="355" viewBox="0 0 416 355" fill="none" xmlns="http://www.w3.org/2000/svg">
<path d="M92.5998 82.8378C72.1398 93.4778 56.2398 111.358 43.6798 130.688C25.8898 158.218 13.8798 191.218 18.9598 223.598C24.0398 255.978 49.8898 286.358 82.5598 288.938C124.42 292.248 158.49 252.658 200.25 248.288C216.16 246.628 232.09 250.238 248.05 251.288C295.26 254.288 343.38 233.008 372.9 196.038C392.23 171.828 403.78 139.888 397.73 109.508C391.44 77.9278 366.48 51.8478 336.62 39.8078C306.76 27.7678 272.76 28.6178 241.81 37.4878C213.14 45.7078 190.27 61.4878 164.57 75.5978C154.21 81.3078 142.45 73.5978 130.86 73.4978C117.534 73.4329 104.397 76.6401 92.5998 82.8378Z" fill="#DEF7E5"/>
<path d="M119.42 15.6479L123.15 20.468H294.01L297.77 15.6479H119.42Z" fill="#0C884E"/>
<path d="M294.051 11.978H122.801V315.558H294.051V11.978Z" fill="#2F2F2F"/>
<g opacity="0.8">
<path d="M129.741 16.9076C129.807 17.349 129.777 17.7995 129.653 18.2283C129.529 18.6571 129.314 19.0541 129.023 19.3921C128.731 19.7301 128.37 20.0012 127.964 20.1869C127.558 20.3725 127.117 20.4682 126.671 20.4676C125.715 20.4279 124.805 20.0469 124.106 19.3938C123.407 18.7406 122.965 17.8586 122.861 16.9076C122.788 16.4641 122.813 16.01 122.934 15.577C123.054 15.144 123.267 14.7424 123.558 14.3999C123.849 14.0575 124.211 13.7824 124.619 13.5938C125.027 13.4052 125.471 13.3075 125.921 13.3076C126.885 13.3463 127.802 13.7319 128.504 14.3934C129.206 15.0549 129.645 15.9478 129.741 16.9076Z" fill="#7B7B7B"/>
<path d="M136.041 16.9076C136.102 17.3499 136.068 17.8002 135.941 18.2282C135.814 18.6562 135.597 19.0521 135.304 19.3893C135.012 19.7265 134.65 19.9972 134.244 20.1832C133.838 20.3692 133.397 20.4661 132.951 20.4676C131.999 20.4232 131.093 20.0402 130.398 19.3875C129.704 18.7348 129.265 17.8553 129.161 16.9076C129.095 16.4618 129.126 16.0069 129.251 15.574C129.376 15.1411 129.593 14.7402 129.888 14.3987C130.182 14.0572 130.546 13.7829 130.955 13.5947C131.365 13.4064 131.81 13.3085 132.261 13.3076C133.218 13.3556 134.125 13.7454 134.819 14.406C135.513 15.0667 135.946 15.9544 136.041 16.9076Z" fill="#7B7B7B"/>
<path d="M142.35 16.9076C142.405 17.3521 142.366 17.8032 142.234 18.2312C142.102 18.6592 141.881 19.0544 141.585 19.3908C141.289 19.7272 140.926 19.997 140.518 20.1826C140.11 20.3682 139.668 20.4654 139.22 20.4676C138.269 20.4324 137.363 20.0514 136.673 19.396C135.982 18.7406 135.555 17.8558 135.47 16.9076C135.407 16.4606 135.441 16.0054 135.569 15.5725C135.697 15.1396 135.916 14.7391 136.211 14.398C136.507 14.0569 136.872 13.7831 137.283 13.595C137.693 13.4069 138.139 13.3089 138.59 13.3076C139.55 13.3415 140.463 13.7271 141.156 14.391C141.85 15.0548 142.275 15.9506 142.35 16.9076Z" fill="#7B7B7B"/>
<path d="M148.682 16.9076C148.734 17.3532 148.691 17.8047 148.557 18.2327C148.423 18.6607 148.2 19.0556 147.902 19.3916C147.605 19.7275 147.24 19.997 146.832 20.1824C146.423 20.3678 145.98 20.465 145.532 20.4676C144.581 20.4362 143.676 20.0559 142.988 19.3993C142.3 18.7426 141.878 17.8557 141.802 16.9076C141.744 16.459 141.782 16.0031 141.913 15.5702C142.045 15.1374 142.267 14.7374 142.565 14.397C142.863 14.0565 143.229 13.7833 143.641 13.5955C144.053 13.4077 144.499 13.3095 144.952 13.3076C145.909 13.34 146.82 13.7259 147.509 14.3908C148.198 15.0557 148.616 15.9524 148.682 16.9076Z" fill="#7B7B7B"/>
<path d="M154.951 16.9076C154.999 17.3548 154.952 17.807 154.814 18.235C154.676 18.663 154.45 19.0574 154.151 19.3928C153.851 19.7282 153.485 19.9971 153.075 20.1822C152.665 20.3673 152.221 20.4645 151.771 20.4676C150.824 20.4355 149.922 20.0542 149.239 19.397C148.556 18.7397 148.14 17.8531 148.071 16.9076C148.018 16.4573 148.06 16.0008 148.195 15.568C148.33 15.1351 148.555 14.7357 148.856 14.3958C149.156 14.056 149.524 13.7834 149.937 13.5958C150.35 13.4083 150.798 13.3101 151.251 13.3076C152.206 13.3383 153.114 13.7246 153.799 14.3906C154.483 15.0566 154.894 15.9543 154.951 16.9076Z" fill="#7B7B7B"/>
<path d="M161.26 16.9076C161.303 17.3564 161.252 17.8092 161.111 18.2373C160.97 18.6653 160.741 19.0593 160.439 19.3941C160.137 19.7289 159.769 19.9973 159.357 20.1821C158.946 20.3669 158.501 20.4641 158.05 20.4676C157.105 20.4371 156.206 20.0555 155.527 19.3972C154.848 18.7389 154.439 17.8512 154.38 16.9076C154.331 16.4557 154.378 15.9986 154.516 15.5657C154.655 15.1328 154.883 14.7339 155.186 14.3946C155.488 14.0553 155.858 13.7833 156.273 13.5961C156.687 13.4088 157.136 13.3106 157.59 13.3076C158.542 13.3389 159.447 13.7262 160.126 14.3928C160.806 15.0595 161.211 15.9569 161.26 16.9076Z" fill="#7B7B7B"/>
<path d="M167.562 16.9076C167.6 17.358 167.545 17.8114 167.4 18.2395C167.255 18.6676 167.024 19.0612 166.719 19.3955C166.415 19.7297 166.045 19.9975 165.633 20.182C165.22 20.3665 164.774 20.4638 164.322 20.4676C163.379 20.4388 162.482 20.0569 161.807 19.3975C161.133 18.7381 160.731 17.8494 160.682 16.9076C160.637 16.4541 160.688 15.9963 160.83 15.5634C160.972 15.1305 161.203 14.732 161.508 14.3933C161.813 14.0546 162.185 13.7832 162.6 13.5962C163.016 13.4093 163.466 13.311 163.922 13.3076C164.872 13.3347 165.776 13.7216 166.452 14.3898C167.127 15.0581 167.524 15.958 167.562 16.9076Z" fill="#7B7B7B"/>
<path d="M173.861 16.9076C173.895 17.3587 173.836 17.812 173.688 18.2395C173.541 18.667 173.307 19.0597 173.001 19.3933C172.696 19.7269 172.325 19.9943 171.912 20.1791C171.499 20.3639 171.053 20.4621 170.601 20.4676C169.66 20.4385 168.765 20.0558 168.094 19.396C167.423 18.7361 167.025 17.8476 166.981 16.9076C166.942 16.4529 166.998 15.995 167.144 15.5627C167.29 15.1305 167.524 14.733 167.831 14.3951C168.138 14.0573 168.511 13.7864 168.928 13.5993C169.344 13.4121 169.794 13.3129 170.251 13.3076C171.198 13.3328 172.101 13.7198 172.772 14.3893C173.443 15.0588 173.833 15.9599 173.861 16.9076Z" fill="#7B7B7B"/>
<path d="M180.171 16.9076C180.2 17.3607 180.136 17.8149 179.984 18.2425C179.831 18.6701 179.593 19.0623 179.285 19.3953C178.976 19.7282 178.603 19.995 178.188 20.1793C177.773 20.3637 177.325 20.4617 176.871 20.4676C175.934 20.4402 175.042 20.057 174.377 19.3957C173.712 18.7345 173.324 17.8448 173.291 16.9076C173.256 16.4518 173.314 15.9936 173.463 15.5612C173.611 15.1289 173.847 14.7317 174.156 14.3942C174.464 14.0567 174.839 13.7861 175.256 13.5992C175.673 13.4123 176.124 13.3131 176.581 13.3076C177.527 13.333 178.427 13.7207 179.095 14.3907C179.763 15.0607 180.149 15.9617 180.171 16.9076Z" fill="#7B7B7B"/>
<path d="M186.471 16.9076C186.497 17.3617 186.43 17.8163 186.276 18.244C186.121 18.6717 185.881 19.0637 185.571 19.3963C185.261 19.729 184.887 19.9954 184.471 20.1795C184.055 20.3636 183.606 20.4616 183.151 20.4676C182.214 20.4448 181.322 20.0624 180.659 19.3996C179.996 18.7369 179.614 17.8446 179.591 16.9076C179.561 16.4506 179.625 15.9923 179.777 15.5605C179.93 15.1287 180.169 14.7324 180.479 14.3958C180.79 14.0591 181.165 13.789 181.583 13.602C182.002 13.4149 182.453 13.3148 182.911 13.3076C183.855 13.3308 184.753 13.7188 185.417 14.39C186.081 15.0613 186.459 15.9637 186.471 16.9076Z" fill="#7B7B7B"/>
<path d="M192.782 16.9076C192.802 17.3637 192.73 17.8192 192.571 18.2471C192.412 18.6749 192.168 19.0665 191.855 19.3985C191.542 19.7305 191.165 19.9962 190.747 20.1799C190.329 20.3635 189.878 20.4614 189.422 20.4676C188.489 20.4444 187.601 20.0607 186.944 19.3969C186.288 18.7332 185.914 17.841 185.902 16.9076C185.876 16.4491 185.943 15.9901 186.099 15.5582C186.256 15.1263 186.497 14.7304 186.81 14.3942C187.123 14.058 187.501 13.7885 187.92 13.6017C188.34 13.415 188.793 13.315 189.252 13.3076C190.193 13.331 191.088 13.72 191.747 14.392C192.406 15.0641 192.777 15.9664 192.782 16.9076Z" fill="#7B7B7B"/>
<path d="M199.081 16.9076C199.097 17.3644 199.022 17.8197 198.86 18.2471C198.698 18.6744 198.452 19.0652 198.138 19.3967C197.823 19.7281 197.446 19.9935 197.027 20.1774C196.609 20.3613 196.158 20.4599 195.701 20.4676C194.769 20.4468 193.882 20.0632 193.228 19.3984C192.574 18.7335 192.206 17.8399 192.201 16.9076C192.18 16.4476 192.251 15.988 192.41 15.5559C192.57 15.1239 192.814 14.7283 193.129 14.3925C193.445 14.0568 193.824 13.7878 194.245 13.6014C194.666 13.4151 195.121 13.3151 195.581 13.3076C196.52 13.3286 197.413 13.7178 198.068 14.3912C198.723 15.0646 199.086 15.9684 199.081 16.9076Z" fill="#7B7B7B"/>
<path d="M205.38 16.9076C205.392 17.3658 205.313 17.8218 205.148 18.2494C204.983 18.6769 204.734 19.0674 204.417 19.3984C204.1 19.7294 203.721 19.9943 203.301 20.1778C202.881 20.3614 202.428 20.4599 201.97 20.4676C201.041 20.4467 200.157 20.0621 199.508 19.3964C198.859 18.7308 198.497 17.8372 198.5 16.9076C198.484 16.4465 198.56 15.9867 198.723 15.5552C198.887 15.1236 199.134 14.7288 199.452 14.3938C199.769 14.0588 200.15 13.7902 200.572 13.6038C200.994 13.4173 201.449 13.3166 201.91 13.3076C202.846 13.3286 203.737 13.7188 204.386 14.3931C205.036 15.0674 205.394 15.9712 205.38 16.9076Z" fill="#7B7B7B"/>
<path d="M211.681 16.9076C211.65 17.5799 211.422 18.2282 211.026 18.7722C210.63 19.3163 210.083 19.7322 209.453 19.9685C208.823 20.2048 208.137 20.2511 207.481 20.1017C206.825 19.9523 206.227 19.6136 205.761 19.1277C205.295 18.6419 204.983 18.0301 204.861 17.3682C204.74 16.7062 204.815 16.0232 205.078 15.4037C205.341 14.7843 205.78 14.2555 206.34 13.8829C206.901 13.5103 207.558 13.3103 208.231 13.3076C208.695 13.3154 209.152 13.4149 209.577 13.6004C210.002 13.786 210.386 14.0538 210.706 14.3885C211.027 14.7233 211.278 15.1182 211.446 15.5506C211.613 15.9829 211.693 16.4442 211.681 16.9076Z" fill="#7B7B7B"/>
<path d="M217.991 16.9076C217.996 17.8379 217.635 18.733 216.986 19.3992C216.336 20.0654 215.451 20.4492 214.521 20.4676C214.062 20.4599 213.61 20.3614 213.19 20.1778C212.77 19.9943 212.391 19.7294 212.073 19.3984C211.756 19.0674 211.508 18.6769 211.343 18.2494C211.178 17.8218 211.099 17.3658 211.111 16.9076C211.097 15.9712 211.454 15.0674 212.104 14.3931C212.754 13.7188 213.644 13.3286 214.581 13.3076C215.042 13.3166 215.497 13.4173 215.919 13.6038C216.341 13.7902 216.722 14.0588 217.039 14.3938C217.356 14.7288 217.604 15.1236 217.767 15.5552C217.931 15.9867 218.007 16.4465 217.991 16.9076Z" fill="#7B7B7B"/>
<path d="M224.29 16.9076C224.288 17.839 223.921 18.7326 223.269 19.3977C222.617 20.0628 221.731 20.4468 220.8 20.4676C220.343 20.4599 219.891 20.3613 219.472 20.1775C219.053 19.9938 218.675 19.7285 218.36 19.3972C218.044 19.066 217.798 18.6752 217.635 18.2478C217.472 17.8204 217.395 17.3648 217.41 16.9076C217.404 15.9684 217.768 15.0646 218.423 14.3912C219.078 13.7178 219.971 13.3286 220.91 13.3076C221.37 13.3151 221.825 13.4151 222.246 13.6014C222.667 13.7878 223.046 14.0568 223.362 14.3925C223.677 14.7283 223.921 15.1239 224.081 15.5559C224.24 15.988 224.311 16.4476 224.29 16.9076Z" fill="#7B7B7B"/>
<path d="M230.6 16.9076C230.587 17.8427 230.212 18.7363 229.554 19.4003C228.895 20.0644 228.005 20.447 227.07 20.4676C226.614 20.46 226.165 20.3612 225.748 20.177C225.331 19.9928 224.956 19.7268 224.643 19.395C224.331 19.0631 224.089 18.672 223.93 18.2448C223.771 17.8176 223.7 17.3629 223.72 16.9076C223.722 15.9673 224.092 15.065 224.749 14.3927C225.406 13.7204 226.3 13.3311 227.24 13.3076C227.7 13.315 228.153 13.415 228.573 13.6016C228.993 13.7882 229.371 14.0576 229.685 14.3936C229.999 14.7297 230.241 15.1255 230.399 15.5574C230.556 15.9894 230.624 16.4486 230.6 16.9076Z" fill="#7B7B7B"/>
<path d="M236.9 16.9076C236.878 17.8429 236.497 18.7338 235.836 19.3963C235.175 20.0588 234.286 20.4423 233.35 20.4676C232.895 20.4615 232.446 20.3636 232.03 20.1796C231.613 19.9956 231.238 19.7293 230.927 19.3969C230.616 19.0644 230.376 18.6725 230.22 18.2448C230.064 17.817 229.996 17.3622 230.02 16.9076C230.033 15.9653 230.41 15.0644 231.071 14.3934C231.733 13.7224 232.628 13.3334 233.57 13.3076C234.029 13.3134 234.482 13.4126 234.901 13.5991C235.32 13.7855 235.697 14.0554 236.009 14.3922C236.32 14.729 236.56 15.1257 236.713 15.5582C236.867 15.9906 236.93 16.4498 236.9 16.9076Z" fill="#7B7B7B"/>
<path d="M243.201 16.9076C243.174 17.8447 242.788 18.7357 242.125 19.3977C241.461 20.0596 240.569 20.4425 239.631 20.4676C239.177 20.4632 238.728 20.366 238.313 20.1822C237.897 19.9983 237.524 19.7316 237.215 19.3984C236.906 19.0651 236.668 18.6723 236.516 18.2441C236.364 17.8158 236.302 17.361 236.331 16.9076C236.349 15.9618 236.732 15.0594 237.399 14.3887C238.066 13.7179 238.966 13.3306 239.911 13.3076C240.368 13.3145 240.819 13.4148 241.235 13.6021C241.652 13.7895 242.026 14.0601 242.334 14.3973C242.642 14.7345 242.878 15.1311 243.027 15.5628C243.176 15.9945 243.236 16.4521 243.201 16.9076Z" fill="#7B7B7B"/>
<path d="M249.511 16.9076C249.47 17.8475 249.076 18.7373 248.406 19.3979C247.736 20.0584 246.841 20.4407 245.901 20.4676C245.447 20.4634 245 20.3662 244.586 20.1821C244.172 19.9979 243.8 19.7306 243.493 19.3969C243.187 19.0631 242.952 18.67 242.804 18.2418C242.655 17.8136 242.596 17.3595 242.631 16.9076C242.658 15.9599 243.048 15.0588 243.719 14.3893C244.391 13.7198 245.293 13.3328 246.241 13.3076C246.697 13.3129 247.147 13.4121 247.564 13.5993C247.98 13.7864 248.353 14.0573 248.66 14.3951C248.967 14.733 249.201 15.1305 249.347 15.5627C249.493 15.995 249.549 16.4529 249.511 16.9076Z" fill="#7B7B7B"/>
<path d="M255.811 16.9076C255.766 17.8493 255.367 18.7392 254.694 19.3993C254.021 20.0594 253.123 20.441 252.181 20.4676C251.729 20.4636 251.282 20.3664 250.869 20.182C250.456 19.9976 250.085 19.73 249.78 19.3959C249.475 19.0618 249.242 18.6684 249.096 18.2403C248.95 17.8121 248.894 17.3585 248.931 16.9076C248.969 15.958 249.365 15.0581 250.041 14.3898C250.717 13.7216 251.621 13.3347 252.571 13.3076C253.027 13.311 253.477 13.4093 253.892 13.5962C254.308 13.7832 254.68 14.0546 254.985 14.3933C255.29 14.732 255.52 15.1305 255.663 15.5634C255.805 15.9963 255.856 16.4541 255.811 16.9076Z" fill="#7B7B7B"/>
<path d="M262.121 16.9076C262.062 17.8512 261.653 18.7389 260.975 19.3972C260.296 20.0555 259.396 20.4371 258.451 20.4676C258.001 20.4641 257.555 20.3669 257.144 20.1821C256.733 19.9973 256.365 19.7289 256.063 19.3941C255.761 19.0593 255.532 18.6653 255.391 18.2373C255.249 17.8092 255.198 17.3564 255.241 16.9076C255.286 15.957 255.688 15.0583 256.367 14.391C257.045 13.7236 257.95 13.3368 258.901 13.3076C259.356 13.3107 259.806 13.409 260.22 13.5961C260.635 13.7833 261.006 14.0551 261.309 14.3942C261.612 14.7333 261.841 15.1321 261.981 15.5649C262.121 15.9978 262.169 16.4552 262.121 16.9076Z" fill="#7B7B7B"/>
<path d="M268.42 16.9076C268.354 17.8522 267.94 18.7387 267.259 19.3962C266.578 20.0536 265.677 20.4353 264.73 20.4676C264.28 20.4644 263.836 20.3672 263.426 20.1822C263.015 19.9971 262.648 19.7284 262.348 19.3932C262.048 19.058 261.821 18.6638 261.682 18.2357C261.542 17.8077 261.494 17.3553 261.54 16.9076C261.597 15.9543 262.008 15.0566 262.693 14.3906C263.377 13.7246 264.286 13.3383 265.24 13.3076C265.693 13.3116 266.14 13.4109 266.552 13.599C266.965 13.787 267.333 14.0596 267.632 14.3991C267.932 14.7386 268.157 15.1374 268.293 15.5696C268.429 16.0017 268.472 16.4576 268.42 16.9076Z" fill="#7B7B7B"/>
<path d="M274.682 16.9076C274.608 17.8548 274.188 18.7417 273.502 19.3985C272.816 20.0553 271.911 20.436 270.962 20.4676C270.513 20.4649 270.069 20.3677 269.66 20.1823C269.251 19.997 268.886 19.7277 268.588 19.392C268.29 19.0562 268.066 18.6615 267.93 18.2335C267.795 17.8055 267.751 17.3537 267.802 16.9076C267.868 15.9524 268.286 15.0557 268.975 14.3908C269.664 13.7259 270.575 13.34 271.532 13.3076C271.984 13.3095 272.431 13.4077 272.842 13.5955C273.254 13.7833 273.621 14.0565 273.919 14.397C274.217 14.7374 274.439 15.1374 274.57 15.5702C274.702 16.0031 274.74 16.459 274.682 16.9076Z" fill="#7B7B7B"/>
<path d="M281.03 16.9076C280.946 17.8558 280.518 18.7406 279.828 19.396C279.137 20.0514 278.232 20.4324 277.28 20.4676C276.832 20.467 276.389 20.3709 275.981 20.1858C275.572 20.0007 275.208 19.7309 274.912 19.3942C274.616 19.0574 274.395 18.6616 274.263 18.2328C274.132 17.8041 274.094 17.3524 274.15 16.9076C274.224 15.9515 274.646 15.0558 275.338 14.3917C276.03 13.7277 276.942 13.3417 277.9 13.3076C278.352 13.3091 278.798 13.4072 279.209 13.5952C279.62 13.7832 279.986 14.0568 280.282 14.3977C280.578 14.7386 280.798 15.1389 280.928 15.5717C281.057 16.0046 281.092 16.4601 281.03 16.9076Z" fill="#7B7B7B"/>
<path d="M287.33 16.9076C287.227 17.8537 286.789 18.7318 286.096 19.3843C285.403 20.0368 284.501 20.4209 283.55 20.4676C283.103 20.4659 282.662 20.3689 282.256 20.183C281.849 19.9971 281.487 19.7267 281.194 19.3897C280.9 19.0527 280.682 18.657 280.554 18.229C280.426 17.8009 280.39 17.3504 280.45 16.9076C280.532 15.9497 280.962 15.0549 281.658 14.3918C282.355 13.7288 283.269 13.3431 284.23 13.3076C284.681 13.3085 285.126 13.4064 285.536 13.5947C285.945 13.7829 286.309 14.0572 286.603 14.3987C286.897 14.7402 287.115 15.1411 287.24 15.574C287.365 16.0069 287.396 16.4618 287.33 16.9076Z" fill="#7B7B7B"/>
<path d="M293.681 16.9076C293.577 17.8569 293.136 18.7377 292.439 19.3906C291.742 20.0435 290.835 20.4256 289.881 20.4676C289.435 20.4664 288.994 20.3694 288.588 20.1834C288.183 19.9973 287.822 19.7264 287.53 19.389C287.238 19.0516 287.022 18.6555 286.896 18.2274C286.77 17.7994 286.738 17.3493 286.801 16.9076C286.896 15.9495 287.334 15.0579 288.034 14.3966C288.734 13.7353 289.649 13.3486 290.611 13.3076C291.06 13.3078 291.505 13.4055 291.913 13.594C292.322 13.7825 292.684 14.0574 292.976 14.3996C293.268 14.7418 293.482 15.1433 293.604 15.5763C293.725 16.0093 293.752 16.4635 293.681 16.9076Z" fill="#7B7B7B"/>
</g>
<path d="M119.41 10.7676H297.78L297.77 15.6476H119.42L119.41 10.7676Z" fill="#2ECC82"/>
<path d="M119.4 5.8877L123.12 10.7677H294.03L297.79 5.8877H119.4Z" fill="#0C884E"/>
<path d="M119.381 0.987793H297.801L297.791 5.88779H119.401L119.381 0.987793Z" fill="#2ECC82"/>
<path d="M123.111 5.8877H294.041L294.031 10.7677H123.121L123.111 5.8877Z" fill="#407BFF"/>
<g opacity="0.8">
<path d="M123.111 5.8877H294.041L294.031 10.7677H123.121L123.111 5.8877Z" fill="white"/>
</g>
<g opacity="0.7">
<path d="M294.092 106.838H122.852V108.988H294.092V106.838Z" fill="white"/>
</g>
<g opacity="0.8">
<path d="M294.081 213.538H123.201V215.678H294.081V213.538Z" fill="white"/>
</g>
<path d="M179.512 29.8076H158.342V52.6776H179.512V29.8076Z" fill="#2ECC82"/>
<path d="M220.17 29.8076H199V52.6776H220.17V29.8076Z" fill="#2ECC82"/>
<path d="M260.83 29.8076H239.66V52.6776H260.83V29.8076Z" fill="#2ECC82"/>
<path d="M179.512 64.0576H158.342V86.9276H179.512V64.0576Z" fill="#2ECC82"/>
<path d="M220.17 64.0576H199V86.9276H220.17V64.0576Z" fill="#2ECC82"/>
<path d="M260.83 64.0576H239.66V86.9276H260.83V64.0576Z" fill="#2ECC82"/>
<path d="M179.512 230.008H158.342V252.878H179.512V230.008Z" fill="#2ECC82"/>
<path d="M220.17 230.008H199V252.878H220.17V230.008Z" fill="#2ECC82"/>
<path d="M260.83 230.008H239.66V252.878H260.83V230.008Z" fill="#2ECC82"/>
<path d="M156.83 278.158H135.66V301.028H156.83V278.158Z" fill="#2ECC82"/>
<path d="M281.211 278.158H260.041V301.028H281.211V278.158Z" fill="#2ECC82"/>
<path d="M179.512 127.008H158.342V149.878H179.512V127.008Z" fill="#2ECC82"/>
<path d="M220.17 127.008H199V149.878H220.17V127.008Z" fill="#2ECC82"/>
<path d="M260.83 127.008H239.66V149.878H260.83V127.008Z" fill="#2ECC82"/>
<path d="M179.512 161.248H158.342V184.118H179.512V161.248Z" fill="#2ECC82"/>
<path d="M220.17 161.248H199V184.118H220.17V161.248Z" fill="#2ECC82"/>
<path d="M260.83 161.248H239.66V184.118H260.83V161.248Z" fill="#2ECC82"/>
<g opacity="0.8">
<path d="M183.941 280.848H205.851L205.761 303.598H183.791L183.941 280.848Z" fill="white"/>
</g>
<g opacity="0.8">
<path d="M210.082 280.848H232.892L231.812 303.598H209.842L210.082 280.848Z" fill="white"/>
</g>
<path d="M236.382 308.178H178.572L178.342 303.598H236.602L236.382 308.178Z" fill="#263238"/>
<path d="M238.711 313.018H176.531L176.281 308.498H238.941L238.711 313.018Z" fill="#2ECC82"/>
<g opacity="0.4">
<path d="M240.771 272.788H174.311L174.021 267.628H241.031L240.771 272.788Z" fill="white"/>
</g>
<path d="M174.311 272.788L183.941 280.848H232.891L240.771 272.788H174.311Z" fill="#263238"/>
<path d="M178.811 276.558L182.201 303.558H184.911L183.821 276.558C183.049 276.155 182.191 275.945 181.321 275.945C180.45 275.945 179.592 276.155 178.821 276.558H178.811Z" fill="#2ECC82"/>
<path d="M237.2 276.558L233.87 303.558H231.17L232.17 276.558C232.911 276.066 233.781 275.804 234.67 275.804C235.559 275.804 236.429 276.066 237.17 276.558H237.2Z" fill="#2ECC82"/>
<path d="M320.77 162.148C315.39 169.398 313.32 172.718 311.23 174.778C308.97 177.008 285.79 175.308 282.99 174.138C280.84 173.228 282.32 170.448 283.34 170.588C287.15 171.118 301.49 168.588 305.74 166.748C306.49 166.428 313.74 157.598 313.74 157.598L320.77 162.148Z" fill="#FFB573"/>
<path d="M311.939 157.358C316.489 149.028 325.439 142.908 328.149 142.568C332.039 142.058 333.359 142.828 332.209 145.968C330.269 151.288 326.699 156.898 321.669 163.678L311.939 157.358Z" fill="#11A962"/>
<path d="M328.15 142.578C330.341 141.779 332.579 141.111 334.85 140.578C338.995 139.587 343.206 138.892 347.45 138.498C350.14 138.198 352.79 138.108 354.9 138.088C355.152 138.09 355.403 138.117 355.65 138.168C356.585 138.406 357.392 138.995 357.905 139.812C358.417 140.63 358.594 141.613 358.4 142.558C354.23 164.558 354.03 174.378 354.63 185.738L329.25 186.648C328.926 186.648 328.613 186.534 328.366 186.325C328.119 186.116 327.954 185.827 327.9 185.508C326.78 179.778 323.26 167.068 323.26 167.068C320.09 164.068 319.57 160.258 319.26 158.068C319.09 156.878 321.75 155.598 324.63 149.288C324.62 149.278 326.84 143.048 328.15 142.578Z" fill="#11A962"/>
<path d="M344.191 186.088L334.931 186.428C333.551 175.428 333.821 165.708 334.291 154.778C337.045 165.38 340.35 175.831 344.191 186.088Z" fill="#263238"/>
<path d="M346.87 270.678C346.64 270.168 346.4 269.678 346.18 269.108C336.18 245.258 328.57 197.058 328.57 197.058L346.37 187.978C346.37 187.978 351.44 230.348 358.37 257.918C359.44 262.118 360.53 265.968 361.65 269.248L349.51 274.828L346.87 270.678Z" fill="#FFB573"/>
<g opacity="0.8">
<path d="M346.87 270.678C346.64 270.168 346.4 269.678 346.18 269.108C336.18 245.258 328.57 197.058 328.57 197.058L346.37 187.978C346.37 187.978 351.44 230.348 358.37 257.918C359.44 262.118 360.53 265.968 361.65 269.248L349.51 274.828L346.87 270.678Z" fill="#263238"/>
</g>
<path d="M329.891 190.798C329.891 190.798 321.751 247.798 323.681 271.118C325.681 295.678 332.981 337.758 332.981 337.758L338.981 337.348C341.024 315.405 340.528 293.298 337.501 271.468C351.241 236.078 352.781 191.698 352.781 191.698L329.891 190.798Z" fill="#FFB573"/>
<path opacity="0.8" d="M329.891 190.798C329.891 190.798 321.751 247.798 323.681 271.118C325.681 295.678 332.981 337.758 332.981 337.758L338.981 337.348C341.024 315.405 340.528 293.298 337.501 271.468C351.241 236.078 352.781 191.698 352.781 191.698L329.891 190.798Z" fill="#263238"/>
<path d="M339.751 339.218C340.17 340.015 340.403 340.898 340.431 341.798C340.591 345.098 340.821 353.858 340.821 353.858L340.091 353.908C340.091 353.908 339.651 349.608 339.161 347.458C338.671 345.308 338.331 347.168 337.231 349.458C336.131 351.748 333.041 354.218 328.341 354.658C322.821 355.178 320.571 355.068 322.091 353.528C323.611 351.988 327.211 350.818 327.211 350.818C327.211 350.818 332.001 342.598 331.731 337.068C331.431 331.158 338.251 336.708 339.581 335.878C340.041 335.998 339.491 338.738 339.751 339.218Z" fill="#263238"/>
<path d="M358.78 259.998C355.28 260.758 352.19 263.318 343.01 264.248H342.46C342.08 264.288 341.68 264.318 341.26 264.338C338.79 264.478 324.71 263.818 322.09 262.338C324.37 238.878 328.84 189.058 328.84 189.058L339.6 187.748L353.46 187.328C353.46 187.328 368.76 203.128 365.25 217.458C359.99 238.898 362.62 242.238 358.78 259.998Z" fill="#263238"/>
<path d="M354.5 174.458C354.128 174.092 353.845 173.646 353.672 173.154C353.499 172.662 353.44 172.136 353.5 171.618C353.5 171.618 353.5 170.048 353.44 167.618C353.36 160.618 353.3 146.618 354.04 144.748C355.64 140.748 358.37 138.558 359.81 140.908C361.48 143.648 361.61 164.428 361.61 164.428C361.17 178.208 356.14 176.358 354.5 174.458Z" fill="#FFB573"/>
<path d="M351.17 137.668L350.33 139.188C347.09 145.068 339.59 152.628 336.65 153.378C335.97 151.788 334.917 150.385 333.58 149.288C332.802 149.676 332.111 150.218 331.548 150.882C330.986 151.545 330.565 152.316 330.31 153.148C328.323 149.556 327.742 145.354 328.68 141.358C330.16 140.908 331.68 140.458 333.24 140.088C337.388 139.128 341.599 138.459 345.84 138.088C347.606 137.837 349.387 137.697 351.17 137.668Z" fill="#263238"/>
<path opacity="0.8" d="M351.171 137.668L350.331 139.188C347.091 145.068 339.591 152.628 336.651 153.378C336.104 151.959 335.639 150.51 335.261 149.038C333.691 149.808 332.541 152.038 332.021 153.718C329.501 149.628 328.021 143.908 328.651 141.348C330.131 140.898 331.651 140.448 333.211 140.078C337.359 139.118 341.569 138.449 345.811 138.078C347.587 137.829 349.377 137.692 351.171 137.668Z" fill="white"/>
<path d="M331.859 166.278L328.389 161.568L325.279 167.728C325.279 167.728 328.459 169.498 331.089 168.908L331.859 166.278Z" fill="#FFB573"/>
<path d="M322.88 160.108L321.4 165.088L325.28 167.698L328.39 161.568L322.88 160.108Z" fill="#FFB573"/>
<path d="M354.611 188.638L341.751 188.978H340.681L337.901 189.048H336.831L329.291 189.248C329.051 189.248 328.851 189.138 328.841 188.988L328.541 186.568C328.541 186.398 328.721 186.248 328.981 186.238L336.441 185.948H337.341L341.031 185.808H341.901L354.271 185.318C354.356 185.309 354.442 185.321 354.521 185.354C354.6 185.388 354.669 185.44 354.721 185.508L355.031 188.258C355.131 188.428 354.911 188.628 354.611 188.638Z" fill="#407BFF"/>
<path opacity="0.2" d="M354.611 188.638L341.751 188.978H340.681L337.901 189.048H336.831L329.291 189.248C329.051 189.248 328.851 189.138 328.841 188.988L328.541 186.568C328.541 186.398 328.721 186.248 328.981 186.238L336.441 185.948H337.341L341.031 185.808H341.901L354.271 185.318C354.356 185.309 354.442 185.321 354.521 185.354C354.6 185.388 354.669 185.44 354.721 185.508L355.031 188.258C355.131 188.428 354.911 188.628 354.611 188.638Z" fill="white"/>
<path d="M332.841 189.538H333.671C333.702 189.545 333.735 189.546 333.767 189.539C333.799 189.533 333.829 189.52 333.856 189.501C333.882 189.482 333.904 189.458 333.921 189.43C333.937 189.402 333.947 189.371 333.951 189.338L333.491 185.908C333.491 185.808 333.331 185.718 333.161 185.718H332.331C332.299 185.711 332.266 185.711 332.234 185.717C332.202 185.723 332.172 185.736 332.146 185.755C332.119 185.774 332.097 185.798 332.081 185.827C332.064 185.855 332.054 185.886 332.051 185.918L332.511 189.348C332.538 189.411 332.585 189.463 332.644 189.498C332.704 189.532 332.773 189.546 332.841 189.538Z" fill="#263238"/>
<path d="M347.159 189.358H347.949C347.979 189.366 348.01 189.366 348.04 189.36C348.07 189.354 348.099 189.342 348.124 189.324C348.148 189.306 348.169 189.282 348.184 189.255C348.199 189.229 348.207 189.199 348.209 189.168L347.749 185.718C347.749 185.628 347.589 185.538 347.439 185.548H346.649C346.489 185.548 346.379 185.638 346.389 185.738L346.849 189.168C346.872 189.23 346.914 189.283 346.971 189.318C347.027 189.352 347.094 189.367 347.159 189.358Z" fill="#263238"/>
<path d="M350.25 205.629L348.25 204.919L357.16 178.289C358.57 174.049 358.03 170.019 352.79 168.169C347.88 166.429 344.02 168.909 342.59 173.169L333.59 199.719L331.59 199.009L340.59 172.469C342.25 167.559 345.45 164.229 353.17 166.959C360.89 169.689 360.73 174.099 359.09 179.019L350.25 205.629Z" fill="#141414"/>
<path d="M356.449 220.558L317.449 206.558L326.299 180.738C326.494 180.14 326.807 179.587 327.218 179.112C327.629 178.636 328.131 178.247 328.694 177.968C329.258 177.689 329.871 177.524 330.499 177.485C331.126 177.445 331.755 177.531 332.349 177.738L360.769 187.838C362.326 188.408 363.599 189.563 364.318 191.057C365.036 192.551 365.145 194.266 364.619 195.838L356.449 220.558Z" fill="#2ECC82"/>
<g opacity="0.3">
<path d="M350.22 205.629L348.65 206.999L348.23 204.919L357.14 178.289C358.55 174.049 358.01 170.019 352.77 168.169C347.86 166.429 344 168.909 342.57 173.169L333.57 199.719L331.95 201.059L331.59 199.009L340.59 172.469C342.25 167.559 345.45 164.229 353.17 166.959C360.89 169.689 360.73 174.099 359.09 179.019L350.22 205.629Z" fill="#141414"/>
</g>
<path d="M338.83 188.108L335.58 186.948L335.99 185.718L339.24 186.878L338.83 188.108Z" fill="#2F2F2F"/>
<path d="M336.129 196.088L332.869 194.928L333.289 193.688L336.539 194.858L336.129 196.088Z" fill="#2F2F2F"/>
<path d="M355.539 194.068L352.279 192.898L352.689 191.668L355.949 192.828L355.539 194.068Z" fill="#2F2F2F"/>
<path d="M352.87 202.078L349.6 200.908L350.01 199.668L353.28 200.828L352.87 202.078Z" fill="#2F2F2F"/>
<path d="M349.089 192.548L342.109 190.068L342.989 187.428L349.969 189.918L349.089 192.548Z" fill="white"/>
<path d="M357.501 175.698C354.381 177.488 341.711 175.458 331.011 169.018C330.622 168.859 330.221 168.732 329.811 168.638C329.151 168.138 330.811 167.018 331.811 166.498C332.361 166.208 356.001 169.198 357.631 169.428C359.471 174.238 357.811 174.178 357.501 175.698Z" fill="#FFB573"/>
<path d="M347.41 272.608C349.14 277.518 354.91 279.678 358.94 276.608C359.11 276.478 359.27 276.348 359.42 276.208C376.91 260.008 399.17 236.398 399.17 236.398L395.42 231.648C382.29 239.239 369.888 248.022 358.37 257.888C354.37 261.328 350.23 265.068 346.18 269.078L347.41 272.608Z" fill="#FFB573"/>
<path opacity="0.8" d="M347.41 272.608C349.14 277.518 354.91 279.678 358.94 276.608C359.11 276.478 359.27 276.348 359.42 276.208C376.91 260.008 399.17 236.398 399.17 236.398L395.42 231.648C382.29 239.239 369.888 248.022 358.37 257.888C354.37 261.328 350.23 265.068 346.18 269.078L347.41 272.608Z" fill="#263238"/>
<path d="M393.161 232.248C393.4 231.447 393.837 230.718 394.431 230.128C396.531 227.938 402.211 222.298 402.211 222.298L402.731 222.808C402.731 222.808 400.171 225.808 399.061 227.518C397.951 229.228 399.411 228.328 401.711 227.678C404.011 227.028 407.651 227.818 411.081 231.038C415.081 234.828 416.541 236.568 414.511 236.408C412.481 236.248 409.291 234.288 409.291 234.288C409.291 234.288 400.611 235.888 397.091 239.598C393.321 243.598 392.501 234.928 391.091 234.458C390.801 234.068 393.011 232.748 393.161 232.248Z" fill="#263238"/>
<path d="M333.09 136.948C334.98 139.178 336.44 141.888 333.93 145.198C333.382 145.888 333.092 146.748 333.11 147.628C333.18 149.048 334.11 150.358 338.43 147.348C344.73 142.988 343.88 138.618 343.88 138.618C340.35 137.798 337.79 130.618 336.71 126.548L333.09 136.948Z" fill="#FFB573"/>
<path opacity="0.2" d="M336.77 132.818C337.4 134.558 335.77 137.518 334.38 138.738C334.009 138.1 333.581 137.497 333.1 136.938L335.24 130.788C335.889 131.348 336.41 132.04 336.77 132.818Z" fill="black"/>
<path d="M318.061 117.858C316.381 124.378 318.891 131.548 323.501 136.468C328.161 131.358 336.971 132.468 341.871 127.588C345.141 124.348 345.751 118.898 343.721 114.768C341.531 110.298 335.091 106.008 330.021 106.708C324.321 107.498 319.471 112.358 318.061 117.858Z" fill="#263238"/>
<path d="M337.471 115.628C336.794 114.633 335.928 113.781 334.921 113.121C333.914 112.461 332.787 112.007 331.604 111.784C330.421 111.561 329.206 111.574 328.028 111.821C326.85 112.069 325.733 112.547 324.741 113.228C318.821 117.228 319.931 127.228 322.561 132.868C325.471 139.198 333.931 139.448 337.891 133.248C340.541 129.118 339.971 126.298 338.991 119.598C338.8 118.175 338.279 116.815 337.471 115.628Z" fill="#FFB573"/>
<path d="M325.91 129.638C325.597 129.783 325.255 129.857 324.91 129.857C324.565 129.857 324.224 129.783 323.91 129.638C324.488 128.417 324.892 127.121 325.11 125.788L325.91 129.638Z" fill="#ED893E"/>
<path d="M331.039 129.058C331.054 129.017 331.052 128.972 331.036 128.931C331.019 128.891 330.989 128.858 330.949 128.838C330.929 128.831 330.907 128.827 330.886 128.828C330.864 128.829 330.843 128.834 330.823 128.843C330.803 128.853 330.786 128.866 330.771 128.882C330.757 128.899 330.746 128.918 330.739 128.938C330.446 129.558 330.009 130.099 329.464 130.516C328.92 130.934 328.284 131.216 327.609 131.338C327.571 131.352 327.538 131.378 327.516 131.412C327.494 131.447 327.485 131.488 327.489 131.528C327.493 131.548 327.5 131.567 327.512 131.584C327.523 131.601 327.537 131.616 327.554 131.627C327.571 131.638 327.59 131.646 327.609 131.649C327.629 131.653 327.65 131.653 327.669 131.648C327.925 131.598 328.175 131.528 328.419 131.438C328.991 131.234 329.517 130.918 329.967 130.51C330.417 130.101 330.781 129.608 331.039 129.058Z" fill="#263238"/>
<path d="M326.291 110.178C325.753 111.022 325.411 111.975 325.291 112.968C333.101 114.778 338.861 122.968 341.071 130.738C343.191 127.968 347.331 124.568 348.931 121.228C350.731 117.478 348.331 113.178 344.731 111.118C341.545 109.543 338.233 108.236 334.831 107.208C333.28 106.684 331.598 106.692 330.052 107.23C328.506 107.768 327.182 108.805 326.291 110.178Z" fill="#263238"/>
<path d="M341.941 123.638C341.822 123.063 341.482 122.558 340.993 122.232C340.504 121.906 339.907 121.786 339.331 121.898C337.681 122.268 337.081 124.568 337.181 126.048C337.311 127.678 338.58 128.808 339.98 127.788C341.03 127.005 341.73 125.842 341.931 124.548C341.999 124.249 342.002 123.939 341.941 123.638Z" fill="#FFB573"/>
<path d="M329.07 122.968C329.24 123.628 329.07 124.248 328.6 124.368C328.13 124.488 327.69 124.048 327.52 123.368C327.35 122.688 327.52 122.088 327.98 121.968C328.44 121.848 328.89 122.358 329.07 122.968Z" fill="#263238"/>
<path d="M323.111 125.108C323.281 125.758 323.111 126.388 322.651 126.508C322.191 126.628 321.741 126.188 321.561 125.508C321.381 124.828 321.561 124.238 322.021 124.118C322.481 123.998 322.941 124.448 323.111 125.108Z" fill="#263238"/>
<path d="M322.209 124.108H320.529C320.529 124.108 321.679 125.098 322.209 124.108Z" fill="#263238"/>
<path d="M330.32 120.008C330.37 119.98 330.414 119.943 330.45 119.898C330.496 119.823 330.512 119.734 330.493 119.648C330.474 119.562 330.423 119.487 330.35 119.438C329.838 119.089 329.249 118.867 328.633 118.792C328.017 118.718 327.392 118.792 326.81 119.008C326.734 119.049 326.676 119.116 326.646 119.198C326.617 119.279 326.618 119.368 326.65 119.448C326.667 119.488 326.691 119.525 326.722 119.555C326.752 119.585 326.789 119.609 326.829 119.625C326.869 119.641 326.912 119.649 326.956 119.647C326.999 119.646 327.041 119.636 327.08 119.618C327.562 119.446 328.079 119.39 328.586 119.456C329.094 119.522 329.579 119.708 330 119.998C330.049 120.027 330.103 120.043 330.159 120.045C330.215 120.046 330.271 120.034 330.32 120.008Z" fill="#263238"/>
<path d="M320.269 123.588C320.313 123.55 320.348 123.502 320.369 123.448C320.549 122.968 320.839 122.537 321.216 122.189C321.593 121.842 322.046 121.588 322.539 121.448C322.583 121.441 322.624 121.425 322.661 121.401C322.698 121.378 322.73 121.346 322.754 121.31C322.779 121.273 322.795 121.232 322.803 121.189C322.811 121.145 322.809 121.101 322.799 121.058C322.791 121.015 322.774 120.975 322.75 120.938C322.726 120.902 322.695 120.871 322.658 120.847C322.622 120.823 322.581 120.806 322.539 120.798C322.496 120.789 322.452 120.789 322.409 120.798C321.807 120.958 321.252 121.259 320.789 121.677C320.326 122.094 319.97 122.616 319.749 123.198C319.715 123.279 319.714 123.37 319.745 123.452C319.777 123.535 319.839 123.601 319.919 123.638C319.977 123.664 320.041 123.672 320.103 123.661C320.166 123.651 320.223 123.622 320.269 123.578V123.588Z" fill="#263238"/>
<path d="M328.17 121.978H326.49C326.49 121.978 327.62 122.958 328.17 121.978Z" fill="#263238"/>
<path d="M319.359 127.288C320.119 131.388 323.459 137.058 327.009 139.238C324.619 141.058 320.329 138.998 317.809 137.398C316.574 136.543 315.534 135.436 314.757 134.15C313.98 132.865 313.483 131.429 313.299 129.938C312.95 126.949 313.356 123.92 314.479 121.128C316.189 116.508 319.479 112.838 323.269 109.768C324.039 109.158 325.339 108.658 325.839 109.508C326.179 110.088 325.789 110.808 325.409 111.368C321.679 116.748 318.809 120.498 319.359 127.288Z" fill="#263238"/>
<path d="M337.921 134.798H337.861C337.829 134.791 337.798 134.778 337.772 134.759C337.745 134.739 337.723 134.715 337.706 134.687C337.689 134.659 337.678 134.628 337.674 134.595C337.669 134.563 337.672 134.53 337.681 134.498C340.351 123.698 328.771 115.498 325.161 113.188C325.106 113.153 325.067 113.098 325.052 113.034C325.037 112.971 325.047 112.904 325.081 112.848C325.118 112.792 325.175 112.753 325.24 112.738C325.305 112.723 325.373 112.734 325.431 112.768C329.111 115.078 340.911 123.488 338.161 134.618C338.144 134.669 338.112 134.714 338.069 134.746C338.026 134.778 337.974 134.797 337.921 134.798Z" fill="#263238"/>
<path d="M339.95 126.978L339.73 130.788L340.75 131.628L341.25 130.458L339.95 126.978Z" fill="#11A962"/>
<path d="M356.791 138.418C355.994 138.216 355.159 138.226 354.368 138.447C353.576 138.668 352.857 139.093 352.281 139.678C351.005 141.084 350.2 142.853 349.981 144.738C349.611 147.618 350.331 150.528 351.121 153.338C351.911 156.148 352.771 159.018 352.691 161.948C355.761 160.268 360.201 156.948 364.491 156.508C363.891 149.688 363.111 145.158 361.781 142.898C361.099 141.561 360.185 140.356 359.081 139.338C358.387 138.881 357.608 138.568 356.791 138.418Z" fill="#11A962"/>
<path d="M283.921 170.528C283.921 170.528 276.371 171.768 276.271 172.108C276.171 172.448 276.211 176.698 276.211 176.698L282.991 174.138L283.921 170.528Z" fill="#FFB573"/>
<path d="M276.21 176.708L269.83 170.698L272.68 169.868L277.41 172.428L276.21 176.708Z" fill="#FFB573"/>
<path d="M83.5938 329.208L90.7237 328.818L91.3538 345.698L84.2237 346.088L83.5938 329.208Z" fill="#F7978D"/>
<path d="M93.1029 344.168C95.3129 345.548 98.5229 346.748 104.383 347.338C105.673 347.468 106.103 350.438 103.083 350.758C100.063 351.078 94.8229 351.558 92.6529 351.758C89.1029 352.148 87.7829 352.458 84.9729 352.808C84.6389 352.841 84.3052 352.741 84.0448 352.53C83.7843 352.318 83.6183 352.012 83.5829 351.678L83.2829 345.258C83.2775 345.191 83.2853 345.123 83.306 345.059C83.3267 344.995 83.3599 344.936 83.4035 344.885C83.4472 344.834 83.5006 344.792 83.5605 344.762C83.6205 344.731 83.6859 344.713 83.7529 344.708L91.8129 343.818C92.2688 343.799 92.7194 343.921 93.1029 344.168Z" fill="#263238"/>
<path opacity="0.2" d="M83.9137 337.918L91.0537 337.528L90.7237 328.828L83.5938 329.218L83.9137 337.918Z" fill="black"/>
<path d="M96.5628 344.778C96.6627 344.647 96.7256 344.491 96.745 344.328C96.7643 344.164 96.7394 343.998 96.6728 343.848C96.6436 343.745 96.5873 343.652 96.51 343.578C96.4326 343.504 96.3369 343.452 96.2328 343.428C95.3228 343.178 93.4428 344.778 93.2328 344.968C93.216 344.995 93.207 345.026 93.207 345.058C93.207 345.09 93.216 345.121 93.2328 345.148C93.244 345.178 93.2628 345.205 93.2873 345.226C93.3118 345.247 93.3412 345.261 93.3728 345.268C94.0173 345.343 94.6683 345.343 95.3128 345.268C95.7745 345.258 96.2177 345.085 96.5628 344.778ZM93.7628 344.978C94.5328 344.398 95.6728 343.618 96.1528 343.758C96.2053 343.77 96.253 343.798 96.2903 343.837C96.3275 343.876 96.3527 343.925 96.3628 343.978C96.4184 344.07 96.4478 344.175 96.4478 344.283C96.4478 344.39 96.4184 344.496 96.3628 344.588C96.0628 344.968 95.1328 345.108 93.8128 344.988L93.7628 344.978Z" fill="#407BFF"/>
<path d="M93.4531 345.228C94.1331 344.718 95.0331 343.108 94.7831 342.348C94.7402 342.21 94.6512 342.091 94.5311 342.011C94.4109 341.931 94.2669 341.895 94.1231 341.908C93.993 341.903 93.8634 341.928 93.744 341.98C93.6246 342.031 93.5183 342.11 93.4331 342.208C92.7931 342.988 93.2131 345.048 93.1931 345.128C93.199 345.155 93.2111 345.179 93.2285 345.2C93.2459 345.221 93.2681 345.237 93.2931 345.248H93.3731L93.4531 345.228ZM94.0931 342.228C94.3331 342.228 94.4531 342.338 94.4331 342.428C94.4122 343.302 94.0538 344.133 93.4331 344.748C93.2594 343.964 93.3364 343.146 93.6531 342.408C93.6954 342.355 93.7485 342.312 93.8088 342.28C93.8691 342.249 93.9354 342.232 94.0031 342.228H94.0931Z" fill="#407BFF"/>
<path d="M27.2435 321.718L34.3135 323.208L29.1635 339.208L22.1035 337.708L27.2435 321.718Z" fill="#F7978D"/>
<path d="M31.0735 339.208C32.7335 341.208 36.1535 343.638 41.5335 346.008C42.7335 346.548 42.2035 349.498 39.2335 348.868C36.2635 348.238 30.4135 346.768 28.2335 346.308C24.7535 345.568 23.3935 345.458 20.6235 344.928C20.4576 344.895 20.3 344.829 20.1597 344.734C20.0195 344.639 19.8994 344.518 19.8064 344.377C19.7134 344.235 19.6493 344.077 19.6179 343.911C19.5865 343.744 19.5884 343.573 19.6235 343.408L21.3335 337.208C21.3497 337.142 21.3791 337.08 21.4198 337.025C21.4605 336.97 21.5117 336.925 21.5704 336.89C21.6291 336.856 21.6942 336.833 21.7617 336.824C21.8292 336.815 21.8978 336.82 21.9635 336.838L29.8935 338.518C30.3539 338.607 30.7701 338.85 31.0735 339.208Z" fill="#263238"/>
<path opacity="0.2" d="M24.5938 329.968L31.6537 331.458L34.3138 323.218L27.2438 321.728L24.5938 329.968Z" fill="black"/>
<path d="M72.123 172.008C72.123 172.008 79.6531 237.088 80.2231 261.408C80.7531 283.818 80.373 333.408 80.373 333.408L93.373 332.808C93.373 332.808 98.783 286.728 100.373 264.148C101.793 243.468 97.373 177.338 97.373 177.338L72.123 172.008Z" fill="#2ECC82"/>
<path opacity="0.2" d="M75.2129 197.688C76.3829 211.158 77.9529 228.478 79.3929 242.968C82.3929 234.578 84.1929 213.488 80.6429 200.548C78.4829 192.688 76.5329 194.418 75.2129 197.688Z" fill="black"/>
<path d="M78.2539 330.818L95.0239 329.548L94.2539 335.058L80.1439 336.228L78.2539 330.818Z" fill="#263238"/>
<path d="M57.4142 174.528C57.4142 174.528 45.2742 234.418 41.0742 258.358C37.2142 280.438 22.0742 327.268 22.0742 327.268L35.0142 330.008C35.0142 330.008 56.4442 282.638 62.3942 260.768C67.8242 240.768 81.3942 179.578 81.3942 179.578L57.4142 174.528Z" fill="#2ECC82"/>
<path d="M21.7334 322.908L39.1134 325.788L37.3034 330.528L21.5234 327.188L21.7334 322.908Z" fill="#263238"/>
<path d="M33.5431 340.218C33.6806 340.121 33.7894 339.99 33.8581 339.836C33.9268 339.683 33.9527 339.514 33.9331 339.348C33.9376 339.24 33.9141 339.132 33.8651 339.036C33.8161 338.94 33.7431 338.858 33.6531 338.798C32.8631 338.288 30.5731 339.228 30.3131 339.328C30.2861 339.346 30.2632 339.369 30.246 339.397C30.2287 339.425 30.2175 339.455 30.2131 339.488C30.2113 339.52 30.22 339.552 30.2381 339.579C30.2561 339.606 30.2825 339.627 30.3131 339.638C30.8943 339.922 31.5045 340.144 32.1331 340.298C32.598 340.437 33.097 340.409 33.5431 340.218ZM30.8631 339.488C31.7931 339.138 33.0931 338.788 33.4731 339.088C33.514 339.12 33.5469 339.161 33.5695 339.208C33.592 339.254 33.6035 339.306 33.6031 339.358C33.6137 339.464 33.5973 339.571 33.5553 339.669C33.5134 339.767 33.4472 339.852 33.3631 339.918C32.9531 340.178 32.0131 340.018 30.8131 339.508L30.8631 339.488Z" fill="#407BFF"/>
<path d="M30.473 339.648C31.243 339.358 32.673 338.128 32.673 337.358C32.6743 337.214 32.6264 337.074 32.5373 336.961C32.4482 336.849 32.3232 336.77 32.183 336.738C32.0618 336.693 31.932 336.678 31.8037 336.691C31.6753 336.705 31.5519 336.749 31.443 336.818C30.583 337.358 30.323 339.418 30.303 339.508C30.2986 339.535 30.3008 339.563 30.3095 339.589C30.3182 339.615 30.3331 339.639 30.353 339.658C30.3822 339.668 30.4138 339.668 30.443 339.658C30.4534 339.656 30.4635 339.653 30.473 339.648ZM32.033 336.998C32.273 337.078 32.323 337.208 32.293 337.308C32.293 337.838 31.353 338.808 30.633 339.188C30.7104 338.393 31.0397 337.643 31.573 337.048C31.6293 337.009 31.6932 336.983 31.7604 336.971C31.8277 336.959 31.8968 336.961 31.963 336.978L32.033 336.998Z" fill="#407BFF"/>
<path d="M33.6727 187.888C35.3627 186.208 35.6027 184.368 36.6727 182.418C37.3827 181.088 35.7327 181.608 37.3827 181.788C37.9897 181.916 38.5778 182.121 39.1327 182.398C40.5627 182.938 41.9327 183.618 43.3627 184.128C44.6027 184.568 46.8127 184.368 47.8527 184.978C49.5627 185.978 47.9227 190.388 47.5727 191.808C47.1527 193.528 49.7727 194.418 50.2027 192.688C50.8127 190.208 52.4027 185.778 50.4827 183.448C49.3027 182.008 47.4827 182.298 45.8227 181.978C42.7227 181.368 39.5427 178.538 36.2727 178.868C35.7871 178.89 35.3187 179.055 34.9258 179.341C34.5328 179.627 34.2327 180.023 34.0627 180.478C33.5427 181.618 33.8527 182.888 33.1727 184.088C32.8177 184.719 32.3768 185.298 31.8627 185.808C30.6027 187.058 32.4227 189.158 33.6927 187.888H33.6727Z" fill="white"/>
<path d="M14.819 180.823L64.8153 197.581C65.6301 197.854 66.303 198.44 66.686 199.209C67.069 199.978 67.1308 200.868 66.8577 201.683L57.8893 228.44C57.4182 229.845 56.4079 231.006 55.0807 231.667C53.7536 232.328 52.2183 232.435 50.8126 231.963L5.30106 216.709C3.89536 216.238 2.7344 215.228 2.07358 213.9C1.41276 212.573 1.30621 211.038 1.77737 209.632L10.7457 182.875C11.0188 182.06 11.6044 181.388 12.3736 181.005C13.1428 180.622 14.0327 180.56 14.8474 180.833L14.819 180.823Z" fill="#2ECC82"/>
<path d="M36.9705 201.494L29.1016 223.977L30.0454 224.307L37.9143 201.825L36.9705 201.494Z" fill="#407BFF"/>
<g opacity="0.3">
<path d="M36.9705 201.494L29.1016 223.977L30.0454 224.307L37.9143 201.825L36.9705 201.494Z" fill="black"/>
</g>
<path opacity="0.2" d="M63.9529 200.838L13.4929 183.928C13.1193 183.802 12.7246 183.752 12.3314 183.779C11.9382 183.806 11.5542 183.91 11.2013 184.085C10.8484 184.261 10.5335 184.504 10.2747 184.801C10.0159 185.099 9.81818 185.444 9.69288 185.818L9.35288 186.868C8.99999 187.918 8.8577 189.028 8.93414 190.134C9.01059 191.239 9.30427 192.319 9.7984 193.311C10.2925 194.303 10.9774 195.188 11.8138 195.915C12.6502 196.642 13.6218 197.197 14.6729 197.548L54.8029 210.998C56.926 211.708 59.2442 211.547 61.2485 210.549C63.2527 209.552 64.7793 207.8 65.4929 205.678L65.8429 204.678C65.9746 204.302 66.03 203.903 66.006 203.506C65.982 203.108 65.8791 202.719 65.7031 202.361C65.5272 202.004 65.2818 201.685 64.9813 201.424C64.6808 201.162 64.3312 200.963 63.9529 200.838Z" fill="black"/>
<path d="M65.0631 197.658L14.6032 180.748C13.8499 180.498 13.0281 180.556 12.3177 180.91C11.6073 181.264 11.0663 181.886 10.8132 182.638L10.4632 183.688C10.1118 184.738 9.97066 185.847 10.0479 186.951C10.1251 188.056 10.4191 189.134 10.9131 190.125C11.4071 191.116 12.0915 192 12.9271 192.726C13.7627 193.452 14.7332 194.007 15.7832 194.358L55.9131 207.808C58.0363 208.518 60.3544 208.357 62.3587 207.359C64.363 206.362 65.8895 204.61 66.6031 202.488L66.9531 201.488C67.0833 201.113 67.1376 200.715 67.1128 200.318C67.088 199.922 66.9847 199.534 66.8089 199.178C66.6331 198.822 66.3882 198.504 66.0885 198.243C65.7888 197.982 65.4403 197.783 65.0631 197.658Z" fill="#407BFF"/>
<path d="M65.0631 197.658L14.6032 180.748C13.8499 180.498 13.0281 180.556 12.3177 180.91C11.6073 181.264 11.0663 181.886 10.8132 182.638L10.4632 183.688C10.1118 184.738 9.97066 185.847 10.0479 186.951C10.1251 188.056 10.4191 189.134 10.9131 190.125C11.4071 191.116 12.0915 192 12.9271 192.726C13.7627 193.452 14.7332 194.007 15.7832 194.358L55.9131 207.808C58.0363 208.518 60.3544 208.357 62.3587 207.359C64.363 206.362 65.8895 204.61 66.6031 202.488L66.9531 201.488C67.0833 201.113 67.1376 200.715 67.1128 200.318C67.088 199.922 66.9847 199.534 66.8089 199.178C66.6331 198.822 66.3882 198.504 66.0885 198.243C65.7888 197.982 65.4403 197.783 65.0631 197.658Z" fill="#263238"/>
<path d="M24.1534 192.633L22.4814 192.07C21.4583 191.726 20.3495 192.276 20.0049 193.299L17.4449 200.899C17.1003 201.922 17.6503 203.031 18.6734 203.375L20.3454 203.938C21.3685 204.283 22.4773 203.733 22.8219 202.71L25.3819 195.11C25.7265 194.087 25.1765 192.978 24.1534 192.633Z" fill="#407BFF"/>
<path d="M51.9282 201.148L50.2593 200.589C49.238 200.247 48.133 200.798 47.7911 201.819L45.2513 209.405C44.9094 210.427 45.4601 211.532 46.4814 211.874L48.1503 212.432C49.1716 212.774 50.2766 212.224 50.6185 211.202L53.1583 203.616C53.5002 202.595 52.9495 201.49 51.9282 201.148Z" fill="#407BFF"/>
<path d="M24.1534 192.633L22.4814 192.07C21.4583 191.726 20.3495 192.276 20.0049 193.299L17.4449 200.899C17.1003 201.922 17.6503 203.031 18.6734 203.375L20.3454 203.938C21.3685 204.283 22.4773 203.733 22.8219 202.71L25.3819 195.11C25.7265 194.087 25.1765 192.978 24.1534 192.633Z" fill="white"/>
<path d="M51.9282 201.148L50.2593 200.589C49.238 200.247 48.133 200.798 47.7911 201.819L45.2513 209.405C44.9094 210.427 45.4601 211.532 46.4814 211.874L48.1503 212.432C49.1716 212.774 50.2766 212.224 50.6185 211.202L53.1583 203.616C53.5002 202.595 52.9495 201.49 51.9282 201.148Z" fill="white"/>
<path d="M106.443 123.358C106.893 124.248 107.443 125.308 107.983 126.288C108.523 127.268 109.083 128.288 109.653 129.288C110.793 131.238 111.963 133.168 113.213 134.988C114.411 136.755 115.706 138.454 117.093 140.078C118.212 141.441 119.534 142.625 121.013 143.588L121.223 143.718H121.303L121.553 143.768C122.11 143.758 122.659 143.629 123.163 143.388C124.882 142.571 126.472 141.506 127.883 140.228C129.557 138.809 131.131 137.275 132.593 135.638C133.353 134.808 134.123 133.968 134.853 133.098L136.973 130.508L137.103 130.348C137.69 129.523 138.576 128.959 139.572 128.777C140.568 128.595 141.596 128.809 142.437 129.372C143.279 129.936 143.867 130.806 144.077 131.797C144.287 132.787 144.103 133.821 143.563 134.678C141.091 139.207 138.068 143.412 134.563 147.198C132.59 149.326 130.304 151.141 127.783 152.578C126.17 153.478 124.403 154.068 122.573 154.318C121.467 154.451 120.347 154.414 119.253 154.208C118.674 154.107 118.105 153.957 117.553 153.758C117.278 153.687 117.012 153.583 116.763 153.448L116.173 153.178C113.477 151.779 111.033 149.941 108.943 147.738C107.068 145.852 105.339 143.826 103.773 141.678C102.223 139.608 100.773 137.508 99.4625 135.358C98.7725 134.288 98.1425 133.228 97.5225 132.108C96.9025 130.988 96.3125 129.938 95.6825 128.688C95.3247 127.982 95.1094 127.213 95.0489 126.423C94.9884 125.634 95.0839 124.841 95.33 124.089C95.5761 123.337 95.9679 122.641 96.483 122.04C96.9982 121.439 97.6267 120.946 98.3326 120.588C99.7581 119.865 101.412 119.738 102.931 120.235C103.684 120.481 104.38 120.873 104.981 121.388C105.581 121.904 106.075 122.532 106.433 123.238L106.443 123.358Z" fill="#263238"/>
<path d="M140.313 133.438L145.983 135.498L145.583 128.878C145.583 128.878 139.693 126.788 138.903 129.878V131.358C138.893 131.808 139.024 132.25 139.276 132.623C139.529 132.995 139.891 133.28 140.313 133.438Z" fill="#F7978D"/>
<path d="M151.814 133.928L153.014 128.278L145.594 128.878L145.984 135.498L151.814 133.928Z" fill="#F7978D"/>
<path opacity="0.3" d="M108.123 146.518C107.453 145.758 106.823 144.998 106.203 144.228C104.265 141.738 102.517 139.108 100.973 136.358C99.46 133.688 98.0947 130.937 96.8826 128.118C96.7126 127.728 96.5526 127.328 96.3926 126.918C99.3926 125.108 105.873 125.998 107.963 134.418C108.799 138.403 108.854 142.512 108.123 146.518Z" fill="black"/>
<path d="M95.1341 182.518L57.4141 174.518C57.8541 171.088 60.9241 160.278 63.3341 146.188C64.8314 136.467 65.6965 126.66 65.9241 116.828V116.748C65.956 116.139 66.1077 115.542 66.3703 114.992C66.6329 114.442 67.0013 113.949 67.4545 113.541C67.9076 113.134 68.4367 112.819 69.0115 112.616C69.5862 112.413 70.1953 112.325 70.8041 112.358H70.8841C73.2341 112.508 76.1541 112.768 78.9941 113.228C84.4043 114.055 89.763 115.19 95.0441 116.628C96.7823 117.183 98.4825 117.851 100.134 118.628C101.296 119.127 102.301 119.932 103.042 120.956C103.784 121.981 104.234 123.188 104.344 124.448C105.004 132.778 104.674 148.908 95.1341 182.518Z" fill="white"/>
<path d="M90.3741 122.118L89.2941 124.278C89.232 124.45 89.1196 124.599 88.9716 124.706C88.8235 124.813 88.6467 124.873 88.4641 124.878L86.5941 124.718C86.3241 124.718 86.1041 124.478 86.0041 124.128L85.2441 121.538L88.0441 119.798L90.3741 122.118Z" fill="#25A368"/>
<path d="M78.583 112.618C75.583 112.138 72.513 111.858 70.033 111.698H69.803C68.5182 111.657 67.2699 112.129 66.3324 113.008C65.3948 113.887 64.8447 115.103 64.803 116.388C64.5713 126.769 63.6627 137.125 62.083 147.388C58.423 173.688 54.793 178.918 54.793 178.918L71.623 182.088C76.703 158.208 80.623 125.588 80.213 112.908L78.583 112.618Z" fill="#263238"/>
<path opacity="0.3" d="M62.6738 143.688C63.8938 135.208 64.4338 126.438 64.6738 120.048C64.7532 119.96 64.8402 119.88 64.9338 119.808C67.0538 118.008 72.3138 122.328 70.9338 130.388C69.5138 138.058 65.7938 142.668 62.6738 143.688Z" fill="black"/>
<path d="M97.9627 187.988L87.8027 185.268C94.1827 140.518 95.6727 128.618 94.2427 116.078C96.7611 116.738 99.2415 117.536 101.673 118.468C102.943 119.084 104.032 120.019 104.835 121.18C105.637 122.342 106.126 123.691 106.253 125.098C107.113 132.118 101.793 150.038 97.9627 187.988Z" fill="#263238"/>
<path d="M86.2642 169.538C86.5148 169.411 86.7881 169.335 87.0683 169.314C87.3485 169.293 87.6301 169.327 87.8969 169.416C88.1637 169.504 88.4104 169.644 88.6227 169.828C88.835 170.012 89.0089 170.236 89.1342 170.488C89.3173 170.871 89.3832 171.299 89.3235 171.719C89.2639 172.139 89.0813 172.532 88.7989 172.848C88.5164 173.164 88.1467 173.39 87.7362 173.497C87.3256 173.604 86.8927 173.587 86.4919 173.448C86.091 173.309 85.7402 173.055 85.4834 172.718C85.2267 172.38 85.0756 171.974 85.0491 171.551C85.0226 171.127 85.122 170.705 85.3346 170.338C85.5473 169.971 85.8637 169.676 86.2442 169.488L86.2642 169.538Z" fill="#263238"/>
<path d="M84.9936 172.618C84.6888 172.026 84.6314 171.338 84.8339 170.704C85.0364 170.07 85.4823 169.543 86.0736 169.238C86.4338 169.043 86.8359 168.939 87.2454 168.934C87.6548 168.929 88.0594 169.023 88.4243 169.209C88.7892 169.395 89.1036 169.666 89.3404 170C89.5773 170.334 89.7295 170.721 89.784 171.127C89.8385 171.533 89.7937 171.946 89.6534 172.33C89.5131 172.715 89.2816 173.06 88.9786 173.335C88.6757 173.611 88.3104 173.809 87.9141 173.912C87.5178 174.015 87.1024 174.021 86.7036 173.928C86.3376 173.854 85.9933 173.698 85.6969 173.471C85.4005 173.244 85.16 172.952 84.9936 172.618Z" fill="white"/>
<path d="M88.2933 119.858C80.2433 118.608 78.3633 113.228 78.3633 113.228C82.5833 110.478 83.2433 100.778 83.1433 95.3579L86.6733 99.8279L91.4933 105.918C91.1533 106.661 90.8626 107.426 90.6233 108.208C89.6233 111.298 89.8433 114.368 94.2733 116.458C94.2833 116.458 95.1533 120.888 88.2933 119.858Z" fill="#F7978D"/>
<path d="M76.8542 112.288L79.5042 111.898C81.605 115.119 84.4303 117.804 87.7542 119.738C85.9962 120.45 84.4892 121.668 83.4242 123.238C75.5642 118.568 76.8542 112.288 76.8542 112.288Z" fill="white"/>
<path d="M94.3541 116.008L92.1641 115.008C92.1641 115.008 90.2441 119.568 87.7441 119.738C91.5141 122.198 91.7441 124.368 91.7441 124.368C98.0741 123.748 94.3541 116.008 94.3541 116.008Z" fill="white"/>
<path opacity="0.2" d="M90.8837 107.478L86.2737 101.678C86.0639 102.408 85.9331 103.159 85.8837 103.918C85.7337 106.208 88.1237 109.118 90.2137 110.038L90.8837 107.478Z" fill="black"/>
<path d="M95.9542 96.8778C95.9542 96.8778 96.2042 100.488 99.9542 99.1078C100.114 95.2678 101.374 95.5678 102.674 93.3178C103.518 92.0748 104.01 90.6266 104.098 89.1267C104.186 87.6268 103.867 86.1311 103.174 84.7978L100.784 83.5978C91.4642 80.7078 95.9542 96.8778 95.9542 96.8778Z" fill="#263238"/>
<path opacity="0.6" d="M95.9542 96.8778C95.9542 96.8778 96.2042 100.488 99.9542 99.1078C100.114 95.2678 101.374 95.5678 102.674 93.3178C103.518 92.0748 104.01 90.6266 104.098 89.1267C104.186 87.6268 103.867 86.1311 103.174 84.7978L100.784 83.5978C91.4642 80.7078 95.9542 96.8778 95.9542 96.8778Z" fill="white"/>
<path d="M86.2137 82.3576C87.8826 80.4862 90.2261 79.3539 92.7294 79.2096C95.2326 79.0652 97.6908 79.9205 99.5637 81.5876C105.374 86.5276 103.324 97.0276 100.054 102.708C99.2314 104.197 98.0172 105.434 96.5426 106.283C95.0681 107.133 93.3893 107.563 91.6879 107.527C89.9866 107.491 88.3275 106.99 86.8902 106.079C85.453 105.168 84.2923 103.881 83.5337 102.358C81.1337 97.6876 82.4137 93.6876 84.0137 86.6876C84.3564 85.0769 85.1149 83.5841 86.2137 82.3576Z" fill="#F7978D"/>
<path d="M82.8733 93.0477C82.8733 93.0477 83.8133 96.1577 87.2133 94.4877C86.6233 91.1277 87.9133 91.2177 88.7433 89.0977C89.3246 87.8694 89.5257 86.4953 89.3208 85.1519C89.1159 83.8085 88.5143 82.5569 87.5933 81.5577L85.0233 80.8077C72.8033 79.6377 82.8733 93.0477 82.8733 93.0477Z" fill="#263238"/>
<path opacity="0.6" d="M82.8733 93.0477C82.8733 93.0477 83.8133 96.1577 87.2133 94.4877C86.6233 91.1277 87.9133 91.2177 88.7433 89.0977C89.3246 87.8694 89.5257 86.4953 89.3208 85.1519C89.1159 83.8085 88.5143 82.5569 87.5933 81.5577L85.0233 80.8077C72.8033 79.6377 82.8733 93.0477 82.8733 93.0477Z" fill="white"/>
<path d="M95.0132 73.8278C94.3821 73.6 93.702 73.543 93.0418 73.6624C92.3816 73.7818 91.7646 74.0734 91.2532 74.5078C90.5832 75.0878 89.9232 75.9778 89.0532 75.7978C88.6316 75.6464 88.2465 75.4079 87.9232 75.0978C87.1724 74.6691 86.3068 74.485 85.4465 74.571C84.5863 74.6571 83.7742 75.0089 83.1232 75.5778C81.8413 76.7408 80.7808 78.1265 79.9932 79.6678C79.2062 81.2092 78.0088 82.5034 76.5332 83.4078C77.9207 84.0704 79.4325 84.4325 80.9697 84.4704C82.5069 84.5083 84.0347 84.2212 85.4532 83.6278C84.6573 84.6196 83.5576 85.3223 82.3232 85.6278C85.1498 86.4358 88.1737 86.1906 90.8332 84.9378C92.3232 84.2278 93.7032 83.1978 95.3232 82.9378C96.9432 82.6778 98.9632 83.5378 99.1132 85.1878C99.1994 84.9849 99.327 84.8023 99.4879 84.6517C99.6489 84.5011 99.8395 84.3859 100.048 84.3133C100.256 84.2408 100.477 84.2126 100.696 84.2306C100.916 84.2486 101.13 84.3124 101.323 84.4178C102.1 84.8841 102.709 85.5842 103.063 86.4178C103.435 87.185 103.988 87.8506 104.673 88.3578C104.856 88.483 105.061 88.571 105.277 88.6167C105.494 88.6623 105.717 88.6648 105.935 88.6239C106.152 88.583 106.359 88.4996 106.544 88.3784C106.729 88.2573 106.889 88.1007 107.013 87.9178C106.419 87.8736 105.86 87.6168 105.44 87.1944C105.019 86.7721 104.765 86.2124 104.723 85.6178C105.601 86.1093 106.625 86.2758 107.613 86.0878C106.303 85.9978 103.763 81.3578 103.363 80.0878C103.054 78.8045 102.325 77.661 101.293 76.8378C100.083 76.0078 98.8532 77.4578 97.7032 76.8378C96.5532 76.2178 96.3132 74.3578 95.0132 73.8278Z" fill="#263238"/>
<path d="M93.3939 99.088C92.9283 98.704 92.5436 98.2313 92.2621 97.6974C91.9806 97.1636 91.8079 96.5792 91.7539 95.978L93.7539 96.778C94.5939 97.108 97.0439 98.138 96.4939 99.488C95.9439 100.838 94.0439 99.628 93.3939 99.088Z" fill="#263238"/>
<path d="M99.1341 101.288C100.348 101.261 101.503 100.754 102.344 99.8777L100.254 99.2377C99.3841 98.9677 96.8341 98.2377 96.4241 99.6377C96.0141 101.038 98.2841 101.358 99.1341 101.288Z" fill="#263238"/>
<path d="M96.3633 98.978C96.7673 99.2356 97.2226 99.4022 97.6975 99.4661C98.1724 99.53 98.6555 99.4897 99.1133 99.348C98.4502 97.5253 98.0365 95.6214 97.8833 93.688L96.3633 98.978Z" fill="#FF5652"/>
<path d="M83.2827 88.1976C84.9827 88.7776 85.6427 91.6176 85.5627 93.4076C85.4727 95.4076 84.1627 96.6276 82.6927 95.4076C81.5734 94.3303 80.8599 92.8998 80.6727 91.3576C80.3727 89.3576 81.5827 87.6276 83.2827 88.1976Z" fill="#F7978D"/>
<path d="M94.5725 91.3577C94.9325 91.4777 95.0825 92.0877 94.9225 92.5877C94.7625 93.0877 94.3425 93.4477 93.9825 93.3377C93.6225 93.2277 93.5125 92.6777 93.6325 92.1077C93.7525 91.5377 94.2125 91.2377 94.5725 91.3577Z" fill="#263238"/>
<path d="M100.893 93.0978C101.253 93.2278 101.413 93.7678 101.243 94.3278C101.073 94.8878 100.653 95.2478 100.293 95.1278C99.9331 95.0078 99.7731 94.4478 99.9431 93.8878C100.113 93.3278 100.533 92.9778 100.893 93.0978Z" fill="#263238"/>
<path d="M95.723 102.108C95.7455 102.114 95.769 102.115 95.7918 102.111C95.8147 102.107 95.8364 102.098 95.8555 102.084C95.8745 102.071 95.8904 102.054 95.9021 102.034C95.9137 102.014 95.9209 101.991 95.923 101.968C95.9269 101.924 95.915 101.879 95.8894 101.843C95.8638 101.806 95.8261 101.78 95.783 101.768C95.0563 101.67 94.362 101.406 93.7534 100.996C93.1449 100.587 92.6384 100.044 92.273 99.408C92.2644 99.3878 92.2518 99.3696 92.2359 99.3545C92.2199 99.3394 92.2011 99.3277 92.1804 99.3202C92.1598 99.3127 92.1378 99.3095 92.1159 99.3108C92.094 99.3122 92.0726 99.318 92.053 99.328C92.0325 99.3377 92.014 99.3513 91.9988 99.3681C91.9836 99.385 91.972 99.4047 91.9645 99.4262C91.9571 99.4476 91.954 99.4703 91.9554 99.4929C91.9569 99.5156 91.9629 99.5377 91.973 99.558C92.3004 100.148 92.7438 100.666 93.2765 101.08C93.8093 101.494 94.4204 101.796 95.073 101.968C95.283 102.028 95.513 102.048 95.723 102.108Z" fill="#263238"/>
<path d="M100.673 90.6979C100.687 90.7514 100.713 90.8008 100.75 90.8425C100.786 90.8841 100.832 90.9167 100.883 90.9379C101.302 91.0669 101.687 91.2897 102.007 91.5895C102.328 91.8892 102.576 92.258 102.733 92.6679C102.756 92.7535 102.812 92.8266 102.889 92.8714C102.966 92.9163 103.057 92.9294 103.143 92.9079C103.229 92.8823 103.302 92.8243 103.347 92.7461C103.392 92.6678 103.405 92.5754 103.383 92.4879C103.196 91.9738 102.893 91.5097 102.497 91.1316C102.102 90.7535 101.625 90.4717 101.103 90.3079C101.016 90.2814 100.923 90.2882 100.842 90.3271C100.76 90.366 100.696 90.4341 100.663 90.5179C100.657 90.5781 100.661 90.6387 100.673 90.6979Z" fill="#263238"/>
<path d="M93.3825 88.9077C93.425 88.943 93.4752 88.9677 93.5291 88.9799C93.583 88.992 93.639 88.9913 93.6925 88.9776C94.1019 88.8216 94.5413 88.7603 94.9777 88.7984C95.4142 88.8365 95.8363 88.973 96.2125 89.1977C96.247 89.2252 96.2867 89.2456 96.3293 89.2575C96.3718 89.2694 96.4163 89.2727 96.4602 89.2671C96.504 89.2615 96.5463 89.2472 96.5845 89.2249C96.6227 89.2027 96.656 89.173 96.6825 89.1377C96.7327 89.0633 96.7534 88.9729 96.7405 88.8841C96.7275 88.7953 96.6819 88.7145 96.6125 88.6577C96.1489 88.3665 95.6245 88.1861 95.0799 88.1306C94.5353 88.0751 93.9852 88.146 93.4725 88.3377C93.3871 88.3693 93.3175 88.4329 93.2783 88.5151C93.2391 88.5972 93.2334 88.6914 93.2625 88.7777C93.291 88.8303 93.3323 88.875 93.3825 88.9077Z" fill="#263238"/>
<path d="M39.3233 175.928L38.0233 175.778C34.9733 177.258 38.2933 182.908 38.2933 182.908L47.2933 181.818L44.6733 178.758C43.3091 177.176 41.399 176.165 39.3233 175.928Z" fill="#F7978D"/>
<path d="M47.5634 185.688L47.2734 181.798L38.2734 182.898L38.7834 187.508C38.7779 187.574 38.7779 187.641 38.7834 187.708C38.8731 188.061 39.0992 188.365 39.4121 188.552C39.725 188.74 40.0994 188.796 40.4534 188.708L46.5234 187.118C46.8388 187.043 47.1169 186.857 47.3075 186.595C47.4982 186.333 47.589 186.011 47.5634 185.688Z" fill="#F7978D"/>
<path d="M91.7638 159.608C91.7638 159.608 88.6338 167.138 87.2538 166.098C85.8738 165.058 82.6738 159.298 82.6738 159.178C82.6738 159.058 86.5838 124.718 86.5838 124.718L88.4538 124.878C87.6738 128.728 91.7638 159.608 91.7638 159.608Z" fill="#25A368"/>
<path d="M40.2131 140.998C36.4831 146.348 35.5831 171.448 36.5631 177.898C37.35 177.009 38.434 176.437 39.6121 176.29C40.7902 176.142 41.9816 176.43 42.9631 177.098C43.0531 172.678 46.6431 156.888 48.1831 150.298C48.614 148.44 49.705 146.802 51.2531 145.688C57.8431 140.898 69.7931 131.448 71.1131 127.688C73.2431 121.688 71.4131 109.388 66.1131 113.168C61.1131 116.768 43.1931 136.728 40.2131 140.998Z" fill="#263238"/>
<path d="M339.44 14.4781C338.727 14.3052 338.029 14.0778 337.35 13.7981C336.09 13.3081 334.47 12.4781 332.79 11.6581C331.386 10.9651 329.875 10.5154 328.32 10.3281C327.13 10.1881 326.32 10.3281 326.21 10.0081C326.1 9.68811 326.8 9.11811 328.21 8.85811C330.073 8.60488 331.968 8.92951 333.64 9.78811C335.213 10.5959 336.642 11.6567 337.87 12.9281C338.86 13.8481 339.44 14.4781 339.44 14.4781Z" fill="#2ECC82"/>
<path d="M346.779 8.56839L345.259 9.1584C344.359 9.5284 343.259 10.0384 341.959 10.5984C339.429 11.7084 337.279 12.8684 336.959 12.3684C336.789 12.1384 337.129 11.5684 337.849 10.8584C338.818 9.94331 339.942 9.20846 341.169 8.6884C342.428 8.14533 343.81 7.95186 345.169 8.12839C345.578 8.1787 345.98 8.27257 346.369 8.4084L346.779 8.56839Z" fill="#2ECC82"/>
<path d="M325.82 18.8783L325.4 18.6283C325.14 18.4683 324.76 18.2483 324.29 17.9883C323.1 17.3566 321.863 16.8183 320.59 16.3783C317.65 15.3783 315.01 15.5583 314.93 15.1083C314.93 14.9183 315.54 14.5783 316.67 14.4183C318.164 14.2348 319.681 14.4026 321.1 14.9083C322.514 15.4009 323.78 16.2438 324.78 17.3583C325.077 17.6923 325.341 18.0539 325.57 18.4383L325.82 18.8783Z" fill="#2ECC82"/>
<path d="M328.68 12.798L327.68 13.408L325.33 14.728C323.55 15.728 322.19 16.838 321.85 16.528C321.69 16.388 321.85 15.918 322.3 15.298C322.913 14.497 323.691 13.8357 324.58 13.358C325.474 12.8791 326.475 12.6348 327.49 12.648C327.891 12.65 328.29 12.7004 328.68 12.798Z" fill="#2ECC82"/>
<path d="M323.38 9.35808C323.38 9.35808 322.38 9.00808 320.86 8.35808C319.34 7.70808 317.28 6.80808 315.04 6.06808C313.143 5.4248 311.141 5.14656 309.14 5.24808C307.6 5.33808 306.62 5.62808 306.48 5.35808C306.34 5.08808 307.16 4.35808 308.88 3.79808C311.129 3.22035 313.499 3.32126 315.69 4.08808C317.794 4.83622 319.732 5.98394 321.4 7.46808C322.097 8.05884 322.758 8.68992 323.38 9.35808Z" fill="#2ECC82"/>
<path d="M330.139 0.748209L329.569 0.918208C329.209 1.00821 328.689 1.15821 328.079 1.35821C326.538 1.85988 325.029 2.4543 323.559 3.13821C320.139 4.66821 317.939 6.93821 317.459 6.56821C317.249 6.40821 317.529 5.56821 318.399 4.48821C319.566 3.10187 321.028 1.99472 322.679 1.24821C324.333 0.4981 326.149 0.178188 327.959 0.318209C328.499 0.361371 329.035 0.45172 329.559 0.588213L330.139 0.748209Z" fill="#2ECC82"/>
<path d="M98.5105 39.7283C97.7959 39.561 97.0968 39.3335 96.4205 39.0483C95.1605 38.5583 93.5505 37.7283 91.8605 36.9183C90.4625 36.2172 88.9535 35.7638 87.4005 35.5783C86.2105 35.4483 85.4005 35.5783 85.2905 35.2683C85.1805 34.9583 85.8805 34.3783 87.2905 34.1083C89.153 33.8557 91.0482 34.1803 92.7205 35.0383C94.2872 35.8555 95.7148 36.9153 96.9505 38.1783C97.9305 39.1083 98.5105 39.7283 98.5105 39.7283Z" fill="#2ECC82"/>
<path d="M105.85 33.818L104.34 34.408C103.44 34.778 102.34 35.298 101.04 35.848C98.5096 36.958 96.3496 38.118 96.0396 37.618C95.8796 37.388 96.2096 36.818 96.9396 36.118C97.9085 35.2005 99.0326 34.4624 100.26 33.938C101.518 33.393 102.9 33.1995 104.26 33.378C104.671 33.4346 105.076 33.5283 105.47 33.658L105.85 33.818Z" fill="#2ECC82"/>
<path d="M84.8898 44.138L84.4798 43.888C84.2198 43.718 83.8298 43.498 83.3598 43.238C82.1713 42.6064 80.934 42.0713 79.6598 41.638C76.7198 40.578 74.0898 40.808 74.0098 40.368C74.0098 40.168 74.6098 39.828 75.7498 39.668C77.2412 39.4944 78.7526 39.662 80.1698 40.158C81.59 40.6531 82.8578 41.5075 83.8498 42.638C84.1487 42.9694 84.4166 43.3275 84.6498 43.708L84.8898 44.138Z" fill="#2ECC82"/>
<path d="M87.7801 38.0482C87.7801 38.0482 87.3601 38.3082 86.7201 38.6582L84.3701 39.9782C82.6001 40.9782 81.2301 42.0881 80.8901 41.7881C80.7401 41.6381 80.8901 41.1682 81.3501 40.5482C81.9652 39.7522 82.738 39.0917 83.6201 38.6082C84.5184 38.1311 85.5231 37.8902 86.5401 37.9082C86.9574 37.9065 87.3736 37.9535 87.7801 38.0482Z" fill="#2ECC82"/>
</svg>
