<svg width="94" height="94" fill="none" xmlns="http://www.w3.org/2000/svg"><g clip-path="url(#a)"><path d="M19.436 13.725c0-2.432-.02-4.864.028-7.296.073-3.648 2.778-6.413 6.414-6.42a8247.77 8247.77 0 0 1 42.208 0c3.644 0 6.32 2.784 6.393 6.44.049 2.432.029 4.864.04 7.276-.218.835-.967 1.074-1.619 1.43-7.191 3.99-9.6 11.995-5.733 19.267a7.226 7.226 0 0 1 .81 4.864c-.288 1.573-.6 3.15-.774 4.808 1.11-.11 1.75-1.135 2.79-.876.72.766.28 1.5-.093 2.201a87.155 87.155 0 0 1-8.18 12.858c-.469.604-.81 1.447-1.821 1.35-.102-.09-.231-.187-.248-.309-.477-3.57-2.781-5.524-5.94-6.724-1.267-.843-2.935-1.078-3.822-2.51-.291-.729-.223-1.503-.25-2.265a4.206 4.206 0 0 1 .266-1.622c2.669-2.395 3.24-5.529 3.098-8.917.255-1.127.98-2.068 1.288-3.174.724-2.59-.458-4.313-3.122-4.362-4.086-.073-8.171 0-12.285-.024.052.81.59 1.066.94 1.435.769.81 1.1 1.735.497 2.748-.757 1.26-.36 2.307.454 3.324.157.3.234.635.226.973-.316 3.153.766 5.772 3.017 7.949.201.516.299 1.067.287 1.621-.028.778.053 1.573-.259 2.323-.98 1.48-2.757 1.743-4.097 2.675-4.074 1.56-5.734 4.512-5.35 8.84.22 2.396.203 2.558 2.726 2.566h14.888c.936 0 1.88-.08 2.794.215 1.332.9.166 1.537-.324 2.064a95.07 95.07 0 0 1-8.835 8.358 131.338 131.338 0 0 1-25.206 16.364c-1.036-1.277-1.214-2.773-1.214-4.354V41.378a.713.713 0 0 1 .684-.345c2.612.629 4.693 2.197 6.79 3.51a12.47 12.47 0 0 0-.376-1.791c-.87-3.55-.7-6.765.976-10.276 2.976-6.238-.02-13.781-6.143-17.125-.733-.41-1.66-.629-1.923-1.626Z" fill="#2ECC82"/><path d="M59.987 59.554c3.94-4.565 6.945-9.749 9.832-14.998.134-.375.209-.77.222-1.168 1.34-1.864 2.782-2.517 4.479-2.026 0 15.108-.011 30.214-.033 45.317 0 4.865-2.474 7.317-7.34 7.321H26.322c-2.385 0-4.332-.762-5.669-2.837.057-.86.81-1.002 1.381-1.297a125.63 125.63 0 0 0 25.49-17.228c2.79-2.456 5.385-5.075 7.94-7.754.453-.632 1.166-.69 1.822-.657 1.656.09 2.077-.81 2.024-2.25-.02-.838-.125-1.775.676-2.423Z" fill="#1BB16A"/><path d="M74.52 41.353c-1.83-.068-2.98 1.37-4.478 2.027-1.215.406-2.082 1.488-3.592 1.78.34-2.051.615-3.997.992-5.922.296-1.508.255-2.907-.583-4.265-4.604-7.462-1.215-17.158 6.402-20.591.429-.19.838-.406 1.259-.637 9.272-2.987 16.864 2.838 18.897 9.822 3.085 10.604-6.568 20.705-17.338 18.18-.523-.122-1.04-.26-1.56-.394Z" fill="#EAEAEA"/><path d="M19.435 13.725c6.296 2.732 9.742 7.414 9.718 14.406a11.818 11.818 0 0 1-1.996 6.676c-.98 1.44-.972 2.813-.66 4.374.404 1.954.668 3.928 1.036 6.161a514.947 514.947 0 0 0-6.074-3.336c-.631-.344-1.214-.928-2.024-.628C9.717 44.373 2.263 38.026.5 31.346a14.608 14.608 0 0 1 3.605-13.91 14.575 14.575 0 0 1 13.766-4.072l1.563.361Z" fill="#464646"/><path d="M59.987 59.554c-.02.202-.053.405-.056.6-.05 1.467.433 3.32-.28 4.292-.777 1.066-2.753.166-4.183.446-6.53-.024-13.058-.097-19.59-.028-1.51 0-2.089-.381-1.874-1.901.05-.74.05-1.482 0-2.222 0-4.957 1.288-6.765 6.05-8.512 1.056.272 1.62 1.151 2.239 1.913 1.324 1.59 1.51 1.622 2.931.166.375-.47.791-.907 1.243-1.305a1.149 1.149 0 0 1 1.081.24c2.454 2.29 2.454 2.285 4.86-.037.429-.406.81-.88 1.457-.981 3.608 1.143 6.03 3.263 6.122 7.329Z" fill="#383838"/><path d="M43.755 46.19c-3.43-2.104-3.442-5.448-3.24-8.878.426-.56 1.057-.551 1.653-.56a6.355 6.355 0 0 0 4.858-2.095c.928-1.005 1.956-1.11 3.037-.263 1.146.895 2.693 1.313 3.333 2.813.239 3.462.25 6.846-3.211 8.982a4.351 4.351 0 0 1-6.43 0Z" fill="#EFC27B"/><path d="M53.4 37.199c-.454-.292-.911-.572-1.36-.868-1.009-.669-1.936-1.597-3.046-1.958-1.413-.454-1.814 1.273-2.802 1.865-1.79 1.078-3.717 1.042-5.668 1.066-1.426-.9-1.895-2.006-.754-3.466.81-1.021.474-1.824-.461-2.545-.64-.495-1.215-1.046-1.778-1.508.349-.9.903-.596 1.296-.6 4.114-.024 8.228-.024 12.342 0 3.239 0 4.859 2.517 3.543 5.52-.36.872-.871 1.683-1.312 2.494Z" fill="#57575C"/><path d="M46.767 8.111c-2.15 0-4.3-.073-6.442.024-1.41.065-1.45-.689-1.474-1.747-.024-1.058.303-1.552 1.478-1.536 4.43.053 8.86.069 13.289 0 1.405-.02 1.45.693 1.47 1.751.02 1.058-.3 1.573-1.474 1.536-2.28-.077-4.563-.028-6.847-.028Z" fill="#E5E5E6"/><path d="m47.254 53.413-.693-.24c-1.55-.368-2.563-1.264-2.834-2.898l.06-2.452c2.112.164 4.234.164 6.345 0 .02.81.045 1.621.065 2.432-.263 1.727-1.437 2.594-2.944 3.158Z" fill="#EEC07A"/><path d="m43.738 50.271 2.835 2.898c-.26 1.302-1.438 1.865-2.227 2.724-.7.762-1.215.057-1.62-.425-.907-1.054-1.765-2.153-2.64-3.243l3.652-1.954Zm3.516 3.142 2.956-3.142 3.668 1.962c-.931 1.127-1.879 2.25-2.79 3.393-.623.774-1.186.701-1.801 0-.616-.701-1.353-1.484-2.033-2.213Z" fill="#FFF7F7"/><path d="M29.137 6.473c.284 1.379-.405 1.666-1.66 1.679-1.255.012-1.563-.438-1.587-1.622-.029-1.338.441-1.71 1.725-1.69 1.227.012 1.753.389 1.522 1.633Zm3.28-.214c-.25-1.375.656-1.338 1.68-1.415 1.495-.118 1.515.705 1.576 1.828.085 1.601-.911 1.394-1.932 1.46-1.49.097-1.372-.86-1.324-1.873Z" fill="#E5E5E6"/><path d="M50.143 47.819a6.53 6.53 0 0 1-6.345 0c0-.543-.028-1.087-.044-1.622a6.671 6.671 0 0 0 6.434 0c-.016.535-.032 1.079-.045 1.622Z" fill="#ECB55D"/><path d="M47.027 81.041c1.142 0 2.292-.077 3.426 0a3.197 3.197 0 0 1 2.988 3.215 3.155 3.155 0 0 1-3 3.198 60.156 60.156 0 0 1-7.05-.02c-1.741-.122-2.757-1.31-2.875-3.085a3.144 3.144 0 0 1 2.887-3.3c1.199-.097 2.418-.004 3.624-.008Z" fill="#E5E5E6"/><path d="M79.225 17.831c.866.037 1.862-.28 1.802 1.188-.029.632.728.458 1.13.584a4.782 4.782 0 0 1 2.74 1.95c.498.79 1.454 1.982.523 2.573-.72.458-2.26.811-3.15-.64-.587-.96-4.543-1.163-5.479-.45a1.478 1.478 0 0 0-.632 1.589 1.5 1.5 0 0 0 1.385 1.269c1.004.069 2.025.024 3.025.044 2.745.053 4.786 1.682 5.199 4.139.405 2.335-1.032 4.5-3.575 5.387-.612.215-1.251.194-1.284 1.184-.032 1.082-1.032.591-1.591.595-.559.004-1.547.475-1.55-.644 0-1.034-.734-.965-1.325-1.14a4.656 4.656 0 0 1-3.013-2.5c-.291-.608-.988-1.622-.283-1.958.838-.405 2.235-.722 2.94.243 1.53 2.088 3.563.985 5.373 1.022.745 0 1.215-.831 1.081-1.678a1.504 1.504 0 0 0-1.498-1.383c-1.073-.052-2.154 0-3.24-.036-2.567-.098-4.563-1.836-4.907-4.236-.328-2.286 1.065-4.394 3.494-5.27.673-.239 1.377-.23 1.397-1.321.049-.88.976-.34 1.438-.51Z" fill="#5C5C5C"/><path d="M19.663 24.284c-.984.098-1.62 0-2.202-.81-.685-.99-4.584-1.107-5.479-.337a1.43 1.43 0 0 0-.526 1.622 1.593 1.593 0 0 0 1.498 1.167c1.008.04 2.024 0 3.033.028 2.567.045 4.628 1.719 5.04 4.086.406 2.278-.967 4.46-3.336 5.371-.704.268-1.498.255-1.62 1.431-.068.734-2.919.66-3-.101-.117-1.079-.81-1.087-1.486-1.29a4.528 4.528 0 0 1-2.664-2.046c-.433-.738-1.43-1.812-.405-2.408.765-.438 2.142-.701 3.061.523.757 1.013 4.406 1.325 5.45.612a1.464 1.464 0 0 0 .733-1.549 1.577 1.577 0 0 0-1.543-1.361c-1.077-.053-2.158 0-3.239-.037-2.43-.085-4.51-1.865-4.859-4.082-.356-2.31.992-4.5 3.333-5.403.696-.272 1.518-.19 1.62-1.39.068-.734 2.903-.673 3 .093.13 1.082.838 1.025 1.498 1.26a5.06 5.06 0 0 1 3.174 2.943c.519 1.29.405 2.027-1.08 1.678Z" fill="#EAEAEA"/></g><defs><clipPath id="a"><path fill="#fff" d="M0 0h94v94H0z"/></clipPath></defs></svg>