<svg width="286" height="174" viewBox="0 0 286 174" fill="none" xmlns="http://www.w3.org/2000/svg">
<g clip-path="url(#clip0_61_451)">
<path d="M68.2706 31.2895L64.8145 29.4264L61.3209 31.2107L62.0312 27.3516L59.2522 24.5839L63.1404 24.0652L64.9183 20.5671L66.6131 24.1025L70.493 24.7125L67.6517 27.418L68.2706 31.2895Z" fill="#E0E0E0"/>
<path d="M168.154 11.0768L164.702 9.20956L161.205 10.9939L161.915 7.13895L159.136 4.37123L163.024 3.85254L164.802 0.354492L166.501 3.88988L170.377 4.49986L167.535 7.2012L168.154 11.0768Z" fill="#E0E0E0"/>
<path d="M72.9359 165.601L69.4839 163.738L65.9862 165.522L66.6965 161.667L63.9175 158.895L67.8057 158.376L69.5836 154.883L71.2784 158.418L75.1583 159.024L72.3169 161.729L72.9359 165.601Z" fill="#E0E0E0"/>
<path d="M220.674 164.178L217.222 162.315L213.728 164.099L214.435 160.244L211.656 157.472L215.548 156.953L217.326 153.459L219.021 156.995L222.9 157.601L220.055 160.306L220.674 164.178Z" fill="#E0E0E0"/>
<path d="M42.8647 34.0652L41.0743 33.0984L39.2631 34.0237L39.6287 32.0278L38.1914 30.5921L40.2061 30.3224L41.1283 28.509L42.0048 30.3431L44.0154 30.6585L42.5448 32.061L42.8647 34.0652Z" fill="#E0E0E0"/>
<path d="M91.8947 173.979L90.1085 173.016L88.2973 173.937L88.6629 171.941L87.2214 170.506L89.2403 170.236L90.1583 168.427L91.039 170.257L93.0495 170.572L91.5749 171.975L91.8947 173.979Z" fill="#E0E0E0"/>
<path d="M199.625 142.895L197.835 141.928L196.024 142.853L196.389 140.857L194.952 139.421L196.967 139.152L197.889 137.338L198.77 139.172L200.776 139.488L199.306 140.89L199.625 142.895Z" fill="#E0E0E0"/>
<path d="M242.475 33.2396L240.684 32.2727L238.873 33.1981L239.239 31.198L237.801 29.7623L239.816 29.4925L240.738 27.6833L241.615 29.5133L243.625 29.8286L242.155 31.2312L242.475 33.2396Z" fill="#E0E0E0"/>
<path d="M285.277 45.0989H213.982V144.09H285.277V45.0989Z" fill="white"/>
<path d="M285.277 45.0989H213.982V80.93H285.277V45.0989Z" fill="#1F1F1F"/>
<path d="M272.936 89.7104C272.936 89.7727 263.132 89.8225 251.044 89.8225C238.956 89.8225 229.152 89.7727 229.152 89.7104C229.152 89.6482 238.951 89.6025 251.044 89.6025C263.136 89.6025 272.936 89.6399 272.936 89.7104Z" fill="#2F2F2F"/>
<path d="M272.936 99.3498C272.936 99.4079 263.132 99.4577 251.044 99.4577C238.956 99.4577 229.152 99.4079 229.152 99.3498C229.152 99.2917 238.951 99.2419 251.044 99.2419C263.136 99.2419 272.936 99.2917 272.936 99.3498Z" fill="#2F2F2F"/>
<path d="M272.936 109.001C272.936 109.059 263.132 109.109 251.044 109.109C238.956 109.109 229.152 109.059 229.152 109.001C229.152 108.943 238.951 108.889 251.044 108.889C263.136 108.889 272.936 108.939 272.936 109.001Z" fill="#2F2F2F"/>
<path d="M272.753 120.122H229.929C225.717 120.122 222.302 123.533 222.302 127.741V128.533C222.302 132.741 225.717 136.152 229.929 136.152H272.753C276.965 136.152 280.38 132.741 280.38 128.533V127.741C280.38 123.533 276.965 120.122 272.753 120.122Z" fill="#1F1F1F"/>
<path d="M235.362 69.5893C235.667 69.7119 235.925 69.9259 236.102 70.2017C236.279 70.4775 236.366 70.8014 236.351 71.1288C236.36 71.4554 236.272 71.7773 236.098 72.0541C235.916 72.3223 235.661 72.5326 235.362 72.6599C235.009 72.8097 234.629 72.8833 234.245 72.8757H233.414V74.1206H232.073V69.3777H234.241C234.626 69.3661 235.008 69.4383 235.362 69.5893ZM234.789 71.6391C234.922 71.5015 234.996 71.3178 234.996 71.1267C234.996 70.9355 234.922 70.7519 234.789 70.6142C234.611 70.4792 234.389 70.4142 234.166 70.4316H233.418V71.8176H234.179C234.397 71.8309 234.613 71.7678 234.789 71.6391Z" fill="white"/>
<path d="M239.076 72.8548H238.333V74.0997H237.003V69.3775H239.164C239.547 69.3679 239.928 69.4415 240.281 69.5933C240.498 69.6962 240.69 69.8429 240.847 70.0242C241.004 70.2054 241.122 70.4172 241.193 70.6462C241.263 70.8752 241.286 71.1164 241.258 71.3544C241.231 71.5925 241.154 71.8222 241.033 72.0291C240.863 72.2887 240.624 72.4957 240.343 72.6266L241.365 74.1163H239.928L239.076 72.8548ZM239.716 70.6141C239.538 70.4791 239.316 70.4141 239.093 70.4315H238.333V71.8175H239.08C239.303 71.8338 239.524 71.7705 239.704 71.639C239.836 71.5014 239.91 71.3177 239.91 71.1266C239.91 70.9354 239.836 70.7517 239.704 70.6141H239.716Z" fill="white"/>
<path d="M245.81 73.0791V74.1123H242.001V69.3777H245.739V70.4151H243.347V71.2118H245.453V72.216H243.347V73.0832L245.81 73.0791Z" fill="white"/>
<path d="M250.853 74.1123V71.6226L249.632 73.6683H249.038L247.825 71.689V74.133H246.579V69.3777H247.684L249.345 72.1122L250.969 69.3777H252.074V74.1164L250.853 74.1123Z" fill="white"/>
<path d="M253.038 69.3777H254.38V74.1164H253.038V69.3777Z" fill="white"/>
<path d="M255.879 73.6309C255.675 73.4136 255.518 73.1567 255.417 72.8762C255.316 72.5957 255.274 72.2976 255.294 72.0002V69.3777H256.635V71.9628C256.635 72.7222 256.934 73.0998 257.537 73.0998C258.139 73.0998 258.43 72.7222 258.43 71.9628V69.3777H259.751V72.0043C259.77 72.3017 259.728 72.5999 259.627 72.8804C259.527 73.1609 259.369 73.4177 259.165 73.6351C258.699 74.0085 258.12 74.2121 257.522 74.2121C256.925 74.2121 256.345 74.0085 255.879 73.6351V73.6309Z" fill="white"/>
<path d="M264.944 74.1123V71.6226L263.727 73.6683H263.128L261.915 71.689V74.133H260.669V69.3777H261.774L263.436 72.1122L265.06 69.3777H266.165V74.1164L264.944 74.1123Z" fill="white"/>
<path d="M240.464 129.762C240.106 129.571 239.809 129.284 239.608 128.932C239.401 128.575 239.292 128.17 239.292 127.758C239.292 127.345 239.401 126.94 239.608 126.583C239.813 126.24 240.109 125.96 240.464 125.774C240.847 125.572 241.276 125.47 241.71 125.48C242.065 125.473 242.418 125.542 242.744 125.683C243.047 125.81 243.315 126.008 243.525 126.26L242.869 126.866C242.735 126.701 242.566 126.57 242.374 126.48C242.182 126.39 241.972 126.345 241.76 126.347C241.504 126.343 241.252 126.406 241.029 126.529C240.818 126.645 240.644 126.818 240.526 127.027C240.406 127.252 240.345 127.503 240.348 127.758C240.344 128.012 240.405 128.264 240.526 128.488C240.643 128.7 240.817 128.874 241.029 128.99C241.253 129.112 241.505 129.174 241.76 129.169C241.972 129.171 242.183 129.125 242.375 129.034C242.567 128.944 242.736 128.811 242.869 128.646L243.525 129.252C243.315 129.506 243.048 129.706 242.744 129.837C242.414 129.973 242.059 130.041 241.702 130.036C241.272 130.051 240.846 129.957 240.464 129.762Z" fill="white"/>
<path d="M247.198 126.919C247.336 127.069 247.442 127.246 247.509 127.439C247.576 127.632 247.603 127.836 247.588 128.039V129.961H246.603V128.172C246.62 127.958 246.558 127.746 246.429 127.575C246.363 127.507 246.284 127.454 246.195 127.419C246.107 127.385 246.013 127.37 245.918 127.376C245.809 127.37 245.699 127.388 245.597 127.427C245.495 127.466 245.402 127.526 245.324 127.604C245.165 127.795 245.086 128.04 245.104 128.288V129.948H244.119V125.309H245.104V126.944C245.238 126.812 245.4 126.71 245.577 126.645C245.77 126.574 245.974 126.539 246.18 126.541C246.366 126.533 246.552 126.561 246.727 126.626C246.902 126.691 247.062 126.791 247.198 126.919Z" fill="white"/>
<path d="M249.166 129.807C248.891 129.666 248.661 129.45 248.502 129.185C248.344 128.911 248.261 128.6 248.261 128.284C248.261 127.968 248.344 127.658 248.502 127.384C248.661 127.12 248.892 126.906 249.166 126.766C249.465 126.618 249.793 126.542 250.126 126.542C250.459 126.542 250.787 126.618 251.085 126.766C251.359 126.907 251.587 127.121 251.746 127.384C251.904 127.658 251.987 127.968 251.987 128.284C251.987 128.6 251.904 128.911 251.746 129.185C251.588 129.449 251.359 129.665 251.085 129.807C250.786 129.952 250.458 130.027 250.126 130.027C249.793 130.027 249.465 129.952 249.166 129.807ZM250.749 128.977C250.917 128.79 251.003 128.544 250.99 128.293C250.997 128.169 250.979 128.045 250.938 127.928C250.897 127.811 250.832 127.704 250.749 127.612C250.667 127.53 250.57 127.465 250.463 127.421C250.356 127.377 250.242 127.354 250.126 127.354C250.01 127.354 249.896 127.377 249.789 127.421C249.682 127.465 249.585 127.53 249.503 127.612C249.418 127.703 249.353 127.81 249.311 127.927C249.268 128.044 249.25 128.169 249.258 128.293C249.251 128.417 249.269 128.542 249.311 128.66C249.353 128.777 249.418 128.885 249.503 128.977C249.67 129.14 249.893 129.23 250.126 129.23C250.359 129.23 250.582 129.14 250.749 128.977Z" fill="white"/>
<path d="M253.287 129.807C253.013 129.664 252.783 129.449 252.623 129.185C252.467 128.91 252.386 128.6 252.386 128.284C252.386 127.969 252.467 127.659 252.623 127.384C252.782 127.12 253.012 126.906 253.287 126.765C253.585 126.613 253.916 126.536 254.251 126.541C254.583 126.535 254.912 126.612 255.206 126.765C255.481 126.906 255.711 127.12 255.871 127.384C256.026 127.659 256.107 127.969 256.107 128.284C256.107 128.6 256.026 128.91 255.871 129.185C255.711 129.449 255.481 129.664 255.206 129.807C254.91 129.957 254.583 130.032 254.251 130.027C253.917 130.032 253.586 129.957 253.287 129.807ZM254.87 128.977C255.039 128.79 255.127 128.544 255.115 128.292C255.121 128.168 255.103 128.044 255.061 127.928C255.019 127.811 254.954 127.704 254.87 127.612C254.79 127.528 254.694 127.462 254.587 127.418C254.481 127.374 254.366 127.352 254.251 127.355C254.135 127.352 254.019 127.373 253.912 127.417C253.805 127.462 253.708 127.528 253.628 127.612C253.542 127.703 253.476 127.81 253.433 127.927C253.391 128.044 253.372 128.168 253.379 128.292C253.372 128.417 253.391 128.542 253.434 128.66C253.477 128.778 253.543 128.885 253.628 128.977C253.708 129.06 253.805 129.126 253.913 129.169C254.02 129.213 254.135 129.234 254.251 129.23C254.367 129.233 254.483 129.211 254.59 129.166C254.698 129.121 254.794 129.054 254.874 128.969L254.87 128.977Z" fill="white"/>
<path d="M257.084 129.923C256.856 129.874 256.638 129.785 256.44 129.662L256.768 128.956C256.937 129.064 257.123 129.143 257.317 129.193C257.522 129.253 257.734 129.284 257.948 129.284C258.363 129.284 258.571 129.185 258.571 128.977C258.57 128.929 258.552 128.882 258.521 128.844C258.491 128.807 258.448 128.781 258.401 128.77C258.231 128.715 258.055 128.679 257.877 128.662C257.646 128.63 257.417 128.581 257.192 128.517C257.012 128.464 256.85 128.364 256.723 128.226C256.582 128.063 256.511 127.852 256.523 127.637C256.52 127.432 256.586 127.232 256.71 127.068C256.85 126.89 257.037 126.755 257.25 126.678C257.517 126.583 257.798 126.537 258.081 126.541C258.321 126.541 258.561 126.567 258.796 126.62C259.002 126.662 259.201 126.735 259.385 126.836L259.057 127.537C258.76 127.368 258.423 127.281 258.081 127.284C257.918 127.274 257.756 127.304 257.607 127.371C257.563 127.391 257.524 127.423 257.496 127.463C257.468 127.503 257.452 127.551 257.45 127.599C257.45 127.65 257.467 127.699 257.497 127.738C257.528 127.778 257.571 127.807 257.62 127.819C257.796 127.876 257.977 127.916 258.16 127.94C258.39 127.975 258.617 128.024 258.841 128.085C259.018 128.138 259.177 128.237 259.302 128.371C259.439 128.533 259.509 128.741 259.498 128.952C259.501 129.155 259.435 129.352 259.311 129.512C259.165 129.688 258.974 129.82 258.758 129.894C258.482 129.99 258.191 130.035 257.898 130.027C257.624 130.027 257.35 129.992 257.084 129.923Z" fill="white"/>
<path d="M263.415 128.562H260.852C260.892 128.765 261.01 128.943 261.18 129.06C261.37 129.187 261.595 129.251 261.824 129.243C261.984 129.244 262.143 129.217 262.293 129.164C262.434 129.107 262.563 129.022 262.671 128.915L263.195 129.479C263.017 129.668 262.8 129.815 262.558 129.91C262.317 130.005 262.058 130.045 261.799 130.027C261.447 130.033 261.099 129.958 260.781 129.807C260.5 129.668 260.264 129.452 260.1 129.185C259.945 128.911 259.863 128.601 259.863 128.286C259.863 127.971 259.945 127.662 260.1 127.388C260.255 127.125 260.479 126.91 260.748 126.766C261.03 126.622 261.343 126.548 261.66 126.548C261.977 126.548 262.289 126.622 262.571 126.766C262.837 126.906 263.058 127.119 263.207 127.38C263.364 127.664 263.443 127.985 263.436 128.309C263.436 128.309 263.431 128.396 263.415 128.562ZM261.118 127.471C260.962 127.602 260.863 127.788 260.839 127.99H262.501C262.476 127.789 262.377 127.605 262.223 127.475C262.068 127.347 261.871 127.279 261.67 127.284C261.469 127.278 261.273 127.344 261.118 127.471Z" fill="white"/>
<path d="M224.699 91.4987C224.546 91.5005 224.398 91.4458 224.284 91.3452L223.062 90.2705C222.938 90.1604 222.863 90.0057 222.854 89.8403C222.844 89.675 222.9 89.5125 223.01 89.3887C223.121 89.2649 223.276 89.1899 223.441 89.1801C223.607 89.1704 223.769 89.2268 223.893 89.3368L224.653 90.0049L226.373 88.1044C226.486 87.9919 226.637 87.9269 226.797 87.9226C226.956 87.9183 227.111 87.9752 227.23 88.0814C227.348 88.1877 227.422 88.3353 227.435 88.494C227.448 88.6526 227.399 88.8102 227.3 88.9343L225.164 91.2871C225.106 91.3532 225.035 91.4063 224.954 91.4428C224.874 91.4792 224.787 91.4983 224.699 91.4987Z" fill="#1F1F1F"/>
<path d="M224.699 101.146C224.547 101.148 224.399 101.094 224.284 100.993L223.063 99.9224C223.001 99.8679 222.951 99.8018 222.915 99.7279C222.879 99.654 222.857 99.5737 222.852 99.4916C222.842 99.3259 222.899 99.1629 223.009 99.0385C223.119 98.9142 223.274 98.8386 223.44 98.8285C223.606 98.8184 223.769 98.8745 223.894 98.9846L224.654 99.6527L226.373 97.7563C226.427 97.6903 226.492 97.6358 226.567 97.5962C226.642 97.5565 226.724 97.5324 226.809 97.5255C226.893 97.5186 226.978 97.529 227.058 97.5559C227.139 97.5829 227.212 97.626 227.276 97.6825C227.339 97.739 227.389 97.8077 227.425 97.8845C227.461 97.9613 227.48 98.0446 227.482 98.1291C227.485 98.2137 227.47 98.2979 227.438 98.3765C227.407 98.4551 227.36 98.5265 227.3 98.5862L225.165 100.939C225.107 101.005 225.035 101.058 224.955 101.094C224.874 101.129 224.787 101.147 224.699 101.146Z" fill="#1F1F1F"/>
<path d="M224.699 110.798C224.546 110.8 224.398 110.745 224.284 110.645L223.062 109.57C222.938 109.46 222.863 109.305 222.854 109.14C222.844 108.974 222.9 108.812 223.01 108.688C223.121 108.564 223.276 108.489 223.441 108.479C223.607 108.47 223.769 108.526 223.893 108.636L224.653 109.304L226.373 107.404C226.486 107.291 226.637 107.226 226.797 107.222C226.956 107.218 227.111 107.274 227.23 107.381C227.348 107.487 227.422 107.635 227.435 107.793C227.448 107.952 227.399 108.109 227.3 108.234L225.164 110.586C225.106 110.653 225.035 110.706 224.954 110.742C224.874 110.779 224.787 110.798 224.699 110.798Z" fill="#1F1F1F"/>
<path d="M253.881 54.6716L254.907 56.7505L257.209 57.0825L255.543 58.705L255.938 60.9914L253.881 59.9125L251.825 60.9914L252.216 58.705L250.554 57.0825L252.851 56.7505L253.881 54.6716Z" fill="white"/>
<path d="M245.802 54.6716L246.828 56.7505L249.129 57.0825L247.463 58.705L247.858 60.9914L245.802 59.9125L243.745 60.9914L244.136 58.705L242.474 57.0825L244.771 56.7505L245.802 54.6716Z" fill="white"/>
<path d="M252.332 63.2448L249.631 61.7883L246.898 63.1826L247.455 60.1659L245.278 58.004L248.323 57.5973L249.71 54.8628L251.04 57.6264L254.072 58.1036L251.85 60.2157L252.332 63.2448Z" fill="white"/>
<path d="M244.746 57.8213L248.161 57.369L249.719 54.3025L251.206 57.4022L254.608 57.9375L252.116 60.3068L252.66 63.7053L249.631 62.0704L246.566 63.6348L247.185 60.2529L244.746 57.8213ZM253.536 58.2694L250.874 57.8545L249.706 55.4229L248.485 57.8254L245.81 58.174L247.716 60.0745L247.235 62.7385L249.636 61.4936L252.008 62.7758L251.592 60.116L253.536 58.2694Z" fill="#1F1F1F"/>
<path d="M285.273 144.09C285.273 143.218 285.232 103.611 285.174 45.0989L285.273 45.1984H213.986L214.094 45.0906C214.094 82.1292 214.094 116.4 214.094 144.081L214.007 143.994L285.302 144.081L214.007 144.169H213.915V144.081C213.915 116.4 213.915 82.1292 213.915 45.0906V44.9827H214.032H285.319H285.415V45.0781C285.319 103.611 285.273 143.239 285.273 144.09Z" fill="#2F2F2F"/>
<path d="M71.594 45.0989H0.29834V144.09H71.594V45.0989Z" fill="white"/>
<path d="M71.594 45.0989H0.29834V80.93H71.594V45.0989Z" fill="#1F1F1F"/>
<path d="M59.2523 89.7104C59.2523 89.7727 49.4487 89.8225 37.3605 89.8225C25.2723 89.8225 15.4688 89.7727 15.4688 89.7104C15.4688 89.6482 25.2681 89.6025 37.3605 89.6025C49.4529 89.6025 59.2523 89.6399 59.2523 89.7104Z" fill="#2F2F2F"/>
<path d="M59.2523 99.3498C59.2523 99.4079 49.4487 99.4577 37.3605 99.4577C25.2723 99.4577 15.4688 99.4079 15.4688 99.3498C15.4688 99.2917 25.2681 99.2419 37.3605 99.2419C49.4529 99.2419 59.2523 99.2917 59.2523 99.3498Z" fill="#2F2F2F"/>
<path d="M59.2523 109.001C59.2523 109.059 49.4487 109.109 37.3605 109.109C25.2723 109.109 15.4688 109.059 15.4688 109.001C15.4688 108.943 25.2681 108.889 37.3605 108.889C49.4529 108.889 59.2523 108.939 59.2523 109.001Z" fill="#2F2F2F"/>
<path d="M59.0694 120.122H16.2455C12.0333 120.122 8.61865 123.533 8.61865 127.741V128.533C8.61865 132.741 12.0333 136.152 16.2455 136.152H59.0694C63.2816 136.152 66.6962 132.741 66.6962 128.533V127.741C66.6962 123.533 63.2816 120.122 59.0694 120.122Z" fill="#1F1F1F"/>
<path d="M29.3268 72.0874C29.4827 72.2968 29.5632 72.5527 29.5552 72.8135C29.5624 73.0038 29.5198 73.1927 29.4317 73.3615C29.3436 73.5303 29.2129 73.6732 29.0526 73.7762C28.6125 74.0272 28.1086 74.144 27.6028 74.1123H25.0439V69.3777H27.4699C27.9532 69.3465 28.4345 69.4638 28.849 69.7139C28.9984 69.8123 29.1205 69.9468 29.2041 70.1049C29.2876 70.2631 29.3298 70.4397 29.3268 70.6185C29.3285 70.8319 29.271 71.0416 29.1606 71.2243C29.0435 71.4031 28.8797 71.5465 28.687 71.6392C28.9403 71.7215 29.1631 71.8775 29.3268 72.0874ZM26.3691 70.3446V71.2575H27.3079C27.7607 71.2575 27.985 71.1039 27.985 70.7969C27.985 70.4898 27.7607 70.3446 27.3079 70.3446H26.3691ZM28.201 72.6642C28.201 72.3447 27.9642 72.1828 27.4948 72.1828H26.3691V73.1455H27.4948C27.9642 73.1455 28.201 72.9837 28.201 72.6642Z" fill="white"/>
<path d="M33.4308 73.1911H31.4244L31.0547 74.1123H29.6838L31.7609 69.3735H33.0818L35.2004 74.1123H33.8046L33.4308 73.1911ZM33.0361 72.2035L32.4297 70.6889L31.819 72.2035H33.0361Z" fill="white"/>
<path d="M36.1267 74.0667C35.8128 73.993 35.5145 73.8637 35.2461 73.685L35.6864 72.6974C35.9157 72.8449 36.1646 72.9594 36.4258 73.0377C36.6946 73.1226 36.9748 73.166 37.2566 73.1663C37.7717 73.1663 38.0293 73.0377 38.0293 72.7804C38.0285 72.7133 38.0069 72.6482 37.9675 72.5939C37.9281 72.5396 37.8727 72.499 37.8091 72.4775C37.5797 72.3895 37.3435 72.3201 37.1029 72.27C36.7985 72.2092 36.4987 72.1274 36.2057 72.0252C35.969 71.9408 35.7575 71.7981 35.5909 71.6102C35.4094 71.3905 35.3174 71.1104 35.3333 70.826C35.33 70.5465 35.4127 70.2728 35.5701 70.0417C35.7482 69.7944 35.9931 69.603 36.2763 69.4898C36.6442 69.3477 37.0368 69.28 37.4311 69.2906C37.7415 69.2896 38.0509 69.3244 38.3533 69.3944C38.6347 69.4553 38.905 69.5589 39.155 69.7014L38.7396 70.6973C38.34 70.4669 37.8884 70.3412 37.427 70.3322C37.2261 70.317 37.025 70.3572 36.8454 70.4484C36.79 70.4783 36.7438 70.5227 36.7116 70.5767C36.6795 70.6308 36.6625 70.6925 36.6626 70.7554C36.6634 70.8199 36.6848 70.8824 36.7237 70.9339C36.7625 70.9854 36.8168 71.0232 36.8786 71.0417C37.1048 71.1279 37.3384 71.1932 37.5765 71.2368C37.8808 71.2996 38.1806 71.3828 38.4738 71.4857C38.7093 71.5723 38.9203 71.7147 39.0886 71.9007C39.2776 72.1216 39.373 72.4074 39.3544 72.6974C39.3576 72.973 39.2748 73.2427 39.1177 73.4692C38.9388 73.7175 38.6922 73.909 38.4073 74.0211C38.0405 74.1679 37.6475 74.2385 37.2525 74.2286C36.8718 74.2239 36.4933 74.1695 36.1267 74.0667Z" fill="white"/>
<path d="M39.9653 69.3777H41.3071V74.1164H39.9653V69.3777Z" fill="white"/>
<path d="M43.2882 73.8922C42.9014 73.6926 42.5778 73.3895 42.3536 73.0167C42.1329 72.6291 42.0168 72.1908 42.0168 71.7449C42.0168 71.2989 42.1329 70.8607 42.3536 70.473C42.5775 70.099 42.9011 69.7944 43.2882 69.5933C43.7017 69.3813 44.1611 69.2744 44.6258 69.2821C45.028 69.2755 45.4271 69.3533 45.7973 69.5104C46.1369 69.657 46.4351 69.8851 46.6655 70.1743L45.8097 70.9461C45.679 70.7736 45.5101 70.6336 45.3163 70.5372C45.1224 70.4407 44.9089 70.3904 44.6923 70.3901C44.4529 70.3862 44.2166 70.4448 44.0069 70.5602C43.8066 70.6694 43.6433 70.8355 43.5375 71.0374C43.4228 71.2545 43.3656 71.4973 43.3713 71.7428C43.3661 71.9895 43.4233 72.2335 43.5375 72.4524C43.6445 72.6534 43.8075 72.8191 44.0069 72.9296C44.2166 73.0449 44.4529 73.1036 44.6923 73.0997C44.9089 73.0994 45.1224 73.049 45.3163 72.9526C45.5101 72.8561 45.679 72.7161 45.8097 72.5437L46.6655 73.3155C46.4339 73.6035 46.136 73.8312 45.7973 73.9794C45.4271 74.1365 45.028 74.2142 44.6258 74.2076C44.1606 74.216 43.7006 74.1076 43.2882 73.8922Z" fill="white"/>
<path d="M26.776 129.761C26.4191 129.57 26.1227 129.282 25.9202 128.931C25.7159 128.574 25.6084 128.169 25.6084 127.757C25.6084 127.345 25.7159 126.941 25.9202 126.583C26.1318 126.254 26.4271 125.988 26.776 125.811C27.1246 125.634 27.5073 125.535 27.898 125.519C28.2886 125.503 28.6781 125.572 29.0399 125.72C29.3407 125.848 29.6069 126.046 29.8167 126.297L29.1604 126.902C29.0271 126.739 28.8585 126.607 28.6671 126.518C28.4757 126.429 28.2665 126.385 28.0554 126.388C27.8002 126.382 27.5481 126.444 27.3243 126.566C27.1135 126.682 26.9393 126.855 26.8216 127.064C26.7 127.288 26.6385 127.54 26.643 127.795C26.6374 128.049 26.699 128.301 26.8216 128.525C26.9366 128.727 27.1047 128.893 27.3077 129.006C27.5315 129.129 27.7836 129.19 28.0388 129.185C28.2507 129.187 28.4603 129.142 28.6518 129.051C28.8433 128.96 29.0116 128.827 29.1437 128.662L29.8001 129.268C29.5924 129.524 29.324 129.725 29.0191 129.853C28.6901 129.989 28.3368 130.057 27.9806 130.052C27.5613 130.055 27.1475 129.956 26.776 129.761Z" fill="white"/>
<path d="M33.5139 126.919C33.6508 127.07 33.7556 127.247 33.822 127.44C33.8884 127.632 33.915 127.836 33.9003 128.039V129.961H32.9199V128.172C32.9354 127.958 32.8719 127.745 32.7413 127.575C32.676 127.506 32.5964 127.452 32.5081 127.418C32.4198 127.384 32.3249 127.369 32.2303 127.376C32.1215 127.37 32.0127 127.388 31.9111 127.427C31.8095 127.466 31.7173 127.527 31.6405 127.604C31.4793 127.794 31.4002 128.04 31.4203 128.288V129.948H30.4358V125.309H31.4203V126.944C31.55 126.813 31.7056 126.709 31.8772 126.641C32.0713 126.57 32.2769 126.535 32.4837 126.537C32.6724 126.528 32.8611 126.556 33.0383 126.622C33.2154 126.688 33.3773 126.789 33.5139 126.919Z" fill="white"/>
<path d="M35.4788 129.807C35.2043 129.665 34.9743 129.449 34.8141 129.185C34.6591 128.91 34.5776 128.6 34.5776 128.284C34.5776 127.969 34.6591 127.659 34.8141 127.384C34.9757 127.122 35.2054 126.908 35.4788 126.766C35.7769 126.613 36.1078 126.536 36.4425 126.542C36.7747 126.536 37.103 126.613 37.398 126.766C37.6712 126.907 37.8998 127.121 38.0584 127.384C38.2163 127.658 38.2993 127.968 38.2993 128.284C38.2993 128.6 38.2163 128.911 38.0584 129.185C37.9004 129.449 37.6717 129.665 37.398 129.807C37.1026 129.958 36.7743 130.034 36.4425 130.027C36.1081 130.034 35.7772 129.958 35.4788 129.807ZM37.0615 128.977C37.2293 128.79 37.3159 128.544 37.3024 128.293C37.309 128.169 37.2911 128.045 37.2498 127.928C37.2084 127.812 37.1445 127.704 37.0615 127.612C36.9819 127.529 36.8857 127.463 36.7791 127.418C36.6726 127.374 36.5579 127.352 36.4425 127.355C36.3257 127.351 36.2095 127.372 36.1014 127.417C35.9933 127.461 35.8958 127.528 35.8153 127.612C35.7315 127.704 35.6668 127.811 35.6247 127.928C35.5827 128.045 35.5641 128.169 35.5702 128.293C35.5582 128.544 35.6463 128.79 35.8153 128.977C35.8962 129.061 35.9939 129.127 36.1019 129.171C36.21 129.214 36.326 129.235 36.4425 129.23C36.5582 129.232 36.6731 129.21 36.7796 129.165C36.8862 129.12 36.9822 129.053 37.0615 128.969V128.977Z" fill="white"/>
<path d="M39.6081 129.807C39.3328 129.666 39.1026 129.45 38.9435 129.185C38.8196 128.985 38.7385 128.761 38.7049 128.528C38.6714 128.295 38.6863 128.058 38.7487 127.831C38.811 127.604 38.9195 127.392 39.0674 127.209C39.2152 127.026 39.3993 126.875 39.6081 126.766C39.9065 126.618 40.2348 126.542 40.5677 126.542C40.9005 126.542 41.2289 126.618 41.5273 126.766C41.8005 126.907 42.0291 127.121 42.1878 127.384C42.3456 127.658 42.4286 127.968 42.4286 128.284C42.4286 128.6 42.3456 128.911 42.1878 129.185C42.0297 129.449 41.801 129.665 41.5273 129.807C41.2281 129.952 40.9001 130.027 40.5677 130.027C40.2353 130.027 39.9072 129.952 39.6081 129.807ZM41.1908 128.977C41.3565 128.792 41.443 128.549 41.4317 128.301C41.4383 128.177 41.4204 128.053 41.3791 127.937C41.3378 127.82 41.2738 127.712 41.1908 127.62C41.1107 127.536 41.0139 127.47 40.9065 127.426C40.7992 127.381 40.6838 127.36 40.5677 127.363C40.4516 127.36 40.3362 127.381 40.2288 127.426C40.1215 127.47 40.0247 127.536 39.9446 127.62C39.8609 127.712 39.7961 127.819 39.754 127.936C39.712 128.053 39.6934 128.177 39.6995 128.301C39.6875 128.553 39.7756 128.799 39.9446 128.986C40.025 129.069 40.122 129.134 40.2293 129.178C40.3366 129.222 40.4519 129.242 40.5677 129.239C40.6847 129.24 40.8007 129.217 40.9081 129.17C41.0155 129.124 41.1118 129.055 41.1908 128.969V128.977Z" fill="white"/>
<path d="M43.3963 129.923C43.1695 129.874 42.9531 129.785 42.7566 129.662L43.0848 128.961C43.2547 129.065 43.4396 129.144 43.6331 129.193C43.8368 129.253 44.048 129.284 44.2603 129.284C44.6758 129.284 44.8835 129.185 44.8835 128.977C44.8827 128.928 44.8654 128.881 44.8345 128.844C44.8036 128.806 44.7608 128.78 44.7131 128.77C44.5444 128.715 44.3703 128.679 44.1939 128.662C43.9606 128.631 43.7301 128.583 43.5043 128.517C43.3258 128.463 43.1641 128.364 43.0349 128.23C42.8935 128.066 42.8219 127.853 42.8355 127.637C42.8324 127.432 42.8983 127.232 43.0224 127.068C43.1636 126.89 43.3522 126.755 43.5666 126.678C43.8329 126.583 44.1145 126.536 44.3974 126.541C44.6378 126.541 44.8775 126.567 45.1119 126.62C45.3184 126.662 45.5173 126.735 45.7018 126.836L45.3736 127.537C45.0764 127.368 44.7395 127.281 44.3974 127.284C44.2349 127.275 44.0725 127.305 43.9239 127.371C43.8791 127.391 43.8406 127.423 43.8127 127.463C43.7849 127.503 43.7687 127.551 43.766 127.6C43.7662 127.65 43.783 127.699 43.8138 127.738C43.8446 127.778 43.8877 127.807 43.9363 127.819C44.1137 127.876 44.2958 127.916 44.4805 127.94C44.7101 127.976 44.9375 128.024 45.1618 128.085C45.3376 128.139 45.4956 128.239 45.6187 128.376C45.6879 128.454 45.7408 128.545 45.7743 128.644C45.8078 128.743 45.8213 128.848 45.814 128.952C45.8171 129.155 45.7512 129.352 45.627 129.512C45.4813 129.688 45.2902 129.82 45.0745 129.894C44.7982 129.99 44.5069 130.035 44.2147 130.027C43.9386 130.027 43.6636 129.993 43.3963 129.923Z" fill="white"/>
<path d="M49.7395 128.562H47.1765C47.2158 128.764 47.332 128.942 47.5005 129.06C47.691 129.186 47.916 129.25 48.1444 129.243C48.3045 129.247 48.4638 129.22 48.6138 129.164C48.7563 129.107 48.8862 129.022 48.996 128.915L49.5194 129.484C49.3402 129.671 49.1219 129.817 48.88 129.911C48.6381 130.005 48.3784 130.045 48.1195 130.027C47.7689 130.035 47.4214 129.96 47.1059 129.807C46.8233 129.67 46.5867 129.454 46.4246 129.185C46.268 128.911 46.1855 128.602 46.1855 128.286C46.1855 127.971 46.268 127.662 46.4246 127.388C46.5804 127.124 46.8061 126.909 47.0768 126.766C47.3602 126.614 47.6775 126.537 47.999 126.541C48.3129 126.537 48.6229 126.611 48.9004 126.757C49.166 126.897 49.3853 127.11 49.5318 127.371C49.6827 127.657 49.7544 127.978 49.7395 128.301C49.7395 128.301 49.7395 128.4 49.7395 128.562ZM47.4299 127.471C47.2767 127.602 47.1788 127.786 47.1557 127.986H48.8173C48.7901 127.786 48.6912 127.603 48.539 127.471C48.383 127.342 48.185 127.274 47.9824 127.28C47.7812 127.275 47.5848 127.343 47.4299 127.471Z" fill="white"/>
<path d="M11.0116 91.4988C10.859 91.4997 10.7114 91.4452 10.5962 91.3452L9.37905 90.2705C9.25511 90.1605 9.18001 90.0057 9.17027 89.8404C9.16053 89.675 9.21695 89.5125 9.32713 89.3887C9.4373 89.2649 9.59219 89.1899 9.75774 89.1802C9.92328 89.1705 10.0859 89.2268 10.2099 89.3369L10.97 90.0049L12.6898 88.1045C12.8039 87.9987 12.9535 87.9394 13.1091 87.9382C13.2647 87.9371 13.4151 87.9942 13.5308 88.0982C13.6464 88.2023 13.7189 88.3458 13.7339 88.5005C13.7489 88.6553 13.7055 88.81 13.612 88.9344L11.481 91.2871C11.4217 91.353 11.3494 91.4058 11.2686 91.4422C11.1877 91.4787 11.1002 91.4979 11.0116 91.4988Z" fill="#1F1F1F"/>
<path d="M11.0117 101.146C10.8591 101.147 10.7114 101.093 10.5963 100.993L9.37914 99.9223C9.3175 99.8678 9.2672 99.8018 9.23113 99.7279C9.19505 99.6539 9.1739 99.5737 9.16889 99.4916C9.15876 99.3258 9.21497 99.1629 9.32514 99.0385C9.43531 98.9141 9.59043 98.8386 9.75636 98.8285C9.92229 98.8184 10.0855 98.8745 10.2099 98.9846L10.966 99.6692L12.6858 97.7729C12.7377 97.7038 12.8035 97.6462 12.8789 97.6039C12.9543 97.5616 13.0378 97.5354 13.1239 97.5271C13.21 97.5187 13.2969 97.5284 13.379 97.5554C13.4612 97.5825 13.5368 97.6263 13.6011 97.6842C13.6654 97.742 13.7169 97.8126 13.7524 97.8914C13.7878 97.9702 13.8065 98.0556 13.8071 98.142C13.8078 98.2284 13.7904 98.314 13.7561 98.3933C13.7218 98.4727 13.6714 98.544 13.6079 98.6028L11.4769 100.956C11.4169 101.018 11.3445 101.067 11.2644 101.1C11.1843 101.133 11.0982 101.149 11.0117 101.146Z" fill="#1F1F1F"/>
<path d="M11.0116 110.798C10.859 110.799 10.7114 110.744 10.5962 110.645L9.37905 109.57C9.31768 109.515 9.26766 109.449 9.23183 109.375C9.19601 109.302 9.17509 109.222 9.17027 109.14C9.16545 109.058 9.17682 108.976 9.20373 108.898C9.23064 108.821 9.27257 108.749 9.32713 108.688C9.38168 108.627 9.44778 108.577 9.52167 108.541C9.59555 108.505 9.67577 108.484 9.75774 108.479C9.83971 108.475 9.92182 108.486 9.9994 108.513C10.077 108.54 10.1485 108.582 10.2099 108.636L10.97 109.304L12.6898 107.404C12.7418 107.335 12.8075 107.277 12.883 107.235C12.9584 107.192 13.0418 107.166 13.1279 107.158C13.214 107.15 13.3009 107.159 13.3831 107.186C13.4653 107.213 13.5409 107.257 13.6052 107.315C13.6695 107.373 13.721 107.443 13.7564 107.522C13.7919 107.601 13.8106 107.686 13.8112 107.773C13.8118 107.859 13.7945 107.945 13.7602 108.024C13.7259 108.104 13.6754 108.175 13.612 108.234L11.481 110.586C11.4217 110.652 11.3494 110.705 11.2685 110.742C11.1877 110.778 11.1002 110.797 11.0116 110.798Z" fill="#1F1F1F"/>
<path d="M38.6485 63.2448L35.9484 61.7883L33.215 63.1826L33.7675 60.1659L31.595 58.004L34.6357 57.5973L36.0273 54.8628L37.3525 57.6264L40.3849 58.1036L38.1625 60.2157L38.6485 63.2448Z" fill="white"/>
<path d="M71.5941 144.09C71.5941 143.219 71.5567 103.611 71.4986 45.0991L71.5941 45.1987L0.306735 45.207L0.41474 45.0991C0.41474 82.1377 0.41474 116.409 0.39397 144.09L0.306735 144.003L71.6024 144.09L0.306735 144.177H0.219501V144.09C0.219501 116.409 0.219501 82.1377 0.19873 45.0991V44.9912H0.306735H71.5941H71.6938V45.0867C71.6356 103.611 71.5983 143.239 71.5941 144.09Z" fill="#2F2F2F"/>
<path d="M227.661 32.5051C227.879 32.1029 228.015 31.6613 228.06 31.206C228.105 30.7508 228.059 30.2911 227.924 29.854C227.789 29.4168 227.568 29.011 227.274 28.6604C226.98 28.3097 226.618 28.0213 226.211 27.812C226.341 26.688 226.033 25.5571 225.351 24.6539C224.669 23.7507 223.665 23.1446 222.547 22.9612C221.475 22.8325 220.391 23.1147 219.315 23.0317C218.239 22.9487 217.309 22.5338 216.287 22.347C215.265 22.1603 214.09 22.2682 213.379 23.0317C212.602 23.8616 212.719 25.2683 213.338 26.2434C213.957 27.2186 214.954 27.8659 215.922 28.4883C215.631 28.4878 215.351 28.5928 215.132 28.7836C214.913 28.9745 214.772 29.2382 214.733 29.5257C214.673 30.1153 214.833 30.7065 215.182 31.1855C215.71 31.9936 216.451 32.6405 217.323 33.0549C218.195 33.4693 219.165 33.6351 220.125 33.5341L222.838 33.4553C223.216 33.714 223.641 33.8949 224.089 33.9872C224.538 34.0795 225 34.0815 225.449 33.993C225.899 33.9045 226.326 33.7273 226.705 33.4718C227.085 33.2163 227.41 32.8876 227.661 32.5051Z" fill="#2F2F2F"/>
<path d="M219.091 35.1814C218.813 35.2061 218.534 35.127 218.311 34.9593C218.087 34.7915 217.933 34.5469 217.878 34.2726C217.836 33.9954 217.87 33.7118 217.978 33.4527C218.085 33.1937 218.262 32.9692 218.489 32.8037C218.952 32.4861 219.512 32.3394 220.072 32.3887C220.63 32.436 221.178 32.5631 221.7 32.7663C222.521 33.0361 223.306 33.4039 224.039 33.8618C224.303 34.0164 224.53 34.2276 224.703 34.4801C224.789 34.6075 224.839 34.7556 224.848 34.909C224.857 35.0623 224.824 35.2152 224.753 35.3515C224.529 35.7167 224.026 35.7665 223.599 35.7665C221.993 35.7738 220.389 35.6349 218.809 35.3515" fill="#2ECC82"/>
<path d="M218.198 34.2686C217.878 31.2312 213.587 28.5049 211.734 28.9904C211.263 28.1142 210.472 27.4529 209.525 27.1438C208.578 26.8348 207.549 26.9017 206.65 27.3306L201.599 25.094C200.735 24.7123 199.829 24.3181 198.89 24.4011C197.951 24.4841 196.996 25.231 197.029 26.1646C195.206 25.4384 192.925 27.2767 193.257 29.2145C192.985 29.2763 192.729 29.3931 192.504 29.5576C192.279 29.7221 192.09 29.931 191.949 30.1712C191.807 30.4114 191.717 30.678 191.683 30.9545C191.648 31.231 191.671 31.5115 191.749 31.7789C189.484 32.3391 187.332 33.2822 185.385 34.5674C184.555 35.1027 183.753 35.7624 183.487 36.6961C183.221 37.6297 183.815 38.8497 184.787 38.858C184.352 39.0031 183.967 39.2704 183.68 39.6281C183.393 39.9857 183.215 40.4185 183.167 40.8746C182.415 40.3518 181.36 41.3269 181.477 42.2357C181.593 43.1444 182.37 43.8001 183.117 44.3104C183.865 44.8208 184.692 45.3769 184.991 46.24C184.918 46.3262 184.829 46.3968 184.728 46.4475C184.628 46.4981 184.518 46.5278 184.405 46.5346C182.386 46.6342 180.729 48.1405 180.704 50.1571C180.704 50.3438 180.704 50.5181 180.704 50.6717C180.704 51.5929 181.335 52.9207 181.742 53.7423C182.768 55.8171 183.882 56.3938 185.543 58.0246C184.156 58.8545 185.228 63.7177 190.599 63.6431C196.132 70.5478 200.589 74.8965 207.713 80.1457C208.731 80.8967 210.056 81.6561 211.178 81.0752C211.842 81.9051 213.014 82.1707 214.065 82.0213C215.105 81.8075 216.101 81.4188 217.01 80.8718C218.078 81.2611 219.24 81.3105 220.337 81.0133C221.435 80.7161 222.413 80.0869 223.137 79.212C224.08 79.1793 225.006 78.951 225.855 78.5417C226.705 78.1323 227.46 77.5509 228.072 76.8344C230.17 77.5688 232.746 76.0377 233.103 73.8467C234.279 71.4717 235.054 68.9184 235.396 66.2904C236.75 66.8921 238.345 65.6431 238.669 64.1949C238.993 62.7468 238.445 61.2903 237.905 59.8919C238.611 60.7633 240.177 60.2239 240.613 59.1948C241.049 58.1657 240.705 56.9789 240.269 55.9457C239.635 54.4307 238.819 52.9983 237.838 51.68C238.549 49.8418 237.868 46.6508 236.929 44.9163C233.14 37.916 229.58 34.2396 218.206 34.2313" fill="#2F2F2F"/>
<path d="M205.956 39.4641C206.343 38.8434 206.951 38.3913 207.657 38.1983C208.363 38.0052 209.116 38.0853 209.765 38.4226L224.874 43.651C229.31 45.9332 228.716 52.8422 226.245 57.1743C223.499 61.9877 219.959 67.7555 217.147 70.8428C211.489 77.0671 204.735 73.7723 204.735 73.7723L201.412 78.7767L197.569 84.6316C195.816 83.005 185.19 71.5855 185.19 71.5855L205.956 39.4641Z" fill="#FFBF9D"/>
<path d="M212.366 62.6887C212.395 62.6306 213.06 62.9169 214.107 63.4273C214.368 63.5642 214.63 63.668 214.78 63.5269C214.966 63.2883 215.076 62.9991 215.095 62.697C215.253 61.9556 215.419 61.1769 215.594 60.3608C216.329 57.0412 217.031 54.3979 217.164 54.427C217.297 54.456 216.811 57.1657 216.076 60.4728C215.889 61.3027 215.71 62.058 215.536 62.8007C215.496 63.1963 215.318 63.5652 215.033 63.8423C214.941 63.9048 214.836 63.9455 214.726 63.9613C214.616 63.9771 214.503 63.9676 214.397 63.9335C214.238 63.8821 214.086 63.811 213.945 63.7219C212.939 63.1534 212.333 62.7385 212.366 62.6887Z" fill="#2F2F2F"/>
<path d="M204.735 73.7681C204.735 73.7681 200.722 71.6934 197.918 65.884C197.918 65.884 195.646 71.7805 203.144 76.1624L204.735 73.7681Z" fill="#FF9A6C"/>
<path d="M215.901 49.5014C215.635 49.7006 214.758 48.9495 213.546 48.3478C212.333 47.7461 211.223 47.4557 211.228 47.1279C211.228 46.9702 211.552 46.8291 212.083 46.8167C212.775 46.8293 213.455 46.9987 214.072 47.3121C214.688 47.6255 215.226 48.0747 215.643 48.6258C215.926 49.0657 216.001 49.4059 215.901 49.5014Z" fill="#2F2F2F"/>
<path d="M224.911 55.7922C224.599 55.9001 224.08 55.2403 223.299 54.7092C222.518 54.178 221.741 53.8793 221.733 53.568C221.733 53.4145 221.987 53.2651 222.419 53.2527C222.975 53.2555 223.517 53.4325 223.968 53.7589C224.43 54.0731 224.782 54.5225 224.977 55.0453C225.11 55.4519 225.04 55.7341 224.911 55.7922Z" fill="#2F2F2F"/>
<path d="M226.934 62.581C227.675 61.4959 228.02 60.1888 227.91 58.8796C227.819 58.1742 227.549 57.4937 227.532 56.78C227.495 55.2405 228.596 53.9375 229.148 52.5018C229.496 51.5687 229.616 50.5662 229.498 49.5776C229.38 48.5889 229.028 47.6425 228.471 46.817C227.532 45.4559 226.057 44.4849 225.33 43.0036C224.79 41.9081 224.703 40.6217 224.084 39.5636C222.909 37.4888 220.225 36.9245 217.853 36.717C216.574 37.7959 216.607 39.5346 216.607 41.2068C216.617 42.0428 216.808 42.8668 217.167 43.6223C217.525 44.3778 218.043 45.0471 218.684 45.5846C219.689 46.4145 221.085 47.0535 221.284 48.3357C221.492 49.6843 220.188 50.8544 220.171 52.2155C220.15 54.1658 222.585 55.1741 223.374 56.9584C223.98 58.3319 223.515 59.9128 223.249 61.3942C222.983 62.8756 223.075 64.6889 224.338 65.5105C225.312 64.636 226.183 63.6531 226.934 62.581Z" fill="#2F2F2F"/>
<path d="M218.763 41.0033C215.715 38.7356 212.256 37.0798 208.577 36.1276C207.485 35.8454 206.301 35.6296 205.254 36.057C204.336 36.4305 203.672 37.2355 203.098 38.0488C201.312 40.5842 200.099 44.3976 199.36 47.4184L201.146 51.5679C203.983 52.7423 205.89 47.7628 207.29 45.5843C208.411 45.8075 209.572 45.7119 210.641 45.3084C211.71 44.905 212.645 44.2098 213.338 43.3021C214.357 43.3527 215.375 43.1721 216.314 42.774C217.254 42.3759 218.091 41.7705 218.763 41.0033Z" fill="#2F2F2F"/>
<path d="M201.777 50.6342C202.725 49.1238 201.154 47.5677 199.381 47.4183C198.409 47.3354 197.304 47.7711 196.294 49.3645C193.586 53.6053 198.409 55.4518 198.496 55.3315C198.583 55.2111 200.668 52.3978 201.777 50.6342Z" fill="#FFBF9D"/>
<path d="M198.222 52.9C198.222 52.871 198.114 52.9 197.952 52.9C197.727 52.8638 197.526 52.7418 197.391 52.5598C197.046 52.1075 197.125 51.1572 197.59 50.3771C197.813 50.0068 198.115 49.6907 198.475 49.4518C198.599 49.3449 198.748 49.2698 198.908 49.2329C199.068 49.1961 199.234 49.1986 199.393 49.2402C199.493 49.2715 199.578 49.3369 199.634 49.4249C199.691 49.513 199.714 49.618 199.7 49.7215C199.7 49.875 199.601 49.9414 199.621 49.9663C199.642 49.9912 199.754 49.9663 199.833 49.7547C199.875 49.6338 199.875 49.5022 199.833 49.3812C199.772 49.2186 199.65 49.0861 199.493 49.0119C199.296 48.9368 199.084 48.9126 198.875 48.9416C198.667 48.9706 198.469 49.0519 198.3 49.1779C197.883 49.4292 197.535 49.7799 197.287 50.1987C196.768 51.0701 196.693 52.149 197.196 52.7175C197.288 52.8231 197.404 52.9066 197.533 52.9619C197.662 53.0172 197.803 53.0428 197.943 53.037C198.147 52.9955 198.23 52.9166 198.222 52.9Z" fill="#FF9A6C"/>
<path d="M196.527 54.286C196.527 54.286 196.527 54.286 196.477 54.3316C196.427 54.3767 196.371 54.4145 196.311 54.4437C196.068 54.563 195.792 54.5924 195.53 54.5267C195.112 54.4374 194.717 54.2621 194.371 54.0121C194.147 53.859 193.939 53.6854 193.748 53.4934C193.523 53.2813 193.334 53.0348 193.187 52.7631H193.253C192.949 53.0688 192.57 53.2903 192.154 53.4057C191.738 53.5211 191.299 53.5266 190.88 53.4216C190.461 53.3166 190.077 53.1047 189.765 52.8067C189.452 52.5087 189.223 52.1348 189.099 51.7216L189.178 51.7589C188.92 51.8533 188.635 51.8428 188.385 51.7299C188.132 51.6159 187.917 51.4315 187.766 51.1988C187.603 50.9538 187.526 50.6621 187.546 50.3689C187.566 50.073 187.662 49.7873 187.824 49.5389C188.161 49.0352 188.666 48.6664 189.249 48.4974C189.846 48.3341 190.461 48.2435 191.081 48.2277L191.023 48.3273C190.93 48.0985 190.886 47.8528 190.895 47.6062C190.904 47.3596 190.964 47.1175 191.072 46.8957C191.283 46.4339 191.626 46.0443 192.057 45.7753C192.503 45.5165 192.996 45.346 193.507 45.2732C194.021 45.1997 194.54 45.1595 195.06 45.1529L194.99 45.24C194.957 44.9775 194.98 44.7109 195.057 44.4577C195.134 44.2046 195.264 43.9706 195.438 43.7711C195.786 43.3512 196.252 43.0449 196.776 42.8914C197.781 42.601 198.811 42.7794 199.767 42.9371L199.684 42.9869C199.881 42.4828 200.199 42.0346 200.61 41.6813C201.021 41.3281 201.511 41.0805 202.04 40.9603C202.568 40.84 203.118 40.8506 203.641 40.9912C204.165 41.1318 204.646 41.3981 205.042 41.7669L204.93 41.7918C205.117 41.3937 205.393 41.0437 205.736 40.7689C206.08 40.4941 206.482 40.3017 206.912 40.2067C207.308 40.1035 207.721 40.0872 208.124 40.1589C208.527 40.2305 208.91 40.3883 209.246 40.6216H209.159C209.419 40.2813 209.753 40.0045 210.136 39.8118C210.519 39.6192 210.94 39.5159 211.369 39.5096C211.744 39.4919 212.119 39.55 212.471 39.6805C212.822 39.811 213.144 40.0111 213.417 40.2689H213.338C213.629 39.9139 214.002 39.636 214.426 39.4598C214.793 39.2948 215.185 39.1937 215.585 39.161C216.225 39.0902 216.87 39.2363 217.417 39.576L217.575 39.6755C217.625 39.7129 217.671 39.7544 217.712 39.7917C217.795 39.8596 217.874 39.9316 217.949 40.0075C218.062 40.1295 218.167 40.2599 218.261 40.3976C218.327 40.5096 218.377 40.5967 218.418 40.659L218.468 40.7503C218.445 40.7249 218.424 40.6971 218.406 40.6673L218.236 40.4142C218.14 40.2809 218.034 40.1547 217.92 40.0365C217.846 39.9623 217.766 39.893 217.683 39.8291L217.546 39.717L217.388 39.6216C216.847 39.304 216.217 39.1727 215.594 39.2481C215.203 39.2876 214.821 39.3913 214.464 39.5552C214.056 39.7249 213.697 39.9947 213.421 40.3395L213.384 40.3851L213.346 40.3436C213.083 40.0971 212.772 39.9068 212.433 39.7841C212.094 39.6614 211.733 39.6089 211.373 39.6299C210.958 39.6409 210.551 39.7474 210.183 39.9409C209.816 40.1345 209.498 40.41 209.255 40.7461L209.217 40.8001L209.167 40.7627C208.844 40.544 208.478 40.3977 208.092 40.334C207.707 40.2702 207.313 40.2905 206.937 40.3934C206.528 40.4845 206.145 40.668 205.818 40.9298C205.491 41.1916 205.229 41.5248 205.051 41.9038L205.009 41.9951L204.939 41.9287C204.557 41.5805 204.097 41.3298 203.598 41.1981C203.098 41.0665 202.574 41.0578 202.071 41.1729C201.567 41.2879 201.099 41.5233 200.706 41.8587C200.314 42.1942 200.008 42.6197 199.817 43.0989V43.157H199.754C198.799 42.9993 197.794 42.8292 196.846 43.1072C196.358 43.2546 195.924 43.5434 195.6 43.9371C195.439 44.1203 195.319 44.3357 195.247 44.5689C195.175 44.8021 195.154 45.0478 195.185 45.2898V45.3728H195.098C194.067 45.4019 193.021 45.4558 192.169 45.9704C191.762 46.2207 191.438 46.586 191.239 47.0202C191.138 47.2235 191.081 47.4456 191.072 47.6722C191.063 47.8987 191.101 48.1247 191.185 48.3356L191.226 48.431H191.122C190.514 48.4448 189.91 48.5326 189.324 48.6924C188.77 48.8483 188.29 49.1953 187.969 49.6717C187.811 49.8862 187.721 50.1426 187.709 50.4086C187.697 50.6745 187.765 50.938 187.903 51.1656C188.024 51.3822 188.216 51.5514 188.446 51.6456C188.676 51.7398 188.931 51.7534 189.17 51.6842L189.228 51.6635L189.249 51.7257C189.385 52.151 189.636 52.5306 189.974 52.8233C190.311 53.116 190.723 53.3104 191.164 53.3856C191.537 53.4418 191.919 53.4115 192.279 53.2972C192.639 53.1828 192.968 52.9873 193.241 52.7258L193.282 52.6843L193.307 52.7341C193.449 52.999 193.629 53.2411 193.843 53.4519C194.03 53.6423 194.234 53.8146 194.454 53.9665C194.791 54.2161 195.175 54.3953 195.584 54.4935C195.838 54.56 196.107 54.5395 196.348 54.4354C196.456 54.3441 196.522 54.2777 196.527 54.286Z" fill="#1F1F1F"/>
<path d="M184.144 38.7088C184.138 38.5892 184.146 38.4695 184.168 38.3519C184.224 38.0096 184.348 37.6822 184.534 37.3892C184.824 36.9157 185.262 36.5511 185.78 36.3518C186.129 36.2224 186.501 36.167 186.872 36.1892C187.243 36.2113 187.605 36.3105 187.936 36.4805H187.87C188.235 35.6899 188.887 35.0671 189.693 34.7377C190.138 34.5468 190.618 34.4534 191.102 34.4638C191.608 34.5108 192.108 34.6053 192.597 34.746C192.847 34.8054 193.105 34.8278 193.361 34.8124C193.621 34.7936 193.873 34.714 194.097 34.58C194.562 34.3227 194.952 33.9036 195.484 33.6463C196.042 33.3944 196.663 33.3155 197.267 33.4198C197.87 33.5241 198.429 33.8068 198.87 34.2314H198.749C199.036 33.6853 199.445 33.2125 199.944 32.8494C200.443 32.4864 201.019 32.2429 201.627 32.1378C202.236 32.0327 202.86 32.0688 203.452 32.2433C204.045 32.4179 204.589 32.7261 205.042 33.1443H204.926C205.263 32.5576 205.761 32.0799 206.362 31.7675C206.962 31.4552 207.64 31.3215 208.314 31.3822C208.988 31.4429 209.631 31.6955 210.166 32.1101C210.701 32.5246 211.105 33.0837 211.332 33.721L211.261 33.6795C211.95 33.5835 212.651 33.6373 213.317 33.8372C213.913 34.0045 214.486 34.2471 215.02 34.5592C215.896 35.0528 216.675 35.6993 217.322 36.468C217.744 36.9532 218.083 37.5041 218.327 38.0988C218.392 38.2549 218.445 38.4158 218.485 38.5801C218.503 38.6344 218.516 38.6899 218.526 38.7461C218.526 38.7461 218.46 38.522 218.294 38.1154C218.035 37.5325 217.689 36.9924 217.268 36.5137C216.618 35.7618 215.841 35.131 214.971 34.6505C214.441 34.3444 213.874 34.1086 213.284 33.9493C212.634 33.7602 211.952 33.7107 211.282 33.804H211.232V33.7542C211.008 33.1467 210.615 32.6156 210.1 32.2235C209.584 31.8314 208.967 31.5947 208.321 31.541C207.675 31.4874 207.027 31.6192 206.454 31.9209C205.88 32.2225 205.405 32.6815 205.084 33.2438L205.038 33.3268L204.968 33.2646C204.53 32.8555 204.003 32.5533 203.428 32.3819C202.854 32.2104 202.247 32.1743 201.656 32.2765C201.065 32.3786 200.506 32.6161 200.023 32.9705C199.539 33.3248 199.145 33.7862 198.87 34.3186L198.82 34.4099L198.749 34.3352C198.329 33.9363 197.8 33.6719 197.228 33.5758C196.657 33.4796 196.07 33.5562 195.542 33.7957C195.04 34.0323 194.649 34.4472 194.159 34.7252C193.917 34.866 193.645 34.9497 193.365 34.97C193.097 34.9833 192.829 34.9581 192.568 34.8954C192.086 34.7565 191.592 34.662 191.093 34.6132C190.627 34.5984 190.164 34.6847 189.735 34.8663C188.955 35.1769 188.32 35.7694 187.957 36.5261L187.932 36.5759L187.886 36.551C187.569 36.3849 187.22 36.2866 186.863 36.2623C186.505 36.238 186.146 36.2883 185.809 36.4099C185.296 36.5954 184.859 36.9438 184.563 37.4017C184.377 37.6871 184.247 38.0054 184.181 38.3394C184.152 38.5843 184.152 38.7088 184.144 38.7088Z" fill="#1F1F1F"/>
<path d="M222.348 67.9794C222.359 67.9084 222.385 67.8406 222.425 67.7805C222.464 67.7204 222.516 67.6694 222.576 67.6308C222.72 67.5359 222.886 67.4788 223.058 67.4648C223.292 67.4565 223.525 67.4946 223.744 67.5769C224.01 67.68 224.29 67.7456 224.574 67.7719C224.912 67.7677 225.238 67.6541 225.505 67.4482C225.818 67.216 226.082 66.9241 226.282 66.5893C226.51 66.2449 226.697 65.8507 226.992 65.4689C227.545 64.6888 228.438 64.1411 229.252 63.4356C229.678 63.0759 230.027 62.6342 230.278 62.1368C230.413 61.8798 230.492 61.5966 230.507 61.3065C230.523 61.0165 230.476 60.7265 230.369 60.4563C230.072 59.9084 229.709 59.3984 229.289 58.9376C229.08 58.6775 228.916 58.3844 228.803 58.0703C228.702 57.7408 228.685 57.3914 228.753 57.0537C228.929 56.3921 229.174 55.7509 229.485 55.1408C229.626 54.8314 229.719 54.5027 229.763 54.1656C229.797 53.8293 229.72 53.4911 229.543 53.2029C229.244 52.8406 228.902 52.5159 228.525 52.2361C228.339 52.0775 228.181 51.8897 228.056 51.6801C227.935 51.4649 227.875 51.2212 227.881 50.9746C227.924 50.512 228.033 50.0578 228.205 49.626C228.348 49.2119 228.401 48.7717 228.359 48.3355C228.324 47.9199 228.202 47.5161 228.003 47.1497C227.803 46.7832 227.53 46.4622 227.2 46.2068C226.576 45.7305 225.796 45.5068 225.015 45.5803H224.923V45.489C225.053 44.8217 225.038 44.1346 224.88 43.4734C224.723 42.8123 224.426 42.1923 224.009 41.6548C223.66 41.2079 223.227 40.8331 222.734 40.551C222.319 40.307 221.863 40.1384 221.388 40.0531C220.718 39.9398 220.029 40.0204 219.403 40.2855C219.237 40.3527 219.077 40.4332 218.925 40.5262L218.804 40.5884H218.759L218.796 40.5593L218.912 40.4847C219.064 40.3858 219.224 40.301 219.39 40.2315C220.019 39.9436 220.718 39.8482 221.401 39.9577C221.887 40.0364 222.354 40.2038 222.78 40.4515C223.287 40.7352 223.734 41.1142 224.097 41.5677C224.527 42.1168 224.835 42.7515 225 43.4293C225.165 44.107 225.183 44.8121 225.052 45.4973L224.977 45.4184C225.793 45.3352 226.61 45.5651 227.262 46.0616C227.613 46.3263 227.905 46.6611 228.12 47.0448C228.334 47.4284 228.467 47.8524 228.508 48.2899C228.551 48.7442 228.497 49.2023 228.35 49.6343C228.185 50.0534 228.077 50.4932 228.031 50.9414C228.037 51.1653 228.094 51.3848 228.197 51.5837C228.299 51.7827 228.446 51.956 228.625 52.0909C229.016 52.3754 229.368 52.7102 229.671 53.0867C229.865 53.404 229.949 53.7754 229.912 54.1449C229.871 54.498 229.774 54.8425 229.626 55.1657C229.32 55.7667 229.077 56.3981 228.903 57.0495C228.835 57.3618 228.85 57.6863 228.944 57.9915C229.052 58.2915 229.207 58.5719 229.406 58.8214C229.833 59.291 230.2 59.8124 230.498 60.3733C230.622 60.6635 230.672 60.9801 230.643 61.2945C230.616 61.5975 230.533 61.8928 230.398 62.1659C230.14 62.6786 229.779 63.1333 229.339 63.502C228.508 64.2158 227.619 64.7469 227.079 65.5021C226.809 65.8756 226.597 66.2656 226.365 66.6142C226.147 66.9565 225.865 67.2538 225.534 67.4897C225.25 67.7027 224.904 67.8164 224.55 67.8134C224.264 67.7864 223.984 67.7165 223.719 67.6059C223.508 67.521 223.282 67.4787 223.054 67.4814C222.888 67.4898 222.726 67.5397 222.585 67.6267C222.466 67.7118 222.382 67.8371 222.348 67.9794Z" fill="#1F1F1F"/>
<path d="M234.831 67.3859C234.825 67.3502 234.825 67.3138 234.831 67.278L234.885 66.9668C234.935 66.6888 235.009 66.2905 235.105 65.7801C235.2 65.2697 235.333 64.6389 235.416 63.9003C235.547 63.0716 235.44 62.223 235.109 61.4521C234.91 61.0372 234.615 60.6222 234.353 60.2073C234.215 59.9803 234.107 59.7362 234.033 59.4811C233.954 59.2114 233.943 58.9264 234 58.6512C234.112 58.091 234.453 57.6055 234.615 57.0578C234.698 56.7874 234.698 56.4982 234.615 56.2279C234.513 55.9458 234.366 55.6823 234.179 55.4478C233.98 55.1988 233.805 54.9321 233.655 54.6511C233.509 54.3482 233.46 54.0077 233.514 53.6759C233.696 53.0314 233.964 52.4145 234.311 51.8418C234.466 51.5499 234.558 51.2291 234.581 50.8999C234.586 50.7361 234.559 50.573 234.5 50.4199C234.442 50.2668 234.354 50.1267 234.241 50.0077C233.784 49.5057 233.074 49.2774 232.546 48.7629C232.286 48.4935 232.116 48.1498 232.06 47.7795C232.018 47.4252 232.018 47.0673 232.06 46.713C232.089 46.3645 232.126 46.0201 232.122 45.6839C232.126 45.3558 232.048 45.032 231.894 44.742C231.57 44.1652 230.93 43.8872 230.34 43.6424C229.721 43.4385 229.154 43.1014 228.679 42.6548C228.283 42.1863 227.977 41.649 227.777 41.0697C227.607 40.5271 227.386 40.0019 227.117 39.5012C226.525 38.6731 225.701 38.0379 224.749 37.6754C223.968 37.3679 223.127 37.2416 222.29 37.3061C221.658 37.3613 221.039 37.5139 220.454 37.7584C220.086 37.9184 219.733 38.11 219.399 38.331L219.133 38.497L219.037 38.5509L219.124 38.4845L219.382 38.302C219.713 38.0706 220.065 37.8706 220.433 37.7044C221.021 37.4462 221.646 37.2824 222.286 37.2189C223.133 37.1462 223.985 37.2682 224.778 37.5758C225.754 37.9406 226.599 38.5861 227.208 39.4306C227.505 39.9225 227.753 40.4423 227.948 40.9825C228.145 41.5447 228.444 42.0663 228.828 42.522C229.287 42.949 229.832 43.2718 230.427 43.4681C230.736 43.5906 231.034 43.7362 231.321 43.9038C231.628 44.0758 231.882 44.329 232.055 44.6357C232.228 44.9424 232.313 45.2907 232.301 45.6425C232.3 45.9918 232.281 46.3409 232.243 46.6881C232.201 47.0299 232.201 47.3754 232.243 47.7172C232.29 48.0565 232.444 48.3719 232.683 48.6177C233.173 49.1114 233.884 49.3397 234.382 49.8625C234.635 50.1329 234.771 50.4924 234.76 50.8625C234.736 51.2123 234.638 51.5531 234.474 51.8626C234.187 52.4767 233.792 53.0327 233.688 53.6552C233.636 53.96 233.681 54.2735 233.817 54.5515C233.961 54.8246 234.129 55.0843 234.32 55.3274C234.519 55.5753 234.674 55.8562 234.777 56.1573C234.87 56.4559 234.87 56.7758 234.777 57.0744C234.602 57.6512 234.266 58.1284 234.158 58.6553C234.076 59.1721 234.195 59.7006 234.49 60.1326C234.739 60.5724 235.038 60.9625 235.242 61.4023C235.571 62.1885 235.673 63.0509 235.537 63.892C235.446 64.6348 235.296 65.2614 235.196 65.7759C235.097 66.2905 235.005 66.6764 234.947 66.9585C234.918 67.0872 234.897 67.1867 234.881 67.2656C234.869 67.3077 234.852 67.3481 234.831 67.3859Z" fill="#1F1F1F"/>
<path d="M233.576 59.9873L233.659 60.0288C233.736 60.0805 233.799 60.1503 233.842 60.2321C233.907 60.3982 233.93 60.5777 233.91 60.7548C233.89 60.932 233.827 61.1016 233.726 61.2488C233.575 61.4529 233.398 61.6358 233.198 61.7923C232.964 61.9729 232.755 62.1852 232.579 62.4231C232.413 62.715 232.325 63.0455 232.326 63.3816C232.326 63.7426 232.326 64.1285 232.284 64.5393C232.269 64.7599 232.204 64.974 232.093 65.1653C231.982 65.3567 231.829 65.5201 231.645 65.6431C231.263 65.8962 230.814 66.0041 230.419 66.2655C230.041 66.5625 229.791 66.9933 229.721 67.4689C229.609 67.9544 229.576 68.4814 229.431 69.0084C229.363 69.2792 229.247 69.5353 229.086 69.7636C228.912 69.9928 228.693 70.1836 228.442 70.3238C227.923 70.5744 227.382 70.7758 226.826 70.9254C226.265 71.0704 225.779 71.4197 225.464 71.9047C225.227 72.4594 225.059 73.0403 224.961 73.6351C224.883 73.9425 224.751 74.2335 224.57 74.494C224.378 74.7457 224.131 74.9501 223.848 75.0916C223.297 75.3272 222.722 75.4985 222.132 75.6019C221.578 75.7082 221.051 75.9256 220.583 76.241C220.159 76.5932 219.71 76.9149 219.241 77.2037C219 77.3367 218.731 77.4107 218.456 77.4194C218.191 77.4192 217.928 77.3729 217.679 77.2825C217.446 77.1998 217.209 77.1305 216.969 77.075C216.735 77.0371 216.498 77.0301 216.262 77.0543C215.815 77.1282 215.38 77.2593 214.966 77.4443C214.551 77.6145 214.169 77.7846 213.778 77.9132C213.072 78.1477 212.308 78.1477 211.602 77.9132C211.07 77.7474 210.583 77.4637 210.177 77.0833C209.921 76.8422 209.705 76.5621 209.537 76.2534C209.478 76.1471 209.428 76.0361 209.387 75.9215C209.594 76.3396 209.876 76.7165 210.218 77.0335C210.623 77.4002 211.104 77.6723 211.626 77.8302C212.319 78.042 213.061 78.0275 213.745 77.7887C214.127 77.6601 214.509 77.49 214.921 77.3157C215.343 77.1194 215.79 76.9799 216.25 76.9007C216.495 76.8656 216.744 76.8656 216.989 76.9007C217.236 76.9548 217.479 77.0241 217.716 77.1082C217.952 77.1937 218.201 77.2373 218.452 77.2369C218.706 77.2257 218.955 77.1561 219.179 77.0335C219.64 76.7439 220.081 76.4237 220.499 76.075C220.981 75.7484 221.524 75.5226 222.095 75.4111C222.666 75.3069 223.224 75.137 223.756 74.9048C224.019 74.7757 224.248 74.5866 224.425 74.3529C224.596 74.1099 224.72 73.8368 224.791 73.5479C224.892 72.9399 225.066 72.3464 225.31 71.7802C225.463 71.5107 225.68 71.2828 225.941 71.1163C226.202 70.9556 226.481 70.8274 226.772 70.7346C227.316 70.6035 227.848 70.4272 228.363 70.2076C228.595 70.0747 228.799 69.897 228.961 69.6847C229.112 69.4695 229.223 69.2293 229.289 68.9752C229.431 68.4689 229.464 67.9461 229.58 67.4481C229.66 66.9405 229.932 66.483 230.34 66.1701C230.756 65.8921 231.213 65.7883 231.587 65.5518C231.758 65.4394 231.9 65.2892 232.004 65.113C232.108 64.9367 232.17 64.7391 232.185 64.5352C232.235 64.1451 232.21 63.7551 232.235 63.3899C232.239 63.0375 232.336 62.6925 232.517 62.3899C232.698 62.1468 232.914 61.9315 233.157 61.7508C233.357 61.6024 233.534 61.4264 233.684 61.228C233.784 61.0892 233.848 60.9284 233.872 60.7593C233.896 60.5903 233.879 60.4179 233.821 60.257C233.768 60.1454 233.682 60.0517 233.576 59.9873Z" fill="#1F1F1F"/>
<path d="M208.449 61.9375C208.6 61.8473 208.78 61.8184 208.951 61.8571C209.123 61.8957 209.273 61.9988 209.371 62.145C209.994 63.0704 210.617 63.9957 211.244 64.9252L211.456 65.2323C210.953 65.6661 210.394 66.0316 209.795 66.3194C209.534 66.4401 209.251 66.5027 208.964 66.5027C208.677 66.5027 208.393 66.4401 208.133 66.3194C207.736 66.0733 207.427 65.707 207.252 65.2737C206.966 64.5725 206.733 63.8546 207.053 63.1699C207.286 62.6678 208.008 62.2197 208.449 61.9375Z" fill="#FF9A6C"/>
<path d="M194.599 51.875C194.318 51.7987 194.026 51.7693 193.735 51.7879C192.926 51.8241 192.157 52.1479 191.567 52.7008C191.154 53.0763 190.834 53.5421 190.632 54.0618C190.411 54.6621 190.334 55.3061 190.408 55.9415C190.484 56.6457 190.74 57.3186 191.151 57.896C191.597 58.5174 192.222 58.9891 192.942 59.2487C193.657 59.5156 194.433 59.576 195.181 59.423C195.878 59.2792 196.519 58.9361 197.025 58.4354C197.452 58.0158 197.776 57.5039 197.974 56.9391C198.171 56.3743 198.236 55.7718 198.163 55.178C198.085 54.726 197.917 54.2942 197.669 53.9083C197.489 53.6152 197.27 53.3485 197.017 53.1157C196.855 52.9697 196.673 52.8481 196.477 52.7547C196.41 52.7176 196.337 52.695 196.261 52.6883C196.521 52.8086 196.758 52.9729 196.963 53.1738C197.521 53.7195 197.895 54.4262 198.03 55.1946C198.09 55.7656 198.02 56.3428 197.824 56.8826C197.628 57.4224 197.313 57.9108 196.9 58.3109C196.416 58.7831 195.806 59.1058 195.143 59.2404C194.429 59.3808 193.69 59.3204 193.008 59.0661C192.325 58.8203 191.732 58.375 191.305 57.7881C190.91 57.2368 190.661 56.5943 190.582 55.9208C190.507 55.3118 190.575 54.6937 190.782 54.1158C190.97 53.6163 191.269 53.1664 191.658 52.8004C192.224 52.261 192.956 51.9303 193.735 51.8626C194.3 51.8252 194.595 51.8999 194.599 51.875Z" fill="#E0E0E0"/>
<path d="M211.419 55.1408C211.265 55.381 211.023 55.5512 210.745 55.6148C210.467 55.6785 210.175 55.6304 209.932 55.4811C209.808 55.4152 209.699 55.3252 209.611 55.2166C209.524 55.108 209.458 54.9829 209.42 54.8487C209.381 54.7145 209.369 54.5739 209.386 54.4352C209.403 54.2965 209.447 54.1625 209.516 54.0412C209.671 53.8019 209.913 53.6324 210.19 53.5688C210.468 53.5052 210.76 53.5527 211.003 53.7009C211.127 53.766 211.237 53.8555 211.326 53.964C211.414 54.0725 211.48 54.1978 211.519 54.3323C211.557 54.4668 211.569 54.6078 211.551 54.7468C211.534 54.8857 211.489 55.0198 211.419 55.1408Z" fill="#2F2F2F"/>
<path d="M220.101 61.195C219.946 61.4334 219.704 61.6023 219.426 61.6658C219.149 61.7293 218.857 61.6825 218.614 61.5353C218.49 61.4689 218.382 61.3786 218.294 61.2696C218.206 61.1606 218.14 61.0352 218.102 60.9006C218.063 60.7661 218.052 60.6252 218.068 60.4862C218.085 60.3472 218.129 60.2129 218.198 60.0912C218.354 59.8528 218.596 59.6839 218.873 59.6204C219.151 59.5569 219.442 59.6037 219.686 59.751C219.809 59.8173 219.918 59.9076 220.006 60.0166C220.094 60.1256 220.159 60.251 220.198 60.3856C220.237 60.5201 220.248 60.661 220.231 60.8C220.215 60.9391 220.17 61.0733 220.101 61.195Z" fill="#2F2F2F"/>
<path d="M222.585 58.8049C222.406 58.8795 222.061 57.9293 221.123 57.3982C220.184 56.867 219.191 57.0289 219.166 56.8338C219.166 56.7467 219.39 56.5683 219.831 56.4853C220.399 56.3815 220.986 56.4826 221.486 56.7707C221.987 57.0587 222.369 57.5149 222.564 58.0579C222.709 58.4812 222.672 58.7758 222.585 58.8049Z" fill="#2F2F2F"/>
<path d="M213.766 53.5223C213.546 53.5721 213.222 52.4559 212.167 51.709C211.111 50.9621 209.948 50.9828 209.932 50.7629C209.932 50.6592 210.214 50.5015 210.738 50.4766C211.422 50.4594 212.093 50.6664 212.648 51.0658C213.2 51.4611 213.604 52.0293 213.795 52.68C213.932 53.1945 213.866 53.5016 213.766 53.5223Z" fill="#2F2F2F"/>
<path d="M208.947 66.4025C208.947 66.4025 208.797 66.4606 208.532 66.4025C208.141 66.308 207.79 66.0949 207.526 65.7925C207.123 65.3571 206.856 64.8133 206.758 64.2282C206.694 63.8703 206.735 63.5017 206.874 63.1659C207.034 62.817 207.271 62.5091 207.568 62.2655C207.852 62.0293 208.163 61.8273 208.494 61.6638C208.586 61.6065 208.69 61.5699 208.797 61.5562C208.905 61.5426 209.014 61.5524 209.117 61.5849C209.297 61.6748 209.443 61.8204 209.533 61.9999L210.43 63.4273C210.725 63.8609 210.972 64.3257 211.165 64.8133C210.801 64.4354 210.48 64.0179 210.21 63.5684C209.911 63.1535 209.591 62.6763 209.25 62.1825C209.067 61.8837 208.934 61.8132 208.635 61.975C208.329 62.1327 208.041 62.3233 207.776 62.5435C207.519 62.7318 207.317 62.9845 207.19 63.2761C207.063 63.5676 207.016 63.8875 207.053 64.2033C207.134 64.7339 207.355 65.2335 207.692 65.6515C207.918 65.9374 208.217 66.158 208.556 66.2905C208.797 66.3693 208.951 66.3735 208.947 66.4025Z" fill="#2F2F2F"/>
<path d="M246.578 50.2609C246.421 49.7541 246.203 49.2679 245.93 48.8128C245.591 48.2965 245.157 47.8488 244.651 47.4932C243.986 47.0247 243.207 46.7451 242.395 46.6841H242.266V46.5513C242.346 45.4739 242.002 44.408 241.307 43.5802C240.927 43.0919 240.443 42.6936 239.891 42.4138C239.339 42.1341 238.731 41.9797 238.112 41.9619H237.95V41.8001C237.916 40.0632 237.216 38.4057 235.994 37.1692C235.037 36.2125 233.806 35.5772 232.471 35.3517C231.252 35.1401 229.997 35.2664 228.845 35.7169L228.77 35.7459L228.699 35.7003C227.529 34.9161 226.207 34.3847 224.82 34.1401C223.74 33.9404 222.635 33.911 221.546 34.0529C220.588 34.1986 219.647 34.4419 218.738 34.7791C218.738 34.7791 218.792 34.7376 218.908 34.6795C219.025 34.6214 219.199 34.5301 219.432 34.4388C220.101 34.1739 220.798 33.9832 221.509 33.8704C222.616 33.6917 223.745 33.6917 224.853 33.8704C226.284 34.1031 227.65 34.6347 228.861 35.4306H228.716C229.919 34.9429 231.233 34.7992 232.513 35.0156C233.919 35.2431 235.217 35.9082 236.222 36.9161C237.508 38.2132 238.241 39.958 238.266 41.7835L238.104 41.6217C238.77 41.6442 239.422 41.8137 240.015 42.1179C240.607 42.422 241.125 42.8534 241.531 43.3811C242.266 44.2682 242.624 45.4078 242.528 46.5554L242.412 46.4185C243.266 46.492 244.082 46.804 244.767 47.3189C245.284 47.6969 245.719 48.1754 246.047 48.7256C246.254 49.071 246.41 49.444 246.512 49.8335C246.55 49.973 246.573 50.1164 246.578 50.2609Z" fill="#2F2F2F"/>
<path d="M219.968 28.8785C219.537 28.8057 219.129 28.6385 218.771 28.3889C218.263 28.0615 217.826 27.6359 217.484 27.1371C217.143 26.6382 216.906 26.0762 216.786 25.4842C216.621 24.6454 216.718 23.7765 217.064 22.9945C217.456 22.0917 218.124 21.3353 218.971 20.8326C219.931 20.2916 221.063 20.1415 222.132 20.4135C223.3 20.6853 224.315 21.4052 224.957 22.4177L224.77 22.3389C225.498 22.1668 226.264 22.2503 226.938 22.5754C227.515 22.8351 228.009 23.2504 228.363 23.7746C228.69 24.291 228.852 24.8944 228.828 25.505C228.813 26.0792 228.65 26.64 228.356 27.1333C228.061 27.6267 227.644 28.0362 227.146 28.3225L227.083 28.0237C227.532 28.0761 227.961 28.2378 228.333 28.4947C228.705 28.7516 229.007 29.0957 229.214 29.4968C229.412 29.853 229.53 30.2474 229.562 30.6534C229.593 31.0593 229.537 31.4672 229.397 31.8496C229.166 32.4686 228.771 33.0135 228.255 33.4264C227.739 33.8392 227.12 34.1045 226.465 34.1941C225.615 34.3085 224.751 34.1805 223.972 33.8248C223.767 33.7367 223.569 33.6312 223.382 33.5094C223.258 33.4223 223.195 33.3766 223.199 33.3683C223.204 33.36 223.474 33.526 224.01 33.7293C224.773 34.0321 225.603 34.1253 226.415 33.999C227.025 33.903 227.599 33.6448 228.076 33.2513C228.552 32.8578 228.914 32.3436 229.123 31.7624C229.245 31.416 229.292 31.0473 229.259 30.6815C229.226 30.3156 229.114 29.9611 228.932 29.642C228.746 29.2871 228.477 28.9828 228.147 28.7557C227.817 28.5287 227.436 28.3856 227.038 28.3391L226.502 28.2976L226.971 28.0403C227.418 27.7795 227.791 27.4089 228.054 26.9637C228.317 26.5185 228.462 26.0135 228.475 25.4967C228.494 24.9536 228.349 24.4174 228.06 23.9572C227.75 23.4924 227.319 23.1209 226.813 22.8825C226.21 22.5914 225.526 22.5153 224.874 22.6667L224.753 22.6999L224.687 22.592C224.094 21.6545 223.158 20.9858 222.078 20.7289C221.084 20.4723 220.03 20.6107 219.137 21.1148C218.337 21.5788 217.702 22.281 217.321 23.1232C216.989 23.8511 216.885 24.6627 217.022 25.451C217.24 26.5982 217.897 27.6152 218.854 28.2852C219.205 28.5195 219.578 28.7183 219.968 28.8785Z" fill="#2F2F2F"/>
<path d="M192.913 25.4632C192.914 25.3914 192.925 25.3202 192.946 25.2516C192.992 25.0517 193.054 24.856 193.133 24.6665C193.425 23.9432 193.873 23.293 194.445 22.7618C195.319 21.9309 196.45 21.4242 197.652 21.3261C198.413 21.2685 199.177 21.3664 199.899 21.614C200.62 21.8616 201.283 22.2536 201.848 22.766L201.661 22.7411C203.077 21.9936 204.715 21.7787 206.276 22.1353C207.452 22.4133 208.527 23.0141 209.379 23.8698C210.157 24.65 210.728 25.6111 211.041 26.6665L210.912 26.5587C212.147 26.7314 213.317 27.2139 214.314 27.9612C215.087 28.5347 215.745 29.2484 216.254 30.065C216.583 30.5919 216.837 31.1616 217.01 31.758C217.077 31.967 217.12 32.1827 217.139 32.4012C216.884 31.616 216.534 30.8649 216.096 30.1646C215.581 29.3862 214.926 28.7096 214.165 28.1687C213.194 27.4669 212.063 27.0177 210.875 26.8616H210.775L210.746 26.7661C210.436 25.7658 209.886 24.8568 209.142 24.1187C208.336 23.3022 207.318 22.7272 206.201 22.4589C204.719 22.1199 203.164 22.3185 201.815 23.0191L201.711 23.0731L201.628 22.9942C201.096 22.5076 200.472 22.133 199.793 21.8927C199.114 21.6525 198.393 21.5515 197.673 21.5958C196.526 21.6743 195.438 22.1345 194.583 22.9029C194.015 23.4042 193.556 24.0155 193.232 24.6997C193.008 25.1893 192.938 25.4715 192.913 25.4632Z" fill="#2F2F2F"/>
<path d="M167.444 56.6303C167.444 56.6303 167.893 55.8336 171.353 56.2859C174.813 56.7382 188.522 66.2199 188.522 66.2199C188.522 66.2199 186.029 76.0169 193.569 77.8842C199.06 79.2452 201.972 77.714 201.972 77.714C201.972 77.714 211.165 89.1335 211.917 93.7893C211.917 93.7893 167.614 124.753 174.805 121.388L167.444 121.471V56.6303Z" fill="#2ECC82"/>
<path d="M211.199 91.6938C211.319 92.0217 213.035 94.0632 211.336 103.159C209.79 111.421 203.028 119.757 203.028 119.757L189.544 107.636L211.199 91.6938Z" fill="#2ECC82"/>
<path d="M204.166 98.1711C204.104 98.2461 204.034 98.3142 203.958 98.3745L203.339 98.9139C202.791 99.3745 201.993 100.034 200.992 100.831C198.994 102.424 196.203 104.586 193.1 106.943C189.996 109.3 187.159 111.412 185.103 112.948L182.66 114.732L181.988 115.209C181.914 115.27 181.833 115.321 181.747 115.363C181.813 115.294 181.885 115.232 181.963 115.176L182.611 114.665L185.012 112.827L192.967 106.79C196.074 104.433 198.878 102.292 200.897 100.727L203.285 98.8641L203.929 98.3579C204.002 98.2887 204.082 98.2262 204.166 98.1711Z" fill="#2F2F2F"/>
<path d="M181.747 19.9319H83.6243V156.165H181.747V19.9319Z" fill="white"/>
<path d="M181.747 19.9319H83.6243V69.2406H181.747V19.9319Z" fill="#2ECC82"/>
<path d="M171.523 23.8784H154.085C151.497 23.8784 149.399 25.974 149.399 28.5591V29.0446C149.399 31.6296 151.497 33.7252 154.085 33.7252H171.523C174.111 33.7252 176.209 31.6296 176.209 29.0446V28.5591C176.209 25.974 174.111 23.8784 171.523 23.8784Z" fill="#2F2F2F"/>
<path d="M164.756 81.3159C164.756 81.374 151.264 81.4238 134.631 81.4238C117.999 81.4238 104.498 81.374 104.498 81.3159C104.498 81.2578 117.986 81.208 134.631 81.208C151.277 81.208 164.756 81.2537 164.756 81.3159Z" fill="#2F2F2F"/>
<path d="M164.756 94.5942C164.756 94.6523 151.264 94.7021 134.631 94.7021C117.999 94.7021 104.498 94.6523 104.498 94.5942C104.498 94.5361 117.986 94.4863 134.631 94.4863C151.277 94.4863 164.756 94.5361 164.756 94.5942Z" fill="#2F2F2F"/>
<path d="M164.756 107.877C164.756 107.935 151.264 107.985 134.631 107.985C117.999 107.985 104.498 107.935 104.498 107.877C104.498 107.819 117.986 107.769 134.631 107.769C151.277 107.769 164.756 107.815 164.756 107.877Z" fill="#2F2F2F"/>
<path d="M164.507 123.185H105.566C99.7704 123.185 95.0725 127.878 95.0725 133.666V134.766C95.0725 140.555 99.7704 145.248 105.566 145.248H164.507C170.302 145.248 175 140.555 175 134.766V133.666C175 127.878 170.302 123.185 164.507 123.185Z" fill="#2ECC82"/>
<path d="M109.279 61.6139C108.847 61.5138 108.436 61.3367 108.066 61.091L108.673 59.7341C108.988 59.9373 109.331 60.0938 109.691 60.1989C110.059 60.3138 110.443 60.3739 110.829 60.3773C111.535 60.3773 111.892 60.1989 111.892 59.8462C111.892 59.754 111.862 59.6643 111.808 59.5899C111.753 59.5154 111.677 59.4599 111.589 59.4312C111.273 59.3058 110.946 59.2099 110.613 59.1449C110.189 59.0632 109.773 58.9494 109.367 58.8047C109.038 58.6856 108.745 58.4858 108.515 58.2237C108.268 57.92 108.142 57.5357 108.162 57.1449C108.157 56.76 108.272 56.383 108.49 56.066C108.734 55.7243 109.071 55.4606 109.462 55.3066C109.968 55.1072 110.509 55.0126 111.053 55.0286C111.48 55.029 111.905 55.0778 112.32 55.1738C112.706 55.2542 113.078 55.3942 113.421 55.5888L112.852 56.9581C112.301 56.6419 111.68 56.4693 111.045 56.456C110.768 56.4354 110.49 56.4914 110.243 56.6179C110.168 56.6583 110.105 56.7181 110.06 56.791C110.016 56.864 109.991 56.9474 109.99 57.0328C109.992 57.1212 110.021 57.2066 110.075 57.2768C110.129 57.347 110.204 57.3981 110.289 57.4229C110.6 57.5428 110.921 57.6345 111.248 57.6967C111.671 57.7787 112.088 57.8911 112.495 58.0328C112.813 58.1587 113.098 58.3577 113.325 58.6138C113.578 58.913 113.706 59.2978 113.683 59.6885C113.687 60.0675 113.573 60.4384 113.359 60.7508C113.109 61.0903 112.77 61.3533 112.378 61.5101C111.874 61.7103 111.334 61.8063 110.791 61.7923C110.282 61.798 109.774 61.738 109.279 61.6139Z" fill="white"/>
<path d="M115.855 56.622H113.849V55.1572H119.698V56.622H117.7V61.6803H115.855V56.622Z" fill="white"/>
<path d="M124.433 60.4147H121.675L121.16 61.6595H119.278L122.157 55.1365H123.976L126.884 61.6595H124.965L124.433 60.4147ZM123.893 59.0536L123.062 56.9789L122.231 59.0536H123.893Z" fill="white"/>
<path d="M133.601 55.1572V61.6803H132.081L129.198 58.2071V61.6803H127.391V55.1572H128.911L131.79 58.6345V55.1572H133.601Z" fill="white"/>
<path d="M134.897 55.1575H137.983C138.641 55.1501 139.291 55.292 139.886 55.5725C140.417 55.8187 140.864 56.2137 141.174 56.7094C141.473 57.2341 141.631 57.8276 141.631 58.4315C141.631 59.0354 141.473 59.6289 141.174 60.1535C140.865 60.6502 140.417 61.0455 139.886 61.2905C139.292 61.5729 138.641 61.7149 137.983 61.7054H134.897V55.1575ZM137.909 60.2075C138.403 60.2308 138.887 60.0612 139.259 59.7344C139.584 59.3744 139.765 58.9064 139.765 58.4211C139.765 57.9358 139.584 57.4678 139.259 57.1078C138.889 56.778 138.404 56.6066 137.909 56.6306H136.746V60.2075H137.909Z" fill="white"/>
<path d="M146.89 60.4147H144.132L143.617 61.6595H141.735L144.614 55.1365H146.433L149.341 61.6595H147.401L146.89 60.4147ZM146.35 59.0536L145.519 56.9789L144.688 59.0536H146.35Z" fill="white"/>
<path d="M152.701 59.9459H151.692V61.6804H149.852V55.1573H152.834C153.362 55.1461 153.886 55.2465 154.371 55.452C154.788 55.6239 155.142 55.9193 155.386 56.2984C155.63 56.6776 155.751 57.1222 155.734 57.5724C155.754 58.006 155.643 58.4357 155.416 58.8057C155.188 59.1756 154.855 59.4688 154.459 59.6471L155.867 61.697H153.89L152.701 59.9459ZM153.578 56.8628C153.33 56.6804 153.025 56.5922 152.718 56.6138H151.692V58.5226H152.718C153.025 58.5443 153.33 58.456 153.578 58.2736C153.676 58.1858 153.752 58.0772 153.802 57.9557C153.851 57.8343 153.873 57.7033 153.865 57.5724C153.873 57.4413 153.854 57.3098 153.806 57.1872C153.759 57.0647 153.685 56.9539 153.59 56.8628H153.578Z" fill="white"/>
<path d="M156.747 55.1575H159.821C160.479 55.1501 161.129 55.292 161.724 55.5725C162.254 55.8199 162.701 56.2146 163.012 56.7094C163.311 57.2341 163.468 57.8276 163.468 58.4315C163.468 59.0354 163.311 59.6289 163.012 60.1535C162.702 60.6493 162.254 61.0443 161.724 61.2905C161.13 61.5729 160.479 61.7149 159.821 61.7054H156.747V55.1575ZM159.759 60.2075C160.252 60.2319 160.736 60.0621 161.105 59.7344C161.433 59.3757 161.615 58.9072 161.615 58.4211C161.615 57.935 161.433 57.4665 161.105 57.1078C160.737 56.7774 160.253 56.6059 159.759 56.6306H158.575V60.2075H159.759Z" fill="white"/>
<path d="M157.745 27.6418C157.865 27.6984 157.972 27.7795 158.059 27.8798C158.146 27.9801 158.211 28.0975 158.251 28.2245C158.29 28.3514 158.302 28.4851 158.286 28.617C158.271 28.7488 158.228 28.876 158.16 28.9904C158.058 29.1391 157.913 29.2534 157.745 29.3182C157.553 29.4004 157.346 29.44 157.138 29.4344H156.606V30.1606H155.996V27.5256H157.138C157.346 27.522 157.553 27.5616 157.745 27.6418ZM157.52 28.8203C157.569 28.7791 157.607 28.7274 157.632 28.6691C157.657 28.6108 157.669 28.5476 157.666 28.4842C157.67 28.4194 157.659 28.3545 157.634 28.2947C157.609 28.2349 157.57 28.1818 157.52 28.1397C157.4 28.0541 157.253 28.0131 157.105 28.0236H156.611V28.9365H157.105C157.249 28.9441 157.39 28.9031 157.508 28.8203H157.52Z" fill="white"/>
<path d="M159.049 30.057C158.878 29.9765 158.734 29.8483 158.634 29.6877C158.538 29.5238 158.488 29.3377 158.488 29.1483C158.488 28.9588 158.538 28.7727 158.634 28.6088C158.735 28.4493 158.879 28.3213 159.049 28.2395C159.228 28.1523 159.424 28.1069 159.622 28.1069C159.821 28.1069 160.017 28.1523 160.196 28.2395C160.32 28.3054 160.43 28.3957 160.518 28.5049C160.607 28.6142 160.673 28.7402 160.712 28.8754C160.75 29.0106 160.761 29.1522 160.744 29.2918C160.727 29.4313 160.682 29.566 160.611 29.6877C160.51 29.8477 160.366 29.9757 160.196 30.057C160.017 30.1442 159.821 30.1896 159.622 30.1896C159.424 30.1896 159.228 30.1442 159.049 30.057ZM159.992 29.5549C160.09 29.4389 160.144 29.2919 160.144 29.14C160.144 28.9881 160.09 28.8411 159.992 28.725C159.945 28.6744 159.888 28.6346 159.824 28.6081C159.76 28.5816 159.691 28.5691 159.622 28.5715C159.553 28.5693 159.483 28.5819 159.419 28.6083C159.355 28.6348 159.296 28.6745 159.248 28.725C159.15 28.8411 159.097 28.9881 159.097 29.14C159.097 29.2919 159.15 29.4389 159.248 29.5549C159.296 29.6054 159.355 29.6451 159.419 29.6716C159.483 29.6981 159.553 29.7106 159.622 29.7084C159.692 29.7093 159.762 29.6948 159.825 29.6662C159.889 29.6375 159.946 29.5953 159.992 29.5425V29.5549Z" fill="white"/>
<path d="M162.837 28.2352C162.992 28.319 163.119 28.4458 163.203 28.6003C163.29 28.7697 163.336 28.9575 163.336 29.1481C163.336 29.3386 163.29 29.5264 163.203 29.6958C163.119 29.8503 162.992 29.9771 162.837 30.0609C162.681 30.1481 162.505 30.1924 162.326 30.1896C162.213 30.1968 162.099 30.1785 161.993 30.1362C161.888 30.0938 161.793 30.0284 161.716 29.9448V30.8908H161.126V28.1356H161.687V28.3679C161.766 28.2785 161.865 28.2084 161.976 28.1631C162.087 28.1178 162.207 28.0985 162.326 28.1065C162.505 28.1037 162.681 28.148 162.837 28.2352ZM162.592 29.5547C162.69 29.4386 162.744 29.2916 162.744 29.1398C162.744 28.9879 162.69 28.8409 162.592 28.7248C162.494 28.627 162.361 28.5721 162.222 28.5721C162.084 28.5721 161.951 28.627 161.853 28.7248C161.755 28.8409 161.701 28.9879 161.701 29.1398C161.701 29.2916 161.755 29.4386 161.853 29.5547C161.951 29.6525 162.084 29.7074 162.222 29.7074C162.361 29.7074 162.494 29.6525 162.592 29.5547Z" fill="white"/>
<path d="M165.77 28.1357V30.1607H165.222V29.92C165.145 30.0071 165.05 30.0764 164.944 30.1234C164.833 30.1688 164.714 30.1914 164.595 30.1898C164.479 30.1958 164.363 30.1788 164.254 30.1396C164.145 30.1004 164.044 30.0399 163.959 29.9615C163.877 29.8693 163.814 29.7616 163.774 29.6448C163.734 29.5279 163.718 29.4042 163.726 29.281V28.1357H164.316V29.1939C164.316 29.5217 164.453 29.6835 164.732 29.6835C164.794 29.6859 164.857 29.6749 164.915 29.6513C164.973 29.6277 165.025 29.592 165.068 29.5466C165.164 29.4305 165.21 29.2815 165.197 29.1316V28.1316L165.77 28.1357Z" fill="white"/>
<path d="M166.314 27.3679H166.904V30.1605H166.314V27.3679Z" fill="white"/>
<path d="M168.989 28.3305C169.08 28.4169 169.15 28.5226 169.193 28.6397C169.237 28.7569 169.254 28.8824 169.243 29.0069V30.1605H168.694V29.9073C168.627 30.0064 168.533 30.085 168.424 30.1348C168.315 30.1845 168.194 30.2035 168.075 30.1895C167.933 30.1947 167.791 30.1677 167.66 30.1107C167.554 30.0647 167.463 29.9899 167.398 29.8949C167.338 29.7992 167.306 29.6884 167.307 29.5754C167.305 29.4895 167.323 29.4043 167.361 29.327C167.398 29.2497 167.454 29.1826 167.523 29.1314C167.719 29.0089 167.949 28.9522 168.179 28.9695H168.644C168.648 28.915 168.639 28.8603 168.619 28.8095C168.599 28.7586 168.568 28.7127 168.528 28.6749C168.428 28.5998 168.304 28.5629 168.179 28.5712C168.07 28.5706 167.962 28.5888 167.859 28.6251C167.763 28.6543 167.673 28.7007 167.593 28.7621L167.386 28.3471C167.506 28.2643 167.639 28.2025 167.78 28.1645C167.936 28.123 168.097 28.102 168.258 28.1023C168.522 28.0834 168.783 28.1649 168.989 28.3305ZM168.491 29.7248C168.568 29.6794 168.626 29.6069 168.653 29.5214V29.314H168.237C167.996 29.314 167.876 29.3928 167.876 29.5505C167.874 29.5856 167.882 29.6205 167.898 29.6517C167.914 29.683 167.938 29.7096 167.967 29.7289C168.038 29.7777 168.123 29.8011 168.208 29.7953C168.307 29.8006 168.406 29.7761 168.491 29.7248Z" fill="white"/>
<path d="M170.622 28.1813C170.754 28.1293 170.895 28.1039 171.037 28.1066V28.6461H170.905C170.833 28.6419 170.761 28.6522 170.693 28.6765C170.625 28.7007 170.563 28.7384 170.51 28.7872C170.459 28.843 170.42 28.9085 170.395 28.9798C170.37 29.0511 170.359 29.1267 170.365 29.2021V30.1565H169.791V28.1315H170.352V28.3971C170.422 28.3031 170.515 28.2287 170.622 28.1813Z" fill="white"/>
<path d="M120.063 136.451C119.576 136.193 119.169 135.805 118.888 135.33C118.605 134.839 118.456 134.281 118.456 133.714C118.456 133.147 118.605 132.589 118.888 132.098C119.17 131.625 119.577 131.239 120.063 130.982C120.544 130.74 121.07 130.603 121.608 130.582C122.145 130.56 122.681 130.654 123.179 130.857C123.595 131.034 123.962 131.307 124.251 131.654L123.349 132.484C123.164 132.259 122.93 132.078 122.666 131.955C122.401 131.832 122.112 131.771 121.821 131.774C121.469 131.768 121.123 131.854 120.815 132.023C120.525 132.183 120.286 132.422 120.126 132.712C119.965 133.022 119.881 133.367 119.881 133.716C119.881 134.066 119.965 134.41 120.126 134.72C120.287 135.01 120.526 135.248 120.815 135.409C121.123 135.577 121.47 135.661 121.821 135.654C122.113 135.659 122.402 135.597 122.667 135.473C122.932 135.349 123.165 135.167 123.349 134.94L124.251 135.77C123.962 136.121 123.593 136.397 123.175 136.575C122.721 136.764 122.233 136.859 121.742 136.853C121.157 136.86 120.581 136.722 120.063 136.451Z" fill="white"/>
<path d="M129.335 132.537C129.526 132.744 129.671 132.988 129.764 133.254C129.856 133.519 129.892 133.801 129.871 134.081V136.749H128.517V134.288C128.538 133.992 128.453 133.698 128.276 133.459C128.185 133.364 128.075 133.291 127.953 133.244C127.831 133.196 127.7 133.176 127.57 133.185C127.416 133.176 127.263 133.199 127.12 133.255C126.976 133.31 126.846 133.395 126.739 133.504C126.519 133.765 126.41 134.102 126.436 134.442V136.749H125.081V130.317H126.436V132.571C126.62 132.386 126.843 132.245 127.088 132.156C127.354 132.059 127.635 132.011 127.919 132.015C128.178 132.001 128.437 132.04 128.681 132.13C128.924 132.22 129.147 132.358 129.335 132.537Z" fill="white"/>
<path d="M132.043 136.509C131.663 136.315 131.345 136.019 131.125 135.654C130.901 135.278 130.788 134.846 130.797 134.409C130.789 133.972 130.903 133.541 131.125 133.164C131.347 132.801 131.665 132.507 132.043 132.313C132.451 132.103 132.905 131.998 133.364 132.006C133.822 131.997 134.275 132.103 134.681 132.313C135.059 132.507 135.375 132.801 135.595 133.164C135.818 133.541 135.931 133.972 135.923 134.409C135.933 134.846 135.819 135.278 135.595 135.654C135.377 136.019 135.06 136.315 134.681 136.509C134.275 136.719 133.822 136.825 133.364 136.816C132.905 136.824 132.451 136.719 132.043 136.509ZM134.22 135.359C134.435 135.092 134.552 134.76 134.552 134.417C134.552 134.075 134.435 133.742 134.22 133.475C134.11 133.361 133.977 133.27 133.829 133.21C133.682 133.15 133.524 133.122 133.364 133.127C133.205 133.122 133.046 133.151 132.898 133.211C132.75 133.271 132.616 133.361 132.504 133.475C132.287 133.741 132.169 134.074 132.169 134.417C132.169 134.761 132.287 135.093 132.504 135.359C132.616 135.474 132.75 135.564 132.898 135.624C133.046 135.684 133.205 135.712 133.364 135.708C133.524 135.712 133.682 135.683 133.83 135.623C133.977 135.562 134.11 135.471 134.22 135.355V135.359Z" fill="white"/>
<path d="M137.722 136.508C137.343 136.315 137.027 136.018 136.808 135.654C136.584 135.278 136.471 134.846 136.48 134.409C136.472 133.972 136.586 133.541 136.808 133.164C137.028 132.801 137.344 132.507 137.722 132.313C138.135 132.112 138.592 132.016 139.051 132.035C139.509 132.026 139.962 132.132 140.368 132.342C140.744 132.537 141.059 132.831 141.278 133.193C141.501 133.57 141.614 134.001 141.606 134.438C141.616 134.875 141.502 135.307 141.278 135.683C141.06 136.047 140.745 136.343 140.368 136.538C139.962 136.748 139.509 136.854 139.051 136.845C138.587 136.846 138.13 136.73 137.722 136.508ZM139.882 135.355C140.099 135.089 140.218 134.756 140.218 134.413C140.218 134.07 140.099 133.737 139.882 133.471C139.773 133.356 139.64 133.266 139.494 133.206C139.347 133.146 139.189 133.117 139.031 133.122C138.871 133.117 138.712 133.146 138.564 133.206C138.416 133.266 138.282 133.356 138.171 133.471C137.95 133.736 137.83 134.069 137.83 134.413C137.83 134.757 137.95 135.09 138.171 135.355C138.282 135.47 138.416 135.56 138.564 135.62C138.712 135.68 138.871 135.709 139.031 135.703C139.189 135.709 139.347 135.68 139.494 135.62C139.64 135.56 139.773 135.47 139.882 135.355Z" fill="white"/>
<path d="M142.939 136.675C142.627 136.603 142.328 136.481 142.055 136.314L142.507 135.343C142.741 135.488 142.994 135.599 143.259 135.67C143.542 135.752 143.834 135.793 144.128 135.795C144.701 135.795 144.987 135.657 144.987 135.38C144.985 135.313 144.961 135.248 144.918 135.196C144.875 135.145 144.816 135.108 144.751 135.094C144.519 135.017 144.279 134.966 144.036 134.94C143.716 134.895 143.4 134.829 143.089 134.741C142.842 134.662 142.619 134.519 142.445 134.326C142.347 134.213 142.271 134.081 142.224 133.939C142.177 133.796 142.159 133.646 142.171 133.496C142.168 133.213 142.258 132.938 142.429 132.712C142.621 132.468 142.879 132.283 143.172 132.181C143.543 132.045 143.936 131.981 144.331 131.99C144.662 131.989 144.993 132.025 145.316 132.098C145.6 132.152 145.874 132.253 146.126 132.397L145.677 133.359C145.267 133.127 144.803 133.007 144.331 133.011C144.107 132.998 143.884 133.039 143.679 133.131C143.618 133.158 143.565 133.202 143.527 133.256C143.489 133.311 143.467 133.376 143.463 133.442C143.462 133.512 143.485 133.58 143.528 133.635C143.571 133.69 143.632 133.729 143.7 133.745C143.941 133.825 144.191 133.88 144.443 133.911C144.76 133.96 145.073 134.028 145.382 134.114C145.624 134.188 145.842 134.324 146.013 134.509C146.204 134.729 146.3 135.015 146.283 135.305C146.285 135.585 146.193 135.856 146.022 136.077C145.823 136.32 145.559 136.501 145.262 136.6C144.883 136.732 144.483 136.795 144.082 136.787C143.698 136.798 143.314 136.76 142.939 136.675Z" fill="white"/>
<path d="M151.655 134.799H148.128C148.184 135.076 148.345 135.321 148.577 135.484C148.838 135.657 149.148 135.744 149.461 135.733C149.682 135.738 149.902 135.701 150.109 135.625C150.305 135.547 150.483 135.432 150.633 135.285L151.351 136.065C151.106 136.324 150.807 136.526 150.474 136.656C150.142 136.785 149.784 136.84 149.428 136.816C148.944 136.827 148.464 136.721 148.028 136.509C147.641 136.319 147.317 136.022 147.094 135.654C146.87 135.278 146.756 134.846 146.765 134.409C146.758 133.972 146.87 133.542 147.089 133.164C147.302 132.802 147.611 132.506 147.983 132.309C148.373 132.1 148.811 131.994 149.254 132.002C149.687 131.993 150.116 132.095 150.5 132.297C150.865 132.484 151.167 132.772 151.372 133.127C151.589 133.517 151.698 133.958 151.688 134.405C151.688 134.405 151.671 134.575 151.655 134.799ZM148.489 133.301C148.276 133.48 148.139 133.734 148.107 134.011H150.409C150.373 133.735 150.236 133.482 150.024 133.303C149.812 133.123 149.54 133.029 149.262 133.04C148.981 133.03 148.707 133.123 148.489 133.301Z" fill="white"/>
<path d="M98.3706 83.5566C98.2173 83.5577 98.0691 83.5014 97.9552 83.399L96.2936 81.9259C96.2313 81.8723 96.1804 81.8069 96.1437 81.7335C96.107 81.6601 96.0854 81.5801 96.08 81.4982C96.0745 81.4163 96.0855 81.3342 96.1122 81.2566C96.1389 81.179 96.1808 81.1074 96.2354 81.0462C96.3453 80.9298 96.4956 80.8598 96.6555 80.8505C96.8153 80.8413 96.9727 80.8935 97.0953 80.9964L98.3124 82.067L100.834 79.2868C100.947 79.1743 101.098 79.1092 101.258 79.105C101.417 79.1007 101.572 79.1575 101.69 79.2638C101.809 79.3701 101.882 79.5177 101.895 79.6763C101.908 79.835 101.86 79.9925 101.76 80.1167L98.8234 83.3533C98.766 83.4166 98.6962 83.4673 98.6183 83.5023C98.5404 83.5373 98.456 83.5558 98.3706 83.5566Z" fill="#2ECC82"/>
<path d="M98.3711 96.8352C98.2183 96.8378 98.0701 96.783 97.9557 96.6817L96.2941 95.2044C96.2327 95.1499 96.1827 95.0839 96.1469 95.0101C96.111 94.9363 96.0901 94.8562 96.0853 94.7743C96.0805 94.6924 96.0918 94.6104 96.1188 94.5329C96.1457 94.4554 96.1876 94.384 96.2422 94.3227C96.2967 94.2614 96.3628 94.2114 96.4367 94.1756C96.5106 94.1398 96.5908 94.1189 96.6728 94.1141C96.8383 94.1044 97.001 94.1607 97.1249 94.2708L98.342 95.3414L100.864 92.557C100.976 92.4446 101.128 92.3795 101.287 92.3752C101.446 92.3709 101.601 92.4278 101.72 92.5341C101.839 92.6403 101.912 92.788 101.925 92.9466C101.938 93.1052 101.89 93.2628 101.79 93.3869L98.853 96.6236C98.7933 96.6923 98.7192 96.7469 98.6359 96.7835C98.5525 96.8201 98.4621 96.8378 98.3711 96.8352Z" fill="#2ECC82"/>
<path d="M98.3711 110.118C98.2178 110.119 98.0696 110.062 97.9557 109.96L96.2941 108.487C96.2327 108.432 96.1827 108.366 96.1469 108.293C96.111 108.219 96.0901 108.139 96.0853 108.057C96.0805 107.975 96.0918 107.893 96.1188 107.815C96.1457 107.738 96.1876 107.666 96.2422 107.605C96.2967 107.544 96.3628 107.494 96.4367 107.458C96.5106 107.422 96.5908 107.401 96.6728 107.397C96.8383 107.387 97.001 107.443 97.1249 107.553L98.342 108.62L100.864 105.84C100.976 105.727 101.128 105.662 101.287 105.658C101.446 105.653 101.601 105.71 101.72 105.817C101.839 105.923 101.912 106.07 101.925 106.229C101.938 106.388 101.89 106.545 101.79 106.669L98.853 109.906C98.7932 109.975 98.719 110.029 98.6357 110.066C98.5524 110.102 98.4621 110.12 98.3711 110.118Z" fill="#2ECC82"/>
<path d="M139.292 34.7378L140.958 38.1072L144.68 38.6508L141.988 41.2733L142.624 44.9747L139.292 43.2277L135.965 44.9747L136.601 41.2733L133.905 38.6508L137.627 38.1072L139.292 34.7378Z" fill="white"/>
<path d="M132.824 34.7378L135.026 39.1902L139.944 39.9039L136.384 43.3688L137.223 48.2611L132.824 45.9539L128.425 48.2611L129.268 43.3688L125.708 39.9039L130.627 39.1902L132.824 34.7378Z" fill="white"/>
<path d="M137.759 48.9995L132.82 46.4102L127.885 48.9995L128.828 43.5138L124.836 39.6257L130.353 38.8249L132.82 33.8455L135.284 38.8249L140.8 39.6257L136.808 43.5097L137.759 48.9995ZM126.589 40.1859L129.713 43.2317L128.974 47.5306L132.841 45.4973L136.704 47.5306L135.952 43.2358L139.076 40.1901L134.756 39.5635L132.82 35.6505L130.884 39.5593L126.589 40.1859Z" fill="#2ECC82"/>
<path d="M181.747 156.169C181.747 155.298 181.705 100.478 181.647 19.9321L181.747 20.0317H83.6366L83.7446 19.9238C83.7446 70.9006 83.7446 118.064 83.7238 156.161L83.6366 156.074L181.759 156.161L83.6366 156.248H83.5493V156.161C83.5493 118.064 83.5493 70.9006 83.5286 19.9238V19.8159H83.649H181.759H181.838V19.9114C181.784 100.499 181.747 155.298 181.747 156.169Z" fill="#2F2F2F"/>
<path d="M133.73 101.889C133.73 101.889 132.276 99.7064 135.188 99.5861C138.1 99.4658 152.415 101.889 157.267 104.312L161.512 106.976L156.914 116.064H146.346C145.133 116.064 141.739 113.989 144.892 112.553C144.892 112.553 141.739 110.371 144.651 108.553C144.651 108.553 142.345 106.856 144.771 104.553L133.73 101.889Z" fill="#FFBF9D"/>
<path d="M158.118 105.213L182.212 117.819L191.251 109.18L202.022 118.873C202.022 118.873 191.346 131.396 185.161 132.488C178.976 133.579 154.886 114.23 154.886 114.23L158.118 105.213Z" fill="#FFBF9D"/>
<path d="M183.396 66.4729L183.171 66.6015C182.821 66.7809 182.448 66.9108 182.062 66.9874C181.879 67.0078 181.697 67.0411 181.518 67.087C181.411 67.1446 181.31 67.2113 181.215 67.2862C180.554 67.6721 179.715 67.7011 178.976 67.7966C178.145 67.8837 177.252 68.0123 176.604 68.5476C175.956 69.0829 175.665 70.1493 176.234 70.7676C175.966 70.7721 175.709 70.874 175.511 71.0543C175.313 71.2346 175.187 71.4808 175.158 71.7469C175.139 72.0145 175.188 72.2827 175.302 72.5259C175.415 72.7692 175.589 72.9795 175.806 73.137C176.247 73.4488 176.763 73.6353 177.302 73.6764C176.991 73.7285 176.713 73.8993 176.526 74.1525C176.339 74.4057 176.258 74.7216 176.3 75.0333C176.357 75.3435 176.491 75.6343 176.691 75.8783C176.891 76.1222 177.15 76.3113 177.443 76.4276C178.031 76.6562 178.662 76.7526 179.291 76.7097C180.103 76.6806 180.916 76.6972 181.726 76.7595C181.726 76.7595 181.726 77.5604 181.726 77.9214C181.726 78.411 181.726 78.0293 181.726 78.0293C182.164 78.285 182.637 78.4764 183.13 78.5978C184.222 78.9546 184.928 79.2451 185.913 79.4982C186.648 79.6891 187.371 79.7804 187.766 79.2866C188.717 78.0998 186.216 76.3819 186.216 76.3819C186.951 75.967 186.752 73.6142 185.66 73.2947C186.2 73.0291 186.54 73.0582 186.86 72.5436C187.025 72.2911 187.129 72.0032 187.162 71.7033C187.195 71.4034 187.157 71.0999 187.051 70.8174C186.934 70.5397 186.728 70.3081 186.466 70.1582C186.205 70.0083 185.901 69.9483 185.601 69.9875C185.955 69.6836 186.208 69.2799 186.327 68.8296C186.447 68.3793 186.427 67.9034 186.27 67.4646C186.065 66.9404 185.673 66.5105 185.169 66.2571C184.92 66.1311 184.65 66.051 184.372 66.0206C184.267 66.0019 184.16 66.0019 184.056 66.0206C184.01 66.035 183.966 66.0575 183.927 66.087C183.745 66.1824 183.587 66.3442 183.396 66.4729Z" fill="#FFBF9D"/>
<path d="M184.563 63.7676C184.555 63.5073 184.491 63.2518 184.376 63.0184C184.261 62.785 184.096 62.5791 183.894 62.4148C183.387 62.0704 182.473 62.1119 181.871 62.2447C181.834 62.975 181.871 63.3443 181.821 64.0746C181.821 64.2282 181.867 64.3485 181.796 64.4896C181.609 64.8506 180.816 64.9045 180.45 65.0913C180.149 65.2745 179.928 65.5662 179.835 65.9064C179.741 66.2467 179.782 66.6097 179.948 66.9212C180.131 67.224 180.396 67.4681 180.714 67.6247C181.031 67.7814 181.386 67.8439 181.738 67.805C182.446 67.7153 183.095 67.3646 183.558 66.8216C183.926 66.4089 184.206 65.9247 184.379 65.3992C184.552 64.8737 184.614 64.3183 184.563 63.7676Z" fill="#FFBF9D"/>
<path d="M185.805 69.9462C185.805 70.0043 183.674 70.2367 181.032 70.4607C178.39 70.6848 176.242 70.8217 176.238 70.7595C176.234 70.6973 178.369 70.469 181.011 70.245C183.653 70.0209 185.801 69.884 185.805 69.9462Z" fill="#FF9A6C"/>
<path d="M185.805 73.2783C185.399 73.4025 184.982 73.4859 184.559 73.5273C183.543 73.6784 182.52 73.7781 181.493 73.8261C180.289 73.8883 179.2 73.8759 178.411 73.8261C177.984 73.8282 177.558 73.7865 177.14 73.7016C177.564 73.6597 177.99 73.6499 178.415 73.6725C179.2 73.6725 180.285 73.6725 181.481 73.5978C182.677 73.5231 183.757 73.4443 184.538 73.3655C184.958 73.307 185.381 73.2779 185.805 73.2783Z" fill="#FF9A6C"/>
<path d="M185.805 76.5355C185.465 76.6317 185.115 76.6874 184.762 76.7014C184.114 76.7678 183.217 76.8176 182.224 76.8301C181.231 76.8425 180.334 76.8301 179.686 76.8301C179.333 76.8463 178.98 76.8269 178.631 76.772C178.977 76.7033 179.329 76.6713 179.682 76.6765C180.334 76.6475 181.231 76.635 182.22 76.6184C183.209 76.6018 184.106 76.5811 184.754 76.552C185.103 76.5172 185.455 76.5117 185.805 76.5355Z" fill="#FF9A6C"/>
<path d="M184.368 64.8381C184.449 65.1135 184.425 65.409 184.301 65.668C184.05 66.2928 183.577 66.8027 182.972 67.0996C182.654 67.2696 182.32 67.4086 181.975 67.5146C181.695 67.6136 181.406 67.6818 181.111 67.7179C180.902 67.7415 180.691 67.6932 180.513 67.581C180.392 67.498 180.359 67.4191 180.367 67.4108C180.582 67.5509 180.841 67.607 181.094 67.5685C181.378 67.5101 181.656 67.4282 181.925 67.3237C182.255 67.2108 182.576 67.072 182.885 66.9087C183.449 66.6313 183.904 66.1724 184.177 65.6058C184.262 65.3558 184.326 65.099 184.368 64.8381Z" fill="#FF9A6C"/>
</g>
<defs>
<clipPath id="clip0_61_451">
<rect width="285.187" height="173.624" fill="white" transform="translate(0.19043 0.354492)"/>
</clipPath>
</defs>
</svg>
