<svg xmlns="http://www.w3.org/2000/svg" width="286" height="174" fill="none"><g clip-path="url(#a)"><path fill="#E0E0E0" d="m68.27 31.29-3.456-1.864-3.493 1.785.71-3.86-2.779-2.767 3.888-.519 1.778-3.498 1.695 3.535 3.88.61-2.841 2.706.619 3.872Zm99.884-20.213-3.452-1.867-3.497 1.784.71-3.855-2.779-2.768 3.888-.518 1.778-3.499 1.699 3.536 3.876.61-2.842 2.701.619 3.876ZM72.936 165.601l-3.452-1.863-3.498 1.784.71-3.855-2.779-2.772 3.889-.519 1.778-3.493 1.694 3.535 3.88.606-2.841 2.705.619 3.872Zm147.738-1.423-3.452-1.863-3.494 1.784.707-3.855-2.779-2.772 3.892-.519 1.778-3.494 1.695 3.536 3.879.606-2.845 2.705.619 3.872ZM42.865 34.065l-1.79-.967-1.812.926.366-1.996-1.438-1.436 2.015-.27.922-1.813.877 1.834 2.01.316-1.47 1.402.32 2.004Zm49.03 139.914-1.786-.963-1.812.921.366-1.996-1.442-1.435 2.02-.27.917-1.809.881 1.83 2.01.315-1.474 1.403.32 2.004Zm107.73-31.084-1.79-.967-1.811.925.365-1.996-1.437-1.436 2.015-.269.922-1.814.881 1.834 2.006.316-1.47 1.402.319 2.005Zm42.85-109.655-1.791-.967-1.811.925.366-2-1.438-1.436 2.015-.27.922-1.809.877 1.83 2.01.316-1.47 1.402.32 2.009Z"/><path fill="#fff" d="M285.277 45.099h-71.295v98.991h71.295V45.099Z"/><path fill="#1F1F1F" d="M285.277 45.099h-71.295V80.93h71.295V45.099Z"/><path fill="#2F2F2F" d="M272.936 89.71c0 .063-9.804.113-21.892.113s-21.892-.05-21.892-.113c0-.062 9.799-.107 21.892-.107 12.092 0 21.892.037 21.892.107Zm0 9.64c0 .058-9.804.108-21.892.108s-21.892-.05-21.892-.108c0-.058 9.799-.108 21.892-.108 12.092 0 21.892.05 21.892.108Zm0 9.651c0 .058-9.804.108-21.892.108s-21.892-.05-21.892-.108c0-.058 9.799-.112 21.892-.112 12.092 0 21.892.05 21.892.112Z"/><path fill="#1F1F1F" d="M272.753 120.122h-42.824c-4.212 0-7.627 3.411-7.627 7.619v.792c0 4.208 3.415 7.619 7.627 7.619h42.824c4.212 0 7.627-3.411 7.627-7.619v-.792c0-4.208-3.415-7.619-7.627-7.619Z"/><path fill="#fff" d="M235.362 69.59a1.578 1.578 0 0 1 .989 1.539c.009.326-.079.648-.253.925a1.688 1.688 0 0 1-.736.606 2.72 2.72 0 0 1-1.117.216h-.831v1.245h-1.341v-4.743h2.168c.385-.012.767.06 1.121.211Zm-.573 2.05a.737.737 0 0 0 0-1.026.914.914 0 0 0-.623-.182h-.748v1.386h.761a.937.937 0 0 0 .61-.179Zm4.287 1.215h-.743V74.1h-1.33v-4.722h2.161c.383-.01.764.064 1.117.215a1.727 1.727 0 0 1 .977 1.761 1.721 1.721 0 0 1-.225.675c-.17.26-.409.467-.69.598l1.022 1.49h-1.437l-.852-1.262Zm.64-2.24a.914.914 0 0 0-.623-.183h-.76v1.385h.747a.941.941 0 0 0 .624-.178.74.74 0 0 0 0-1.025h.012Zm6.094 2.465v1.032h-3.809v-4.734h3.738v1.037h-2.392v.797h2.106v1.004h-2.106v.867l2.463-.004Zm5.043 1.032v-2.49l-1.221 2.046h-.594l-1.213-1.979v2.444h-1.246v-4.755h1.105l1.661 2.734 1.624-2.734h1.105v4.738l-1.221-.004Zm2.185-4.734h1.342v4.738h-1.342v-4.738Zm2.841 4.252a2.183 2.183 0 0 1-.585-1.63v-2.622h1.341v2.585c0 .76.299 1.137.902 1.137.602 0 .893-.378.893-1.137v-2.585h1.321v2.626a2.176 2.176 0 0 1-.586 1.631 2.626 2.626 0 0 1-3.286 0v-.004Zm9.065.482v-2.49l-1.217 2.046h-.599l-1.213-1.979v2.444h-1.246v-4.755h1.105l1.662 2.734 1.624-2.734h1.105v4.738l-1.221-.004Zm-24.48 55.65a2.15 2.15 0 0 1-.856-.83 2.34 2.34 0 0 1 0-2.349 2.17 2.17 0 0 1 .856-.809 2.546 2.546 0 0 1 1.246-.294c.355-.007.708.062 1.034.203.303.127.571.325.781.577l-.656.606a1.403 1.403 0 0 0-1.109-.519 1.466 1.466 0 0 0-.731.182 1.294 1.294 0 0 0-.503.498c-.12.225-.181.476-.178.731-.004.254.057.506.178.73.117.212.291.386.503.502.224.122.476.184.731.179a1.407 1.407 0 0 0 1.109-.523l.656.606a2.08 2.08 0 0 1-.781.585 2.64 2.64 0 0 1-1.042.199 2.528 2.528 0 0 1-1.238-.274Zm6.734-2.843a1.49 1.49 0 0 1 .39 1.12v1.922h-.985v-1.789a.875.875 0 0 0-.174-.597.663.663 0 0 0-.511-.199.782.782 0 0 0-.594.228.96.96 0 0 0-.22.684v1.66h-.985v-4.639h.985v1.635c.134-.132.296-.234.473-.299.193-.071.397-.106.603-.104a1.397 1.397 0 0 1 1.018.378Zm1.968 2.888a1.657 1.657 0 0 1-.664-.622 1.804 1.804 0 0 1 0-1.801c.159-.264.39-.478.664-.618a2.162 2.162 0 0 1 1.919 0c.274.141.502.355.661.618a1.8 1.8 0 0 1 0 1.801c-.158.264-.387.48-.661.622a2.198 2.198 0 0 1-1.919 0Zm1.583-.83a.95.95 0 0 0 .241-.684.943.943 0 0 0-.241-.681.875.875 0 0 0-.623-.258.885.885 0 0 0-.623.258.912.912 0 0 0-.245.681.938.938 0 0 0 .245.684.89.89 0 0 0 1.246 0Zm2.538.83a1.69 1.69 0 0 1-.664-.622 1.824 1.824 0 0 1 0-1.801c.159-.264.389-.478.664-.619.298-.152.629-.229.964-.224.332-.006.661.071.955.224.275.141.505.355.665.619a1.833 1.833 0 0 1 0 1.801c-.16.264-.39.479-.665.622-.296.15-.623.225-.955.22a2.08 2.08 0 0 1-.964-.22Zm1.583-.83a.953.953 0 0 0 .245-.685.937.937 0 0 0-.245-.68.822.822 0 0 0-.619-.257.836.836 0 0 0-.818.572.926.926 0 0 0-.054.365.924.924 0 0 0 .249.685c.08.083.177.149.285.192a.814.814 0 0 0 .338.061.822.822 0 0 0 .623-.261l-.004.008Zm2.214.946a2.03 2.03 0 0 1-.644-.261l.328-.706c.169.108.355.187.549.237.205.06.417.091.631.091.415 0 .623-.099.623-.307a.219.219 0 0 0-.17-.207 2.464 2.464 0 0 0-.524-.108 5.027 5.027 0 0 1-.685-.145 1.033 1.033 0 0 1-.469-.291.828.828 0 0 1-.2-.589.921.921 0 0 1 .187-.569 1.21 1.21 0 0 1 .54-.39c.267-.095.548-.141.831-.137.24 0 .48.026.715.079.206.042.405.115.589.216l-.328.701a1.94 1.94 0 0 0-.976-.253c-.163-.01-.325.02-.474.087a.275.275 0 0 0-.111.092.258.258 0 0 0-.046.136.228.228 0 0 0 .17.22c.176.057.357.097.54.121.23.035.457.084.681.145.177.053.336.152.461.286.137.162.207.37.196.581a.892.892 0 0 1-.187.56 1.24 1.24 0 0 1-.553.382 2.415 2.415 0 0 1-.86.133c-.274 0-.548-.035-.814-.104Zm6.331-1.361h-2.563a.79.79 0 0 0 .328.498c.19.127.415.191.644.183.16.001.319-.026.469-.079.141-.057.27-.142.378-.249l.524.564a1.755 1.755 0 0 1-1.396.548c-.352.006-.7-.069-1.018-.22a1.668 1.668 0 0 1-.681-.622 1.827 1.827 0 0 1 0-1.797c.155-.263.379-.478.648-.622a2.006 2.006 0 0 1 1.823 0c.266.14.487.353.636.614.157.284.236.605.229.929 0 0-.005.087-.021.253Zm-2.297-1.091a.8.8 0 0 0-.279.519h1.662a.803.803 0 0 0-.831-.706.831.831 0 0 0-.552.187Z"/><path fill="#1F1F1F" d="M224.699 91.499a.616.616 0 0 1-.415-.154l-1.222-1.075a.623.623 0 1 1 .831-.934l.76.669 1.72-1.9a.623.623 0 0 1 .927.83l-2.136 2.352a.615.615 0 0 1-.465.212Zm0 9.647a.616.616 0 0 1-.415-.153l-1.221-1.07a.62.62 0 0 1-.211-.431.628.628 0 0 1 1.042-.507l.76.668 1.719-1.897a.632.632 0 0 1 .436-.23.623.623 0 0 1 .491 1.06l-2.135 2.353a.617.617 0 0 1-.466.207Zm0 9.652a.618.618 0 0 1-.415-.153l-1.222-1.075a.623.623 0 1 1 .831-.934l.76.668 1.72-1.9a.62.62 0 0 1 .857-.023.624.624 0 0 1 .07.853l-2.136 2.352a.598.598 0 0 1-.21.156.607.607 0 0 1-.255.056Z"/><path fill="#fff" d="m253.881 54.672 1.026 2.079 2.302.332-1.666 1.622.395 2.286-2.057-1.078-2.056 1.078.391-2.286-1.662-1.622 2.297-.332 1.03-2.08Zm-8.079 0 1.026 2.079 2.301.332-1.666 1.622.395 2.286-2.056-1.078-2.057 1.078.391-2.286-1.662-1.622 2.297-.332 1.031-2.08Z"/><path fill="#fff" d="m252.332 63.245-2.701-1.457-2.733 1.395.557-3.017-2.177-2.162 3.045-.407 1.387-2.734 1.33 2.763 3.032.478-2.222 2.112.482 3.029Z"/><path fill="#1F1F1F" d="m244.746 57.821 3.415-.452 1.558-3.066 1.487 3.1 3.402.535-2.492 2.369.544 3.398-3.029-1.635-3.065 1.565.619-3.382-2.439-2.432Zm8.79.448-2.662-.414-1.168-2.432-1.221 2.402-2.675.349 1.906 1.9-.481 2.665 2.401-1.245 2.372 1.282-.416-2.66 1.944-1.847Z"/><path fill="#2F2F2F" d="m285.273 144.09-.099-98.991.099.1h-71.287l.108-.108v98.99l-.087-.087 71.295.087-71.295.088h-.092V44.983h71.5v.095c-.096 58.533-.142 98.161-.142 99.012Z"/><path fill="#fff" d="M71.594 45.099H.298v98.991h71.296V45.099Z"/><path fill="#1F1F1F" d="M71.594 45.099H.298V80.93h71.296V45.099Z"/><path fill="#2F2F2F" d="M59.252 89.71c0 .063-9.803.113-21.892.113-12.088 0-21.891-.05-21.891-.113 0-.062 9.8-.107 21.892-.107 12.092 0 21.891.037 21.891.107Zm0 9.64c0 .058-9.803.108-21.892.108-12.088 0-21.891-.05-21.891-.108 0-.058 9.8-.108 21.892-.108 12.092 0 21.891.05 21.891.108Zm0 9.651c0 .058-9.803.108-21.892.108-12.088 0-21.891-.05-21.891-.108 0-.058 9.8-.112 21.892-.112 12.092 0 21.891.05 21.891.112Z"/><path fill="#1F1F1F" d="M59.07 120.122H16.244c-4.212 0-7.626 3.411-7.626 7.619v.792c0 4.208 3.414 7.619 7.627 7.619h42.823c4.213 0 7.627-3.411 7.627-7.619v-.792c0-4.208-3.414-7.619-7.627-7.619Z"/><path fill="#fff" d="M29.327 72.087c.156.21.236.466.228.727a1.095 1.095 0 0 1-.502.962c-.44.251-.944.368-1.45.336h-2.56v-4.734h2.427c.483-.031.965.086 1.379.336a1.063 1.063 0 0 1 .478.904 1.16 1.16 0 0 1-.166.606c-.117.18-.281.322-.474.415.253.083.476.239.64.448Zm-2.958-1.742v.912h.939c.453 0 .677-.153.677-.46 0-.307-.224-.452-.677-.452h-.939Zm1.832 2.32c0-.32-.237-.482-.706-.482h-1.126v.962h1.126c.47 0 .706-.161.706-.48Zm5.229.526h-2.006l-.37.921h-1.37l2.077-4.738h1.32l2.12 4.738h-1.396l-.374-.92Zm-.394-.987-.606-1.515-.611 1.515h1.217Zm3.091 1.863a2.705 2.705 0 0 1-.88-.382l.44-.988c.229.148.478.262.739.34.269.086.549.129.83.13.516 0 .773-.13.773-.387a.324.324 0 0 0-.22-.302 4.577 4.577 0 0 0-.706-.208 6.722 6.722 0 0 1-.897-.245 1.49 1.49 0 0 1-.615-.415 1.13 1.13 0 0 1-.258-.784c-.003-.28.08-.553.237-.784.178-.248.423-.439.706-.552.368-.142.76-.21 1.155-.2.31 0 .62.034.922.104.282.061.552.165.802.307l-.415.996c-.4-.23-.852-.356-1.313-.365a1.1 1.1 0 0 0-.582.116.349.349 0 0 0-.182.307.302.302 0 0 0 .216.287c.226.086.46.151.698.195.304.063.604.146.897.249.235.086.446.229.615.415.189.22.284.506.265.796.004.276-.08.546-.236.772a1.6 1.6 0 0 1-.71.552 2.91 2.91 0 0 1-1.156.208 4.37 4.37 0 0 1-1.125-.162Zm3.838-4.689h1.342v4.738h-1.342v-4.738Zm3.323 4.514c-.387-.2-.71-.502-.934-.875a2.57 2.57 0 0 1 0-2.544c.224-.374.547-.679.934-.88a2.83 2.83 0 0 1 1.338-.31c.402-.008.801.07 1.171.227.34.147.638.375.869.664l-.856.772a1.403 1.403 0 0 0-1.118-.556 1.375 1.375 0 0 0-.685.17c-.2.11-.364.275-.47.477-.114.217-.171.46-.166.706-.005.247.052.49.166.71.108.2.27.366.47.477.21.115.446.174.685.17a1.406 1.406 0 0 0 1.118-.556l.855.772a2.292 2.292 0 0 1-.868.663c-.37.157-.769.235-1.171.229-.465.008-.925-.1-1.338-.316Zm-16.512 55.869a2.172 2.172 0 0 1-.856-.83 2.364 2.364 0 0 1 0-2.348 2.2 2.2 0 0 1 .856-.772 2.724 2.724 0 0 1 2.264-.091c.3.128.567.326.777.577l-.657.605a1.402 1.402 0 0 0-1.105-.514 1.457 1.457 0 0 0-.73.178 1.281 1.281 0 0 0-.503.498 1.478 1.478 0 0 0-.179.731c-.006.254.056.506.179.73.115.202.283.368.486.481.224.123.476.184.73.179a1.396 1.396 0 0 0 1.106-.523l.656.606a2.005 2.005 0 0 1-.78.585 2.622 2.622 0 0 1-1.04.199 2.551 2.551 0 0 1-1.204-.291Zm6.738-2.842a1.504 1.504 0 0 1 .386 1.12v1.922h-.98v-1.789a.877.877 0 0 0-.179-.597.637.637 0 0 0-.51-.199.773.773 0 0 0-.59.228.94.94 0 0 0-.22.684v1.66h-.985v-4.639h.984v1.635c.13-.131.286-.235.457-.303.194-.071.4-.106.607-.104a1.397 1.397 0 0 1 1.03.382Zm1.965 2.888a1.684 1.684 0 0 1-.665-.622 1.834 1.834 0 0 1 0-1.801c.162-.262.391-.476.665-.618a2.03 2.03 0 0 1 .964-.224c.332-.006.66.071.955.224.273.141.502.355.66.618a1.802 1.802 0 0 1 0 1.801 1.66 1.66 0 0 1-.66.622 2.007 2.007 0 0 1-.956.22 2.04 2.04 0 0 1-.963-.22Zm1.583-.83a.948.948 0 0 0 .24-.684.945.945 0 0 0-.24-.681.826.826 0 0 0-.619-.257.831.831 0 0 0-.818.573.943.943 0 0 0-.055.365.953.953 0 0 0 .245.684.835.835 0 0 0 .628.253.83.83 0 0 0 .619-.261v.008Zm2.546.83a1.657 1.657 0 0 1-.664-.622 1.712 1.712 0 0 1 .664-2.419 2.158 2.158 0 0 1 1.92 0c.273.141.501.355.66.618a1.802 1.802 0 0 1 0 1.801c-.158.264-.387.48-.66.622a2.2 2.2 0 0 1-1.92 0Zm1.583-.83a.949.949 0 0 0 .24-.676.938.938 0 0 0-.24-.681.824.824 0 0 0-.623-.257.821.821 0 0 0-.623.257.944.944 0 0 0-.245.681.953.953 0 0 0 .245.685.839.839 0 0 0 .623.253.83.83 0 0 0 .623-.27v.008Zm2.205.946a2.005 2.005 0 0 1-.64-.261l.329-.701c.17.104.355.183.548.232.204.06.415.091.627.091.416 0 .623-.099.623-.307a.213.213 0 0 0-.049-.133.212.212 0 0 0-.12-.074 2.425 2.425 0 0 0-.52-.108 4.631 4.631 0 0 1-.69-.145 1.091 1.091 0 0 1-.47-.287.829.829 0 0 1-.198-.593.92.92 0 0 1 .186-.569c.142-.178.33-.313.545-.39a2.35 2.35 0 0 1 .83-.137c.24 0 .48.026.715.079a2.1 2.1 0 0 1 .59.216l-.328.701a1.94 1.94 0 0 0-.977-.253 1.027 1.027 0 0 0-.473.087.27.27 0 0 0-.158.229c0 .05.017.099.048.138.03.04.074.069.122.081.178.057.36.097.544.121.23.036.458.084.682.145.176.054.334.154.457.291a.78.78 0 0 1 .195.576.89.89 0 0 1-.187.56 1.239 1.239 0 0 1-.553.382 2.418 2.418 0 0 1-.86.133c-.275 0-.55-.034-.818-.104Zm6.344-1.361h-2.564c.04.202.156.38.325.498.19.126.415.19.643.183.16.004.32-.023.47-.079.142-.057.272-.142.382-.249l.523.569a1.778 1.778 0 0 1-1.4.543 2.207 2.207 0 0 1-1.013-.22 1.62 1.62 0 0 1-.681-.622 1.81 1.81 0 0 1 0-1.797c.155-.264.381-.479.652-.622a1.9 1.9 0 0 1 .922-.225c.314-.004.624.07.901.216.266.14.485.353.632.614.15.286.222.607.208.93v.261Zm-2.31-1.091a.798.798 0 0 0-.274.515h1.661a.83.83 0 0 0-.278-.515.835.835 0 0 0-.557-.191.835.835 0 0 0-.552.191Z"/><path fill="#1F1F1F" d="M11.012 91.499a.628.628 0 0 1-.416-.154L9.38 90.27a.624.624 0 1 1 .83-.933l.761.668 1.72-1.9a.624.624 0 0 1 .922.83l-2.131 2.352a.638.638 0 0 1-.47.212Zm0 9.647a.627.627 0 0 1-.416-.153l-1.217-1.07a.626.626 0 1 1 .83-.938l.757.684 1.72-1.896a.622.622 0 1 1 .922.83l-2.131 2.353a.63.63 0 0 1-.465.19Zm0 9.652a.632.632 0 0 1-.416-.153L9.38 109.57a.631.631 0 0 1-.175-.672.625.625 0 0 1 1.006-.262l.76.668 1.72-1.9a.62.62 0 0 1 .693-.218.621.621 0 0 1 .377.838.62.62 0 0 1-.148.21l-2.131 2.352a.647.647 0 0 1-.47.212Z"/><path fill="#fff" d="m38.648 63.245-2.7-1.457-2.733 1.395.552-3.017-2.172-2.162 3.04-.407 1.392-2.734 1.325 2.763 3.033.478-2.222 2.112.486 3.029Z"/><path fill="#2F2F2F" d="M71.594 144.09c0-.871-.037-40.479-.095-98.99l.095.099-71.287.008.108-.108c0 37.039 0 71.31-.021 98.991l-.087-.087 71.295.087-71.295.087H.22v-.087c0-27.681 0-61.952-.021-98.99v-.109h71.495v.096c-.058 58.524-.096 98.152-.1 99.003ZM227.661 32.505a3.436 3.436 0 0 0-1.45-4.693 4.402 4.402 0 0 0-3.664-4.85c-1.072-.13-2.156.153-3.232.07-1.076-.083-2.006-.498-3.028-.685-1.022-.187-2.197-.079-2.908.685-.777.83-.66 2.236-.041 3.211.619.976 1.616 1.623 2.584 2.245a1.198 1.198 0 0 0-1.189 1.038c-.06.59.1 1.18.449 1.66a5.249 5.249 0 0 0 4.943 2.348l2.713-.079a3.446 3.446 0 0 0 3.867.017c.38-.256.705-.584.956-.967Z"/><path fill="#2ECC82" d="M219.091 35.181a1.133 1.133 0 0 1-1.213-.908 1.533 1.533 0 0 1 .611-1.47 2.423 2.423 0 0 1 1.583-.414 5.849 5.849 0 0 1 1.628.377c.821.27 1.606.638 2.339 1.096.264.154.491.366.664.618a.856.856 0 0 1 .05.872c-.224.365-.727.415-1.154.415a26.456 26.456 0 0 1-4.79-.416"/><path fill="#2F2F2F" d="M218.198 34.269c-.32-3.038-4.611-5.764-6.464-5.279a3.88 3.88 0 0 0-5.084-1.66l-5.051-2.236c-.864-.382-1.77-.776-2.709-.693-.939.083-1.894.83-1.861 1.764-1.823-.727-4.104 1.112-3.772 3.05a2.042 2.042 0 0 0-1.508 2.564 20.475 20.475 0 0 0-6.364 2.788c-.83.536-1.632 1.195-1.898 2.13-.266.933.328 2.153 1.3 2.161a2.389 2.389 0 0 0-1.62 2.017c-.752-.523-1.807.452-1.69 1.36.116.91.893 1.565 1.64 2.075.748.51 1.575 1.067 1.874 1.93a.836.836 0 0 1-.586.295c-2.019.1-3.676 1.606-3.701 3.622v.515c0 .92.631 2.249 1.038 3.07 1.026 2.075 2.14 2.652 3.801 4.283-1.387.83-.315 5.693 5.056 5.618 5.533 6.905 9.99 11.254 17.114 16.503 1.018.75 2.343 1.51 3.465.93.664.83 1.836 1.095 2.887.945a9.372 9.372 0 0 0 2.945-1.15 5.508 5.508 0 0 0 6.127-1.659 6.803 6.803 0 0 0 4.935-2.378c2.098.735 4.674-.796 5.031-2.987a24.012 24.012 0 0 0 2.293-7.557c1.354.602 2.949-.647 3.273-2.095.324-1.448-.224-2.905-.764-4.303.706.871 2.272.332 2.708-.697.436-1.03.092-2.216-.344-3.25a20.22 20.22 0 0 0-2.431-4.265c.711-1.838.03-5.03-.909-6.764-3.789-7-7.349-10.676-18.723-10.685"/><path fill="#FFBF9D" d="M205.956 39.464a2.909 2.909 0 0 1 3.809-1.041l15.109 5.228c4.436 2.282 3.842 9.191 1.371 13.523-2.746 4.814-6.286 10.581-9.098 13.669-5.658 6.224-12.412 2.93-12.412 2.93l-3.323 5.004-3.843 5.855c-1.753-1.627-12.379-13.047-12.379-13.047l20.766-32.12Z"/><path fill="#2F2F2F" d="M212.366 62.689c.029-.058.694.228 1.741.738.261.137.523.241.673.1.186-.239.296-.528.315-.83l.499-2.336c.735-3.32 1.437-5.963 1.57-5.934.133.029-.353 2.739-1.088 6.046-.187.83-.366 1.585-.54 2.328a1.69 1.69 0 0 1-.503 1.041.731.731 0 0 1-.636.092 1.995 1.995 0 0 1-.452-.212c-1.006-.569-1.612-.983-1.579-1.033Z"/><path fill="#FF9A6C" d="M204.735 73.768s-4.013-2.075-6.817-7.884c0 0-2.272 5.897 5.226 10.278l1.591-2.394Z"/><path fill="#2F2F2F" d="M215.901 49.501c-.266.2-1.143-.551-2.355-1.153-1.213-.602-2.323-.892-2.318-1.22 0-.158.324-.299.855-.311a4.576 4.576 0 0 1 3.56 1.809c.283.44.358.78.258.875Zm9.01 6.291c-.312.108-.831-.552-1.612-1.083-.781-.531-1.558-.83-1.566-1.141 0-.154.254-.303.686-.315.556.002 1.098.18 1.549.506.462.314.814.764 1.009 1.286.133.407.063.69-.066.747Z"/><path fill="#2F2F2F" d="M226.934 62.581a5.715 5.715 0 0 0 .976-3.701c-.091-.706-.361-1.386-.378-2.1-.037-1.54 1.064-2.843 1.616-4.278a6.249 6.249 0 0 0-.677-5.685c-.939-1.361-2.414-2.332-3.141-3.813-.54-1.096-.627-2.382-1.246-3.44-1.175-2.075-3.859-2.64-6.231-2.847-1.279 1.079-1.246 2.818-1.246 4.49a5.807 5.807 0 0 0 2.077 4.378c1.005.83 2.401 1.468 2.6 2.75.208 1.35-1.096 2.52-1.113 3.88-.021 1.95 2.414 2.96 3.203 4.743.606 1.374.141 2.955-.125 4.436-.266 1.482-.174 3.295 1.089 4.116a17.196 17.196 0 0 0 2.596-2.929Z"/><path fill="#2F2F2F" d="M218.763 41.003a29.41 29.41 0 0 0-10.186-4.875c-1.092-.283-2.276-.498-3.323-.071-.918.373-1.582 1.178-2.156 1.992-1.786 2.535-2.999 6.349-3.738 9.37l1.786 4.149c2.837 1.174 4.744-3.805 6.144-5.984a6.11 6.11 0 0 0 6.048-2.282 6.767 6.767 0 0 0 5.425-2.299Z"/><path fill="#FFBF9D" d="M201.777 50.634c.948-1.51-.623-3.066-2.396-3.216-.972-.083-2.077.353-3.087 1.947-2.708 4.24 2.115 6.087 2.202 5.966.087-.12 2.172-2.933 3.281-4.697Z"/><path fill="#FF9A6C" d="M198.222 52.9c0-.029-.108 0-.27 0a.87.87 0 0 1-.561-.34c-.345-.453-.266-1.403.199-2.183.223-.37.525-.686.885-.925a1.012 1.012 0 0 1 .918-.212.442.442 0 0 1 .307.481c0 .154-.099.22-.079.245.021.025.133 0 .212-.211a.57.57 0 0 0 0-.374.668.668 0 0 0-.34-.37 1.25 1.25 0 0 0-1.193.167 2.942 2.942 0 0 0-1.013 1.02c-.519.872-.594 1.951-.091 2.52a.937.937 0 0 0 .747.319c.204-.041.287-.12.279-.137Z"/><path fill="#1F1F1F" d="m196.527 54.286-.05.046a.716.716 0 0 1-.166.112 1.14 1.14 0 0 1-.781.083 3.077 3.077 0 0 1-1.159-.515 4.304 4.304 0 0 1-.623-.519 2.898 2.898 0 0 1-.561-.73h.066a2.488 2.488 0 0 1-2.373.659 2.49 2.49 0 0 1-1.781-1.7l.079.037a1.05 1.05 0 0 1-.793-.03 1.446 1.446 0 0 1-.619-.53 1.334 1.334 0 0 1-.22-.83c.02-.296.116-.582.278-.83a2.578 2.578 0 0 1 1.425-1.042 7.685 7.685 0 0 1 1.832-.27l-.058.1a1.746 1.746 0 0 1 .049-1.431 2.59 2.59 0 0 1 .985-1.12 4.02 4.02 0 0 1 1.45-.503 12.054 12.054 0 0 1 1.553-.12l-.07.087a1.882 1.882 0 0 1 .448-1.469 2.74 2.74 0 0 1 1.338-.88c1.005-.29 2.035-.112 2.991.046l-.083.05a3.311 3.311 0 0 1 2.356-2.027 3.324 3.324 0 0 1 3.002.807l-.112.025a2.88 2.88 0 0 1 1.982-1.585 2.835 2.835 0 0 1 2.334.415h-.087a2.83 2.83 0 0 1 2.21-1.112 2.792 2.792 0 0 1 2.048.759h-.079a2.792 2.792 0 0 1 1.088-.81 3.528 3.528 0 0 1 1.159-.298c.64-.07 1.285.075 1.832.415l.158.1c.05.037.096.078.137.116.083.068.162.14.237.215.113.123.218.253.312.39.066.113.116.2.157.262l.05.091a.54.54 0 0 1-.062-.083l-.17-.253a3.445 3.445 0 0 0-.316-.378 2.42 2.42 0 0 0-.237-.207l-.137-.112-.158-.095a2.863 2.863 0 0 0-1.794-.374c-.391.04-.773.143-1.13.307a2.63 2.63 0 0 0-1.043.785l-.037.045-.038-.041a2.658 2.658 0 0 0-1.973-.714 2.711 2.711 0 0 0-2.118 1.116l-.038.054-.05-.037a2.7 2.7 0 0 0-2.23-.37 2.746 2.746 0 0 0-1.886 1.51l-.042.092-.07-.066a3.205 3.205 0 0 0-2.868-.756 3.198 3.198 0 0 0-2.254 1.926v.058h-.063c-.955-.158-1.96-.328-2.908-.05a2.58 2.58 0 0 0-1.246.83 1.73 1.73 0 0 0-.415 1.353v.083h-.087c-1.031.029-2.077.083-2.929.597-.407.25-.731.616-.93 1.05a1.609 1.609 0 0 0-.054 1.316l.041.095h-.104a7.48 7.48 0 0 0-1.798.261 2.426 2.426 0 0 0-1.355.98 1.344 1.344 0 0 0-.066 1.494 1.099 1.099 0 0 0 1.267.518l.058-.02.021.062a2.44 2.44 0 0 0 1.915 1.66 2.47 2.47 0 0 0 2.077-.66l.041-.042.025.05c.142.265.322.507.536.718.187.19.391.363.611.515.337.25.721.428 1.13.526.254.067.523.046.764-.058.108-.09.174-.157.179-.149Zm-12.383-15.577c-.006-.12.002-.24.024-.357.056-.342.18-.67.366-.963.29-.473.728-.838 1.246-1.037a2.681 2.681 0 0 1 2.156.129h-.066a3.442 3.442 0 0 1 1.823-1.743 3.377 3.377 0 0 1 1.409-.274 8.12 8.12 0 0 1 1.495.282c.25.06.508.082.764.066.26-.018.512-.098.736-.232.465-.257.855-.676 1.387-.934a3.065 3.065 0 0 1 3.386.585h-.121a4.025 4.025 0 0 1 6.293-1.087h-.116a3.537 3.537 0 0 1 3.388-1.762 3.543 3.543 0 0 1 3.018 2.339l-.071-.041a4.831 4.831 0 0 1 2.056.157 7.27 7.27 0 0 1 1.703.722 8.395 8.395 0 0 1 2.302 1.909 5.892 5.892 0 0 1 1.005 1.63c.065.157.118.318.158.482.018.054.031.11.041.166 0 0-.066-.224-.232-.63a6.297 6.297 0 0 0-1.026-1.602 8.412 8.412 0 0 0-2.297-1.864 7.045 7.045 0 0 0-1.687-.7 4.797 4.797 0 0 0-2.002-.146h-.05v-.05a3.405 3.405 0 0 0-4.778-1.833 3.396 3.396 0 0 0-1.37 1.323l-.046.083-.07-.062a3.88 3.88 0 0 0-4.945-.294 3.871 3.871 0 0 0-1.153 1.348l-.05.09-.071-.074a2.907 2.907 0 0 0-3.207-.54c-.502.237-.893.652-1.383.93a1.839 1.839 0 0 1-.794.245 2.813 2.813 0 0 1-.797-.075 8.216 8.216 0 0 0-1.475-.282 3.22 3.22 0 0 0-1.358.253c-.78.31-1.415.903-1.778 1.66l-.025.05-.046-.025a2.584 2.584 0 0 0-2.077-.141 2.49 2.49 0 0 0-1.246.992 2.664 2.664 0 0 0-.382.937c-.029.245-.029.37-.037.37Zm38.204 29.271a.507.507 0 0 1 .228-.349c.144-.095.31-.152.482-.166.234-.008.467.03.686.112.266.103.546.169.83.195.338-.004.664-.118.931-.324.313-.232.577-.524.777-.859.228-.344.415-.738.71-1.12.553-.78 1.446-1.328 2.26-2.033.426-.36.775-.802 1.026-1.3a2.01 2.01 0 0 0 .091-1.68 7.709 7.709 0 0 0-1.08-1.518 3.012 3.012 0 0 1-.486-.868 2.073 2.073 0 0 1-.05-1.016 9.705 9.705 0 0 1 .732-1.913c.141-.31.234-.638.278-.975a1.543 1.543 0 0 0-.22-.963 5.808 5.808 0 0 0-1.018-.967 2.233 2.233 0 0 1-.469-.556 1.37 1.37 0 0 1-.175-.705 4.86 4.86 0 0 1 .324-1.349c.143-.414.196-.854.154-1.29a3.016 3.016 0 0 0-1.159-2.13 3.12 3.12 0 0 0-2.185-.626h-.092v-.091a4.757 4.757 0 0 0-.043-2.016 4.762 4.762 0 0 0-.871-1.818 4.373 4.373 0 0 0-1.275-1.104 4.078 4.078 0 0 0-1.346-.498 3.566 3.566 0 0 0-1.985.233 3.26 3.26 0 0 0-.478.24l-.121.062h-.045l.037-.029.116-.074c.152-.1.312-.184.478-.254a3.499 3.499 0 0 1 2.011-.273c.486.078.953.246 1.379.494.507.283.954.662 1.317 1.116a4.9 4.9 0 0 1 .955 3.93l-.075-.08a3.23 3.23 0 0 1 3.143 1.627c.214.383.347.807.388 1.245.043.454-.011.912-.158 1.344-.165.42-.273.86-.319 1.307a1.483 1.483 0 0 0 .594 1.15c.391.284.743.62 1.046.996a1.7 1.7 0 0 1 .241 1.058 3.393 3.393 0 0 1-.286 1.02 9.632 9.632 0 0 0-.723 1.885c-.068.312-.053.636.041.942.108.3.263.58.462.83a7.6 7.6 0 0 1 1.092 1.551 1.9 1.9 0 0 1 .145.922 2.45 2.45 0 0 1-.245.87 4.218 4.218 0 0 1-1.059 1.337c-.831.714-1.72 1.245-2.26 2-.27.374-.482.764-.714 1.112-.218.343-.5.64-.831.876-.284.213-.63.326-.984.323a2.853 2.853 0 0 1-.831-.207 1.727 1.727 0 0 0-.665-.125.99.99 0 0 0-.469.146.607.607 0 0 0-.237.352Z"/><path fill="#1F1F1F" d="M234.831 67.386a.326.326 0 0 1 0-.108l.054-.311c.05-.278.124-.677.22-1.187.095-.51.228-1.141.311-1.88a4.446 4.446 0 0 0-.307-2.448c-.199-.415-.494-.83-.756-1.245a3.016 3.016 0 0 1-.32-.726 1.715 1.715 0 0 1-.033-.83c.112-.56.453-1.046.615-1.593.083-.27.083-.56 0-.83a2.75 2.75 0 0 0-.436-.78 5.19 5.19 0 0 1-.524-.797 1.64 1.64 0 0 1-.141-.975c.182-.645.45-1.262.797-1.834a2.36 2.36 0 0 0 .27-.942 1.23 1.23 0 0 0-.34-.892c-.457-.502-1.167-.73-1.695-1.245-.26-.27-.43-.613-.486-.983a4.53 4.53 0 0 1 0-1.067c.029-.349.066-.693.062-1.03a1.957 1.957 0 0 0-.228-.941c-.324-.577-.964-.855-1.554-1.1a4.464 4.464 0 0 1-1.661-.987 4.967 4.967 0 0 1-.902-1.585 9 9 0 0 0-.66-1.569 5.174 5.174 0 0 0-2.368-1.826 5.55 5.55 0 0 0-2.459-.369 6.147 6.147 0 0 0-1.836.452c-.368.16-.721.352-1.055.573l-.266.166-.096.054.087-.067.258-.182a6.513 6.513 0 0 1 1.051-.598 6.107 6.107 0 0 1 1.853-.485 5.572 5.572 0 0 1 2.492.357 5.27 5.27 0 0 1 2.43 1.855 8.73 8.73 0 0 1 .74 1.552 4.91 4.91 0 0 0 .88 1.539c.459.427 1.004.75 1.599.946.309.123.607.268.894.436a1.92 1.92 0 0 1 .98 1.738 9.87 9.87 0 0 1-.058 1.046 4.218 4.218 0 0 0 0 1.03c.047.338.201.654.44.9.49.493 1.201.722 1.699 1.244.253.27.389.63.378 1a2.5 2.5 0 0 1-.286 1c-.287.615-.682 1.17-.786 1.793-.052.305-.007.618.129.896.144.274.312.533.503.776.199.248.354.53.457.83.093.299.093.619 0 .917-.175.577-.511 1.054-.619 1.581a2.05 2.05 0 0 0 .332 1.478c.249.44.548.83.752 1.27.329.785.431 1.648.295 2.489-.091.743-.241 1.37-.341 1.884-.099.514-.191.9-.249 1.183-.029.128-.05.228-.066.307a.57.57 0 0 1-.05.12Z"/><path fill="#1F1F1F" d="m233.576 59.987.083.042a.55.55 0 0 1 .183.203 1.097 1.097 0 0 1-.116 1.017 2.814 2.814 0 0 1-.528.543 3.19 3.19 0 0 0-.619.631 1.929 1.929 0 0 0-.253.959c0 .36 0 .747-.042 1.157a1.441 1.441 0 0 1-.639 1.104c-.382.253-.831.361-1.226.623a1.879 1.879 0 0 0-.698 1.203c-.112.485-.145 1.012-.29 1.54a2.28 2.28 0 0 1-.345.755c-.174.229-.393.42-.644.56-.519.25-1.06.452-1.616.601a2.314 2.314 0 0 0-1.362.98 7.51 7.51 0 0 0-.503 1.73c-.078.307-.21.599-.391.859a2.076 2.076 0 0 1-.722.598 7.777 7.777 0 0 1-1.716.51 4.182 4.182 0 0 0-1.549.639 11.71 11.71 0 0 1-1.342.963c-.241.133-.51.207-.785.215-.265 0-.528-.046-.777-.136a6.502 6.502 0 0 0-.71-.208 2.696 2.696 0 0 0-.707-.02 5.29 5.29 0 0 0-1.296.39c-.415.17-.797.34-1.188.468a3.453 3.453 0 0 1-2.176 0 3.69 3.69 0 0 1-1.425-.83 3.32 3.32 0 0 1-.64-.83 2.235 2.235 0 0 1-.15-.332c.207.419.489.795.831 1.112a3.69 3.69 0 0 0 1.408.797 3.407 3.407 0 0 0 2.119-.041c.382-.129.764-.299 1.176-.473a5.272 5.272 0 0 1 1.329-.415c.245-.035.494-.035.739 0 .247.054.49.123.727.207.236.086.485.13.736.129a1.66 1.66 0 0 0 .727-.203c.461-.29.902-.61 1.32-.959a4.322 4.322 0 0 1 1.596-.664 7.536 7.536 0 0 0 1.661-.506c.263-.13.492-.318.669-.552a2.39 2.39 0 0 0 .366-.805 7.622 7.622 0 0 1 .519-1.768c.153-.27.37-.497.631-.664.261-.16.54-.289.831-.381a10.072 10.072 0 0 0 1.591-.527c.232-.133.436-.311.598-.523.151-.216.262-.456.328-.71.142-.506.175-1.029.291-1.527.08-.507.352-.965.76-1.278.416-.278.873-.382 1.247-.618a1.338 1.338 0 0 0 .598-1.017c.05-.39.025-.78.05-1.145.004-.352.101-.697.282-1a3.13 3.13 0 0 1 .64-.64c.2-.148.377-.324.527-.522a1.054 1.054 0 0 0 .137-.971.637.637 0 0 0-.245-.27Z"/><path fill="#FF9A6C" d="M208.449 61.938a.685.685 0 0 1 .922.207l1.873 2.78.212.307a7.55 7.55 0 0 1-1.661 1.087 1.978 1.978 0 0 1-1.662 0 2.2 2.2 0 0 1-.881-1.045c-.286-.701-.519-1.42-.199-2.104.233-.502.955-.95 1.396-1.233Z"/><path fill="#E0E0E0" d="M194.599 51.875a2.652 2.652 0 0 0-.864-.087 3.392 3.392 0 0 0-2.168.913 3.604 3.604 0 0 0-.935 1.36 4.076 4.076 0 0 0-.224 1.88c.076.705.332 1.378.743 1.955a3.785 3.785 0 0 0 1.791 1.353 4.07 4.07 0 0 0 2.239.174 3.68 3.68 0 0 0 1.844-.988 3.91 3.91 0 0 0 1.138-3.257 3.426 3.426 0 0 0-.494-1.27 3.726 3.726 0 0 0-.652-.792 2.258 2.258 0 0 0-.54-.361.543.543 0 0 0-.216-.067c.26.12.497.285.702.486a3.731 3.731 0 0 1 1.067 2.02 3.786 3.786 0 0 1-1.13 3.117 3.518 3.518 0 0 1-1.757.93c-.714.14-1.453.08-2.135-.175a3.623 3.623 0 0 1-1.703-1.278 4.008 4.008 0 0 1-.723-1.867 3.928 3.928 0 0 1 .2-1.805c.188-.5.487-.95.876-1.316a3.442 3.442 0 0 1 2.077-.937c.565-.038.86.037.864.012Z"/><path fill="#2F2F2F" d="M211.419 55.14a1.09 1.09 0 0 1-1.487.341 1.043 1.043 0 0 1-.416-1.44 1.096 1.096 0 0 1 1.487-.34 1.048 1.048 0 0 1 .516.631 1.036 1.036 0 0 1-.1.809Zm8.682 6.055a1.096 1.096 0 0 1-1.487.34 1.044 1.044 0 0 1-.512-.634 1.055 1.055 0 0 1 .096-.81 1.101 1.101 0 0 1 1.488-.34 1.055 1.055 0 0 1 .545 1.049 1.04 1.04 0 0 1-.13.395Zm2.484-2.39c-.179.075-.524-.876-1.462-1.407-.939-.531-1.932-.37-1.957-.564 0-.087.224-.266.665-.349a2.438 2.438 0 0 1 2.733 1.573c.145.423.108.718.021.747Zm-8.819-5.283c-.22.05-.544-1.066-1.599-1.813-1.056-.747-2.219-.726-2.235-.946 0-.104.282-.261.806-.286a3.135 3.135 0 0 1 1.91.589c.552.395.956.963 1.147 1.614.137.514.071.822-.029.842Zm-4.819 12.881s-.15.058-.415 0a1.94 1.94 0 0 1-1.006-.61 3.043 3.043 0 0 1-.768-1.565 1.902 1.902 0 0 1 .116-1.062c.16-.349.397-.657.694-.9.284-.237.595-.439.926-.602a.756.756 0 0 1 .623-.08.93.93 0 0 1 .416.416l.897 1.427c.295.434.542.899.735 1.386a6.967 6.967 0 0 1-.955-1.245c-.299-.414-.619-.892-.96-1.386-.183-.298-.316-.369-.615-.207a4.746 4.746 0 0 0-.859.569 1.798 1.798 0 0 0-.723 1.66c.081.53.302 1.03.639 1.448.226.285.525.506.864.638.241.08.395.084.391.112Zm37.631-16.143a6.63 6.63 0 0 0-.648-1.447 4.9 4.9 0 0 0-1.279-1.32 4.501 4.501 0 0 0-2.256-.809h-.129v-.133a4.143 4.143 0 0 0-.959-2.97 4.201 4.201 0 0 0-3.195-1.62h-.162v-.16a6.776 6.776 0 0 0-1.956-4.632 6.518 6.518 0 0 0-3.523-1.817 6.777 6.777 0 0 0-3.626.365l-.075.029-.071-.046a10.128 10.128 0 0 0-3.879-1.56c-1.08-.2-2.185-.229-3.274-.087-.958.146-1.899.389-2.808.726 0 0 .054-.041.17-.1.117-.058.291-.149.524-.24a9.825 9.825 0 0 1 2.077-.569 10.496 10.496 0 0 1 3.344 0 10.33 10.33 0 0 1 4.008 1.56h-.145a6.999 6.999 0 0 1 3.797-.414 6.763 6.763 0 0 1 3.709 1.9 7.051 7.051 0 0 1 2.044 4.867l-.162-.161a4.52 4.52 0 0 1 3.427 1.76 4.4 4.4 0 0 1 .997 3.173l-.116-.136c.854.073 1.67.385 2.355.9.517.378.952.856 1.28 1.407.207.345.363.718.465 1.108.038.139.061.282.066.427Z"/><path fill="#2F2F2F" d="M219.968 28.878a2.95 2.95 0 0 1-1.197-.49 4.52 4.52 0 0 1-1.985-2.905 4.165 4.165 0 0 1 .278-2.489 4.686 4.686 0 0 1 1.907-2.161 4.286 4.286 0 0 1 3.161-.42 4.572 4.572 0 0 1 2.825 2.005l-.187-.08a3.264 3.264 0 0 1 2.168.237c.577.26 1.071.675 1.425 1.2.327.516.489 1.12.465 1.73a3.352 3.352 0 0 1-1.682 2.818l-.063-.3a2.763 2.763 0 0 1 2.131 1.474 2.838 2.838 0 0 1 .183 2.353 3.658 3.658 0 0 1-2.932 2.344 4.542 4.542 0 0 1-2.493-.37 3.912 3.912 0 0 1-.59-.315c-.124-.087-.187-.132-.183-.14.005-.009.275.157.811.36a4.601 4.601 0 0 0 2.405.27 3.445 3.445 0 0 0 2.708-2.237 2.562 2.562 0 0 0-.191-2.12 2.463 2.463 0 0 0-1.894-1.303l-.536-.041.469-.258a3.033 3.033 0 0 0 1.504-2.543 2.717 2.717 0 0 0-.415-1.54 3.073 3.073 0 0 0-1.247-1.075 2.933 2.933 0 0 0-1.939-.215l-.121.033-.066-.108a4.25 4.25 0 0 0-2.609-1.863 3.966 3.966 0 0 0-2.941.386 4.435 4.435 0 0 0-1.816 2.008 3.971 3.971 0 0 0-.299 2.328 4.48 4.48 0 0 0 1.832 2.834c.351.235.724.433 1.114.593Zm-27.055-3.415a.759.759 0 0 1 .033-.211c.046-.2.108-.396.187-.585a5.315 5.315 0 0 1 1.312-1.905 5.276 5.276 0 0 1 3.207-1.436 5.617 5.617 0 0 1 4.196 1.44l-.187-.025a6.694 6.694 0 0 1 4.615-.606 6.484 6.484 0 0 1 3.103 1.735 6.63 6.63 0 0 1 1.662 2.796l-.129-.107a7.374 7.374 0 0 1 3.402 1.402 7.674 7.674 0 0 1 1.94 2.104 6.75 6.75 0 0 1 .756 1.693c.067.209.11.425.129.643a10.1 10.1 0 0 0-1.043-2.236 7.582 7.582 0 0 0-1.931-1.996 7.224 7.224 0 0 0-3.29-1.307h-.1l-.029-.096c-.31-1-.86-1.91-1.604-2.647a6.15 6.15 0 0 0-2.941-1.66 6.415 6.415 0 0 0-4.386.56l-.104.054-.083-.079a5.377 5.377 0 0 0-3.955-1.398 5.15 5.15 0 0 0-3.09 1.307 5.581 5.581 0 0 0-1.351 1.797c-.224.49-.294.771-.319.763Z"/><path fill="#2ECC82" d="M167.444 56.63s.449-.796 3.909-.344c3.46.452 17.169 9.934 17.169 9.934s-2.493 9.797 5.047 11.664c5.491 1.361 8.403-.17 8.403-.17s9.193 11.42 9.945 16.075c0 0-44.303 30.964-37.112 27.599l-7.361.083v-64.84Z"/><path fill="#2ECC82" d="M211.199 91.694c.12.328 1.836 2.37.137 11.465-1.546 8.262-8.308 16.598-8.308 16.598l-13.484-12.121 21.655-15.942Z"/><path fill="#2F2F2F" d="M204.166 98.171a1.394 1.394 0 0 1-.208.203l-.619.54c-.548.46-1.346 1.12-2.347 1.917a453.114 453.114 0 0 1-7.892 6.112c-3.104 2.357-5.941 4.469-7.997 6.005l-2.443 1.784-.672.477a1.218 1.218 0 0 1-.241.154c.066-.069.138-.131.216-.187l.648-.511 2.401-1.838 7.955-6.037c3.107-2.357 5.911-4.498 7.93-6.063l2.388-1.863.644-.506a1.7 1.7 0 0 1 .237-.187Z"/><path fill="#fff" d="M181.747 19.932H83.624v136.233h98.123V19.932Z"/><path fill="#2ECC82" d="M181.747 19.932H83.624V69.24h98.123V19.93Z"/><path fill="#2F2F2F" d="M171.523 23.878h-17.438a4.683 4.683 0 0 0-4.686 4.681v.486a4.683 4.683 0 0 0 4.686 4.68h17.438a4.683 4.683 0 0 0 4.686-4.68v-.486a4.683 4.683 0 0 0-4.686-4.68Zm-6.767 57.438c0 .058-13.492.108-30.125.108-16.632 0-30.133-.05-30.133-.108 0-.058 13.488-.108 30.133-.108 16.646 0 30.125.046 30.125.108Zm0 13.278c0 .058-13.492.108-30.125.108-16.632 0-30.133-.05-30.133-.108 0-.058 13.488-.108 30.133-.108 16.646 0 30.125.05 30.125.108Zm0 13.283c0 .058-13.492.108-30.125.108-16.632 0-30.133-.05-30.133-.108 0-.058 13.488-.108 30.133-.108 16.646 0 30.125.046 30.125.108Z"/><path fill="#2ECC82" d="M164.507 123.185h-58.941c-5.796 0-10.493 4.693-10.493 10.481v1.1c0 5.789 4.697 10.482 10.493 10.482h58.941c5.795 0 10.493-4.693 10.493-10.482v-1.1c0-5.788-4.698-10.481-10.493-10.481Z"/><path fill="#fff" d="M109.279 61.614a3.705 3.705 0 0 1-1.213-.523l.607-1.357c.315.203.658.36 1.018.465a3.92 3.92 0 0 0 1.138.178c.706 0 1.063-.178 1.063-.53a.437.437 0 0 0-.303-.416 5.508 5.508 0 0 0-.976-.286 8.5 8.5 0 0 1-1.246-.34 2.07 2.07 0 0 1-.852-.581 1.582 1.582 0 0 1-.353-1.08c-.005-.384.11-.761.328-1.078.244-.342.581-.605.972-.76a4.016 4.016 0 0 1 1.591-.277c.427 0 .852.049 1.267.145.386.08.758.22 1.101.415l-.569 1.37a3.789 3.789 0 0 0-1.807-.503 1.514 1.514 0 0 0-.802.162.487.487 0 0 0-.253.415.414.414 0 0 0 .299.39c.311.12.632.212.959.274.423.082.84.194 1.247.336.318.126.603.325.83.58.253.3.381.685.358 1.075.004.38-.11.75-.324 1.063a2.26 2.26 0 0 1-.981.76c-.504.2-1.044.295-1.587.281a5.943 5.943 0 0 1-1.512-.178Zm6.576-4.992h-2.006v-1.465h5.849v1.465H117.7v5.058h-1.845v-5.058Zm8.578 3.793h-2.758l-.515 1.245h-1.882l2.879-6.523h1.819l2.908 6.523h-1.919l-.532-1.245Zm-.54-1.361-.831-2.075-.831 2.075h1.662Zm9.708-3.897v6.523h-1.52l-2.883-3.473v3.473h-1.807v-6.523h1.52l2.879 3.478v-3.478h1.811Zm1.296 0h3.086a4.346 4.346 0 0 1 1.903.416c.531.246.978.64 1.288 1.136a3.479 3.479 0 0 1 0 3.444 2.995 2.995 0 0 1-1.288 1.138 4.288 4.288 0 0 1-1.903.414h-3.086v-6.547Zm3.012 5.05a1.91 1.91 0 0 0 1.35-.473 1.96 1.96 0 0 0 0-2.626 1.892 1.892 0 0 0-1.35-.477h-1.163v3.577h1.163Zm8.981.208h-2.758l-.515 1.245h-1.882l2.879-6.523h1.819l2.908 6.523h-1.94l-.511-1.245Zm-.54-1.361-.831-2.075-.831 2.075h1.662Zm6.351.892h-1.009v1.734h-1.84v-6.523h2.982a3.737 3.737 0 0 1 1.537.295 2.208 2.208 0 0 1 1.363 2.12 2.168 2.168 0 0 1-1.275 2.075l1.408 2.05h-1.977l-1.189-1.751Zm.877-3.083a1.298 1.298 0 0 0-.86-.25h-1.026v1.91h1.026c.307.021.612-.067.86-.25a.87.87 0 0 0 .287-.7.904.904 0 0 0-.275-.71h-.012Zm3.169-1.706h3.074a4.346 4.346 0 0 1 1.903.416c.53.247.977.642 1.288 1.136a3.478 3.478 0 0 1 0 3.444 3.02 3.02 0 0 1-1.288 1.138 4.288 4.288 0 0 1-1.903.414h-3.074v-6.547Zm3.012 5.05c.493.025.977-.145 1.346-.473a1.946 1.946 0 0 0 0-2.626 1.875 1.875 0 0 0-1.346-.477h-1.184v3.577h1.184Zm-2.014-32.565a.955.955 0 0 1 .415 1.348.893.893 0 0 1-.415.328 1.443 1.443 0 0 1-.607.116h-.532v.727h-.61v-2.635h1.142c.208-.004.415.036.607.116Zm-.225 1.178a.42.42 0 0 0 .146-.336.424.424 0 0 0-.146-.344.637.637 0 0 0-.415-.116h-.494v.912h.494a.641.641 0 0 0 .403-.116h.012Zm1.529 1.237a.981.981 0 0 1-.415-.37 1.067 1.067 0 0 1 0-1.078 1.01 1.01 0 0 1 .415-.37 1.309 1.309 0 0 1 1.147 0 1.041 1.041 0 0 1 .516.636 1.064 1.064 0 0 1-.101.813 1 1 0 0 1-.415.369 1.31 1.31 0 0 1-1.147 0Zm.943-.502a.643.643 0 0 0 0-.83.479.479 0 0 0-.37-.154.494.494 0 0 0-.374.154.643.643 0 0 0 0 .83.5.5 0 0 0 .374.153.479.479 0 0 0 .37-.165v.012Zm2.845-1.32c.155.084.282.21.366.365a1.2 1.2 0 0 1 0 1.096.908.908 0 0 1-.366.365 1.014 1.014 0 0 1-.511.129.768.768 0 0 1-.61-.245v.946h-.59v-2.755h.561v.232a.778.778 0 0 1 .639-.261c.179-.003.355.041.511.128Zm-.245 1.32a.644.644 0 0 0 0-.83.523.523 0 0 0-.739 0 .644.644 0 0 0 0 .83.523.523 0 0 0 .739 0Zm3.178-1.419v2.025h-.548v-.241a.809.809 0 0 1-.278.203.892.892 0 0 1-.349.067.874.874 0 0 1-.636-.229.93.93 0 0 1-.233-.68v-1.145h.59v1.058c0 .328.137.49.416.49a.443.443 0 0 0 .336-.137.573.573 0 0 0 .129-.415v-1l.573.004Zm.544-.768h.59v2.793h-.59v-2.793Zm2.675.962a.836.836 0 0 1 .254.676v1.154h-.549v-.253a.654.654 0 0 1-.619.282.954.954 0 0 1-.415-.078.613.613 0 0 1-.262-.216.592.592 0 0 1-.091-.32.534.534 0 0 1 .216-.444 1.09 1.09 0 0 1 .656-.162h.465a.365.365 0 0 0-.116-.294.524.524 0 0 0-.349-.104.946.946 0 0 0-.32.054.837.837 0 0 0-.266.137l-.207-.415a1.28 1.28 0 0 1 .394-.183c.156-.041.317-.062.478-.062.264-.019.525.063.731.229Zm-.498 1.395a.364.364 0 0 0 .162-.204v-.207h-.416c-.241 0-.361.079-.361.236a.205.205 0 0 0 .091.178.38.38 0 0 0 .241.067.497.497 0 0 0 .283-.07Zm2.131-1.544a1.07 1.07 0 0 1 .415-.074v.54h-.132a.537.537 0 0 0-.395.14.56.56 0 0 0-.145.415v.954h-.574v-2.024h.561v.265a.68.68 0 0 1 .27-.216Zm-50.559 108.27a2.994 2.994 0 0 1-1.175-1.121 3.238 3.238 0 0 1 0-3.232 3.002 3.002 0 0 1 1.175-1.116 3.763 3.763 0 0 1 3.116-.125c.416.177.783.45 1.072.797l-.902.83a1.952 1.952 0 0 0-1.528-.71 2.018 2.018 0 0 0-1.006.249c-.29.16-.529.399-.689.689a2.18 2.18 0 0 0 0 2.008c.161.29.4.528.689.689.308.168.655.252 1.006.245a1.918 1.918 0 0 0 1.528-.714l.902.83a2.83 2.83 0 0 1-1.076.805 3.616 3.616 0 0 1-1.433.278 3.528 3.528 0 0 1-1.679-.402Zm9.272-3.914a2.056 2.056 0 0 1 .536 1.544v2.668h-1.354v-2.461a1.244 1.244 0 0 0-.241-.829.89.89 0 0 0-.706-.274 1.067 1.067 0 0 0-.831.319c-.22.261-.329.598-.303.938v2.307h-1.355v-6.432h1.355v2.254c.184-.185.407-.326.652-.415.266-.097.547-.145.831-.141a1.904 1.904 0 0 1 1.416.522Zm2.708 3.972a2.284 2.284 0 0 1-1.246-2.1 2.37 2.37 0 0 1 .328-1.245c.222-.363.54-.657.918-.851a2.78 2.78 0 0 1 1.321-.307 2.75 2.75 0 0 1 1.317.307c.378.194.694.488.914.851.223.377.336.808.328 1.245a2.33 2.33 0 0 1-.328 1.245 2.267 2.267 0 0 1-.914.855 2.75 2.75 0 0 1-1.317.307 2.78 2.78 0 0 1-1.321-.307Zm2.177-1.15a1.501 1.501 0 0 0 0-1.884 1.139 1.139 0 0 0-.856-.348 1.146 1.146 0 0 0-.86.348 1.49 1.49 0 0 0 0 1.884 1.156 1.156 0 0 0 .86.349 1.139 1.139 0 0 0 .856-.353v.004Zm3.502 1.149a2.271 2.271 0 0 1-.914-.854 2.34 2.34 0 0 1-.328-1.245 2.37 2.37 0 0 1 .328-1.245 2.29 2.29 0 0 1 .914-.851c.413-.201.87-.297 1.329-.278a2.75 2.75 0 0 1 1.317.307 2.3 2.3 0 0 1 .91.851c.223.377.336.808.328 1.245a2.33 2.33 0 0 1-.328 1.245c-.218.364-.533.66-.91.855a2.75 2.75 0 0 1-1.317.307 2.768 2.768 0 0 1-1.329-.337Zm2.16-1.153a1.491 1.491 0 0 0 0-1.884 1.123 1.123 0 0 0-.851-.349 1.148 1.148 0 0 0-.86.349 1.47 1.47 0 0 0 0 1.884 1.142 1.142 0 0 0 .86.348 1.115 1.115 0 0 0 .851-.348Zm3.057 1.32a2.979 2.979 0 0 1-.884-.361l.452-.971c.234.145.487.256.752.327.283.082.575.123.869.125.573 0 .859-.138.859-.415a.303.303 0 0 0-.236-.286 3.428 3.428 0 0 0-.715-.154 7.113 7.113 0 0 1-.947-.199 1.47 1.47 0 0 1-.644-.415 1.128 1.128 0 0 1-.274-.83 1.275 1.275 0 0 1 .258-.784c.192-.244.45-.429.743-.531.371-.136.764-.2 1.159-.191.331-.001.662.035.985.108.284.054.558.155.81.299l-.449.962a2.686 2.686 0 0 0-1.346-.348 1.393 1.393 0 0 0-.652.12.368.368 0 0 0-.216.311.306.306 0 0 0 .237.303c.241.08.491.135.743.166.317.049.63.117.939.203.242.074.46.21.631.395.191.22.287.506.27.796.002.28-.09.551-.261.772a1.661 1.661 0 0 1-.76.523 3.384 3.384 0 0 1-1.18.187 4.578 4.578 0 0 1-1.143-.112Zm8.716-1.876h-3.527c.056.277.217.522.449.685.261.173.571.26.884.249.221.005.441-.032.648-.108.196-.078.374-.193.524-.34l.718.78a2.417 2.417 0 0 1-1.923.751 3.045 3.045 0 0 1-1.4-.307 2.254 2.254 0 0 1-.934-.855 2.34 2.34 0 0 1-.329-1.245 2.406 2.406 0 0 1 .324-1.245 2.27 2.27 0 0 1 .894-.855c.39-.209.828-.315 1.271-.307.433-.009.862.093 1.246.295.365.187.667.475.872.83.217.39.326.831.316 1.278 0 0-.017.17-.033.394Zm-3.166-1.498c-.213.179-.35.433-.382.71h2.302a1.115 1.115 0 0 0-1.147-.971 1.156 1.156 0 0 0-.773.261Z"/><path fill="#2ECC82" d="M98.37 83.557a.615.615 0 0 1-.415-.158l-1.661-1.473a.619.619 0 0 1-.059-.88.628.628 0 0 1 .86-.05l1.217 1.071 2.522-2.78a.623.623 0 0 1 .926.83l-2.937 3.236a.62.62 0 0 1-.452.204Zm.001 13.278a.61.61 0 0 1-.415-.153l-1.662-1.478a.624.624 0 1 1 .83-.933l1.218 1.07 2.522-2.784a.622.622 0 0 1 .926.83l-2.937 3.237a.616.616 0 0 1-.482.211Zm0 13.283a.618.618 0 0 1-.415-.158l-1.662-1.473a.638.638 0 0 1-.209-.43.627.627 0 0 1 .588-.66.624.624 0 0 1 .452.156l1.217 1.067 2.522-2.78a.619.619 0 0 1 .856-.023.618.618 0 0 1 .07.852l-2.937 3.237a.619.619 0 0 1-.482.212Z"/><path fill="#fff" d="m139.292 34.738 1.666 3.37 3.722.543-2.692 2.622.636 3.702-3.332-1.747-3.327 1.747.636-3.702-2.696-2.622 3.722-.544 1.665-3.37Z"/><path fill="#fff" d="m132.824 34.738 2.202 4.452 4.918.714-3.56 3.465.839 4.892-4.399-2.307-4.399 2.307.843-4.892-3.56-3.465 4.919-.714 2.197-4.452Z"/><path fill="#2ECC82" d="m137.759 49-4.939-2.59-4.935 2.59.943-5.486-3.992-3.888 5.517-.801 2.467-4.98 2.464 4.98 5.516.8-3.992 3.885.951 5.49Zm-11.17-8.814 3.124 3.046-.739 4.299 3.867-2.034 3.863 2.034-.752-4.295 3.124-3.046-4.32-.627-1.936-3.913-1.936 3.91-4.295.626Z"/><path fill="#2F2F2F" d="M181.747 156.169c0-.871-.042-55.691-.1-136.237l.1.1h-98.11l.108-.108c0 50.977 0 98.14-.021 136.237l-.087-.087 98.122.087-98.122.087h-.088v-.087c0-38.097 0-85.26-.02-136.237v-.108h98.309v.095l-.091 136.258Z"/><path fill="#FFBF9D" d="M133.73 101.889s-1.454-2.183 1.458-2.303c2.912-.12 17.227 2.303 22.079 4.726l4.245 2.664-4.598 9.088h-10.568c-1.213 0-4.607-2.075-1.454-3.511 0 0-3.153-2.182-.241-4 0 0-2.306-1.697.12-4l-11.041-2.664Z"/><path fill="#FFBF9D" d="m158.118 105.213 24.094 12.606 9.039-8.639 10.771 9.693s-10.676 12.523-16.861 13.615c-6.185 1.091-30.275-18.258-30.275-18.258l3.232-9.017Zm25.278-38.74-.225.129a4.23 4.23 0 0 1-1.109.385c-.183.02-.365.054-.544.1a2.086 2.086 0 0 0-.303.2c-.661.385-1.5.414-2.239.51-.831.087-1.724.215-2.372.75-.648.536-.939 1.602-.37 2.22a1.101 1.101 0 0 0-1.076.98 1.572 1.572 0 0 0 .648 1.39 2.99 2.99 0 0 0 1.496.54 1.214 1.214 0 0 0-1.002 1.356 1.863 1.863 0 0 0 1.143 1.395 4.294 4.294 0 0 0 1.848.282c.812-.03 1.625-.013 2.435.05v1.269c.438.256.911.447 1.404.569 1.092.357 1.798.647 2.783.9.735.191 1.458.282 1.853-.211.951-1.187-1.55-2.905-1.55-2.905.735-.415.536-2.768-.556-3.087.54-.266.88-.237 1.2-.751a1.921 1.921 0 0 0 .191-1.727 1.376 1.376 0 0 0-1.45-.83 2.3 2.3 0 0 0 .669-2.522 2.282 2.282 0 0 0-1.101-1.208 2.325 2.325 0 0 0-.797-.236.897.897 0 0 0-.316 0 .425.425 0 0 0-.129.066c-.182.095-.34.257-.531.386Z"/><path fill="#FFBF9D" d="M184.563 63.768a1.822 1.822 0 0 0-.669-1.353c-.507-.345-1.421-.303-2.023-.17-.037.73 0 1.1-.05 1.83 0 .153.046.273-.025.415-.187.36-.98.415-1.346.601a1.382 1.382 0 0 0-.502 1.83 1.85 1.85 0 0 0 1.79.884 2.865 2.865 0 0 0 1.82-.983 4.033 4.033 0 0 0 1.005-3.054Z"/><path fill="#FF9A6C" d="M185.805 69.946c0 .058-2.131.29-4.773.515-2.642.224-4.79.36-4.794.299-.004-.063 2.131-.291 4.773-.515 2.642-.224 4.79-.361 4.794-.299Zm0 3.332a6.383 6.383 0 0 1-1.246.25c-1.016.15-2.039.25-3.066.298-1.204.062-2.293.05-3.082 0a6.232 6.232 0 0 1-1.271-.124c.424-.042.85-.052 1.275-.03.785 0 1.87 0 3.066-.074a87.278 87.278 0 0 0 3.057-.233c.42-.058.843-.087 1.267-.087Zm0 3.257c-.34.097-.69.152-1.043.166-.648.067-1.545.117-2.538.13-.993.011-1.89 0-2.538 0a5.239 5.239 0 0 1-1.055-.059c.346-.069.698-.1 1.051-.096.652-.029 1.549-.041 2.538-.058a98.945 98.945 0 0 0 2.534-.066 6.36 6.36 0 0 1 1.051-.017Zm-1.437-11.697c.081.276.057.571-.067.83a2.726 2.726 0 0 1-1.329 1.432 5.61 5.61 0 0 1-.997.415c-.28.099-.569.167-.864.203a.927.927 0 0 1-.598-.137c-.121-.083-.154-.162-.146-.17.215.14.474.196.727.157.284-.058.562-.14.831-.244.33-.113.651-.252.96-.415a2.812 2.812 0 0 0 1.292-1.303c.085-.25.149-.507.191-.768Z"/></g><defs><clipPath id="a"><path fill="#fff" transform="translate(.19 .354)" d="M0 0h285.187v173.624H0z"/></clipPath></defs></svg>