<svg xmlns="http://www.w3.org/2000/svg" width="61" height="60" fill="none"><path fill="#2ECC82" d="M15.34 60c.132-2.953 2.15-4.844 5.171-4.923 2.333-.062 4.667-.038 7-.059.087 0 .17-.079.346-.164v-4.797H5.802c-3.844 0-5.79-1.896-5.793-5.66-.012-12.916-.012-25.832 0-38.749C.009 1.888 1.955 0 5.817 0h49.318C59.087 0 60.997 1.873 61 5.745v38.6c0 3.851-1.934 5.712-5.888 5.715H33.155v4.99c2.408 0 4.768-.026 7.152 0 2.682.039 4.655 1.448 5.272 3.714.078.404.128.813.149 1.224L15.34 60Zm14.603-23.804c1.674-7.43 3.346-14.834 5.066-22.422-.804.043-1.61.043-2.414 0-1.192-.135-1.669.317-1.836 1.467-.211 1.495-.65 2.957-.98 4.433-1.237 5.475-2.468 10.947-3.725 16.522h3.889Zm-9.125-5.334-6.434-6.074 6.145-5.578-2.542-2.756c-2.408 2.33-4.842 4.62-7.185 6.995-.894.913-.944 2.167-.062 3.074 2.357 2.422 4.84 4.729 7.292 7.101l2.786-2.762Zm22.266 2.874c2.384-2.37 4.718-4.636 7-6.94.894-.907 1.174-2.16.322-3.059-2.384-2.522-4.947-4.879-7.313-7.18l-2.908 2.689c2.065 1.949 4.124 3.89 6.332 5.976l-6.23 5.83 2.797 2.684Z"/></svg>