<svg width="105" height="104" fill="none" xmlns="http://www.w3.org/2000/svg"><path d="M104.929 19.465c-.308 1.126-.558 2.272-.933 3.375-1.265 3.732-3.69 6.58-6.886 8.835-.23.54-.712.818-1.198 1.053-4.61 2.284-9.349 2.72-14.23.945-.41-.15-.849-.29-.996-.784.084-.503.547-.568.897-.73 5.425-2.52 8.546-6.798 9.681-12.592.06-.3.087-.613.337-.831.428-.282.916-.225 1.39-.245.375.005.749-.032 1.115-.113.64-.18.996-.582.976-1.256-.02-.709-.513-.995-1.122-1.122-.697-.143-1.435.078-2.115-.261-.41-.323-.478-.803-.554-1.273-.9-5.532-3.81-9.667-8.73-12.404-.377-.205-.836-.331-1.025-.787C84.097.02 86.853-.18 89.594.13c7.239.817 12.858 5.735 14.812 12.713.205.707.156 1.469.521 2.13l.002 4.493Z" fill="#D6DAE8"/><path d="M0 67.863a3.381 3.381 0 0 1 1.374-.239h11.874c1.357 0 1.41.07 1.435 1.465 0 .409.056.817.087 1.212.366.371.41.841.41 1.328 0 5.644.028 11.288-.021 16.933 0 1.212-.28 2.419-.437 3.626-.352.515-.896.584-1.45.587-3.916.019-7.834.019-11.75 0-.653 0-1.23-.154-1.512-.818L0 67.863Z" fill="#414141"/><path d="M0 91.961c.378.29.847.435 1.322.409 4.054-.016 8.107 0 12.16 0a2.19 2.19 0 0 0 1.089-.204c.352.278.252.68.285 1.046.015.209-.017.418-.095.612 0 .613-.032 1.226-.026 1.84 0 .67-.287 1.002-.98 1-4.306 0-8.59 0-12.886-.012A4.056 4.056 0 0 1 0 96.458V91.96Z" fill="#000"/><path d="M80.732 32.754c1.304.842 2.79 1.15 4.285 1.387 4.1.652 7.948-.145 11.53-2.237.184-.092.374-.17.57-.235 4.76 10.215 2.564 23.106-5.33 31.169-7.245 7.398-14.489 14.79-21.733 22.178-.233.24-.674.375-.598.847 0 .421-.36.476-.64.523-2.479.409-4.898 1.198-7.46 1.069-2.635-.133-5.177-.817-7.758-1.238a130.95 130.95 0 0 1-5.224-.958c-.41-.084-.802-.182-1.097-.5-.265-.614-.738-.912-1.384-1.065a3.39 3.39 0 0 1-1.933-1.25c-.964-1.226-.568-2.452.037-3.627.508-.988 1.531-1.086 2.482-1.078 1.329 0 2.633.337 3.957.468 1.025.102 2.026.271 3.047.34a2.232 2.232 0 0 0 1.64-.447 2.117 2.117 0 0 1 1.208-.075c1.12.147 2.26.07 3.35-.227 1.845-.454 3.28-1.43 3.778-3.34.519-2.008-.371-3.596-1.802-4.903a7.335 7.335 0 0 0-3.727-1.82c-3.795-.666-7.55-1.616-11.403-1.884-2.356-.163-4.697.252-7.018.636-3.973.657-7.928 1.413-11.908 2.042-.455.072-.937.274-1.365-.104.05-.461-.36-.625-.6-.882-2.166-2.313-4.55-4.425-6.528-6.91-8.406-10.565-7.758-26.73 1.593-36.463 5.816-6.053 12.987-7.342 20.901-5.22 5.074 1.363 9.269 4.21 12.916 7.935 2.005 2.043 1.79 2.012 3.773 0 3.518-3.583 7.585-6.292 12.378-7.847.41.204.384.613.45.965.986 5.334 3.895 9.293 8.588 11.993.348.207.803.335 1.025.758Z" fill="#2ECC82"/><path d="M26.213 68.425c4.177-.733 8.357-1.446 12.53-2.208a59.547 59.547 0 0 1 6.15-.76c1.898-.147 3.788.186 5.66.543 2.63.5 5.288.887 7.898 1.48 2.371.539 4.256 1.9 5.178 4.202.923 2.302.142 4.952-2.889 6.177-1.818.736-3.71.715-5.617.43-.664.263-1.34.142-2.013.056-2.093-.26-4.183-.539-6.28-.77-1.845-.204-3.299.773-3.588 2.382-.36 1.998.517 3.449 2.405 3.99.582.166 1.23.162 1.69.642 1.88.592 3.833.827 5.765 1.146 3.075.504 6.087 1.401 9.246 1.346 1.923-.035 3.748-.613 5.613-.938.49-.085 1.025.053 1.478-.273 4.117-.818 8.224-1.684 12.357-2.409 1.552-.272 3.024-.905 4.62-.93a8.728 8.728 0 0 1 2.365 0 4.995 4.995 0 0 1 3.462 2.013c.591 1.366.378 2.163-.78 3.121-1.104.913-2.401 1.416-3.742 1.839-6.87 2.163-13.718 4.398-20.588 6.557-3.895 1.226-7.731 2.744-11.772 3.5-3.112.582-6.253.613-9.328-.204-8.451-2.235-16.882-4.534-25.314-6.832-1.55-.42-3.104-.817-4.646-1.266-.658-.19-.957-.037-.965.686 0 .482.133 1.048-.433 1.37l-.109-1.151c.337-7.285.086-14.574.191-21.86 1.757-.312 3.512-.645 5.273-.933 2.06-.341 4.123-.633 6.183-.946Zm54.519-35.671c-1.64-.502-3.016-1.516-4.269-2.613a16.961 16.961 0 0 1-5.146-7.855 19.881 19.881 0 0 1-.672-3.256c-.646-7.808 3.442-14.68 10.503-17.649a3.13 3.13 0 0 1 .39-.106c3.433 1.338 5.933 3.743 7.843 6.821 1.423 2.293 2.122 4.818 2.426 7.471-.679.613-1.47.49-2.204.217-.734-.274-.615-.987-.638-1.588-.033-.95.02-1.903-.029-2.86-.047-.907-.465-1.41-1.137-1.43-.726-.026-1.23.474-1.298 1.404-.082 1.05 0 2.106-.045 3.158-.05 1.142-.34 1.43-1.485 1.493-1.025.052-2.05-.01-3.075.033-.963.043-1.492.466-1.519 1.175-.025.672.537 1.187 1.466 1.256 1.025.078 2.05 0 3.075.043 1.206.051 1.493.343 1.542 1.54.03.818 0 1.635.016 2.452-.02.306 0 .613.064.913.182.613.455 1.19 1.23 1.138.775-.051 1.123-.576 1.164-1.305.056-.983 0-1.97.031-2.954.045-1.74 1.115-2.303 2.647-1.396-.168 3.349-1.601 6.19-3.604 8.785a15.624 15.624 0 0 1-6.302 4.84c-.301.16-.634.254-.974.273Z" fill="#F5F1EF"/><path d="M14.68 93.312c.057-.573.078-1.149.063-1.724-.074-.852.205-1.067 1.025-.818 2.323.67 4.658 1.288 6.991 1.923l16.059 4.363c2.43.66 4.857 1.33 7.297 1.953 1.347.346 2.739.344 4.112.472 2.735.258 5.316-.175 7.865-.935 3.885-1.157 7.727-2.452 11.591-3.678a5258.592 5258.592 0 0 1 17.923-5.687c1.265-.409 2.473-.887 3.567-1.708 1.05-.788 1.368-1.697 1.07-2.907 1.013 1.46.79 2.954.046 4.413-.851 1.665-2.282 2.666-4.033 3.228a22479.85 22479.85 0 0 1-26.037 8.347c-2.71.866-5.396 1.826-8.232 2.261-2.835.435-5.623.154-8.385-.598-10.275-2.799-20.555-5.59-30.839-8.376a.453.453 0 0 1-.084-.53Z" fill="#D6DAE8"/><path d="M88.786 82.537H86.42a4.198 4.198 0 0 1 2.366 0Z" fill="#E79787"/><path d="M91.61 18.852c-2.256-.11-2.256-.11-2.256 2.086 0 .75.014 1.498 0 2.247-.029 1.1-.615 1.761-1.542 1.796-.978.035-1.64-.633-1.67-1.78a52.986 52.986 0 0 1 0-3.472c.03-.726-.236-.952-.944-.924a49.47 49.47 0 0 1-3.38 0c-1.171-.028-1.866-.635-1.878-1.583-.015-1.01.689-1.612 1.92-1.624 1.059-.012 2.12-.051 3.176.012.82.05 1.169-.184 1.11-1.066-.072-1.083-.037-2.176 0-3.269.03-1.24.643-1.888 1.693-1.853.97.03 1.509.69 1.521 1.904.013 1.124.045 2.247 0 3.369-.037.737.244.97.941.903.509-.051 1.025-.03 1.536-.043.68.012 1.361 0 2.05.039 1.04.047 1.659.627 1.675 1.536.016.91-.541 1.565-1.566 1.655-.816.081-1.593.053-2.387.067Z" fill="#126F43"/><path d="m56.608 43.054-3.736 6.497c-.746 1.3-1.468 2.61-2.255 3.881-.801 1.32-2.072 1.332-2.934.043-.625-.933-1.207-1.894-1.81-2.841-.58-.916-1.164-1.839-1.861-2.924-.804 1.326-1.61 2.488-2.237 3.739-.666 1.336-1.61 1.81-3.104 1.753-2.797-.11-5.6-.027-8.406-.037-1.23 0-1.98-.625-1.945-1.594.032-.937.733-1.5 1.93-1.503 2.596 0 5.192-.023 7.791 0a1.296 1.296 0 0 0 1.302-.736c.984-1.712 2.026-3.389 3.053-5.074.937-1.539 2.19-1.559 3.174-.037s1.925 3.052 2.888 4.578c.179.282.376.554.638.938 1.435-2.482 2.8-4.866 4.17-7.253.576-1.003 1.146-2.01 1.728-3.009.363-.627.742-1.238 1.606-1.24.863-.002 1.314.572 1.691 1.263 2.42 4.416 4.847 8.828 7.284 13.234.191.349.304.766.771 1.01 1.122-1.866 2.327-3.676 3.328-5.609.764-1.469 1.787-1.975 3.43-1.926 3.651.112 7.306.034 10.96.036.307-.013.614-.007.92.019.843.11 1.388.574 1.468 1.43.084.892-.438 1.395-1.242 1.612-.366.078-.74.11-1.113.092-3.416 0-6.83.04-10.251-.019-.982-.016-1.522.305-1.993 1.16-1.277 2.315-2.665 4.566-4 6.852-.391.672-.791 1.277-1.691 1.271-.9-.006-1.286-.613-1.661-1.301-2.403-4.388-4.815-8.77-7.235-13.146-.162-.305-.353-.625-.658-1.159Z" fill="#F5F1EF"/><path d="M47.339 84.58a6.669 6.669 0 0 1-2.282-.439c-1.747-.651-2.479-2.073-2.216-4.192.164-1.342 1.566-2.772 3.053-2.821 1.23-.039 2.485.227 3.725.372 1.544.182 3.075.388 4.627.56.305.014.604.09.88.22-.242.593-.704.746-1.304.683-2.286-.248-4.574-.468-6.838-.879-.84-.153-1.611.125-2.372.409-.318.124-1.01 2.247-.908 2.606.394 1.377 1.281 2.174 2.72 2.34.667.096 1.077.408.915 1.142Z" fill="#E17F85"/></svg>