<svg xmlns="http://www.w3.org/2000/svg" width="56" height="73" fill="none"><path fill="#2ECC82" d="M50.169 72.622H6.275c-.081-.043-.158-.096-.244-.12-3.241-.821-5.063-3.15-5.063-6.475V7.194C.968 3.467 3.693.73 7.403.73c9.715-.005 19.43 0 29.145 0h.76v15.693c0 1.758.808 2.56 2.567 2.56h15.606v.567c0 15.63.004 31.266-.006 46.896 0 2.666-1.84 5.097-4.384 5.89-.31.095-.616.191-.922.287ZM14.164 42.298c.224-.279.396-.495.573-.71 1.745-2.105 3.5-4.194 5.226-6.313.822-1.008.712-2.238-.196-3.007-.933-.787-2.17-.653-3.026.365a1557.35 1557.35 0 0 0-6.756 8.137c-.87 1.052-.86 1.97-.005 3.031.66.817 1.339 1.62 2.013 2.426 1.597 1.922 3.184 3.853 4.79 5.764.57.678 1.282.98 2.176.726.88-.25 1.372-.855 1.525-1.73.134-.782-.258-1.388-.736-1.96-1.841-2.219-3.686-4.447-5.584-6.729Zm28.107-.01c-.206.255-.378.471-.555.683-1.73 2.084-3.466 4.164-5.187 6.254-.87 1.056-.808 2.267.11 3.064.951.822 2.18.687 3.069-.375 2.247-2.685 4.485-5.38 6.717-8.084.89-1.08.89-2.012-.005-3.088a1493.164 1493.164 0 0 0-6.669-8.032c-.899-1.076-2.108-1.249-3.07-.466-.98.803-1.027 2.047-.11 3.166.785.956 1.583 1.902 2.372 2.858a1446.58 1446.58 0 0 1 3.328 4.02Zm-9.156-8.314c-.014-.178-.014-.27-.029-.36-.153-.976-.894-1.715-1.85-1.84-.908-.116-1.855.465-2.18 1.407-.602 1.739-1.171 3.492-1.75 5.24-1.267 3.805-2.534 7.61-3.791 11.418-.464 1.403.177 2.628 1.516 2.93 1.066.245 2.046-.403 2.462-1.661 1.807-5.443 3.61-10.885 5.412-16.332.095-.289.157-.586.21-.802Z"/><path fill="#000" d="M53.988 14.736H41.544V2.242c4.12 4.135 8.29 8.324 12.444 12.494Z"/></svg>