<svg xmlns="http://www.w3.org/2000/svg" width="660" height="602" fill="none">
    <path fill="#077942" d="M340.772 579.284 33.821 411.668c-5.346-2.951-8.02-6.957-8.242-10.963v-14.337c0-5.06 4.01 3.795 11.583-.422l174.192-95.087c14.033-7.59 35.194-8.434 47.223-1.898l306.951 167.616c4.009 2.108 6.905-7.169 8.019-4.217.445 1.054.223 14.126.223 15.18.222 5.06-3.787 10.542-11.584 14.759l-174.191 95.087c-13.81 7.801-35.195 8.645-47.223 1.898Z"/>
    <path fill="#0C663C" d="M341.303 566.51 33.776 399.49c-12.052-6.513-10.713-18.068 3.347-25.841l174.519-94.75c14.059-7.563 35.261-8.403 47.312-1.89l307.527 167.02c12.051 6.513 10.712 18.067-3.347 25.841l-174.519 94.75c-13.836 7.773-35.261 8.613-47.312 1.89Z"/>
    <path fill="url(#a)" d="M574.455 471.354c0 5.073-3.787 10.358-11.583 14.585L388.678 581.27c-14.033 7.61-35.195 8.455-47.224 1.902L34.499 415.128c-5.792-3.171-8.465-7.61-8.02-12.048v15.219c0 4.227 2.674 8.032 8.242 10.991l306.956 168.045c12.029 6.552 33.19 5.707 47.224-1.903l174.194-95.331c7.796-4.227 11.583-9.723 11.583-14.796-.223-.845 0-10.357-.223-13.951Z" opacity=".2"/>
    <path fill="url(#b)" d="M364.443 559.965c-6.924 0-13.178-1.264-17.421-3.792L39.242 388.699c-2.01-1.053-5.136-3.16-5.136-6.109 0-3.16 3.126-6.741 8.487-9.48l174.661-95.007c6.477-3.581 15.188-5.477 23.676-5.477 6.923 0 13.177 1.264 17.421 3.792L566.13 443.892c2.01 1.053 5.137 3.16 5.137 6.109 0 3.16-3.127 6.741-8.487 9.69l-174.662 95.007c-6.253 3.16-14.964 5.267-23.675 5.267Z"/>
    <path fill="#062E1B" d="m562.222 465.709-173.966 94.833c-14.015 7.569-35.149 8.411-47.162 1.892L34.541 395.267c-5.117-2.733-7.564-6.308-8.009-10.093-.667 4.626 2.002 9.252 8.009 12.616l306.553 167.167c12.013 6.519 33.147 5.678 47.162-1.892l173.966-94.833c8.231-4.416 12.013-10.304 11.568-15.56-.667 4.415-4.449 9.252-11.568 13.037Z"/>
    <path fill="#CFCFCF" d="M396.882 503.51 146.626 367.47c-4.92-2.738-4.473-7.581 1.342-10.529l93.93-50.963c5.814-3.158 14.536-3.58 19.456-.842l250.257 136.04c4.92 2.738 4.472 7.581-1.342 10.529l-93.93 50.963c-5.815 3.369-14.537 3.58-19.457.842Z"/>
    <path fill="#fff" d="m248.37 314.941 16.012 8.648c2.001 1.055 5.337 1.055 7.339 0 2.001-1.055 2.001-2.953 0-4.008l-16.012-8.648c-2.002-1.055-5.337-1.055-7.339 0-2.001 1.055-2.001 2.742 0 4.008Zm27.354 14.976 7.561 4.219c2.001 1.054 5.337 1.054 7.338 0 2.002-1.055 2.002-2.953 0-4.008l-7.561-4.219c-2.001-1.054-5.337-1.054-7.338 0-2.002 1.055-2.002 2.742 0 4.008Zm18.902 10.336 7.561 4.218c2.002 1.055 5.337 1.055 7.339 0 2.001-1.054 2.001-2.953 0-4.007l-7.561-4.219c-2.002-1.055-5.337-1.055-7.339 0-2.001 1.055-2.001 2.742 0 4.008Zm18.903 10.335 7.561 4.219c2.001 1.055 5.337 1.055 7.339 0 2.001-1.055 2.001-2.953 0-4.008l-7.561-4.218c-2.002-1.055-5.338-1.055-7.339 0-2.002 1.054-2.002 2.742 0 4.007Zm18.903 10.336 7.561 4.219c2.001 1.054 5.337 1.054 7.338 0 2.002-1.055 2.002-2.953 0-4.008l-7.561-4.219c-2.001-1.054-5.337-1.054-7.338 0-2.002 1.055-2.002 2.953 0 4.008Zm18.902 10.336 7.561 4.218c2.002 1.055 5.337 1.055 7.339 0 2.001-1.054 2.001-2.953 0-4.007l-7.561-4.219c-2.002-1.055-5.337-1.055-7.339 0-2.001 1.055-2.001 2.953 0 4.008Zm18.903 10.335 7.561 4.219c2.001 1.055 5.337 1.055 7.339 0 2.001-1.055 2.001-2.953 0-4.008l-7.561-4.218c-2.002-1.055-5.338-1.055-7.339 0-2.002 1.054-2.002 2.953 0 4.007Zm18.903 10.336 7.561 4.219c2.001 1.054 5.337 1.054 7.338 0 2.002-1.055 2.002-2.953 0-4.008l-7.561-4.219c-2.001-1.054-5.337-1.054-7.338 0-2.002 1.055-2.002 2.953 0 4.008Zm18.902 10.336 7.561 4.218c2.002 1.055 5.337 1.055 7.339 0 2.001-1.054 2.001-2.953 0-4.007l-7.561-4.219c-2.002-1.055-5.337-1.055-7.339 0-2.001 1.055-2.001 2.953 0 4.008Zm18.903 10.335 7.561 4.219c2.001 1.055 5.337 1.055 7.339 0 2.001-1.055 2.001-2.953 0-4.008l-7.561-4.218c-2.002-1.055-5.338-1.055-7.339 0-2.002 1.054-2.002 2.953 0 4.007Zm18.903 10.336 7.561 4.219c2.001 1.054 5.337 1.054 7.338 0 2.002-1.055 2.002-2.953 0-4.008l-7.561-4.219c-2.001-1.054-5.337-1.054-7.338 0-2.002 1.266-2.002 2.953 0 4.008Zm18.902 10.336 7.561 4.218c2.002 1.055 5.337 1.055 7.339 0 2.001-1.054 2.001-2.953 0-4.007l-7.561-4.219c-2.002-1.055-5.337-1.055-7.339 0-2.001 1.266-2.001 2.953 0 4.008Zm19.348 10.546 7.561 4.219c2.001 1.055 5.337 1.055 7.338 0 2.002-1.055 2.002-2.953 0-4.008l-7.561-4.218c-2.001-1.055-5.337-1.055-7.338 0-2.224 1.265-2.224 2.953 0 4.007ZM231.247 324.644l6.449 3.586c2.224 1.265 6.004 1.265 8.228 0l6.449-3.586c2.224-1.266 2.224-3.375 0-4.641l-6.449-3.586c-2.224-1.265-6.004-1.265-8.228 0l-6.449 3.586c-2.224 1.477-2.224 3.375 0 4.641Zm33.802 14.132 6.449-3.586c2.224-1.265 2.224-3.375 0-4.64l-6.449-3.586c-2.224-1.266-6.004-1.266-8.228 0l-6.449 3.586c-2.224 1.265-2.224 3.375 0 4.64l6.449 3.586c2.224 1.266 6.004 1.266 8.228 0Zm4.225 6.75 6.45 3.586c2.223 1.265 6.004 1.265 8.228 0l6.449-3.586c2.224-1.266 2.224-3.375 0-4.641l-6.449-3.585c-2.224-1.266-6.005-1.266-8.228 0l-6.45 3.585c-2.446 1.266-2.446 3.375 0 4.641Zm18.903 10.336 6.449 3.585c2.224 1.266 6.005 1.266 8.228 0l6.45-3.585c2.223-1.266 2.223-3.375 0-4.641l-6.45-3.586c-2.223-1.265-6.004-1.265-8.228 0l-6.449 3.586c-2.446 1.266-2.446 3.375 0 4.641Zm40.029 5.695-6.449-3.586c-2.224-1.266-6.004-1.266-8.228 0l-6.449 3.586c-2.224 1.265-2.224 3.375 0 4.64l6.449 3.586c2.224 1.266 6.004 1.266 8.228 0l6.449-3.586c2.446-1.265 2.446-3.375 0-4.64Zm19.125 10.335-6.449-3.585c-2.224-1.266-6.004-1.266-8.228 0l-6.449 3.585c-2.224 1.266-2.224 3.375 0 4.641l6.449 3.586c2.224 1.265 6.004 1.265 8.228 0l6.449-3.586c2.224-1.266 2.224-3.375 0-4.641Zm18.903 10.547-6.449-3.586c-2.224-1.265-6.005-1.265-8.228 0l-6.45 3.586c-2.223 1.266-2.223 3.375 0 4.641l6.45 3.585c2.223 1.266 6.004 1.266 8.228 0l6.449-3.585c2.224-1.477 2.224-3.586 0-4.641Zm18.903 10.336-6.45-3.586c-2.223-1.266-6.004-1.266-8.228 0l-6.449 3.586c-2.224 1.265-2.224 3.375 0 4.64l6.449 3.586c2.224 1.266 6.005 1.266 8.228 0l6.45-3.586c2.223-1.476 2.223-3.375 0-4.64Zm18.902 10.335-6.449-3.585c-2.224-1.266-6.004-1.266-8.228 0l-6.449 3.585c-2.224 1.266-2.224 3.375 0 4.641l6.449 3.586c2.224 1.265 6.004 1.265 8.228 0l6.449-3.586c2.224-1.477 2.224-3.375 0-4.641Zm18.903 10.336-6.449-3.586c-2.224-1.265-6.005-1.265-8.228 0l-6.45 3.586c-2.223 1.266-2.223 3.375 0 4.641l6.45 3.585c2.223 1.266 6.004 1.266 8.228 0l6.449-3.585c2.224-1.477 2.224-3.375 0-4.641Zm-2.446 14.765 6.449 3.586c2.224 1.266 6.004 1.266 8.228 0l6.449-3.586c2.224-1.265 2.224-3.375 0-4.64l-6.449-3.586c-2.224-1.266-6.004-1.266-8.228 0l-6.449 3.586c-2.446 1.476-2.446 3.375 0 4.64Zm40.251 5.906-6.449-3.585c-2.224-1.266-6.004-1.266-8.228 0l-6.449 3.585c-2.224 1.266-2.224 3.375 0 4.641l6.449 3.586c2.224 1.265 6.004 1.265 8.228 0l6.449-3.586c2.224-1.266 2.224-3.375 0-4.641Zm27.576 15.188-14.9-8.227c-2.224-1.265-6.004-1.265-8.228 0l-6.449 3.586c-2.224 1.266-2.224 3.375 0 4.641l14.9 8.226c2.223 1.265 6.004 1.265 8.228 0l6.449-3.586c2.446-1.476 2.224-3.375 0-4.64ZM213.901 334.347l14.899 8.226c2.224 1.265 6.005 1.265 8.229 0l6.449-3.586c2.224-1.266 2.224-3.375 0-4.64l-14.9-8.227c-2.224-1.265-6.004-1.265-8.228 0l-6.449 3.586c-2.447 1.266-2.447 3.375 0 4.641Zm27.131 14.976 6.449 3.586c2.224 1.265 6.004 1.265 8.228 0l6.449-3.586c2.224-1.266 2.224-3.375 0-4.641l-6.449-3.586c-2.224-1.265-6.004-1.265-8.228 0l-6.449 3.586c-2.224 1.266-2.224 3.375 0 4.641Zm25.574 13.921c2.224 1.266 6.004 1.266 8.228 0l6.449-3.586c2.224-1.265 2.224-3.375 0-4.64l-6.449-3.586c-2.224-1.266-6.004-1.266-8.228 0l-6.449 3.586c-2.224 1.265-2.224 3.375 0 4.64l6.449 3.586Zm18.902 10.336c2.224 1.266 6.005 1.266 8.229 0l6.449-3.586c2.224-1.266 2.224-3.375 0-4.64l-6.449-3.586c-2.224-1.266-6.005-1.266-8.229 0l-6.449 3.586c-2.224 1.265-2.224 3.374 0 4.64l6.449 3.586Zm18.903-1.266-6.449 3.586c-2.224 1.266-2.224 3.375 0 4.641l6.449 3.586c2.224 1.265 6.005 1.265 8.228 0l6.45-3.586c2.223-1.266 2.223-3.375 0-4.641l-6.45-3.586c-2.223-1.265-6.004-1.265-8.228 0Zm19.125 10.125-7.339 4.008c-2.001 1.054-2.001 2.953 0 4.218l7.339 4.008c2.002 1.055 5.56 1.055 7.561 0l7.339-4.008c2.001-1.054 2.001-2.953 0-4.218l-7.339-4.008c-2.001-1.266-5.337-1.266-7.561 0Zm18.903 10.336-7.339 4.007c-2.001 1.055-2.001 2.953 0 4.219l7.339 4.008c2.001 1.054 5.559 1.054 7.561 0l7.339-4.008c2.001-1.055 2.001-2.953 0-4.219L350 392.775c-2.002-1.266-5.337-1.266-7.561 0Zm18.903 10.335-7.339 4.008c-2.002 1.055-2.002 2.953 0 4.219l7.339 4.007c2.001 1.055 5.559 1.055 7.561 0l7.338-4.007c2.002-1.055 2.002-2.953 0-4.219l-7.338-4.008c-2.002-1.265-5.338-1.265-7.561 0Zm18.902 10.336-7.339 4.008c-2.001 1.054-2.001 2.953 0 4.218l7.339 4.008c2.002 1.055 5.56 1.055 7.561 0l7.339-4.008c2.001-1.054 2.001-2.953 0-4.218l-7.339-4.008c-2.001-1.265-5.337-1.265-7.561 0Zm18.903 10.336-7.339 4.007c-2.001 1.055-2.001 2.954 0 4.219l7.339 4.008c2.001 1.054 5.559 1.054 7.561 0l7.339-4.008c2.001-1.055 2.001-2.953 0-4.219l-7.339-4.007c-2.002-1.055-5.337-1.055-7.561 0Zm26.686 22.57 7.339-4.008c2.001-1.055 2.001-2.953 0-4.219l-7.339-4.008c-2.001-1.054-5.56-1.054-7.561 0l-7.339 4.008c-2.001 1.055-2.001 2.953 0 4.219l7.339 4.008c2.001 1.054 5.337 1.054 7.561 0Zm18.903 10.335 7.338-4.008c2.002-1.054 2.002-2.953 0-4.218l-7.338-4.008c-2.002-1.055-5.56-1.055-7.561 0l-7.339 4.008c-2.002 1.055-2.002 2.953 0 4.218l7.339 4.008c2.001 1.055 5.337 1.055 7.561 0Zm26.463 2.32L463.861 455c-2.002-1.055-5.56-1.055-7.561 0l-7.339 4.007c-2.002 1.055-2.002 2.954 0 4.219l7.339 4.008c2.001 1.054 5.559 1.054 7.561 0l7.338-4.008c2.224-1.265 2.224-2.953 0-4.219ZM195.888 343.628l23.795 13.077c2.001 1.055 5.559 1.055 7.561 0l7.338-4.007c2.002-1.055 2.002-2.953 0-4.219l-23.795-13.078c-2.001-1.054-5.559-1.054-7.561 0l-7.338 4.008c-2.002 1.266-2.002 3.164 0 4.219Zm35.359 19.405 7.338 4.008c2.002 1.055 5.56 1.055 7.561 0l7.339-4.008c2.002-1.054 2.002-2.953 0-4.218l-7.339-4.008c-2.001-1.055-5.559-1.055-7.561 0l-7.338 4.008c-2.224 1.265-2.224 2.953 0 4.218Zm18.902 10.336 7.339 4.008c2.001 1.054 5.56 1.054 7.561 0l7.339-4.008c2.001-1.055 2.001-2.953 0-4.219l-7.339-4.007c-2.001-1.055-5.56-1.055-7.561 0l-7.339 4.007c-2.223 1.266-2.223 3.164 0 4.219Zm18.903 10.336 7.339 4.007c2.001 1.055 5.559 1.055 7.561 0l7.338-4.007c2.002-1.055 2.002-2.953 0-4.219l-7.338-4.008c-2.002-1.054-5.56-1.054-7.561 0l-7.339 4.008c-2.224 1.266-2.224 3.164 0 4.219Zm33.802 14.343 7.339-4.008c2.002-1.054 2.002-2.953 0-4.218l-7.339-4.008c-2.001-1.055-5.559-1.055-7.561 0l-7.338 4.008c-2.002 1.054-2.002 2.953 0 4.218l7.338 4.008c2.002 1.266 5.338 1.266 7.561 0Zm18.903 10.336 7.339-4.008c2.001-1.055 2.001-2.953 0-4.219l-7.339-4.007c-2.001-1.055-5.56-1.055-7.561 0l-7.339 4.007c-2.001 1.055-2.001 2.953 0 4.219l7.339 4.008c2.001 1.265 5.337 1.265 7.561 0Zm18.903 10.335 7.338-4.007c2.002-1.055 2.002-2.953 0-4.219l-7.338-4.008c-2.002-1.054-5.56-1.054-7.561 0l-7.339 4.008c-2.001 1.055-2.001 2.953 0 4.219l7.339 4.007c2.001 1.266 5.337 1.266 7.561 0Zm18.902 10.547 7.339-4.008c2.002-1.054 2.002-2.953 0-4.218l-7.339-4.008c-2.001-1.055-5.559-1.055-7.561 0l-7.338 4.008c-2.002 1.054-2.002 2.953 0 4.218l7.338 4.008c2.002 1.055 5.338 1.055 7.561 0Zm18.903 10.336 7.339-4.008c2.001-1.055 2.001-2.953 0-4.219l-7.339-4.007c-2.001-1.055-5.56-1.055-7.561 0l-7.339 4.007c-2.001 1.055-2.001 2.953 0 4.219l7.339 4.008c2.001 1.054 5.337 1.054 7.561 0Zm18.903 10.335 7.338-4.007c2.002-1.055 2.002-2.953 0-4.219l-7.338-4.008c-2.002-1.054-5.56-1.054-7.561 0l-7.339 4.008c-2.001 1.055-2.001 2.953 0 4.219l7.339 4.007c2.001 1.055 5.337 1.055 7.561 0Zm4.003 6.328 7.338 4.008c2.002 1.055 5.56 1.055 7.561 0l7.339-4.008c2.002-1.054 2.002-2.953 0-4.218l-7.339-4.008c-2.001-1.055-5.559-1.055-7.561 0l-7.338 4.008c-2.224 1.054-2.002 2.953 0 4.218Zm52.26 12.445-18.68-10.124c-2.002-1.055-5.56-1.055-7.561 0l-7.339 4.007c-2.002 1.055-2.002 2.953 0 4.219l18.68 10.125c2.002 1.054 5.56 1.054 7.561 0l7.339-4.008c2.224-1.266 2.224-3.164 0-4.219ZM178.542 353.752l33.58 18.351c2.446 1.266 6.226 1.266 8.45 0l6.227-3.375c2.446-1.265 2.224-3.374 0-4.64l-33.58-18.351c-2.446-1.266-6.227-1.266-8.451 0l-6.226 3.375c-2.447 1.265-2.447 3.375 0 4.64Zm46.033 25.312 6.449 3.586c2.447 1.266 6.227 1.266 8.451 0l6.227-3.375c2.446-1.266 2.224-3.375 0-4.64l-6.449-3.586c-2.447-1.266-6.227-1.266-8.451 0l-6.227 3.375c-2.224 1.265-2.224 3.375 0 4.64Zm18.903 10.336 6.449 3.586c2.446 1.265 6.227 1.265 8.451 0l6.226-3.375c2.447-1.266 2.224-3.375 0-4.641l-6.449-3.586c-2.446-1.265-6.227-1.265-8.45 0l-6.227 3.375c-2.224 1.266-2.224 3.375 0 4.641Zm18.902 10.336 6.45 3.585c2.446 1.266 6.226 1.266 8.45 0l6.227-3.375c2.446-1.265 2.224-3.374 0-4.64l-6.449-3.586c-2.446-1.266-6.227-1.266-8.451 0l-6.227 3.375c-2.223 1.266-2.223 3.375 0 4.641Zm18.903 10.335 6.449 3.586c2.447 1.266 6.227 1.266 8.451 0l6.227-3.375c2.446-1.265 2.224-3.375 0-4.64l-6.449-3.586c-2.447-1.266-6.227-1.266-8.451 0l-6.227 3.375c-2.224 1.265-2.224 3.375 0 4.64Zm18.903 10.336 6.449 3.586c2.446 1.265 6.227 1.265 8.451 0l6.226-3.375c2.447-1.266 2.224-3.375 0-4.641l-6.449-3.586c-2.446-1.265-6.227-1.265-8.45 0l-6.227 3.375c-2.224 1.266-2.224 3.375 0 4.641Zm18.903 10.336 6.449 3.585c2.446 1.266 6.226 1.266 8.45 0l6.227-3.375c2.446-1.265 2.224-3.374 0-4.64l-6.449-3.586c-2.446-1.265-6.227-1.265-8.451 0l-6.226 3.375c-2.224 1.266-2.224 3.375 0 4.641Zm19.125 10.546 6.449 3.586c2.446 1.266 6.226 1.266 8.45 0l6.227-3.375c2.446-1.266 2.224-3.375 0-4.64l-6.449-3.586c-2.446-1.266-6.227-1.266-8.451 0l-6.226 3.375c-2.447 1.265-2.447 3.164 0 4.64Zm18.902 10.336 6.449 3.586c2.447 1.265 6.227 1.265 8.451 0l6.227-3.375c2.446-1.266 2.224-3.375 0-4.641l-6.449-3.586c-2.447-1.265-6.227-1.265-8.451 0l-6.227 3.375c-2.446 1.266-2.446 3.164 0 4.641Zm18.903 10.335 6.449 3.586c2.446 1.266 6.227 1.266 8.451 0l6.226-3.375c2.447-1.265 2.224-3.375 0-4.64l-6.449-3.586c-2.446-1.266-6.227-1.266-8.45 0l-6.227 3.375c-2.446 1.266-2.446 3.375 0 4.64Zm18.903 10.336 6.449 3.586c2.446 1.266 6.226 1.266 8.45 0l6.227-3.375c2.446-1.265 2.224-3.375 0-4.64l-6.449-3.586c-2.446-1.266-6.227-1.266-8.451 0l-6.226 3.375c-2.447 1.265-2.447 3.375 0 4.64Zm40.473 5.906-6.449-3.586c-2.446-1.265-6.226-1.265-8.45 0l-6.227 3.375c-2.446 1.266-2.224 3.375 0 4.641l6.449 3.586c2.446 1.265 6.227 1.265 8.451 0l6.226-3.375c2.224-1.266 2.224-3.375 0-4.641ZM190.55 363.244l-14.677-8.015c-2.446-1.266-6.227-1.266-8.451 0l-6.226 3.375c-2.447 1.265-2.224 3.375 0 4.64l14.677 8.016c2.446 1.265 6.227 1.265 8.451 0l6.226-3.375c2.447-1.266 2.447-3.164 0-4.641Zm18.903 10.547-6.449-3.586c-2.446-1.266-6.227-1.266-8.451 0l-6.227 3.375c-2.446 1.266-2.223 3.375 0 4.64l6.45 3.586c2.446 1.266 6.226 1.266 8.45 0l6.227-3.375c2.446-1.265 2.446-3.375 0-4.64Zm18.903 10.336-6.449-3.586c-2.447-1.266-6.227-1.266-8.451 0l-6.227 3.375c-2.446 1.265-2.224 3.375 0 4.64l6.449 3.586c2.447 1.266 6.227 1.266 8.451 0l6.227-3.375c2.446-1.266 2.446-3.375 0-4.64Zm132.318 72.349-119.865-65.6c-2.446-1.265-6.227-1.265-8.45 0l-6.227 3.375c-2.446 1.266-2.224 3.375 0 4.641l119.865 65.6c2.446 1.265 6.227 1.265 8.451 0l6.226-3.375c2.447-1.266 2.447-3.375 0-4.641Zm18.903 10.336-6.449-3.586c-2.446-1.265-6.227-1.265-8.451 0l-6.227 3.375c-2.446 1.266-2.223 3.375 0 4.64l6.45 3.586c2.446 1.266 6.226 1.266 8.45 0l6.227-3.375c2.446-1.265 2.446-3.375 0-4.64Zm18.903 10.336-6.449-3.586c-2.447-1.266-6.227-1.266-8.451 0l-6.227 3.375c-2.446 1.265-2.224 3.375 0 4.64l6.449 3.586c2.447 1.266 6.227 1.266 8.451 0l6.227-3.375c2.446-1.265 2.446-3.164 0-4.64Zm19.347 10.757-6.449-3.586c-2.446-1.265-6.227-1.265-8.451 0l-6.226 3.375c-2.447 1.266-2.224 3.375 0 4.641l6.449 3.586c2.446 1.265 6.227 1.265 8.45 0l6.227-3.375c2.446-1.266 2.224-3.375 0-4.641Z" opacity=".3"/>
    <path fill="url(#c)" d="M361.769 458.634c-.223.635-.67 1.269-1.563 1.692l-6.252 3.382c-2.456 1.269-6.252 1.269-8.485 0l-120.348-65.752c-.893-.423-1.34-1.057-1.563-1.691-.447 1.057.223 2.114 1.563 2.96l120.348 65.752c2.457 1.268 6.252 1.268 8.485 0l6.252-3.383c1.563-.845 2.01-1.903 1.563-2.96Z" opacity=".3"/>
    <path fill="#00341B" d="M562.498 440.029 266.203 277.868c-11.387-6.343-20.765-23.045-20.765-37.633V20.144c0-14.588 9.378-21.143 20.765-14.8l296.295 162.161c11.387 6.343 20.765 23.045 20.765 37.633v220.091c0 14.377-9.378 21.142-20.765 14.8Z"/>
    <path fill="#EBDEF3" d="m565.177 428.823-293.168-160.47c-9.154-5.497-14.959-16.702-14.959-28.119V19.086c0-2.748 3.125-4.44 5.582-2.96.223.212.446.212.669.423l293.392 160.47c10.941 5.92 14.96 16.702 14.96 28.119v220.725c0 2.96-3.35 4.651-6.029 3.171-.223-.211-.447-.211-.447-.211Z"/>
    <path fill="#BCBEC0" d="M556.469 177.019 263.078 16.549c-.224 0-.447-.211-.67-.422-2.456-1.27-5.582.21-5.582 2.96v221.147c0 11.417 5.805 22.411 14.96 28.12l293.168 160.469s.223.212.447.212c2.679 1.48 6.028-.423 6.028-3.172V204.927c0-11.206-3.796-21.988-14.96-27.908Zm12.727 248.633c0 1.057-.893 1.48-1.563 1.48-.223 0-.446 0-.893-.212L273.125 266.239c-8.261-5.074-13.843-15.222-13.843-26.005V19.086c0-.845.67-1.268 1.34-1.268.223 0 .446 0 .67.211l294.061 160.893c11.387 6.131 13.843 17.548 13.843 26.005v220.725Z"/>
    <path fill="#EBDEF3" fill-opacity=".1" d="m454.028 140.685 7.202 3.978c2.4 1.326 4.2 3.031 5.401 5.114 1.2 2.084 1.8 4.357 1.8 7.198v3.031c0 2.652-.6 4.357-1.8 5.114-1.201.758-3.001.379-5.401-.947l-2.201-1.326v13.638l-4.801-2.651v-33.149h-.2Zm7.202 18.942c.8.379 1.4.568 1.8.19.4-.19.6-.948.6-2.084v-3.978c0-1.136-.2-2.083-.6-2.841-.4-.758-1-1.326-1.8-1.705l-2.201-1.326v10.229l2.201 1.515Zm9.802-9.661 4.801 2.652v13.638l5.201 2.842V155.46l4.801 2.651v33.528l-4.801-2.652v-15.154l-5.201-2.841v15.153l-4.801-2.651v-33.528Zm18.404 10.04 7.202 3.978c2.4 1.326 4.2 3.031 5.401 5.114 1.2 2.084 1.8 4.357 1.8 7.198v3.22c0 2.652-.6 4.357-1.8 5.115-1.201.757-3.001.378-5.401-.947l-2.201-1.326v13.638l-4.801-2.652v-33.338h-.2Zm7.202 18.942c.8.379 1.4.568 1.8.189.4-.189.6-.947.6-2.083v-3.788c0-1.137-.2-2.084-.6-2.842-.4-.757-1-1.326-1.8-1.705l-2.201-1.325v10.228l2.201 1.326Zm108.823 225.218c-1.2-2.083-1.8-4.546-1.8-7.008v-17.995c0-2.652.6-4.356 1.8-5.114 1.2-.758 3.001-.568 5.401.758 2.401 1.325 4.001 3.03 5.401 5.114 1.201 2.083 1.801 4.546 1.801 7.008v3.599l-4.601-2.462v-3.789c0-2.083-.8-3.598-2.401-4.356-1.6-.947-2.4-.379-2.4 1.705v18.752c0 2.084.8 3.41 2.4 4.357 1.601.947 2.401.379 2.401-1.705v-5.114l4.601 2.462v4.736c0 2.651-.6 4.356-1.801 5.114-1.2.758-3 .568-5.401-.758-2.4-1.515-4.201-3.22-5.401-5.304Zm16.403 8.903c-1.201-2.083-1.801-4.546-1.801-7.198v-1.894l4.601 2.463v2.273c0 2.083.8 3.788 2.601 4.546.8.378 1.4.568 1.8.189.4-.379.6-.947.6-2.273s-.2-2.841-.8-4.167c-.6-1.326-1.6-3.22-3.201-5.683-2-3.031-3.4-5.493-4.2-7.387a15.4 15.4 0 0 1-1.201-5.872c0-2.652.6-4.357 1.801-5.114 1.2-.758 3-.569 5.401.757 2.4 1.326 4.001 3.031 5.201 5.115 1.2 2.083 1.8 4.546 1.8 7.198v1.325l-4.601-2.462v-1.705c0-1.136-.2-2.083-.6-2.841-.4-.758-1-1.326-1.8-1.705-1.6-.947-2.401-.189-2.401 1.894 0 1.137.4 2.463 1.001 3.978.6 1.326 1.6 3.22 3.2 5.683 2.001 3.03 3.401 5.493 4.201 7.576.8 1.895 1.2 3.978 1.2 6.062 0 2.652-.6 4.546-1.8 5.304-1.2.757-3.001.568-5.401-.758-2.601-1.515-4.401-3.22-5.601-5.304Zm16.404 8.903c-1.2-2.084-1.8-4.546-1.8-7.198v-1.894l4.601 2.462v2.273c0 2.084.8 3.789 2.6 4.546.8.379 1.401.569 1.801.19.4-.379.6-.947.6-2.273s-.2-2.842-.8-4.167c-.601-1.326-1.601-3.221-3.201-5.683-2.001-3.031-3.401-5.493-4.201-7.387a15.42 15.42 0 0 1-1.2-5.872c0-2.652.6-4.357 1.8-5.115 1.2-.757 3.001-.568 5.401.758 2.401 1.326 4.001 3.031 5.201 5.114 1.201 2.084 1.801 4.546 1.801 7.198v1.326l-4.601-2.462v-1.705c0-1.137-.2-2.084-.6-2.841-.4-.758-1.001-1.326-1.801-1.705-1.6-.947-2.4-.189-2.4 1.894 0 1.137.4 2.463 1 3.978.6 1.326 1.6 3.22 3.201 5.682 2 3.031 3.4 5.494 4.201 7.577.8 1.894 1.2 3.978 1.2 6.062 0 2.651-.6 4.546-1.8 5.303-1.201.758-3.001.569-5.402-.757-2.6-1.516-4.401-3.22-5.601-5.304Zm-77.217 110.62c-1.201-2.083-1.801-4.546-1.801-7.197V523.5l4.601 2.463v2.273c0 2.083.801 3.788 2.601 4.546.8.379 1.4.568 1.8.189.4-.378.6-.947.6-2.273s-.2-2.841-.8-4.167c-.6-1.326-1.6-3.22-3.2-5.682-2.001-3.031-3.401-5.494-4.201-7.388a15.4 15.4 0 0 1-1.201-5.872c0-2.652.601-4.356 1.801-5.114s3-.568 5.401.758c2.4 1.326 4.001 3.03 5.201 5.114 1.2 2.084 1.801 4.546 1.801 7.198v1.326l-4.602-2.463v-1.704c0-1.137-.2-2.084-.6-2.842-.4-.757-1-1.326-1.8-1.704-1.6-.948-2.401-.19-2.401 1.894 0 1.136.4 2.462 1.001 3.977.6 1.326 1.6 3.221 3.2 5.683 2.001 3.031 3.401 5.493 4.201 7.577.8 1.894 1.2 3.978 1.2 6.061 0 2.652-.6 4.546-1.8 5.304-1.2.758-3.001.568-5.401-.758-2.601-1.515-4.401-3.22-5.601-5.304Zm25.605 15.533c-1-.19-2-.568-3.2-1.137-2.401-1.326-4.201-3.03-5.401-5.114-1.201-2.083-1.801-4.546-1.801-7.198V517.06c0-2.652.6-4.356 1.801-5.114 1.2-.758 3-.568 5.401.758 2.4 1.326 4.201 3.03 5.401 5.114 1.2 2.084 1.8 4.546 1.8 7.198v17.616c0 2.273-.4 3.788-1.4 4.735.2.379.4.758.6.947.2.19.6.569 1.2.758l.8.379v4.735l-1.2-.757c-2.2-1.137-3.4-2.842-4.001-5.304Zm-.6-7.956v-18.184c0-2.273-.8-3.788-2.6-4.735-1.601-.947-2.601-.19-2.601 1.894v18.184c0 2.273.8 3.788 2.601 4.736 1.6.947 2.6.378 2.6-1.895Zm8.002-21.404 4.801 2.652v28.602l8.002 4.357v4.735l-12.803-7.008v-33.338ZM60.02 284.981c0-1.045 0-2.09-.271-2.874l5.16-.523c-.543-2.613-1.358-4.964-2.444-7.577l-5.975-1.83c-1.087-2.09-2.173-4.18-3.802-6.009l1.357-5.749c-1.629-2.09-3.53-3.92-5.703-5.749l-2.716 3.92c-.814-.523-1.63-1.307-2.715-1.568-.815-.523-1.63-.784-2.716-1.306l-3.26-7.578c-1.9-.523-3.802-.784-5.703-.523l1.358 7.317c-1.358.261-2.716 1.045-3.802 2.09l-5.975-4.965c-1.086 1.307-1.9 3.136-2.444 4.965l5.16 6.271c0 .784-.272 1.829-.272 2.613 0 1.045 0 2.091.272 2.875l-5.16.522c.543 2.613 1.358 4.965 2.444 7.578l5.975 1.829c1.086 2.09 2.173 4.181 3.802 6.01l-1.358 5.748c1.63 2.091 3.53 3.92 5.704 5.749l3.259-3.919c.814.522 1.63 1.306 2.715 1.567.815.523 1.63.784 2.716 1.307l3.26 7.578c1.9.522 3.802.783 5.703.522l-1.358-7.316c1.358-.262 2.716-1.045 3.802-2.091l5.975 4.965c1.086-1.307 1.9-3.136 2.444-4.965l-5.16-6.271c-.543-.784-.272-1.568-.272-2.613Zm-17.11-1.829c-3.802-2.09-6.79-7.055-6.79-11.236 0-4.181 2.988-5.748 6.79-3.658 3.803 2.09 6.79 7.055 6.79 11.236 0 3.919-2.987 5.748-6.79 3.658ZM5.975 415.37l8.419-4.704c.815-.522 1.086-1.829.543-3.397l2.444-1.306c4.889 6.794 11.95 10.452 16.567 7.839 4.889-2.613 4.889-11.497 0-19.598-4.888-8.1-12.764-12.542-17.924-9.929-4.617 2.352-4.889 9.929-1.087 17.507l-2.444 1.307c-1.086-1.307-2.444-1.83-3.26-1.307l-8.418 4.703c-1.087.523-1.087 2.613 0 4.181l1.358 2.352c.814 1.829 2.716 2.874 3.802 2.352Zm13.036-13.065c-3.259-5.488-3.259-11.236 0-13.065 3.259-1.829 8.42 1.045 11.678 6.532 3.26 5.487 3.26 11.236 0 13.065-3.259 1.568-8.419-1.306-11.678-6.532Zm638.769-74.471c-6.246-3.397-12.493-9.145-17.924-15.939-5.16 1.045-11.407-.261-17.925-3.92l-.272-.261.272 4.442c1.086 15.417 7.604 28.221 17.653 43.376l.272.261c10.048-3.919 16.295-9.668 17.653-23.778l.271-4.181Zm-8.69 4.442c-.544 7.317-3.803 10.191-8.963 12.281-5.16-7.839-8.419-14.371-8.962-22.21l-.272-2.352c3.259 1.829 6.518 2.613 9.234 1.829 2.716 3.658 5.975 6.533 9.234 8.101l-.271 2.351Zm-48.071-120.981-24.714-13.849v5.487l24.714 13.849v-5.487Zm-2.173 11.236-20.64-11.498v5.488l20.64 11.497v-5.487Zm19.283-1.829-13.036-7.317v5.487l13.036 7.317v-5.487Zm-15.481-15.417 5.975 3.397v-5.488l-5.975-3.396v5.487Zm20.369-13.588 26.887 14.894v-5.487l-26.887-14.894v5.487Zm16.567 28.743-26.887-14.894v5.487l26.887 14.895v-5.488Zm-26.887 15.156 26.887 14.894v-5.488l-26.887-14.894v5.488Zm32.862-24.301-9.777-5.488v5.488l9.777 5.487v-5.487Zm-23.356 17.246 9.777 5.487v-5.487l-9.777-5.488v5.488Zm-60.292-38.934-4.617-2.613v5.487l4.617 2.613v-5.487Zm41.009 40.501 5.975 3.397v-5.487l-5.975-3.397v5.487Zm-28.788-21.426-16.838-9.407v5.487l16.838 9.407v-5.487Zm10.049-43.899-17.11-9.406v5.487l17.11 9.407v-5.488Zm-11.95 36.06v-5.488l-6.518-3.658v5.488l6.518 3.658Zm46.713 1.045 13.036 7.316v-5.487l-13.036-7.316v5.487Zm-5.975-15.678 5.975 3.397v-5.487l-5.975-3.397v5.487Zm-22.813-.523 24.714 13.849v-5.487L590.156 180.2v5.487Zm-16.296-1.829-16.566-9.145v5.487l16.566 9.146v-5.488Zm57.305-5.487v5.487l13.036 7.317v-5.488l-13.036-7.316Zm16.838 14.894 10.864 6.01v-5.487l-10.864-6.01v5.487Zm11.135 95.897-23.085-12.804v5.488l23.085 12.803v-5.487Zm-9.505-70.29 9.505 5.226v-5.487l-9.505-5.226v5.487Zm-5.975 9.146 15.48 8.623v-5.487l-15.48-8.623v5.487Zm.271 24.823 15.209 8.362v-5.487l-15.209-8.362v5.487Zm-8.147-16.723 23.085 12.804v-5.487l-23.085-12.804v5.487Zm18.196-27.175 4.889 2.613v-5.487l-4.889-2.613v5.487Zm-69.526-50.953 17.382 9.668v-5.488l-17.382-9.668v5.488Zm47.528 116.017-9.777-5.488v5.488l9.777 5.487v-5.487Zm-45.898-95.897-13.851-7.578v5.487l13.851 7.578v-5.487Zm-17.653-9.93-11.135-6.01v5.488l11.135 6.01v-5.488Zm9.505 23.256 20.641 11.497v-5.487l-20.641-11.497v5.487Zm-14.666-38.411-5.974-3.397v5.487l5.974 3.397v-5.487Zm24.986 19.336 20.641 11.497v-5.487l-20.641-11.497v5.487Zm17.925-2.613 20.912 11.759v-5.488l-20.912-11.758v5.487Zm37.479 105.043 15.48 8.623v-5.488l-15.48-8.623v5.488Zm-30.961-17.246 26.887 14.894v-5.487l-26.887-14.894v5.487Zm-10.049-5.487 5.975 3.396v-5.487l-5.975-3.397v5.488Zm-24.714-13.849 20.641 11.497v-5.487l-20.641-11.236v5.226ZM73.056 70.454l-5.16 4.703 8.148 3.397v4.181l-8.148-5.748 5.16 10.19-3.53.261-3.26-10.19-3.53 6.532-2.987-3.92 5.16-4.441-8.148-3.397V67.84l8.148 5.749-5.432-10.452 3.26-.262 3.53 10.191 3.259-6.532 3.53 3.919Zm22.542 12.542-5.16 4.704 8.148 3.397v4.18l-8.148-5.748 5.16 10.19-3.53.262-2.988-9.93-3.53 6.533-2.988-3.92 5.16-4.442-8.147-3.396v-4.181l8.147 5.748-5.16-10.19 3.26-.261 3.53 10.19L92.61 79.6l2.987 3.397ZM118.411 95.8l-5.16 4.704 8.148 3.396v4.181l-8.148-5.748 5.16 10.19-3.53.262-3.259-10.191-3.531 6.532-2.987-3.919 5.16-4.442-8.148-3.397v-4.18l8.148 5.748-5.16-10.191 3.259-.261 3.259 10.19 3.259-6.532 3.53 3.658Zm22.813 12.542-5.16 4.704 8.148 3.397v4.18l-8.148-5.748 5.16 10.191-3.53.261-3.259-10.191-3.531 6.533-2.987-3.92 5.16-4.442-8.148-3.397v-4.181l8.148 5.749-5.16-10.191 3.259-.261 3.259 10.191 3.259-6.533 3.53 3.658Zm22.542 12.543-5.16 4.703 8.148 3.397v4.181l-8.148-5.749 5.16 10.191-3.531.261-3.259-10.191-3.53 6.533-2.988-3.92 5.161-4.442-8.148-3.397v-4.18l8.148 5.748-5.161-10.19 3.259-.262 3.259 10.191 3.259-6.533 3.531 3.659Zm8.962-50.17c-.271 0-.543-.261-.543-.522-.271-.262-.271-.523-.271-.784V65.75c0-.262 0-.523.271-.784.272-.262.543-.262.815-.262l9.777-1.829L173 50.073c-.272-.523-.543-.784-.815-1.307-.271-.261-.271-.784-.271-1.045v-3.397c0-.261 0-.523.271-.523h.543l.815.784 13.851 18.03c.543.523.815 1.045.815 1.568.271.522.271.784.271 1.306v1.045c0 .523 0 .784-.271 1.046-.272.261-.543.261-.815.522l-13.851 2.875c-.271 0-.543 0-.815-.262Zm-6.246 2.875-2.716-1.568-.815-.784c-.272-.261-.272-.523-.543-.784l-13.851-44.682v-.523c0-.261 0-.522.272-.522h.543l2.716 1.567.814.784c.272.262.272.523.544 1.046l13.85 44.682v.522c0 .262 0 .523-.271.523 0-.261-.272-.261-.543-.261Zm-23.356-19.336-.815-.784-13.851-18.03c-.543-.523-.815-1.045-.815-1.307-.271-.522-.271-.784-.271-1.306v-1.045c0-.523 0-.784.271-1.046.272-.26.543-.26.815-.522l13.851-2.613h.815c.271 0 .543.261.543.523.271.26.271.522.271.783v3.397c0 .262 0 .523-.271.784-.272.261-.543.261-.815.261l-9.777 1.83 9.777 12.803c.272.523.543.784.815 1.046.271.26.271.783.271 1.045v3.397c0 .26 0 .522-.271.522 0 .523-.272.262-.543.262Z"/>
    <path fill="#077942" d="M568.303 164.545 272.009 2.385c-4.466-2.538-8.708-2.96-12.058-1.692-.446.211-6.252 3.171-6.698 3.382 3.572-1.69 8.038-1.268 12.95 1.269l296.294 162.161c11.388 6.343 20.766 23.045 20.766 37.633v220.091c0 9.091-3.573 15.011-9.155 16.702.447 0 1.116-.211 1.786-.634.224-.211 6.475-3.594 6.699-3.594 4.019-2.537 6.475-8.034 6.475-15.434V201.967c0-14.377-9.378-31.291-20.765-37.422Z"/>
    <path fill="#0B7542" d="M563.391 166.871 267.097 4.921c-4.689-2.537-8.931-2.96-12.504-1.48 2.903-.422 6.475.212 10.048 2.326l296.294 162.161c11.387 6.343 20.765 23.045 20.765 37.633v220.091c0 8.457-3.349 14.377-8.261 16.491 6.475-1.057 10.717-7.188 10.717-17.125V204.504c0-14.377-9.378-31.29-20.765-37.633Z"/>
    <path fill="url(#d)" d="m318.452 434.109 6.475 3.595c2.456 1.268 6.252 1.268 8.485 0l6.252-3.383c1.786-1.057 2.232-2.537 1.116-3.806-.223.423-.67.635-1.116.846l-6.252 3.383c-2.456 1.268-6.252 1.268-8.485 0l-6.475-3.594c-.447-.212-.893-.635-1.116-.846-1.117 1.268-.67 2.748 1.116 3.805Zm-50.238-47.358 7.368 4.017c2.009 1.057 5.582 1.057 7.591 0l7.369-4.017c1.786-.846 2.009-2.326.893-3.383-.223.211-.447.423-.893.634l-7.369 4.017c-2.009 1.057-5.358 1.057-7.591 0l-7.368-4.017c-.447-.211-.67-.423-.893-.634-1.117 1.057-.894 2.537.893 3.383Zm31.259 36.999 6.475 3.594c2.456 1.268 6.252 1.268 8.485 0l6.252-3.383c1.786-1.057 2.233-2.537 1.116-3.805-.223.422-.67.634-1.116.845l-6.252 3.383c-2.456 1.269-6.252 1.269-8.485 0l-6.475-3.594c-.447-.212-.893-.634-1.116-.846-1.117 1.269-.67 2.749 1.116 3.806Zm-18.979-10.36 6.475 3.594c2.456 1.269 6.252 1.269 8.485 0l6.252-3.383c1.786-1.057 2.233-2.537 1.116-3.805-.223.423-.67.634-1.116.846l-6.252 3.382c-2.456 1.269-6.252 1.269-8.485 0l-6.475-3.594c-.446-.211-.893-.634-1.116-.846-1.117 1.269-.67 2.749 1.116 3.806Zm25.677-5.708 7.369 4.017c2.009 1.057 5.582 1.057 7.591 0l7.369-4.017c1.786-.846 2.009-2.326.893-3.383-.224.211-.447.423-.893.634l-7.369 4.017c-2.009 1.057-5.358 1.057-7.591 0l-7.369-4.017c-.446-.211-.669-.423-.893-.634-1.116.846-.893 2.326.893 3.383Zm37.958 20.719 7.369 4.017c2.009 1.057 5.582 1.057 7.591 0l7.368-4.017c1.787-.846 2.01-2.326.893-3.383-.223.212-.446.423-.893.635l-7.368 4.017c-2.009 1.057-5.359 1.057-7.591 0l-7.369-4.017a3.074 3.074 0 0 1-.893-.635c-1.116.846-.893 2.326.893 3.383Zm-56.936-31.29 7.368 4.017c2.009 1.057 5.582 1.057 7.591 0l7.369-4.017c1.786-.846 2.009-2.326.893-3.383-.223.211-.447.423-.893.634l-7.369 4.017c-2.009 1.057-5.358 1.057-7.591 0l-7.368-4.017c-.447-.211-.67-.423-.894-.634-1.116 1.057-.893 2.537.894 3.383Zm145.579 48.415c1.786-.845 2.009-2.325.893-3.382a3.093 3.093 0 0 1-.893.634l-7.368 4.017c-2.01 1.057-5.359 1.057-7.592 0l-7.368-4.017c-.447-.212-.67-.423-.893-.634-1.117 1.057-.894 2.537.893 3.382l7.368 4.017c2.01 1.057 5.582 1.057 7.592 0l7.368-4.017Zm-190.236-53.067 6.475 3.594c2.457 1.269 6.252 1.269 8.485 0l6.252-3.382c1.786-1.057 2.233-2.537 1.116-3.806-.223.423-.669.634-1.116.846l-6.252 3.382c-2.456 1.269-6.252 1.269-8.485 0l-6.475-3.594c-.446-.211-.893-.634-1.116-.845-1.116 1.268-.67 2.96 1.116 3.805Zm29.697-19.451c-.224.212-.447.423-.893.635l-7.369 4.017c-2.009 1.057-5.358 1.057-7.591 0l-7.369-4.017c-.446-.212-.669-.423-.893-.635-1.116 1.057-.893 2.537.893 3.383l7.369 4.017c2.009 1.057 5.582 1.057 7.591 0l7.369-4.017c1.786-.846 2.009-2.326.893-3.383Zm84.4 81.821 6.475 3.594c2.456 1.269 6.252 1.269 8.485 0l6.252-3.383c1.786-1.057 2.233-2.537 1.116-3.805-.223.423-.67.634-1.116.845l-6.252 3.383c-2.456 1.269-6.252 1.269-8.485 0l-6.475-3.594c-.447-.211-.893-.634-1.116-.846-1.34 1.269-.894 2.749 1.116 3.806Zm-18.979-10.36 6.475 3.594c2.456 1.269 6.252 1.269 8.485 0l6.252-3.382c1.786-1.058 2.233-2.538 1.116-3.806-.223.423-.67.634-1.116.846l-6.252 3.382c-2.456 1.269-6.252 1.269-8.485 0l-6.475-3.594c-.446-.211-.893-.634-1.116-.845-1.34 1.268-.893 2.748 1.116 3.805Zm44.433 4.651 7.368 4.017c2.01 1.058 5.582 1.058 7.592 0l7.368-4.017c1.786-.845 2.01-2.325.893-3.382-.223.211-.446.423-.893.634l-7.368 4.017c-2.01 1.057-5.359 1.057-7.592 0l-7.368-4.017c-.447-.211-.67-.423-.893-.634-1.116 1.057-.893 2.325.893 3.382Zm-56.937-31.079 7.369 4.017c2.009 1.057 5.582 1.057 7.591 0l7.368-4.017c1.787-.845 2.01-2.325.894-3.382-.224.211-.447.422-.894.634l-7.368 4.017c-2.009 1.057-5.359 1.057-7.591 0l-7.369-4.017c-.446-.212-.669-.423-.893-.634-1.116.845-.893 2.325.893 3.382Zm37.958 20.72 7.368 4.017c2.01 1.057 5.582 1.057 7.592 0l7.368-4.017c1.787-.846 2.01-2.326.893-3.383-.223.211-.446.423-.893.634l-7.368 4.017c-2.01 1.057-5.359 1.057-7.592 0l-7.368-4.017c-.446-.211-.67-.423-.893-.634-1.116 1.057-.893 2.326.893 3.383Zm50.685-3.594c1.786-.846 2.01-2.326.893-3.383-.223.211-.446.423-.893.634l-7.368 4.017c-2.01 1.057-5.359 1.057-7.592 0l-7.368-4.017c-.447-.211-.67-.423-.893-.634-1.117 1.057-.893 2.537.893 3.383l7.368 4.017c2.01 1.057 5.582 1.057 7.592 0l7.368-4.017ZM280.717 359.9l-6.475 3.594c-2.233 1.269-6.028 1.269-8.261 0l-6.475-3.594c-.447-.211-.893-.634-1.117-.846-1.116 1.269-.67 2.749 1.117 3.806l6.475 3.594c2.233 1.269 6.028 1.269 8.261 0l6.475-3.594c1.787-1.057 2.233-2.537 1.117-3.594-.447 0-.67.423-1.117.634Zm114.097 61.947-7.368 4.017c-2.01 1.057-5.359 1.057-7.592 0l-7.368-4.017c-.447-.211-.67-.423-.893-.634-1.117 1.057-.893 2.537.893 3.382l7.368 4.017c2.01 1.058 5.582 1.058 7.592 0l7.368-4.017c1.786-.845 2.01-2.325.893-3.382-.223.423-.446.634-.893.634Zm-48.005-45.033-6.476 3.594c-2.232 1.269-6.028 1.269-8.261 0l-6.475-3.594c-.447-.211-.893-.634-1.117-.846-1.116 1.269-.669 2.749 1.117 3.806l6.475 3.594c2.233 1.269 6.029 1.269 8.261 0l6.476-3.594c1.786-1.057 2.232-2.537 1.116-3.594-.447 0-.67.423-1.116.634Zm18.978 10.36-6.475 3.594c-2.232 1.268-6.028 1.268-8.261 0l-6.475-3.594c-.447-.212-.893-.635-1.117-.846-1.116 1.269-.669 2.748 1.117 3.806l6.475 3.594c2.233 1.268 6.029 1.268 8.261 0l6.475-3.594c1.787-1.058 2.233-2.538 1.117-3.595-.447 0-.67.423-1.117.635Zm18.979 10.359-6.475 3.595c-2.233 1.268-6.028 1.268-8.261 0l-6.475-3.595c-.447-.211-.893-.634-1.117-.845-1.116 1.268-.67 2.748 1.117 3.805l6.475 3.594c2.233 1.269 6.028 1.269 8.261 0l6.475-3.594c1.787-1.057 2.233-2.537 1.117-3.594-.447.212-.67.423-1.117.634Zm-75.915-41.438-6.475 3.594c-2.233 1.268-6.029 1.268-8.262 0l-6.475-3.594c-.446-.212-.893-.635-1.116-.846-1.117 1.268-.67 2.748 1.116 3.805l6.475 3.595c2.233 1.268 6.029 1.268 8.262 0l6.475-3.595c1.786-1.057 2.233-2.537 1.116-3.594-.446 0-.67.423-1.116.635Zm-37.958-20.72-6.475 3.594c-2.233 1.269-6.029 1.269-8.261 0l-6.476-3.594c-.446-.211-.893-.634-1.116-.846-1.117 1.269-.67 2.749 1.116 3.806l6.476 3.594c2.232 1.269 6.028 1.269 8.261 0l6.475-3.594c1.786-1.057 2.233-2.537 1.116-3.594-.446 0-.669.211-1.116.634Zm18.979 10.36-6.475 3.594c-2.233 1.269-6.029 1.269-8.262 0l-6.475-3.594c-.446-.212-.893-.634-1.116-.846-1.117 1.269-.67 2.749 1.116 3.806l6.475 3.594c2.233 1.268 6.029 1.268 8.262 0l6.475-3.594c1.786-1.057 2.233-2.537 1.116-3.594-.446 0-.67.422-1.116.634Zm113.873 62.158-6.475 3.594c-2.233 1.269-6.028 1.269-8.261 0l-6.475-3.594c-.447-.211-.894-.634-1.117-.846-1.116 1.269-.67 2.749 1.117 3.806l6.475 3.594c2.233 1.269 6.028 1.269 8.261 0l6.475-3.594c1.787-1.057 2.233-2.537 1.117-3.594-.447.211-.67.423-1.117.634Zm-75.915-41.439-6.475 3.594c-2.233 1.269-6.029 1.269-8.262 0l-6.475-3.594c-.447-.211-.893-.634-1.116-.845-1.117 1.268-.67 2.748 1.116 3.805l6.475 3.594c2.233 1.269 6.029 1.269 8.262 0l6.475-3.594c1.786-1.057 2.232-2.537 1.116-3.594-.446 0-.67.423-1.116.634Zm-9.155 14.166-6.475 3.594c-2.233 1.268-6.029 1.268-8.261 0l-6.475-3.594c-.447-.212-.894-.635-1.117-.846-1.116 1.268-.67 2.748 1.117 3.805l6.475 3.595c2.232 1.268 6.028 1.268 8.261 0l6.475-3.595c1.786-1.057 2.233-2.537 1.117-3.594-.447.212-.67.423-1.117.635Zm104.049 37.633-6.475 3.594c-2.233 1.268-6.029 1.268-8.261 0l-6.476-3.594c-.446-.212-.893-.634-1.116-.846-1.116 1.269-.67 2.749 1.116 3.806l6.476 3.594c2.232 1.268 6.028 1.268 8.261 0l6.475-3.594c1.786-1.057 2.233-2.537 1.117-3.595-.447.212-.67.423-1.117.635Zm-65.868-17.125-7.368 4.017c-2.01 1.057-5.359 1.057-7.592 0l-7.368-4.017a3.074 3.074 0 0 1-.893-.635c-1.116 1.057-.893 2.537.893 3.383l7.368 4.017c2.01 1.057 5.582 1.057 7.592 0l7.368-4.017c1.786-.846 2.01-2.326.893-3.383-.223.212-.446.423-.893.635Zm18.979 10.359-7.368 4.017c-2.01 1.057-5.359 1.057-7.592 0l-7.368-4.017c-.447-.211-.67-.423-.893-.634-1.116 1.057-.893 2.537.893 3.383l7.368 4.017c2.01 1.057 5.582 1.057 7.592 0l7.368-4.017c1.786-.846 2.01-2.326.893-3.383-.223.211-.446.423-.893.634Zm-37.958-20.719-7.368 4.017c-2.009 1.057-5.359 1.057-7.591 0l-7.369-4.017a3.093 3.093 0 0 1-.893-.634c-1.116 1.057-.893 2.537.893 3.382l7.369 4.017c2.009 1.057 5.582 1.057 7.591 0l7.368-4.017c1.787-.845 2.01-2.325.894-3.382-.224.211-.447.422-.894.634Zm103.826 37.844-6.475 3.595c-2.233 1.268-6.029 1.268-8.261 0l-6.476-3.595c-.446-.211-.893-.634-1.116-.845-1.116 1.268-.67 2.748 1.116 3.805l6.476 3.595c2.232 1.268 6.028 1.268 8.261 0l6.475-3.595c1.786-1.057 2.233-2.537 1.116-3.594-.446.212-.669.423-1.116.634ZM299.696 370.26l-6.475 3.594c-2.233 1.269-6.028 1.269-8.261 0l-6.475-3.594c-.447-.212-.894-.634-1.117-.846-1.116 1.269-.67 2.749 1.117 3.806l6.475 3.594c2.233 1.269 6.028 1.269 8.261 0l6.475-3.594c1.787-1.057 2.233-2.537 1.117-3.594-.447 0-.67.422-1.117.634Zm75.916 94.929 6.475 3.594c2.456 1.268 6.252 1.268 8.485 0l6.252-3.383c1.786-1.057 2.232-2.537 1.116-3.806-.223.423-.67.635-1.116.846l-6.252 3.383c-2.456 1.268-6.252 1.268-8.485 0l-6.475-3.594c-.447-.212-.893-.635-1.117-.846-1.339 1.269-.893 2.748 1.117 3.806ZM261.515 403.03l6.475 3.595c2.456 1.268 6.252 1.268 8.485 0l6.252-3.383c1.786-1.057 2.233-2.537 1.116-3.806-.223.423-.669.634-1.116.846l-6.252 3.383c-2.456 1.268-6.252 1.268-8.485 0l-6.475-3.595c-.446-.211-.893-.634-1.116-.845-1.117 1.268-.67 2.748 1.116 3.805Zm-84.177-46.301 33.716 18.394c2.456 1.268 6.252 1.268 8.484 0l6.252-3.383c1.787-1.057 2.233-2.537 1.117-3.806-.224.423-.67.634-1.117.846l-6.252 3.383c-2.456 1.268-6.251 1.268-8.484 0l-33.716-18.394c-.446-.212-.893-.634-1.116-.846-1.117 1.48-.893 2.96 1.116 3.806Zm32.153 20.931c-.224.422-.67.634-1.117.845l-6.252 3.383c-2.456 1.269-6.251 1.269-8.484 0l-6.475-3.594c-.447-.211-.894-.634-1.117-.846-1.116 1.269-.67 2.749 1.117 3.806l6.475 3.594c2.456 1.269 6.252 1.269 8.484 0l6.252-3.383c1.787-1.057 2.233-2.537 1.117-3.805Zm-18.979-10.36c-.223.423-.67.634-1.117.846l-6.251 3.382c-2.457 1.269-6.252 1.269-8.485 0l-14.737-8.034c-.446-.211-.893-.634-1.116-.845-1.116 1.268-.67 2.748 1.116 3.805l14.737 8.034c2.456 1.269 6.252 1.269 8.485 0l6.251-3.382c1.787-1.058 2.233-2.538 1.117-3.806Zm170.81 93.449c-.223.423-.67.634-1.117.845l-6.251 3.383c-2.456 1.269-6.252 1.269-8.485 0L225.12 399.225c-.446-.212-.893-.635-1.116-.846-1.116 1.269-.67 2.749 1.116 3.806l120.349 65.752c2.456 1.269 6.252 1.269 8.485 0l6.251-3.383c1.787-1.057 2.233-2.537 1.117-3.805Zm-132.852-72.73c-.224.423-.67.635-1.117.846l-6.252 3.383c-2.456 1.268-6.252 1.268-8.484 0l-6.476-3.594c-.446-.212-.893-.635-1.116-.846-1.116 1.268-.67 2.748 1.116 3.806l6.476 3.594c2.456 1.268 6.252 1.268 8.484 0l6.252-3.383c1.786-1.057 2.233-2.537 1.117-3.806Zm1.786-60.255 6.475 3.594c2.233 1.269 6.029 1.269 8.261 0l6.476-3.594c1.786-1.057 2.232-2.537 1.116-3.594-.223.211-.67.634-1.116.845l-6.476 3.595c-2.232 1.268-6.028 1.268-8.261 0l-6.475-3.595c-.447-.211-.893-.634-1.117-.845-.893 1.057-.669 2.537 1.117 3.594Zm-35.502 19.028 23.891 13.108c2.01 1.057 5.582 1.057 7.592 0l7.368-4.017c1.786-.846 2.01-2.326.893-3.383-.223.212-.446.423-.893.635l-7.368 4.017c-2.01 1.057-5.359 1.057-7.592 0l-23.891-13.109a3.055 3.055 0 0 1-.893-.634c-1.116.846-.893 2.326.893 3.383Zm18.086-9.514 14.96 8.245c2.233 1.269 6.028 1.269 8.261 0l6.475-3.594c1.787-1.057 2.233-2.537 1.117-3.594-.224.211-.67.634-1.117.846l-6.475 3.594c-2.233 1.268-6.028 1.268-8.261 0l-14.96-8.246c-.447-.211-.893-.634-1.116-.845-1.117 1.057-.67 2.537 1.116 3.594Zm186.44 144.19c-.224.423-.67.634-1.117.846l-6.252 3.383c-2.456 1.268-6.251 1.268-8.484 0l-6.475-3.595c-.447-.211-.894-.634-1.117-.845-1.116 1.268-.67 2.748 1.117 3.805l6.475 3.594c2.456 1.269 6.252 1.269 8.484 0l6.252-3.382c1.786-1.057 2.233-2.537 1.117-3.806Zm-18.979-10.36c-.224.423-.67.635-1.117.846l-6.251 3.383c-2.457 1.268-6.252 1.268-8.485 0l-6.475-3.594c-.447-.212-.893-.635-1.117-.846-1.116 1.269-.67 2.748 1.117 3.806l6.475 3.594c2.456 1.268 6.252 1.268 8.485 0l6.251-3.383c1.787-1.057 2.233-2.537 1.117-3.806Zm90.875-7.399-7.368 4.017c-2.01 1.057-5.359 1.057-7.592 0l-7.368-4.017a3.074 3.074 0 0 1-.893-.635c-1.116 1.057-.893 2.537.893 3.383l7.368 4.017c2.01 1.057 5.582 1.057 7.592 0l7.368-4.017c1.786-.846 2.01-2.326.893-3.383-.223.212-.446.423-.893.635Zm-17.416 9.514-7.368 4.017c-2.01 1.057-5.359 1.057-7.592 0l-18.755-10.149c-.447-.211-.67-.422-.893-.634-1.117 1.057-.893 2.537.893 3.383l18.755 10.148c2.01 1.057 5.582 1.057 7.592 0l7.368-4.017c1.787-.846 2.01-2.326.893-3.383-.446.212-.669.423-.893.635Zm45.996-25.371c-.223.211-.446.423-.893.634-2.009 1.057-5.359 1.057-7.368 0l-7.592-4.228a3.074 3.074 0 0 1-.893-.635c-1.116 1.058-.893 2.538.893 3.383l7.592 4.229c2.009 1.057 5.359 1.057 7.368 0 1.786-.846 2.01-2.326.893-3.383Zm-11.387 6.343-6.475 3.594c-2.233 1.268-6.029 1.268-8.262 0l-14.96-8.246c-.446-.211-.893-.634-1.116-.845-1.116 1.268-.67 2.748 1.116 3.805l14.96 8.246c2.233 1.268 6.029 1.268 8.262 0l6.475-3.594c1.786-1.058 2.233-2.538 1.116-3.595-.223.212-.67.423-1.116.635Zm-53.141 29.176-6.252 3.383c-2.456 1.268-6.252 1.268-8.485 0l-6.475-3.595c-.446-.211-.893-.634-1.116-.845-1.117 1.268-.67 2.748 1.116 3.805l6.475 3.595c2.456 1.268 6.252 1.268 8.485 0l6.252-3.383c1.786-1.057 2.233-2.537 1.116-3.806-.223.212-.67.634-1.116.846Zm-187.78-165.544 16.077 8.668c2.009 1.058 5.358 1.058 7.368 0 1.786-.845 2.01-2.325.893-3.382-.223.211-.446.422-.893.634-2.01 1.057-5.359 1.057-7.368 0l-16.077-8.668c-.446-.212-.669-.423-.893-.635-1.116 1.057-.893 2.537.893 3.383Zm170.141 175.269-6.252 3.383c-2.456 1.269-6.252 1.269-8.485 0l-6.475-3.594c-.447-.212-.893-.634-1.116-.846-1.117 1.269-.67 2.749 1.116 3.806l6.475 3.594c2.456 1.269 6.252 1.269 8.485 0l6.252-3.383c1.786-1.057 2.233-2.537 1.116-3.805-.223.211-.67.422-1.116.845Zm-9.825-87.74 7.592 4.228c2.009 1.058 5.359 1.058 7.368 0 1.786-.845 2.01-2.325.893-3.382-.223.211-.446.423-.893.634-2.009 1.057-5.359 1.057-7.368 0l-7.592-4.228c-.446-.212-.669-.423-.893-.635-1.116 1.057-.893 2.537.893 3.383Zm52.918 36.576c1.786-1.057 2.233-2.537 1.116-3.594-.223.211-.669.634-1.116.846l-6.475 3.594c-2.233 1.268-6.029 1.268-8.262 0l-6.475-3.594c-.446-.212-.893-.635-1.116-.846-1.117 1.268-.67 2.748 1.116 3.806l6.475 3.594c2.233 1.268 6.029 1.268 8.262 0l6.475-3.806Zm-14.96-15.645 7.592 4.228c2.009 1.057 5.358 1.057 7.368 0 1.786-.845 2.01-2.325.893-3.383-.223.212-.446.423-.893.635-2.01 1.057-5.359 1.057-7.368 0l-7.592-4.229c-.446-.211-.67-.423-.893-.634-1.116 1.057-.893 2.326.893 3.383Zm18.979 10.36 7.592 4.228c2.009 1.057 5.358 1.057 7.368 0 1.786-.846 2.009-2.326.893-3.383a3.055 3.055 0 0 1-.893.634c-2.01 1.058-5.359 1.058-7.368 0l-7.592-4.228c-.447-.211-.67-.423-.893-.634-1.116 1.057-.893 2.325.893 3.383Zm-40.637 19.45a3.074 3.074 0 0 1-.893.635l-7.368 4.017c-2.01 1.057-5.359 1.057-7.592 0l-7.368-4.017c-.447-.212-.67-.423-.893-.635-1.117 1.058-.894 2.537.893 3.383l7.368 4.017c2.009 1.057 5.582 1.057 7.592 0l7.368-4.017c1.786-.846 2.009-2.325.893-3.383ZM274.912 332.838l7.592 4.229c2.009 1.057 5.358 1.057 7.368 0 1.786-.846 2.009-2.326.893-3.383-.223.211-.447.423-.893.634-2.01 1.057-5.359 1.057-7.368 0l-7.592-4.228a3.074 3.074 0 0 1-.893-.635c-1.116 1.057-.893 2.326.893 3.383Zm-44.656 30.445c-.447-.212-.67-.423-.893-.634-1.117 1.057-.893 2.537.893 3.382l7.368 4.017c2.01 1.058 5.582 1.058 7.592 0l7.368-4.017c1.786-.845 2.01-2.325.893-3.382-.223.211-.446.422-.893.634l-7.368 4.017c-2.01 1.057-5.359 1.057-7.592 0l-7.368-4.017Zm-7.815 15.222c-1.116 1.269-.67 2.749 1.116 3.806l6.476 3.594c2.456 1.269 6.251 1.269 8.484 0l6.252-3.383c1.786-1.057 2.233-2.537 1.117-3.805-.224.423-.67.634-1.117.845l-6.252 3.383c-2.456 1.269-6.252 1.269-8.484 0l-6.476-3.594c-.446-.211-.893-.634-1.116-.846Zm172.15 97.043 6.475 3.594c2.456 1.269 6.252 1.269 8.485 0l6.252-3.382c1.786-1.057 2.232-2.537 1.116-3.806-.223.423-.67.634-1.116.846l-6.252 3.383c-2.456 1.268-6.252 1.268-8.485 0l-6.475-3.595c-.447-.211-.893-.634-1.117-.845-1.339 1.268-.893 2.748 1.117 3.805Zm35.055-19.662 7.368 4.017c2.01 1.057 5.582 1.057 7.592 0l7.368-4.017c1.786-.846 2.01-2.326.893-3.383-.223.212-.446.423-.893.634l-7.368 4.018c-2.01 1.057-5.359 1.057-7.592 0l-7.368-4.018c-.447-.211-.67-.422-.893-.634-1.117 1.057-.893 2.326.893 3.383Zm-97.797-91.969 7.591 4.229c2.01 1.057 5.359 1.057 7.369 0 1.786-.846 2.009-2.326.893-3.383-.224.211-.447.423-.893.634-2.01 1.057-5.359 1.057-7.369 0l-7.591-4.228c-.447-.212-.67-.423-.893-.635-1.117 1.058-.893 2.537.893 3.383Zm-18.979-10.36 7.591 4.229c2.01 1.057 5.359 1.057 7.369 0 1.786-.846 2.009-2.326.893-3.383a3.055 3.055 0 0 1-.893.634c-2.01 1.058-5.359 1.058-7.369 0l-7.591-4.228c-.447-.211-.67-.423-.893-.634-1.117 1.057-.893 2.537.893 3.382Zm113.873 62.37 7.592 4.229c2.009 1.057 5.359 1.057 7.368 0 1.786-.846 2.01-2.326.893-3.383-.223.211-.446.423-.893.634-2.009 1.057-5.359 1.057-7.368 0l-7.592-4.228a3.074 3.074 0 0 1-.893-.635c-1.116.846-.893 2.326.893 3.383Zm-75.915-41.65 7.591 4.228c2.01 1.057 5.359 1.057 7.368 0 1.787-.845 2.01-2.325.894-3.382-.224.211-.447.422-.894.634-2.009 1.057-5.358 1.057-7.368 0l-7.591-4.229c-.447-.211-.67-.422-.893-.634-1.117 1.057-.894 2.537.893 3.383Zm-56.937-31.079 7.592 4.228c2.009 1.057 5.358 1.057 7.368 0 1.786-.845 2.009-2.325.893-3.383a3.074 3.074 0 0 1-.893.635c-2.01 1.057-5.359 1.057-7.368 0l-7.592-4.229c-.447-.211-.67-.423-.893-.634-1.117 1.057-.893 2.537.893 3.383Zm75.916 41.439 7.591 4.228c2.01 1.057 5.359 1.057 7.368 0 1.787-.846 2.01-2.326.894-3.383-.224.212-.447.423-.894.635-2.009 1.057-5.358 1.057-7.368 0l-7.591-4.229c-.447-.211-.67-.423-.894-.634-1.116 1.057-.893 2.537.894 3.383ZM261.739 349.54l-6.476 3.595c-2.232 1.268-6.028 1.268-8.261 0l-6.475-3.595c-.447-.211-.893-.634-1.117-.845-1.116 1.268-.669 2.748 1.117 3.805l6.475 3.595c2.233 1.268 6.029 1.268 8.261 0l6.476-3.595c1.786-1.057 2.232-2.537 1.116-3.594-.447 0-.67.423-1.116.634Zm127.046 45.456 7.592 4.229c2.01 1.057 5.359 1.057 7.368 0 1.787-.846 2.01-2.326.893-3.383-.223.211-.446.423-.893.634-2.009 1.057-5.358 1.057-7.368 0l-7.592-4.228c-.446-.212-.669-.423-.893-.634-1.116 1.057-.893 2.537.893 3.382Z"/>
    <path fill="#0B0B0B" d="m438.406 256.092-79.495-46.09v-42.285l79.495 46.09v42.285Z" opacity=".8"/>
    <path fill="#1B8252" d="m299.713 176.385-79.707-45.878V88.222l79.707 45.879v42.284Z" opacity=".8"/>
    <path fill="#389D70" d="m362.717 283.364-65.541-37.844c-5.497-3.172-10.148-11.84-10.148-19.451 0-7.4 4.439-10.994 10.148-7.611l65.541 37.844c5.497 3.172 10.148 11.84 10.148 19.451 0 7.4-4.44 10.783-10.148 7.611Z" opacity=".8"/>
    <path fill="#2ECC82" d="M403.098 180.613v-22.199l-32.136-17.971-1.057 1.691 31.079 17.548v19.662l-4.44-2.537 5.074 13.108 5.074-7.188-3.594-2.114Zm-71.038-96.62 5.286-7.188-4.017-2.326V62.005l-2.115-.634v11.84l-4.228-2.326 5.074 13.108Zm-67.443 27.908 5.285-7.4-3.805-2.114V82.302l23.679 13.742 1.057-1.903-26.851-15.645v22.622l-4.44-2.537 5.075 13.32ZM395.699 245.52l-135.311-77.804v-12.685l-2.114-.635v14.589l72.941 41.861v15.857l-4.229-2.326 5.074 13.109 5.286-7.189-4.017-2.326v-15.856l63.004 36.153 1.48 1.057V233.68l-2.114-.634v12.474Z"/>
    <path fill="#1E1E1E" d="m331.848 151.86-40.17-56.66 40.17-9.938 40.382 56.45-40.382 10.148Z" opacity=".9"/>
    <path fill="url(#e)" d="M358.911 167.717v1.691l78.438 45.456v40.593l1.057.635v-42.285l-79.495-46.09Z"/>
    <path fill="#387A5E" d="M220.006 88.222v1.692l78.649 45.244v40.593l1.058.634v-42.284l-79.707-45.879Z"/>
    <path fill="#198753" d="m362.717 256.303-65.541-37.844c-3.383-1.903-6.343-1.48-8.246.845 1.903-1.268 4.44-1.48 7.189.212l65.54 37.844c5.497 3.172 10.149 11.84 10.149 19.451 0 2.96-.635 5.286-1.903 6.766 1.903-1.48 2.96-4.017 2.96-7.823 0-7.611-4.44-16.279-10.148-19.451Z"/>
    <path fill="silver" d="M539.124 264.066c-.46-.764-.691-1.636-.691-2.617v-6.325c0-.982.231-1.636.691-1.854.461-.327 1.152-.218 1.958.327a5.195 5.195 0 0 1 1.958 1.854c.461.763.691 1.636.691 2.617v6.325c0 .981-.23 1.636-.691 1.854-.461.327-1.152.218-1.958-.328a5.192 5.192 0 0 1-1.958-1.853Zm2.879-.546v-6.542c0-.764-.345-1.309-.921-1.636-.576-.327-.921-.109-.921.654v6.543c0 .763.345 1.309.921 1.636.691.436.921.218.921-.655Zm-.92 9.488-1.843-.982v-1.308l1.152.545c.345.109.576 0 .691-.109.23-.109.345-.327.461-.654l1.151.654v12.104l-1.727-.981v-9.269h.115Zm-1.959 23.991c-.46-.764-.691-1.636-.691-2.618v-6.324c0-.982.231-1.636.691-1.854.461-.327 1.152-.218 1.958.327a5.187 5.187 0 0 1 1.958 1.854c.461.763.691 1.635.691 2.617v6.325c0 .981-.23 1.635-.691 1.853-.461.328-1.152.219-1.958-.327a5.192 5.192 0 0 1-1.958-1.853Zm2.879-.546v-6.543c0-.763-.345-1.308-.921-1.635-.576-.327-.921-.109-.921.654v6.543c0 .763.345 1.308.921 1.636.691.436.921.218.921-.655Zm-2.879 17.011c-.46-.763-.691-1.636-.691-2.617v-6.325c0-.981.231-1.636.691-1.854.461-.327 1.152-.218 1.958.328a5.192 5.192 0 0 1 1.958 1.853c.461.764.691 1.636.691 2.617v6.325c0 .982-.23 1.636-.691 1.854-.461.327-1.152.218-1.958-.327a5.195 5.195 0 0 1-1.958-1.854Zm2.879-.545v-6.543c0-.763-.345-1.309-.921-1.636-.576-.327-.921-.109-.921.655v6.542c0 .764.345 1.309.921 1.636.691.436.921.218.921-.654Zm-.92 9.487-1.843-.981v-1.309l1.152.546c.345.109.576 0 .691-.11.23-.109.345-.327.461-.654l1.151.654v12.105l-1.727-.982v-9.269h.115Zm-1.959 23.99c-.46-.763-.691-1.635-.691-2.617v-6.324c0-.982.231-1.636.691-1.854.461-.327 1.152-.218 1.958.327a5.187 5.187 0 0 1 1.958 1.854c.461.763.691 1.635.691 2.617v6.325c0 .981-.23 1.635-.691 1.853-.461.328-1.152.219-1.958-.327a5.187 5.187 0 0 1-1.958-1.854Zm2.879-.545v-6.543c0-.763-.345-1.308-.921-1.635-.576-.327-.921-.109-.921.654v6.543c0 .763.345 1.308.921 1.636.691.436.921.109.921-.655Zm-.92 9.488-1.843-.982v-1.308l1.152.545c.345.109.576 0 .691-.109.23-.109.345-.327.461-.654l1.151.654v12.104l-1.727-.981v-9.269h.115Zm8.061-94.435-1.842-.982v-1.308l1.151.545c.346.109.576 0 .691-.109.231-.109.346-.327.461-.654l1.152.654v12.104l-1.728-.981v-9.269h.115Zm-1.958 24.099c-.461-.763-.691-1.636-.691-2.617v-6.325c0-.981.23-1.635.691-1.854.461-.327 1.152-.218 1.958.328.806.545 1.497 1.09 1.958 1.853.46.764.691 1.636.691 2.618v6.324c0 .982-.231 1.636-.691 1.854-.461.327-1.152.218-1.958-.327s-1.497-1.091-1.958-1.854Zm2.879-.545v-6.543c0-.763-.345-1.309-.921-1.636-.576-.327-.921-.109-.921.655v6.542c0 .764.345 1.309.921 1.636.691.327.921.109.921-.654Zm-.921 9.378-1.842-.982v-1.308l1.151.545c.346.109.576 0 .691-.109.231-.109.346-.327.461-.654l1.152.654v12.104l-1.728-.981v-9.269h.115Zm-1.958 24.099c-.461-.763-.691-1.635-.691-2.617v-6.325c0-.981.23-1.635.691-1.853.461-.328 1.152-.219 1.958.327.806.545 1.497 1.09 1.958 1.854.46.763.691 1.635.691 2.617v6.324c0 .982-.231 1.636-.691 1.854-.461.327-1.152.218-1.958-.327s-1.497-1.09-1.958-1.854Zm2.879-.654v-6.543c0-.763-.345-1.308-.921-1.636-.576-.327-.921-.109-.921.655v6.543c0 .763.345 1.308.921 1.635.691.436.921.218.921-.654Zm-2.879 17.12c-.461-.763-.691-1.635-.691-2.617v-6.434c0-.981.23-1.635.691-1.853.461-.328 1.152-.219 1.958.327a5.192 5.192 0 0 1 1.958 1.853c.46.764.691 1.636.691 2.618v6.324c0 .982-.231 1.636-.691 1.854-.461.327-1.152.218-1.958-.327-.806-.436-1.497-.981-1.958-1.745Zm2.879-.654v-6.543c0-.763-.345-1.308-.921-1.636-.576-.327-.921-.109-.921.655v6.543c0 .763.345 1.308.921 1.635.691.436.921.218.921-.654Zm-.921 9.487-1.842-.981v-1.309l1.151.546c.346.109.576 0 .691-.109.231-.109.346-.328.461-.655l1.152.655v12.104l-1.728-.982v-9.269h.115Zm-1.958 24.1c-.461-.764-.691-1.636-.691-2.617v-6.325c0-.982.23-1.636.691-1.854.461-.327 1.152-.218 1.958.327a5.195 5.195 0 0 1 1.958 1.854c.46.763.691 1.636.691 2.617v6.325c0 .981-.231 1.636-.691 1.854-.461.327-1.152.218-1.958-.327-.806-.546-1.497-1.091-1.958-1.854Zm2.879-.655v-6.542c0-.764-.345-1.309-.921-1.636-.576-.327-.921-.109-.921.654v6.543c0 .763.345 1.309.921 1.636.691.436.921.218.921-.655Zm5.182-93.78c-.46-.764-.691-1.636-.691-2.617v-6.325c0-.982.231-1.636.691-1.854.461-.327 1.152-.218 1.958.327a5.195 5.195 0 0 1 1.958 1.854c.461.763.691 1.636.691 2.617v6.325c0 .981-.23 1.636-.691 1.854-.461.327-1.152.218-1.958-.328a5.192 5.192 0 0 1-1.958-1.853Zm2.879-.546v-6.542c0-.764-.345-1.309-.921-1.636-.576-.327-.921-.109-.921.654v6.543c0 .763.345 1.309.921 1.636.576.327.921.109.921-.655Zm-2.879 17.012c-.46-.764-.691-1.636-.691-2.617v-6.325c0-.982.231-1.636.691-1.854.461-.327 1.152-.218 1.958.327a5.195 5.195 0 0 1 1.958 1.854c.461.763.691 1.636.691 2.617v6.325c0 .981-.23 1.636-.691 1.854-.461.327-1.152.218-1.958-.327a5.203 5.203 0 0 1-1.958-1.854Zm2.879-.546v-6.542c0-.764-.345-1.309-.921-1.636-.576-.327-.921-.109-.921.654v6.543c0 .763.345 1.309.921 1.636.576.327.921.109.921-.655Zm-2.879 17.012c-.46-.764-.691-1.636-.691-2.617v-6.325c0-.982.231-1.636.691-1.854.461-.327 1.152-.218 1.958.327a5.195 5.195 0 0 1 1.958 1.854c.461.763.691 1.636.691 2.617v6.325c0 .981-.23 1.636-.691 1.854-.461.327-1.152.218-1.958-.327a5.203 5.203 0 0 1-1.958-1.854Zm2.879-.545v-6.543c0-.764-.345-1.309-.921-1.636-.576-.327-.921-.109-.921.654v6.543c0 .763.345 1.309.921 1.636.576.327.921.109.921-.654Zm-1.036 9.486-1.843-.981v-1.309l1.152.546c.345.109.576 0 .691-.109.23-.109.345-.327.46-.655l1.152.655v12.104l-1.727-.981v-9.27h.115Zm0 16.467-1.843-.981v-1.309l1.152.545c.345.109.576 0 .691-.109.23-.109.345-.327.46-.654l1.152.654v12.105l-1.727-.982v-9.269h.115Zm0 16.466-1.843-.982v-1.308l1.152.545c.345.109.576 0 .691-.109.23-.109.345-.327.46-.654l1.152.654v12.104l-1.727-.981v-9.269h.115Zm-1.843 23.991c-.46-.764-.691-1.636-.691-2.618v-6.324c0-.982.231-1.636.691-1.854.461-.327 1.152-.218 1.958.327a5.187 5.187 0 0 1 1.958 1.854c.461.763.691 1.635.691 2.617v6.325c0 .981-.23 1.635-.691 1.853-.461.328-1.152.219-1.958-.327a5.192 5.192 0 0 1-1.958-1.853Zm2.879-.546v-6.543c0-.763-.345-1.308-.921-1.635-.576-.327-.921-.109-.921.654v6.543c0 .763.345 1.308.921 1.636.576.327.921.109.921-.655Zm7.026-101.414-1.843-.982v-1.308l1.151.545c.346.109.576 0 .692-.109.23-.109.345-.327.46-.654l1.152.654v12.104l-1.728-.981v-9.269h.116Zm0 16.466-1.843-.981v-1.309l1.151.545c.346.109.576 0 .692-.109.23-.109.345-.327.46-.654l1.152.654v12.105l-1.728-.982v-9.269h.116Zm0 16.466-1.843-.981v-1.418l1.151.545c.346.109.576 0 .692-.109.23-.109.345-.327.46-.654l1.152.654v12.105l-1.728-.982v-9.16h.116Zm-1.843 23.99c-.461-.763-.691-1.635-.691-2.617v-6.324c0-.982.23-1.636.691-1.854.46-.327 1.151-.218 1.957.327a5.173 5.173 0 0 1 1.958 1.854c.461.763.691 1.635.691 2.617v6.325c0 .981-.23 1.635-.691 1.853-.46.328-1.151.218-1.958-.327-.921-.436-1.497-1.09-1.957-1.854Zm2.879-.545v-6.543c0-.763-.346-1.308-.922-1.635-.575-.328-.921-.109-.921.654v6.543c0 .763.346 1.308.921 1.635.576.328.922.11.922-.654Zm-2.879 17.012c-.461-.764-.691-1.636-.691-2.617v-6.325c0-.982.23-1.636.691-1.854.46-.327 1.151-.218 1.957.327a5.18 5.18 0 0 1 1.958 1.854c.461.763.691 1.636.691 2.617v6.325c0 .981-.23 1.636-.691 1.854-.46.327-1.151.218-1.958-.327-.921-.437-1.497-1.091-1.957-1.854Zm2.879-.545v-6.543c0-.764-.346-1.309-.922-1.636-.575-.327-.921-.109-.921.654v6.543c0 .763.346 1.309.921 1.636.576.327.922.109.922-.654Zm-2.879 17.011c-.461-.764-.691-1.636-.691-2.617v-6.325c0-.982.23-1.636.691-1.854.46-.327 1.151-.218 1.957.327a5.18 5.18 0 0 1 1.958 1.854c.461.763.691 1.636.691 2.617v6.325c0 .981-.23 1.636-.691 1.854-.46.327-1.151.218-1.958-.327-.921-.437-1.497-1.091-1.957-1.854Zm2.879-.545v-6.543c0-.764-.346-1.309-.922-1.636-.575-.327-.921-.109-.921.654v6.543c0 .763.346 1.309.921 1.636.576.327.922.109.922-.654Zm-1.036 9.487-1.843-.982v-1.308l1.151.545c.346.109.576 0 .692-.109.23-.109.345-.327.46-.654l1.152.654v12.104l-1.728-.981v-9.269h.116Zm-81.883-142.852-1.842-.981v-1.309l1.151.545c.346.109.576 0 .691-.109.231-.109.346-.327.461-.654l1.152.654v12.104l-1.728-.981v-9.269h.115Zm-1.842 23.99c-.461-.763-.691-1.635-.691-2.617v-6.325c0-.981.23-1.635.691-1.853.461-.327 1.152-.218 1.958.327a5.187 5.187 0 0 1 1.958 1.854c.46.763.691 1.635.691 2.617v6.325c0 .981-.231 1.635-.691 1.853-.461.327-1.152.218-1.958-.327s-1.612-1.09-1.958-1.854Zm2.764-.545v-6.543c0-.763-.345-1.308-.921-1.635-.576-.328-.922-.109-.922.654v6.543c0 .763.346 1.308.922 1.635.691.437.921.109.921-.654Zm-.922 9.487-1.842-.981v-1.309l1.151.546c.346.109.576 0 .691-.109.231-.11.346-.328.461-.655l1.152.655v12.104l-1.728-.982v-9.269h.115Zm-1.842 23.99c-.461-.763-.691-1.635-.691-2.617v-6.324c0-.982.23-1.636.691-1.854.461-.327 1.152-.218 1.958.327s1.497 1.09 1.958 1.854c.46.763.691 1.635.691 2.617v6.325c0 .981-.231 1.635-.691 1.853-.461.328-1.152.219-1.958-.327-.806-.545-1.612-1.09-1.958-1.854Zm2.764-.545v-6.543c0-.763-.345-1.308-.921-1.635-.576-.327-.922-.109-.922.654v6.543c0 .763.346 1.308.922 1.636.691.436.921.109.921-.655Zm-2.764 17.012c-.461-.763-.691-1.636-.691-2.617v-6.325c0-.981.23-1.636.691-1.854.461-.327 1.152-.218 1.958.327a5.203 5.203 0 0 1 1.958 1.854c.46.764.691 1.636.691 2.617v6.325c0 .982-.231 1.636-.691 1.854-.461.327-1.152.218-1.958-.327-.921-.436-1.612-1.091-1.958-1.854Zm2.764-.545v-6.543c0-.763-.345-1.309-.921-1.636-.576-.327-.922-.109-.922.655v6.542c0 .764.346 1.309.922 1.636.691.436.921.109.921-.654Zm-.922 9.487-1.842-.982v-1.308l1.151.545c.346.109.576 0 .691-.109.231-.109.346-.327.461-.655l1.152.655v12.104l-1.728-.981v-9.269h.115Zm-1.842 23.99c-.461-.763-.691-1.636-.691-2.617v-6.325c0-.981.23-1.636.691-1.854.461-.327 1.152-.218 1.958.327a5.203 5.203 0 0 1 1.958 1.854c.46.764.691 1.636.691 2.617v6.325c0 .981-.231 1.636-.691 1.854-.461.327-1.152.218-1.958-.327-.921-.436-1.612-1.091-1.958-1.854Zm2.764-.545v-6.543c0-.763-.345-1.309-.921-1.636-.576-.327-.922-.109-.922.654v6.543c0 .764.346 1.309.922 1.636.691.436.921.109.921-.654Zm5.182-93.89c-.461-.763-.691-1.635-.691-2.617v-6.325c0-.981.23-1.635.691-1.853.461-.327 1.152-.218 1.958.327a5.187 5.187 0 0 1 1.958 1.854c.46.763.691 1.635.691 2.617v6.325c0 .981-.231 1.635-.691 1.853-.461.327-1.152.218-1.958-.327-.806-.436-1.497-.981-1.958-1.854Zm2.879-.545v-6.543c0-.763-.345-1.308-.921-1.635-.576-.328-.921-.109-.921.654v6.543c0 .763.345 1.308.921 1.635.691.437.921.218.921-.654Zm-2.879 17.011c-.461-.763-.691-1.635-.691-2.617v-6.324c0-.982.23-1.636.691-1.854.461-.327 1.152-.218 1.958.327a5.187 5.187 0 0 1 1.958 1.854c.46.763.691 1.635.691 2.617v6.325c0 .981-.231 1.635-.691 1.853-.461.328-1.152.218-1.958-.327-.806-.436-1.497-.981-1.958-1.854Zm2.879-.545v-6.543c0-.763-.345-1.308-.921-1.635-.576-.328-.921-.109-.921.654v6.543c0 .763.345 1.308.921 1.635.691.437.921.219.921-.654Zm-2.879 17.012c-.461-.764-.691-1.636-.691-2.617v-6.325c0-.982.23-1.636.691-1.854.461-.327 1.152-.218 1.958.327a5.195 5.195 0 0 1 1.958 1.854c.46.763.691 1.636.691 2.617v6.325c0 .981-.231 1.636-.691 1.854-.461.327-1.152.218-1.958-.327-.806-.437-1.497-.982-1.958-1.854Zm2.879-.546v-6.542c0-.764-.345-1.309-.921-1.636-.576-.327-.921-.109-.921.654v6.543c0 .763.345 1.309.921 1.636.691.436.921.218.921-.655Zm-.921 9.487-1.843-.981v-1.309l1.152.546c.345.109.576 0 .691-.109.23-.109.345-.328.461-.655l1.151.655v12.104l-1.727-.982v-9.269h.115Zm0 16.467-1.843-.981v-1.309l1.152.545c.345.109.576 0 .691-.109.23-.109.345-.327.461-.654l1.151.654v12.104l-1.727-.981v-9.269h.115Zm0 16.466-1.843-.982v-1.308l1.152.545c.345.109.576 0 .691-.109.23-.109.345-.327.461-.655l1.151.655v12.104l-1.727-.981v-9.269h.115Zm-1.958 23.99c-.461-.763-.691-1.635-.691-2.617v-6.325c0-.981.23-1.635.691-1.853.461-.328 1.152-.219 1.958.327a5.192 5.192 0 0 1 1.958 1.853c.46.764.691 1.636.691 2.618v6.324c0 .982-.231 1.636-.691 1.854-.461.327-1.152.218-1.958-.327-.806-.436-1.497-.981-1.958-1.854Zm2.879-.545v-6.543c0-.763-.345-1.308-.921-1.636-.576-.327-.921-.109-.921.655v6.543c0 .763.345 1.308.921 1.635.691.436.921.218.921-.654Zm7.026-101.414-1.843-.982v-1.308l1.152.545c.345.109.576 0 .691-.109.23-.109.345-.327.46-.654l1.152.654v12.104l-1.727-.981v-9.269h.115Zm0 16.466-1.843-.982v-1.308l1.152.545c.345.109.576 0 .691-.109.23-.109.345-.327.46-.654l1.152.654v12.104l-1.727-.981v-9.269h.115Zm0 16.466-1.843-.981v-1.309l1.152.545c.345.109.576 0 .691-.109.23-.109.345-.327.46-.654l1.152.654v12.105l-1.727-.982v-9.269h.115Zm-1.843 24.099c-.461-.763-.691-1.635-.691-2.617v-6.325c0-.981.23-1.635.691-1.853.46-.328 1.151-.219 1.957.327a5.173 5.173 0 0 1 1.958 1.854c.461.763.691 1.635.691 2.617v6.324c0 .982-.23 1.636-.691 1.854-.46.327-1.151.218-1.958-.327a5.177 5.177 0 0 1-1.957-1.854Zm2.879-.545v-6.543c0-.763-.346-1.308-.922-1.636-.575-.327-.921-.109-.921.655v6.543c0 .763.346 1.308.921 1.635.576.327.922.109.922-.654Zm-2.879 17.012c-.461-.764-.691-1.636-.691-2.618v-6.324c0-.982.23-1.636.691-1.854.46-.327 1.151-.218 1.957.327a5.173 5.173 0 0 1 1.958 1.854c.461.763.691 1.636.691 2.617v6.325c0 .981-.23 1.635-.691 1.854-.46.327-1.151.218-1.958-.328-.806-.545-1.497-1.09-1.957-1.853Zm2.879-.546v-6.543c0-.763-.346-1.308-.922-1.635-.575-.327-.921-.109-.921.654v6.543c0 .763.346 1.308.921 1.636.576.327.922.109.922-.655Zm-2.879 17.012c-.461-.764-.691-1.636-.691-2.618v-6.324c0-.982.23-1.636.691-1.854.46-.327 1.151-.218 1.957.327a5.18 5.18 0 0 1 1.958 1.854c.461.763.691 1.636.691 2.617v6.325c0 .981-.23 1.635-.691 1.854-.46.327-1.151.218-1.958-.328a5.182 5.182 0 0 1-1.957-1.853Zm2.879-.546v-6.542c0-.764-.346-1.309-.922-1.636-.575-.327-.921-.109-.921.654v6.543c0 .763.346 1.309.921 1.636.576.327.922.109.922-.655Zm-1.036 9.379-1.843-.982v-1.308l1.152.545c.345.109.576 0 .691-.109.23-.109.345-.327.46-.654l1.152.654v12.104l-1.727-.981v-9.269h.115Zm6.679-86.474c-.461-.764-.691-1.636-.691-2.618v-6.324c0-.982.23-1.636.691-1.854.46-.327 1.151-.218 1.957.327a5.173 5.173 0 0 1 1.958 1.854c.461.763.691 1.635.691 2.617v6.325c0 .981-.23 1.635-.691 1.853-.46.328-1.151.219-1.958-.327a5.182 5.182 0 0 1-1.957-1.853Zm2.879-.546v-6.543c0-.763-.346-1.308-.922-1.635-.575-.327-.921-.109-.921.654v6.543c0 .763.346 1.308.921 1.636.691.327.922.109.922-.655Zm-.922 9.487-1.842-.981v-1.309l1.151.546c.346.109.576 0 .691-.109.231-.109.346-.327.461-.655l1.152.655v12.104l-1.728-.982v-9.269h.115Zm-1.958 23.991c-.46-.764-.691-1.636-.691-2.617v-6.325c0-.982.231-1.636.691-1.854.461-.327 1.152-.218 1.958.327a5.195 5.195 0 0 1 1.958 1.854c.461.763.691 1.636.691 2.617v6.325c0 .981-.23 1.636-.691 1.854-.461.327-1.152.218-1.958-.328a5.192 5.192 0 0 1-1.958-1.853Zm2.879-.546v-6.542c0-.764-.345-1.309-.921-1.636-.576-.327-.921-.109-.921.654v6.543c0 .763.345 1.309.921 1.636.691.327.921.109.921-.655Zm-2.879 17.012c-.46-.763-.691-1.636-.691-2.617v-6.325c0-.981.231-1.635.691-1.853.461-.328 1.152-.219 1.958.327a5.192 5.192 0 0 1 1.958 1.853c.461.764.691 1.636.691 2.618v6.324c0 .982-.23 1.636-.691 1.854-.461.327-1.152.218-1.958-.327a5.187 5.187 0 0 1-1.958-1.854Zm2.879-.545v-6.543c0-.763-.345-1.308-.921-1.636-.576-.327-.921-.109-.921.655v6.543c0 .763.345 1.308.921 1.635.691.327.921.109.921-.654Zm-.921 9.487-1.842-.982v-1.308l1.151.545c.346.109.576 0 .691-.109.231-.109.346-.327.461-.654l1.152.654v12.104l-1.728-.981v-9.269h.115Zm-1.958 23.991c-.46-.764-.691-1.636-.691-2.618v-6.324c0-.982.231-1.636.691-1.854.461-.327 1.152-.218 1.958.327a5.187 5.187 0 0 1 1.958 1.854c.461.763.691 1.636.691 2.617v6.325c0 .981-.23 1.635-.691 1.854-.461.327-1.152.218-1.958-.328a5.192 5.192 0 0 1-1.958-1.853Zm2.879-.546v-6.543c0-.763-.345-1.308-.921-1.635-.576-.327-.921-.109-.921.654v6.543c0 .763.345 1.308.921 1.636.691.327.921.109.921-.655Zm-.921 9.487-1.842-.981v-1.309l1.151.546c.346.109.576 0 .691-.11.231-.109.346-.327.461-.654l1.152.654v12.105l-1.728-.982V338h.115Zm7.947-94.435-1.843-.982v-1.308l1.152.545c.345.109.576 0 .691-.109.23-.109.345-.327.461-.654l1.151.654v12.104l-1.727-.981v-9.269h.115Zm-1.843 23.99c-.461-.763-.691-1.635-.691-2.617v-6.324c0-.982.23-1.636.691-1.854.461-.327 1.152-.218 1.958.327a5.187 5.187 0 0 1 1.958 1.854c.46.763.691 1.635.691 2.617v6.325c0 .981-.231 1.635-.691 1.853-.461.327-1.152.218-1.958-.327a5.187 5.187 0 0 1-1.958-1.854Zm2.879-.545v-6.543c0-.763-.345-1.308-.921-1.635-.576-.328-.921-.109-.921.654v6.543c0 .763.345 1.308.921 1.635.576.437.921.109.921-.654Zm-1.036 9.487-1.843-.981v-1.309l1.152.545c.345.109.576 0 .691-.109.23-.109.345-.327.461-.654l1.151.654v12.105l-1.727-.982v-9.269h.115Zm-1.843 23.99c-.461-.763-.691-1.635-.691-2.617v-6.325c0-.981.23-1.635.691-1.853.461-.328 1.152-.219 1.958.327a5.187 5.187 0 0 1 1.958 1.854c.46.763.691 1.635.691 2.617v6.324c0 .982-.231 1.636-.691 1.854-.461.327-1.152.218-1.958-.327a5.187 5.187 0 0 1-1.958-1.854Zm2.879-.545v-6.543c0-.763-.345-1.308-.921-1.636-.576-.327-.921-.109-.921.655v6.543c0 .763.345 1.308.921 1.635.576.437.921.109.921-.654Zm-2.879 17.011c-.461-.763-.691-1.635-.691-2.617v-6.325c0-.981.23-1.635.691-1.853.461-.327 1.152-.218 1.958.327a5.187 5.187 0 0 1 1.958 1.854c.46.763.691 1.635.691 2.617v6.324c0 .982-.231 1.636-.691 1.854-.461.327-1.152.218-1.958-.327a5.187 5.187 0 0 1-1.958-1.854Zm2.879-.545v-6.543c0-.763-.345-1.308-.921-1.635-.576-.328-.921-.109-.921.654v6.543c0 .763.345 1.308.921 1.635.576.437.921.109.921-.654Zm-1.036 9.488-1.843-.982v-1.308l1.152.545c.345.109.576 0 .691-.109.23-.109.345-.327.461-.655l1.151.655v12.104l-1.727-.981v-9.269h.115Zm-1.843 23.99c-.461-.763-.691-1.636-.691-2.617v-6.325c0-.981.23-1.635.691-1.853.461-.328 1.152-.219 1.958.327a5.192 5.192 0 0 1 1.958 1.853c.46.764.691 1.636.691 2.618v6.324c0 .982-.231 1.636-.691 1.854-.461.327-1.152.218-1.958-.327a5.187 5.187 0 0 1-1.958-1.854Zm2.879-.545v-6.543c0-.763-.345-1.308-.921-1.636-.576-.327-.921-.109-.921.655v6.543c0 .763.345 1.308.921 1.635.576.436.921.109.921-.654Zm5.183-93.781c-.461-.763-.691-1.635-.691-2.617v-6.325c0-.981.23-1.635.691-1.853.461-.328 1.152-.219 1.958.327a5.177 5.177 0 0 1 1.957 1.854c.461.763.691 1.635.691 2.617v6.324c0 .982-.23 1.636-.691 1.854-.46.327-1.151.218-1.957-.327-.922-.545-1.497-1.09-1.958-1.854Zm2.879-.654v-6.543c0-.763-.346-1.308-.921-1.636-.576-.327-.922-.109-.922.655v6.543c0 .763.346 1.308.922 1.635.575.436.921.218.921-.654Zm-2.88 17.12c-.46-.763-.691-1.635-.691-2.617v-6.325c0-.981.231-1.635.691-1.853.461-.327 1.152-.218 1.958.327s1.497 1.09 1.958 1.854c.461.763.691 1.635.691 2.617v6.324c0 .982-.23 1.636-.691 1.854-.461.327-1.152.218-1.958-.327s-1.497-1.09-1.958-1.854Zm2.879-.654v-6.543c0-.763-.345-1.308-.921-1.635-.576-.328-.921-.11-.921.654v6.543c0 .763.345 1.308.921 1.635.576.437.921.218.921-.654Zm-2.879 17.12c-.46-.763-.691-1.635-.691-2.617v-6.324c0-.982.231-1.636.691-1.854.461-.327 1.152-.218 1.958.327a5.187 5.187 0 0 1 1.958 1.854c.461.763.691 1.635.691 2.617v6.325c0 .981-.23 1.635-.691 1.853-.461.327-1.152.218-1.958-.327-.921-.545-1.497-1.09-1.958-1.854Zm2.879-.654v-6.543c0-.763-.345-1.308-.921-1.635-.576-.328-.921-.109-.921.654v6.543c0 .763.345 1.308.921 1.635.576.437.921.219.921-.654Zm-1.036 9.487-1.843-.981v-1.309l1.152.546c.345.109.576 0 .691-.109.23-.109.345-.327.46-.655l1.152.655v12.104l-1.727-.981v-9.27h.115Zm0 16.467-1.843-.982v-1.308l1.152.545c.345.109.576 0 .691-.109.23-.109.345-.327.46-.654l1.152.654v12.104l-1.727-.981v-9.269h.115Zm0 16.466-1.843-.982v-1.308l1.152.545c.345.109.576 0 .691-.109.23-.109.345-.327.46-.654l1.152.654v12.104l-1.727-.981v-9.269h.115Zm-1.843 23.991c-.46-.764-.691-1.636-.691-2.618v-6.324c0-.982.231-1.636.691-1.854.461-.327 1.152-.218 1.958.327a5.187 5.187 0 0 1 1.958 1.854c.461.763.691 1.635.691 2.617v6.325c0 .981-.23 1.635-.691 1.853-.461.328-1.152.219-1.958-.327-.921-.436-1.497-.981-1.958-1.853Zm2.879-.546v-6.543c0-.763-.345-1.308-.921-1.635-.576-.327-.921-.109-.921.654v6.543c0 .763.345 1.308.921 1.636.576.436.921.218.921-.655Zm7.025-101.306-1.842-.981v-1.309l1.152.546c.345.109.575 0 .69-.109.231-.109.346-.327.461-.655l1.152.655v12.104l-1.728-.981v-9.27h.115Zm0 16.467-1.842-.982v-1.417l1.152.545c.345.109.575 0 .69-.109.231-.109.346-.327.461-.654l1.152.654v12.104l-1.728-.981v-9.16h.115Zm0 16.466-1.842-.982v-1.308l1.152.545c.345.109.575 0 .69-.109.231-.109.346-.327.461-.654l1.152.654v12.104l-1.728-.981v-9.269h.115Zm-1.842 23.991c-.461-.764-.691-1.636-.691-2.618v-6.324c0-.982.23-1.636.691-1.854.46-.327 1.151-.218 1.957.327a5.173 5.173 0 0 1 1.958 1.854c.461.763.691 1.636.691 2.617v6.325c0 .981-.23 1.635-.691 1.853-.46.328-1.151.219-1.958-.327-.921-.436-1.497-1.09-1.957-1.853Zm2.764-.546v-6.543c0-.763-.346-1.308-.922-1.635-.576-.327-.921-.109-.921.654v6.543c0 .763.345 1.308.921 1.636.691.327.922.109.922-.655Zm-2.764 17.012c-.461-.764-.691-1.636-.691-2.618v-6.324c0-.982.23-1.636.691-1.854.46-.327 1.151-.218 1.957.327a5.18 5.18 0 0 1 1.958 1.854c.461.763.691 1.636.691 2.617v6.325c0 .981-.23 1.635-.691 1.854-.46.327-1.151.218-1.958-.328-.806-.545-1.497-1.09-1.957-1.853Zm2.764-.546v-6.542c0-.764-.346-1.309-.922-1.636-.576-.327-.921-.109-.921.654v6.543c0 .763.345 1.308.921 1.636.691.327.922.109.922-.655Zm-2.764 17.012c-.461-.763-.691-1.636-.691-2.617v-6.325c0-.981.23-1.636.691-1.854.46-.327 1.151-.218 1.957.327a5.188 5.188 0 0 1 1.958 1.854c.461.763.691 1.636.691 2.617v6.325c0 .981-.23 1.636-.691 1.854-.46.327-1.151.218-1.958-.327-.921-.436-1.497-1.091-1.957-1.854Zm2.764-.545v-6.543c0-.764-.346-1.309-.922-1.636-.576-.327-.921-.109-.921.654v6.543c0 .764.345 1.309.921 1.636.691.327.922.109.922-.654Zm-.922 9.378-1.842-.982v-1.308l1.152.545c.345.109.575 0 .69-.109.231-.109.346-.327.461-.654l1.152.654v12.104l-1.728-.981v-9.269h.115Z"/>
    <path fill="url(#f)" d="M153.447 71.097c-12.504-6.765-22.775-1.268-22.775 12.263v187.954c0 13.531 10.271 30.234 22.775 37.211l119.902 65.963c12.503 6.766 22.774 1.269 22.774-12.262V174.271c0-13.531-10.271-30.233-22.774-37.21L153.447 71.097Z" opacity=".8"/>
    <path fill="url(#g)" d="M534.069 223.163c-9.371-5.055-17.069-.948-17.069 9.162v140.427c0 10.109 7.698 22.588 17.069 27.801l89.862 49.284c9.371 5.055 17.069.948 17.069-9.162V300.248c0-10.109-7.698-22.588-17.069-27.801l-89.862-49.284Z" opacity=".8"/>
    <path fill="#EBDEF3" d="m222.664 142.134 9.825 5.497v-4.651l-9.825-5.497v4.651Zm6.698 37.423-16.076-8.88v4.44l16.076 8.88v-4.44Zm-.892-24.314v-4.652l-18.086-9.725v4.651l18.086 9.726Zm-18.979 3.594v4.651l9.154 5.075v-4.652l-9.154-5.074Zm-13.844 6.977v-4.651l-14.959-8.034v4.651l14.959 8.034Zm34.162 4.44-6.252-3.594v4.44l6.252 3.594v-4.44Zm-11.834-15.857v4.44l7.591 4.017v-4.44l-7.591-4.017Zm19.202-8.879v4.651l4.243 2.326v-4.652l-4.243-2.325ZM213.063 156.3v-4.651l-15.407-8.246v4.44l15.407 8.457Zm20.318-3.171v4.651l16.3 8.88v-4.44l-16.3-9.091Zm-28.58 7.822V156.3l-19.425-10.36v4.651l19.425 10.36Zm-14.736-41.015v4.44l15.183 8.245v-4.439l-15.183-8.246Zm27.687 15.01-7.815-4.228v4.651l7.815 4.228v-4.651Zm-9.378 33.194-8.038-4.44v4.651l8.038 4.228v-4.439Zm37.065 15.01 20.766 11.629v-4.652l-20.766-11.417v4.44Zm-69.663-32.558-7.369-4.017v4.651l7.369 3.806v-4.44Zm-22.329-49.896v4.652l32.599 17.548v-4.44l-32.599-17.76Zm96.904 75.689 7.591 4.228v-4.439l-7.591-4.229v4.44Zm4.242-6.977 21.435 11.84v-4.44l-21.435-12.051v4.651Zm-24.337-3.806 15.183 8.246v-4.651l-15.183-8.246v4.651Zm15.853-15.01v4.44l17.416 9.302v-4.44l-17.416-9.302Zm-65.645-7.189-12.057-6.343v4.652l12.057 6.342v-4.651Zm60.285 32.771-6.028-3.382v4.651l6.028 3.171v-4.44Zm-48.004-35.519-24.338-13.108v4.651l24.338 13.108v-4.651Zm41.083 54.97 13.174 7.188v-4.651l-13.174-7.189v4.652Zm-28.133-57.295-37.288-20.086v4.44l37.288 20.085v-4.439Zm16.969 143.978 9.825 5.286v-4.44l-9.825-5.497v4.651Zm6.699 37.211-16.077-8.668v4.439l16.077 8.88v-4.651Zm-.893-24.314v-4.44l-18.086-9.725v4.439l18.086 9.726Zm-18.979 3.805v4.652l9.154 5.074v-4.652l-9.154-5.074Zm-13.844 6.766v-4.44l-14.959-8.034v4.44l14.959 8.034Zm34.162 4.44-6.252-3.594v4.651l6.252 3.595v-4.652Zm-11.834-15.857v4.651l7.592 4.017v-4.439l-7.592-4.229Zm19.203-8.668v4.651l4.242 2.114v-4.44l-4.242-2.325Zm-24.115 10.783v-4.652l-15.406-8.457v4.652l15.406 8.457Zm20.318-3.172v4.651l16.3 8.88v-4.44l-16.3-9.091Zm-28.579 7.612v-4.44l-19.426-10.36v4.651l19.426 10.149Zm-14.737-40.805v4.44l15.184 8.245v-4.439l-15.184-8.246Zm27.687 15.011-7.815-4.228v4.651l7.815 4.017v-4.44Zm-9.378 32.982-8.038-4.228v4.44l8.038 4.44v-4.652Zm37.066 15.222 20.765 11.417v-4.44l-20.765-11.417v4.44Zm-69.664-32.559-7.369-4.017v4.44l7.369 4.017v-4.44Zm-22.329-49.896v4.652l32.599 17.548v-4.652l-32.599-17.548Zm96.904 75.69 7.592 4.228v-4.651l-7.592-4.229v4.652Zm4.242-6.977 21.435 11.839v-4.651l-21.435-11.84v4.652Zm-24.337-3.806 15.183 8.246v-4.652l-15.183-8.245v4.651Zm15.853-15.222v4.651l17.416 9.303v-4.652l-17.416-9.302Zm-65.645-6.977-12.057-6.343v4.44l12.057 6.554v-4.651Zm60.285 32.559-6.028-3.171v4.439l6.028 3.383v-4.651Zm-48.004-35.308-24.338-13.108v4.651l24.338 13.108v-4.651Zm12.95-2.325-37.288-20.297v4.651l37.288 20.085v-4.439Zm23.668-61.313-16.077-8.879v4.439l16.077 8.88v-4.44Zm-.893-24.314v-4.651l-18.086-9.725v4.651l18.086 9.725Zm-18.98 3.594v4.652l9.155 5.074v-4.652l-9.155-5.074Zm-13.843 6.766v-4.44l-14.96-8.034v4.651l14.96 7.823Zm34.162 4.651-6.252-3.594v4.44l6.252 3.594v-4.44Zm-11.834-16.068v4.652l7.592 4.017v-4.44l-7.592-4.229Zm-4.912 2.114v-4.651l-15.406-8.246v4.44l15.406 8.457Zm-8.261 4.652v-4.651l-19.426-10.36v4.651l19.426 10.36Zm3.572 6.977-8.038-4.229v4.652l8.038 4.228v-4.651Zm37.064 15.223 20.765 11.628v-4.651l-20.765-11.417v4.44Zm-69.663-32.56-7.369-4.017v4.44l7.369 4.017v-4.44Zm74.576 25.794 7.592 4.228v-4.439l-7.592-4.44v4.651Zm-20.095-10.783 15.183 8.245v-4.651l-15.183-8.245v4.651Zm-49.793-22.199-12.057-6.343v4.651l12.057 6.343v-4.651Zm60.286 32.77-6.028-3.382v4.651l6.028 3.171v-4.44Zm-48.005-35.519-24.338-13.108v4.651l24.338 13.108v-4.651Zm9.378 37.634v-4.44l-15.63-8.457v4.651l15.63 8.246Zm37.065 20.085 7.815 4.44v-4.652l-7.815-4.228v4.44Zm-19.872-10.783 15.183 8.246v-4.44l-15.183-8.246v4.44Zm-37.511-24.737-24.338-13.108v4.44l24.338 13.108v-4.44Zm23.89-24.524-37.288-20.086v4.44l37.288 20.085v-4.439Zm23.668 87.741-16.076-8.88v4.651l16.076 8.88v-4.651Zm-.892-24.314v-4.44l-18.086-9.725v4.439l18.086 9.726Zm-18.979 3.805v4.44l9.154 5.074v-4.44l-9.154-5.074Zm-13.844 6.766v-4.652l-14.959-7.822v4.44l14.959 8.034Zm34.162 4.439-6.252-3.594v4.651l6.252 3.595V254.4Zm-11.834-15.856v4.651l7.591 4.018v-4.652l-7.591-4.017Zm-4.912 1.903v-4.44l-15.407-8.457v4.651l15.407 8.246Zm-8.262 4.651v-4.44l-19.425-10.36v4.44l19.425 10.36Zm3.573 7.189-8.038-4.229v4.44l8.038 4.44v-4.651Zm37.065 15.222 20.766 11.417v-4.652l-20.766-11.416v4.651Zm-69.663-32.771-7.369-4.017v4.651l7.369 4.017v-4.651Zm74.575 26.005 7.591 4.229v-4.652l-7.591-4.228v4.651Zm-20.095-10.994 15.183 8.246v-4.44l-15.183-8.245v4.439Zm-49.792-21.988-12.057-6.343v4.44l12.057 6.343v-4.44Zm60.285 32.559-6.028-3.172v4.44l6.028 3.383v-4.651Zm-48.004-35.308-24.338-13.108v4.44l24.338 13.108v-4.44Zm14.066 35.52v4.651l7.592 4.017v-4.44l-7.592-4.228Zm-4.689 2.114v-4.651l-15.63-8.246v4.44l15.63 8.457Zm37.065 20.086 7.815 4.228v-4.651l-7.815-4.229v4.652Zm-19.872-10.783 15.183 8.245v-4.651l-15.183-8.246v4.652Zm-37.511-24.948-13.844-7.4v4.44l13.844 7.611v-4.651Zm23.891-24.525-37.288-20.085v4.651l37.288 20.085v-4.651Z"/>
    <defs>
        <linearGradient id="a" x1="300.555" x2="300.555" y1="403.08" y2="601.744" gradientUnits="userSpaceOnUse">
            <stop stop-color="silver"/>
            <stop offset="1" stop-color="silver" stop-opacity="0"/>
        </linearGradient>
        <linearGradient id="b" x1="302.686" x2="302.686" y1="272.626" y2="559.965" gradientUnits="userSpaceOnUse">
            <stop stop-color="#11A761"/>
            <stop offset="1" stop-color="#032012"/>
        </linearGradient>
        <linearGradient id="c" x1="257.761" x2="322.9" y1="376.388" y2="484.347" gradientUnits="userSpaceOnUse">
            <stop offset=".056" stop-color="#9F79B8"/>
            <stop offset=".25" stop-color="#A17BBA"/>
            <stop offset=".346" stop-color="#A883C0"/>
            <stop offset=".42" stop-color="#B490CC"/>
            <stop offset=".484" stop-color="#C5A3DC"/>
            <stop offset=".539" stop-color="#DBBBF0"/>
            <stop offset=".561" stop-color="#E6C6FA"/>
            <stop offset=".597" stop-color="#D6B6F1"/>
            <stop offset=".687" stop-color="#B595DD"/>
            <stop offset=".773" stop-color="#9D7DCF"/>
            <stop offset=".853" stop-color="#8E6EC6"/>
            <stop offset=".919" stop-color="#8969C3"/>
        </linearGradient>
        <linearGradient id="d" x1="259.531" x2="389.076" y1="303.238" y2="517.94" gradientUnits="userSpaceOnUse">
            <stop stop-color="#311B61"/>
            <stop offset=".203" stop-color="#290F52"/>
            <stop offset=".495" stop-color="#200041"/>
            <stop offset="1" stop-color="#0F001F"/>
        </linearGradient>
        <linearGradient id="f" x1="213.398" x2="213.398" y1="68.202" y2="377.384" gradientUnits="userSpaceOnUse">
            <stop stop-color="#1B935B"/>
            <stop offset="1" stop-color="#033D22"/>
        </linearGradient>
        <linearGradient id="g" x1="579" x2="579" y1="221" y2="452" gradientUnits="userSpaceOnUse">
            <stop stop-color="#1B935B"/>
            <stop offset="1" stop-color="#033D22"/>
        </linearGradient>
        <radialGradient id="e" cx="0" cy="0" r="1" gradientTransform="translate(398.679 211.875) scale(42.0283)" gradientUnits="userSpaceOnUse">
            <stop stop-color="#fff"/>
            <stop offset="1"/>
        </radialGradient>
    </defs>
</svg>
