<svg width="532" height="536" viewBox="0 0 532 536" fill="none" xmlns="http://www.w3.org/2000/svg">
<path d="M16.8338 208.12C16.8338 208.12 -4.97303 301.277 55.7227 382.512C116.418 463.748 222.167 495.261 307.228 523.092C392.29 550.922 471.87 518.798 501.731 447.256C531.592 375.715 471.274 337.2 457.972 243.767C444.67 150.334 455.282 123.435 393.235 52.2862C331.187 -18.8623 203.835 -17.1447 117.741 55.8815C31.6479 128.908 16.8338 208.12 16.8338 208.12Z" fill="#1ABF72"/>
<path d="M496.716 278.761C496.716 278.761 496.716 272.677 488.197 264.206C479.677 255.734 474.226 250.814 474.226 250.814C474.226 250.814 469.966 264.803 477.86 273.332C483.692 279.327 490.014 284.824 496.759 289.766L496.716 278.761Z" fill="#2ECC82"/>
<path d="M484.36 316.779C484.36 316.779 484.36 310.695 475.856 302.223C467.351 293.752 461.87 288.832 461.87 288.832C461.87 288.832 457.611 302.733 465.519 311.306C471.349 317.303 477.671 322.8 484.418 327.739L484.36 316.779Z" fill="#2ECC82"/>
<path d="M496.179 289.139C496.179 289.139 496.819 283.083 506.181 275.5C515.544 267.916 521.577 263.666 521.577 263.666C521.577 263.666 524.325 278.047 515.573 285.674C509.163 291.024 502.316 295.825 495.104 300.026L496.179 289.139Z" fill="#2ECC82"/>
<path d="M481.262 334.03C481.262 334.03 482.527 328.077 492.631 321.527C502.735 314.977 509.117 311.338 509.117 311.338C509.117 311.338 510.338 325.894 500.83 332.604C493.91 337.24 486.616 341.291 479.023 344.714L481.262 334.03Z" fill="#2ECC82"/>
<path d="M484.066 382.982C484.066 382.982 484.066 376.898 492.571 368.426C501.075 359.955 506.556 355.035 506.556 355.035C506.556 355.035 510.816 369.038 502.907 377.567C497.074 383.561 490.752 389.057 484.008 394.001L484.066 382.982Z" fill="#2ECC82"/>
<path d="M483.923 394.93C483.923 394.93 484.781 388.904 477.57 379.254C470.359 369.603 465.634 364.014 465.634 364.014C465.634 364.014 459.427 377.259 466.041 386.822C470.946 393.575 476.407 399.905 482.368 405.745L483.923 394.93Z" fill="#2ECC82"/>
<path d="M475.535 430.33C475.535 430.33 475.535 424.246 484.039 415.774C492.544 407.303 498.025 402.383 498.025 402.383C498.025 402.383 502.284 416.385 494.376 424.901C488.547 430.898 482.225 436.396 475.477 441.334L475.535 430.33Z" fill="#2ECC82"/>
<path d="M481.204 462.441C481.204 462.441 479.677 456.545 485.754 446.153C491.831 435.76 495.931 429.646 495.931 429.646C495.931 429.646 503.592 442.106 498.097 452.368C493.995 459.641 489.287 466.556 484.024 473.037L481.204 462.441Z" fill="#2ECC82"/>
<path d="M497.489 277.203C497.059 283.548 496.283 289.865 495.162 296.126C491.79 313.52 483.387 324.757 480.014 340.477C476.641 356.197 486.309 376.444 483.721 396.648C481.133 416.851 473.283 428.059 475.536 441.537C477.79 455.016 489.594 491.493 489.594 491.493" stroke="#263238" stroke-width="0.5" stroke-linecap="round" stroke-linejoin="round"/>
<path d="M496.105 293.172L505.279 286.127" stroke="#263238" stroke-width="0.5" stroke-linecap="round" stroke-linejoin="round"/>
<path d="M496.527 285.064L492.689 278.223" stroke="#263238" stroke-width="0.5" stroke-linecap="round" stroke-linejoin="round"/>
<path d="M480.52 339.735C480.52 339.735 488.196 333.913 496.09 328.207" stroke="#263238" stroke-width="0.5" stroke-linecap="round" stroke-linejoin="round"/>
<path d="M484.356 327.743C484.356 327.743 477.959 315.181 470.705 306.855" stroke="#263238" stroke-width="0.5" stroke-linecap="round" stroke-linejoin="round"/>
<path d="M484.357 391.643C488.745 383.57 494.279 376.177 500.785 369.693" stroke="#263238" stroke-width="0.5" stroke-linecap="round" stroke-linejoin="round"/>
<path d="M482.875 400.26C480.538 394.77 477.752 389.483 474.545 384.452C470.067 377.83 469.428 376.971 469.428 376.971" stroke="#263238" stroke-width="0.5" stroke-linecap="round" stroke-linejoin="round"/>
<path d="M475.535 441.523C477.474 436.684 479.782 432.003 482.441 427.52C485.098 423.361 488.098 419.431 491.411 415.773" stroke="#263238" stroke-width="0.5" stroke-linecap="round" stroke-linejoin="round"/>
<path d="M483.98 473.037C483.534 468.42 484.327 463.767 486.277 459.559C489.475 453.358 493.11 445.25 494.607 442.092" stroke="#263238" stroke-width="0.5" stroke-linecap="round" stroke-linejoin="round"/>
<path d="M440.978 360.086C440.978 360.086 440.323 356.272 444.728 349.998C449.133 343.725 451.997 340.086 451.997 340.086C451.997 340.086 456.184 348.397 452.157 354.642C449.168 359.037 445.812 363.171 442.126 366.999L440.978 360.086Z" fill="#2ECC82"/>
<path d="M452.841 382.588C452.841 382.588 452.187 378.76 456.606 372.501C461.026 366.242 463.875 362.574 463.875 362.574C463.875 362.574 468.062 370.9 464.02 377.13C461.027 381.522 457.671 385.656 453.989 389.488L452.841 382.588Z" fill="#2ECC82"/>
<path d="M442.431 366.531C442.431 366.531 441.384 362.805 434.682 359.064C427.98 355.323 423.793 353.314 423.793 353.314C423.793 353.314 423.633 362.63 429.943 366.415C434.548 369.074 439.367 371.343 444.35 373.198L442.431 366.531Z" fill="#2ECC82"/>
<path d="M456.664 393.068C456.664 393.068 455.21 389.473 448.174 386.46C441.137 383.447 436.732 381.875 436.732 381.875C436.732 381.875 437.547 391.162 444.234 394.306C449.089 396.467 454.118 398.215 459.266 399.531L456.664 393.068Z" fill="#2ECC82"/>
<path d="M460.211 424.058C460.211 424.058 459.557 420.244 453.291 415.82C447.025 411.395 443.114 408.949 443.114 408.949C443.114 408.949 441.966 418.192 447.839 422.675C452.138 425.801 456.689 428.561 461.447 430.928L460.211 424.058Z" fill="#2ECC82"/>
<path d="M461.594 431.541C461.594 431.541 460.402 427.858 463.876 421.017C467.351 414.176 469.692 410.158 469.692 410.158C469.692 410.158 475.012 417.8 471.901 424.51C469.561 429.288 466.823 433.86 463.716 438.178L461.594 431.541Z" fill="#2ECC82"/>
<path d="M472.276 462.323C472.276 462.323 472.712 458.481 478.717 453.706C484.721 448.932 488.53 446.254 488.53 446.254C488.53 446.254 490.202 455.424 484.59 460.227C480.489 463.598 476.112 466.617 471.506 469.252L472.276 462.323Z" fill="#2ECC82"/>
<path d="M470.693 452.834C470.693 452.834 470.039 449.021 463.773 444.596C457.507 440.171 453.596 437.711 453.596 437.711C453.596 437.711 452.448 446.954 458.336 451.452C462.628 454.579 467.175 457.339 471.929 459.705L470.693 452.834Z" fill="#2ECC82"/>
<path d="M470.69 473.577C470.69 473.577 471.01 469.72 466.067 463.854C461.124 457.988 457.926 454.611 457.926 454.611C457.926 454.611 454.48 463.257 459.031 469.167C462.395 473.281 466.096 477.108 470.094 480.608L470.69 473.577Z" fill="#2ECC82"/>
<path d="M440.324 359.197C441.28 363.141 442.455 367.029 443.842 370.842C447.84 381.38 454.324 387.508 458.148 397.042C461.971 406.576 458.148 420.331 461.899 432.675C465.649 445.018 471.857 451.233 471.915 459.938C471.973 468.642 468.542 492.79 468.542 492.79" stroke="#263238" stroke-width="0.5" stroke-linecap="round" stroke-linejoin="round"/>
<path d="M442.94 369.05L436.412 365.629" stroke="#263238" stroke-width="0.5" stroke-linecap="round" stroke-linejoin="round"/>
<path d="M441.791 364.014L443.448 359.312" stroke="#263238" stroke-width="0.5" stroke-linecap="round" stroke-linejoin="round"/>
<path d="M457.738 396.563C457.738 396.563 452.301 393.783 446.719 391.018" stroke="#263238" stroke-width="0.5" stroke-linecap="round" stroke-linejoin="round"/>
<path d="M454.033 389.458C455.63 384.404 457.739 379.526 460.328 374.902" stroke="#263238" stroke-width="0.5" stroke-linecap="round" stroke-linejoin="round"/>
<path d="M460.967 429.53C457.339 424.934 453.064 420.889 448.275 417.521" stroke="#263238" stroke-width="0.5" stroke-linecap="round" stroke-linejoin="round"/>
<path d="M462.826 434.726C463.69 431.029 464.862 427.411 466.33 423.911C468.423 419.268 468.729 418.656 468.729 418.656" stroke="#263238" stroke-width="0.5" stroke-linecap="round" stroke-linejoin="round"/>
<path d="M471.607 466.44C473.73 463.817 476.074 461.382 478.615 459.162C480.236 457.969 481.758 456.645 483.165 455.203" stroke="#263238" stroke-width="0.5" stroke-linecap="round" stroke-linejoin="round"/>
<path d="M471.913 459.852C470.183 457.029 468.239 454.343 466.098 451.818C463.979 449.503 461.675 447.365 459.207 445.428" stroke="#263238" stroke-width="0.5" stroke-linecap="round" stroke-linejoin="round"/>
<path d="M470.024 480.534C469.807 477.586 468.803 474.751 467.117 472.325C464.442 468.788 461.302 464.086 460.008 462.252" stroke="#263238" stroke-width="0.5" stroke-linecap="round" stroke-linejoin="round"/>
<path d="M451.152 488.48H506.833V530.255C506.833 531.414 506.373 532.524 505.555 533.343C504.737 534.162 503.628 534.622 502.471 534.622H455.572C454.415 534.622 453.306 534.162 452.488 533.343C451.67 532.524 451.211 531.414 451.211 530.255V488.48H451.152Z" fill="#263238"/>
<path d="M506.338 495.757H451.094C449.937 495.757 448.828 495.297 448.01 494.478C447.192 493.659 446.732 492.548 446.732 491.39C446.732 490.232 447.192 489.121 448.01 488.302C448.828 487.484 449.937 487.023 451.094 487.023H506.338C507.495 487.023 508.604 487.484 509.422 488.302C510.24 489.121 510.699 490.232 510.699 491.39C510.699 492.548 510.24 493.659 509.422 494.478C508.604 495.297 507.495 495.757 506.338 495.757Z" fill="#263238"/>
<path d="M400.433 107.192C427.732 107.192 449.862 85.0347 449.862 57.7024C449.862 30.3701 427.732 8.21289 400.433 8.21289C373.134 8.21289 351.004 30.3701 351.004 57.7024C351.004 85.0347 373.134 107.192 400.433 107.192Z" fill="#263238"/>
<path d="M416.557 97.4766C438.498 88.5652 449.07 63.5324 440.169 41.5643C431.269 19.5962 406.267 9.01169 384.326 17.9231C362.385 26.8345 351.813 51.8673 360.713 73.8353C369.614 95.8034 394.616 106.388 416.557 97.4766Z" fill="white"/>
<path d="M372.621 65.606L400.432 57.7022V18.7656" stroke="#263238" stroke-width="2" stroke-miterlimit="10"/>
<path d="M160.599 278.964H106.344L35.2969 88.0508H89.5523L160.599 278.964Z" fill="#263238"/>
<path opacity="0.2" d="M160.599 278.964H106.344L35.2969 88.0508H89.5523L160.599 278.964Z" fill="white"/>
<path d="M75.0602 134.689H61.1038C60.1522 134.632 59.2365 134.304 58.4641 133.745C57.6916 133.186 57.0944 132.417 56.7424 131.53L51.3489 117.047C51.1617 116.716 51.0677 116.34 51.0768 115.959C51.0858 115.578 51.1976 115.207 51.4003 114.884C51.603 114.562 51.889 114.301 52.228 114.128C52.5671 113.955 52.9465 113.878 53.326 113.903H67.2824C68.2314 113.962 69.1444 114.289 69.9161 114.845C70.6877 115.402 71.2866 116.165 71.6438 117.047L77.0373 131.53C77.677 133.277 76.8047 134.689 75.0602 134.689Z" fill="#263238"/>
<path d="M93.1577 97.7012H38.8877L35.2969 88.0508H89.5523L93.1577 97.7012Z" fill="#263238"/>
<path d="M57.4258 99.2715L58.9813 103.464" stroke="#263238" stroke-linecap="round" stroke-linejoin="round"/>
<path d="M59.5176 99.2715L61.0731 103.464" stroke="#263238" stroke-linecap="round" stroke-linejoin="round"/>
<path d="M61.6113 99.2715L63.1669 103.464" stroke="#263238" stroke-linecap="round" stroke-linejoin="round"/>
<path d="M63.7012 99.2715L65.2567 103.464" stroke="#263238" stroke-linecap="round" stroke-linejoin="round"/>
<path d="M65.7988 99.2715L67.3544 103.464" stroke="#263238" stroke-linecap="round" stroke-linejoin="round"/>
<path d="M67.877 99.2715L69.447 103.464" stroke="#263238" stroke-linecap="round" stroke-linejoin="round"/>
<path d="M69.9688 99.2715L71.5243 103.464" stroke="#263238" stroke-linecap="round" stroke-linejoin="round"/>
<path d="M72.0625 99.2715L73.6181 103.464" stroke="#263238" stroke-linecap="round" stroke-linejoin="round"/>
<path d="M74.1562 99.2715L75.7118 103.464" stroke="#263238" stroke-linecap="round" stroke-linejoin="round"/>
<path d="M76.252 99.2715L77.8075 103.464" stroke="#263238" stroke-linecap="round" stroke-linejoin="round"/>
<path d="M70.5354 125.604L57.4513 117.263C57.3294 117.167 57.1825 117.107 57.0279 117.092C56.8734 117.076 56.7176 117.106 56.5791 117.176C56.4676 117.26 56.3921 117.384 56.3678 117.521C56.3435 117.659 56.3722 117.801 56.4482 117.918L62.4669 130.916C62.5458 131.081 62.6595 131.226 62.8001 131.341C62.9407 131.457 63.1048 131.54 63.281 131.586H63.4846C63.5926 131.594 63.7003 131.566 63.79 131.505C63.8798 131.444 63.9463 131.355 63.9789 131.251L65.4326 126.972H70.6663C70.7341 126.978 70.8025 126.97 70.8668 126.948C70.9312 126.925 70.9901 126.89 71.0396 126.843C71.0891 126.796 71.1281 126.739 71.154 126.676C71.1798 126.613 71.192 126.545 71.1897 126.477C71.1614 126.289 71.0869 126.11 70.9727 125.958C70.8585 125.805 70.7082 125.684 70.5354 125.604Z" fill="white"/>
<path d="M70.2742 126.184L57.1465 117.844L63.1652 130.842L64.648 126.242L70.2742 126.184Z" fill="#263238"/>
<path d="M94.8454 126.184L81.7031 117.844L87.7218 130.842L89.2192 126.242L94.8454 126.184Z" fill="white"/>
<path d="M101.575 133.583L100.383 130.904L98.8418 133.16L101.575 133.583Z" fill="white"/>
<path d="M133.327 218.891L132.135 216.213L130.594 218.469L133.327 218.891Z" fill="white"/>
<path d="M143.065 245.079L141.873 242.4L140.332 244.657L143.065 245.079Z" fill="white"/>
<path d="M153.055 271.934L151.877 269.256L150.336 271.512L153.055 271.934Z" fill="white"/>
<path d="M97.0975 188.661L95.9199 185.982L94.3789 188.239L97.0975 188.661Z" fill="white"/>
<path d="M108.35 218.891L107.173 216.213L105.617 218.469L108.35 218.891Z" fill="white"/>
<path d="M118.09 245.079L116.912 242.4L115.371 244.657L118.09 245.079Z" fill="white"/>
<path d="M128.092 271.934L126.9 269.256L125.359 271.512L128.092 271.934Z" fill="white"/>
<path d="M70.5371 162.298L72.8196 163.783L79.0999 150.654L76.8175 149.184L70.5371 162.298Z" fill="white"/>
<path d="M73.3558 149.459C70.0266 146.869 69.794 146.345 70.6081 143.404C68.8927 145.762 68.3838 145.806 64.793 143.885C68.1221 146.49 68.3548 147.014 67.5406 149.954C69.198 147.596 69.7068 147.553 73.3558 149.459Z" fill="white"/>
<path d="M84.3189 150.874C82.2691 149.272 82.1237 148.952 82.618 147.133C81.5567 148.588 81.2514 148.588 78.998 147.438C81.0479 149.04 81.1933 149.36 80.6844 151.179C81.7457 149.724 82.0655 149.695 84.3189 150.874Z" fill="white"/>
<path d="M83.6948 157.045C82.241 155.895 82.1247 155.676 82.4881 154.381C81.7322 155.414 81.4996 155.429 79.9004 154.585C81.3542 155.735 81.4559 155.967 81.107 157.263C81.863 156.215 82.0811 156.2 83.6948 157.045Z" fill="white"/>
<path d="M116.635 215.225L118.059 216.215L124.325 203.1L122.915 202.096L116.635 215.225Z" fill="white"/>
<path d="M111.386 158.922L99.7852 151.557L105.106 163.041L106.414 158.98L111.386 158.922Z" fill="white"/>
<path d="M102.651 159.606C98.4056 159.606 94.0152 157.088 92.8667 154.002C91.7182 150.916 94.2478 148.441 98.5219 148.441C102.796 148.441 107.157 150.96 108.306 154.031C109.454 157.102 106.91 159.606 102.651 159.606ZM98.74 149.082C94.8583 149.082 92.5323 151.294 93.5354 154.002C94.5385 156.709 98.5219 158.922 102.404 158.922C106.285 158.922 108.626 156.724 107.608 154.002C106.59 151.28 102.622 149.082 98.74 149.082Z" fill="white"/>
<path d="M97.548 158.486C96.9792 158.445 96.4335 158.244 95.9733 157.907C95.5131 157.569 95.157 157.109 94.9457 156.579C94.8329 156.378 94.7762 156.151 94.7816 155.921C94.787 155.691 94.8542 155.466 94.9762 155.271C95.0982 155.076 95.2704 154.917 95.4749 154.812C95.6793 154.707 95.9083 154.658 96.1378 154.672C96.7066 154.714 97.2523 154.914 97.7124 155.252C98.1726 155.589 98.5287 156.049 98.7401 156.579C98.8529 156.78 98.9096 157.007 98.9042 157.237C98.8988 157.467 98.8316 157.692 98.7096 157.887C98.5876 158.082 98.4153 158.241 98.2109 158.346C98.0065 158.451 97.7775 158.5 97.548 158.486ZM96.3849 155.356C96.2366 155.344 96.0877 155.373 95.9545 155.439C95.8212 155.506 95.7088 155.608 95.6294 155.734C95.5499 155.86 95.5065 156.005 95.5039 156.154C95.5013 156.303 95.5395 156.45 95.6144 156.579C95.749 156.924 95.9791 157.224 96.2778 157.443C96.5765 157.662 96.9314 157.792 97.3008 157.816C97.9696 157.816 98.3185 157.263 98.0713 156.579C97.9317 156.238 97.6998 155.943 97.4019 155.727C97.104 155.511 96.7518 155.383 96.3849 155.356Z" fill="white"/>
<path d="M97.7348 160.479L97.2695 159.838C97.6108 159.751 97.9198 159.568 98.1596 159.31C98.3994 159.052 98.5598 158.73 98.6216 158.383C98.6406 157.8 98.4668 157.227 98.1273 156.752L98.6797 156.52C99.1273 157.147 99.3571 157.903 99.3339 158.674C99.267 159.096 99.0809 159.49 98.7976 159.81C98.5142 160.13 98.1455 160.362 97.7348 160.479Z" fill="white"/>
<path d="M90.4704 179.402L82.3873 173.492L80.6719 176.229L88.7549 182.138L90.4704 179.402Z" fill="white"/>
<path d="M77.4999 187.043L78.8228 188.004L81.7304 183.288C81.5737 183.153 81.4639 182.972 81.4168 182.77C81.3698 182.569 81.388 182.358 81.4687 182.167C81.6868 181.803 82.2829 181.803 82.7771 182.167C82.9999 182.293 83.1714 182.493 83.2617 182.733C83.3521 182.972 83.3555 183.236 83.2714 183.477C83.1423 183.626 82.9646 183.723 82.7702 183.753C82.5758 183.782 82.3773 183.741 82.2102 183.637L79.3026 188.353L80.5383 189.256L87.8073 187.189L88.2579 182.822L80.2766 177L76.7148 179.009L77.4999 187.043Z" fill="white"/>
<path d="M69.8535 168.516H116.564" stroke="#263238" stroke-linecap="round" stroke-linejoin="round"/>
<path d="M110.486 173.492L108.756 176.229L116.853 182.138L118.569 179.402L110.486 173.492Z" fill="white"/>
<path d="M104.744 179.008L105.602 187.028L106.925 187.989L109.832 183.272C109.676 183.138 109.566 182.956 109.519 182.755C109.472 182.553 109.49 182.342 109.571 182.152C109.789 181.788 110.385 181.788 110.879 182.152C111.102 182.277 111.273 182.477 111.364 182.717C111.454 182.956 111.457 183.22 111.373 183.462C111.244 183.61 111.067 183.708 110.872 183.737C110.678 183.766 110.479 183.725 110.312 183.622L107.405 188.338L108.64 189.24L115.909 187.173L116.36 182.807L108.379 176.984L104.744 179.008Z" fill="white"/>
<path d="M102.739 181.383C102.826 180.815 102.899 180.204 102.957 179.519C103.023 178.864 102.955 178.203 102.757 177.575C102.56 176.947 102.237 176.365 101.808 175.866C100.861 174.807 99.63 174.044 98.2612 173.668C98.0431 173.668 97.8686 173.668 97.8977 173.93C97.9189 174.041 97.9711 174.144 98.0483 174.226C98.1255 174.309 98.2245 174.367 98.3338 174.396C99.4459 174.721 100.45 175.339 101.241 176.186C101.587 176.602 101.847 177.082 102.004 177.6C102.161 178.117 102.214 178.661 102.157 179.199C102.157 179.869 102.012 180.48 101.939 181.033C101.547 183.944 101.314 185.691 106.141 188.588C106.217 188.643 106.308 188.673 106.402 188.675C106.453 188.677 106.504 188.665 106.548 188.639C106.592 188.613 106.627 188.575 106.65 188.529C106.667 188.422 106.65 188.311 106.6 188.215C106.55 188.118 106.471 188.039 106.373 187.991C102.201 185.473 102.361 184.279 102.739 181.383Z" fill="white"/>
<path d="M82.0645 200.845L82.3552 201.602C82.7689 202.771 83.2544 203.914 83.809 205.023L85.161 204.688C84.7831 203.931 84.4482 203.154 84.1579 202.359H89.9731L94.7997 215.343H92.6335L93.2005 216.798H99.0156L98.4487 215.343H96.2971L91.4414 202.301H97.0676L98.0707 205.037H99.5972L98.3033 201.544L98.0125 200.787L82.0645 200.845Z" fill="white"/>
<path opacity="0.44" d="M112.42 236.824C113.67 240.172 110.966 242.879 106.314 242.879C101.662 242.879 96.9517 240.172 95.7159 236.824C94.4802 233.476 97.1697 230.783 101.822 230.783C106.474 230.783 111.184 233.491 112.42 236.824Z" fill="white"/>
<path d="M112.42 236.824C113.67 240.172 110.966 242.879 106.314 242.879C101.662 242.879 96.9517 240.172 95.7159 236.824C94.4802 233.476 97.1697 230.783 101.822 230.783C106.474 230.783 111.184 233.491 112.42 236.824Z" stroke="white" stroke-miterlimit="10"/>
<path d="M129.619 237L135.1 227.029C135.18 226.918 135.282 226.824 135.4 226.753C135.517 226.683 135.648 226.636 135.783 226.617C135.919 226.598 136.057 226.607 136.19 226.643C136.322 226.678 136.446 226.741 136.554 226.825C136.872 226.959 137.141 227.19 137.321 227.485C137.501 227.781 137.584 228.125 137.557 228.47L134.649 239.489L129.619 237Z" fill="white"/>
<path d="M128.719 237.845C130.871 237.553 135.087 239.402 135.203 242.211C135.184 242.519 135.084 242.816 134.913 243.071C134.742 243.327 134.506 243.533 134.229 243.667C132.307 244.535 130.195 244.896 128.094 244.715C128.365 244.504 128.567 244.216 128.673 243.89C128.78 243.563 128.785 243.211 128.69 242.881C128.4 242.077 128.065 241.289 127.687 240.523C127.294 239.402 127.498 237.903 128.719 237.815" fill="white"/>
<path d="M117.304 259.722C116.852 258.681 116.177 257.752 115.327 257L113.67 259.635C114.65 260.481 115.43 261.535 115.952 262.72C116.43 263.774 116.984 264.791 117.61 265.763L119.223 263.172C118.486 262.079 117.844 260.925 117.304 259.722Z" fill="white"/>
<path d="M115.401 262.763C114.937 261.725 114.258 260.797 113.409 260.041L111.752 262.69C112.734 263.538 113.518 264.591 114.049 265.776C114.52 266.83 115.069 267.847 115.692 268.818L117.32 266.227C116.572 265.136 115.929 263.976 115.401 262.763Z" fill="white"/>
<path d="M117.871 259.674C118.342 260.728 118.891 261.745 119.514 262.716L121.898 258.903L116.563 255.002L115.574 256.574C116.553 257.431 117.336 258.488 117.871 259.674Z" fill="white"/>
<path d="M113.482 265.82C113.03 264.778 112.355 263.849 111.505 263.098L110.051 265.31L110.298 270.332C110.308 270.421 110.337 270.507 110.382 270.585C110.427 270.663 110.488 270.73 110.56 270.783C110.632 270.837 110.715 270.874 110.802 270.894C110.89 270.914 110.98 270.916 111.068 270.9L115.314 269.226C114.607 268.145 113.994 267.005 113.482 265.82ZM111.606 269.255L111.476 266.576L113.903 268.352L111.606 269.255Z" fill="white"/>
<path d="M134.429 262.093L132.611 265.005L142.003 271.86L143.82 268.949L144.387 269.371L148.748 262.516L138.208 254.83L133.92 261.686L134.429 262.093ZM141.378 270.201L134.269 265.005L135.563 262.923L142.686 268.119L141.378 270.201Z" fill="white"/>
<path d="M45.7666 90.5977L46.1156 91.5292L44.8071 93.1304L47.3077 94.7315L47.6566 95.6631L43.7168 93.1304L45.7666 90.5977Z" fill="white"/>
<path d="M42.4941 90.5977L42.8284 91.5292L41.5346 93.1304L44.0351 94.7315L44.3695 95.6631L40.4297 93.1304L42.4941 90.5977Z" fill="white"/>
<path d="M265.707 202.546H153.46L119.15 106.711H231.398L265.707 202.546Z" fill="#263238"/>
<path d="M257.755 197.32H157.69L127.117 111.936H227.182L257.755 197.32Z" fill="#2ECC82"/>
<path d="M238.728 144.176L222.183 131.979L209.114 165.952L175.226 156.359L157.693 197.319H257.758L238.728 144.176Z" fill="white"/>
<path d="M169.759 130.232C167.433 123.74 160.295 118.471 153.767 118.471C147.24 118.471 143.911 123.74 146.237 130.232C148.563 136.724 155.701 141.993 162.228 141.993C168.756 141.993 172.1 136.796 169.759 130.232Z" fill="white"/>
<path d="M277.338 186.039H165.091L130.781 90.2188H243.028L277.338 186.039Z" fill="#263238"/>
<path d="M269.386 180.815H169.321L138.748 95.4453H238.812L269.386 180.815Z" fill="#2ECC82"/>
<path d="M250.358 127.672L233.814 115.475L220.745 149.462L186.857 139.87L169.324 180.815H269.389L250.358 127.672Z" fill="white"/>
<path d="M181.39 113.742C179.064 107.25 171.926 101.98 165.398 101.98C158.871 101.98 155.541 107.25 157.867 113.742C160.194 120.233 167.332 125.503 173.859 125.503C180.387 125.503 183.73 120.233 181.39 113.742Z" fill="white"/>
<path d="M277.846 75.1832L280.536 81.7333H279.765C279.354 80.8518 278.842 80.0214 278.239 79.2588C277.588 78.5161 276.792 77.9164 275.898 77.4976C274.951 77.0986 273.93 76.9051 272.903 76.9299H268.964L276.77 98.2832C277.095 99.4735 277.686 100.574 278.5 101.5C279.278 102.098 280.239 102.406 281.219 102.373H282.193L282.469 103.13H270.635L270.359 102.373H271.348C272.525 102.373 273.223 102.009 273.456 101.296C273.494 100.254 273.274 99.2193 272.816 98.2832L265.009 76.9299H261.666C260.764 76.8809 259.861 76.9792 258.991 77.221C258.683 77.3532 258.408 77.5524 258.187 77.8042C257.965 78.056 257.803 78.354 257.711 78.6766C257.48 79.6731 257.545 80.7157 257.9 81.6751H257.115L255.051 75.125L277.846 75.1832Z" fill="black"/>
<path d="M294.842 88.3398H303.39" stroke="#263238" stroke-width="0.5" stroke-miterlimit="10"/>
<path d="M303.115 111.004H260.126L244.207 67.4238H287.196L303.115 111.004Z" stroke="#263238" stroke-width="0.5" stroke-miterlimit="10"/>
<path d="M254.004 89.956H250.791L249.613 86.7246H252.826L254.004 89.956Z" fill="white" stroke="#263238" stroke-width="0.5" stroke-miterlimit="10"/>
<path d="M297.037 89.956H293.824L292.646 86.7246H295.859L297.037 89.956Z" fill="white" stroke="#263238" stroke-width="0.5" stroke-miterlimit="10"/>
<path d="M246.46 69.2735H243.232L242.055 66.0566H245.282L246.46 69.2735Z" fill="white" stroke="#263238" stroke-width="0.5" stroke-miterlimit="10"/>
<path d="M289.491 69.2735H286.264L285.086 66.0566H288.313L289.491 69.2735Z" fill="white" stroke="#263238" stroke-width="0.5" stroke-miterlimit="10"/>
<path d="M267.989 69.2735H264.762L263.584 66.0566H266.811L267.989 69.2735Z" fill="white" stroke="#263238" stroke-width="0.5" stroke-miterlimit="10"/>
<path d="M262.191 112.358H258.978L257.801 109.127H261.014L262.191 112.358Z" fill="white" stroke="#263238" stroke-width="0.5" stroke-miterlimit="10"/>
<path d="M305.224 112.358H302.012L300.834 109.127H304.047L305.224 112.358Z" fill="white" stroke="#263238" stroke-width="0.5" stroke-miterlimit="10"/>
<path d="M281.861 111.775L284.987 120.334" stroke="#263238" stroke-width="0.5" stroke-miterlimit="10"/>
<path d="M283.721 112.358H280.508L279.33 109.127H282.543L283.721 112.358Z" fill="white" stroke="#263238" stroke-width="0.5" stroke-miterlimit="10"/>
<path d="M287.223 121.938H283.996L282.818 118.721H286.046L287.223 121.938Z" fill="#263238"/>
<path d="M257.551 102.824H293.648" stroke="#263238" stroke-width="0.5" stroke-miterlimit="10"/>
<path d="M305.079 88.3575C304.894 87.8841 304.578 87.4729 304.169 87.1715C303.76 86.8701 303.274 86.6909 302.767 86.6545C302.562 86.6419 302.357 86.6848 302.174 86.7785C301.991 86.8723 301.837 87.0136 301.727 87.1876C301.617 87.3616 301.556 87.5619 301.549 87.7677C301.543 87.9735 301.592 88.1772 301.692 88.3575C301.878 88.8292 302.194 89.2383 302.603 89.5372C303.012 89.8361 303.498 90.0125 304.003 90.046C304.208 90.0618 304.413 90.0217 304.597 89.9299C304.781 89.838 304.936 89.698 305.047 89.5246C305.157 89.3512 305.218 89.1511 305.224 88.9455C305.23 88.74 305.18 88.5367 305.079 88.3575Z" fill="#263238"/>
<path opacity="0.2" d="M105.854 319.442L144.801 352.862L107.685 534.692H110.186L151.473 356.21L189.301 387.956L135.889 534.459L139.233 533.906L195.422 391.304L351.762 533.906H446.898L335.64 315.541L105.854 319.442Z" fill="black"/>
<path d="M110.184 534.692H107.683L103.918 316.342H113.964L110.184 534.692Z" fill="#263238" stroke="#263238" stroke-linecap="round" stroke-linejoin="round"/>
<path d="M326.593 534.692H324.092L320.312 316.342H330.358L326.593 534.692Z" fill="#263238" stroke="#263238" stroke-linecap="round" stroke-linejoin="round"/>
<path d="M341.933 312.965H100.08V318.627H341.933V312.965Z" fill="white" stroke="#263238" stroke-linecap="round" stroke-linejoin="round"/>
<path d="M45.4629 430.2L41.1016 439.487C41.1016 439.487 46.4806 445.309 48.923 445.309C51.3653 445.309 52.3394 442.864 55.276 441.874C58.2127 440.884 63.0829 431.612 63.0829 431.612C63.0829 431.612 60.1753 426.721 57.2677 426.227C54.3601 425.732 49.9988 424.276 47.4982 423.781C44.9977 423.286 45.4629 430.2 45.4629 430.2Z" fill="white" stroke="#263238" stroke-linecap="round" stroke-linejoin="round"/>
<path d="M45.4629 430.201L48.3705 435.091V439.458C48.3705 439.458 51.2781 440.914 52.2812 439.458C53.2843 438.002 57.6602 433.097 57.6602 433.097L55.6976 428.73" stroke="#263238" stroke-linecap="round" stroke-linejoin="round"/>
<path d="M48.4005 439.487L43.0215 438.512" stroke="#263238" stroke-linecap="round" stroke-linejoin="round"/>
<path d="M129.636 518.162L119.765 521.073C119.765 521.073 118.907 528.991 120.521 530.825C122.135 532.659 124.621 531.786 127.281 533.344C129.941 534.901 140.147 532.427 140.147 532.427C140.147 532.427 141.892 526.997 140.321 524.479C138.751 521.961 136.949 517.667 135.698 515.513C134.448 513.359 129.636 518.162 129.636 518.162Z" fill="white" stroke="#263238" stroke-linecap="round" stroke-linejoin="round"/>
<path d="M129.638 518.162L127.908 523.606L124.607 526.517C124.607 526.517 125.436 529.69 127.181 529.428C128.925 529.166 135.511 529.268 135.511 529.268L137.517 524.901" stroke="#263238" stroke-linecap="round" stroke-linejoin="round"/>
<path d="M124.609 526.531L121.803 521.844" stroke="#263238" stroke-linecap="round" stroke-linejoin="round"/>
<path d="M29.8175 428.234C29.8175 428.234 21.5163 433.62 22.9847 436.56C24.453 439.501 25.427 441.451 26.8954 442.383C28.3637 443.314 32.7105 444.828 34.1643 443.838C35.6181 442.848 39.049 440.418 39.5288 436.56C40.0085 432.703 41.4914 432.194 40.0231 430.199C38.5548 428.205 29.8175 428.234 29.8175 428.234Z" fill="white" stroke="#263238" stroke-linecap="round" stroke-linejoin="round"/>
<path d="M22.9297 436.559L28.7448 440.475L33.6296 439.98L35.5777 434.594C35.5777 433.822 35.2713 433.082 34.7261 432.536C34.1808 431.99 33.4412 431.683 32.6701 431.683C31.0873 431.618 29.5355 432.135 28.3087 433.139L29.2973 436.05" stroke="#263238" stroke-linecap="round" stroke-linejoin="round"/>
<path d="M65.9739 421.395C65.9739 421.395 58.7049 428.236 59.6208 433.126C60.5367 438.017 69.8846 441.933 69.8846 441.933L81.1224 435.586L77.6914 426.853L70.4225 422.937L65.9739 421.395Z" fill="white" stroke="#263238" stroke-linecap="round" stroke-linejoin="round"/>
<path d="M59.6367 433.126L67.4436 436.066L76.239 433.126L72.8226 425.295" stroke="#263238" stroke-linecap="round" stroke-linejoin="round"/>
<path d="M65.9778 421.395L65.498 431.656L71.3568 433.621" stroke="#263238" stroke-linecap="round" stroke-linejoin="round"/>
<path d="M87.9563 513.346C87.9563 513.346 80.6874 520.201 81.6033 525.092C82.5191 529.983 91.867 533.898 91.867 533.898L103.105 527.538L99.6884 518.731L92.3468 514.816L87.9563 513.346Z" fill="white" stroke="#263238" stroke-linecap="round" stroke-linejoin="round"/>
<path d="M81.6191 525.076L89.426 528.016L98.2214 525.076L94.805 517.26" stroke="#263238" stroke-linecap="round" stroke-linejoin="round"/>
<path d="M87.9709 513.346L87.4766 523.622L93.3353 525.573" stroke="#263238" stroke-linecap="round" stroke-linejoin="round"/>
<path d="M39.1106 414.059C39.1106 414.059 31.8417 420.9 32.7575 425.791C33.6734 430.681 43.0213 434.524 43.0213 434.524L54.2446 428.163L50.8282 419.43L43.5592 415.514L39.1106 414.059Z" fill="white" stroke="#263238" stroke-linecap="round" stroke-linejoin="round"/>
<path d="M32.7559 425.79L40.5772 428.73L49.3727 425.79L45.9563 417.959" stroke="#263238" stroke-linecap="round" stroke-linejoin="round"/>
<path d="M39.1106 414.059L38.6309 424.32L44.4896 426.285" stroke="#263238" stroke-linecap="round" stroke-linejoin="round"/>
<path d="M80.1064 534.697H22.1292L13.4355 438.469H88.8L80.1064 534.697Z" fill="#263238" stroke="#263238" stroke-linecap="round" stroke-linejoin="round"/>
<path d="M41.5524 518.729C41.5524 518.729 33.2368 524.114 34.7051 527.04C36.1734 529.966 37.1475 531.931 38.6158 532.862C40.0841 533.794 44.431 535.308 45.8847 534.318C47.3385 533.328 50.7695 530.897 51.2638 527.04C51.7581 523.183 53.2118 522.673 51.7435 520.679C50.2752 518.685 41.5524 518.729 41.5524 518.729Z" fill="white" stroke="#263238" stroke-linecap="round" stroke-linejoin="round"/>
<path d="M34.7051 527.042L40.5202 530.957L45.405 530.477L47.3531 525.091C47.3531 524.319 47.0467 523.579 46.5014 523.033C45.9562 522.487 45.2166 522.18 44.4455 522.18C42.862 522.109 41.3082 522.628 40.0841 523.636L41.0581 526.547" stroke="#263238" stroke-linecap="round" stroke-linejoin="round"/>
<path d="M195.262 246.436C195.366 247.095 195.266 247.77 194.975 248.37C194.684 248.97 194.217 249.466 193.636 249.791C193.054 250.117 192.387 250.256 191.725 250.19C191.062 250.125 190.435 249.857 189.929 249.424C189.423 248.99 189.062 248.412 188.894 247.767C188.726 247.121 188.76 246.44 188.991 245.815C189.222 245.189 189.639 244.65 190.186 244.269C190.733 243.888 191.383 243.685 192.049 243.685C192.838 243.629 193.618 243.886 194.219 244.401C194.821 244.916 195.195 245.647 195.262 246.436Z" fill="#808080" stroke="#263238" stroke-linecap="round" stroke-linejoin="round"/>
<path d="M198.356 254.817C198.46 255.476 198.36 256.151 198.069 256.751C197.778 257.35 197.311 257.847 196.729 258.172C196.148 258.498 195.481 258.637 194.818 258.571C194.156 258.506 193.529 258.238 193.023 257.805C192.517 257.371 192.155 256.793 191.988 256.148C191.82 255.502 191.854 254.821 192.085 254.196C192.316 253.57 192.733 253.031 193.28 252.65C193.827 252.269 194.477 252.066 195.143 252.066C195.932 252.01 196.712 252.267 197.313 252.782C197.914 253.297 198.289 254.028 198.356 254.817Z" fill="#808080" stroke="#263238" stroke-linecap="round" stroke-linejoin="round"/>
<path d="M201.44 263.204C201.544 263.863 201.444 264.537 201.153 265.137C200.862 265.737 200.395 266.233 199.813 266.559C199.232 266.884 198.565 267.024 197.902 266.958C197.24 266.892 196.613 266.625 196.107 266.191C195.601 265.758 195.239 265.18 195.072 264.534C194.904 263.889 194.938 263.208 195.169 262.582C195.4 261.957 195.817 261.417 196.364 261.037C196.911 260.656 197.561 260.452 198.227 260.453C199.016 260.397 199.796 260.654 200.397 261.168C200.998 261.683 201.373 262.415 201.44 263.204Z" fill="#808080" stroke="#263238" stroke-linecap="round" stroke-linejoin="round"/>
<path d="M204.535 271.587C204.639 272.245 204.54 272.919 204.249 273.518C203.959 274.118 203.492 274.614 202.912 274.94C202.332 275.266 201.666 275.406 201.003 275.341C200.341 275.277 199.715 275.011 199.208 274.579C198.701 274.147 198.339 273.57 198.17 272.926C198 272.282 198.032 271.601 198.261 270.975C198.49 270.35 198.904 269.809 199.449 269.427C199.994 269.044 200.643 268.838 201.308 268.836C202.099 268.779 202.88 269.036 203.484 269.55C204.087 270.065 204.465 270.796 204.535 271.587Z" fill="#808080" stroke="#263238" stroke-linecap="round" stroke-linejoin="round"/>
<path d="M160.995 312.432H138.97L135.67 275.883H164.295L160.995 312.432Z" fill="#263238" stroke="#263238" stroke-linecap="round" stroke-linejoin="round"/>
<path d="M163.205 287.893L137.924 300.804L138.971 312.434H150.761L162.188 299.275L163.205 287.893Z" fill="#2ECC82" stroke="#263238" stroke-linecap="round" stroke-linejoin="round"/>
<path d="M166.853 271.514H133.125V279.461H166.853V271.514Z" fill="#2ECC82" stroke="#263238" stroke-linecap="round" stroke-linejoin="round"/>
<path d="M226.137 312.925H186.521C185.839 312.961 185.156 312.859 184.515 312.622C183.873 312.386 183.287 312.022 182.791 311.551C182.295 311.081 181.9 310.514 181.63 309.885C181.36 309.257 181.221 308.58 181.221 307.896C181.221 307.212 181.36 306.535 181.63 305.906C181.9 305.277 182.295 304.711 182.791 304.24C183.287 303.769 183.873 303.405 184.515 303.169C185.156 302.933 185.839 302.83 186.521 302.867H226.137C226.819 302.83 227.502 302.933 228.143 303.169C228.785 303.405 229.371 303.769 229.867 304.24C230.363 304.711 230.758 305.277 231.028 305.906C231.298 306.535 231.437 307.212 231.437 307.896C231.437 308.58 231.298 309.257 231.028 309.885C230.758 310.514 230.363 311.081 229.867 311.551C229.371 312.022 228.785 312.386 228.143 312.622C227.502 312.859 226.819 312.961 226.137 312.925Z" fill="#263238" stroke="#263238" stroke-linecap="round" stroke-linejoin="round"/>
<path d="M331.511 312.97H209.567L180.477 233.699H302.435L331.511 312.97Z" fill="#263238" stroke="#263238" stroke-linecap="round" stroke-linejoin="round"/>
<path d="M323.774 304.732H219.639L194.809 237.033H298.944L323.774 304.732Z" fill="#808080" stroke="#263238" stroke-linecap="round" stroke-linejoin="round"/>
<path d="M344.217 341.28C341.389 345.445 338.187 349.342 334.651 352.924C323.489 363.022 313.891 374.727 306.172 387.654C295.239 406.213 287.621 425.179 280.381 441.598C273.142 458.017 260.028 488.322 253.472 497.55C246.915 506.779 242.481 511.713 242.481 511.713C242.481 511.713 231.65 511.96 218.828 510.825C206.005 509.69 200.699 507.375 200.539 510.723C200.379 514.071 209.262 523.256 215.571 524.857C221.881 526.458 230.109 528.903 232.028 530.81C233.947 532.717 236.39 534.9 239.617 533.503C242.845 532.106 252.454 518.642 263.198 509.37C273.941 500.098 286.764 490.913 298.365 469.298C309.966 447.682 310.577 435.325 318.718 427.202C326.859 419.08 335.436 406.344 345.817 399.634C356.197 392.924 387.177 380.493 397.077 367.611C406.977 354.729 401.817 338.965 392.294 333.332C382.772 327.699 351.69 325.662 344.217 341.28Z" fill="#263238" stroke="#263238" stroke-linecap="round" stroke-linejoin="round"/>
<path d="M261.145 483.926C258.907 488.643 256.347 493.2 253.483 497.565C246.854 506.778 242.493 511.727 242.493 511.727C242.493 511.727 231.662 511.975 218.84 510.839C206.017 509.704 200.711 507.39 200.551 510.737C200.391 514.085 209.274 523.27 215.583 524.871C221.893 526.472 230.121 528.918 232.04 530.824C233.959 532.731 236.401 534.915 239.629 533.517C242.856 532.12 252.466 518.656 263.209 509.384C268.21 505.017 273.662 500.752 279.201 495.221C272.154 493.431 265.841 489.482 261.145 483.926Z" fill="white" stroke="#263238" stroke-linecap="round" stroke-linejoin="round"/>
<path d="M239.629 533.517C241.364 532.355 242.909 530.931 244.209 529.296C235.486 527.563 231.037 523.182 227.054 522.018C223.417 520.944 219.941 519.387 216.717 517.389L221.079 510.97L218.869 510.781C206.047 509.645 200.74 507.331 200.58 510.679C200.42 514.027 209.303 523.211 215.612 524.812C221.922 526.414 230.15 528.859 232.069 530.766C233.988 532.673 236.474 534.914 239.629 533.517Z" fill="#2ECC82" stroke="#263238" stroke-linecap="round" stroke-linejoin="round"/>
<path d="M254.705 382.27C256.399 389.566 258.9 396.65 262.163 403.39C267.309 413.696 278.634 424.511 286.877 430.697C295.12 436.883 321.609 460.58 334.736 479.386C336.379 481.744 330.099 489.691 322.379 496.649C314.659 503.607 311.316 506.183 315.43 507.464C319.544 508.745 329.328 508.235 339.112 499.997C348.896 491.758 355.307 486.344 358.404 479.619C359.945 476.271 351.455 472.137 346.308 467.77C341.162 463.404 322.117 434.54 316.2 421.192C310.284 407.844 295.368 388.733 284.304 382.037" fill="#263238"/>
<path d="M254.705 382.27C256.399 389.566 258.9 396.65 262.163 403.39C267.309 413.696 278.634 424.511 286.877 430.697C295.12 436.883 321.609 460.58 334.736 479.386C336.379 481.744 330.099 489.691 322.379 496.649C314.659 503.607 311.316 506.183 315.43 507.464C319.544 508.745 329.328 508.235 339.112 499.997C348.896 491.758 355.307 486.344 358.404 479.619C359.945 476.271 351.455 472.137 346.308 467.77C341.162 463.404 322.117 434.54 316.2 421.192C310.284 407.844 295.368 388.733 284.304 382.037" stroke="#263238" stroke-linecap="round" stroke-linejoin="round"/>
<path d="M358.388 479.646C359.929 476.298 351.439 472.164 346.293 467.797C341.931 464.115 327.815 443.125 319.906 428.584L302.461 444.071C313.35 454.158 326.652 467.71 334.793 479.384C336.436 481.742 330.156 489.689 322.436 496.647C314.716 503.604 311.373 506.181 315.487 507.462C319.601 508.742 329.385 508.233 339.169 499.994C348.953 491.756 355.292 486.341 358.388 479.646Z" fill="white" stroke="#263238" stroke-linecap="round" stroke-linejoin="round"/>
<path d="M353.098 472.807C351.717 474.874 349.914 477.683 347.835 481.191C342.951 489.429 329.576 499.997 327.773 498.192C326.688 496.965 325.778 495.593 325.069 494.116C324.197 494.96 323.295 495.819 322.365 496.649C314.645 503.607 311.302 506.183 315.416 507.464C319.53 508.745 329.314 508.235 339.098 499.997C348.882 491.758 355.293 486.343 358.39 479.619C359.32 477.61 356.558 475.296 353.098 472.807Z" fill="#2ECC82" stroke="#263238" stroke-linecap="round" stroke-linejoin="round"/>
<path d="M422.965 496.387H335.49V500.506H422.965V496.387Z" fill="white" stroke="#263238" stroke-linecap="round" stroke-linejoin="round"/>
<path d="M343.458 385.879L328.223 532.397C328.206 532.561 328.225 532.727 328.276 532.884C328.328 533.041 328.412 533.185 328.523 533.307C328.635 533.429 328.77 533.527 328.921 533.593C329.072 533.659 329.235 533.693 329.4 533.692C329.682 533.692 329.954 533.591 330.168 533.406C330.381 533.222 330.521 532.967 330.563 532.688L353.315 385.879H343.458Z" fill="white" stroke="#263238" stroke-linecap="round" stroke-linejoin="round"/>
<path d="M413.445 385.879L428.754 532.397C428.772 532.561 428.756 532.726 428.706 532.883C428.656 533.04 428.573 533.184 428.463 533.306C428.353 533.429 428.219 533.527 428.068 533.593C427.918 533.66 427.755 533.694 427.591 533.692C427.308 533.695 427.034 533.595 426.82 533.41C426.606 533.225 426.466 532.968 426.428 532.688L403.676 385.879H413.445Z" fill="white" stroke="#263238" stroke-linecap="round" stroke-linejoin="round"/>
<path d="M385.663 385.879L386.375 532.513C386.371 532.825 386.246 533.123 386.026 533.343C385.806 533.563 385.509 533.689 385.197 533.692C384.896 533.693 384.607 533.576 384.39 533.367C384.173 533.158 384.046 532.873 384.034 532.572L375.85 385.879H385.663Z" fill="white" stroke="#263238" stroke-linecap="round" stroke-linejoin="round"/>
<path d="M418.328 363.711H337.323C333.333 363.711 330.098 366.95 330.098 370.945V380.173C330.098 384.169 333.333 387.408 337.323 387.408H418.328C422.319 387.408 425.554 384.169 425.554 380.173V370.945C425.554 366.95 422.319 363.711 418.328 363.711Z" fill="#2ECC82"/>
<path opacity="0.2" d="M418.358 363.729H339.155L336.8 368.677C336.8 368.677 409.897 369.958 409.897 374.18C409.897 378.401 411.161 383.917 396.812 383.917C385.182 383.917 346.148 384.47 331.697 384.674C332.275 385.399 332.985 386.007 333.791 386.465L338.036 387.425H418.358C420.286 387.425 422.134 386.659 423.498 385.294C424.861 383.929 425.627 382.078 425.627 380.147V370.919C425.604 369.004 424.828 367.175 423.467 365.829C422.106 364.483 420.271 363.728 418.358 363.729Z" fill="black"/>
<path d="M418.328 363.711H337.323C333.333 363.711 330.098 366.95 330.098 370.945V380.173C330.098 384.169 333.333 387.408 337.323 387.408H418.328C422.319 387.408 425.554 384.169 425.554 380.173V370.945C425.554 366.95 422.319 363.711 418.328 363.711Z" stroke="#263238" stroke-linecap="round" stroke-linejoin="round"/>
<path d="M256.754 391.527C254.951 385.603 247.493 373.755 283.257 349.025C302.156 335.925 343.211 325.837 343.211 325.837L347.063 321.471C347.063 321.471 358.127 333.115 379.745 332.3C401.362 331.485 414.737 321.995 417.311 322.766C419.884 323.538 420.131 330.233 419.113 342.853C418.096 355.473 416.787 361.921 406.756 365.007C396.725 368.093 374.598 369.126 358.65 368.879C350.739 368.856 342.834 368.423 334.968 367.583C334.968 367.583 300.76 389.228 279.404 390.771" fill="#263238"/>
<path d="M256.754 391.527C254.951 385.603 247.493 373.755 283.257 349.025C302.156 335.925 343.211 325.837 343.211 325.837L347.063 321.471C347.063 321.471 358.127 333.115 379.745 332.3C401.362 331.485 414.737 321.995 417.311 322.766C419.884 323.538 420.131 330.233 419.113 342.853C418.096 355.473 416.787 361.921 406.756 365.007C396.725 368.093 374.598 369.126 358.65 368.879C350.739 368.856 342.834 368.423 334.968 367.583C334.968 367.583 300.76 389.228 279.404 390.771" stroke="#263238" stroke-linecap="round" stroke-linejoin="round"/>
<path d="M336 249.607C334.445 250.088 287.371 259.389 283.257 258.617C279.142 257.846 268.341 248.574 264.474 248.821C260.607 249.069 252.843 250.379 252.131 252.431C251.419 254.483 253.934 261.456 253.934 261.456C253.934 261.456 251.36 265.313 252.64 267.118C253.919 268.923 261.363 264.541 261.363 264.541C261.363 264.541 269.853 270.728 273.705 269.432C277.558 268.137 281.687 266.608 281.687 266.608C281.687 266.608 342.15 270.204 342.92 270.466C343.691 270.728 351.149 272.271 351.919 261.456C352.69 250.641 345.014 246.769 336 249.607Z" fill="white" stroke="#263238" stroke-linecap="round" stroke-linejoin="round"/>
<path d="M253.936 261.443L264.49 252.695" stroke="#263238" stroke-linecap="round" stroke-linejoin="round"/>
<path d="M257.789 257.583L263.459 239.811L265.77 240.32L262.935 253.202L257.789 257.583Z" fill="#263238"/>
<path d="M299.147 268.416C299.147 268.416 236.634 285.665 226.602 284.427C216.571 283.19 213.518 278.751 211.163 278.751C208.808 278.751 202.44 281.851 199.533 281.589C196.625 281.327 193.369 280.556 193.369 282.36C193.369 284.165 195.942 287.004 197.483 287.004C199.024 287.004 205.203 286.742 205.203 286.742C205.203 286.742 193.107 290.351 192.584 292.666C192.473 293.209 192.472 293.768 192.582 294.311C192.692 294.855 192.91 295.37 193.224 295.826C193.537 296.283 193.94 296.672 194.407 296.969C194.874 297.266 195.396 297.466 195.942 297.557C197.172 297.779 198.323 298.316 199.286 299.114C199.807 301.137 200.678 303.053 201.859 304.776C203.4 306.581 208.023 307.353 213.169 306.319C218.316 305.286 227.329 300.657 229.379 299.362C231.429 298.066 293.957 292.404 298.594 291.385C303.232 290.366 308.887 290.351 310.69 287.251C312.492 284.151 299.147 268.416 299.147 268.416Z" fill="white"/>
<path d="M223.553 296.918C212.809 296.918 215.193 286.161 211.617 287.966C208.491 289.524 196.294 291.081 192.834 295.026C193.113 295.677 193.546 296.25 194.095 296.697C194.645 297.143 195.295 297.449 195.989 297.587C197.218 297.81 198.37 298.347 199.332 299.145C199.854 301.168 200.725 303.084 201.906 304.807C203.447 306.612 208.07 307.383 213.216 306.35C218.363 305.317 227.376 300.688 229.426 299.392C231.476 298.097 294.003 292.435 298.641 291.416C302.377 290.572 306.797 290.412 309.297 288.752L310.751 287.297L304.107 280.805C304.107 280.805 234.34 296.918 223.553 296.918Z" fill="#2ECC82"/>
<path opacity="0.5" d="M223.553 296.918C212.809 296.918 215.193 286.161 211.617 287.966C208.491 289.524 196.294 291.081 192.834 295.026C193.113 295.677 193.546 296.25 194.095 296.697C194.645 297.143 195.295 297.449 195.989 297.587C197.218 297.81 198.37 298.347 199.332 299.145C199.854 301.168 200.725 303.084 201.906 304.807C203.447 306.612 208.07 307.383 213.216 306.35C218.363 305.317 227.376 300.688 229.426 299.392C231.476 298.097 294.003 292.435 298.641 291.416C302.377 290.572 306.797 290.412 309.297 288.752L310.751 287.297L304.107 280.805C304.107 280.805 234.34 296.918 223.553 296.918Z" fill="white"/>
<path d="M299.147 268.416C299.147 268.416 236.634 285.665 226.602 284.427C216.571 283.19 213.518 278.751 211.163 278.751C208.808 278.751 202.44 281.851 199.533 281.589C196.625 281.327 193.369 280.556 193.369 282.36C193.369 284.165 195.942 287.004 197.483 287.004C199.024 287.004 205.203 286.742 205.203 286.742C205.203 286.742 193.107 290.351 192.584 292.666C192.473 293.209 192.472 293.768 192.582 294.311C192.692 294.855 192.91 295.37 193.224 295.826C193.537 296.283 193.94 296.672 194.407 296.969C194.874 297.266 195.396 297.466 195.942 297.557C197.172 297.779 198.323 298.316 199.286 299.114C199.807 301.137 200.678 303.053 201.859 304.776C203.4 306.581 208.023 307.353 213.169 306.319C218.316 305.286 227.329 300.657 229.379 299.362C231.429 298.066 293.957 292.404 298.594 291.385C303.232 290.366 308.887 290.351 310.69 287.251C312.492 284.151 299.147 268.416 299.147 268.416Z" stroke="#263238" stroke-linecap="round" stroke-linejoin="round"/>
<path d="M351.951 205.3C351.951 205.3 346.296 220.744 339.1 231.049C331.903 241.355 328.807 252.184 333.43 263.771C334.66 267.086 336.617 270.085 339.155 272.545C341.693 275.006 344.749 276.867 348.099 277.992C348.099 277.992 344.493 311.994 345.525 321.018C346.557 330.043 360.441 340.596 381.289 341.396C402.136 342.197 420.134 334.701 420.134 327.481C420.134 320.261 405.48 281.893 405.48 273.901C405.48 265.91 406.759 240.933 399.81 218.59C392.861 196.247 368.422 188.809 351.951 205.3Z" fill="#2ECC82"/>
<path opacity="0.2" d="M399.807 218.43C396.071 206.363 387.246 198.707 377.331 196.785C372.548 197.848 359.479 200.904 356.222 201.676C354.699 202.763 353.27 203.975 351.948 205.3C351.948 205.3 346.293 220.744 339.097 231.049C334.255 237.963 331.29 245.11 331.246 252.548C350.233 257.046 379.221 264.367 376.314 265.183C372.141 266.376 354.245 256.813 359.61 262.795C364.974 268.778 393.628 296.274 385.269 293.857C376.91 291.441 358.417 271.747 363.2 281.31C367.983 290.873 381.097 306.404 376.924 306.404C372.752 306.404 350.669 284.294 358.417 297.438C366.166 310.582 401.377 331.499 390.037 334.482C383.495 336.2 369.612 335.749 361.558 337.102C367.811 339.701 374.488 341.127 381.257 341.309C402.089 342.081 420.102 334.613 420.102 327.394C420.102 320.174 405.448 281.805 405.448 273.814C405.448 265.823 406.727 240.845 399.807 218.43Z" fill="black"/>
<path d="M351.951 205.3C351.951 205.3 346.296 220.744 339.1 231.049C331.903 241.355 328.807 252.184 333.43 263.771C334.66 267.086 336.617 270.085 339.155 272.545C341.693 275.006 344.749 276.867 348.099 277.992C348.099 277.992 344.493 311.994 345.525 321.018C346.557 330.043 360.441 340.596 381.289 341.396C402.136 342.197 420.134 334.701 420.134 327.481C420.134 320.261 405.48 281.893 405.48 273.901C405.48 265.91 406.759 240.933 399.81 218.59C392.861 196.247 368.422 188.809 351.951 205.3Z" stroke="#263238" stroke-linecap="round" stroke-linejoin="round"/>
<path d="M355.117 267.803C355.117 267.803 374.016 298.37 401.638 307.103" stroke="#263238" stroke-linecap="round" stroke-linejoin="round"/>
<path d="M352.938 272.896C352.938 272.896 360.206 296.913 379.106 308.558" stroke="#263238" stroke-linecap="round" stroke-linejoin="round"/>
<path d="M356.836 253.655C356.836 253.655 373.918 246.203 380.925 241.385" stroke="#263238" stroke-linecap="round" stroke-linejoin="round"/>
<path d="M349.828 255.418C349.828 255.418 355.963 256.728 371.722 255.418" stroke="#263238" stroke-linecap="round" stroke-linejoin="round"/>
<path d="M350.407 209.158C346.439 211.691 342.809 214.718 339.605 218.168C333.688 224.354 305.121 267.658 305.121 267.658C305.121 267.658 313.611 285.445 316.184 285.954C318.758 286.464 363.534 248.109 367.649 243.452C371.763 238.794 374.336 230.351 373.057 226.698" fill="#2ECC82"/>
<path opacity="0.2" d="M367.65 243.42C371.764 238.777 374.337 230.32 373.058 226.667L362.881 218.807L359.625 222.169C359.625 222.169 359.407 235.357 347.689 242.474C335.972 249.592 330.985 249.65 329.197 258.602C327.409 267.554 333.37 269.956 326.217 271.149C319.064 272.343 314.281 272.939 314.281 277.728C314.328 280.099 314.508 282.466 314.819 284.817C315.159 285.304 315.627 285.686 316.171 285.923C318.759 286.433 363.536 248.049 367.65 243.42Z" fill="black"/>
<path d="M350.407 209.158C346.439 211.691 342.809 214.718 339.605 218.168C333.688 224.354 305.121 267.658 305.121 267.658C305.121 267.658 313.611 285.445 316.184 285.954C318.758 286.464 363.534 248.109 367.649 243.452C371.763 238.794 374.336 230.351 373.057 226.698" stroke="#263238" stroke-linecap="round" stroke-linejoin="round"/>
<path d="M295.356 270.204C295.356 270.204 303.337 289.272 305.125 291.339C306.914 293.406 316.451 292.11 319.533 289.781C322.615 287.452 322.106 282.838 322.106 282.838C322.106 282.838 310.272 261.965 309.022 261.005C307.771 260.044 307.219 262.3 301.753 264.105C296.286 265.91 294.324 266.609 295.356 270.204Z" fill="white" stroke="#263238" stroke-linecap="round" stroke-linejoin="round"/>
<path d="M308.222 156.612C308.222 156.612 307.698 164.079 308.992 166.394C310.286 168.708 313.877 171.037 313.877 174.123C313.877 177.208 311.304 181.401 312.074 183.657C312.845 185.913 316.974 186.233 316.974 186.233C316.974 186.233 324.679 195.767 327.005 199.115C329.331 202.463 330.349 201.167 333.954 200.148C337.559 199.129 345.264 192.419 349.64 187.266C354.016 182.114 346.733 166.394 337.298 155.841C327.863 145.288 313.615 145.535 310.533 148.563C307.451 151.59 308.222 156.612 308.222 156.612Z" fill="white"/>
<path d="M328.616 149.393C327.424 155.215 326.232 165.215 329.808 171.983C335.187 182.172 339.359 187.514 336.379 195.884C335.841 197.339 335.289 198.678 334.751 199.843C338.589 198.198 345.567 192.055 349.638 187.267C353.999 182.114 346.73 166.394 337.295 155.841C334.861 153.133 331.91 150.941 328.616 149.393Z" fill="#2ECC82"/>
<path opacity="0.5" d="M328.616 149.393C327.424 155.215 326.232 165.215 329.808 171.983C335.187 182.172 339.359 187.514 336.379 195.884C335.841 197.339 335.289 198.678 334.751 199.843C338.589 198.198 345.567 192.055 349.638 187.267C353.999 182.114 346.73 166.394 337.295 155.841C334.861 153.133 331.91 150.941 328.616 149.393Z" fill="white"/>
<path d="M313.875 167.688C313.875 167.688 313.875 163.816 318.513 166.392" stroke="#263238" stroke-linecap="round" stroke-linejoin="round"/>
<path d="M317.174 171.27L317.784 174.836C317.784 174.836 320.605 175.811 322.684 172.128" stroke="#263238" stroke-linecap="round" stroke-linejoin="round"/>
<path d="M308.222 156.612C308.222 156.612 307.698 164.079 308.992 166.394C310.286 168.708 313.877 171.037 313.877 174.123C313.877 177.208 311.304 181.401 312.074 183.657C312.845 185.913 316.974 186.233 316.974 186.233C316.974 186.233 324.679 195.767 327.005 199.115C329.331 202.463 330.349 201.167 333.954 200.148C337.559 199.129 345.264 192.419 349.64 187.266C354.016 182.114 346.733 166.394 337.298 155.841C327.863 145.288 313.615 145.535 310.533 148.563C307.451 151.59 308.222 156.612 308.222 156.612Z" stroke="#263238" stroke-linecap="round" stroke-linejoin="round"/>
<path d="M300.239 145.273V146.306L299.773 158.926L313.657 160.731L316.754 155.316V161.241C321.037 160.882 325.347 161.499 329.358 163.046C336.046 165.622 344.536 183.918 344.027 191.386C343.518 198.853 337.078 200.396 337.848 211.764C338.619 223.132 355.846 234.398 368.93 227.193C382.014 219.988 384.122 210.701 389.516 212.506C394.909 214.311 403.152 225.388 408.299 209.668C413.445 193.947 411.134 183.918 399.038 171.037C386.943 158.155 377.435 159.188 375.879 148.883C374.324 138.577 370.995 124.662 359.888 116.86C348.781 109.058 332.876 108.622 319.182 114.546C305.487 120.47 300.239 138.577 300.239 145.273Z" fill="#263238"/>
<path d="M307.972 151.185C307.88 151.198 307.787 151.198 307.696 151.185C306.242 150.85 306.009 148.274 305.864 142.015C305.864 140.384 305.791 138.71 305.69 137.371C305.69 137.24 305.69 137.124 305.69 137.036C304.454 138.492 301.837 144.678 299.874 150.137L298.508 149.642C303.771 134.97 305.486 135.188 306.038 135.275C307.042 135.406 307.143 136.731 307.187 137.226C307.289 138.594 307.332 140.297 307.361 141.927C307.361 144.518 307.521 148.768 308.059 149.656C308.762 148.932 309.316 148.077 309.687 147.138C311.141 144.111 312.595 142.771 313.933 142.771C315.648 142.771 316.549 145.129 317.189 146.803C317.344 147.217 317.523 147.62 317.727 148.012C318.367 148.186 320.634 145.872 321.841 144.62L322.902 143.543C323.146 143.225 323.458 142.965 323.816 142.784C324.173 142.602 324.566 142.504 324.967 142.495C325.781 142.626 326.173 143.383 326.595 144.169C326.98 145.019 327.54 145.777 328.238 146.396C328.703 146.76 328.936 146.701 329.037 146.687C330.084 146.425 331.349 143.601 332.817 140.341C333.152 139.569 333.515 138.769 333.908 137.924C334.3 137.08 335.042 135.668 336.117 135.77C337.469 135.872 338.095 137.997 339.025 141.214C339.593 143.782 340.575 146.24 341.933 148.492C342.267 148.899 342.718 149.365 343.139 149.322C344.273 149.132 345.523 145.77 346.279 143.761C346.614 142.758 347.032 141.784 347.53 140.85C347.64 140.615 347.815 140.417 348.033 140.277C348.252 140.138 348.506 140.064 348.765 140.064C349.841 140.064 350.583 141.52 351.586 143.499C352.342 144.955 353.374 147.007 354.232 147.342C354.406 147.415 354.464 147.342 354.508 147.342C355.075 147.051 355.555 145.173 355.962 143.674C356.305 141.987 356.903 140.362 357.735 138.856C357.95 138.503 358.237 138.199 358.578 137.966C358.919 137.732 359.306 137.574 359.712 137.502C361.617 137.197 363.739 138.841 365.15 139.948C365.077 139.205 364.917 138.186 364.786 137.298C364.059 132.451 363.856 130.108 365.062 129.438C365.629 129.133 366.298 129.307 367.054 129.977C368.362 131.216 369.605 132.523 370.776 133.892C373.436 136.891 377.478 141.403 379.106 140.967C379.557 140.85 379.804 140.151 379.92 139.598L381.374 139.889C381.069 141.345 380.443 142.131 379.513 142.378C377.172 142.99 373.989 139.657 369.714 134.868C368.556 133.506 367.323 132.208 366.022 130.981C365.917 130.88 365.8 130.792 365.673 130.719C365.572 132.822 365.734 134.93 366.153 136.993C366.676 140.413 366.778 141.36 366.153 141.753C366.008 141.848 365.839 141.898 365.666 141.898C365.493 141.898 365.323 141.848 365.179 141.753C364.932 141.578 364.612 141.345 364.263 141.054C363.114 140.166 361.195 138.696 359.901 138.885C359.692 138.923 359.494 139.007 359.321 139.13C359.147 139.253 359.003 139.413 358.898 139.598C358.166 140.97 357.637 142.441 357.328 143.965C356.761 146.119 356.281 147.982 355.133 148.565C354.905 148.671 354.657 148.726 354.406 148.726C354.155 148.726 353.907 148.671 353.679 148.565C352.313 148.026 351.28 145.988 350.277 144.038C349.881 143.132 349.394 142.269 348.824 141.461C348.372 142.336 347.993 143.247 347.69 144.183C346.614 147.095 345.393 150.355 343.401 150.661C342.889 150.694 342.379 150.584 341.926 150.342C341.474 150.1 341.099 149.737 340.842 149.292C339.361 146.914 338.294 144.3 337.687 141.563C337.367 140.03 336.808 138.556 336.03 137.197C335.74 137.607 335.491 138.046 335.289 138.507C334.896 139.336 334.533 140.151 334.198 140.908C332.381 144.969 331.174 147.648 329.43 148.07C329.068 148.143 328.693 148.129 328.337 148.031C327.981 147.932 327.653 147.751 327.38 147.502C326.528 146.763 325.844 145.85 325.374 144.824C325.224 144.492 325.028 144.183 324.792 143.907C324.792 143.907 324.56 143.907 323.993 144.533L322.946 145.61C320.533 148.084 318.992 149.569 317.669 149.467C317.448 149.446 317.235 149.375 317.046 149.259C316.857 149.143 316.697 148.985 316.578 148.798C316.305 148.335 316.076 147.848 315.895 147.342C315.488 146.265 314.703 144.271 313.918 144.242C313.685 144.242 312.711 144.46 311.01 147.793C309.76 150.166 308.873 151.185 307.972 151.185Z" fill="#575757"/>
<path d="M336.947 209.669C336.947 209.669 340.553 196.234 344.216 200.499C347.88 204.764 350.424 206.074 350.758 202.464C351.093 198.854 350.758 193.614 354.364 198.534C357.969 203.454 366.794 208.359 367.448 200.819C368.102 193.28 369.091 183.12 373.35 188.374C377.61 193.629 381.201 197.544 381.535 194.59C381.869 191.635 384.806 189.349 386.114 192.625C387.423 195.9 388.411 199.189 389.385 191.649C390.36 184.109 385.78 175.915 390.694 177.88C395.608 179.845 397.963 186.395 397.963 182.799C397.963 179.204 392.06 174.925 397.309 176.235C402.557 177.545 403.196 180.834 403.851 178.869C404.505 176.904 400.943 172.305 405.493 172.305" stroke="#575757" stroke-miterlimit="10"/>
<path d="M300.239 145.273V146.306L299.773 158.926L313.657 160.731L316.754 155.316V161.241C321.037 160.882 325.347 161.499 329.358 163.046C336.046 165.622 344.536 183.918 344.027 191.386C343.518 198.853 337.078 200.396 337.848 211.764C338.619 223.132 355.846 234.398 368.93 227.193C382.014 219.988 384.122 210.701 389.516 212.506C394.909 214.311 403.152 225.388 408.299 209.668C413.445 193.947 411.134 183.918 399.038 171.037C386.943 158.155 377.435 159.188 375.879 148.883C374.324 138.577 370.995 124.662 359.888 116.86C348.781 109.058 332.876 108.622 319.182 114.546C305.487 120.47 300.239 138.577 300.239 145.273Z" stroke="#263238" stroke-linecap="round" stroke-linejoin="round"/>
<path d="M0 534.695H532" stroke="#263238" stroke-miterlimit="10"/>
</svg>
