<svg width="95" height="96" fill="none" xmlns="http://www.w3.org/2000/svg"><g clip-path="url(#a)"><path d="M45.652 45.945c-7.115-7.105-14.4-14.044-21.283-21.37-5.478-5.828-4.784-14.951 1.033-20.503A14.67 14.67 0 0 1 35.583 0c3.79.01 7.43 1.489 10.16 4.127 1.371 1.338 2.016 1.5 3.474.062C52.523.945 56.547-.542 61.241.27c-.372.734.35.568.607.676 10.544 4.424 12.164 18.336 4.71 25.234-6.35 5.879-12.271 12.226-18.415 18.333-.673.67-1.19 1.794-2.491 1.433Z" fill="#2ECC82"/><path d="M52.451 82.676V65.723c0-4.925 2.095-8.803 6.235-11.41 4.14-2.605 8.495-5.053 12.738-7.589 1.115-.667 2.185-1.413 3.272-2.125a3.781 3.781 0 0 1 3.198.124c1.384.659 1.925.14 2.363-1.177 1.434-4.3 2.777-8.633 4.161-12.95.533-1.658 1.269-3.232 2.892-4.085 1.302-.676 2.657-1.214 4.025-.1 3.036 1.168 4.197 3.228 3.388 6.28-2.372 8.937-4.793 17.865-7.181 26.797a6.307 6.307 0 0 1-1.98 3.062c-3.036 2.772-5.953 5.713-9.197 8.224-2.987 2.316-4.544 4.996-4.131 8.808.072 1.03.089 2.063.05 3.094-.65.792-1.575.746-2.45.75-4.978.039-9.955.039-14.933 0-.88-.02-1.801.025-2.45-.75ZM20.295 44.561c4.686 3.253 9.722 5.925 14.635 8.804 5.16 3.02 7.776 7.308 7.64 13.361-.125 5.303-.026 10.61-.021 15.917-.653.791-1.579.746-2.45.75-4.98.039-9.958.039-14.932 0-.876 0-1.802.041-2.45-.75.157-9.872.09-7.81-6.611-14.144-1.653-1.557-3.434-2.962-5.144-4.453-1.942-1.699-3.417-3.588-4.078-6.252C4.797 49.392 2.447 41.057.236 32.688c-.826-3.083.326-5.13 3.376-6.31C5.706 25.26 8.128 26.03 9.54 28.3a15.227 15.227 0 0 1 1.574 4.019c1.058 3.778 2.454 7.457 3.603 11.186.413 1.33.975 1.831 2.359 1.176a3.824 3.824 0 0 1 3.218-.12Z" fill="#DEDEDE"/><path d="M22.704 82.676h19.832c1.07-.033 1.744.125 1.686 1.562-.128 3.443-.074 6.894 0 10.358 0 1.044-.248 1.445-1.372 1.437-6.803-.044-13.61-.044-20.422 0-1.124 0-1.384-.414-1.368-1.438.05-3.446.107-6.897-.025-10.357-.062-1.454.612-1.611 1.67-1.562Zm29.747 0h19.832c1.07-.033 1.744.125 1.69 1.562-.132 3.443-.074 6.894-.025 10.358 0 1.044-.248 1.445-1.367 1.437a1573.45 1573.45 0 0 0-20.428 0c-1.12 0-1.383-.414-1.367-1.438.05-3.446.108-6.897-.025-10.357-.058-1.454.616-1.611 1.69-1.562Z" fill="#505050"/><path d="M45.65 45.945c.827-.286 1.31-.986 1.885-1.566 6.274-6.278 12.545-12.561 18.811-18.85a14.82 14.82 0 0 0 3.718-6.253 14.849 14.849 0 0 0-2.894-13.81 14.772 14.772 0 0 0-5.914-4.223c-.488-.195-.971-.414-1.876-.77l1.86-.204c5.37.526 9.18 3.443 11.506 8.19 2.541 5.188 1.983 10.275-1.21 15.048a19.424 19.424 0 0 1-2.413 2.805 13509.58 13509.58 0 0 1-19.791 19.886c-1.95 1.935-1.95 1.935-3.682-.253Z" fill="#126F43"/><path d="M20.294 44.561c-1.487.53-3.19.224-4.545 1.36-.764.646-.85-.27-1.008-.73-1.333-3.977-2.655-7.96-3.966-11.948-.323-.978-.542-1.993-.88-2.962-1.124-3.22-2.835-4.272-6.272-3.903-.806-3.153.305-5.605 2.97-6.562 2.339-.829 5.252.269 6.132 2.73 2.628 7.32 5.061 14.69 7.57 22.015Zm71.07-18.166c-3.438-.365-5.186.67-6.264 3.906a769.84 769.84 0 0 0-4.545 14.132c-.392 1.243-.69 2.204-2.21 1.002-1.03-.828-2.48-.314-3.632-.849 2.508-7.353 4.958-14.732 7.565-22.036.921-2.56 3.685-3.596 6.12-2.722 2.664.965 3.676 3.19 2.966 6.567Z" fill="#ABABAB"/><path d="M47.383 31.383c-3.19 0-3.19 0-3.19-3.257 0-3.368 0-3.368-3.28-3.368s-3.306 0-3.306-3.314c0-3.315 0-3.315 3.351-3.315 3.256 0 3.256 0 3.256-3.19 0-3.434 0-3.434 3.421-3.434 3.186 0 3.186 0 3.186 3.252 0 3.372 0 3.372 3.284 3.372 3.285 0 3.326 0 3.326 3.315 0 3.314 0 3.314-3.35 3.314-3.26 0-3.26 0-3.26 3.186-.021 3.439-.021 3.439-3.438 3.439Z" fill="#F0F1F1"/><path d="M80.646 48.485c.533 2.738-.09 4.458-2.111 5.618a435.06 435.06 0 0 1-8.838 4.855c-.826.443-1.863 1.148-2.545 0-.773-1.292.339-2.092 1.268-2.63a186.995 186.995 0 0 1 8.47-4.67c1.467-.75 2.83-1.57 3.756-3.173Zm-66.376.219c3.037 3.335 7.371 4.578 11.007 6.931.686.444 1.491.688 2.086 1.306.596.617.996 1.242.521 2.009-.475.766-1.285.675-2 .294-2.003-1.056-3.99-2.138-5.982-3.22-1.025-.558-2.033-1.142-3.053-1.706-2.302-1.272-3.037-2.859-2.579-5.614Z" fill="#ABABAB"/></g><defs><clipPath id="a"><path fill="#fff" d="M0 0h95v96H0z"/></clipPath></defs></svg>