<svg width="402" height="326" viewBox="0 0 402 326" fill="none" xmlns="http://www.w3.org/2000/svg">
<path opacity="0.95" d="M235.856 153.897H156.817C150.573 153.897 145.504 148.828 145.504 142.584V63.5448C145.504 57.3003 150.573 52.2314 156.817 52.2314H235.856C242.101 52.2314 247.17 57.3003 247.17 63.5448V142.584C247.151 148.848 242.101 153.897 235.856 153.897Z" fill="#CCCCCC"/>
<path d="M220.121 130.58H172.553V133.378H220.121V130.58Z" fill="#131313"/>
<path d="M213.592 138.042H179.082V140.84H213.592V138.042Z" fill="#131313"/>
<path opacity="0.95" d="M388.787 250.9H277.172C269.868 250.9 263.959 244.947 263.959 237.588V100.986C263.959 93.6274 269.868 87.6748 277.172 87.6748H388.787C396.092 87.6748 402.001 93.6274 402.001 100.986V237.588C402.001 244.947 396.092 250.9 388.787 250.9Z" fill="#D6D6D6"/>
<path d="M337.499 183.779H326.496V185.815H337.499V183.779Z" fill="#131313"/>
<path d="M348.75 202.425H284.77V206.361H348.75V202.425Z" fill="#131313"/>
<path d="M336.499 221.358H284.77V225.294H336.499V221.358Z" fill="#131313"/>
<path d="M315.089 211.891H284.77V215.827H315.089V211.891Z" fill="#131313"/>
<path d="M365.477 104.015V106.012H377.21V117.015H379.207V104.015H365.477ZM285.867 117.015H287.864V106.012H299.596V104.015H285.886V117.015H285.867ZM377.19 173.775V184.777H365.458V186.774H379.168V173.775H377.19ZM287.864 173.775H285.867V186.774H299.577V184.777H287.845V173.775H287.864Z" fill="#0FAA61"/>
<path d="M372.984 225.601C366.513 225.601 361.252 220.34 361.252 213.869C361.252 207.398 366.513 202.137 372.984 202.137C379.455 202.137 384.716 207.398 384.716 213.869C384.697 220.34 379.436 225.601 372.984 225.601ZM372.984 204.422C367.761 204.422 363.537 208.665 363.537 213.869C363.537 219.092 367.781 223.316 372.984 223.316C378.207 223.316 382.431 219.073 382.431 213.869C382.431 208.646 378.188 204.422 372.984 204.422Z" fill="#131313"/>
<path d="M372.238 218.477L366.9 213.158L368.513 211.545L372.238 215.27L377.461 210.047L379.055 211.66L372.238 218.477Z" fill="#131313"/>
<path d="M379.615 316.656C379.615 321.545 294.626 325.517 189.807 325.517C84.9698 325.517 0 321.545 0 316.656C0 311.767 84.989 307.795 189.807 307.795C294.626 307.815 379.615 311.767 379.615 316.656Z" fill="#0FAA61"/>
<path d="M61.8775 291.06C67.5612 287.066 74.205 259.205 74.6082 242.614C74.8194 234.108 77.3157 230.575 79.5431 227.445C81.6553 224.45 83.4986 221.877 82.4233 215.962C80.3879 204.653 85.7452 199.756 85.8028 199.718L85.1884 199.007C84.9579 199.219 79.3702 204.249 81.5016 216.135C82.5001 221.665 80.8488 223.989 78.775 226.907C76.586 229.98 73.8786 233.801 73.6673 242.595C73.2449 260.395 66.4475 286.701 61.3398 290.292L61.8775 291.06Z" fill="#0FAA61"/>
<path d="M49.9735 282.937C49.4359 281.728 48.879 280.46 48.2454 279.136C45.0003 272.281 42.12 271.148 37.358 269.285C36.1867 268.824 34.881 268.306 33.4217 267.653C26.605 264.581 27.9108 260.068 29.0821 256.074C29.2357 255.517 29.4085 254.961 29.5429 254.404C30.1382 252.061 28.9861 250.89 27.2387 249.104C25.933 247.779 24.32 246.128 23.0719 243.536C21.7086 240.694 22.3999 239.158 23.2255 238.39C24.9537 236.757 28.9477 237.045 32.7112 239.1C33.8825 239.734 34.8426 240.751 35.8603 241.827C38.2605 244.342 41.2559 247.472 48.8214 247.51C53.1418 247.53 55.5036 248.125 56.7133 249.507C58.0958 251.063 57.8462 253.405 57.4814 256.631C57.347 257.745 57.2126 259.012 57.1358 260.395C56.6173 268.555 61.4369 274.45 61.4945 274.508C64.3748 277.945 67.9271 285.05 66.391 289.447C65.7573 291.29 64.3172 292.442 62.1282 292.884C61.2641 293.057 60.4576 293.153 59.728 293.153C54.4667 293.134 52.5273 288.756 49.9735 282.937ZM32.308 239.926C28.9477 238.082 25.3377 237.717 23.9168 239.062C22.8415 240.079 23.3408 241.846 23.9552 243.132C25.1265 245.59 26.6242 247.107 27.93 248.451C29.7541 250.314 31.1942 251.792 30.4646 254.653C30.3302 255.21 30.1574 255.786 29.9845 256.343C28.8324 260.318 27.7187 264.062 33.8057 266.808C35.2266 267.442 36.5323 267.96 37.7036 268.421C42.5041 270.303 45.6915 271.551 49.0902 278.751C49.7239 280.096 50.2807 281.344 50.8184 282.573C53.7563 289.236 55.542 293.268 61.9554 291.962C63.7987 291.597 64.9893 290.637 65.5269 289.14C66.871 285.28 63.6451 278.521 60.8033 275.122C60.5921 274.873 55.6956 268.901 56.2333 260.337C56.3293 258.955 56.4637 257.668 56.5981 256.535C56.9245 253.54 57.1741 251.389 56.0605 250.141C55.0428 249.008 52.8154 248.49 48.8598 248.47C40.8911 248.432 37.7612 245.149 35.2266 242.499C34.2089 241.423 33.3448 240.502 32.308 239.926Z" fill="#0FAA61"/>
<path d="M62.0505 298.568L62.9914 298.51C62.953 297.627 61.7625 276.831 53.4097 270.764C44.2505 264.081 41.3703 256.919 39.9877 252.1C38.3748 246.435 30.1181 244.918 29.7724 244.841L29.5996 245.763C29.6764 245.782 37.6259 247.242 39.0853 252.349C40.5062 257.303 43.4632 264.677 52.8529 271.512C60.86 277.331 62.0505 298.356 62.0505 298.568Z" fill="#0FAA61"/>
<path d="M60.4759 303.234C58.5173 302.255 58.5749 298.319 58.6901 292.366C58.8245 284.839 59.0165 274.547 55.0802 265.061C50.8942 255 54.6194 252.062 58.2293 249.201C62.2616 246.013 66.0828 242.998 58.7669 229.423C55.4066 223.182 54.3313 218.958 55.4066 216.135C56.4627 213.351 59.439 212.257 62.588 211.104C68.0221 209.127 74.1667 206.861 73.3794 195.378C73.1298 191.864 73.5522 189.695 74.6851 188.562C75.914 187.333 77.7382 187.467 79.8312 187.621C82.9995 187.851 86.5902 188.12 89.7201 184.03C90.0465 183.012 93.042 173.911 96.6135 172.336C97.3623 172.01 98.1112 172.01 98.8025 172.355C101.279 173.546 102.7 174.948 103.18 176.637C104.006 179.594 101.836 182.936 99.3401 186.795C95.4038 192.863 90.9298 199.756 95.5574 207.955C101.683 218.785 98.4568 222.587 93.9636 227.829C91.3906 230.844 88.4911 234.243 86.5326 239.792C84.958 244.266 87.6463 248.529 90.2193 252.638C93.4644 257.803 96.8055 263.16 89.7585 267.788C78.103 275.449 66.582 300.488 66.4668 300.738L66.4284 300.834L66.3324 300.911C64.1818 302.601 62.6265 303.388 61.4359 303.388C61.0903 303.445 60.7639 303.388 60.4759 303.234ZM89.24 267.058C95.519 262.93 92.6963 258.417 89.432 253.195C86.859 249.085 83.9403 244.419 85.6493 239.542C87.6463 233.82 90.6225 230.345 93.2532 227.272C97.6504 222.126 100.55 218.728 94.7317 208.474C89.8161 199.775 94.6549 192.325 98.5336 186.353C100.915 182.686 102.988 179.498 102.259 176.964C101.856 175.543 100.588 174.333 98.38 173.277C97.9384 173.066 97.4776 173.066 96.9783 173.277C93.6564 174.717 90.6033 184.356 90.5841 184.453L90.5649 184.529L90.5073 184.587C87.051 189.138 82.9995 188.85 79.7544 188.619C77.815 188.485 76.2789 188.37 75.338 189.291C74.4163 190.194 74.0899 192.191 74.3011 195.378C75.146 207.571 68.3486 210.048 62.8953 212.045C59.823 213.159 57.1924 214.138 56.2707 216.519C55.3106 219.073 56.3475 223.048 59.5734 229.02C67.2733 243.306 62.9721 246.704 58.8053 249.988C55.3106 252.734 52.0271 255.326 55.9443 264.735C59.9574 274.393 59.7654 284.801 59.631 292.404C59.535 297.589 59.4582 301.698 60.8983 302.409C61.7432 302.831 63.3369 302.121 65.6603 300.316C66.582 298.28 77.623 274.701 89.24 267.058Z" fill="#0FAA61"/>
<path d="M42.079 194.13C48.0123 192.094 46.7834 203.539 49.2797 211.987C51.7951 220.455 77.1605 215.674 66.5228 236.854C55.8658 258.033 80.0024 243.939 72.7826 262.43C65.5819 280.921 72.1489 300.68 64.3146 295.668C56.4803 290.638 59.9174 267.365 51.7759 264.6C43.6344 261.835 42.2902 258.609 50.3742 251.082C58.4581 243.555 29.2331 236.105 36.4529 220.916C43.6344 205.728 35.224 196.472 42.079 194.13Z" fill="#0FAA61"/>
<path d="M61.5911 294.439C62.34 291.271 68.715 263.428 62.7624 260.049C57.5204 257.073 57.6548 245.532 58.4612 234.645C59.1909 225.006 46.7866 220.493 46.2682 220.301L45.9609 221.185C46.0761 221.223 58.1924 225.639 57.5396 234.568C56.6947 245.763 56.6179 257.629 62.3016 260.855C66.814 263.409 62.6664 285.798 60.6694 294.209L61.5911 294.439Z" fill="white"/>
<path d="M83.9782 284.531L75.491 316.656H56.5773L48.1094 284.531H83.9782Z" fill="url(#paint0_linear_565_2582)"/>
<path d="M83.9782 284.531C83.9782 284.531 65.3333 288.026 65.3333 316.675H56.5773L48.1094 284.531H83.9782Z" fill="url(#paint1_linear_565_2582)"/>
<path opacity="0.95" d="M321.832 82.0783H265.778C260.655 82.0783 256.496 77.922 256.496 72.8035V24.1976C256.496 19.0792 260.655 14.9229 265.778 14.9229H321.832C326.954 14.9229 331.113 19.0792 331.113 24.1976V72.8035C331.132 77.922 326.973 82.0783 321.832 82.0783Z" fill="#CCCCCC"/>
<path d="M296.809 69.4912H290.914V70.5857H296.809V69.4912Z" fill="#0FAA61"/>
<path d="M311.827 27.2858V28.3611H318.125V34.2752H319.2V27.305H311.827V27.2858ZM269.103 34.256H270.178V28.3419H276.477V27.2666H269.122V34.256H269.103ZM318.125 64.7291V70.6432H311.827V71.7185H319.181V64.7483H318.125V64.7291ZM270.159 64.7291H269.084V71.6993H276.438V70.624H270.14V64.7291H270.159Z" fill="#0FAA61"/>
<path d="M200.302 119.569H192.41V121.029H200.302V119.569Z" fill="#0FAA61"/>
<path d="M219.966 63.1938V64.6148H228.376V72.5067H229.797V63.1938H219.966ZM162.898 72.5067H164.319V64.6148H172.73V63.1938H162.898V72.5067ZM228.376 113.214V121.106H219.966V122.527H229.797V113.214H228.376ZM164.319 113.214H162.898V122.527H172.73V121.106H164.319V113.214Z" fill="#0FAA61"/>
<path d="M374.829 165.595H361.676C360.812 159.297 359.756 152.115 359.756 152.115C359.756 152.115 359.219 158.048 358.585 165.595H305.972C305.492 158.797 304.916 153.728 304.705 153.613C304.398 153.459 302.535 159.489 300.961 165.595H286.713C290.38 149.811 297.216 124.484 301.153 122.967C306.779 120.797 329.705 113.731 329.705 113.731H342.801C342.801 113.731 366.054 120.375 368.224 127.575C369.933 133.336 373.716 152.288 374.829 165.595Z" fill="#181818"/>
<path d="M336.848 71.2765C336.848 71.2765 349.061 73.1966 347.217 92.3215C345.355 111.446 334.564 109.872 333.853 109.853C333.123 109.833 323.023 110.198 322.236 86.849C322.217 86.8682 321.871 69.6059 336.848 71.2765Z" fill="#EEA987"/>
<path d="M342.551 104.227C342.551 104.227 342.224 112.099 342.973 113.789C343.722 115.479 332.892 120.951 326.268 114.864C326.268 114.864 327.861 106.32 327.42 103.286C326.978 100.271 342.551 104.227 342.551 104.227Z" fill="#EEA987"/>
<path d="M347.391 86.9257C347.391 86.9257 348.735 85.5047 349.215 86.9449C349.714 88.385 347.141 94.856 347.314 95.144C347.314 95.144 347.064 95.7009 346.757 95.3936C346.431 95.0864 347.391 86.9257 347.391 86.9257Z" fill="#EEA987"/>
<path d="M322.369 86.6963C322.369 86.6963 321.064 85.237 320.545 86.6771C320.027 88.1172 322.465 94.6266 322.293 94.9146C322.293 94.9146 322.523 95.4715 322.849 95.1835C323.176 94.8762 322.369 86.6963 322.369 86.6963Z" fill="#EEA987"/>
<path d="M347.39 89.8642L345.642 92.2068C345.642 92.2068 345.7 87.08 345.412 86.2735C345.124 85.467 344.702 83.0092 344.471 82.4332C344.241 81.8571 333.968 78.9769 324.924 83.278C324.924 83.278 325.327 86.9648 324.463 87.2912C323.599 87.6176 324.021 93.3013 324.021 93.3013L322.581 91.6692C322.581 91.6692 320.373 76.9607 320.93 75.4245C321.468 73.8884 323.215 64.6716 341.802 70.1441C341.802 70.1441 347.601 68.9152 348.753 72.9091C349.886 76.9223 347.39 89.8642 347.39 89.8642Z" fill="#878787"/>
<path d="M342.974 113.789C342.974 113.789 345.739 114.384 334.199 125.425C334.199 125.425 326.019 116.381 326.288 114.864C326.537 113.366 342.974 113.789 342.974 113.789Z" fill="#EEA987"/>
<path d="M334.199 125.445L337.348 130.821L346.68 114.961L342.648 112.157L334.199 125.445Z" fill="#0FAA61"/>
<path d="M334.197 125.445L326.554 113.29L322.215 116.074L329.992 130.821L334.197 125.445Z" fill="#0FAA61"/>
<path d="M331.838 159.124C331.934 160.91 331.972 163.118 331.972 165.595H331.53C331.53 163.137 331.492 160.948 331.396 159.162C330.686 145.683 333.95 129.265 333.969 125.406L334.392 125.483C334.372 129.323 331.127 145.702 331.838 159.124Z" fill="#0FAA61"/>
<path d="M328.574 107.606C328.574 107.606 331.474 110.678 335.583 109.852C339.692 109.027 341.497 107.164 341.497 107.164C341.497 107.164 339.884 111.216 335.141 111.6C330.398 111.964 328.574 107.606 328.574 107.606Z" fill="#C78D71"/>
<path d="M186.981 63.73H186.962C186.693 63.6724 186.252 62.3475 186.156 62.0787C186.137 62.0019 186.098 61.8674 186.041 61.6946C185.695 60.6385 184.888 58.1615 185.215 57.2014C185.311 56.8942 185.465 56.7214 185.676 56.683C186.117 56.587 186.617 57.1438 186.636 57.1822L186.655 57.2014V57.2206C186.77 58.2575 187.327 63.4804 187.077 63.7108C187.039 63.7108 187.001 63.73 186.981 63.73ZM185.753 56.7598C185.733 56.7598 185.695 56.7598 185.676 56.7598C185.503 56.7982 185.388 56.9518 185.292 57.2014C184.984 58.1231 185.81 60.6577 186.117 61.6178C186.175 61.8098 186.213 61.9442 186.233 62.0018C186.444 62.6355 186.789 63.538 186.962 63.5764C186.962 63.5764 186.962 63.5764 186.981 63.5764C187.135 63.3652 186.789 59.544 186.521 57.1822C186.463 57.1438 186.079 56.7598 185.753 56.7598Z" fill="#EEA886"/>
<path d="M196.061 42.9535C196.061 42.9535 202.782 42.243 205.221 48.7524C207.64 55.2426 209.925 57.3739 210.213 60.7919C211.365 74.5979 217.817 71.468 215.993 79.4367C214.188 87.3862 212.921 88.5959 212.921 88.5959L197.502 85.5813L181.891 85.6389C181.891 85.6389 187.997 82.5858 186.633 76.0956C185.27 69.6054 181.891 58.9485 183.792 51.7094C185.731 44.4128 192.029 43.4911 196.061 42.9535Z" fill="#2F2F2F"/>
<path d="M204.278 63.7297C204.24 63.7297 204.221 63.7105 204.201 63.6913C203.971 63.4609 204.509 58.2381 204.624 57.2012V57.182L204.643 57.1628C204.662 57.1436 205.161 56.5867 205.603 56.6635C205.814 56.7019 205.968 56.8747 206.064 57.182C206.371 58.1228 205.584 60.5999 205.238 61.6752C205.181 61.8672 205.142 62.0016 205.123 62.0592C205.046 62.328 204.605 63.6529 204.317 63.7105C204.297 63.7297 204.278 63.7297 204.278 63.7297ZM204.72 57.2204C204.47 59.5822 204.105 63.4033 204.259 63.6145C204.259 63.6145 204.259 63.6145 204.278 63.6145C204.432 63.5761 204.797 62.6545 205.008 62.0208C205.027 61.944 205.065 61.8096 205.123 61.6368C205.43 60.6767 206.256 58.1229 205.949 57.2204C205.853 56.9515 205.737 56.7979 205.565 56.7787C205.219 56.7019 204.797 57.1436 204.72 57.2204Z" fill="#EEA886"/>
<path d="M227.687 105.014H218.086C216.089 101.385 214.476 98.5435 214.476 98.5435C214.476 98.5435 213.189 100.905 212.172 105.014H179.836C179.337 102.461 179.318 100.003 179.414 98.2554C179.414 98.2554 177.685 101.385 175.688 105.014H164.82C167.701 99.6187 173.096 89.7875 174.325 88.501C175.861 86.888 184.79 80.7051 191.184 78.6889C197.559 76.6727 201.188 78.6121 201.188 78.6121C201.188 78.6121 207.736 79.7834 213.804 82.2028C216.185 83.1629 222.771 95.2984 227.687 105.014Z" fill="#0FAA61"/>
<path d="M196.945 46.7368C196.945 46.7368 205.855 48.0233 204.549 61.1765C203.244 74.3297 195.39 73.2928 194.852 73.2736C194.334 73.2544 186.961 73.5424 186.327 57.4898C186.327 57.509 186.039 45.6423 196.945 46.7368Z" fill="#8E4F3A"/>
<path d="M200.899 70.9503C200.899 70.9503 200.343 77.7861 201.667 79.8407C202.992 81.8952 200.535 84.6795 195.504 83.7194C190.473 82.7593 190.761 79.9175 190.761 79.9175C190.761 79.9175 192.163 75.6931 191.759 72.3136C191.337 68.9341 200.899 70.9503 200.899 70.9503Z" fill="#8E4F3A"/>
<path d="M195.926 51.5185C195.926 51.5185 200.093 55.8965 202.013 58.1047C203.953 60.3129 204.164 64.5948 204.164 64.5948C204.164 64.5948 207.428 60.6201 206.065 55.9925C204.702 51.3649 201.476 42.3401 193.315 45.1243C185.154 47.8894 184.847 60.0824 185.807 66.131C185.826 66.1118 189.494 52.7666 195.926 51.5185Z" fill="#2F2F2F"/>
<path d="M204.03 79.2263C204.03 79.2263 197.847 94.8757 194.103 97.6024C194.103 97.6024 189.168 81.6458 189.513 79.3032C189.513 79.3032 196.944 76.3845 204.03 79.2263Z" fill="#8E4F3A"/>
<path d="M190.973 75.4429C190.973 75.4429 179.951 85.2357 182.812 91.3611C185.251 96.5839 193.911 93.3773 192.47 87.9048C191.05 82.4515 190.973 75.4429 190.973 75.4429Z" fill="#2F2F2F"/>
<path d="M192.412 72.6785C192.412 72.6785 196.214 74.4643 199.901 71.8145C199.901 71.8145 198.883 73.9266 196.156 74.2339C193.43 74.5411 192.412 72.6785 192.412 72.6785Z" fill="#633029"/>
<path d="M290.169 36.4829C290.169 36.4829 286.521 50.2313 285.753 53.3228C285.522 54.2637 284.793 55.8766 283.871 57.7008C283.871 57.72 283.852 57.72 283.852 57.7392C283.66 58.1424 283.564 58.5073 283.506 58.8529C283.353 60.005 283.794 60.9075 283.045 62.2708L282.911 62.8468H275.672C276.517 60.3314 277.592 57.1439 278.437 54.5901C279.147 52.4203 279.723 50.6922 279.877 50.1929C280.319 48.6952 281.97 43.8756 283.353 40.6689C283.833 39.5552 285.714 38.4415 287.366 37.6542C288.863 36.9437 290.169 36.4829 290.169 36.4829Z" fill="#323657"/>
<path d="M285.328 16.8399C285.328 16.8399 283.024 1.93936 295.371 2.20818C307.718 2.47701 307.564 9.85046 307.334 17.1663C307.103 24.4822 302.38 23.9253 307.718 34.1214C313.056 44.2983 303.09 44.2983 303.09 44.2983L295.371 33.6798L285.328 16.8399Z" fill="#2F2F2F"/>
<path d="M294.028 3.64814C294.028 3.64814 285.656 4.97306 285.33 16.8589C285.004 28.7448 287.577 31.2794 294.912 28.8024C302.227 26.3254 304.532 13.9018 304.704 11.9625C304.858 10.0231 305.3 2.20801 294.028 3.64814Z" fill="#EEA886"/>
<path d="M308.719 44.9697C308.758 49.0597 304.053 58.8334 303.324 61.8672C303.247 62.2129 303.151 62.5393 303.055 62.8465H280.224C280.109 61.4448 279.994 60.2351 279.936 59.5438C279.763 57.3164 277.497 52.4968 277.574 50.2502C277.651 47.9652 278.765 45.9874 280.339 43.568C280.819 42.8191 281.338 42.0511 281.856 41.3022C283.527 38.8636 285.178 36.6554 285.985 35.8873C286.599 35.3305 287.156 34.8888 287.655 34.5624C288.673 33.8711 289.364 33.6599 289.364 33.6599L296.545 32.5078C296.545 32.5078 301.019 34.14 303.612 34.7352C303.612 34.7352 308.643 35.4649 308.719 44.9697Z" fill="#0FAA61"/>
<path d="M287.654 34.563L283.487 41.13L279.646 47.1977C279.646 47.1593 279.915 46.2568 280.338 43.5878C280.415 43.0885 280.511 42.5125 280.607 41.8788C280.626 41.6868 280.683 41.4948 280.722 41.322C282.373 37.52 287.462 34.659 287.654 34.563Z" fill="#E55353"/>
<path d="M299.616 23.4257C298.886 24.789 298.118 33.2954 298.118 33.2954C298.118 33.2954 287.884 37.1549 288.94 34.9659C289.42 33.9674 289.554 32.6809 289.554 31.5672C289.554 30.6839 289.497 29.9351 289.439 29.4934C289.42 29.263 289.401 29.1478 289.401 29.1478C289.401 29.1478 300.326 22.0624 299.616 23.4257Z" fill="#EEA886"/>
<path d="M290.611 12.1734C290.611 12.1734 294.893 19.1628 298.81 21.9086C302.708 24.6545 300.73 26.8627 300.73 26.8627C300.73 26.8627 310.926 5.41437 301.229 3.91663C291.532 2.4381 285.599 2.32289 285.33 16.8394C285.33 16.8394 289.727 12.0582 290.611 12.1734Z" fill="#2F2F2F"/>
<path d="M295.277 28.6484C293.702 30.9718 289.555 31.5863 289.555 31.5863C289.555 30.703 289.497 29.9542 289.439 29.5125C292.108 30.031 295.277 28.6484 295.277 28.6484Z" fill="#A77860"/>
<path d="M280.741 41.2644C280.741 41.2644 280.511 41.7252 280.338 43.5686L281.836 41.3028C281.836 41.3028 284.524 37.4432 285.446 36.4448C286.367 35.4463 287.635 34.563 287.635 34.563C287.635 34.563 282.354 37.1168 280.741 41.2644Z" fill="#EBEEFF"/>
<path d="M301.093 47.0247C301.093 47.0247 307.66 44.4517 309.6 44.298C309.6 44.298 308.275 33.7563 301.823 34.87C295.39 36.0029 301.093 47.0247 301.093 47.0247Z" fill="#E55353"/>
<path d="M289.363 33.6601C289.363 33.6601 284.543 41.0719 286.175 41.7248C287.807 42.3776 296.64 40.8607 300.385 33.8137C300.385 33.8137 294.778 30.9334 289.363 33.6601Z" fill="#EEA886"/>
<path d="M309.601 44.2981C309.274 50.1162 307.623 55.6271 306.26 60.6771C306.068 61.4068 305.876 62.1365 305.703 62.8469H292.338C292.3 60.8499 292.319 59.0834 292.377 57.6049C293.049 41.4754 298.156 32.9883 298.156 32.9883C298.156 32.9883 299.789 33.5451 304.493 34.87C307.719 35.7725 308.929 39.8817 309.37 42.3587C309.37 42.3587 309.37 42.3779 309.37 42.3971C309.562 43.5108 309.601 44.2981 309.601 44.2981Z" fill="black"/>
<path d="M289.363 33.6606C289.306 33.7567 288.422 35.2352 287.385 37.6546C285.811 41.2837 283.833 47.025 283.66 53.3616C283.603 55.397 283.199 58.6805 282.585 62.8472H279.916C279.647 59.3717 279.013 56.5875 278.457 54.5905C278.092 53.2848 277.765 52.3247 277.573 51.7102C276.728 48.8108 279.436 44.9704 280.358 43.5879C281.241 42.2054 283.43 35.8688 289.363 33.6606Z" fill="black"/>
<path d="M313.863 62.847H306.682C306.682 62.3862 306.528 61.6181 306.259 60.6773C304.953 56.0497 301.094 47.0248 301.094 47.0248C301.094 47.0248 295.314 37.5968 300.787 35.1774C306.259 32.7772 308.621 39.4978 309.351 42.3588C309.351 42.3588 309.351 42.378 309.351 42.3972C309.543 43.0885 312.807 55.512 313.863 62.847Z" fill="black"/>
<path d="M196.805 197.413C196.805 197.413 199.32 197.375 200.204 196.415C201.106 195.455 202.681 194.591 203.18 194.341C203.852 194.014 205.734 192.19 205.964 193.074C206.195 193.957 202.988 196.223 202.373 196.818C201.759 197.432 205.042 197.682 205.522 198.277C206.002 198.873 204.332 205.075 202.143 204.595C199.954 204.115 198.168 201.906 197.746 201.906C197.323 201.906 196.133 201.638 196.133 201.638L196.805 197.413Z" fill="#EEA886"/>
<path d="M205.062 198.028C205.062 198.028 211.591 200.025 211.86 200.582C212.128 201.139 211.956 201.561 211.322 201.408C210.708 201.254 204.928 199.699 204.928 199.699C204.928 199.699 212.071 203.597 212.378 203.981C212.57 204.211 212.244 205.018 211.898 204.979C211.552 204.941 204.198 201.561 204.198 201.561C204.198 201.561 210.861 205.21 211.015 205.651C211.168 206.035 210.708 206.727 210.189 206.496C209.671 206.266 203.257 203.309 203.257 203.309C203.257 203.309 207.885 206.343 207.827 206.842C207.789 207.149 207.539 207.86 206.368 207.034C205.197 206.208 202.201 204.615 202.201 204.615L205.062 198.028Z" fill="#EEA886"/>
<path d="M183.061 307.554C183.061 307.554 185.154 310.684 188.092 311.356C191.03 312.028 193.929 313.103 193.949 314.966C193.968 316.828 185.461 317.923 182.101 316.06C177.089 313.276 176.571 314.121 176.014 312.719C175.457 311.318 176.686 307.592 176.648 307.151C176.609 306.613 183.061 307.554 183.061 307.554Z" fill="#353A3D"/>
<path d="M182.731 305.999C182.731 305.999 183.115 307.516 183.057 307.535C182.999 307.555 176.432 308.342 176.644 307.132C176.797 306.153 177.028 305.078 177.028 305.078L182.731 305.999Z" fill="#81807E"/>
<path d="M141.851 307.343C141.851 307.343 143.349 310.338 145.902 311.356C148.629 312.45 150.818 313.698 150.76 315.503C150.703 317.308 144.097 319.133 139.278 315.676C136.244 313.487 135.265 313.468 134.785 312.105C134.305 310.722 135.629 307.131 135.61 306.709C135.591 306.171 141.851 307.343 141.851 307.343Z" fill="#353A3D"/>
<path d="M141.929 305.788C141.929 305.788 141.91 307.324 141.853 307.343C141.795 307.381 135.459 307.9 135.612 306.709C135.747 305.768 136.227 304.616 136.227 304.616L141.929 305.788Z" fill="#81807E"/>
<path d="M165.18 214.215C165.18 214.215 173.514 246.128 176.682 253.52C179.62 260.356 180.599 269.919 181.002 274.719C181.521 280.768 184.536 304.29 184.9 306.056C185.265 307.823 175.108 307.036 175.108 307.036C175.108 307.036 168.099 266.366 165.199 260.433C163.26 256.477 152.008 228.059 150.702 229.71C149.416 231.342 147.822 259.799 146.862 264.523C145.902 269.247 142.983 306.575 142.983 306.575C142.983 306.575 136.435 307.535 134.688 306.056C134.688 306.056 133.901 274.181 134.496 265.329C134.726 261.95 130.54 224.852 135.917 209.913C138.74 202.021 165.18 214.215 165.18 214.215Z" fill="#2D3133"/>
<path d="M118.769 191.326C118.769 191.691 119.46 193.15 120.555 195.243C122.168 192.017 123.435 189.386 123.838 188.407C125.202 185.2 132.191 177.865 132.191 177.865C132.191 177.865 132.191 177.865 132.191 177.885C132.191 177.904 132.191 177.904 132.191 177.923C132.191 177.942 132.21 177.961 132.21 177.981C132.21 178 132.21 178 132.23 178.019C132.23 178.038 132.23 178.038 132.23 178.057C132.614 179.478 134.956 188.33 135.033 192.708C135.129 197.451 136.377 206.246 136.377 206.246L137.836 206.457L141.062 206.918L141.446 206.975L142.387 207.11L150.951 208.319L153.985 208.742L154.388 208.799L156.117 209.049L160.917 209.721L162.146 209.894H162.165L163.087 210.028L164.354 210.201C164.392 210.163 165.583 208.511 165.41 204.882C165.295 202.54 165.007 198.123 165.122 194.033C165.122 194.014 165.122 193.995 165.122 193.976C165.122 193.918 165.122 193.88 165.122 193.822C165.122 193.803 165.122 193.784 165.122 193.764C165.199 191.518 165.391 189.386 165.813 187.773C166.101 186.679 166.293 185.584 166.409 184.567C166.409 184.509 166.428 184.471 166.428 184.413C166.447 184.221 166.466 184.029 166.485 183.856C166.754 181.014 166.543 178.864 166.524 178.729V178.749C166.62 178.941 167.234 181.226 168.06 184.048C169.443 188.83 171.382 195.147 172.208 195.454C173.417 195.896 192.869 201.656 197.055 202.252C197.535 202.328 197.823 202.309 197.842 202.232C197.861 202.175 197.88 202.117 197.899 202.04C198.418 200.351 199.109 197.49 199.224 197.029C199.244 196.99 199.244 196.971 199.244 196.971L198.495 196.741L177.334 190.404L167.657 162.504C167.446 162.35 165.084 161.198 163.336 160.373C161.57 159.528 159.438 158.299 157.499 157.243C156.52 156.705 155.579 156.206 154.772 155.841L154.657 155.783C153.332 155.169 152.449 154.766 152.449 154.766C152.411 154.766 152.199 154.747 151.873 154.708C150.01 154.535 144.231 153.998 142.311 153.882C142.157 153.863 142.022 153.863 141.907 153.863C141.811 153.863 141.754 153.863 141.715 153.863C141.466 153.882 140.275 154.286 138.72 154.881C138.662 154.9 138.605 154.919 138.547 154.958C138.47 154.977 138.393 155.015 138.317 155.035C138.182 155.092 138.048 155.131 137.894 155.188C137.606 155.303 137.318 155.419 137.03 155.534C136.934 155.572 136.819 155.611 136.723 155.649C133.593 156.897 130.002 158.433 129.157 159.048C128.6 159.451 126.834 162.754 124.799 166.844C122.187 175.235 118.865 188.081 118.75 191.249C118.769 191.23 118.769 191.287 118.769 191.326Z" fill="#D6D6D6"/>
<path d="M164.357 210.183C164.357 210.183 165.009 210.951 165.182 214.215C165.182 214.215 138.703 211.123 135.9 209.914C135.9 209.914 135.784 206.323 136.38 206.246C137.032 206.189 164.357 210.183 164.357 210.183Z" fill="#495055"/>
<path d="M141.773 152.904C141.85 157.052 149.896 159.337 149.896 159.337C149.896 159.337 153.256 155.113 152.45 154.709C152.142 154.556 152.008 153.922 151.97 153.212C151.931 152.54 151.97 151.791 152.008 151.33C152.027 151.042 152.046 150.85 152.046 150.85C152.046 150.85 150.894 149.64 149.435 148.2C146.881 145.665 143.367 142.439 143.367 143.726C143.367 143.803 143.367 143.88 143.406 143.976C144.02 146.856 141.773 152.904 141.773 152.904Z" fill="#EEA886"/>
<path d="M142.427 206.899C142.427 206.899 141.851 210.548 141.793 211.489L140.564 211.239C140.564 211.239 140.91 207.379 141.102 206.727L142.427 206.899Z" fill="#353A3D"/>
<path d="M162.149 209.76C162.149 209.76 162.609 213.082 162.629 214.33L161.323 214.157C161.323 214.157 161.054 210.01 160.9 209.587L162.149 209.76Z" fill="#353A3D"/>
<path d="M144.867 146.817C144.886 146.836 145.232 147.355 145.808 148.084C147.037 149.64 149.36 152.193 151.972 153.211C151.933 152.539 151.972 151.79 152.01 151.329C152.279 151.329 152.548 151.291 152.817 151.233C152.106 149.985 151.069 148.679 151.069 148.679L149.456 148.199L144.867 146.817Z" fill="#A77860"/>
<path d="M143.328 143.763C144.019 145.28 144.691 146.375 144.864 146.816C144.979 147.105 145.325 147.565 145.805 148.084C147.13 149.505 149.588 151.406 152.026 151.329C152.295 151.329 152.564 151.29 152.833 151.233C153.812 151.022 154.964 150.561 155.598 149.313C160.61 139.481 156.98 131.436 156.98 131.436C156.98 131.436 143.251 127.557 141.101 131.686C139.584 134.604 141.677 140.211 143.328 143.763Z" fill="#EEA886"/>
<path d="M156.98 131.455C156.98 131.455 158.248 131.379 158.574 128.959C158.881 126.578 158.248 125.906 158.248 125.906C158.248 125.906 152.583 123.525 150.548 123.218C148.513 122.911 143.501 122.623 142.33 123.948C142.33 123.948 139.488 123.295 138.7 128.018C137.472 135.526 142.906 142.823 142.906 142.823C142.906 142.823 142.867 137.926 143.943 137.274C145.018 136.621 145.959 138.176 145.959 138.176L148.167 138.579C148.167 138.579 144.807 131.321 148.839 131.052C152.871 130.783 154.676 131.878 156.98 131.455Z" fill="#252E3B"/>
<path d="M145.883 136.218C145.672 134.048 141.774 133.242 142.023 135.488C142.292 137.754 144.212 139.924 145.095 139.847C145.998 139.789 146.056 137.869 145.883 136.218Z" fill="#EEA886"/>
<path d="M120.557 195.262C122.266 198.507 124.935 203.289 127.604 207.916C127.258 208.569 126.912 209.222 126.586 209.856C125.779 211.411 125.088 212.928 124.57 214.33C123.974 216.019 123.13 220.359 124.743 221.165L133.211 225.851C133.211 225.851 133.268 225.678 133.383 225.371C133.671 224.603 134.267 222.99 135.111 220.877C135.131 220.801 135.227 220.609 135.342 220.321C135.515 219.917 135.745 219.36 136.033 218.708C136.148 218.42 136.283 218.112 136.417 217.805C136.571 217.44 136.724 217.075 136.897 216.711C137.128 216.173 137.358 215.635 137.569 215.136C138.145 213.792 138.606 212.736 138.606 212.736C138.625 212.678 138.664 212.621 138.683 212.544C138.952 211.949 139.24 211.353 139.528 210.758C139.97 209.836 140.43 208.915 140.891 208.012C140.93 207.916 140.987 207.82 141.026 207.743C141.102 207.59 141.198 207.436 141.275 207.263C141.333 207.167 141.371 207.071 141.429 206.975C141.448 206.956 141.448 206.937 141.467 206.918C141.486 206.879 141.506 206.841 141.525 206.803C143.983 202.329 146.729 198.603 147.612 193.112C147.689 192.574 147.785 192.056 147.861 191.537C147.996 190.673 148.111 189.809 148.207 188.964C148.245 188.638 148.284 188.331 148.322 188.023C148.764 184.375 149.033 181.111 149.244 178.845C149.916 171.779 145.576 164.117 142.255 159.394C140.469 156.859 138.99 155.169 138.702 154.862L138.683 154.843C138.625 154.862 138.568 154.881 138.51 154.92C138.433 154.939 138.357 154.977 138.28 154.996C138.145 155.054 138.011 155.092 137.857 155.15C137.569 155.265 137.281 155.38 136.993 155.496C136.897 155.534 136.782 155.572 136.686 155.611C133.46 156.878 126.682 158.741 125.837 159.355C125.338 159.701 124.243 162.927 122.976 166.997C120.365 175.389 118.809 188.043 118.732 191.192C118.732 191.249 118.732 191.288 118.732 191.326C118.771 191.691 119.462 193.15 120.557 195.262ZM133.441 193.688C133.441 195.262 132.922 197.067 132.135 198.987C132.116 199.026 132.097 199.084 132.078 199.141C131.54 197.989 131.022 196.875 130.561 195.838C129.293 193.016 128.429 190.808 128.391 189.943C128.084 184.356 132.193 177.904 132.193 177.904C132.193 177.923 132.193 177.923 132.193 177.942C132.193 177.962 132.212 177.981 132.212 178C132.212 178.019 132.212 178.019 132.231 178.038C132.231 178.058 132.231 178.058 132.231 178.077C133.095 181.399 133.441 193.688 133.441 193.688Z" fill="#3C4145"/>
<path d="M149.532 214.771L125.376 225.524C124.013 226.139 122.4 225.524 121.805 224.161L115.199 209.299C114.585 207.936 115.199 206.342 116.563 205.727L140.719 194.974C142.082 194.36 143.695 194.974 144.29 196.338L150.895 211.2C151.51 212.563 150.895 214.157 149.532 214.771Z" fill="#B3A5A0"/>
<path d="M154.736 155.841C154.736 155.841 155.869 159.605 157.329 169.033C157.386 169.34 157.425 169.667 157.482 169.993C157.482 170.031 157.501 170.07 157.501 170.108C157.54 170.319 157.559 170.55 157.597 170.761C157.597 170.78 157.597 170.819 157.617 170.838C157.636 170.991 157.655 171.145 157.674 171.299C157.732 171.664 157.789 172.048 157.847 172.432C158.5 177.021 159.422 184.817 160.305 192.689C160.996 198.891 162.59 205.266 163.089 210.009C163.185 210.931 163.435 212.179 163.742 213.581C163.78 213.734 163.819 213.907 163.857 214.061C165.278 220.052 168.024 228.539 168.024 228.539L168.83 227.79L171.211 225.601C171.768 225.102 171.96 224.315 171.749 223.604C170.424 219.361 165.95 204.306 165.124 193.726C165.528 190.001 166.565 185.028 166.411 184.298C166.43 184.317 166.43 184.356 166.43 184.375C166.91 185.681 167.429 187.121 167.947 188.503C169.368 192.229 170.808 195.685 171.403 195.915C172.748 196.414 196.826 203.519 196.999 202.521C197.018 202.425 197.038 202.309 197.057 202.194C197.076 202.079 197.095 201.964 197.134 201.849C197.422 200.485 197.979 198.546 198.343 197.24C198.401 197.048 198.459 196.856 198.497 196.703C198.651 196.165 198.766 195.819 198.766 195.819L178.412 189.137L168.139 162.274C167.928 162.12 165.316 160.699 163.588 159.874C161.783 159.01 159.498 157.953 157.463 157.013C156.503 156.571 155.581 156.149 154.813 155.784L154.736 155.841Z" fill="#3C4145"/>
<path d="M140.949 165.154L144.866 167.362L143.195 169.071L147.65 193.112C148.553 187.466 148.975 182.128 149.282 178.845C150.3 167.919 139.393 155.592 138.721 154.843C138.203 155.035 137.627 155.265 137.051 155.496L140.949 165.154Z" fill="#51565C"/>
<path d="M154.68 155.727C154.68 155.727 156.139 160.508 157.848 172.432C158.501 177.021 159.423 184.817 160.306 192.69L161.208 170.166L159.346 168.15L160.997 166.076L157.445 157.013C156.485 156.571 155.563 156.149 154.795 155.784L154.68 155.727Z" fill="#51565C"/>
<path d="M138.49 154.92L141.755 152.923C141.755 152.923 141.851 154.709 149.877 159.356L147.592 165.788L138.49 154.92Z" fill="#F5E2D9"/>
<path d="M152.03 153.806C152.03 153.806 151.895 155.726 149.898 159.336L154.353 165.154L154.68 155.726L152.03 153.806Z" fill="#F5E2D9"/>
<path d="M149.877 159.336C149.877 159.336 149.013 162.793 149.32 163.753C149.32 163.753 151.221 164.444 152.584 163.58C152.603 163.58 151.624 161.161 149.877 159.336Z" fill="#0FAA61"/>
<path d="M154.35 209.165C154.83 206.726 154.369 199.429 154.35 199.122L153.928 199.141C153.928 199.218 154.408 206.707 153.928 209.088L154.35 209.165Z" fill="#AD9F99"/>
<path d="M150.975 208.032C150.975 208.032 154.873 208.493 156.159 208.819L155.987 213.178L150.879 212.641L150.975 208.032Z" fill="#69737A"/>
<path d="M151.818 163.272C151.818 163.272 156.157 174.256 155.447 186.525C154.717 199.256 153.508 203.884 153.508 203.884L150.819 207.244L149.629 203.116C149.629 203.116 153.22 186.871 150.896 171.068C150.474 168.207 149.859 162.773 149.859 162.773L151.818 163.272Z" fill="#0FAA61"/>
<path d="M138.76 215.118C138.76 215.118 139.701 216.98 140.623 217.287C141.564 217.595 142.908 219.111 142.908 219.111L136.341 222.568C136.341 222.568 134.593 219.15 134.517 216.98C134.44 214.81 138.76 215.118 138.76 215.118Z" fill="#EEA886"/>
<path d="M139.375 215.29L139.817 216.173C139.817 216.173 135.65 219.226 134.517 219.418L134.133 218.247L139.375 215.29Z" fill="#DECBC4"/>
<path d="M139.816 215.329C139.816 215.329 136.686 217.921 134.055 219.111L122.246 198.412L129.773 194.303C129.792 194.303 139.604 213.773 139.816 215.329Z" fill="#3C4145"/>
<path d="M166.277 178.73C166.431 181.687 166.393 184.299 166.393 184.299C166.393 184.318 166.393 184.395 166.412 184.529C166.412 184.472 166.431 184.433 166.431 184.376C166.911 185.681 167.43 187.122 167.948 188.504C168.063 186.891 168.102 185.393 168.063 184.011C167.852 175.754 165.26 171.415 165.26 171.415C165.855 172.855 166.143 175.946 166.277 178.73Z" fill="#2D3133"/>
<path d="M268.811 151.483C268.811 151.483 268.696 149.966 268.869 149.256C269.176 148.027 268.715 146.049 270.27 145.089C271.826 144.129 276.242 148.161 276.588 149.275C276.933 150.408 275.282 152.309 271.826 153.922C268.369 155.535 268.811 151.483 268.811 151.483Z" fill="#EEA886"/>
<path d="M269.795 145.491C269.795 145.491 271.293 143.245 273.27 140.941C274.999 138.924 277.437 136.659 277.936 137.1C278.724 137.753 276.516 139.385 274.922 141.497C273.462 143.437 274.077 143.302 274.077 143.302C274.077 143.302 273.904 143.341 275.901 141.517C278.052 139.577 280.452 137.561 280.874 137.907C281.412 138.329 281.431 138.425 280.759 139.27C281.239 138.867 281.431 138.944 281.604 139.136C282.564 140.115 279.857 143.475 278.781 144.8C279.607 143.782 280.337 143.13 280.548 144.109C280.778 145.223 276.727 149.793 275.44 151.578C274.077 153.518 269.795 145.491 269.795 145.491Z" fill="#EEA886"/>
<path d="M218.026 306.977C218.026 306.977 222.231 309.473 224.151 310.395C226.052 311.317 233.464 311.585 234.194 312.277C234.923 312.968 234.654 315.195 233.425 315.407C232.197 315.637 223.191 316.443 220.176 315.752C217.162 315.042 211.555 316.232 210.307 315.81C209.059 315.387 209.865 308.686 210.345 307.169C210.825 305.671 218.026 306.977 218.026 306.977Z" fill="#181929"/>
<path d="M218.374 304.232L218.028 306.978C218.028 306.978 212.402 308.034 210.693 307.17L211.116 304.328L218.374 304.232Z" fill="#22243B"/>
<path d="M240.953 210.527C240.895 212.428 240.55 216.557 240.147 220.877C240.051 221.837 239.955 222.816 239.878 223.776C239.321 229.594 238.745 234.99 238.745 234.99C238.034 239.637 236.575 247.682 234.924 253.769C234.444 255.517 233.964 257.111 233.484 258.416C233.004 259.684 232.524 260.663 232.063 261.258C228.568 265.713 220.58 305.23 220.58 305.23L209.654 305.153C209.654 305.153 212.055 278.386 214.474 271.608C217.162 264.023 221.847 253.827 220.676 246.511C219.946 241.922 219.006 227.329 219.006 227.329C219.006 227.329 218.084 210.93 222.385 198.91C223.46 195.915 240.953 210.527 240.953 210.527Z" fill="#292C47"/>
<path d="M248.711 308.014C248.711 308.014 252.896 310.548 254.797 311.509C256.698 312.449 264.091 312.814 264.821 313.525C265.55 314.235 265.243 316.443 264.014 316.655C262.785 316.866 253.761 317.576 250.765 316.827C247.77 316.098 242.144 317.211 240.895 316.77C239.647 316.328 240.531 309.627 241.03 308.129C241.529 306.631 248.711 308.014 248.711 308.014Z" fill="#181929"/>
<path d="M249.09 305.268L248.706 308.014C248.706 308.014 243.061 308.993 241.371 308.11L241.832 305.268H249.09Z" fill="#22243B"/>
<path d="M236.035 266.078C235.747 257.342 234.979 251.523 232.733 246.473C230.851 242.23 229.219 228.923 229.219 228.923C229.219 228.923 224.092 213.312 225.129 200.6C225.398 197.432 245.175 205.401 245.175 205.401C245.617 207.244 246.923 213.082 247.403 217.402C250.091 242.095 249.073 258.167 249.073 258.167C247.537 263.62 251.416 306.498 251.416 306.498H240.279C240.279 306.498 237.36 291.233 237.053 281.747C237.072 281.766 235.92 267.595 236.035 266.078Z" fill="#292C47"/>
<path d="M235.788 152.98C235.788 152.98 240.973 161.486 242.49 166.229C244.007 170.972 242.778 184.778 243.046 187.543C243.872 196.145 245.082 205.631 245.082 205.631L227.704 216.749C227.704 216.749 224.574 209.452 221.867 200.37C219.14 191.287 218.929 183.107 218.948 177.654C219.025 160.526 228.3 150.849 228.3 150.849L235.788 152.98Z" fill="#CFBEB6"/>
<path d="M242.181 130.149C242.181 130.149 245.753 133.97 244.735 134.968C243.91 135.794 247.174 139.596 247.654 140.249C248.115 140.883 246.195 141.939 245.887 142.515C245.58 143.091 245.753 149.082 244.102 149.696C242.45 150.311 234.117 149.658 231.467 148.045C228.817 146.432 224.554 137.1 224.861 132.626C225.169 128.133 235.902 123.505 242.181 130.149Z" fill="#EEA886"/>
<path d="M238.797 148.409C238.797 148.409 238.74 148.908 238.663 149.715C238.625 150.041 238.586 150.425 238.548 150.828C238.529 151.078 238.509 151.327 238.49 151.596C238.49 151.673 238.471 151.731 238.471 151.808C238.452 151.923 238.452 152.057 238.433 152.172C238.394 152.748 238.356 153.344 238.317 153.939C238.241 155.456 238.221 156.915 238.394 157.722C238.836 159.949 229.273 150.579 229.273 150.579C229.273 150.579 230.08 143.32 229.696 135.16C229.312 126.999 238.797 148.409 238.797 148.409Z" fill="#EEA886"/>
<path d="M242.911 130.994C242.911 130.994 244.6 127.019 239.397 124.254C233.271 121.009 226.781 129.17 225.917 129.65C225.053 130.13 221.136 134.546 224.976 140.384C229.815 147.757 229.565 147.507 229.565 147.507C229.565 147.507 230.046 142.073 230.026 141.017C229.969 139.097 235 138.867 235 138.867C235 138.867 232.926 136.121 235.23 134.892C237.515 133.644 240.184 130.725 242.911 130.994Z" fill="#3A3F47"/>
<path d="M232.332 138.176C231.967 137.658 230.623 135.392 228.895 137.389C227.167 139.386 231.794 143.111 232.178 143.072C232.582 143.034 235.423 142.496 232.332 138.176Z" fill="#EEA886"/>
<path d="M246.059 209.299C246.059 209.299 245.195 205.228 245.022 204.614L219.58 208.838L219.849 212.122C219.83 212.141 238.167 211.046 246.059 209.299Z" fill="#23263D"/>
<path d="M217.313 191.364C217.313 191.364 221.231 208.242 215.105 227.924C214.356 230.324 232.041 227.559 232.041 227.559L217.313 191.364Z" fill="#0FAA61"/>
<path d="M239.78 226.329C239.78 226.329 227.222 229.094 223.689 227.846C223.689 227.846 218.562 209.163 216.757 190.211C216.623 188.751 216.508 187.273 216.412 185.813C215.413 170.395 219.33 154.745 228.278 150.847C228.528 151.02 241.124 162.119 240.894 172.295C240.875 172.987 240.875 173.678 240.856 174.369C240.856 175.617 240.856 176.865 240.875 178.114C240.952 181.973 241.201 185.833 241.528 189.577C241.566 189.961 241.604 190.364 241.643 190.748C241.7 191.382 241.777 191.996 241.835 192.63C241.931 193.456 242.027 194.281 242.123 195.088C244.177 212.062 239.78 226.329 239.78 226.329Z" fill="#0FAA61"/>
<path d="M239.262 160.411C239.262 160.411 241.624 169.782 242.526 181.572C243.275 191.441 244.293 198.411 244.293 198.411L245.81 203.289L246.424 198.584C246.424 198.584 245.867 185.854 245.137 180.669C244.389 175.446 244.062 168.822 239.895 160.219L239.262 160.411Z" fill="#878787"/>
<path d="M239.013 160.411C239.013 160.411 239.301 160.68 239.704 160.738C240.107 160.795 240.683 160.162 238.629 157.435L239.013 160.411Z" fill="#D44040"/>
<path d="M229.411 149.427C229.411 149.427 235.267 154.938 238.743 156.147L239.415 161.428L228.297 150.828L229.411 149.427Z" fill="#EDDAD3"/>
<path d="M233.33 170.76C231.025 169.935 221.444 165.288 223.998 159.854C226.551 154.42 233.118 157.319 238.072 159.527C243.257 161.832 255.469 168.936 256.429 168.283C257.389 167.63 261.614 161.582 262.382 160.219C263.15 158.874 267.758 150.253 268.2 149.6C268.622 148.966 275.324 154.593 275.324 154.593C275.324 154.593 263.284 175.964 260.058 179.363C256.794 182.781 233.33 170.76 233.33 170.76Z" fill="#0FAA61"/>
<path d="M234.922 253.75C234.442 255.517 233.962 257.111 233.482 258.397L229.68 235.682C230.621 237.832 234.922 253.75 234.922 253.75Z" fill="#181929"/>
<path d="M240.895 178.114L229.873 169.109C232.792 170.664 239.973 173.948 240.876 174.351C240.856 175.599 240.876 176.866 240.895 178.114Z" fill="#2ECC82"/>
<path d="M238.666 149.696C238.628 150.022 238.589 150.406 238.551 150.809C238.532 151.059 238.513 151.309 238.493 151.577C234.845 151.328 232.022 148.428 231.85 148.236C233.328 149.446 238.666 149.696 238.666 149.696Z" fill="#A77860"/>
<g opacity="0.95">
<path d="M381.837 65.9576H387.616L385.85 62.29H380.051L381.837 65.9576Z" fill="url(#paint2_linear_565_2582)"/>
<path d="M379.108 65.9576H380.491L378.724 62.29H377.342L379.108 65.9576Z" fill="url(#paint3_linear_565_2582)"/>
<path d="M359.12 61.5795H382.565L381.778 59.7554H358.352L359.12 61.5795Z" fill="url(#paint4_linear_565_2582)"/>
</g>
<path d="M233.251 2.99547H224.399C224.092 2.99547 223.861 2.74584 223.861 2.45782V0.537648C223.861 0.230421 224.111 0 224.399 0H233.251C233.558 0 233.789 0.249623 233.789 0.537648V2.45782C233.789 2.76505 233.558 2.99547 233.251 2.99547Z" fill="url(#paint5_linear_565_2582)"/>
<path d="M233.251 10.1771H224.399C224.092 10.1771 223.861 9.92748 223.861 9.63946V7.71929C223.861 7.41206 224.111 7.18164 224.399 7.18164H233.251C233.558 7.18164 233.789 7.43126 233.789 7.71929V9.63946C233.789 9.94668 233.558 10.1771 233.251 10.1771Z" fill="url(#paint6_linear_565_2582)"/>
<path d="M233.251 17.3587H224.399C224.092 17.3587 223.861 17.1091 223.861 16.8211V14.9009C223.861 14.5937 224.111 14.3633 224.399 14.3633H233.251C233.558 14.3633 233.789 14.6129 233.789 14.9009V16.8211C233.789 17.1091 233.558 17.3587 233.251 17.3587Z" fill="url(#paint7_linear_565_2582)"/>
<path d="M240.183 2.99547H238.436C238.129 2.99547 237.898 2.74584 237.898 2.45782V0.537648C237.898 0.230421 238.148 0 238.436 0H240.183C240.491 0 240.721 0.249623 240.721 0.537648V2.45782C240.721 2.76505 240.491 2.99547 240.183 2.99547Z" fill="url(#paint8_linear_565_2582)"/>
<path d="M240.183 10.1766H238.436C238.129 10.1766 237.898 9.92699 237.898 9.63897V7.7188C237.898 7.41157 238.148 7.18115 238.436 7.18115H240.183C240.491 7.18115 240.721 7.43077 240.721 7.7188V9.63897C240.721 9.94619 240.491 10.1766 240.183 10.1766Z" fill="url(#paint9_linear_565_2582)"/>
<path d="M240.183 17.3587H238.436C238.129 17.3587 237.898 17.1091 237.898 16.8211V14.9009C237.898 14.5937 238.148 14.3633 238.436 14.3633H240.183C240.491 14.3633 240.721 14.6129 240.721 14.9009V16.8211C240.721 17.1091 240.491 17.3587 240.183 17.3587Z" fill="url(#paint10_linear_565_2582)"/>
<path d="M195.58 172.719H205.969L202.8 166.133H192.412L195.58 172.719Z" fill="url(#paint11_linear_565_2582)"/>
<path d="M190.723 172.719H193.2L190.012 166.133H187.535L190.723 172.719Z" fill="url(#paint12_linear_565_2582)"/>
<defs>
<linearGradient id="paint0_linear_565_2582" x1="50.9219" y1="349.683" x2="65.5131" y2="286.783" gradientUnits="userSpaceOnUse">
<stop stop-color="#C9C4C1"/>
<stop offset="1" stop-color="#FFF6DE"/>
</linearGradient>
<linearGradient id="paint1_linear_565_2582" x1="48.1012" y1="300.598" x2="83.9701" y2="300.598" gradientUnits="userSpaceOnUse">
<stop stop-color="#C9C4C1"/>
<stop offset="1" stop-color="#FFF6DE"/>
</linearGradient>
<linearGradient id="paint2_linear_565_2582" x1="380.056" y1="64.1246" x2="387.615" y2="64.1246" gradientUnits="userSpaceOnUse">
<stop stop-color="#D1D7E0"/>
<stop offset="1" stop-color="#EBEBFF"/>
</linearGradient>
<linearGradient id="paint3_linear_565_2582" x1="377.346" y1="64.1246" x2="380.497" y2="64.1246" gradientUnits="userSpaceOnUse">
<stop stop-color="#D1D7E0"/>
<stop offset="1" stop-color="#EBEBFF"/>
</linearGradient>
<linearGradient id="paint4_linear_565_2582" x1="358.343" y1="60.6671" x2="382.557" y2="60.6671" gradientUnits="userSpaceOnUse">
<stop stop-color="#D1D7E0"/>
<stop offset="1" stop-color="#EBEBFF"/>
</linearGradient>
<linearGradient id="paint5_linear_565_2582" x1="223.866" y1="1.50651" x2="233.798" y2="1.50651" gradientUnits="userSpaceOnUse">
<stop stop-color="#D1D7E0"/>
<stop offset="1" stop-color="#EBEBFF"/>
</linearGradient>
<linearGradient id="paint6_linear_565_2582" x1="223.866" y1="8.68352" x2="233.798" y2="8.68352" gradientUnits="userSpaceOnUse">
<stop stop-color="#D1D7E0"/>
<stop offset="1" stop-color="#EBEBFF"/>
</linearGradient>
<linearGradient id="paint7_linear_565_2582" x1="223.866" y1="15.8606" x2="233.798" y2="15.8606" gradientUnits="userSpaceOnUse">
<stop stop-color="#D1D7E0"/>
<stop offset="1" stop-color="#EBEBFF"/>
</linearGradient>
<linearGradient id="paint8_linear_565_2582" x1="237.899" y1="1.50651" x2="240.725" y2="1.50651" gradientUnits="userSpaceOnUse">
<stop stop-color="#D1D7E0"/>
<stop offset="1" stop-color="#EBEBFF"/>
</linearGradient>
<linearGradient id="paint9_linear_565_2582" x1="237.899" y1="8.68303" x2="240.725" y2="8.68303" gradientUnits="userSpaceOnUse">
<stop stop-color="#D1D7E0"/>
<stop offset="1" stop-color="#EBEBFF"/>
</linearGradient>
<linearGradient id="paint10_linear_565_2582" x1="237.899" y1="15.8606" x2="240.725" y2="15.8606" gradientUnits="userSpaceOnUse">
<stop stop-color="#D1D7E0"/>
<stop offset="1" stop-color="#EBEBFF"/>
</linearGradient>
<linearGradient id="paint11_linear_565_2582" x1="192.405" y1="169.423" x2="205.974" y2="169.423" gradientUnits="userSpaceOnUse">
<stop stop-color="#D1D7E0"/>
<stop offset="1" stop-color="#EBEBFF"/>
</linearGradient>
<linearGradient id="paint12_linear_565_2582" x1="187.544" y1="169.423" x2="193.2" y2="169.423" gradientUnits="userSpaceOnUse">
<stop stop-color="#D1D7E0"/>
<stop offset="1" stop-color="#EBEBFF"/>
</linearGradient>
</defs>
</svg>
