<svg width="402" height="326" fill="none" xmlns="http://www.w3.org/2000/svg"><path opacity=".95" d="M235.856 153.897h-79.039c-6.244 0-11.313-5.069-11.313-11.313v-79.04c0-6.244 5.069-11.313 11.313-11.313h79.039c6.245 0 11.314 5.07 11.314 11.314v79.039c-.019 6.264-5.069 11.313-11.314 11.313Z" fill="#CCC"/><path d="M220.121 130.58h-47.568v2.798h47.568v-2.798Zm-6.529 7.462h-34.51v2.798h34.51v-2.798Z" fill="#131313"/><path opacity=".95" d="M388.787 250.9H277.172c-7.304 0-13.213-5.953-13.213-13.312V100.986c0-7.359 5.909-13.311 13.213-13.311h111.615c7.305 0 13.214 5.952 13.214 13.311v136.602c0 7.359-5.909 13.312-13.214 13.312Z" fill="#D6D6D6"/><path d="M337.499 183.779h-11.003v2.036h11.003v-2.036Zm11.251 18.646h-63.98v3.936h63.98v-3.936Zm-12.251 18.933H284.77v3.936h51.729v-3.936Zm-21.41-9.467H284.77v3.936h30.319v-3.936Z" fill="#131313"/><path d="M365.477 104.015v1.997h11.733v11.003h1.997v-13h-13.73Zm-79.61 13h1.997v-11.003h11.732v-1.997h-13.71v13h-.019Zm91.323 56.76v11.002h-11.732v1.997h13.71v-12.999h-1.978Zm-89.326 0h-1.997v12.999h13.71v-1.997h-11.732v-11.002h.019Z" fill="#0FAA61"/><path d="M372.984 225.601c-6.471 0-11.732-5.261-11.732-11.732 0-6.471 5.261-11.732 11.732-11.732 6.471 0 11.732 5.261 11.732 11.732-.019 6.471-5.28 11.732-11.732 11.732Zm0-21.179c-5.223 0-9.447 4.243-9.447 9.447 0 5.223 4.244 9.447 9.447 9.447 5.223 0 9.447-4.243 9.447-9.447 0-5.223-4.243-9.447-9.447-9.447Z" fill="#131313"/><path d="m372.238 218.477-5.338-5.319 1.613-1.613 3.725 3.725 5.223-5.223 1.594 1.613-6.817 6.817Z" fill="#131313"/><path d="M379.615 316.656c0 4.889-84.989 8.861-189.808 8.861C84.97 325.517 0 321.545 0 316.656c0-4.889 84.989-8.861 189.807-8.861 104.819.02 189.808 3.972 189.808 8.861ZM61.877 291.06c5.684-3.994 12.328-31.855 12.731-48.446.211-8.506 2.708-12.039 4.935-15.169 2.112-2.995 3.956-5.568 2.88-11.483-2.035-11.309 3.322-16.206 3.38-16.244l-.615-.711c-.23.212-5.818 5.242-3.686 17.128.998 5.53-.653 7.854-2.727 10.772-2.189 3.073-4.896 6.894-5.108 15.688-.422 17.8-7.22 44.106-12.327 47.697l.537.768Z" fill="#0FAA61"/><path d="M49.974 282.937c-.538-1.209-1.095-2.477-1.729-3.801-3.245-6.855-6.125-7.988-10.887-9.851a89.948 89.948 0 0 1-3.936-1.632c-6.817-3.072-5.511-7.585-4.34-11.579.154-.557.326-1.113.46-1.67.596-2.343-.556-3.514-2.303-5.3-1.306-1.325-2.919-2.976-4.167-5.568-1.363-2.842-.672-4.378.154-5.146 1.728-1.633 5.722-1.345 9.485.71 1.172.634 2.132 1.651 3.15 2.727 2.4 2.515 5.395 5.645 12.96 5.683 4.32.02 6.683.615 7.892 1.997 1.383 1.556 1.133 3.898.768 7.124a57.968 57.968 0 0 0-.345 3.764c-.519 8.16 4.3 14.055 4.358 14.113 2.88 3.437 6.433 10.542 4.897 14.939-.634 1.843-2.074 2.995-4.263 3.437-.864.173-1.67.269-2.4.269-5.261-.019-7.2-4.397-9.755-10.216Zm-17.666-43.011c-3.36-1.844-6.97-2.209-8.391-.864-1.076 1.017-.576 2.784.038 4.07 1.172 2.458 2.67 3.975 3.975 5.319 1.824 1.863 3.264 3.341 2.535 6.202a27.788 27.788 0 0 1-.48 1.69c-1.153 3.975-2.266 7.719 3.82 10.465a91.843 91.843 0 0 0 3.899 1.613c4.8 1.882 7.987 3.13 11.386 10.33a147.71 147.71 0 0 1 1.728 3.822c2.938 6.663 4.724 10.695 11.137 9.389 1.844-.365 3.034-1.325 3.572-2.822 1.344-3.86-1.882-10.619-4.724-14.018-.21-.249-5.107-6.221-4.57-14.785.096-1.382.23-2.669.365-3.802.327-2.995.576-5.146-.538-6.394-1.017-1.133-3.245-1.651-7.2-1.671-7.969-.038-11.099-3.321-13.633-5.971-1.018-1.076-1.882-1.997-2.919-2.573Z" fill="#0FAA61"/><path d="m62.05 298.568.941-.058c-.038-.883-1.228-21.679-9.581-27.746-9.16-6.683-12.04-13.845-13.422-18.664-1.613-5.665-9.87-7.182-10.216-7.259l-.172.922c.076.019 8.026 1.479 9.485 6.586 1.421 4.954 4.378 12.328 13.768 19.163 8.007 5.819 9.197 26.844 9.197 27.056Z" fill="#0FAA61"/><path d="M60.476 303.234c-1.959-.979-1.901-4.915-1.786-10.868.135-7.527.327-17.819-3.61-27.305-4.186-10.061-.46-12.999 3.15-15.86 4.032-3.188 7.853-6.203.537-19.778-3.36-6.241-4.436-10.465-3.36-13.288 1.056-2.784 4.032-3.878 7.181-5.031 5.434-1.977 11.579-4.243 10.791-15.726-.25-3.514.173-5.683 1.306-6.816 1.229-1.229 3.053-1.095 5.146-.941 3.168.23 6.76.499 9.89-3.591.325-1.018 3.321-10.119 6.892-11.694.75-.326 1.498-.326 2.19.019 2.476 1.191 3.897 2.593 4.377 4.282.826 2.957-1.344 6.299-3.84 10.158-3.936 6.068-8.41 12.961-3.783 21.16 6.126 10.83 2.9 14.632-1.593 19.874-2.573 3.015-5.473 6.414-7.431 11.963-1.575 4.474 1.113 8.737 3.686 12.846 3.245 5.165 6.587 10.522-.46 15.15-11.656 7.661-23.177 32.7-23.292 32.95l-.039.096-.096.077c-2.15 1.69-3.705 2.477-4.896 2.477a1.49 1.49 0 0 1-.96-.154Zm28.764-36.176c6.279-4.128 3.456-8.641.192-13.863-2.573-4.11-5.492-8.776-3.783-13.653 1.997-5.722 4.974-9.197 7.604-12.27 4.397-5.146 7.297-8.544 1.479-18.798-4.916-8.699-.077-16.149 3.802-22.121 2.381-3.667 4.454-6.855 3.725-9.389-.403-1.421-1.671-2.631-3.879-3.687-.442-.211-.902-.211-1.402 0-3.322 1.44-6.375 11.079-6.394 11.176l-.02.076-.057.058c-3.456 4.551-7.508 4.263-10.753 4.032-1.939-.134-3.475-.249-4.416.672-.922.903-1.248 2.9-1.037 6.087.845 12.193-5.952 14.67-11.406 16.667-3.072 1.114-5.703 2.093-6.624 4.474-.96 2.554.076 6.529 3.302 12.501 7.7 14.286 3.4 17.684-.768 20.968-3.494 2.746-6.778 5.338-2.86 14.747 4.012 9.658 3.82 20.066 3.686 27.669-.096 5.185-.173 9.294 1.267 10.005.845.422 2.439-.288 4.762-2.093.922-2.036 11.963-25.615 23.58-33.258Z" fill="#0FAA61"/><path d="M42.079 194.13c5.933-2.036 4.704 9.409 7.2 17.857 2.516 8.468 27.881 3.687 17.244 24.867-10.657 21.179 13.48 7.085 6.26 25.576-7.201 18.491-.634 38.25-8.468 33.238-7.835-5.03-4.398-28.303-12.54-31.068-8.14-2.765-9.485-5.991-1.4-13.518 8.083-7.527-21.142-14.977-13.922-30.166 7.181-15.188-1.229-24.444 5.626-26.786Z" fill="#0FAA61"/><path d="M61.591 294.439c.749-3.168 7.124-31.011 1.171-34.39-5.242-2.976-5.107-14.517-4.3-25.404.729-9.639-11.675-14.152-12.194-14.344l-.307.884c.115.038 12.231 4.454 11.579 13.383-.845 11.195-.922 23.061 4.762 26.287 4.512 2.554.364 24.943-1.633 33.354l.922.23Z" fill="#fff"/><path d="m83.978 284.531-8.487 32.125H56.577l-8.468-32.125h35.87Z" fill="url(#a)"/><path d="M83.978 284.531s-18.645 3.495-18.645 32.144h-8.756l-8.468-32.144h35.87Z" fill="url(#b)"/><path opacity=".95" d="M321.832 82.078h-56.054c-5.123 0-9.282-4.156-9.282-9.275V24.199c0-5.119 4.159-9.275 9.282-9.275h56.054c5.122 0 9.281 4.156 9.281 9.275v48.605c.019 5.119-4.14 9.275-9.281 9.275Z" fill="#CCC"/><path d="M296.809 69.491h-5.895v1.095h5.895V69.49Zm15.018-42.205v1.075h6.298v5.914h1.075v-6.97h-7.373v-.02Zm-42.724 6.97h1.075v-5.914h6.299v-1.075h-7.355v6.989h-.019Zm49.022 30.473v5.914h-6.298v1.076h7.354v-6.97h-1.056v-.02Zm-47.966 0h-1.075v6.97h7.354v-1.075h-6.298v-5.895h.019Zm-69.857 54.84h-7.892v1.46h7.892v-1.46Zm19.664-56.375v1.42h8.41v7.893h1.421v-9.313h-9.831Zm-57.068 9.313h1.421v-7.892h8.411v-1.421h-9.832v9.313Zm65.478 40.707v7.892h-8.41v1.421h9.831v-9.313h-1.421Zm-64.057 0h-1.421v9.313h9.832v-1.421h-8.411v-7.892Z" fill="#0FAA61"/><path d="M374.829 165.595h-13.153c-.864-6.298-1.92-13.48-1.92-13.48s-.537 5.933-1.171 13.48h-52.613c-.48-6.798-1.056-11.867-1.267-11.982-.307-.154-2.17 5.876-3.744 11.982h-14.248c3.667-15.784 10.503-41.111 14.44-42.628 5.626-2.17 28.552-9.236 28.552-9.236h13.096s23.253 6.644 25.423 13.844c1.709 5.761 5.492 24.713 6.605 38.02Z" fill="#181818"/><path d="M336.848 71.276s12.213 1.92 10.369 21.046c-1.862 19.124-12.653 17.55-13.364 17.531-.73-.02-10.83.345-11.617-23.004-.019.02-.365-17.243 14.612-15.573Z" fill="#EEA987"/><path d="M342.551 104.227s-.327 7.872.422 9.562c.749 1.69-10.081 7.162-16.705 1.075 0 0 1.593-8.544 1.152-11.578-.442-3.015 15.131.941 15.131.941Zm4.84-17.301s1.344-1.421 1.824.019c.499 1.44-2.074 7.911-1.901 8.199 0 0-.25.557-.557.25-.326-.308.634-8.468.634-8.468Zm-25.022-.23s-1.305-1.459-1.824-.019c-.518 1.44 1.92 7.95 1.748 8.238 0 0 .23.556.556.268.327-.307-.48-8.487-.48-8.487Z" fill="#EEA987"/><path d="m347.39 89.864-1.748 2.343s.058-5.127-.23-5.933c-.288-.807-.71-3.265-.941-3.84-.23-.577-10.503-3.457-19.547.844 0 0 .403 3.687-.461 4.013-.864.327-.442 6.01-.442 6.01l-1.44-1.632s-2.208-14.708-1.651-16.245c.538-1.536 2.285-10.752 20.872-5.28 0 0 5.799-1.229 6.951 2.765 1.133 4.013-1.363 16.955-1.363 16.955Z" fill="#878787"/><path d="M342.974 113.789s2.765.595-8.775 11.636c0 0-8.18-9.044-7.911-10.561.249-1.498 16.686-1.075 16.686-1.075Z" fill="#EEA987"/><path d="m334.199 125.445 3.149 5.376 9.332-15.86-4.032-2.804-8.449 13.288Zm-.002 0-7.643-12.155-4.339 2.784 7.777 14.747 4.205-5.376Z" fill="#0FAA61"/><path d="M331.838 159.124c.096 1.786.134 3.994.134 6.471h-.442c0-2.458-.038-4.647-.134-6.433-.71-13.479 2.554-29.897 2.573-33.756l.423.077c-.02 3.84-3.265 20.219-2.554 33.641Z" fill="#0FAA61"/><path d="M328.574 107.606s2.9 3.072 7.009 2.246c4.109-.825 5.914-2.688 5.914-2.688s-1.613 4.052-6.356 4.436c-4.743.364-6.567-3.994-6.567-3.994Z" fill="#C78D71"/><path d="M186.981 63.73h-.019c-.269-.058-.71-1.383-.806-1.651a5.82 5.82 0 0 0-.115-.384c-.346-1.056-1.153-3.534-.826-4.494.096-.307.25-.48.461-.518.441-.096.941.46.96.5l.019.018v.02c.115 1.037.672 6.26.422 6.49-.038 0-.076.019-.096.019Zm-1.228-6.97h-.077c-.173.038-.288.192-.384.441-.308.922.518 3.457.825 4.417.058.192.096.326.116.384.211.633.556 1.536.729 1.574h.019c.154-.21-.192-4.032-.46-6.394-.058-.038-.442-.422-.768-.422Z" fill="#EEA886"/><path d="M196.061 42.953s6.721-.71 9.16 5.8c2.419 6.49 4.704 8.62 4.992 12.039 1.152 13.806 7.604 10.676 5.78 18.645-1.805 7.95-3.072 9.159-3.072 9.159l-15.419-3.015-15.611.058s6.106-3.053 4.742-9.543c-1.363-6.49-4.742-17.148-2.841-24.387 1.939-7.296 8.237-8.218 12.269-8.756Z" fill="#2F2F2F"/><path d="M204.278 63.73c-.038 0-.057-.02-.077-.039-.23-.23.308-5.453.423-6.49v-.019l.019-.02c.019-.018.518-.575.96-.498.211.038.365.21.461.518.307.94-.48 3.418-.826 4.493-.057.192-.096.327-.115.384-.077.269-.518 1.594-.806 1.652-.02.019-.039.019-.039.019Zm.442-6.51c-.25 2.362-.615 6.183-.461 6.395h.019c.154-.039.519-.96.73-1.594.019-.077.057-.211.115-.384.307-.96 1.133-3.514.826-4.417-.096-.268-.212-.422-.384-.441-.346-.077-.768.365-.845.441Z" fill="#EEA886"/><path d="M227.687 105.014h-9.601c-1.997-3.629-3.61-6.47-3.61-6.47s-1.287 2.361-2.304 6.47h-32.336c-.499-2.553-.518-5.011-.422-6.759 0 0-1.729 3.13-3.726 6.759H164.82c2.881-5.395 8.276-15.227 9.505-16.513 1.536-1.613 10.465-7.796 16.859-9.812 6.375-2.016 10.004-.077 10.004-.077s6.548 1.171 12.616 3.59c2.381.96 8.967 13.096 13.883 22.812Z" fill="#0FAA61"/><path d="M196.945 46.737s8.91 1.286 7.604 14.44c-1.305 13.153-9.159 12.116-9.697 12.097-.518-.02-7.891.268-8.525-15.784 0 .019-.288-11.848 10.618-10.753Z" fill="#8E4F3A"/><path d="M200.899 70.95s-.556 6.836.768 8.89c1.325 2.055-1.132 4.84-6.163 3.88-5.031-.96-4.743-3.802-4.743-3.802s1.402-4.225.998-7.604c-.422-3.38 9.14-1.364 9.14-1.364Z" fill="#8E4F3A"/><path d="M195.926 51.519s4.167 4.378 6.087 6.586c1.94 2.208 2.151 6.49 2.151 6.49s3.264-3.975 1.901-8.602c-1.363-4.628-4.589-13.653-12.75-10.869-8.161 2.765-8.468 14.958-7.508 21.007.019-.02 3.687-13.364 10.119-14.612Z" fill="#2F2F2F"/><path d="M204.03 79.226s-6.183 15.65-9.927 18.376c0 0-4.935-15.956-4.59-18.299 0 0 7.431-2.918 14.517-.077Z" fill="#8E4F3A"/><path d="M190.973 75.443s-11.022 9.793-8.161 15.918c2.439 5.223 11.099 2.016 9.658-3.456-1.42-5.454-1.497-12.462-1.497-12.462Z" fill="#2F2F2F"/><path d="M192.412 72.678s3.802 1.786 7.489-.864c0 0-1.018 2.113-3.745 2.42-2.726.307-3.744-1.555-3.744-1.555Z" fill="#633029"/><path d="M290.169 36.483s-3.648 13.748-4.416 16.84c-.231.94-.96 2.554-1.882 4.378 0 .019-.019.019-.019.038a4.094 4.094 0 0 0-.346 1.114c-.153 1.152.288 2.054-.461 3.418l-.134.576h-7.239c.845-2.516 1.92-5.703 2.765-8.257.71-2.17 1.286-3.898 1.44-4.397.442-1.498 2.093-6.317 3.476-9.524.48-1.114 2.361-2.227 4.013-3.015 1.497-.71 2.803-1.171 2.803-1.171Z" fill="#323657"/><path d="M285.328 16.84s-2.304-14.9 10.043-14.632c12.347.269 12.193 7.642 11.963 14.958-.231 7.316-4.954 6.76.384 16.955 5.338 10.177-4.628 10.177-4.628 10.177l-7.719-10.618-10.043-16.84Z" fill="#2F2F2F"/><path d="M294.028 3.648s-8.372 1.325-8.698 13.21c-.326 11.887 2.247 14.421 9.582 11.944 7.315-2.477 9.62-14.9 9.792-16.84.154-1.939.596-9.754-10.676-8.314Z" fill="#EEA886"/><path d="M308.719 44.97c.039 4.09-4.666 13.863-5.395 16.897-.077.346-.173.672-.269.98h-22.831c-.115-1.402-.23-2.612-.288-3.303-.173-2.228-2.439-7.047-2.362-9.294.077-2.285 1.191-4.263 2.765-6.682a78.5 78.5 0 0 1 1.517-2.266c1.671-2.438 3.322-4.647 4.129-5.415.614-.556 1.171-.998 1.67-1.325 1.018-.69 1.709-.902 1.709-.902l7.181-1.152s4.474 1.632 7.067 2.227c0 0 5.031.73 5.107 10.235Z" fill="#0FAA61"/><path d="m287.654 34.563-4.167 6.567-3.841 6.068c0-.039.269-.941.692-3.61.077-.5.173-1.075.269-1.71.019-.191.076-.383.115-.556 1.651-3.802 6.74-6.663 6.932-6.759Z" fill="#E55353"/><path d="M299.616 23.426c-.73 1.363-1.498 9.87-1.498 9.87s-10.234 3.859-9.178 1.67c.48-.999.614-2.285.614-3.399 0-.883-.057-1.632-.115-2.074-.019-.23-.038-.345-.038-.345s10.925-7.086 10.215-5.722Z" fill="#EEA886"/><path d="M290.611 12.173s4.282 6.99 8.199 9.736c3.898 2.745 1.92 4.954 1.92 4.954s10.196-21.449.499-22.946c-9.697-1.479-15.63-1.594-15.899 12.922 0 0 4.397-4.78 5.281-4.666Z" fill="#2F2F2F"/><path d="M295.277 28.648c-1.575 2.324-5.722 2.938-5.722 2.938 0-.883-.058-1.632-.116-2.073 2.669.518 5.838-.865 5.838-.865Z" fill="#A77860"/><path d="M280.741 41.264s-.23.461-.403 2.305l1.498-2.266s2.688-3.86 3.61-4.858c.921-.999 2.189-1.882 2.189-1.882s-5.281 2.554-6.894 6.701Z" fill="#EBEEFF"/><path d="M301.093 47.025s6.567-2.573 8.507-2.727c0 0-1.325-10.542-7.777-9.428-6.433 1.133-.73 12.155-.73 12.155Z" fill="#E55353"/><path d="M289.363 33.66s-4.82 7.412-3.188 8.065c1.632.653 10.465-.864 14.21-7.911 0 0-5.607-2.88-11.022-.154Z" fill="#EEA886"/><path d="M309.601 44.298c-.327 5.818-1.978 11.33-3.341 16.38-.192.729-.384 1.459-.557 2.169h-13.365a91.249 91.249 0 0 1 .039-5.242c.672-16.13 5.779-24.617 5.779-24.617s1.633.557 6.337 1.882c3.226.903 4.436 5.012 4.877 7.489v.038c.192 1.114.231 1.901.231 1.901ZM289.363 33.66c-.057.097-.941 1.575-1.978 3.995-1.574 3.629-3.552 9.37-3.725 15.707-.057 2.035-.461 5.319-1.075 9.485h-2.669a42.823 42.823 0 0 0-1.459-8.257c-.365-1.305-.692-2.265-.884-2.88-.845-2.9 1.863-6.74 2.785-8.122.883-1.383 3.072-7.72 9.005-9.927Z" fill="#000"/><path d="M313.863 62.847h-7.181c0-.46-.154-1.229-.423-2.17-1.306-4.627-5.165-13.652-5.165-13.652s-5.78-9.428-.307-11.848c5.472-2.4 7.834 4.32 8.564 7.182v.038c.192.692 3.456 13.115 4.512 20.45Z" fill="#000"/><path d="M196.805 197.413s2.515-.038 3.399-.998c.902-.96 2.477-1.824 2.976-2.074.672-.327 2.554-2.151 2.784-1.267.231.883-2.976 3.149-3.591 3.744-.614.614 2.669.864 3.149 1.459.48.596-1.19 6.798-3.379 6.318-2.189-.48-3.975-2.689-4.397-2.689-.423 0-1.613-.268-1.613-.268l.672-4.225Z" fill="#EEA886"/><path d="M205.062 198.028s6.529 1.997 6.798 2.554c.268.557.096.979-.538.826a1487.1 1487.1 0 0 1-6.394-1.709s7.143 3.898 7.45 4.282c.192.23-.134 1.037-.48.998-.346-.038-7.7-3.418-7.7-3.418s6.663 3.649 6.817 4.09c.153.384-.307 1.076-.826.845-.518-.23-6.932-3.187-6.932-3.187s4.628 3.034 4.57 3.533c-.038.307-.288 1.018-1.459.192-1.171-.826-4.167-2.419-4.167-2.419l2.861-6.587Z" fill="#EEA886"/><path d="M183.061 307.554s2.093 3.13 5.031 3.802c2.938.672 5.837 1.747 5.857 3.61.019 1.862-8.488 2.957-11.848 1.094-5.012-2.784-5.53-1.939-6.087-3.341-.557-1.401.672-5.127.634-5.568-.039-.538 6.413.403 6.413.403Z" fill="#353A3D"/><path d="M182.731 305.999s.384 1.517.326 1.536c-.058.02-6.625.807-6.413-.403.153-.979.384-2.054.384-2.054l5.703.921Z" fill="#81807E"/><path d="M141.851 307.343s1.498 2.995 4.051 4.013c2.727 1.094 4.916 2.342 4.858 4.147-.057 1.805-6.663 3.63-11.482.173-3.034-2.189-4.013-2.208-4.493-3.571-.48-1.383.844-4.974.825-5.396-.019-.538 6.241.634 6.241.634Z" fill="#353A3D"/><path d="M141.929 305.788s-.019 1.536-.076 1.555c-.058.038-6.394.557-6.241-.634.135-.941.615-2.093.615-2.093l5.702 1.172Z" fill="#81807E"/><path d="M165.18 214.215s8.334 31.913 11.502 39.305c2.938 6.836 3.917 16.399 4.32 21.199.519 6.049 3.534 29.571 3.898 31.337.365 1.767-9.792.98-9.792.98s-7.009-40.67-9.909-46.603c-1.939-3.956-13.191-32.374-14.497-30.723-1.286 1.632-2.88 30.089-3.84 34.813-.96 4.724-3.879 42.052-3.879 42.052s-6.548.96-8.295-.519c0 0-.787-31.875-.192-40.727.23-3.379-3.956-40.477 1.421-55.416 2.823-7.892 29.263 4.302 29.263 4.302Z" fill="#2D3133"/><path d="M118.769 191.326c0 .365.691 1.824 1.786 3.917 1.613-3.226 2.88-5.857 3.283-6.836 1.364-3.207 8.353-10.542 8.353-10.542v.058c0 .019.019.038.019.058 0 .019 0 .019.02.038v.038c.384 1.421 2.726 10.273 2.803 14.651.096 4.743 1.344 13.538 1.344 13.538l1.459.211 3.226.461.384.057.941.135 8.564 1.209 3.034.423.403.057 1.729.25 4.8.672 1.229.173h.019l.922.134 1.267.173c.038-.038 1.229-1.69 1.056-5.319-.115-2.342-.403-6.759-.288-10.849v-.269c.077-2.246.269-4.378.691-5.991.288-1.094.48-2.189.596-3.206 0-.058.019-.096.019-.154.019-.192.038-.384.057-.557.269-2.842.058-4.992.039-5.127v.02c.096.192.71 2.477 1.536 5.299 1.383 4.782 3.322 11.099 4.148 11.406 1.209.442 20.661 6.202 24.847 6.798.48.076.768.057.787-.02.019-.057.038-.115.057-.192.519-1.689 1.21-4.55 1.325-5.011.02-.039.02-.058.02-.058l-.749-.23-21.161-6.337-9.677-27.9c-.211-.154-2.573-1.306-4.321-2.131-1.766-.845-3.898-2.074-5.837-3.13-.979-.538-1.92-1.037-2.727-1.402l-.115-.058a466.175 466.175 0 0 0-2.208-1.017 9.64 9.64 0 0 1-.576-.058c-1.863-.173-7.642-.71-9.562-.826-.154-.019-.289-.019-.404-.019h-.192c-.249.019-1.44.423-2.995 1.018a.657.657 0 0 0-.173.077c-.077.019-.154.057-.23.077-.135.057-.269.096-.423.153l-.864.346c-.096.038-.211.077-.307.115-3.13 1.248-6.721 2.784-7.566 3.399-.557.403-2.323 3.706-4.358 7.796-2.612 8.391-5.934 21.237-6.049 24.405.019-.019.019.038.019.077Z" fill="#D6D6D6"/><path d="M164.357 210.183s.652.768.825 4.032c0 0-26.479-3.092-29.282-4.301 0 0-.116-3.591.48-3.668.652-.057 27.977 3.937 27.977 3.937Z" fill="#495055"/><path d="M141.773 152.904c.077 4.148 8.123 6.433 8.123 6.433s3.36-4.224 2.554-4.628c-.308-.153-.442-.787-.48-1.497-.039-.672 0-1.421.038-1.882.019-.288.038-.48.038-.48s-1.152-1.21-2.611-2.65c-2.554-2.535-6.068-5.761-6.068-4.474 0 .077 0 .154.039.25.614 2.88-1.633 8.928-1.633 8.928Z" fill="#EEA886"/><path d="M142.427 206.899s-.576 3.649-.634 4.59l-1.229-.25s.346-3.86.538-4.512l1.325.172Zm19.722 2.861s.46 3.322.48 4.57l-1.306-.173s-.269-4.147-.423-4.57l1.249.173Z" fill="#353A3D"/><path d="M144.867 146.817c.019.019.365.538.941 1.267 1.229 1.556 3.552 4.109 6.164 5.127-.039-.672 0-1.421.038-1.882.269 0 .538-.038.807-.096-.711-1.248-1.748-2.554-1.748-2.554l-1.613-.48-4.589-1.382Z" fill="#A77860"/><path d="M143.328 143.763c.691 1.517 1.363 2.612 1.536 3.053.115.289.461.749.941 1.268 1.325 1.421 3.783 3.322 6.221 3.245a3.9 3.9 0 0 0 .807-.096c.979-.211 2.131-.672 2.765-1.92 5.012-9.832 1.382-17.877 1.382-17.877s-13.729-3.879-15.879.25c-1.517 2.918.576 8.525 2.227 12.077Z" fill="#EEA886"/><path d="M156.98 131.455s1.268-.076 1.594-2.496c.307-2.381-.326-3.053-.326-3.053s-5.665-2.381-7.7-2.688c-2.035-.307-7.047-.595-8.218.73 0 0-2.842-.653-3.63 4.07-1.228 7.508 4.206 14.805 4.206 14.805s-.039-4.897 1.037-5.549c1.075-.653 2.016.902 2.016.902l2.208.403s-3.36-7.258.672-7.527c4.032-.269 5.837.826 8.141.403Z" fill="#252E3B"/><path d="M145.883 136.218c-.211-2.17-4.109-2.976-3.86-.73.269 2.266 2.189 4.436 3.072 4.359.903-.058.961-1.978.788-3.629Z" fill="#EEA886"/><path d="M120.557 195.262c1.709 3.245 4.378 8.027 7.047 12.654-.346.653-.692 1.306-1.018 1.94-.807 1.555-1.498 3.072-2.016 4.474-.596 1.689-1.44 6.029.173 6.835l8.468 4.686s.057-.173.172-.48c.288-.768.884-2.381 1.728-4.494.02-.076.116-.268.231-.556.173-.404.403-.961.691-1.613.115-.288.25-.596.384-.903.154-.365.307-.73.48-1.094.231-.538.461-1.076.672-1.575.576-1.344 1.037-2.4 1.037-2.4.019-.058.058-.115.077-.192a75.77 75.77 0 0 1 .845-1.786c.442-.922.902-1.843 1.363-2.746.039-.096.096-.192.135-.269.076-.153.172-.307.249-.48.058-.096.096-.192.154-.288.019-.019.019-.038.038-.057l.058-.115c2.458-4.474 5.204-8.2 6.087-13.691.077-.538.173-1.056.249-1.575.135-.864.25-1.728.346-2.573.038-.326.077-.633.115-.941.442-3.648.711-6.912.922-9.178.672-7.066-3.668-14.728-6.989-19.451-1.786-2.535-3.265-4.225-3.553-4.532l-.019-.019a.657.657 0 0 0-.173.077c-.077.019-.153.057-.23.076-.135.058-.269.096-.423.154l-.864.346c-.096.038-.211.076-.307.115-3.226 1.267-10.004 3.13-10.849 3.744-.499.346-1.594 3.572-2.861 7.642-2.611 8.392-4.167 21.046-4.244 24.195v.134c.039.365.73 1.824 1.825 3.936Zm12.884-1.574c0 1.574-.519 3.379-1.306 5.299-.019.039-.038.097-.057.154a200.232 200.232 0 0 1-1.517-3.303c-1.268-2.822-2.132-5.03-2.17-5.895-.307-5.587 3.802-12.039 3.802-12.039v.038c0 .02.019.039.019.058 0 .019 0 .019.019.038v.039c.864 3.322 1.21 15.611 1.21 15.611Z" fill="#3C4145"/><path d="m149.532 214.771-24.156 10.753c-1.363.615-2.976 0-3.571-1.363l-6.606-14.862a2.701 2.701 0 0 1 1.364-3.572l24.156-10.753c1.363-.614 2.976 0 3.571 1.364l6.605 14.862a2.7 2.7 0 0 1-1.363 3.571Z" fill="#B3A5A0"/><path d="M154.736 155.841s1.133 3.764 2.593 13.192c.057.307.096.634.153.96 0 .038.019.077.019.115.039.211.058.442.096.653 0 .019 0 .058.02.077l.057.461c.058.365.115.749.173 1.133.653 4.589 1.575 12.385 2.458 20.257.691 6.202 2.285 12.577 2.784 17.32.096.922.346 2.17.653 3.572.038.153.077.326.115.48 1.421 5.991 4.167 14.478 4.167 14.478l.806-.749 2.381-2.189c.557-.499.749-1.286.538-1.997-1.325-4.243-5.799-19.298-6.625-29.878.404-3.725 1.441-8.698 1.287-9.428.019.019.019.058.019.077.48 1.306.999 2.746 1.517 4.128 1.421 3.726 2.861 7.182 3.456 7.412 1.345.499 25.423 7.604 25.596 6.606.019-.096.039-.212.058-.327.019-.115.038-.23.077-.345.288-1.364.845-3.303 1.209-4.609.058-.192.116-.384.154-.537.154-.538.269-.884.269-.884l-20.354-6.682-10.273-26.863c-.211-.154-2.823-1.575-4.551-2.4a534.519 534.519 0 0 0-6.125-2.861c-.96-.442-1.882-.864-2.65-1.229l-.077.057Z" fill="#3C4145"/><path d="m140.949 165.154 3.917 2.208-1.671 1.709 4.455 24.041c.903-5.646 1.325-10.984 1.632-14.267 1.018-10.926-9.889-23.253-10.561-24.002-.518.192-1.094.422-1.67.653l3.898 9.658Zm13.731-9.427s1.459 4.781 3.168 16.705c.653 4.589 1.575 12.385 2.458 20.258l.902-22.524-1.862-2.016 1.651-2.074-3.552-9.063c-.96-.442-1.882-.864-2.65-1.229l-.115-.057Z" fill="#51565C"/><path d="m138.49 154.92 3.265-1.997s.096 1.786 8.122 6.433l-2.285 6.432-9.102-10.868Zm13.54-1.114s-.135 1.92-2.132 5.53l4.455 5.818.327-9.428-2.65-1.92Z" fill="#F5E2D9"/><path d="M149.877 159.336s-.864 3.457-.557 4.417c0 0 1.901.691 3.264-.173.019 0-.96-2.419-2.707-4.244Z" fill="#0FAA61"/><path d="M154.35 209.165c.48-2.439.019-9.736 0-10.043l-.422.019c0 .077.48 7.566 0 9.947l.422.077Z" fill="#AD9F99"/><path d="M150.975 208.032s3.898.461 5.184.787l-.172 4.359-5.108-.537.096-4.609Z" fill="#69737A"/><path d="M151.818 163.272s4.339 10.984 3.629 23.253c-.73 12.731-1.939 17.359-1.939 17.359l-2.689 3.36-1.19-4.128s3.591-16.245 1.267-32.048c-.422-2.861-1.037-8.295-1.037-8.295l1.959.499Z" fill="#0FAA61"/><path d="M138.76 215.118s.941 1.862 1.863 2.169c.941.308 2.285 1.824 2.285 1.824l-6.567 3.457s-1.748-3.418-1.824-5.588c-.077-2.17 4.243-1.862 4.243-1.862Z" fill="#EEA886"/><path d="m139.375 215.29.442.883s-4.167 3.053-5.3 3.245l-.384-1.171 5.242-2.957Z" fill="#DECBC4"/><path d="M139.816 215.329s-3.13 2.592-5.761 3.782l-11.809-20.699 7.527-4.109c.019 0 9.831 19.47 10.043 21.026Z" fill="#3C4145"/><path d="M166.277 178.73c.154 2.957.116 5.569.116 5.569 0 .019 0 .096.019.23 0-.057.019-.096.019-.153.48 1.305.999 2.746 1.517 4.128.115-1.613.154-3.111.115-4.493-.211-8.257-2.803-12.596-2.803-12.596.595 1.44.883 4.531 1.017 7.315Z" fill="#2D3133"/><path d="M268.811 151.483s-.115-1.517.058-2.227c.307-1.229-.154-3.207 1.401-4.167 1.556-.96 5.972 3.072 6.318 4.186.345 1.133-1.306 3.034-4.762 4.647-3.457 1.613-3.015-2.439-3.015-2.439Z" fill="#EEA886"/><path d="M269.795 145.491s1.498-2.246 3.475-4.55c1.729-2.017 4.167-4.282 4.666-3.841.788.653-1.42 2.285-3.014 4.397-1.46 1.94-.845 1.805-.845 1.805s-.173.039 1.824-1.785c2.151-1.94 4.551-3.956 4.973-3.61.538.422.557.518-.115 1.363.48-.403.672-.326.845-.134.96.979-1.747 4.339-2.823 5.664.826-1.018 1.556-1.67 1.767-.691.23 1.114-3.821 5.684-5.108 7.469-1.363 1.94-5.645-6.087-5.645-6.087Z" fill="#EEA886"/><path d="M218.026 306.977s4.205 2.496 6.125 3.418c1.901.922 9.313 1.19 10.043 1.882.729.691.46 2.918-.769 3.13-1.228.23-10.234 1.036-13.249.345-3.014-.71-8.621.48-9.869.058-1.248-.423-.442-7.124.038-8.641.48-1.498 7.681-.192 7.681-.192Z" fill="#181929"/><path d="m218.374 304.232-.346 2.746s-5.626 1.056-7.335.192l.423-2.842 7.258-.096Z" fill="#22243B"/><path d="M240.953 210.527c-.058 1.901-.403 6.03-.806 10.35-.096.96-.192 1.939-.269 2.899a1172.173 1172.173 0 0 1-1.133 11.214c-.711 4.647-2.17 12.692-3.821 18.779-.48 1.748-.96 3.342-1.44 4.647-.48 1.268-.96 2.247-1.421 2.842-3.495 4.455-11.483 43.972-11.483 43.972l-10.926-.077s2.401-26.767 4.82-33.545c2.688-7.585 7.373-17.781 6.202-25.097-.73-4.589-1.67-19.182-1.67-19.182s-.922-16.399 3.379-28.419c1.075-2.995 18.568 11.617 18.568 11.617Z" fill="#292C47"/><path d="M248.711 308.014s4.185 2.534 6.086 3.495c1.901.94 9.294 1.305 10.024 2.016.729.71.422 2.918-.807 3.13-1.229.211-10.253.921-13.249.172-2.995-.729-8.621.384-9.87-.057-1.248-.442-.364-7.143.135-8.641.499-1.498 7.681-.115 7.681-.115Z" fill="#181929"/><path d="m249.09 305.268-.384 2.746s-5.645.979-7.335.096l.461-2.842h7.258Z" fill="#22243B"/><path d="M236.035 266.078c-.288-8.736-1.056-14.555-3.302-19.605-1.882-4.243-3.514-17.55-3.514-17.55s-5.127-15.611-4.09-28.323c.269-3.168 20.046 4.801 20.046 4.801.442 1.843 1.748 7.681 2.228 12.001 2.688 24.693 1.67 40.765 1.67 40.765-1.536 5.453 2.343 48.331 2.343 48.331h-11.137s-2.919-15.265-3.226-24.751c.019.019-1.133-14.152-1.018-15.669Z" fill="#292C47"/><path d="M235.788 152.98s5.185 8.506 6.702 13.249c1.517 4.743.288 18.549.556 21.314.826 8.602 2.036 18.088 2.036 18.088l-17.378 11.118s-3.13-7.297-5.837-16.379c-2.727-9.083-2.938-17.263-2.919-22.716.077-17.128 9.352-26.805 9.352-26.805l7.488 2.131Z" fill="#CFBEB6"/><path d="M242.181 130.149s3.572 3.821 2.554 4.819c-.825.826 2.439 4.628 2.919 5.281.461.634-1.459 1.69-1.767 2.266-.307.576-.134 6.567-1.785 7.181-1.652.615-9.985-.038-12.635-1.651-2.65-1.613-6.913-10.945-6.606-15.419.308-4.493 11.041-9.121 17.32-2.477Z" fill="#EEA886"/><path d="M238.797 148.409s-.057.499-.134 1.306c-.038.326-.077.71-.115 1.113-.019.25-.039.499-.058.768 0 .077-.019.135-.019.212-.019.115-.019.249-.038.364-.039.576-.077 1.172-.116 1.767-.076 1.517-.096 2.976.077 3.783.442 2.227-9.121-7.143-9.121-7.143s.807-7.259.423-15.419c-.384-8.161 9.101 13.249 9.101 13.249Z" fill="#EEA886"/><path d="M242.911 130.994s1.689-3.975-3.514-6.74c-6.126-3.245-12.616 4.916-13.48 5.396-.864.48-4.781 4.896-.941 10.734 4.839 7.373 4.589 7.123 4.589 7.123s.481-5.434.461-6.49c-.057-1.92 4.974-2.15 4.974-2.15s-2.074-2.746.23-3.975c2.285-1.248 4.954-4.167 7.681-3.898Z" fill="#3A3F47"/><path d="M232.332 138.176c-.365-.518-1.709-2.784-3.437-.787-1.728 1.997 2.899 5.722 3.283 5.683.404-.038 3.245-.576.154-4.896Z" fill="#EEA886"/><path d="M246.059 209.299s-.864-4.071-1.037-4.685l-25.442 4.224.269 3.284c-.019.019 18.318-1.076 26.21-2.823Z" fill="#23263D"/><path d="M217.313 191.364s3.918 16.878-2.208 36.56c-.749 2.4 16.936-.365 16.936-.365l-14.728-36.195Z" fill="#0FAA61"/><path d="M239.78 226.329s-12.558 2.765-16.091 1.517c0 0-5.127-18.683-6.932-37.635-.134-1.46-.249-2.938-.345-4.398-.999-15.418 2.918-31.068 11.866-34.966.25.173 12.846 11.272 12.616 21.448-.019.692-.019 1.383-.038 2.074 0 1.248 0 2.496.019 3.745.077 3.859.326 7.719.653 11.463.038.384.076.787.115 1.171.057.634.134 1.248.192 1.882.096.826.192 1.651.288 2.458 2.054 16.974-2.343 31.241-2.343 31.241Z" fill="#0FAA61"/><path d="M239.262 160.411s2.362 9.371 3.264 21.161c.749 9.869 1.767 16.839 1.767 16.839l1.517 4.878.614-4.705s-.557-12.73-1.287-17.915c-.748-5.223-1.075-11.847-5.242-20.45l-.633.192Z" fill="#878787"/><path d="M239.013 160.411s.288.269.691.327c.403.057.979-.576-1.075-3.303l.384 2.976Z" fill="#D44040"/><path d="M229.411 149.427s5.856 5.511 9.332 6.72l.672 5.281-11.118-10.6 1.114-1.401Z" fill="#EDDAD3"/><path d="M233.33 170.76c-2.305-.825-11.886-5.472-9.332-10.906 2.553-5.434 9.12-2.535 14.074-.327 5.185 2.305 17.397 9.409 18.357 8.756.96-.653 5.185-6.701 5.953-8.064.768-1.345 5.376-9.966 5.818-10.619.422-.634 7.124 4.993 7.124 4.993s-12.04 21.371-15.266 24.77c-3.264 3.418-26.728-8.603-26.728-8.603Z" fill="#0FAA61"/><path d="M234.922 253.75c-.48 1.767-.96 3.361-1.44 4.647l-3.802-22.715c.941 2.15 5.242 18.068 5.242 18.068Z" fill="#181929"/><path d="m240.895 178.114-11.022-9.005c2.919 1.555 10.1 4.839 11.003 5.242-.02 1.248 0 2.515.019 3.763Z" fill="#2ECC82"/><path d="M238.666 149.696c-.038.326-.077.71-.115 1.113l-.058.768c-3.648-.249-6.471-3.149-6.643-3.341 1.478 1.21 6.816 1.46 6.816 1.46Z" fill="#A77860"/><g opacity=".95"><path d="M381.837 65.958h5.779l-1.766-3.668h-5.799l1.786 3.668Z" fill="url(#c)"/><path d="M379.108 65.958h1.383l-1.767-3.668h-1.382l1.766 3.668Z" fill="url(#d)"/><path d="M359.12 61.58h23.445l-.787-1.825h-23.426l.768 1.825Z" fill="url(#e)"/></g><path d="M233.251 2.995h-8.852a.537.537 0 0 1-.538-.537V.538c0-.308.25-.538.538-.538h8.852c.307 0 .538.25.538.538v1.92a.525.525 0 0 1-.538.537Z" fill="url(#f)"/><path d="M233.251 10.177h-8.852a.537.537 0 0 1-.538-.538V7.72c0-.307.25-.537.538-.537h8.852c.307 0 .538.25.538.537v1.92a.525.525 0 0 1-.538.538Z" fill="url(#g)"/><path d="M233.251 17.359h-8.852a.537.537 0 0 1-.538-.538v-1.92c0-.307.25-.538.538-.538h8.852c.307 0 .538.25.538.538v1.92a.537.537 0 0 1-.538.538Z" fill="url(#h)"/><path d="M240.183 2.995h-1.747a.537.537 0 0 1-.538-.537V.538c0-.308.25-.538.538-.538h1.747c.308 0 .538.25.538.538v1.92c0 .307-.23.537-.538.537Z" fill="url(#i)"/><path d="M240.183 10.177h-1.747a.537.537 0 0 1-.538-.538v-1.92c0-.307.25-.538.538-.538h1.747c.308 0 .538.25.538.538v1.92c0 .307-.23.538-.538.538Z" fill="url(#j)"/><path d="M240.183 17.359h-1.747a.537.537 0 0 1-.538-.538v-1.92c0-.307.25-.538.538-.538h1.747c.308 0 .538.25.538.538v1.92c0 .288-.23.538-.538.538Z" fill="url(#k)"/><path d="M195.58 172.719h10.389l-3.169-6.586h-10.388l3.168 6.586Z" fill="url(#l)"/><path d="M190.723 172.719h2.477l-3.188-6.586h-2.477l3.188 6.586Z" fill="url(#m)"/><defs><linearGradient id="a" x1="50.922" y1="349.683" x2="65.513" y2="286.783" gradientUnits="userSpaceOnUse"><stop stop-color="#C9C4C1"/><stop offset="1" stop-color="#FFF6DE"/></linearGradient><linearGradient id="b" x1="48.101" y1="300.598" x2="83.97" y2="300.598" gradientUnits="userSpaceOnUse"><stop stop-color="#C9C4C1"/><stop offset="1" stop-color="#FFF6DE"/></linearGradient><linearGradient id="c" x1="380.056" y1="64.125" x2="387.615" y2="64.125" gradientUnits="userSpaceOnUse"><stop stop-color="#D1D7E0"/><stop offset="1" stop-color="#EBEBFF"/></linearGradient><linearGradient id="d" x1="377.346" y1="64.125" x2="380.497" y2="64.125" gradientUnits="userSpaceOnUse"><stop stop-color="#D1D7E0"/><stop offset="1" stop-color="#EBEBFF"/></linearGradient><linearGradient id="e" x1="358.343" y1="60.667" x2="382.557" y2="60.667" gradientUnits="userSpaceOnUse"><stop stop-color="#D1D7E0"/><stop offset="1" stop-color="#EBEBFF"/></linearGradient><linearGradient id="f" x1="223.866" y1="1.507" x2="233.798" y2="1.507" gradientUnits="userSpaceOnUse"><stop stop-color="#D1D7E0"/><stop offset="1" stop-color="#EBEBFF"/></linearGradient><linearGradient id="g" x1="223.866" y1="8.684" x2="233.798" y2="8.684" gradientUnits="userSpaceOnUse"><stop stop-color="#D1D7E0"/><stop offset="1" stop-color="#EBEBFF"/></linearGradient><linearGradient id="h" x1="223.866" y1="15.861" x2="233.798" y2="15.861" gradientUnits="userSpaceOnUse"><stop stop-color="#D1D7E0"/><stop offset="1" stop-color="#EBEBFF"/></linearGradient><linearGradient id="i" x1="237.899" y1="1.507" x2="240.725" y2="1.507" gradientUnits="userSpaceOnUse"><stop stop-color="#D1D7E0"/><stop offset="1" stop-color="#EBEBFF"/></linearGradient><linearGradient id="j" x1="237.899" y1="8.683" x2="240.725" y2="8.683" gradientUnits="userSpaceOnUse"><stop stop-color="#D1D7E0"/><stop offset="1" stop-color="#EBEBFF"/></linearGradient><linearGradient id="k" x1="237.899" y1="15.861" x2="240.725" y2="15.861" gradientUnits="userSpaceOnUse"><stop stop-color="#D1D7E0"/><stop offset="1" stop-color="#EBEBFF"/></linearGradient><linearGradient id="l" x1="192.405" y1="169.423" x2="205.974" y2="169.423" gradientUnits="userSpaceOnUse"><stop stop-color="#D1D7E0"/><stop offset="1" stop-color="#EBEBFF"/></linearGradient><linearGradient id="m" x1="187.544" y1="169.423" x2="193.2" y2="169.423" gradientUnits="userSpaceOnUse"><stop stop-color="#D1D7E0"/><stop offset="1" stop-color="#EBEBFF"/></linearGradient></defs></svg>