<svg xmlns="http://www.w3.org/2000/svg" xmlns:xlink="http://www.w3.org/1999/xlink" width="302.204" height="143.652"><defs><linearGradient id="a" x1="-23.825" y1="-6.497" x2="-22.726" y2="-6.497" gradientUnits="objectBoundingBox"><stop offset="0" stop-color="#5fc2a4"/><stop offset="1" stop-color="#397462"/></linearGradient><linearGradient id="b" x1="-29.563" y1="-14.769" x2="-28.845" y2="-14.769" xlink:href="#a"/><linearGradient id="c" x1="-49.239" y1="-12.195" x2="-47.861" y2="-12.195" xlink:href="#a"/><linearGradient id="d" x1="-30.647" y1="-8.069" x2="-29.613" y2="-8.069" xlink:href="#a"/></defs><path d="M23.39 122.25c-8.54-9.33-9.8-19.49-5.81-30.63 3.21-8.93 8.55-16.55 14.84-23.48 15.17-16.71 33.21-29.08 55-35.57a15 15 0 0 1 3.66-.88 6 6 0 0 1 6 3.42 6.59 6.59 0 0 1-1 7.35c-1.5 1.94-3.73 2.67-5.93 3.49C67.86 54.21 48.94 67.12 35 86.58 27.63 96.78 22.76 108 23.65 121a7.26 7.26 0 0 1-.26 1.25Z" fill="url(#a)" transform="translate(0 .001)"/><path d="M45.23 136.651c-10.41-6.29-13.6-17.63-8.42-29.5 4.26-9.74 11.28-17.35 19.19-24.15 15.17-13.19 32.22-22.9 51.9-27.66 3.18-.77 6.25.56 7.3 3.15s-.08 5.63-3.4 7c-3.79 1.62-7.85 2.6-11.71 4.09-19.4 7.47-36.09 18.63-48.33 35.74-4.95 6.94-8.48 14.51-8.32 23.36.05 2.73 1 5.23 1.79 7.97ZM5.37 95.411c-3.87-10-3.21-19.34.86-28.49C11 56.091 19 47.781 27.79 40.161a160.719 160.719 0 0 1 16.59-12.31 11.54 11.54 0 0 1 7.38-2.19 4.79 4.79 0 0 1 4.11 7.13 11.5 11.5 0 0 1-4.5 4.44c-13.5 8.77-25.37 19.19-34.56 32.51-5 7.32-9.07 15.13-10.74 24a14.31 14.31 0 0 1-.7 1.67Z" fill="#fff"/><path d="M93.09 142c-4.58 1.29-9.15 1.7-13.69.12-4.86-1.69-6.9-5.25-5.75-10.2 1.65-7.07 6.35-12.19 11.49-16.79a78.48 78.48 0 0 1 34.57-18.43c4.74-1.12 9.55-1.62 14.38-.39A7.16 7.16 0 0 1 136 97c1.95 1.16 4.07 2.45 3.38 5.13s-2.89 3.47-5.28 3.08a36.36 36.36 0 0 0-18.86 1.63c-11.76 4.38-22.19 10.65-29.83 20.9a16.78 16.78 0 0 0-1.87 3.26c-2.69 6-.34 10.11 6.23 10.82 1.1.08 2.23.09 3.32.18Z" fill="url(#b)" transform="translate(0 .001)"/><path d="M71.45 143.62a31.78 31.78 0 0 1-10.36-1.26c-4.54-1.33-6.94-4.69-7.28-9.46-.41-5.63 1.23-10.74 3.92-15.56 6.37-11.41 15.84-19.76 26.64-26.76 3.22-2.09 6.35-1.58 8 .94s.86 5.92-2.27 8C82 104.9 74.64 111 69 118.94a32.69 32.69 0 0 0-4.15 7.64c-2.92 7.83-1.16 12.7 6.6 17.04Z" fill="url(#c)" transform="translate(0 .001)"/><path d="M95 129.211c-.32 3.32 1.7 3.51 4 3.29a24.21 24.21 0 0 0 8-2.45c5.73-2.68 11.16-5.84 15.32-10.74 2.6-3.07 2.2-4.3-2-5.28 2.22-.14 4-.67 5.79-.35 3 .53 3.9 2.06 2.66 4.95a19.12 19.12 0 0 1-5.77 6.87c-7 5.83-14.71 10.25-23.77 12a12.66 12.66 0 0 1-1.71.27c-1.78.08-3.61 0-4.72-1.63s0-3.3.81-4.81c.39-.74.94-1.42 1.39-2.12Zm-79.28-108.1a63.13 63.13 0 0 1 19.95-19.11 6.59 6.59 0 0 1 1.89-.69c.56-.14 1.26-.24 1.64.26a1.34 1.34 0 0 1-.31 1.82 17.08 17.08 0 0 1-2.56 2.34 148.668 148.668 0 0 0-19.69 14.8 5.73 5.73 0 0 1-.92.58Z" fill="#fff"/><path d="M0 66c.46-2 2.69-8.3 13.5-20.74q3.29-3.91 6.86-7.49c11-11 24-19.53 38.24-26.45a13.29 13.29 0 0 0 3.93-2.42c1.87-1.9 2.72-4.07 1.38-6.57C62.69.06 60.24-.68 57.3.68c-16.39 7.53-31.94 16.4-44.12 30.05a47.88 47.88 0 0 0-12 24.07C1 56 .41 60.59.13 64A19.55 19.55 0 0 1 0 66Z" fill="url(#d)" transform="translate(0 .001)"/><path d="M0 66.001Zm20.36-28.23.01-.01Zm123.51-2.53h17a23.77 23.77 0 0 1 10.77 2.33 17.42 17.42 0 0 1 7.27 6.54 18.44 18.44 0 0 1 2.6 9.84 18.44 18.44 0 0 1-2.6 9.84 17.38 17.38 0 0 1-7.27 6.55 23.9 23.9 0 0 1-10.77 2.32h-17Zm16.57 30.31a12.62 12.62 0 0 0 9-3.12 11.09 11.09 0 0 0 3.3-8.43 11.06 11.06 0 0 0-3.34-8.47 12.58 12.58 0 0 0-9-3.13h-7.91v23.2Zm31.3 6.55a20.08 20.08 0 0 1-6.65-3.1l2.91-6.55a20 20 0 0 0 5.72 2.84 21.58 21.58 0 0 0 6.63 1.07 10.56 10.56 0 0 0 5.45-1.1 3.31 3.31 0 0 0 1.77-2.91 2.78 2.78 0 0 0-1-2.22 7.84 7.84 0 0 0-2.67-1.42c-1.09-.36-2.56-.75-4.41-1.18a58.6 58.6 0 0 1-7-2 11.27 11.27 0 0 1-4.68-3.26 8.81 8.81 0 0 1-1.95-6 10.36 10.36 0 0 1 1.76-5.9 11.83 11.83 0 0 1 5.32-4.2 21.79 21.79 0 0 1 8.69-1.55 28.73 28.73 0 0 1 7 .85 20.68 20.68 0 0 1 6 2.46l-2.67 6.58a20.89 20.89 0 0 0-10.37-2.94 9.78 9.78 0 0 0-5.38 1.17 3.6 3.6 0 0 0-1.74 3.11 3 3 0 0 0 2 2.86 31.53 31.53 0 0 0 6.12 1.84 62.61 62.61 0 0 1 7 2 11.63 11.63 0 0 1 4.68 3.21 8.6 8.6 0 0 1 1.95 5.93 10.2 10.2 0 0 1-1.79 5.86 12.07 12.07 0 0 1-5.37 4.2 22 22 0 0 1-8.71 1.55 30.43 30.43 0 0 1-8.61-1.2Zm64.45.56-.05-22.45-11 18.5h-3.91l-11-18v22h-8.12v-37.47h7.16l14 23.26 13.83-23.26h7.11l.11 37.42Zm45.98-6.95v7h-29v-37.47h28.28v6.95H281.8v8.13h17.38v6.73H281.8v8.66Z" fill="#fff"/><path d="M188.41 81.631h1.47v4.17a5.81 5.81 0 0 1-1.85 1 7 7 0 0 1-2.2.35 6 6 0 0 1-2.91-.71 5.3 5.3 0 0 1-2.78-4.76 5.37 5.37 0 0 1 .74-2.81 5.11 5.11 0 0 1 2-1.95 6.09 6.09 0 0 1 2.94-.71 6.2 6.2 0 0 1 2.33.42 4.74 4.74 0 0 1 1.85 1.24l-.95.95a4.3 4.3 0 0 0-3.1-1.24 4.55 4.55 0 0 0-2.19.53 3.9 3.9 0 0 0-1.52 1.47 4.3 4.3 0 0 0 0 4.21 3.9 3.9 0 0 0 1.52 1.47 4.4 4.4 0 0 0 2.18.54 4.49 4.49 0 0 0 2.5-.69Zm5.59-5.28h1.53v9.36h5.78v1.29H194Zm11.93 10.1a5.22 5.22 0 0 1-2-2 5.63 5.63 0 0 1 0-5.58 5.22 5.22 0 0 1 2-2 6.3 6.3 0 0 1 5.81 0 5.24 5.24 0 0 1 2 2 5.67 5.67 0 0 1 0 5.6 5.24 5.24 0 0 1-2 2 6.3 6.3 0 0 1-5.81 0Zm5-1.19a3.87 3.87 0 0 0 1.48-1.47 4.35 4.35 0 0 0 0-4.2 3.87 3.87 0 0 0-1.41-1.47 4.18 4.18 0 0 0-2.12-.54 4.27 4.27 0 0 0-2.13.54 3.83 3.83 0 0 0-1.49 1.47 4.28 4.28 0 0 0 0 4.2 3.83 3.83 0 0 0 1.49 1.47 4.27 4.27 0 0 0 2.13.54 4.18 4.18 0 0 0 2.12-.54Zm15.74-2.83a2.68 2.68 0 0 1 .54 1.72 2.48 2.48 0 0 1-1.05 2.14 5.24 5.24 0 0 1-3 .74H218v-10.68h4.79a4.7 4.7 0 0 1 2.83.73 2.36 2.36 0 0 1 1 2 2.64 2.64 0 0 1-.39 1.45 2.4 2.4 0 0 1-1 .93 2.76 2.76 0 0 1 1.44.97Zm-7.13-4.85v3.42h3.13a3.16 3.16 0 0 0 1.81-.43 1.59 1.59 0 0 0 0-2.55 3.16 3.16 0 0 0-1.81-.44Zm5.46 7.79a1.47 1.47 0 0 0 .66-1.34c0-1.19-.87-1.79-2.61-1.79h-3.52v3.56h3.52a3.57 3.57 0 0 0 1.95-.43Zm12.56-1.01h-5.68l-1.17 2.64h-1.58l4.87-10.65h1.51l4.83 10.65h-1.6Zm-.56-1.22-2.31-5.24-2.3 5.24Zm6.1-6.79h1.53v9.36h5.79v1.29h-7.32Zm15.28.05h1.51v9.27h5.73v1.33h-7.24Zm8.98 0h1.51v10.6h-1.51Zm13.8 0v10.6h-1.24l-6.36-7.9v7.9h-1.51v-10.6h1.24l6.36 7.89v-7.89Zm6.63 5.88-1.94 2v2.72h-1.51v-10.6h1.51v5.91l5.75-5.91h1.72l-4.52 4.76 4.81 5.84h-1.77Zm7.98 4.46a4.74 4.74 0 0 1-1.75-1l.56-1.18a4.7 4.7 0 0 0 1.55.88 5.62 5.62 0 0 0 1.94.34 3.48 3.48 0 0 0 2-.45 1.37 1.37 0 0 0 .65-1.18 1.17 1.17 0 0 0-.36-.89 2.3 2.3 0 0 0-.87-.52c-.35-.12-.84-.26-1.48-.41a15.719 15.719 0 0 1-1.93-.57 3.26 3.26 0 0 1-1.25-.89 2.34 2.34 0 0 1-.52-1.61 2.73 2.73 0 0 1 .44-1.53 3.15 3.15 0 0 1 1.36-1.09 5.48 5.48 0 0 1 2.25-.41 7.29 7.29 0 0 1 1.85.25 4.9 4.9 0 0 1 1.55.69l-.5 1.21a5.52 5.52 0 0 0-1.42-.64 5.16 5.16 0 0 0-1.48-.22 3.29 3.29 0 0 0-1.93.47 1.43 1.43 0 0 0-.64 1.21 1.15 1.15 0 0 0 .36.88 2.36 2.36 0 0 0 .9.53c.36.13.85.26 1.46.41a14.511 14.511 0 0 1 1.92.57 3.13 3.13 0 0 1 1.25.88 2.29 2.29 0 0 1 .52 1.59 2.73 2.73 0 0 1-.45 1.52 3 3 0 0 1-1.38 1.09 5.8 5.8 0 0 1-2.27.4 7.43 7.43 0 0 1-2.33-.33Z" fill="#4a9d86"/></svg>