<svg xmlns="http://www.w3.org/2000/svg" width="145" height="73" fill="none"><path fill="#2ECC82" d="M11.74 61.603c-4.267-4.7-4.898-9.82-2.9-15.418 1.6-4.499 4.268-8.337 7.407-11.828 7.578-8.42 16.587-14.65 27.476-17.924a7.693 7.693 0 0 1 1.827-.443c.61-.056 1.223.08 1.755.388a2.99 2.99 0 0 1 1.215 1.336c.642 1.32.392 2.577-.486 3.704-.749.976-1.861 1.348-2.959 1.755-11.128 4.163-20.58 10.674-27.559 20.47-3.66 5.14-6.09 10.78-5.646 17.328a4.12 4.12 0 0 1-.13.632Z"/><path fill="#F5F3FF" d="M22.646 68.858c-5.196-3.163-6.791-8.88-4.2-14.865 2.123-4.906 5.63-8.736 9.564-12.192 7.575-6.645 16.094-11.54 25.918-13.935 1.59-.395 3.135.285 3.644 1.581.51 1.297-.035 2.835-1.697 3.558-1.892.815-3.918 1.309-5.842 2.06-9.68 3.764-18.026 9.385-24.127 18.007-2.469 3.495-4.232 7.314-4.154 11.77.024 1.375.502 2.636.894 4.016ZM2.743 48.079c-1.935-5.06-1.606-9.745.427-14.355 2.402-5.455 6.38-9.642 10.769-13.48a80.387 80.387 0 0 1 8.28-6.207 5.764 5.764 0 0 1 3.687-1.1 2.385 2.385 0 0 1 2.037 1.21 2.432 2.432 0 0 1 .016 2.385c-.486 1.015-1.34 1.64-2.245 2.233-6.74 4.4-12.677 9.67-17.242 16.379-2.52 3.688-4.53 7.622-5.364 12.085a6.379 6.379 0 0 1-.365.85Z"/><path fill="#2ECC82" d="M46.544 71.533c-2.284.648-4.565.854-6.837.06-2.426-.85-3.445-2.645-2.865-5.14.823-3.558 3.166-6.14 5.737-8.46 4.988-4.495 10.71-7.705 17.261-9.262 2.37-.566 4.773-.819 7.183-.198.332.06.654.168.956.32.972.585 2.03 1.237 1.689 2.59-.33 1.284-1.446 1.743-2.637 1.55a17.985 17.985 0 0 0-9.405.818c-5.878 2.21-11.085 5.368-14.89 10.531a8.72 8.72 0 0 0-.933 1.645c-1.344 3.052-.172 5.096 3.111 5.455.525.064 1.082.064 1.63.091Z"/><path fill="#2ECC82" d="M35.741 72.372a15.895 15.895 0 0 1-5.176-.637c-2.265-.668-3.464-2.372-3.637-4.767-.204-2.839.62-5.408 1.96-7.836 3.181-5.752 7.915-9.962 13.303-13.484 1.61-1.056 3.17-.791 3.99.474.818 1.265.43 2.98-1.137 4.032-4.025 2.708-7.708 5.768-10.537 9.78a16.475 16.475 0 0 0-2.07 3.851c-1.45 3.946-.571 6.4 3.304 8.587Z"/><path fill="#F5F3FF" d="M47.497 65.11c-.157 1.672.85 1.77 1.99 1.66a12.128 12.128 0 0 0 3.986-1.237c2.856-1.352 5.572-2.942 7.653-5.416 1.297-1.542 1.093-2.163-.996-2.653 1.105-.075 1.96-.34 2.892-.178 1.52.269 1.96 1.036 1.325 2.49-.635 1.455-1.7 2.495-2.849 3.464-3.487 2.937-7.347 5.167-11.87 6.044a6.47 6.47 0 0 1-.858.139c-.889.035-1.802 0-2.35-.819-.6-.885 0-1.668.391-2.427.212-.372.467-.716.686-1.067ZM7.92 10.645a31.578 31.578 0 0 1 9.96-9.638c.296-.165.614-.284.945-.352.274-.063.627-.118.815.135a.681.681 0 0 1-.153.917 8.597 8.597 0 0 1-1.277 1.186 74.12 74.12 0 0 0-9.832 7.464c-.143.11-.297.206-.458.288Z"/><path fill="#2ECC82" d="M.059 33.25c.231-1.02 1.344-4.183 6.74-10.448a58.838 58.838 0 0 1 3.428-3.776c5.514-5.535 11.983-9.84 19.096-13.327a6.608 6.608 0 0 0 1.959-1.217c.929-.96 1.356-2.048.682-3.31-.604-1.142-1.83-1.513-3.3-.83C20.482 4.139 12.716 8.606 6.63 15.485c-3.09 3.489-5.196 7.51-5.972 12.128-.086.612-.391 2.917-.54 4.613a9.755 9.755 0 0 1-.06 1.024Z"/><path fill="#fff" d="M0 33.641a5.66 5.66 0 0 0 .059-.367c-.03.12-.05.243-.059.367Z"/><path fill="#F5F3FF" d="M71.71 16.121h7.77a10.826 10.826 0 0 1 4.922 1.072 8.004 8.004 0 0 1 3.323 3.02 9.25 9.25 0 0 1 0 9.093 8.003 8.003 0 0 1-3.323 3.02 10.825 10.825 0 0 1-4.922 1.071h-7.77V16.121Zm7.574 13.98c1.709 0 3.072-.482 4.091-1.444 1.02-.962 1.528-2.265 1.528-3.91 0-1.639-.509-2.94-1.528-3.905-1.019-.965-2.382-1.447-4.09-1.447h-3.617v10.701l3.616.004Zm14.306 3.016a9.178 9.178 0 0 1-3.044-1.44l1.344-3.008a9.115 9.115 0 0 0 2.614 1.305 9.66 9.66 0 0 0 3.033.494c1.124 0 1.96-.166 2.492-.506a1.52 1.52 0 0 0 .803-1.344 1.282 1.282 0 0 0-.474-1.02 3.601 3.601 0 0 0-1.222-.657c-.5-.16-1.17-.34-2.014-.541a27.574 27.574 0 0 1-3.202-.937 5.196 5.196 0 0 1-2.14-1.502 4.076 4.076 0 0 1-.889-2.768 4.826 4.826 0 0 1 .803-2.723 5.454 5.454 0 0 1 2.434-1.938 9.801 9.801 0 0 1 3.97-.715 12.94 12.94 0 0 1 3.201.395c.967.23 1.893.613 2.743 1.135l-1.219 3.032a9.474 9.474 0 0 0-4.741-1.356c-1.108 0-1.927.18-2.457.542a1.648 1.648 0 0 0-.784 1.43c0 .288.086.57.25.805.163.235.395.414.663.512.901.38 1.839.665 2.798.85a27.56 27.56 0 0 1 3.201.937 5.304 5.304 0 0 1 2.14 1.482c.627.767.944 1.744.889 2.736a4.729 4.729 0 0 1-.815 2.696 5.547 5.547 0 0 1-2.457 1.937 9.973 9.973 0 0 1-3.985.716 13.789 13.789 0 0 1-3.934-.55Zm29.457.261-.028-10.354-5.031 8.531h-1.783l-5.012-8.302v10.133h-3.715V16.13h3.276l6.403 10.725 6.305-10.725h3.249l.047 17.256-3.711-.008Zm21.011-3.206v3.206h-13.244V16.122h12.931v3.206h-8.997v3.744h7.962v3.107h-7.962v3.993h9.31Z"/><path fill="#2ECC82" d="M89.25 38.399h.783v2.21a3.073 3.073 0 0 1-.968.533 3.649 3.649 0 0 1-1.156.186 3.131 3.131 0 0 1-1.532-.395 2.788 2.788 0 0 1-1.07-1.036 3.041 3.041 0 0 1 0-2.973 2.753 2.753 0 0 1 1.074-1.036 3.175 3.175 0 0 1 1.544-.371c.418-.006.832.07 1.222.221.357.142.676.366.933.653l-.494.502a2.257 2.257 0 0 0-1.63-.657c-.4-.006-.795.09-1.148.281-.33.184-.601.458-.784.79a2.32 2.32 0 0 0 0 2.234c.184.332.456.605.784.79.35.193.742.291 1.14.286.465.01.922-.117 1.317-.364l-.016-1.854Zm2.3-2.796h.803v4.958h3.037v.704h-3.84v-5.662Zm5.658 5.349c-.445-.24-.815-.6-1.07-1.04a3.017 3.017 0 0 1 0-2.96c.255-.44.625-.8 1.07-1.04a3.299 3.299 0 0 1 3.056 0 2.72 2.72 0 0 1 1.066 1.035 3.056 3.056 0 0 1 0 2.97 2.748 2.748 0 0 1-1.066 1.035 3.297 3.297 0 0 1-3.056 0Zm2.645-.628c.328-.187.599-.46.784-.791a2.312 2.312 0 0 0 0-2.226 2.045 2.045 0 0 0-.784-.79 2.19 2.19 0 0 0-1.113-.285 2.215 2.215 0 0 0-1.117.285c-.33.184-.6.458-.784.79a2.333 2.333 0 0 0 0 2.226c.184.331.456.605.784.79.341.193.727.29 1.117.285a2.19 2.19 0 0 0 1.113-.284Zm7.633-1.499c.195.261.295.583.282.91a1.32 1.32 0 0 1-.549 1.13 2.723 2.723 0 0 1-1.599.396h-2.68v-5.658h2.52a2.478 2.478 0 0 1 1.485.396 1.273 1.273 0 0 1 .525 1.079 1.348 1.348 0 0 1-.752 1.261c.301.074.571.245.768.486Zm-3.743-2.57v1.811h1.642c.333.021.665-.059.953-.229a.854.854 0 0 0 0-1.352c-.288-.17-.62-.25-.953-.23h-1.642Zm2.869 4.124a.795.795 0 0 0 .345-.712c0-.628-.455-.944-1.372-.944h-1.842v1.885h1.842c.357.025.714-.055 1.027-.229Zm5.972-.534h-2.982l-.615 1.416h-.827l2.544-5.661h.783l2.551 5.66h-.834l-.62-1.415Zm-.278-.644-1.211-2.767-1.21 2.767h2.421Zm2.582-3.598h.784v4.958h3.037v.704h-3.821v-5.662Zm6.909 0h.803v4.958h3.037v.704h-3.84v-5.662Zm4.761 0h.803v5.662h-.803v-5.662Zm7.312 0v5.662h-.658l-3.367-4.223v4.223h-.783v-5.662h.654l3.37 4.223v-4.223h.784Zm3.51 3.163-1.026 1.052v1.462h-.784v-5.677h.784v3.163l3.048-3.163h.913l-2.398 2.55 2.551 3.112h-.936l-2.152-2.499Zm4.233 2.372a2.527 2.527 0 0 1-.929-.514l.298-.632c.241.21.52.372.823.474a2.92 2.92 0 0 0 1.026.182c.363.026.726-.057 1.043-.237a.748.748 0 0 0 .3-.894.62.62 0 0 0-.144-.217 1.255 1.255 0 0 0-.462-.277 8.23 8.23 0 0 0-.784-.221 7.618 7.618 0 0 1-1.023-.304 1.689 1.689 0 0 1-.662-.475 1.26 1.26 0 0 1-.278-.862 1.49 1.49 0 0 1 .235-.818 1.68 1.68 0 0 1 .717-.581 2.89 2.89 0 0 1 1.176-.218c.331 0 .66.044.979.13.296.074.576.2.827.373l-.266.644a2.887 2.887 0 0 0-1.536-.459 1.73 1.73 0 0 0-1.023.25.769.769 0 0 0-.337.648.632.632 0 0 0 .192.474c.137.126.299.221.474.28.257.086.519.157.784.214.346.08.686.183 1.019.309.253.102.478.263.658.47.195.238.294.542.278.85a1.479 1.479 0 0 1-.239.79 1.632 1.632 0 0 1-.733.586 2.995 2.995 0 0 1-1.203.213 3.834 3.834 0 0 1-1.21-.178Z"/></svg>