<svg width="453" height="319" viewBox="0 0 453 319" fill="none" xmlns="http://www.w3.org/2000/svg">
<path d="M47.7769 182.194C40.1325 168.375 25.7256 168.963 20.5312 183.664C18.8651 188.466 18.1791 194.738 19.6492 202.775C25.2355 233.451 43.5627 244.231 56.0094 226.688C63.8499 215.81 55.4214 195.914 47.7769 182.194Z" fill="#EBDEF3"/>
<path d="M410.693 193.562C409.223 201.108 415.496 206.401 422.454 203.461C424.806 202.481 427.158 200.618 429.217 197.384C437.155 185.035 433.137 174.451 422.062 175.529C415.3 176.215 412.163 186.114 410.693 193.562Z" fill="#D6D6D6"/>
<path d="M371.295 114.275C378.744 115.844 384.232 109.767 381.39 102.613C380.508 100.261 378.646 97.9085 375.51 95.7523C363.259 87.6178 352.674 91.4401 353.556 102.515C354.144 109.375 363.945 112.707 371.295 114.275Z" fill="#2ECC82"/>
<path d="M189.396 33.9103C195.276 38.7126 202.92 35.7724 203.704 28.2259C203.998 25.7758 203.41 22.8356 201.548 19.4054C194.492 6.56658 183.221 5.09649 178.909 15.2891C176.361 21.6595 183.515 29.108 189.396 33.9103Z" fill="#2ECC82"/>
<path d="M426.373 303.622C428.921 304.014 431.666 303.328 433.43 301.466C434.606 300.192 435.39 298.722 435.39 297.252C435.39 297.252 435.39 297.252 435.39 297.154C435.39 286.667 448.229 287.353 452.345 274.613C456.461 261.774 440.192 260.696 430.783 268.634C424.119 274.319 415.985 266.38 406.282 273.044C397.853 278.827 402.558 292.94 388.641 288.529C384.231 287.157 380.212 288.431 376.88 290.98C373.058 293.92 370.51 297.938 369.432 302.348L370.51 303.132C398.049 319.891 410.398 300.976 426.373 303.622Z" fill="#D6D6D6"/>
<path d="M399.324 303.035L435.586 279.709C436.076 279.415 436.174 278.729 435.88 278.239C435.586 277.749 434.9 277.651 434.41 277.945L395.403 303.035H399.324Z" fill="#181818"/>
<path d="M397.364 233.744C395.796 210.909 395.6 186.995 397.266 171.118C399.52 150.341 404.518 135.934 412.163 128.192C412.653 127.702 413.535 127.702 414.025 128.192C414.515 128.682 414.515 129.564 414.025 130.054C400.598 143.579 395.796 179.841 400.01 235.116L397.364 233.744Z" fill="#D6D6D6"/>
<path d="M400.794 152.791C400.794 152.791 389.818 152.791 390.602 133.582C390.602 133.484 407.361 138.286 400.794 152.791Z" fill="#0FAA61"/>
<path d="M399.814 162.69C399.814 162.69 399.226 151.812 418.436 151.518C418.534 151.42 414.711 168.375 399.814 162.69Z" fill="#0FAA61"/>
<path d="M408.242 135.64C408.242 135.64 404.028 125.546 422.061 118.881C422.061 118.881 424.119 136.13 408.242 135.64Z" fill="#0FAA61"/>
<path d="M397.364 182.487C397.364 182.487 387.073 186.211 381.291 167.786C381.291 167.786 398.638 166.61 397.364 182.487Z" fill="#0FAA61"/>
<path d="M397.952 192.68C397.952 192.68 395.502 181.997 414.417 178.371C414.417 178.469 413.535 195.816 397.952 192.68Z" fill="#0FAA61"/>
<path d="M397.364 206.793C397.364 206.793 387.171 210.713 380.997 192.386C381.095 192.386 398.442 190.916 397.364 206.793Z" fill="#0FAA61"/>
<path d="M79.9225 284.61L76.9824 284.512L75.4143 284.414L70.906 284.218C70.906 284.218 29.5474 213.947 55.421 191.014C63.3595 183.958 77.3744 189.838 74.2382 222.278C71.396 252.366 79.9225 284.61 79.9225 284.61Z" fill="#0FAA61"/>
<path d="M76.8849 284.512L75.3169 284.414C68.0644 267.361 64.4382 249.132 62.6741 236.293C60.5179 221.004 60.4199 210.027 60.4199 209.831C60.4199 209.439 60.7139 209.145 61.106 209.145C61.498 209.145 61.792 209.439 61.792 209.831C61.792 209.929 61.89 220.906 64.0461 236.097C65.9083 249.034 69.5345 267.459 76.8849 284.512Z" fill="#181818"/>
<path d="M88.1546 298.723L84.1363 300.193L81.9802 300.977L75.9038 303.231C75.9038 303.231 -18.5741 232.373 3.28126 187.29C10.0437 173.373 31.899 173.471 45.9139 218.456C58.7527 260.304 88.1546 298.723 88.1546 298.723Z" fill="#D6D6D6"/>
<path d="M84.0382 300.193L81.8821 300.977C62.7709 282.258 47.678 259.814 38.0734 243.741C26.7046 224.532 20.4323 209.831 20.3342 209.733C20.1382 209.243 20.3342 208.557 20.9223 208.361C21.4123 208.165 22.0984 208.361 22.2944 208.949C22.3924 209.145 28.5668 223.748 39.9355 242.761C49.5401 258.932 64.731 281.572 84.0382 300.193Z" fill="#181818"/>
<path d="M410.987 302.74C410.987 301.074 410.791 299.506 410.399 297.84C406.969 282.257 416.279 279.317 428.432 274.417C440.585 269.516 442.055 254.913 433.43 242.761C424.806 230.608 440.291 220.905 434.606 202.676C428.922 184.447 409.027 196.6 404.715 213.359C401.578 225.414 385.799 222.865 379.919 238.546C374.823 252.169 391.876 264.714 372.176 270.986C365.904 272.946 362.376 277.847 360.612 283.433C358.554 290 358.946 296.762 361.298 302.642H410.987V302.74Z" fill="#0FAA61"/>
<path d="M386.877 302.74L419.415 222.473C419.709 221.689 419.317 220.807 418.631 220.513C417.847 220.219 416.965 220.611 416.671 221.297L383.741 302.642H386.877V302.74Z" fill="#181818"/>
<path d="M116.088 60.176C116.088 60.176 116.774 45.7691 107.953 42.927C94.2323 38.6147 90.5081 45.6711 88.3519 50.3754C85.6078 56.3538 86.7838 68.2125 94.9184 69.2906C107.169 71.0547 115.304 64.1943 116.088 60.176Z" fill="#2F2F2F"/>
<path d="M124.908 108.493C132.063 108.493 138.139 103.495 139.609 96.5364C140.687 91.5381 141.667 87.1278 141.667 84.5797V84.4816C141.765 83.6976 141.765 82.9136 141.765 82.1295C141.863 70.7608 134.807 49.8855 110.109 53.2177C110.109 53.2177 89.626 55.5698 87.2738 75.5631C87.2738 75.5631 86.2938 84.7757 85.6077 91.5381C85.6077 91.6361 85.6077 91.7341 85.6077 91.9301C84.7257 100.751 91.6841 108.493 100.603 108.493H124.908Z" fill="#2F2F2F"/>
<path d="M154.212 132.309C154.212 132.309 158.622 166.905 163.621 184.742C163.621 184.742 170.677 181.41 179.988 176.999C190.082 172.099 204.489 163.279 204.489 163.279L208.115 172.099C208.115 172.099 170.775 207.381 158.328 209.341C145.979 211.302 138.335 167.003 138.335 167.003L154.212 132.309Z" fill="#2ECC82"/>
<path d="M203.706 164.161C203.706 164.161 202.726 159.26 204.882 155.928C207.038 152.596 210.468 146.323 214.388 145.049C217.721 143.971 212.82 149.558 212.722 153.086C212.722 153.086 217.623 152.498 221.151 151.322C224.287 150.342 230.363 149.068 233.303 148.48C234.088 148.284 234.578 149.264 233.99 149.852C233.009 150.734 230.951 151.714 226.737 152.792C226.737 152.792 236.93 150.832 238.008 152.4C239.086 153.968 226.247 156.124 226.247 156.124C226.247 156.124 236.244 155.536 236.44 157.104C236.636 158.084 226.247 160.24 226.247 160.24C226.247 160.24 235.656 160.534 233.401 162.004C232.715 162.396 214.486 164.455 208.116 172.001C208.214 172.001 203.902 167.591 203.706 164.161Z" fill="#FFA681"/>
<path d="M91.1947 125.449C91.1947 125.449 70.3194 131.623 52.2863 135.641C52.2863 135.641 51.7962 127.801 51.3062 117.51C50.8162 106.337 51.6982 89.3823 51.6982 89.3823L42.1916 90.3624C42.1916 90.3624 28.9608 140.051 33.0771 151.91C37.1933 163.769 89.7246 147.206 89.7246 147.206L91.1947 125.449Z" fill="#2ECC82"/>
<path d="M51.2079 90.6564C51.2079 90.6564 56.0102 89.1863 57.8723 85.6581C59.7344 82.1298 64.9287 75.0734 61.6945 72.4272C60.5184 71.4472 59.6364 75.6614 56.5982 77.4256C56.5982 77.4256 54.8341 72.8193 54.148 69.193C53.56 65.9588 51.6979 59.9805 50.9138 57.2363C50.7178 56.4522 49.5418 56.5503 49.4438 57.2363C49.1497 58.5104 49.2477 60.7645 50.3258 64.9788C50.3258 64.9788 47.1896 55.0802 45.2295 54.8841C43.3674 54.6881 47.4836 67.0369 47.4836 67.0369C47.4836 67.0369 43.2694 58.0203 41.7993 58.5104C40.9172 58.8044 43.8574 68.899 43.8574 68.899C43.8574 68.899 39.1531 60.7645 38.9571 63.4107C38.8591 64.1947 45.7195 81.2478 42.1913 90.3624C42.2893 90.4604 48.1697 92.1265 51.2079 90.6564Z" fill="#FFA681"/>
<path d="M153.427 266.48L153.623 267.264C137.354 278.338 76.3945 270.792 76.3945 270.792C76.4925 269.518 76.5905 268.146 76.7866 266.774C76.9826 265.206 77.1786 263.637 77.4726 261.971C78.2566 257.561 79.2367 252.759 80.3148 247.76C80.7068 246.192 81.0008 244.624 81.3928 243.056C82.4709 238.352 83.647 233.55 84.7251 228.943C85.1171 227.375 85.5091 225.807 85.8031 224.239C86.2931 222.083 86.7832 219.927 87.2732 217.869C87.8612 215.124 88.4493 212.478 88.8413 209.93C89.1353 208.264 89.4293 206.598 89.6254 205.128C89.8214 203.462 90.0174 201.992 90.1154 200.522C89.1353 196.895 88.2533 193.465 87.3712 190.035C86.9792 188.271 86.5872 186.605 86.0971 184.939C84.8231 179.548 83.745 174.452 82.7649 169.748C82.4709 167.984 82.0789 166.317 81.7849 164.651C80.7068 159.065 79.8247 153.969 79.1387 149.46C78.8447 147.696 78.6487 146.03 78.3547 144.462C78.1586 142.796 77.8646 141.13 77.7666 139.758C76.9826 133.485 76.6886 129.859 76.6886 129.859C76.7866 129.761 76.9826 129.663 77.1786 129.565C79.0407 128.291 81.8829 127.017 85.1171 125.939C88.5473 124.763 92.2715 123.783 95.6037 122.999C96.0938 122.901 96.5838 122.803 97.0738 122.607C101.386 121.627 104.62 121.039 104.62 121.039C119.419 124.175 123.633 122.117 123.633 122.117L131.18 124.371L132.062 124.665L137.55 126.625L137.746 126.723L147.547 130.153L154.113 132.407L151.565 144.168L150.487 149.264L147.155 164.651L146.077 169.748L142.745 185.135L141.667 190.133L138.922 202.874L139.51 205.324L140.589 210.028L142.255 217.575L143.823 224.337L144.901 229.041L148.135 243.154L149.213 247.858L152.447 261.873L153.427 266.48Z" fill="#0FAA61"/>
<path d="M132.16 124.567C130.592 133.779 126.084 143.09 116.773 144.07C105.502 145.246 99.72 131.231 97.1719 122.508C101.484 121.528 105.992 120.548 105.992 120.548C120.791 123.685 123.634 121.724 123.634 121.724L131.278 124.273L132.16 124.567Z" fill="#FFA681"/>
<path d="M115.695 136.327C103.935 136.327 101.092 121.822 101.092 121.626C100.994 121.332 101.288 121.038 101.582 120.94C101.877 120.842 102.171 121.136 102.269 121.43C102.367 122.018 105.013 135.739 116.479 135.151C126.476 134.661 127.064 123.586 127.064 123.096C127.064 122.802 127.358 122.508 127.652 122.508C127.946 122.508 128.24 122.802 128.24 123.096C128.24 123.194 127.554 135.641 116.577 136.229C116.185 136.327 115.891 136.327 115.695 136.327Z" fill="white"/>
<path d="M94.5262 132.309C94.5262 133.877 93.2521 135.151 91.684 135.151C90.1159 135.151 88.8418 133.877 88.8418 132.309C88.8418 130.741 90.1159 129.467 91.684 129.467C93.2521 129.467 94.5262 130.741 94.5262 132.309Z" fill="#181818"/>
<path d="M88.7429 146.324C88.7429 147.892 87.4689 149.166 85.9008 149.166C84.3327 149.166 83.0586 147.892 83.0586 146.324C83.0586 144.756 84.3327 143.481 85.9008 143.481C87.4689 143.481 88.7429 144.756 88.7429 146.324Z" fill="#181818"/>
<path d="M107.168 152.989C107.168 154.557 105.894 155.831 104.326 155.831C102.757 155.831 101.483 154.557 101.483 152.989C101.483 151.42 102.757 150.146 104.326 150.146C105.894 150.048 107.168 151.322 107.168 152.989Z" fill="#181818"/>
<path d="M94.3295 160.829C94.9175 162.299 94.2315 163.965 92.7614 164.553C91.2913 165.141 89.6252 164.455 89.0372 162.985C88.4491 161.515 89.1352 159.849 90.6053 159.261C92.0754 158.575 93.7415 159.359 94.3295 160.829Z" fill="#181818"/>
<path d="M119.321 166.121C119.321 167.69 118.047 168.964 116.479 168.964C114.911 168.964 113.637 167.69 113.637 166.121C113.637 164.553 114.911 163.279 116.479 163.279C117.949 163.279 119.321 164.553 119.321 166.121Z" fill="#181818"/>
<path d="M137.648 172.002C137.648 173.57 136.374 174.844 134.806 174.844C133.238 174.844 131.964 173.57 131.964 172.002C131.964 170.434 133.238 169.16 134.806 169.16C136.374 169.16 137.648 170.434 137.648 172.002Z" fill="#181818"/>
<path d="M141.275 135.151C141.275 136.719 140.001 137.993 138.433 137.993C136.865 137.993 135.591 136.719 135.591 135.151C135.591 133.583 136.865 132.309 138.433 132.309C140.001 132.309 141.275 133.583 141.275 135.151Z" fill="#181818"/>
<path d="M120.399 184.448C120.399 186.016 119.125 187.29 117.557 187.29C115.989 187.29 114.715 186.016 114.715 184.448C114.715 182.88 115.989 181.606 117.557 181.606C119.125 181.606 120.399 182.88 120.399 184.448Z" fill="#181818"/>
<path d="M102.758 193.367C102.758 194.935 101.484 196.209 99.9154 196.209C98.3473 196.209 97.0732 194.935 97.0732 193.367C97.0732 191.799 98.3473 190.524 99.9154 190.524C101.386 190.524 102.758 191.799 102.758 193.367Z" fill="#181818"/>
<path d="M100.7 177.196C100.7 178.764 99.4259 180.038 97.8578 180.038C96.2897 180.038 95.0156 178.764 95.0156 177.196C95.0156 175.628 96.2897 174.353 97.8578 174.353C99.3279 174.255 100.7 175.53 100.7 177.196Z" fill="#181818"/>
<path d="M129.024 153.674C129.024 155.242 127.75 156.516 126.182 156.516C124.614 156.516 123.34 155.242 123.34 153.674C123.34 152.106 124.614 150.832 126.182 150.832C127.75 150.832 129.024 152.106 129.024 153.674Z" fill="#181818"/>
<path d="M144.9 150.048C144.9 151.616 143.626 152.89 142.058 152.89C140.49 152.89 139.216 151.616 139.216 150.048C139.216 148.48 140.49 147.206 142.058 147.206C143.626 147.206 144.9 148.48 144.9 150.048Z" fill="#181818"/>
<path d="M134.709 189.25C134.709 190.819 133.435 192.093 131.867 192.093C130.299 192.093 129.024 190.819 129.024 189.25C129.024 187.682 130.299 186.408 131.867 186.408C133.435 186.31 134.709 187.682 134.709 189.25Z" fill="#181818"/>
<path d="M135.492 211.988C135.492 213.556 134.218 214.83 132.65 214.83C131.082 214.83 129.808 213.556 129.808 211.988C129.808 210.42 131.082 209.146 132.65 209.146C134.218 209.146 135.492 210.42 135.492 211.988Z" fill="#181818"/>
<path d="M120.89 202.481C121.478 203.951 120.792 205.617 119.322 206.205C117.852 206.793 116.186 206.107 115.598 204.637C115.01 203.167 115.696 201.501 117.166 200.913C118.636 200.325 120.302 201.011 120.89 202.481Z" fill="#181818"/>
<path d="M101.288 210.91C101.877 212.38 101.19 214.046 99.7204 214.634C98.2503 215.222 96.5842 214.536 95.9961 213.066C95.4081 211.596 96.0942 209.93 97.5642 209.342C99.0343 208.754 100.7 209.44 101.288 210.91Z" fill="#181818"/>
<path d="M159.504 302.742L158.916 299.116L156.662 285.199L155.878 280.494L153.624 267.166L149.605 267.362L96.1921 269.812L76.3949 270.694L75.1208 280.984L74.5327 285.787L72.7686 300.096L72.4746 302.742H159.504Z" fill="#9C78ED"/>
<path d="M159.504 302.741L158.916 299.507V299.213L158.524 296.959L158.132 294.705L156.564 285.394L156.074 282.65L155.78 280.69V280.396L153.722 268.243L153.624 267.361L153.428 266.577L153.232 265.891L152.35 261.873L150.586 254.032L150.096 251.778L149.214 247.858L148.136 243.154L147.45 239.919L146.96 237.665L144.999 228.943L144.313 225.807L144.019 224.239L143.823 223.552L142.451 217.476C120.792 223.846 97.7605 220.122 87.5678 217.77C87.0778 219.828 86.5878 221.984 86.0977 224.14C85.9997 224.631 85.9017 225.121 85.8037 225.611C85.6077 226.395 85.4117 227.081 85.2157 227.865C85.1177 228.257 85.0197 228.551 84.9217 228.943C84.0396 232.471 83.1576 236.097 82.3735 239.723C82.1775 240.508 82.0795 241.194 81.8835 241.978C81.7855 242.37 81.6875 242.762 81.5895 243.154C81.1974 244.722 80.9034 246.29 80.5114 247.858C80.0214 249.916 79.6293 251.974 79.2373 253.934C79.0413 254.718 78.9433 255.404 78.7473 256.09C78.3553 258.149 77.9632 260.109 77.6692 261.971C77.3752 263.637 77.1792 265.205 76.9832 266.773C76.8852 267.263 76.8852 267.753 76.7872 268.145C76.6892 268.929 76.5911 269.615 76.5911 270.399C76.5911 270.497 76.5911 270.595 76.5911 270.693L75.3171 280.984L75.1211 282.552L74.827 284.806L74.729 285.786L73.3569 297.057L73.0629 299.311L72.9649 299.997L72.6709 302.643H159.504V302.741Z" fill="#181818"/>
<path d="M133.236 85.8536C133.236 85.8536 136.765 81.3453 139.411 85.0695C142.057 88.7938 138.333 99.6724 131.864 97.0263L133.236 85.8536Z" fill="#F97853"/>
<path d="M133.334 93.694C133.53 93.694 133.824 93.498 133.824 93.302C134.804 89.9698 138.529 88.5977 138.529 88.4997C138.823 88.4017 138.921 88.1077 138.823 87.8137C138.725 87.5197 138.431 87.4217 138.137 87.5197C137.941 87.6177 133.922 89.0878 132.746 93.008C132.648 93.302 132.844 93.596 133.138 93.596C133.236 93.694 133.236 93.694 133.334 93.694Z" fill="#EA5143"/>
<path d="M137.059 92.0281C137.157 92.0281 137.255 92.0281 137.353 91.9301C137.647 91.734 137.647 91.44 137.549 91.244C137.549 91.244 136.863 90.2639 135.491 89.6759C135.197 89.5779 134.903 89.6759 134.805 89.9699C134.707 90.264 134.805 90.558 135.099 90.656C136.177 91.146 136.667 91.832 136.667 91.832C136.667 91.93 136.863 92.0281 137.059 92.0281Z" fill="#EA5143"/>
<path d="M131.669 97.0262C131.081 97.7122 130.689 98.5943 130.689 99.5743C130.689 101.73 132.453 103.397 134.511 103.397C136.667 103.397 138.333 101.632 138.333 99.5743C138.333 98.3983 137.745 97.3202 136.863 96.5361C136.373 96.1441 135.883 95.9481 135.295 95.8501C135.197 95.5561 135.197 95.3601 135.393 95.1641C136.079 95.3601 136.765 95.6541 137.353 96.1441C138.333 97.0262 139.019 98.2023 139.019 99.6723C139.019 102.221 136.961 104.279 134.413 104.279C131.865 104.279 129.807 102.221 129.807 99.6723C129.807 98.5943 130.199 97.6142 130.787 96.8302C131.179 96.8302 131.473 96.9282 131.669 97.0262Z" fill="white"/>
<path d="M106.089 108.689V122.116C106.089 122.116 112.361 126.918 117.164 127.31C122.064 127.702 123.73 122.018 123.73 122.018V109.571L106.089 108.689Z" fill="#FFA681"/>
<path d="M106.089 110.061V115.451C109.323 119.078 115.105 120.352 123.73 119.078V110.943L106.089 110.061Z" fill="#F97853"/>
<path d="M135.393 90.95C135.197 92.2241 135.099 93.5962 134.805 94.8703C133.237 103.593 127.748 113.001 120.79 114.569C105.795 118 99.5225 106.141 97.0723 97.4184C96.7783 96.4384 97.2683 95.3603 97.0723 94.1842C96.5823 91.4401 95.5042 88.4019 95.2102 85.3637C95.1122 83.3055 95.0142 81.2474 94.9162 79.3853C94.7202 74.093 97.7584 69.1927 102.561 67.3305C109.519 64.5864 120.006 62.4302 129.904 68.2126C133.531 70.3687 135.883 74.387 135.981 78.6993C135.981 82.0315 135.981 86.4417 135.393 90.95Z" fill="#FFA681"/>
<path d="M116.38 97.7126C116.086 97.7126 115.89 97.5166 115.792 97.2226C115.694 96.9286 115.988 96.6346 116.282 96.5366L118.242 96.2425L115.498 88.8921C115.4 88.5981 115.498 88.206 115.792 88.108C116.086 88.01 116.478 88.108 116.576 88.4021L119.81 97.1246L116.38 97.7126Z" fill="#F97853"/>
<path d="M123.535 88.0099C123.535 89.2839 124.221 90.362 125.005 90.362C125.789 90.362 126.475 89.2839 126.475 88.0099C126.475 86.7358 125.789 85.6577 125.005 85.6577C124.221 85.6577 123.535 86.7358 123.535 88.0099Z" fill="#403657"/>
<path d="M107.168 88.0099C107.168 89.2839 107.854 90.362 108.638 90.362C109.422 90.362 110.108 89.2839 110.108 88.0099C110.108 86.7358 109.422 85.6577 108.638 85.6577C107.854 85.6577 107.168 86.7358 107.168 88.0099Z" fill="#403657"/>
<path d="M129.317 81.8351C128.141 81.6391 125.69 81.2471 123.142 81.3451C122.456 81.3451 121.966 81.8351 122.064 82.4231C122.162 82.8152 122.554 83.1092 123.142 83.1092C124.906 83.0112 129.415 83.0112 131.571 83.5992C131.669 83.3052 131.473 83.0112 131.081 82.7171C130.689 82.3251 130.101 82.0311 129.317 81.8351Z" fill="#403657"/>
<path d="M105.6 82.1293C106.776 81.8353 109.226 81.4432 111.774 81.5412C112.46 81.5412 112.95 82.0313 112.95 82.6193C112.852 83.0113 112.46 83.3053 111.872 83.3053C110.108 83.2073 105.6 83.3053 103.443 83.9914C103.345 83.6974 103.541 83.3053 103.835 83.1093C104.228 82.6193 104.914 82.3253 105.6 82.1293Z" fill="#403657"/>
<path d="M123.534 101.241C123.142 103.299 121.672 107.023 116.772 107.023C111.872 107.023 110.597 103.593 110.107 101.241H123.534Z" fill="white"/>
<path d="M116.87 110.551C118.242 110.551 119.516 109.767 119.516 109.767C119.81 109.571 119.908 109.277 119.712 108.983C119.516 108.689 119.222 108.591 118.928 108.787C118.928 108.787 117.948 109.375 116.87 109.375C115.694 109.375 114.714 108.787 114.714 108.787C114.42 108.591 114.126 108.689 113.93 108.983C113.734 109.277 113.832 109.571 114.126 109.767C114.126 109.767 115.4 110.551 116.87 110.551Z" fill="#F97853"/>
<path d="M135.981 89.5778C135.883 89.6758 135.687 89.6758 135.589 89.3818C133.629 85.8536 135.491 78.8952 129.611 76.249C125.103 74.1909 123.534 69.9766 123.534 69.9766C122.554 71.7407 119.81 73.3088 119.81 73.3088C119.81 73.3088 113.048 77.3271 105.991 79.9732C103.933 80.7573 102.463 81.6393 101.385 82.3254C101.483 82.3254 101.483 82.3254 101.483 82.3254C101.483 82.3254 99.523 85.4616 100.993 90.3619C102.463 95.2622 100.601 103.397 97.4648 105.259C97.5628 105.161 99.915 99.4765 98.5429 94.9682C97.7588 92.322 97.7588 88.2058 97.0728 85.6576C96.2888 85.0696 94.4266 84.1875 93.7406 83.7955C93.5446 81.6393 93.4466 79.4832 93.3486 77.6211C93.0546 72.2308 96.2888 67.2324 101.385 65.2723C108.638 62.4301 119.712 60.274 130.199 66.1544C134.021 68.3105 136.471 72.4268 136.569 76.837C136.667 80.5613 136.569 84.9716 135.981 89.5778Z" fill="#2F2F2F"/>
<path d="M97.0726 85.8536C97.0726 85.8536 92.9563 80.8553 90.5062 84.4815C88.056 88.1077 91.6823 99.0844 97.5626 96.5363L97.0726 85.8536Z" fill="#FFA681"/>
<path d="M97.2687 96.6343C97.6607 97.4184 97.8567 98.3984 97.5627 99.3785C97.0726 101.437 95.0145 102.711 92.9564 102.123C90.8983 101.535 89.6242 99.5745 90.2122 97.5164C90.5062 96.3403 91.2903 95.4582 92.3684 94.9682C92.8584 94.7722 93.4464 94.5762 94.0345 94.6742C94.1325 94.4782 94.2305 94.1842 94.0345 93.8901C93.2504 93.8901 92.5644 93.9881 91.8783 94.3802C90.7022 94.9682 89.8202 96.0463 89.4282 97.4184C88.8401 99.8685 90.3102 102.319 92.7604 102.907C95.2105 103.495 97.6607 102.025 98.2487 99.5745C98.5427 98.4964 98.3467 97.4184 97.9547 96.5363C97.7587 96.5363 97.4647 96.6343 97.2687 96.6343Z" fill="white"/>
<path d="M96.1917 92.8125C95.9956 92.8125 95.7996 92.7145 95.7016 92.4205C94.8196 89.1863 91.3894 87.8142 91.3894 87.8142C91.0953 87.7162 90.9973 87.4222 91.0953 87.1281C91.1934 86.8341 91.4874 86.7361 91.7814 86.8341C91.9774 86.9321 95.7016 88.3042 96.7797 92.1264C96.8777 92.4205 96.6817 92.7145 96.3877 92.7145C96.2897 92.8125 96.1917 92.8125 96.1917 92.8125Z" fill="#F97853"/>
<path d="M92.7599 91.1454C92.6619 91.1454 92.5639 91.1454 92.4659 91.0474C92.2699 90.8514 92.1719 90.5573 92.2699 90.3613C92.2699 90.3613 92.8579 89.3813 94.132 88.8912C94.426 88.7932 94.7201 88.8912 94.8181 89.1853C94.9161 89.4793 94.8181 89.7733 94.524 89.8713C93.544 90.2633 93.0539 91.0474 93.0539 91.0474C93.0539 91.0474 92.9559 91.1454 92.7599 91.1454Z" fill="#F97853"/>
<path d="M314.549 194.052C305.042 200.913 290.047 205.617 290.047 205.617L287.009 194.64L284.657 186.016L282.991 179.939H265.84C266.722 183.174 267.702 186.408 268.682 189.642C269.956 193.856 271.132 197.875 272.308 201.697C273.974 206.989 275.444 211.693 276.719 214.928C277.013 215.712 277.307 216.594 277.699 217.476C279.953 223.65 281.815 230.413 290.537 226.198C298.28 222.474 308.669 217.378 313.863 213.948L314.549 194.052Z" fill="#FFA681"/>
<path d="M268.584 189.642C269.858 193.758 271.034 197.874 272.21 201.697C279.169 200.913 284.069 197.482 286.911 194.64L284.559 186.016L268.584 189.642Z" fill="#F97853"/>
<path d="M264.958 129.564C264.958 129.564 282.795 172.197 290.538 186.015C290.538 186.015 279.757 195.13 269.27 195.424C269.27 195.424 263.194 148.577 264.958 129.564Z" fill="#0FAA61"/>
<path d="M223.109 302.741C223.305 299.8 223.501 296.958 223.599 294.312C224.187 283.531 224.677 276.181 224.677 276.181L220.463 275.985L218.111 275.887L189.493 274.613C189.493 274.613 189.003 282.845 188.317 294.9C188.219 297.35 188.023 299.996 187.925 302.741H223.109Z" fill="#131313"/>
<path d="M220.463 275.985L224.677 276.181C224.677 276.181 224.285 283.531 223.599 294.312C212.622 295.194 200.568 295.586 188.219 294.9C188.807 282.845 189.395 274.613 189.395 274.613L218.013 275.887L220.463 275.985Z" fill="#3F3F3F"/>
<path d="M218.993 302.74C219.679 291.274 220.169 281.375 220.463 275.985L218.111 275.887C217.817 281.277 217.229 291.176 216.641 302.74H218.993V302.74Z" fill="#7846D1"/>
<path d="M232.322 302.741H267.506C267.408 299.996 267.212 297.35 267.114 294.9C266.526 282.845 265.938 274.613 265.938 274.613L237.32 275.887L234.968 275.985L230.754 276.181C230.754 276.181 231.146 283.531 231.832 294.312C232.028 296.958 232.224 299.8 232.322 302.741Z" fill="#9C78ED"/>
<path d="M235.066 275.985L230.852 276.181C230.852 276.181 231.244 283.531 231.93 294.312C242.906 295.194 254.961 295.586 267.31 294.9C266.722 282.845 266.134 274.613 266.134 274.613L237.516 275.887L235.066 275.985Z" fill="#7846D1"/>
<path d="M238.889 302.74C238.203 291.176 237.713 281.277 237.419 275.887L235.066 275.985C235.36 281.375 235.948 291.274 236.536 302.74H238.889V302.74Z" fill="#7846D1"/>
<path d="M183.221 254.227C183.221 254.815 183.221 255.404 183.221 255.992C183.221 266.478 183.319 274.613 183.319 278.533C193.413 281.277 203.508 283.041 213.701 283.825C214.191 283.825 214.583 283.923 215.073 283.923C215.367 283.923 215.563 283.923 215.857 283.923C216.445 283.923 216.935 284.021 217.523 284.021C218.111 284.021 218.699 284.119 219.287 284.119C226.147 284.413 233.106 284.315 239.966 283.727C241.338 283.629 242.71 283.433 244.181 283.335C244.279 283.335 244.377 283.335 244.475 283.335C244.867 283.335 245.161 283.237 245.553 283.237C245.749 283.237 245.945 283.139 246.239 283.139C254.275 282.159 262.214 280.591 270.25 278.435C270.25 276.671 270.25 273.927 270.25 270.594C270.25 270.006 270.25 269.32 270.25 268.634C270.25 263.832 270.25 257.756 270.152 250.993C270.152 250.405 270.152 249.817 270.152 249.229C270.152 244.721 270.054 239.821 270.054 234.822C270.054 234.234 270.054 233.646 270.054 233.058C269.956 227.864 269.956 222.473 269.858 216.985C269.76 213.653 269.76 210.223 269.662 206.891C269.564 203.46 269.564 200.03 269.466 196.6C269.466 195.816 269.466 195.13 269.368 194.346C268.584 162.102 267.212 132.602 264.958 129.27C263.39 127.016 259.861 124.271 255.647 121.625C255.157 121.331 254.569 120.939 254.079 120.645C252.315 119.567 237.712 114.569 235.85 113.491L220.463 112.413C220.365 112.511 205.664 117.411 205.566 117.509C204.978 117.901 204.292 118.195 203.704 118.587C198.216 121.723 192.825 125.055 189.787 127.898C189.297 128.29 188.905 128.682 188.611 129.074C188.317 129.368 188.121 129.662 187.925 129.956C187.729 130.25 187.533 130.642 187.435 131.328C185.573 138.09 184.593 164.748 184.103 193.758C184.103 195.816 184.005 197.972 184.005 200.03C184.005 200.912 184.005 201.892 184.005 202.774C184.005 203.362 184.005 204.048 184.005 204.636C184.005 204.93 184.005 205.224 184.005 205.616C184.005 207.185 184.005 208.753 183.907 210.321C183.907 211.497 183.907 212.673 183.907 213.751C183.221 228.452 183.221 242.663 183.221 254.227Z" fill="#CCCCCC"/>
<path d="M155.681 295.586C155.289 299.703 160.287 297.448 158.915 289.118C157.543 280.787 161.562 273.241 163.228 273.437C164.992 273.731 161.758 282.551 163.326 285.688C164.894 288.922 166.854 282.649 168.814 278.925C170.872 275.005 170.774 266.478 169.794 260.402C168.814 254.326 179.889 217.377 179.987 206.597L181.359 202.088L186.259 185.427L194.002 159.358C194.002 159.358 189.395 139.659 181.555 141.325C181.555 141.325 177.439 155.045 173.028 170.53C172.244 173.177 171.558 175.823 170.774 178.469C167.638 189.74 164.698 200.814 163.326 207.381C159.699 224.728 159.405 260.794 159.405 260.794C159.405 260.794 153.035 274.025 152.839 280.003C152.741 286.472 156.073 291.47 155.681 295.586Z" fill="#FFA681"/>
<path d="M170.773 178.665L181.358 202.187L186.258 185.525L173.028 170.727C172.244 173.373 171.557 176.019 170.773 178.665Z" fill="#F97853"/>
<path d="M170.284 171.707C174.89 179.645 179.595 187.486 184.299 195.424C185.867 190.23 187.435 185.33 188.905 180.723C189.493 178.861 190.081 177.097 190.669 175.431V175.333C190.865 174.745 191.061 174.157 191.257 173.569C193.512 166.806 195.178 161.416 195.766 158.28C197.138 149.851 193.414 133.288 188.317 130.054C188.219 130.348 187.827 129.466 187.533 129.956C186.651 132.014 182.633 137.209 180.673 142.207C180.379 142.893 180.183 143.481 179.889 144.167C177.047 151.615 173.518 161.22 170.284 171.707Z" fill="#0FAA61"/>
<path d="M227.225 127.8C233.89 127.8 238.594 121.724 238.79 121.43C239.084 121.038 238.986 120.547 238.692 120.253C238.3 119.959 237.81 120.057 237.516 120.351C237.418 120.449 233.106 126.036 227.225 126.036C221.443 126.036 217.817 119.665 217.817 119.567C217.621 119.175 217.131 118.979 216.739 119.273C216.347 119.469 216.249 120.057 216.445 120.449C216.641 120.842 220.463 127.8 227.225 127.8Z" fill="#181818"/>
<path d="M255.452 186.211C255.55 186.211 255.746 186.211 255.844 186.113C256.236 185.917 256.432 185.329 256.236 184.937L253.296 178.763C253.1 178.371 252.61 178.175 252.218 178.371C251.826 178.567 251.63 179.155 251.826 179.547L254.766 185.721C254.962 186.015 255.158 186.211 255.452 186.211Z" fill="#181818"/>
<path d="M261.528 181.115C261.626 181.213 261.724 181.213 261.92 181.213C262.41 181.213 262.802 180.919 262.802 180.429L263.39 173.569C263.39 173.079 263.096 172.687 262.606 172.589C262.116 172.589 261.724 172.883 261.724 173.373L261.136 180.233C261.136 180.625 261.332 181.017 261.528 181.115Z" fill="#181818"/>
<path d="M245.945 170.531C246.337 170.531 246.729 170.237 246.729 169.845L247.807 163.082C247.905 162.592 247.611 162.2 247.121 162.102C246.631 162.004 246.239 162.298 246.141 162.788L245.063 169.551C244.965 170.041 245.259 170.433 245.749 170.531C245.847 170.531 245.847 170.531 245.945 170.531Z" fill="#181818"/>
<path d="M219.777 172.981C219.875 172.981 220.071 172.981 220.169 172.883C220.561 172.687 220.659 172.099 220.463 171.707L217.131 165.729C216.935 165.337 216.445 165.141 216.053 165.435C215.661 165.631 215.563 166.219 215.759 166.611L219.091 172.589C219.189 172.883 219.483 172.981 219.777 172.981Z" fill="#181818"/>
<path d="M251.922 146.421C252.118 146.421 252.216 146.421 252.314 146.323L257.705 142.599C258.097 142.305 258.195 141.815 257.901 141.423C257.705 141.031 257.117 140.933 256.823 141.129L251.432 144.853C251.04 145.147 250.942 145.637 251.236 146.029C251.334 146.323 251.628 146.421 251.922 146.421Z" fill="#181818"/>
<path d="M227.813 201.697C227.911 201.697 228.107 201.697 228.205 201.599C228.598 201.403 228.794 200.815 228.598 200.423L225.657 194.248C225.461 193.856 224.971 193.66 224.579 193.856C224.187 194.052 223.991 194.64 224.187 195.032L227.127 201.207C227.225 201.501 227.519 201.697 227.813 201.697Z" fill="#181818"/>
<path d="M240.556 151.027C240.85 151.027 241.046 150.929 241.242 150.635C241.438 150.243 241.34 149.655 240.948 149.459L235.459 145.833C235.067 145.539 234.577 145.735 234.381 146.127C234.185 146.519 234.283 147.107 234.675 147.303L240.164 150.929C240.262 151.027 240.458 151.027 240.556 151.027Z" fill="#181818"/>
<path d="M253.589 125.448C253.589 125.644 253.589 125.742 253.687 125.938C253.785 126.232 254.079 126.33 254.373 126.428C254.863 126.428 255.255 126.134 255.255 125.644L255.549 121.724C255.059 121.43 254.471 121.038 253.981 120.744L253.589 125.448Z" fill="#181818"/>
<path d="M260.841 163.181C261.135 163.181 261.331 163.083 261.527 162.789C261.723 162.397 261.625 161.809 261.233 161.613L255.744 157.986C255.352 157.692 254.862 157.888 254.666 158.28C254.47 158.672 254.568 159.26 254.96 159.456L260.449 163.083C260.547 163.181 260.743 163.181 260.841 163.181Z" fill="#181818"/>
<path d="M217.228 133.191C217.424 133.191 217.522 133.191 217.718 133.093C218.11 132.799 218.208 132.309 217.914 131.917L214.778 126.82C214.484 126.428 213.994 126.33 213.7 126.526C213.308 126.82 213.21 127.31 213.504 127.702L216.64 132.799C216.738 133.093 217.032 133.191 217.228 133.191Z" fill="#181818"/>
<path d="M214.484 220.612C214.68 220.612 214.876 220.514 215.072 220.318L219.581 215.319C219.875 214.927 219.875 214.437 219.581 214.045C219.287 213.751 218.699 213.751 218.405 214.045L213.896 219.044C213.602 219.436 213.602 219.926 213.896 220.318C214.092 220.514 214.288 220.612 214.484 220.612Z" fill="#181818"/>
<path d="M230.852 219.534C231.048 219.534 231.244 219.435 231.44 219.239L235.948 214.241C236.242 213.849 236.242 213.359 235.948 212.967C235.654 212.673 235.066 212.673 234.772 212.967L230.263 217.965C229.969 218.357 229.969 218.847 230.263 219.239C230.459 219.435 230.656 219.534 230.852 219.534Z" fill="#181818"/>
<path d="M242.71 253.15C242.808 252.954 242.808 252.66 242.71 252.464L239.966 246.289C239.77 245.897 239.28 245.701 238.888 245.897C238.496 246.093 238.3 246.583 238.496 247.073L241.24 253.248C241.436 253.64 241.926 253.836 242.318 253.64C242.514 253.542 242.612 253.346 242.71 253.15Z" fill="#181818"/>
<path d="M195.569 273.731C195.667 273.535 195.667 273.241 195.569 273.045L192.825 266.87C192.629 266.478 192.139 266.282 191.747 266.478C191.355 266.674 191.159 267.164 191.355 267.654L194.099 273.829C194.295 274.221 194.785 274.417 195.177 274.221C195.373 274.123 195.471 273.927 195.569 273.731Z" fill="#181818"/>
<path d="M215.856 284.022C216.444 284.022 216.935 284.12 217.523 284.12L218.111 280.199C218.209 279.709 217.915 279.317 217.425 279.219C216.935 279.121 216.542 279.513 216.542 279.905L215.856 284.022Z" fill="#181818"/>
<path d="M209.291 272.261C209.487 272.163 209.585 271.967 209.585 271.673L210.565 264.813C210.663 264.323 210.369 263.931 209.879 263.833C209.389 263.735 208.997 264.127 208.997 264.519L208.017 271.379C207.919 271.869 208.213 272.261 208.703 272.359C208.997 272.457 209.193 272.457 209.291 272.261Z" fill="#181818"/>
<path d="M248.493 215.319C248.591 215.319 248.787 215.319 248.885 215.221C249.277 215.025 249.375 214.437 249.179 214.045L245.945 208.067C245.749 207.675 245.259 207.479 244.867 207.773C244.475 207.969 244.377 208.557 244.573 208.949L247.807 214.927C248.003 215.123 248.297 215.319 248.493 215.319Z" fill="#181818"/>
<path d="M239.084 200.422C239.378 200.422 239.672 200.226 239.77 199.932L242.71 193.758C242.906 193.366 242.808 192.778 242.318 192.582C241.926 192.386 241.436 192.484 241.24 192.974L238.3 199.148C238.104 199.54 238.202 200.128 238.692 200.324C238.79 200.324 238.888 200.422 239.084 200.422Z" fill="#181818"/>
<path d="M264.761 199.541C264.859 199.639 264.957 199.737 265.055 199.737C265.349 199.835 265.643 199.835 265.937 199.639L269.27 196.698C269.27 195.914 269.27 195.228 269.172 194.444L264.859 198.365C264.467 198.561 264.467 199.149 264.761 199.541Z" fill="#181818"/>
<path d="M239.084 135.347C239.378 135.347 239.672 135.151 239.77 134.857L242.71 128.682C242.906 128.29 242.808 127.702 242.318 127.506C241.926 127.31 241.436 127.408 241.24 127.898L238.3 134.073C238.104 134.465 238.202 135.053 238.692 135.249C238.888 135.347 238.986 135.347 239.084 135.347Z" fill="#181818"/>
<path d="M220.169 157.79C220.267 157.79 220.267 157.79 220.365 157.79C220.757 157.692 221.051 157.202 221.051 156.81L219.875 150.048C219.777 149.558 219.385 149.264 218.895 149.362C218.503 149.46 218.209 149.95 218.209 150.342L219.385 157.104C219.385 157.496 219.777 157.79 220.169 157.79Z" fill="#181818"/>
<path d="M230.655 163.769C230.753 163.769 230.753 163.769 230.851 163.769C231.243 163.671 231.537 163.181 231.537 162.789L230.361 156.026C230.263 155.536 229.871 155.242 229.381 155.34C228.989 155.438 228.695 155.928 228.695 156.32L229.871 163.083C229.969 163.475 230.361 163.769 230.655 163.769Z" fill="#181818"/>
<path d="M223.11 141.423C223.404 141.423 223.6 141.325 223.796 141.031L227.226 135.248C227.422 134.856 227.324 134.268 226.932 134.072C226.54 133.778 226.05 133.974 225.854 134.366L222.424 140.149C222.228 140.541 222.326 141.129 222.718 141.325C222.816 141.423 223.012 141.423 223.11 141.423Z" fill="#181818"/>
<path d="M254.863 201.501C255.059 201.207 255.157 200.913 254.961 200.521L252.217 194.248C252.021 193.856 251.531 193.66 251.139 193.856C250.747 194.052 250.551 194.542 250.747 195.032L253.491 201.305C253.687 201.697 254.177 201.893 254.569 201.697C254.667 201.599 254.765 201.599 254.863 201.501Z" fill="#181818"/>
<path d="M233.89 183.467C234.184 183.467 234.478 183.271 234.674 182.879L237.027 176.411C237.223 175.92 237.027 175.43 236.537 175.332C236.145 175.136 235.655 175.332 235.459 175.822L233.106 182.291C232.91 182.781 233.106 183.271 233.596 183.369C233.694 183.369 233.792 183.467 233.89 183.467Z" fill="#181818"/>
<path d="M208.114 223.062C208.212 223.062 208.408 223.062 208.506 222.964C208.898 222.768 209.094 222.18 208.898 221.788L205.958 215.613C205.762 215.221 205.272 215.025 204.88 215.221C204.488 215.417 204.292 216.005 204.488 216.397L207.428 222.572C207.526 222.866 207.82 223.062 208.114 223.062Z" fill="#181818"/>
<path d="M250.943 267.361C250.943 267.459 250.943 267.655 251.041 267.753C251.237 268.145 251.727 268.341 252.119 268.145L257.804 265.009C258.196 264.813 258.392 264.225 258.196 263.833C258 263.441 257.51 263.245 257.118 263.441L251.433 266.577C251.041 266.675 250.943 266.969 250.943 267.361Z" fill="#181818"/>
<path d="M266.428 271.281C266.428 271.379 266.428 271.575 266.526 271.673C266.722 272.065 267.212 272.261 267.604 272.065L270.054 270.693C270.054 270.105 270.054 269.419 270.054 268.733L266.82 270.497C266.624 270.595 266.428 270.987 266.428 271.281Z" fill="#181818"/>
<path d="M242.417 278.925L244.377 283.434C244.769 283.434 245.063 283.336 245.455 283.336C245.651 283.336 245.847 283.238 246.141 283.238L243.985 278.239C243.789 277.847 243.299 277.651 242.907 277.847C242.417 277.945 242.221 278.533 242.417 278.925Z" fill="#181818"/>
<path d="M197.529 207.381C197.921 207.381 198.313 207.087 198.313 206.695L199.391 199.933C199.489 199.443 199.195 199.051 198.705 198.953C198.215 198.855 197.823 199.149 197.725 199.639L196.647 206.401C196.549 206.891 196.843 207.283 197.333 207.381C197.431 207.381 197.529 207.381 197.529 207.381Z" fill="#181818"/>
<path d="M196.844 157.202C196.942 157.202 197.138 157.202 197.236 157.104C197.628 156.908 197.726 156.32 197.53 155.928L194.198 149.949C194.002 149.557 193.512 149.361 193.12 149.655C192.728 149.851 192.63 150.439 192.826 150.831L196.158 156.81C196.354 157.006 196.55 157.202 196.844 157.202Z" fill="#181818"/>
<path d="M207.428 181.311C207.624 181.311 207.722 181.311 207.82 181.213L213.211 177.489C213.603 177.195 213.701 176.705 213.407 176.313C213.211 175.921 212.623 175.823 212.329 176.019L206.938 179.743C206.546 180.037 206.448 180.527 206.742 180.919C206.938 181.213 207.134 181.311 207.428 181.311Z" fill="#181818"/>
<path d="M264.763 221.788C264.861 221.788 265.057 221.788 265.155 221.69C265.547 221.494 265.743 220.906 265.547 220.514L262.607 214.34C262.411 213.947 261.921 213.751 261.528 213.948C261.136 214.144 260.94 214.732 261.136 215.124L264.077 221.298C264.175 221.592 264.469 221.788 264.763 221.788Z" fill="#181818"/>
<path d="M198.217 190.622C198.511 190.622 198.707 190.524 198.903 190.23C199.099 189.838 199.001 189.25 198.609 189.054L193.12 185.428C192.728 185.134 192.238 185.33 192.042 185.722C191.846 186.114 191.944 186.702 192.336 186.898L197.825 190.524C197.923 190.622 198.021 190.622 198.217 190.622Z" fill="#181818"/>
<path d="M211.349 199.344C211.545 199.54 211.839 199.638 212.133 199.54C212.525 199.442 212.819 198.952 212.721 198.462L211.055 191.798C210.957 191.308 210.467 191.014 210.075 191.21C209.683 191.308 209.389 191.798 209.487 192.288L211.153 198.952C211.153 199.148 211.251 199.246 211.349 199.344Z" fill="#181818"/>
<path d="M188.22 129.074L189.592 131.328C189.788 131.622 189.984 131.72 190.278 131.72C190.474 131.72 190.572 131.72 190.768 131.622C191.16 131.328 191.258 130.838 190.964 130.446L189.396 127.898C189.004 128.29 188.612 128.682 188.22 129.074Z" fill="#181818"/>
<path d="M182.044 144.264L183.514 146.715C183.71 147.009 183.906 147.107 184.2 147.107C184.396 147.107 184.494 147.107 184.69 147.009C185.082 146.715 185.18 146.225 184.886 145.833L182.73 142.402C182.534 142.892 182.338 143.578 182.044 144.264Z" fill="#181818"/>
<path d="M252.315 243.251C252.511 243.251 252.707 243.153 252.903 242.957L257.412 237.958C257.706 237.566 257.706 237.076 257.412 236.684C257.118 236.39 256.53 236.39 256.236 236.684L251.727 241.683C251.433 242.075 251.433 242.565 251.727 242.957C251.923 243.153 252.119 243.251 252.315 243.251Z" fill="#181818"/>
<path d="M222.619 260.598C222.815 260.598 223.011 260.5 223.207 260.304L227.715 255.306C228.009 254.914 228.009 254.424 227.715 254.032C227.421 253.738 226.833 253.738 226.539 254.032L222.031 259.03C221.737 259.422 221.737 259.912 222.031 260.304C222.227 260.598 222.423 260.598 222.619 260.598Z" fill="#181818"/>
<path d="M214.387 253.738C214.485 253.542 214.583 253.346 214.583 253.052L213.799 246.191C213.701 245.701 213.309 245.407 212.917 245.407C212.427 245.505 212.133 245.897 212.231 246.387L213.015 253.248C213.113 253.738 213.505 254.032 213.897 254.032C214.093 254.032 214.289 253.934 214.387 253.738Z" fill="#181818"/>
<path d="M231.343 273.045C231.539 273.045 231.735 272.947 231.931 272.751L236.439 267.752C236.733 267.36 236.733 266.87 236.439 266.478C236.145 266.184 235.557 266.184 235.263 266.478L230.755 271.477C230.461 271.869 230.461 272.359 230.755 272.751C230.853 272.947 231.147 273.045 231.343 273.045Z" fill="#181818"/>
<path d="M183.221 254.228C183.221 254.816 183.221 255.404 183.221 255.992L188.219 256.482C188.709 256.482 189.101 256.188 189.101 255.698C189.101 255.208 188.807 254.816 188.317 254.718L183.221 254.228Z" fill="#181818"/>
<path d="M242.22 232.765C242.416 232.765 242.612 232.667 242.808 232.471L247.316 227.473C247.61 227.081 247.61 226.591 247.316 226.199C247.022 225.905 246.434 225.905 246.14 226.199L241.632 231.197C241.338 231.589 241.338 232.079 241.632 232.471C241.828 232.667 242.024 232.765 242.22 232.765Z" fill="#181818"/>
<path d="M220.757 230.609C220.757 230.805 220.855 231.099 221.051 231.197L225.951 235.607C226.343 235.901 226.833 235.901 227.127 235.509C227.421 235.117 227.323 234.627 227.029 234.333L222.129 229.922C221.737 229.628 221.247 229.628 220.953 230.02C220.855 230.216 220.757 230.413 220.757 230.609Z" fill="#181818"/>
<path d="M197.236 255.012C197.334 255.012 197.53 255.012 197.628 254.914C198.02 254.718 198.118 254.13 197.922 253.738L194.688 247.759C194.492 247.367 194.002 247.171 193.61 247.465C193.218 247.661 193.12 248.249 193.316 248.641L196.55 254.62C196.746 254.914 196.942 255.012 197.236 255.012Z" fill="#181818"/>
<path d="M191.649 237.273C191.943 237.273 192.237 237.077 192.335 236.783L195.275 230.609C195.471 230.217 195.373 229.629 194.883 229.433C194.491 229.237 194.001 229.335 193.805 229.825L190.865 235.999C190.669 236.391 190.767 236.979 191.257 237.175C191.453 237.273 191.551 237.273 191.649 237.273Z" fill="#181818"/>
<path d="M200.47 167.689C200.765 167.689 201.059 167.493 201.157 167.199L204.097 161.024C204.293 160.632 204.195 160.044 203.705 159.848C203.313 159.652 202.823 159.75 202.627 160.24L199.686 166.414C199.49 166.806 199.588 167.395 200.078 167.591C200.274 167.689 200.372 167.689 200.47 167.689Z" fill="#181818"/>
<path d="M197.236 142.011C197.334 142.011 197.334 142.011 197.432 142.011C197.824 141.913 198.118 141.423 198.118 141.031L196.941 134.268C196.843 133.778 196.451 133.484 195.961 133.582C195.569 133.68 195.275 134.17 195.275 134.562L196.451 141.325C196.549 141.717 196.843 142.011 197.236 142.011Z" fill="#181818"/>
<path d="M182.437 165.336C182.535 165.336 182.535 165.336 182.633 165.336C183.025 165.238 183.319 164.748 183.319 164.356L182.143 157.594C182.045 157.104 181.653 156.81 181.163 156.908C180.771 157.006 180.477 157.496 180.477 157.888L181.653 164.65C181.653 165.042 182.045 165.336 182.437 165.336Z" fill="#181818"/>
<path d="M207.821 147.891C207.919 147.891 207.919 147.891 208.017 147.891C208.409 147.793 208.703 147.303 208.703 146.911L207.527 140.149C207.429 139.659 207.037 139.365 206.547 139.463C206.155 139.561 205.861 140.051 205.861 140.443L207.037 147.205C207.135 147.597 207.429 147.891 207.821 147.891Z" fill="#181818"/>
<path d="M202.921 124.37C203.117 124.37 203.215 124.37 203.411 124.37C203.705 124.272 203.901 124.076 203.901 123.782L205.273 117.607C204.685 117.999 203.999 118.293 203.411 118.685L202.332 123.39C202.234 123.782 202.528 124.272 202.921 124.37Z" fill="#181818"/>
<path d="M184.397 175.823C184.691 175.823 184.887 175.725 185.083 175.431L188.514 169.648C188.71 169.256 188.612 168.668 188.22 168.472C187.828 168.178 187.338 168.374 187.142 168.766L183.711 174.549C183.515 174.941 183.613 175.529 184.005 175.725C184.103 175.823 184.201 175.823 184.397 175.823Z" fill="#181818"/>
<path d="M207.429 238.351C207.625 238.057 207.723 237.763 207.527 237.371L204.782 231.098C204.586 230.706 204.096 230.51 203.704 230.706C203.312 230.902 203.116 231.392 203.312 231.882L206.056 238.155C206.252 238.547 206.742 238.743 207.134 238.547C207.33 238.547 207.429 238.449 207.429 238.351Z" fill="#181818"/>
<path d="M264.565 250.112L269.955 251.092C269.955 250.504 269.955 249.915 269.955 249.327L264.761 248.445C264.271 248.347 263.879 248.739 263.879 249.131C263.879 249.523 264.173 250.014 264.565 250.112Z" fill="#181818"/>
<path d="M266.233 234.136L269.859 234.724C269.859 234.136 269.859 233.548 269.859 232.96L266.527 232.372C266.037 232.274 265.645 232.666 265.645 233.058C265.547 233.646 265.841 234.136 266.233 234.136Z" fill="#181818"/>
<path d="M186.553 220.318C186.848 220.318 187.142 220.122 187.338 219.73L189.69 213.262C189.886 212.772 189.69 212.282 189.2 212.184C188.808 211.987 188.318 212.184 188.122 212.674L185.769 219.142C185.573 219.632 185.769 220.122 186.259 220.22C186.357 220.318 186.455 220.318 186.553 220.318Z" fill="#181818"/>
<path d="M183.515 200.031C185.083 193.758 186.945 186.702 188.905 180.723C189.493 178.861 190.081 177.097 190.669 175.431V175.333C190.865 174.843 191.061 174.353 191.159 173.863C191.159 173.765 191.159 173.667 191.159 173.569C191.159 173.275 190.963 172.981 190.669 172.883C190.277 172.785 189.885 172.981 189.787 173.275C187.827 178.567 185.573 186.212 183.613 193.758C183.613 195.914 183.613 197.972 183.515 200.031Z" fill="#181818"/>
<path d="M206.841 78.3068C206.841 78.3068 201.156 72.0344 203.312 64.782C205.469 57.5295 211.251 57.6275 211.251 57.6275C211.251 57.6275 214.681 49.885 220.463 49.689C226.246 49.395 231.734 39.1044 237.027 41.9465C242.319 44.7887 236.438 50.8651 236.438 50.8651C236.438 50.8651 245.455 41.3585 248.493 44.1027C251.433 46.9448 244.377 54.3933 244.377 54.3933C244.377 54.3933 252.021 49.003 254.472 51.0611C256.922 53.1192 248.493 61.8418 248.493 61.8418C248.493 61.8418 253.982 71.7404 248.493 76.1507L206.841 78.3068Z" fill="#2F2F2F"/>
<path d="M246.434 80.4633C246.434 80.4633 250.06 75.661 252.706 79.5813C255.353 83.5995 251.628 95.3603 244.964 92.5181L246.434 80.4633Z" fill="#F97853"/>
<path d="M246.434 88.7937C246.63 88.7937 246.924 88.5977 246.924 88.4017C247.904 84.7755 251.726 83.3054 251.726 83.3054C252.02 83.2074 252.118 82.9134 252.02 82.6193C251.922 82.3253 251.628 82.2273 251.334 82.3253C251.138 82.4233 247.022 83.9914 245.846 88.2057C245.748 88.4997 245.944 88.7937 246.238 88.8917C246.336 88.7937 246.434 88.7937 246.434 88.7937Z" fill="#EA5143"/>
<path d="M250.257 87.0297C250.355 87.0297 250.453 87.0297 250.551 86.9317C250.845 86.7357 250.845 86.4417 250.747 86.1477C250.747 86.1477 250.061 85.0696 248.689 84.4816C248.395 84.3836 248.101 84.4816 247.905 84.7756C247.807 85.0696 247.905 85.3636 248.199 85.5596C249.277 86.0497 249.767 86.8337 249.767 86.8337C249.865 86.9317 250.061 87.0297 250.257 87.0297Z" fill="#EA5143"/>
<path d="M209.094 80.4633C209.094 80.4633 205.468 75.661 202.822 79.5813C200.176 83.5995 203.9 95.3603 210.564 92.5181L209.094 80.4633Z" fill="#F97853"/>
<path d="M209.095 88.7937C208.899 88.7937 208.605 88.5977 208.605 88.4017C207.625 84.7755 203.802 83.3054 203.802 83.3054C203.508 83.2074 203.41 82.9134 203.508 82.6193C203.606 82.3253 203.9 82.2273 204.194 82.3253C204.39 82.4233 208.507 83.9914 209.683 88.2057C209.781 88.4997 209.585 88.7937 209.291 88.8917C209.193 88.7937 209.095 88.7937 209.095 88.7937Z" fill="#EA5143"/>
<path d="M205.272 87.0297C205.174 87.0297 205.076 87.0297 204.978 86.9317C204.684 86.7357 204.684 86.4417 204.782 86.1477C204.782 86.1477 205.468 85.0696 206.84 84.4816C207.134 84.3836 207.428 84.4816 207.624 84.7756C207.722 85.0696 207.624 85.3636 207.33 85.5596C206.252 86.0497 205.762 86.8337 205.762 86.8337C205.664 86.9317 205.468 87.0297 205.272 87.0297Z" fill="#EA5143"/>
<path d="M218.798 102.515V114.275C218.798 114.275 222.326 120.254 227.03 120.646C231.735 121.038 235.949 115.549 235.949 115.549V103.397L218.798 102.515Z" fill="#FFA681"/>
<path d="M218.798 102.515V107.709C221.934 111.237 227.618 112.119 235.949 110.845V103.299L218.798 102.515Z" fill="#F97853"/>
<path d="M206.448 72.4265C206.644 76.9347 207.134 82.7171 207.918 87.2254C208.114 88.3034 208.408 89.3815 208.604 90.3616C208.8 90.9496 208.898 91.5376 209.094 92.1257C211.838 100.848 218.307 113.491 234.478 107.709C241.24 105.259 244.867 98.2021 246.631 90.6556C246.729 90.1656 246.827 89.7735 246.925 89.2835C247.023 88.9895 247.023 88.6955 247.121 88.4014L247.219 88.0094C247.219 87.9114 247.219 87.9114 247.219 87.8134C248.297 81.933 248.493 76.0527 248.395 71.7404C248.297 67.4281 245.945 63.5079 242.22 61.3518C232.028 55.5694 221.247 57.7255 214.191 60.4697C209.388 62.3318 206.252 67.1341 206.448 72.4265Z" fill="#FFA681"/>
<path d="M208.017 87.2253C208.115 87.7153 208.703 89.7735 209.291 92.1256C212.035 100.848 218.503 113.491 234.674 107.709C241.437 105.258 245.063 98.202 246.827 90.6555C246.925 90.1655 247.023 89.7735 247.121 89.2834C247.219 88.9894 247.219 88.6954 247.317 88.4014L247.415 88.0094C247.415 87.9114 247.415 87.9113 247.415 87.8133L245.063 87.3233C244.573 89.5775 243.593 91.7336 242.417 93.5957C240.359 88.7934 230.166 91.9296 230.166 91.9296C229.578 92.1256 228.892 92.2236 228.304 92.2236C227.618 92.2236 227.03 92.1256 226.344 91.9296C226.344 91.9296 216.249 88.5974 214.191 93.2037C212.133 89.9695 210.663 87.0293 210.663 87.0293L208.017 87.2253ZM228.108 94.0857C239.673 92.5176 237.81 98.79 237.81 98.79C236.536 99.9661 235.36 100.848 234.576 101.24C232.028 102.612 229.578 103.2 227.814 103.102C226.05 103.004 225.56 103.396 221.051 100.946C220.267 100.554 219.483 99.8681 218.699 99.1821C218.503 97.908 216.543 92.1256 228.108 94.0857Z" fill="#2F2F2F"/>
<path d="M217.621 80.8547C217.621 82.1288 218.307 83.1089 219.091 83.1089C219.875 83.1089 220.561 82.1288 220.561 80.8547C220.561 79.5807 219.875 78.6006 219.091 78.6006C218.307 78.6006 217.621 79.5807 217.621 80.8547Z" fill="#2F2F2F"/>
<path d="M235.654 80.8547C235.654 82.1288 236.34 83.1089 237.124 83.1089C237.908 83.1089 238.594 82.1288 238.594 80.8547C238.594 79.5807 237.908 78.6006 237.124 78.6006C236.34 78.6006 235.654 79.5807 235.654 80.8547Z" fill="#2F2F2F"/>
<path d="M213.995 73.2106C213.995 73.2106 219.973 70.8584 224.482 72.8186L223.992 75.3667C223.992 75.3667 217.229 74.7787 213.897 76.1508C213.603 75.2687 213.603 74.1906 213.995 73.2106Z" fill="#2F2F2F"/>
<path d="M242.22 73.2106C242.22 73.2106 236.242 70.8584 231.636 72.8186L232.126 75.3667C232.126 75.3667 238.888 74.7787 242.318 76.1508C242.612 75.2687 242.612 74.2886 242.22 73.2106Z" fill="#2F2F2F"/>
<path d="M227.52 90.9496C226.54 90.9496 225.658 90.5576 225.462 90.5576C225.168 90.4596 225.07 90.1656 225.168 89.8715C225.266 89.5775 225.658 89.4795 225.854 89.5775C226.344 89.7735 227.52 90.0676 228.108 89.7735C228.206 89.6755 228.304 89.5775 228.402 89.2835C228.598 87.3234 228.108 80.855 228.108 80.757C228.108 80.463 228.304 80.1689 228.598 80.1689C228.892 80.1689 229.186 80.365 229.186 80.659C229.186 80.953 229.774 87.3234 229.48 89.3815C229.382 90.1656 228.99 90.5576 228.696 90.7536C228.402 90.9496 228.01 90.9496 227.52 90.9496Z" fill="#F97853"/>
<path d="M234.675 95.2617C234.283 97.4179 232.813 101.338 228.108 101.338C223.404 101.338 222.032 97.8099 221.542 95.2617H234.675Z" fill="white"/>
<path d="M206.448 72.4265C206.644 76.9347 207.134 82.7171 208.016 87.2254L210.466 87.0294C210.466 87.0294 209.878 83.2071 209.584 80.659C209.29 78.1108 208.8 73.5045 210.956 72.9165C213.113 72.3284 211.838 67.0361 214.779 64.684C217.719 62.3318 224.383 61.7438 228.794 64.3899C233.204 67.0361 238.104 64.1939 240.162 64.684C242.22 65.174 244.965 67.9182 244.18 70.5643C243.396 73.1125 245.651 74.7786 246.239 77.4248C246.827 80.0709 245.063 87.3234 245.063 87.3234L247.415 87.8134C248.493 81.933 248.689 76.0527 248.591 71.7404C248.493 67.4281 246.141 63.5079 242.416 61.3518C232.224 55.5694 221.443 57.7255 214.387 60.4697C209.388 62.3318 206.252 67.1341 206.448 72.4265Z" fill="#2F2F2F"/>
<path d="M308.962 197.776C307.492 211.595 298.475 242.369 292.203 248.445C284.068 256.285 257.313 272.849 243.396 281.375C240.848 282.943 252.707 293.136 252.707 293.136C252.707 293.136 289.655 277.357 303.768 264.91C307.786 261.382 315.822 250.307 325.035 229.04C327.779 222.571 334.542 209.635 334.15 201.206C333.758 191.405 318.371 193.072 308.962 197.776Z" fill="#0FAA61"/>
<path d="M280.05 277.063C280.05 277.063 269.956 280.885 266.428 285.099C262.899 289.314 258.195 292.842 259.273 294.508C260.449 296.174 265.644 291.372 265.644 291.372C265.644 291.372 267.114 296.664 272.112 297.252C277.208 297.84 286.715 287.942 286.715 287.942L280.05 277.063Z" fill="#FFA681"/>
<path d="M379.33 236.292C379.33 237.174 379.33 238.154 379.33 239.33C379.33 240.506 379.33 241.781 379.232 243.251C379.232 244.231 379.134 245.211 379.134 246.387C379.134 247.269 379.036 248.249 379.036 249.229C379.036 250.209 378.938 251.287 378.938 252.365C378.252 266.772 376.585 286.765 372.861 302.74H294.652C297.299 291.078 301.219 272.75 304.453 248.935C304.551 247.955 304.747 246.877 304.845 245.897C304.943 244.917 305.139 243.839 305.237 242.761C305.335 242.173 305.335 241.683 305.433 241.095C305.531 240.604 305.531 240.212 305.629 239.722C305.727 238.448 305.923 237.174 306.021 235.9C306.119 234.822 306.217 233.842 306.315 232.862C307.687 216.887 307.197 204.832 309.157 197.678C311.411 189.347 337.579 179.743 337.579 179.743L353.946 180.625C353.946 180.625 369.627 185.721 377.958 193.072C386.288 200.422 379.33 222.277 379.526 234.724C379.33 235.214 379.33 235.704 379.33 236.292Z" fill="#3C4145"/>
<path d="M379.33 239.428C372.175 240.31 364.825 240.604 357.474 240.604C333.659 240.604 311.216 236.978 305.825 235.998C305.923 234.92 306.021 233.94 306.119 232.96C312.392 234.038 348.85 240.114 379.33 236.292C379.33 237.174 379.33 238.252 379.33 239.428Z" fill="#E0D5F8"/>
<path d="M379.232 243.251C379.232 244.231 379.134 245.211 379.134 246.387C372.077 247.269 364.727 247.563 357.474 247.563C332.287 247.563 308.765 243.447 305.041 242.859C305.139 242.27 305.139 241.78 305.237 241.192C305.335 240.702 305.335 240.31 305.433 239.82C309.059 240.408 347.38 247.171 379.232 243.251Z" fill="#E0D5F8"/>
<path d="M379.036 249.229C379.036 250.209 378.938 251.287 378.938 252.366C371.588 253.346 363.943 253.64 356.397 253.64C331.993 253.64 309.158 249.817 304.355 249.033C304.453 248.053 304.649 246.975 304.747 245.995C310.334 246.877 347.968 253.248 379.036 249.229Z" fill="#E0D5F8"/>
<path d="M342.087 195.522C350.221 195.522 357.768 186.897 358.062 186.505C358.258 186.309 358.258 185.917 357.964 185.721C357.768 185.525 357.376 185.525 357.18 185.819C357.082 185.917 349.241 195.032 341.303 194.444C341.009 194.444 340.715 194.64 340.715 194.934C340.715 195.228 340.911 195.522 341.205 195.522C341.597 195.522 341.793 195.522 342.087 195.522Z" fill="#181818"/>
<path d="M349.144 293.038C349.438 293.038 349.634 292.842 349.732 292.548C349.732 292.254 349.536 291.96 349.242 291.862C328.17 289.411 319.448 252.953 319.35 252.561C319.252 252.267 318.958 252.071 318.664 252.169C318.37 252.267 318.174 252.561 318.272 252.855C318.566 254.423 327.19 290.489 349.144 293.038Z" fill="#181818"/>
<path d="M340.715 281.963C340.911 281.963 341.107 281.865 341.205 281.669C341.401 281.375 341.303 281.081 341.009 280.885C329.836 274.025 328.17 263.832 328.17 263.734C328.17 263.44 327.876 263.244 327.484 263.244C327.19 263.244 326.994 263.538 326.994 263.93C327.092 264.322 328.758 274.711 340.421 281.963C340.519 281.963 340.617 281.963 340.715 281.963Z" fill="#181818"/>
<path d="M347.282 164.944C360.002 164.944 370.314 154.632 370.314 141.912C370.314 129.192 360.002 118.881 347.282 118.881C334.563 118.881 324.251 129.192 324.251 141.912C324.251 154.632 334.563 164.944 347.282 164.944Z" fill="#2F2F2F"/>
<path d="M324.643 137.796C324.643 137.796 318.076 136.032 318.958 129.661C319.645 124.271 326.015 127.799 325.427 123.585C324.839 119.371 323.663 115.549 329.053 114.471C333.855 113.588 333.953 116.823 340.128 112.118C347.576 106.532 353.261 119.469 359.827 119.861C369.53 120.449 370.804 125.937 371.784 130.348C372.764 134.758 368.942 137.894 368.942 137.894H324.643V137.796Z" fill="#2F2F2F"/>
<path d="M328.074 148.38C328.074 148.38 324.447 143.48 321.703 147.498C318.959 151.517 322.781 163.473 329.446 160.533L328.074 148.38Z" fill="#F97853"/>
<path d="M328.073 156.907C327.779 156.907 327.583 156.711 327.485 156.515C326.407 152.889 322.683 151.321 322.585 151.321C322.291 151.223 322.193 150.929 322.291 150.635C322.389 150.341 322.683 150.243 322.977 150.341C323.173 150.439 327.387 152.007 328.563 156.221C328.661 156.515 328.465 156.809 328.171 156.907C328.171 156.907 328.073 156.907 328.073 156.907Z" fill="#EA5143"/>
<path d="M324.252 155.044C324.154 155.044 324.056 155.044 323.958 154.946C323.664 154.75 323.664 154.456 323.762 154.162C323.762 154.162 324.448 153.084 325.918 152.496C326.212 152.398 326.506 152.496 326.702 152.79C326.8 153.084 326.702 153.378 326.408 153.574C325.33 154.064 324.742 154.848 324.742 154.848C324.546 154.946 324.35 155.044 324.252 155.044Z" fill="#EA5143"/>
<path d="M354.632 170.628V182.487C354.632 182.487 349.732 187.681 345.027 188.073C340.225 188.465 337.383 182.781 337.383 182.781V171.51L354.632 170.628Z" fill="#FFA681"/>
<path d="M354.632 170.628V175.92C351.398 179.448 345.714 180.331 337.285 179.154V171.51L354.632 170.628Z" fill="#F97853"/>
<path d="M367.557 139.77C367.361 144.376 366.871 150.159 365.989 154.765C365.793 155.941 365.499 157.019 365.205 157.999C362.755 166.722 356.482 181.717 339.037 175.444C331.295 172.7 327.766 164.075 326.198 155.353C325.12 149.473 324.924 143.396 325.022 139.182C325.12 134.772 327.472 130.851 331.295 128.695C341.585 122.815 352.464 125.069 359.618 127.813C364.617 129.577 367.851 134.478 367.557 139.77Z" fill="#FFA681"/>
<path d="M346.202 148.577V149.557C346.202 151.419 346.888 153.184 348.26 154.556C349.534 155.83 351.298 156.614 353.161 156.614H353.357C354.925 156.614 356.395 155.928 357.669 154.654C358.943 153.38 359.727 151.615 359.727 149.753V148.675C359.727 148.381 359.629 148.087 359.531 147.793C359.433 147.499 359.237 147.205 358.943 146.911C358.453 146.421 357.865 146.225 357.179 146.225H348.554C347.574 146.225 346.692 146.813 346.3 147.597C346.3 147.891 346.202 148.185 346.202 148.577ZM347.182 148.577C347.182 147.793 347.868 147.107 348.652 147.107H357.277C358.061 147.107 358.747 147.793 358.747 148.577V149.655C358.747 151.223 358.159 152.792 357.081 153.87C356.003 154.948 354.729 155.438 353.455 155.536H353.259C351.691 155.536 350.22 154.948 349.044 153.772C347.868 152.595 347.28 151.125 347.28 149.557V148.577H347.182Z" fill="#403657"/>
<path d="M328.855 148.577V149.557C328.855 151.419 329.64 153.183 330.914 154.555C332.188 155.829 333.952 156.613 335.814 156.613H336.01C337.578 156.613 339.048 155.927 340.322 154.653C341.596 153.379 342.38 151.615 342.38 149.753V148.675C342.38 148.381 342.282 147.989 342.184 147.695C341.792 146.813 340.91 146.225 339.93 146.225H331.306C330.522 146.225 329.836 146.617 329.444 147.107C329.247 147.401 329.051 147.695 328.953 147.989C328.953 148.185 328.855 148.381 328.855 148.577ZM329.934 148.577C329.934 147.793 330.62 147.107 331.404 147.107H340.028C340.812 147.107 341.498 147.793 341.498 148.577V149.655C341.498 151.223 340.91 152.791 339.832 153.869C338.754 154.947 337.48 155.437 336.206 155.535H336.01C334.442 155.535 332.972 154.947 331.796 153.771C330.62 152.595 330.032 151.125 330.032 149.557V148.577H329.934Z" fill="#403657"/>
<path d="M365.903 145.734C362.963 145.636 360.905 146.42 360.023 146.911C359.827 147.009 359.141 147.401 359.141 147.401L359.631 148.283C359.631 148.283 360.317 147.891 360.611 147.793C361.395 147.401 363.257 146.617 365.903 146.813V145.734Z" fill="#403657"/>
<path d="M346.889 148.674L347.183 147.694C347.085 147.694 345.713 147.204 344.145 147.204C342.479 147.204 341.401 147.694 341.303 147.694L341.793 148.576C341.793 148.576 342.675 148.184 344.145 148.184C345.517 148.184 346.791 148.674 346.889 148.674Z" fill="#403657"/>
<path d="M325.327 146.028V147.008C327.483 147.204 329.345 148.086 329.443 148.184L329.933 147.302C329.737 147.204 327.679 146.126 325.327 146.028Z" fill="#403657"/>
<path d="M336.893 149.948C336.893 151.222 336.207 152.202 335.423 152.202C334.639 152.202 333.953 151.222 333.953 149.948C333.953 148.674 334.639 147.694 335.423 147.694C336.207 147.596 336.893 148.674 336.893 149.948Z" fill="#2F2F2F"/>
<path d="M353.947 149.948C353.947 151.222 353.261 152.202 352.477 152.202C351.693 152.202 351.007 151.222 351.007 149.948C351.007 148.674 351.693 147.694 352.477 147.694C353.261 147.596 353.947 148.674 353.947 149.948Z" fill="#2F2F2F"/>
<path d="M330.72 142.892C330.72 142.892 336.796 140.54 341.402 142.5L341.01 144.656C341.01 144.656 335.914 143.48 331.014 145.342C330.72 144.362 330.328 143.97 330.72 142.892Z" fill="#2F2F2F"/>
<path d="M358.357 142.892C358.357 142.892 352.28 140.54 347.674 142.5L348.066 144.656C348.066 144.656 353.162 143.48 358.062 145.342C358.357 144.362 358.749 143.97 358.357 142.892Z" fill="#2F2F2F"/>
<path d="M344.832 159.553C345.813 159.553 346.695 159.161 346.891 159.161C347.185 159.063 347.283 158.671 347.185 158.475C347.087 158.181 346.695 158.083 346.499 158.181C346.009 158.377 344.734 158.671 344.244 158.377C344.146 158.279 344.048 158.181 343.95 157.887C343.754 155.927 344.244 149.36 344.244 149.262C344.244 148.968 344.048 148.674 343.754 148.674C343.46 148.674 343.166 148.87 343.166 149.164C343.166 149.458 342.578 155.927 342.872 157.985C342.97 158.769 343.362 159.161 343.656 159.357C343.95 159.455 344.44 159.553 344.832 159.553Z" fill="#F97853"/>
<path d="M337.873 162.396C338.363 164.748 339.833 168.962 345.028 168.962C350.222 168.962 351.594 165.042 352.084 162.396H337.873Z" fill="white"/>
<path d="M344.93 171.902C346.4 171.902 347.576 171.118 347.674 171.118C347.968 170.922 348.066 170.628 347.87 170.334C347.674 170.04 347.38 169.942 347.086 170.138C347.086 170.138 346.106 170.726 344.93 170.726C343.851 170.726 342.871 170.138 342.871 170.138C342.577 169.942 342.283 170.04 342.087 170.334C341.891 170.628 341.989 170.922 342.283 171.118C342.381 171.118 343.557 171.902 344.93 171.902Z" fill="#F97853"/>
<path d="M328.071 151.785C327.679 149.433 327.189 146.493 327.483 144.925C328.071 142.181 330.325 140.613 329.541 137.967C328.757 135.32 331.6 132.478 333.56 132.086C335.618 131.596 340.322 132.674 345.026 130.42C349.535 128.264 357.277 129.832 358.551 132.674C360.119 136.104 357.963 136.496 362.177 140.221C363.844 141.691 361.883 145.611 361.589 148.159C361.491 149.335 361.491 149.923 361.491 151.099V151.687H366.49C367.078 147.767 367.372 143.455 367.568 139.829C367.862 134.536 364.628 129.636 359.629 127.774C352.475 125.03 341.596 122.874 331.305 128.656C327.483 130.812 325.131 134.83 325.033 139.143C324.935 142.573 325.033 146.983 325.621 151.687H328.071V151.785Z" fill="#2F2F2F"/>
<path d="M363.845 154.261C363.845 152.987 363.943 151.615 364.139 150.341C364.433 148.576 364.923 147.008 366.785 146.224C368.255 145.636 369.823 145.636 370.901 147.302C373.645 151.321 370.607 163.865 363.943 160.925L363.845 154.261Z" fill="#FFA681"/>
<path d="M365.217 157.299C365.413 157.299 365.609 157.005 365.707 156.809C366.001 152.987 369.432 150.831 369.432 150.733C369.726 150.537 369.726 150.243 369.628 149.949C369.432 149.655 369.138 149.655 368.844 149.753C368.648 149.851 364.923 152.301 364.531 156.613C364.531 156.907 364.727 157.201 365.021 157.201C365.119 157.299 365.119 157.299 365.217 157.299Z" fill="#F97853"/>
<path d="M368.647 154.751C368.745 154.751 368.843 154.653 368.941 154.555C369.137 154.359 369.137 153.967 368.941 153.771C368.941 153.771 368.059 152.889 366.491 152.497C366.197 152.399 365.903 152.595 365.805 152.889C365.707 153.183 365.903 153.477 366.197 153.575C367.373 153.869 368.059 154.555 368.059 154.555C368.255 154.751 368.451 154.751 368.647 154.751Z" fill="#F97853"/>
<path d="M374.43 190.523C366.197 202.97 334.737 246.093 327.681 251.091C318.468 257.56 293.28 266.87 278.776 276.475C273.875 279.709 285.44 289.02 285.44 289.02C285.44 289.02 320.722 279.121 336.599 268.928C341.107 266.086 359.729 247.367 371.685 230.804C375.802 225.12 382.368 217.181 383.348 208.851C384.426 199.246 381.388 194.052 374.43 190.523Z" fill="#0FAA61"/>
<path d="M312.097 302.741H214.091C212.817 302.741 211.837 301.761 211.837 300.487V292.646C211.837 291.372 212.817 290.392 214.091 290.392H312.097C313.371 290.392 314.351 291.372 314.351 292.646V300.487C314.351 301.663 313.371 302.741 312.097 302.741Z" fill="#181818"/>
<path d="M211.838 302.741L192.53 230.609C191.452 226.591 194.491 222.572 198.705 222.572H241.141C243.984 222.572 246.532 224.434 247.316 227.277L268.583 302.839H211.838V302.741Z" fill="#181818"/>
<path d="M247.316 227.178L268.387 302.055H273.19L252.118 227.178C251.334 224.434 248.786 222.474 245.944 222.474H241.142C243.984 222.474 246.532 224.434 247.316 227.178Z" fill="#181818"/>
<path d="M236.437 265.793C237.515 270.595 234.575 274.417 229.773 274.417C224.971 274.417 220.266 270.595 219.188 265.793C218.11 260.99 221.05 257.168 225.853 257.168C230.557 257.168 235.261 261.088 236.437 265.793Z" fill="#0FAA61"/>
<path d="M367.767 36.8499C364.239 36.8499 361.299 33.9097 361.299 30.3815C361.299 26.8533 364.239 23.9131 367.767 23.9131C371.295 23.9131 374.236 26.8533 374.236 30.3815C374.236 33.9097 371.393 36.8499 367.767 36.8499ZM367.767 25.9712C365.317 25.9712 363.357 27.9313 363.357 30.3815C363.357 32.8316 365.317 34.7918 367.767 34.7918C370.217 34.7918 372.177 32.8316 372.177 30.3815C372.275 27.9313 370.217 25.9712 367.767 25.9712Z" fill="#0FAA61"/>
<path d="M391.093 59.5877C387.565 59.5877 384.625 56.6475 384.625 53.1193C384.625 49.5911 387.565 46.6509 391.093 46.6509C394.622 46.6509 397.562 49.5911 397.562 53.1193C397.562 56.6475 394.622 59.5877 391.093 59.5877ZM391.093 48.709C388.643 48.709 386.683 50.6691 386.683 53.1193C386.683 55.5694 388.643 57.5296 391.093 57.5296C393.544 57.5296 395.504 55.5694 395.504 53.1193C395.504 50.6691 393.544 48.709 391.093 48.709Z" fill="#0FAA61"/>
<path d="M399.13 80.6579C398.542 80.6579 398.15 80.1678 398.15 79.6778V75.1695C398.15 74.5815 398.64 74.1895 399.13 74.1895C399.718 74.1895 400.111 74.6795 400.111 75.1695V79.6778C400.111 80.1678 399.62 80.6579 399.13 80.6579Z" fill="#0FAA61"/>
<path d="M399.13 88.4987C398.542 88.4987 398.15 88.0087 398.15 87.5186V83.0103C398.15 82.4223 398.64 82.0303 399.13 82.0303C399.718 82.0303 400.111 82.5203 400.111 83.0103V87.5186C400.111 88.0087 399.62 88.4987 399.13 88.4987Z" fill="#0FAA61"/>
<path d="M405.402 82.3234H401.383C400.795 82.3234 400.403 81.8334 400.403 81.3433C400.403 80.7553 400.893 80.3633 401.383 80.3633H405.402C405.99 80.3633 406.382 80.8533 406.382 81.3433C406.382 81.8334 405.892 82.3234 405.402 82.3234Z" fill="#0FAA61"/>
<path d="M396.778 82.3239H392.759C392.171 82.3239 391.779 81.8339 391.779 81.3438C391.779 80.7558 392.269 80.3638 392.759 80.3638H396.778C397.366 80.3638 397.758 80.8538 397.758 81.3438C397.856 81.8339 397.366 82.3239 396.778 82.3239Z" fill="#0FAA61"/>
<path d="M363.358 55.5695C362.77 55.5695 362.378 55.0794 362.378 54.5894V50.0811C362.378 49.4931 362.868 49.1011 363.358 49.1011C363.946 49.1011 364.338 49.5911 364.338 50.0811V54.5894C364.338 55.0794 363.946 55.5695 363.358 55.5695Z" fill="#0FAA61"/>
<path d="M363.358 63.4103C362.77 63.4103 362.378 62.9203 362.378 62.4302V57.922C362.378 57.3339 362.868 56.9419 363.358 56.9419C363.946 56.9419 364.338 57.4319 364.338 57.922V62.4302C364.338 62.9203 363.946 63.4103 363.358 63.4103Z" fill="#0FAA61"/>
<path d="M369.631 57.235H365.613C365.025 57.235 364.633 56.745 364.633 56.255C364.633 55.6669 365.123 55.2749 365.613 55.2749H369.631C370.219 55.2749 370.611 55.7649 370.611 56.255C370.611 56.745 370.219 57.235 369.631 57.235Z" fill="#0FAA61"/>
<path d="M361.105 57.235H357.087C356.498 57.235 356.106 56.745 356.106 56.255C356.106 55.6669 356.596 55.2749 357.087 55.2749H361.105C361.693 55.2749 362.085 55.7649 362.085 56.255C362.085 56.745 361.693 57.235 361.105 57.235Z" fill="#0FAA61"/>
<path d="M67.4766 7.15493C67.4766 3.62671 70.4167 0.686523 73.945 0.686523C77.4732 0.686523 80.4134 3.62671 80.4134 7.15493C80.4134 10.6831 77.4732 13.6233 73.945 13.6233C70.3187 13.6233 67.4766 10.7812 67.4766 7.15493ZM69.4367 7.15493C69.4367 9.60508 71.3968 11.5652 73.847 11.5652C76.2971 11.5652 78.2572 9.60508 78.2572 7.15493C78.2572 4.70477 76.2971 2.74465 73.847 2.74465C71.4948 2.74465 69.4367 4.70477 69.4367 7.15493Z" fill="#0FAA61"/>
<path d="M41.5049 31.8522C41.5049 28.324 44.4451 25.3838 47.9733 25.3838C51.5015 25.3838 54.4417 28.324 54.4417 31.8522C54.4417 35.3804 51.5015 38.3206 47.9733 38.3206C44.3471 38.3206 41.5049 35.3804 41.5049 31.8522ZM43.465 31.8522C43.465 34.3023 45.4251 36.2625 47.8753 36.2625C50.3254 36.2625 52.2856 34.3023 52.2856 31.8522C52.2856 29.402 50.3254 27.4419 47.8753 27.4419C45.5231 27.4419 43.465 29.402 43.465 31.8522Z" fill="#0FAA61"/>
<path d="M27.9791 40.966C28.5671 40.966 28.9591 40.4759 28.9591 39.9859V35.4776C28.9591 34.8896 28.4691 34.4976 27.9791 34.4976C27.391 34.4976 26.999 34.9876 26.999 35.4776V39.9859C26.999 40.4759 27.4891 40.966 27.9791 40.966Z" fill="#0FAA61"/>
<path d="M27.9791 48.7086C28.5671 48.7086 28.9591 48.2186 28.9591 47.7286V43.2203C28.9591 42.6323 28.4691 42.2402 27.9791 42.2402C27.391 42.2402 26.999 42.7303 26.999 43.2203V47.7286C26.999 48.3166 27.4891 48.7086 27.9791 48.7086Z" fill="#0FAA61"/>
<path d="M21.7076 42.6325H25.7258C26.3139 42.6325 26.7059 42.1425 26.7059 41.6524C26.7059 41.0644 26.2159 40.6724 25.7258 40.6724H21.7076C21.1196 40.6724 20.7275 41.1624 20.7275 41.6524C20.7275 42.1425 21.1196 42.6325 21.7076 42.6325Z" fill="#0FAA61"/>
<path d="M30.234 42.633H34.2522C34.8403 42.633 35.2323 42.1429 35.2323 41.6529C35.2323 41.0649 34.7422 40.6729 34.2522 40.6729H30.234C29.6459 40.6729 29.2539 41.1629 29.2539 41.6529C29.2539 42.1429 29.7439 42.633 30.234 42.633Z" fill="#0FAA61"/>
<path d="M51.4039 6.4684C51.9919 6.4684 52.384 5.97837 52.384 5.48834V0.980061C52.384 0.392024 51.8939 0 51.4039 0C50.8159 0 50.4238 0.490031 50.4238 0.980061V5.48834C50.4238 6.07638 50.8159 6.4684 51.4039 6.4684Z" fill="#0FAA61"/>
<path d="M51.4039 14.3092C51.9919 14.3092 52.384 13.8192 52.384 13.3292V8.82088C52.384 8.23284 51.8939 7.84082 51.4039 7.84082C50.8159 7.84082 50.4238 8.33085 50.4238 8.82088V13.3292C50.4238 13.9172 50.8159 14.3092 51.4039 14.3092Z" fill="#0FAA61"/>
<path d="M45.1314 8.23258H49.1497C49.7377 8.23258 50.1297 7.74255 50.1297 7.25252C50.1297 6.76249 49.6397 6.27246 49.1497 6.27246H45.1314C44.5434 6.27246 44.1514 6.76249 44.1514 7.25252C44.1514 7.74255 44.5434 8.23258 45.1314 8.23258Z" fill="#0FAA61"/>
<path d="M53.6578 8.23209H57.676C58.2641 8.23209 58.6561 7.74206 58.6561 7.25203C58.6561 6.762 58.1661 6.27197 57.676 6.27197H53.6578C53.0698 6.27197 52.6777 6.762 52.6777 7.25203C52.6777 7.74206 53.0698 8.23209 53.6578 8.23209Z" fill="#0FAA61"/>
<path d="M317.098 14.0148V33.7141C317.098 36.3602 314.942 38.4184 312.393 38.4184H276.621L265.841 42.3386C264.762 42.7306 263.684 41.6526 264.076 40.5745L268.193 29.9898V14.0148C268.193 11.3687 270.349 9.31055 272.897 9.31055H312.393C315.04 9.31055 317.098 11.4667 317.098 14.0148Z" fill="#0FAA61"/>
<g opacity="0.5">
<path d="M309.55 19.6009H276.718C276.032 19.6009 275.444 19.0129 275.444 18.3268C275.444 17.6408 276.032 17.0527 276.718 17.0527H309.55C310.236 17.0527 310.825 17.6408 310.825 18.3268C310.825 19.0129 310.236 19.6009 309.55 19.6009Z" fill="#181818"/>
<path d="M309.55 24.8934H276.718C276.032 24.8934 275.444 24.3053 275.444 23.6193C275.444 22.9333 276.032 22.3452 276.718 22.3452H309.55C310.236 22.3452 310.825 22.9333 310.825 23.6193C310.825 24.3053 310.236 24.8934 309.55 24.8934Z" fill="#181818"/>
<path d="M309.55 30.0877H276.718C276.032 30.0877 275.444 29.4997 275.444 28.8136C275.444 28.1276 276.032 27.5396 276.718 27.5396H309.55C310.236 27.5396 310.825 28.1276 310.825 28.8136C310.825 29.4997 310.236 30.0877 309.55 30.0877Z" fill="#181818"/>
</g>
<path d="M422.65 310.091V310.777C422.65 314.795 419.318 318.128 415.3 318.128H33.6639C29.6457 318.128 26.3135 314.795 26.3135 310.777V310.091C26.3135 306.073 29.6457 302.741 33.6639 302.741H415.3C419.318 302.741 422.65 305.975 422.65 310.091Z" fill="#0FAA61"/>
<path d="M422.65 310.091V310.483H26.3135V310.091C26.3135 306.073 29.6457 302.741 33.6639 302.741H415.3C419.318 302.741 422.65 305.975 422.65 310.091Z" fill="#2ECC82"/>
</svg>
