<svg width="453" height="319" fill="none" xmlns="http://www.w3.org/2000/svg"><path d="M47.777 182.194c-7.645-13.819-22.051-13.231-27.246 1.47-1.666 4.802-2.352 11.074-.882 19.111 5.586 30.676 23.914 41.456 36.36 23.913 7.84-10.878-.588-30.774-8.232-44.494Z" fill="#EBDEF3"/><path d="M410.693 193.562c-1.47 7.546 4.803 12.839 11.761 9.899 2.352-.98 4.704-2.843 6.763-6.077 7.938-12.349 3.92-22.933-7.155-21.855-6.762.686-9.899 10.585-11.369 18.033Z" fill="#D6D6D6"/><path d="M371.295 114.275c7.449 1.569 12.937-4.508 10.095-11.662-.882-2.352-2.744-4.704-5.88-6.86-12.251-8.135-22.836-4.313-21.954 6.762.588 6.86 10.389 10.192 17.739 11.76ZM189.396 33.91c5.88 4.803 13.524 1.862 14.308-5.684.294-2.45-.294-5.39-2.156-8.82-7.056-12.84-18.327-14.31-22.639-4.117-2.548 6.37 4.606 13.819 10.487 18.621Z" fill="#2ECC82"/><path d="M426.373 303.622c2.548.392 5.293-.294 7.057-2.156 1.176-1.274 1.96-2.744 1.96-4.214v-.098c0-10.487 12.839-9.801 16.955-22.541 4.116-12.839-12.153-13.917-21.562-5.979-6.664 5.685-14.798-2.254-24.501 4.41-8.429 5.783-3.724 19.896-17.641 15.485-4.41-1.372-8.429-.098-11.761 2.451-3.822 2.94-6.37 6.958-7.448 11.368l1.078.784c27.539 16.759 39.888-2.156 55.863.49Z" fill="#D6D6D6"/><path d="m399.324 303.035 36.262-23.326c.49-.294.588-.98.294-1.47s-.98-.588-1.47-.294l-39.007 25.09h3.921Z" fill="#181818"/><path d="M397.364 233.744c-1.568-22.835-1.764-46.749-.098-62.626 2.254-20.777 7.252-35.184 14.897-42.926.49-.49 1.372-.49 1.862 0s.49 1.372 0 1.862c-13.427 13.525-18.229 49.787-14.015 105.062l-2.646-1.372Z" fill="#D6D6D6"/><path d="M400.794 152.791s-10.976 0-10.192-19.209c0-.098 16.759 4.704 10.192 19.209Zm-.98 9.899s-.588-10.878 18.622-11.172c.098-.098-3.725 16.857-18.622 11.172Zm8.428-27.05s-4.214-10.094 13.819-16.759c0 0 2.058 17.249-13.819 16.759Zm-10.878 46.847s-10.291 3.724-16.073-14.701c0 0 17.347-1.176 16.073 14.701Zm.588 10.193s-2.45-10.683 16.465-14.309c0 .098-.882 17.445-16.465 14.309Zm-.588 14.113s-10.193 3.92-16.367-14.407c.098 0 17.445-1.47 16.367 14.407ZM79.922 284.61l-2.94-.098-1.568-.098-4.508-.196s-41.359-70.271-15.485-93.204c7.938-7.056 21.953-1.176 18.817 31.264-2.842 30.088 5.684 62.332 5.684 62.332Z" fill="#0FAA61"/><path d="m76.885 284.512-1.568-.098c-7.253-17.053-10.879-35.282-12.643-48.121-2.156-15.289-2.254-26.266-2.254-26.462a.67.67 0 0 1 .686-.686.67.67 0 0 1 .686.686c0 .098.098 11.075 2.254 26.266 1.862 12.937 5.488 31.362 12.839 48.415Z" fill="#181818"/><path d="m88.155 298.723-4.019 1.47-2.156.784-6.076 2.254S-18.574 232.373 3.28 187.29c6.763-13.917 28.618-13.819 42.633 31.166 12.839 41.848 42.24 80.267 42.24 80.267Z" fill="#D6D6D6"/><path d="m84.038 300.193-2.156.784c-19.111-18.719-34.204-41.163-43.809-57.236-11.368-19.209-17.64-33.91-17.739-34.008-.196-.49 0-1.176.588-1.372.49-.196 1.176 0 1.372.588.098.196 6.273 14.799 17.641 33.812 9.605 16.171 24.796 38.811 44.103 57.432Z" fill="#181818"/><path d="M410.987 302.74c0-1.666-.196-3.234-.588-4.9-3.43-15.583 5.88-18.523 18.033-23.423 12.153-4.901 13.623-19.504 4.998-31.656-8.624-12.153 6.861-21.856 1.176-40.085-5.684-18.229-25.579-6.076-29.891 10.683-3.137 12.055-18.916 9.506-24.796 25.187-5.096 13.623 11.957 26.168-7.743 32.44-6.272 1.96-9.8 6.861-11.564 12.447-2.058 6.567-1.666 13.329.686 19.209h49.689v.098Z" fill="#0FAA61"/><path d="m386.877 302.74 32.538-80.267c.294-.784-.098-1.666-.784-1.96-.784-.294-1.666.098-1.96.784l-32.93 81.345h3.136v.098Z" fill="#181818"/><path d="M116.088 60.176s.686-14.407-8.135-17.249c-13.72-4.312-17.445 2.744-19.601 7.448-2.744 5.979-1.568 17.838 6.566 18.916 12.251 1.764 20.386-5.097 21.17-9.115Z" fill="#2F2F2F"/><path d="M124.908 108.493c7.155 0 13.231-4.998 14.701-11.957 1.078-4.998 2.058-9.408 2.058-11.956v-.098c.098-.784.098-1.568.098-2.353.098-11.368-6.958-32.244-31.656-28.911 0 0-20.483 2.352-22.835 22.345 0 0-.98 9.213-1.666 15.975v.392c-.882 8.821 6.076 16.563 14.995 16.563h24.305Z" fill="#2F2F2F"/><path d="M154.212 132.309s4.41 34.596 9.409 52.433c0 0 7.056-3.332 16.367-7.743 10.094-4.9 24.501-13.72 24.501-13.72l3.626 8.82s-37.34 35.282-49.787 37.242c-12.349 1.961-19.993-42.338-19.993-42.338l15.877-34.694Z" fill="#2ECC82"/><path d="M203.706 164.161s-.98-4.901 1.176-8.233c2.156-3.332 5.586-9.605 9.506-10.879 3.333-1.078-1.568 4.509-1.666 8.037 0 0 4.901-.588 8.429-1.764 3.136-.98 9.212-2.254 12.152-2.842.785-.196 1.275.784.687 1.372-.981.882-3.039 1.862-7.253 2.94 0 0 10.193-1.96 11.271-.392 1.078 1.568-11.761 3.724-11.761 3.724s9.997-.588 10.193.98c.196.98-10.193 3.136-10.193 3.136s9.409.294 7.154 1.764c-.686.392-18.915 2.451-25.285 9.997.098 0-4.214-4.41-4.41-7.84Z" fill="#FFA681"/><path d="M91.195 125.449s-20.876 6.174-38.909 10.192c0 0-.49-7.84-.98-18.131-.49-11.173.392-28.128.392-28.128l-9.506.98s-13.231 49.689-9.115 61.548c4.116 11.859 56.648-4.704 56.648-4.704l1.47-21.757Z" fill="#2ECC82"/><path d="M51.208 90.656s4.802-1.47 6.664-4.998c1.862-3.528 7.057-10.585 3.822-13.23-1.176-.98-2.058 3.233-5.096 4.998 0 0-1.764-4.607-2.45-8.233-.588-3.234-2.45-9.212-3.234-11.957-.196-.784-1.372-.686-1.47 0-.294 1.274-.196 3.529.882 7.743 0 0-3.136-9.899-5.096-10.095-1.863-.196 2.254 12.153 2.254 12.153s-4.215-9.017-5.685-8.527c-.882.294 2.058 10.389 2.058 10.389s-4.704-8.135-4.9-5.488c-.098.784 6.762 17.837 3.234 26.951.098.098 5.979 1.764 9.017.294Z" fill="#FFA681"/><path d="m153.427 266.48.196.784c-16.269 11.074-77.228 3.528-77.228 3.528.098-1.274.196-2.646.392-4.018.196-1.568.392-3.137.686-4.803.784-4.41 1.764-9.212 2.842-14.211.392-1.568.686-3.136 1.078-4.704 1.078-4.704 2.254-9.506 3.332-14.113.392-1.568.784-3.136 1.078-4.704.49-2.156.98-4.312 1.47-6.37.588-2.745 1.176-5.391 1.568-7.939.294-1.666.588-3.332.784-4.802.196-1.666.392-3.136.49-4.606-.98-3.627-1.862-7.057-2.744-10.487-.392-1.764-.784-3.43-1.274-5.096-1.274-5.391-2.352-10.487-3.332-15.191-.294-1.764-.686-3.431-.98-5.097a392.266 392.266 0 0 1-2.646-15.191c-.294-1.764-.49-3.43-.784-4.998-.196-1.666-.49-3.332-.588-4.704-.784-6.273-1.078-9.899-1.078-9.899.098-.098.294-.196.49-.294 1.862-1.274 4.704-2.548 7.938-3.626 3.43-1.176 7.154-2.156 10.487-2.94.49-.098.98-.196 1.47-.392 4.312-.98 7.546-1.568 7.546-1.568 14.799 3.136 19.013 1.078 19.013 1.078l7.547 2.254.882.294 5.488 1.96.196.098 9.801 3.43 6.566 2.254-2.548 11.761-1.078 5.096-3.332 15.387-1.078 5.097-3.332 15.387-1.078 4.998-2.745 12.741.588 2.45 1.079 4.704 1.666 7.547 1.568 6.762 1.078 4.704 3.234 14.113 1.078 4.704 3.234 14.015.98 4.607Z" fill="#0FAA61"/><path d="M132.16 124.567c-1.568 9.212-6.076 18.523-15.387 19.503-11.271 1.176-17.053-12.839-19.601-21.562 4.312-.98 8.82-1.96 8.82-1.96 14.799 3.137 17.642 1.176 17.642 1.176l7.644 2.549.882.294Z" fill="#FFA681"/><path d="M115.695 136.327c-11.76 0-14.603-14.505-14.603-14.701-.098-.294.196-.588.49-.686.295-.098.589.196.687.49.098.588 2.744 14.309 14.21 13.721 9.997-.49 10.585-11.565 10.585-12.055 0-.294.294-.588.588-.588s.588.294.588.588c0 .098-.686 12.545-11.663 13.133-.392.098-.686.098-.882.098Z" fill="#fff"/><path d="M94.526 132.309a2.844 2.844 0 0 1-2.842 2.842 2.844 2.844 0 0 1-2.842-2.842 2.844 2.844 0 0 1 2.842-2.842 2.844 2.844 0 0 1 2.842 2.842Zm-5.783 14.015a2.844 2.844 0 0 1-2.842 2.842 2.844 2.844 0 0 1-2.842-2.842 2.845 2.845 0 0 1 2.842-2.843 2.845 2.845 0 0 1 2.842 2.843Zm18.425 6.665a2.844 2.844 0 0 1-2.842 2.842 2.844 2.844 0 0 1-2.843-2.842 2.844 2.844 0 0 1 2.843-2.843c1.568-.098 2.842 1.176 2.842 2.843Zm-12.838 7.84c.588 1.47-.099 3.136-1.569 3.724-1.47.588-3.136-.098-3.724-1.568-.588-1.47.098-3.136 1.568-3.724 1.47-.686 3.136.098 3.724 1.568Zm24.991 5.292a2.844 2.844 0 0 1-2.842 2.843 2.844 2.844 0 0 1-2.842-2.843 2.844 2.844 0 0 1 2.842-2.842c1.47 0 2.842 1.274 2.842 2.842Zm18.327 5.881a2.844 2.844 0 0 1-2.842 2.842 2.844 2.844 0 0 1-2.842-2.842 2.844 2.844 0 0 1 2.842-2.842 2.844 2.844 0 0 1 2.842 2.842Zm3.627-36.851a2.844 2.844 0 0 1-2.842 2.842 2.844 2.844 0 0 1-2.842-2.842 2.844 2.844 0 0 1 2.842-2.842 2.844 2.844 0 0 1 2.842 2.842Zm-20.876 49.297a2.844 2.844 0 0 1-2.842 2.842 2.844 2.844 0 0 1-2.842-2.842 2.844 2.844 0 0 1 2.842-2.842 2.844 2.844 0 0 1 2.842 2.842Zm-17.641 8.919a2.844 2.844 0 0 1-2.843 2.842 2.844 2.844 0 0 1-2.842-2.842 2.845 2.845 0 0 1 2.842-2.843c1.471 0 2.843 1.275 2.843 2.843Zm-2.058-16.171a2.844 2.844 0 0 1-2.842 2.842 2.844 2.844 0 0 1-2.842-2.842 2.845 2.845 0 0 1 2.842-2.843c1.47-.098 2.842 1.177 2.842 2.843Zm28.324-23.522a2.844 2.844 0 0 1-2.842 2.842 2.844 2.844 0 0 1-2.842-2.842 2.844 2.844 0 0 1 2.842-2.842 2.844 2.844 0 0 1 2.842 2.842Zm15.876-3.626a2.844 2.844 0 0 1-2.842 2.842 2.844 2.844 0 0 1-2.842-2.842 2.844 2.844 0 0 1 2.842-2.842 2.844 2.844 0 0 1 2.842 2.842Zm-10.191 39.202a2.844 2.844 0 0 1-2.842 2.843 2.845 2.845 0 0 1-2.843-2.843 2.845 2.845 0 0 1 2.843-2.842c1.568-.098 2.842 1.274 2.842 2.842Zm.783 22.738a2.844 2.844 0 0 1-2.842 2.842 2.844 2.844 0 0 1-2.842-2.842 2.844 2.844 0 0 1 2.842-2.842 2.844 2.844 0 0 1 2.842 2.842Zm-14.602-9.507c.588 1.47-.098 3.136-1.568 3.724-1.47.588-3.136-.098-3.724-1.568-.588-1.47.098-3.136 1.568-3.724 1.47-.588 3.136.098 3.724 1.568Zm-19.602 8.429c.589 1.47-.098 3.136-1.568 3.724-1.47.588-3.136-.098-3.724-1.568-.588-1.47.098-3.136 1.568-3.724 1.47-.588 3.136.098 3.724 1.568Z" fill="#181818"/><path d="m159.504 302.742-.588-3.626-2.254-13.917-.784-4.705-2.254-13.328-4.019.196-53.413 2.45-19.797.882-1.274 10.29-.588 4.803-1.764 14.309-.294 2.646h87.029Z" fill="#9C78ED"/><path d="m159.504 302.741-.588-3.234v-.294l-.392-2.254-.392-2.254-1.568-9.311-.49-2.744-.294-1.96v-.294l-2.058-12.153-.098-.882-.196-.784-.196-.686-.882-4.018-1.764-7.841-.49-2.254-.882-3.92-1.078-4.704-.686-3.235-.49-2.254-1.961-8.722-.686-3.136-.294-1.568-.196-.687-1.372-6.076c-21.659 6.37-44.69 2.646-54.883.294-.49 2.058-.98 4.214-1.47 6.37l-.294 1.471c-.196.784-.392 1.47-.588 2.254-.098.392-.196.686-.294 1.078-.882 3.528-1.764 7.154-2.548 10.78-.197.785-.294 1.471-.49 2.255l-.294 1.176c-.393 1.568-.687 3.136-1.079 4.704-.49 2.058-.882 4.116-1.274 6.076-.196.784-.294 1.47-.49 2.156-.392 2.059-.784 4.019-1.078 5.881-.294 1.666-.49 3.234-.686 4.802-.098.49-.098.98-.196 1.372-.098.784-.196 1.47-.196 2.254v.294l-1.274 10.291-.196 1.568-.294 2.254-.098.98-1.372 11.271-.294 2.254-.098.686-.294 2.646h86.833v.098Z" fill="#181818"/><path d="M133.236 85.854s3.529-4.509 6.175-.784c2.646 3.724-1.078 14.602-7.547 11.956l1.372-11.172Z" fill="#F97853"/><path d="M133.334 93.694c.196 0 .49-.196.49-.392.98-3.332 4.705-4.704 4.705-4.802.294-.098.392-.392.294-.686-.098-.294-.392-.392-.686-.294-.196.098-4.215 1.568-5.391 5.488-.098.294.098.588.392.588.098.098.098.098.196.098Z" fill="#EA5143"/><path d="M137.059 92.028c.098 0 .196 0 .294-.098a.517.517 0 0 0 .196-.686s-.686-.98-2.058-1.568c-.294-.098-.588 0-.686.294-.098.294 0 .588.294.686 1.078.49 1.568 1.176 1.568 1.176 0 .098.196.196.392.196Z" fill="#EA5143"/><path d="M131.669 97.026c-.588.686-.98 1.568-.98 2.548 0 2.156 1.764 3.823 3.822 3.823 2.156 0 3.822-1.765 3.822-3.823 0-1.176-.588-2.254-1.47-3.038-.49-.392-.98-.588-1.568-.686-.098-.294-.098-.49.098-.686.686.196 1.372.49 1.96.98.98.882 1.666 2.058 1.666 3.528a4.6 4.6 0 0 1-4.606 4.607 4.6 4.6 0 0 1-4.606-4.607c0-1.078.392-2.058.98-2.842.392 0 .686.098.882.196Z" fill="#fff"/><path d="M106.089 108.689v13.427s6.272 4.802 11.075 5.194c4.9.392 6.566-5.292 6.566-5.292v-12.447l-17.641-.882Z" fill="#FFA681"/><path d="M106.089 110.061v5.39c3.234 3.627 9.016 4.901 17.641 3.627v-8.135l-17.641-.882Z" fill="#F97853"/><path d="M135.393 90.95c-.196 1.274-.294 2.646-.588 3.92-1.568 8.723-7.057 18.131-14.015 19.699-14.995 3.431-21.268-8.428-23.718-17.15-.294-.98.196-2.059 0-3.235-.49-2.744-1.568-5.782-1.862-8.82-.098-2.059-.196-4.117-.294-5.979-.196-5.292 2.842-10.192 7.645-12.055 6.958-2.744 17.445-4.9 27.343.883 3.627 2.156 5.979 6.174 6.077 10.486 0 3.332 0 7.743-.588 12.251Z" fill="#FFA681"/><path d="M116.38 97.713c-.294 0-.49-.196-.588-.49-.098-.294.196-.588.49-.686l1.96-.294-2.744-7.35c-.098-.295 0-.687.294-.785.294-.098.686 0 .784.294l3.234 8.723-3.43.588Z" fill="#F97853"/><path d="M123.535 88.01c0 1.274.686 2.352 1.47 2.352.784 0 1.47-1.078 1.47-2.352 0-1.274-.686-2.352-1.47-2.352-.784 0-1.47 1.078-1.47 2.352Zm-16.367 0c0 1.274.686 2.352 1.47 2.352.784 0 1.47-1.078 1.47-2.352 0-1.274-.686-2.352-1.47-2.352-.784 0-1.47 1.078-1.47 2.352Zm22.149-6.175c-1.176-.196-3.627-.588-6.175-.49-.686 0-1.176.49-1.078 1.078.098.392.49.686 1.078.686 1.764-.098 6.273-.098 8.429.49.098-.294-.098-.588-.49-.882-.392-.392-.98-.686-1.764-.882Zm-23.717.295c1.176-.295 3.626-.687 6.174-.589.686 0 1.176.49 1.176 1.078-.098.392-.49.686-1.078.686-1.764-.098-6.272 0-8.429.686-.098-.294.098-.686.392-.882.393-.49 1.079-.784 1.765-.98Z" fill="#403657"/><path d="M123.534 101.241c-.392 2.058-1.862 5.782-6.762 5.782-4.9 0-6.175-3.43-6.665-5.782h13.427Z" fill="#fff"/><path d="M116.87 110.551c1.372 0 2.646-.784 2.646-.784.294-.196.392-.49.196-.784-.196-.294-.49-.392-.784-.196 0 0-.98.588-2.058.588-1.176 0-2.156-.588-2.156-.588-.294-.196-.588-.098-.784.196-.196.294-.098.588.196.784 0 0 1.274.784 2.744.784Z" fill="#F97853"/><path d="M135.981 89.578c-.098.098-.294.098-.392-.196-1.96-3.528-.098-10.487-5.978-13.133-4.508-2.058-6.077-6.272-6.077-6.272-.98 1.764-3.724 3.332-3.724 3.332s-6.762 4.018-13.819 6.664c-2.058.784-3.528 1.666-4.606 2.352h.098s-1.96 3.137-.49 8.037-.392 13.035-3.528 14.897c.098-.098 2.45-5.782 1.078-10.29-.784-2.647-.784-6.763-1.47-9.311-.784-.588-2.646-1.47-3.332-1.862-.196-2.157-.294-4.313-.392-6.175-.294-5.39 2.94-10.389 8.036-12.349 7.253-2.842 18.327-4.998 28.814.882 3.822 2.157 6.272 6.273 6.37 10.683.098 3.724 0 8.135-.588 12.74Z" fill="#2F2F2F"/><path d="M97.073 85.854s-4.117-4.999-6.567-1.373c-2.45 3.627 1.176 14.603 7.057 12.055l-.49-10.682Z" fill="#FFA681"/><path d="M97.269 96.634c.392.784.588 1.764.294 2.745-.49 2.058-2.549 3.332-4.607 2.744-2.058-.588-3.332-2.549-2.744-4.607.294-1.176 1.078-2.058 2.156-2.548.49-.196 1.078-.392 1.666-.294.098-.196.197-.49 0-.784-.784 0-1.47.098-2.156.49-1.176.588-2.058 1.666-2.45 3.038-.588 2.45.882 4.901 3.332 5.489 2.45.588 4.9-.882 5.489-3.332.294-1.079.098-2.157-.294-3.039-.196 0-.49.098-.686.098Z" fill="#fff"/><path d="M96.192 92.813c-.196 0-.392-.099-.49-.392-.882-3.235-4.313-4.607-4.313-4.607-.294-.098-.392-.392-.294-.686.098-.294.392-.392.686-.294.196.098 3.92 1.47 4.999 5.292.098.294-.098.588-.392.588-.098.099-.196.099-.196.099Z" fill="#F97853"/><path d="M92.76 91.145c-.098 0-.196 0-.294-.098-.196-.196-.294-.49-.196-.686 0 0 .588-.98 1.862-1.47.294-.098.588 0 .686.294.098.294 0 .588-.294.686-.98.392-1.47 1.176-1.47 1.176s-.098.098-.294.098Z" fill="#F97853"/><path d="M314.549 194.052c-9.507 6.861-24.502 11.565-24.502 11.565l-3.038-10.977-2.352-8.624-1.666-6.077H265.84c.882 3.235 1.862 6.469 2.842 9.703 1.274 4.214 2.45 8.233 3.626 12.055 1.666 5.292 3.136 9.996 4.411 13.231.294.784.588 1.666.98 2.548 2.254 6.174 4.116 12.937 12.838 8.722 7.743-3.724 18.132-8.82 23.326-12.25l.686-19.896Z" fill="#FFA681"/><path d="M268.584 189.642c1.274 4.116 2.45 8.232 3.626 12.055a24.666 24.666 0 0 0 14.701-7.057l-2.352-8.624-15.975 3.626Z" fill="#F97853"/><path d="M264.958 129.564s17.837 42.633 25.58 56.451c0 0-10.781 9.115-21.268 9.409 0 0-6.076-46.847-4.312-65.86Z" fill="#0FAA61"/><path d="M223.109 302.741c.196-2.941.392-5.783.49-8.429a1665.451 1665.451 0 0 1 1.078-18.131l-4.214-.196-2.352-.098-28.618-1.274s-.49 8.232-1.176 20.287c-.098 2.45-.294 5.096-.392 7.841h35.184Z" fill="#131313"/><path d="m220.463 275.985 4.214.196s-.392 7.35-1.078 18.131c-10.977.882-23.031 1.274-35.38.588.588-12.055 1.176-20.287 1.176-20.287l28.618 1.274 2.45.098Z" fill="#3F3F3F"/><path d="M218.993 302.74c.686-11.466 1.176-21.365 1.47-26.755l-2.352-.098c-.294 5.39-.882 15.289-1.47 26.853h2.352Z" fill="#7846D1"/><path d="M232.322 302.741h35.184c-.098-2.745-.294-5.391-.392-7.841-.588-12.055-1.176-20.287-1.176-20.287l-28.618 1.274-2.352.098-4.214.196s.392 7.35 1.078 18.131c.196 2.646.392 5.488.49 8.429Z" fill="#9C78ED"/><path d="m235.066 275.985-4.214.196s.392 7.35 1.078 18.131c10.976.882 23.031 1.274 35.38.588-.588-12.055-1.176-20.287-1.176-20.287l-28.618 1.274-2.45.098Z" fill="#7846D1"/><path d="M238.889 302.74c-.686-11.564-1.176-21.463-1.47-26.853l-2.353.098c.294 5.39.882 15.289 1.47 26.755h2.353Z" fill="#7846D1"/><path d="M183.221 254.227v1.765c0 10.486.098 18.621.098 22.541 10.094 2.744 20.189 4.508 30.382 5.292.49 0 .882.098 1.372.098h.784c.588 0 1.078.098 1.666.098.588 0 1.176.098 1.764.098 6.86.294 13.819.196 20.679-.392 1.372-.098 2.744-.294 4.215-.392h.294c.392 0 .686-.098 1.078-.098.196 0 .392-.098.686-.098 8.036-.98 15.975-2.548 24.011-4.704v-9.801c0-4.802 0-10.878-.098-17.641v-1.764c0-4.508-.098-9.408-.098-14.407v-1.764c-.098-5.194-.098-10.585-.196-16.073-.098-3.332-.098-6.762-.196-10.094-.098-3.431-.098-6.861-.196-10.291 0-.784 0-1.47-.098-2.254-.784-32.244-2.156-61.744-4.41-65.076-1.568-2.254-5.097-4.999-9.311-7.645-.49-.294-1.078-.686-1.568-.98-1.764-1.078-16.367-6.076-18.229-7.154l-15.387-1.078c-.098.098-14.799 4.998-14.897 5.096-.588.392-1.274.686-1.862 1.078-5.488 3.136-10.879 6.468-13.917 9.311-.49.392-.882.784-1.176 1.176-.294.294-.49.588-.686.882-.196.294-.392.686-.49 1.372-1.862 6.762-2.842 33.42-3.332 62.43 0 2.058-.098 4.214-.098 6.272v5.586c0 1.569 0 3.137-.098 4.705v3.43c-.686 14.701-.686 28.912-.686 40.476Z" fill="#CCC"/><path d="M155.681 295.586c-.392 4.117 4.606 1.862 3.234-6.468-1.372-8.331 2.647-15.877 4.313-15.681 1.764.294-1.47 9.114.098 12.251 1.568 3.234 3.528-3.039 5.488-6.763 2.058-3.92 1.96-12.447.98-18.523-.98-6.076 10.095-43.025 10.193-53.805l1.372-4.509 4.9-16.661 7.743-26.069s-4.607-19.699-12.447-18.033c0 0-4.116 13.72-8.527 29.205-.784 2.647-1.47 5.293-2.254 7.939-3.136 11.271-6.076 22.345-7.448 28.912-3.627 17.347-3.921 53.413-3.921 53.413s-6.37 13.231-6.566 19.209c-.098 6.469 3.234 11.467 2.842 15.583Z" fill="#FFA681"/><path d="m170.773 178.665 10.585 23.522 4.9-16.662-13.23-14.798c-.784 2.646-1.471 5.292-2.255 7.938Z" fill="#F97853"/><path d="M170.284 171.707c4.606 7.938 9.311 15.779 14.015 23.717 1.568-5.194 3.136-10.094 4.606-14.701a167.255 167.255 0 0 1 1.764-5.292v-.098l.588-1.764c2.255-6.763 3.921-12.153 4.509-15.289 1.372-8.429-2.352-24.992-7.449-28.226-.098.294-.49-.588-.784-.098-.882 2.058-4.9 7.253-6.86 12.251-.294.686-.49 1.274-.784 1.96-2.842 7.448-6.371 17.053-9.605 27.54Z" fill="#0FAA61"/><path d="M227.225 127.8c6.665 0 11.369-6.076 11.565-6.37.294-.392.196-.883-.098-1.177-.392-.294-.882-.196-1.176.098-.098.098-4.41 5.685-10.291 5.685-5.782 0-9.408-6.371-9.408-6.469-.196-.392-.686-.588-1.078-.294-.392.196-.49.784-.294 1.176.196.393 4.018 7.351 10.78 7.351Zm28.227 58.411c.098 0 .294 0 .392-.098.392-.196.588-.784.392-1.176l-2.94-6.174c-.196-.392-.686-.588-1.078-.392-.392.196-.588.784-.392 1.176l2.94 6.174c.196.294.392.49.686.49Zm6.076-5.096c.098.098.196.098.392.098.49 0 .882-.294.882-.784l.588-6.86c0-.49-.294-.882-.784-.98-.49 0-.882.294-.882.784l-.588 6.86c0 .392.196.784.392.882Zm-15.583-10.584c.392 0 .784-.294.784-.686l1.078-6.763c.098-.49-.196-.882-.686-.98-.49-.098-.882.196-.98.686l-1.078 6.763c-.098.49.196.882.686.98h.196Zm-26.168 2.45c.098 0 .294 0 .392-.098.392-.196.49-.784.294-1.176l-3.332-5.978c-.196-.392-.686-.588-1.078-.294-.392.196-.49.784-.294 1.176l3.332 5.978c.098.294.392.392.686.392Zm32.145-26.56c.196 0 .294 0 .392-.098l5.391-3.724c.392-.294.49-.784.196-1.176-.196-.392-.784-.49-1.078-.294l-5.391 3.724c-.392.294-.49.784-.196 1.176.098.294.392.392.686.392Zm-24.109 55.276c.098 0 .294 0 .392-.098.393-.196.589-.784.393-1.176l-2.941-6.175c-.196-.392-.686-.588-1.078-.392-.392.196-.588.784-.392 1.176l2.94 6.175c.098.294.392.49.686.49Zm12.743-50.67c.294 0 .49-.098.686-.392.196-.392.098-.98-.294-1.176l-5.489-3.626c-.392-.294-.882-.098-1.078.294-.196.392-.098.98.294 1.176l5.489 3.626c.098.098.294.098.392.098Zm13.033-25.579c0 .196 0 .294.098.49.098.294.392.392.686.49.49 0 .882-.294.882-.784l.294-3.92c-.49-.294-1.078-.686-1.568-.98l-.392 4.704Zm7.252 37.733c.294 0 .49-.098.686-.392.196-.392.098-.98-.294-1.176l-5.489-3.627c-.392-.294-.882-.098-1.078.294-.196.392-.098.98.294 1.176l5.489 3.627c.098.098.294.098.392.098Zm-43.613-29.99c.196 0 .294 0 .49-.098.392-.294.49-.784.196-1.176l-3.136-5.097c-.294-.392-.784-.49-1.078-.294-.392.294-.49.784-.196 1.176l3.136 5.097c.098.294.392.392.588.392Zm-2.744 87.421c.196 0 .392-.098.588-.294l4.509-4.999a1.03 1.03 0 0 0 0-1.274c-.294-.294-.882-.294-1.176 0l-4.509 4.999a1.03 1.03 0 0 0 0 1.274c.196.196.392.294.588.294Zm16.368-1.078c.196 0 .392-.099.588-.295l4.508-4.998a1.03 1.03 0 0 0 0-1.274c-.294-.294-.882-.294-1.176 0l-4.509 4.998a1.03 1.03 0 0 0 0 1.274c.196.196.393.295.589.295Zm11.858 33.616a.837.837 0 0 0 0-.686l-2.744-6.175c-.196-.392-.686-.588-1.078-.392-.392.196-.588.686-.392 1.176l2.744 6.175c.196.392.686.588 1.078.392.196-.098.294-.294.392-.49Zm-47.141 20.581a.837.837 0 0 0 0-.686l-2.744-6.175c-.196-.392-.686-.588-1.078-.392-.392.196-.588.686-.392 1.176l2.744 6.175c.196.392.686.588 1.078.392.196-.098.294-.294.392-.49Zm20.287 10.291c.588 0 1.079.098 1.667.098l.588-3.921c.098-.49-.196-.882-.686-.98-.49-.098-.883.294-.883.686l-.686 4.117Zm-6.565-11.761c.196-.098.294-.294.294-.588l.98-6.86c.098-.49-.196-.882-.686-.98-.49-.098-.882.294-.882.686l-.98 6.86c-.098.49.196.882.686.98.294.098.49.098.588-.098Zm39.202-56.942c.098 0 .294 0 .392-.098.392-.196.49-.784.294-1.176l-3.234-5.978c-.196-.392-.686-.588-1.078-.294-.392.196-.49.784-.294 1.176l3.234 5.978c.196.196.49.392.686.392Zm-9.409-14.897a.737.737 0 0 0 .686-.49l2.94-6.174c.196-.392.098-.98-.392-1.176-.392-.196-.882-.098-1.078.392l-2.94 6.174c-.196.392-.098.98.392 1.176.098 0 .196.098.392.098Zm25.677-.881c.098.098.196.196.294.196.294.098.588.098.882-.098l3.333-2.941c0-.784 0-1.47-.098-2.254l-4.313 3.921c-.392.196-.392.784-.098 1.176Zm-25.677-64.194a.737.737 0 0 0 .686-.49l2.94-6.175c.196-.392.098-.98-.392-1.176-.392-.196-.882-.098-1.078.392l-2.94 6.175c-.196.392-.098.98.392 1.176a.74.74 0 0 0 .392.098Zm-18.915 22.443h.196c.392-.098.686-.588.686-.98l-1.176-6.762c-.098-.49-.49-.784-.98-.686-.392.098-.686.588-.686.98l1.176 6.762c0 .392.392.686.784.686Zm10.486 5.979h.196c.392-.098.686-.588.686-.98l-1.176-6.763c-.098-.49-.49-.784-.98-.686-.392.098-.686.588-.686.98l1.176 6.763c.098.392.49.686.784.686Zm-7.545-22.346c.294 0 .49-.098.686-.392l3.43-5.783c.196-.392.098-.98-.294-1.176-.392-.294-.882-.098-1.078.294l-3.43 5.783c-.196.392-.098.98.294 1.176.098.098.294.098.392.098Zm31.753 60.078c.196-.294.294-.588.098-.98l-2.744-6.273c-.196-.392-.686-.588-1.078-.392-.392.196-.588.686-.392 1.176l2.744 6.273c.196.392.686.588 1.078.392.098-.098.196-.098.294-.196Zm-20.973-18.034c.294 0 .588-.196.784-.588l2.353-6.468c.196-.491 0-.981-.49-1.079-.392-.196-.882 0-1.078.49l-2.353 6.469c-.196.49 0 .98.49 1.078.098 0 .196.098.294.098Zm-25.776 39.595c.098 0 .294 0 .392-.098.392-.196.588-.784.392-1.176l-2.94-6.175c-.196-.392-.686-.588-1.078-.392-.392.196-.588.784-.392 1.176l2.94 6.175c.098.294.392.49.686.49Zm42.829 44.299c0 .098 0 .294.098.392.196.392.686.588 1.078.392l5.685-3.136c.392-.196.588-.784.392-1.176-.196-.392-.686-.588-1.078-.392l-5.685 3.136c-.392.098-.49.392-.49.784Zm15.485 3.92c0 .098 0 .294.098.392.196.392.686.588 1.078.392l2.45-1.372v-1.96l-3.234 1.764c-.196.098-.392.49-.392.784Zm-24.011 7.644 1.96 4.509c.392 0 .686-.098 1.078-.098.196 0 .392-.098.686-.098l-2.156-4.999c-.196-.392-.686-.588-1.078-.392-.49.098-.686.686-.49 1.078Zm-44.888-71.544c.392 0 .784-.294.784-.686l1.078-6.762c.098-.49-.196-.882-.686-.98-.49-.098-.882.196-.98.686l-1.078 6.762c-.098.49.196.882.686.98h.196Zm-.685-50.179c.098 0 .294 0 .392-.098.392-.196.49-.784.294-1.176l-3.332-5.979c-.196-.392-.686-.588-1.078-.294-.392.196-.49.784-.294 1.176l3.332 5.979c.196.196.392.392.686.392Zm10.584 24.109c.196 0 .294 0 .392-.098l5.391-3.724c.392-.294.49-.784.196-1.176-.196-.392-.784-.49-1.078-.294l-5.391 3.724c-.392.294-.49.784-.196 1.176.196.294.392.392.686.392Zm57.335 40.477c.098 0 .294 0 .392-.098.392-.196.588-.784.392-1.176l-2.94-6.174c-.196-.393-.686-.589-1.079-.392-.392.196-.588.784-.392 1.176l2.941 6.174c.098.294.392.49.686.49Zm-66.546-31.166c.294 0 .49-.098.686-.392.196-.392.098-.98-.294-1.176l-5.489-3.626c-.392-.294-.882-.098-1.078.294-.196.392-.098.98.294 1.176l5.489 3.626c.098.098.196.098.392.098Zm13.132 8.722c.196.196.49.294.784.196.392-.098.686-.588.588-1.078l-1.666-6.664c-.098-.49-.588-.784-.98-.588-.392.098-.686.588-.588 1.078l1.666 6.664c0 .196.098.294.196.392Zm-23.129-70.27 1.372 2.254c.196.294.392.392.686.392.196 0 .294 0 .49-.098.392-.294.49-.784.196-1.176l-1.568-2.548-1.176 1.176Zm-6.176 15.19 1.47 2.451c.196.294.392.392.686.392.196 0 .294 0 .49-.098.392-.294.49-.784.196-1.176l-2.156-3.431c-.196.49-.392 1.176-.686 1.862Zm70.271 98.987c.196 0 .392-.098.588-.294l4.509-4.999a1.03 1.03 0 0 0 0-1.274c-.294-.294-.882-.294-1.176 0l-4.509 4.999a1.03 1.03 0 0 0 0 1.274c.196.196.392.294.588.294Zm-29.696 17.347c.196 0 .392-.098.588-.294l4.508-4.998a1.03 1.03 0 0 0 0-1.274c-.294-.294-.882-.294-1.176 0l-4.508 4.998a1.03 1.03 0 0 0 0 1.274c.196.294.392.294.588.294Zm-8.232-6.86c.098-.196.196-.392.196-.686l-.784-6.861c-.098-.49-.49-.784-.882-.784-.49.098-.784.49-.686.98l.784 6.861c.098.49.49.784.882.784a.539.539 0 0 0 .49-.294Zm16.956 19.307c.196 0 .392-.098.588-.294l4.508-4.999a1.03 1.03 0 0 0 0-1.274c-.294-.294-.882-.294-1.176 0l-4.508 4.999a1.03 1.03 0 0 0 0 1.274c.098.196.392.294.588.294Zm-48.122-18.817v1.764l4.998.49c.49 0 .882-.294.882-.784 0-.49-.294-.882-.784-.98l-5.096-.49Zm58.999-21.463c.196 0 .392-.098.588-.294l4.508-4.998a1.03 1.03 0 0 0 0-1.274c-.294-.294-.882-.294-1.176 0l-4.508 4.998a1.03 1.03 0 0 0 0 1.274c.196.196.392.294.588.294Zm-21.463-2.156c0 .196.098.49.294.588l4.9 4.41c.392.294.882.294 1.176-.098.294-.392.196-.882-.098-1.176l-4.9-4.411c-.392-.294-.882-.294-1.176.098-.098.196-.196.393-.196.589Zm-23.521 24.403c.098 0 .294 0 .392-.098.392-.196.49-.784.294-1.176l-3.234-5.979c-.196-.392-.686-.588-1.078-.294-.392.196-.49.784-.294 1.176l3.234 5.979c.196.294.392.392.686.392Zm-5.587-17.739a.737.737 0 0 0 .686-.49l2.94-6.174c.196-.392.098-.98-.392-1.176-.392-.196-.882-.098-1.078.392l-2.94 6.174c-.196.392-.098.98.392 1.176a.74.74 0 0 0 .392.098Zm8.821-69.584a.737.737 0 0 0 .687-.49l2.94-6.175c.196-.392.098-.98-.392-1.176-.392-.196-.882-.098-1.078.392l-2.941 6.174c-.196.392-.098.981.392 1.177a.74.74 0 0 0 .392.098Zm-3.234-25.678h.196c.392-.098.686-.588.686-.98l-1.177-6.763c-.098-.49-.49-.784-.98-.686-.392.098-.686.588-.686.98l1.176 6.763c.098.392.392.686.785.686Zm-14.799 23.325h.196c.392-.098.686-.588.686-.98l-1.176-6.762c-.098-.49-.49-.784-.98-.686-.392.098-.686.588-.686.98l1.176 6.762c0 .392.392.686.784.686Zm25.384-17.445h.196c.392-.098.686-.588.686-.98l-1.176-6.762c-.098-.49-.49-.784-.98-.686-.392.098-.686.588-.686.98l1.176 6.762c.098.392.392.686.784.686Zm-4.9-23.521h.49c.294-.098.49-.294.49-.588l1.372-6.175c-.588.392-1.274.686-1.862 1.078l-1.079 4.705c-.098.392.196.882.589.98Zm-18.524 51.453c.294 0 .49-.098.686-.392l3.431-5.783c.196-.392.098-.98-.294-1.176-.392-.294-.882-.098-1.078.294l-3.431 5.783c-.196.392-.098.98.294 1.176.098.098.196.098.392.098Zm23.032 62.528c.196-.294.294-.588.098-.98l-2.745-6.273c-.196-.392-.686-.588-1.078-.392-.392.196-.588.686-.392 1.176l2.744 6.273c.196.392.686.588 1.078.392.196 0 .295-.098.295-.196Zm57.136 11.761 5.39.98v-1.765l-5.194-.882c-.49-.098-.882.294-.882.686 0 .392.294.883.686.981Zm1.668-15.976 3.626.588v-1.764l-3.332-.588c-.49-.098-.882.294-.882.686-.098.588.196 1.078.588 1.078Zm-79.68-13.818c.295 0 .589-.196.785-.588l2.352-6.468c.196-.49 0-.98-.49-1.078-.392-.197-.882 0-1.078.49l-2.353 6.468c-.196.49 0 .98.49 1.078.098.098.196.098.294.098Zm-3.038-20.287c1.568-6.273 3.43-13.329 5.39-19.308a167.255 167.255 0 0 1 1.764-5.292v-.098c.196-.49.392-.98.49-1.47v-.294a.737.737 0 0 0-.49-.686c-.392-.098-.784.098-.882.392-1.96 5.292-4.214 12.937-6.174 20.483 0 2.156 0 4.214-.098 6.273Z" fill="#181818"/><path d="M206.841 78.307s-5.685-6.273-3.529-13.525c2.157-7.252 7.939-7.154 7.939-7.154s3.43-7.743 9.212-7.939c5.783-.294 11.271-10.585 16.564-7.742 5.292 2.842-.589 8.918-.589 8.918s9.017-9.507 12.055-6.762c2.94 2.842-4.116 10.29-4.116 10.29s7.644-5.39 10.095-3.332c2.45 2.058-5.979 10.78-5.979 10.78s5.489 9.9 0 14.31l-41.652 2.156Z" fill="#2F2F2F"/><path d="M246.434 80.463s3.626-4.802 6.272-.882c2.647 4.019-1.078 15.78-7.742 12.937l1.47-12.055Z" fill="#F97853"/><path d="M246.434 88.794c.196 0 .49-.196.49-.392.98-3.627 4.802-5.097 4.802-5.097.294-.098.392-.392.294-.686-.098-.294-.392-.392-.686-.294-.196.098-4.312 1.666-5.488 5.88-.098.295.098.589.392.687.098-.098.196-.098.196-.098Z" fill="#EA5143"/><path d="M250.257 87.03c.098 0 .196 0 .294-.098.294-.196.294-.49.196-.784 0 0-.686-1.078-2.058-1.666-.294-.098-.588 0-.784.294-.098.294 0 .588.294.784 1.078.49 1.568 1.274 1.568 1.274a.749.749 0 0 0 .49.196Z" fill="#EA5143"/><path d="M209.094 80.463s-3.626-4.802-6.272-.882c-2.646 4.019 1.078 15.78 7.742 12.937l-1.47-12.055Z" fill="#F97853"/><path d="M209.095 88.794c-.196 0-.49-.196-.49-.392-.98-3.627-4.803-5.097-4.803-5.097-.294-.098-.392-.392-.294-.686.098-.294.392-.392.686-.294.196.098 4.313 1.666 5.489 5.88.098.295-.098.589-.392.687-.098-.098-.196-.098-.196-.098Z" fill="#EA5143"/><path d="M205.272 87.03c-.098 0-.196 0-.294-.098-.294-.196-.294-.49-.196-.784 0 0 .686-1.078 2.058-1.666.294-.098.588 0 .784.294.098.294 0 .588-.294.784-1.078.49-1.568 1.274-1.568 1.274a.749.749 0 0 1-.49.196Z" fill="#EA5143"/><path d="M218.798 102.515v11.76s3.528 5.979 8.232 6.371c4.705.392 8.919-5.097 8.919-5.097v-12.152l-17.151-.882Z" fill="#FFA681"/><path d="M218.798 102.515v5.194c3.136 3.528 8.82 4.41 17.151 3.136v-7.546l-17.151-.784Z" fill="#F97853"/><path d="M206.448 72.427c.196 4.508.686 10.29 1.47 14.798.196 1.078.49 2.157.686 3.137.196.588.294 1.176.49 1.764 2.744 8.722 9.213 21.365 25.384 15.583 6.762-2.45 10.389-9.507 12.153-17.053.098-.49.196-.883.294-1.373.098-.293.098-.588.196-.882l.098-.392v-.196c1.078-5.88 1.274-11.76 1.176-16.073-.098-4.312-2.45-8.232-6.175-10.388-10.192-5.783-20.973-3.627-28.029-.882-4.803 1.862-7.939 6.664-7.743 11.957Z" fill="#FFA681"/><path d="M208.017 87.225c.098.49.686 2.549 1.274 4.9 2.744 8.723 9.212 21.366 25.383 15.584 6.763-2.451 10.389-9.507 12.153-17.053.098-.49.196-.883.294-1.373.098-.294.098-.588.196-.882l.098-.392v-.196l-2.352-.49c-.49 2.255-1.47 4.41-2.646 6.273-2.058-4.803-12.251-1.666-12.251-1.666a6.154 6.154 0 0 1-1.862.294c-.686 0-1.274-.098-1.96-.294 0 0-10.095-3.333-12.153 1.274-2.058-3.234-3.528-6.175-3.528-6.175l-2.646.196Zm20.091 6.86c11.565-1.567 9.702 4.705 9.702 4.705-1.274 1.176-2.45 2.058-3.234 2.45-2.548 1.372-4.998 1.96-6.762 1.862-1.764-.098-2.254.294-6.763-2.156-.784-.392-1.568-1.078-2.352-1.764-.196-1.274-2.156-7.056 9.409-5.096Zm-10.487-13.23c0 1.274.686 2.254 1.47 2.254.784 0 1.47-.98 1.47-2.254s-.686-2.254-1.47-2.254c-.784 0-1.47.98-1.47 2.254Zm18.033 0c0 1.274.686 2.254 1.47 2.254.784 0 1.47-.98 1.47-2.254s-.686-2.254-1.47-2.254c-.784 0-1.47.98-1.47 2.254Zm-21.659-7.645s5.978-2.352 10.487-.391l-.49 2.548s-6.763-.588-10.095.784a4.352 4.352 0 0 1 .098-2.94Zm28.225 0s-5.978-2.352-10.584-.391l.49 2.548s6.762-.588 10.192.784c.294-.882.294-1.862-.098-2.94Z" fill="#2F2F2F"/><path d="M227.52 90.95c-.98 0-1.862-.392-2.058-.392-.294-.098-.392-.392-.294-.687.098-.293.49-.391.686-.293.49.195 1.666.49 2.254.195.098-.097.196-.195.294-.49.196-1.96-.294-8.428-.294-8.526 0-.294.196-.588.49-.588s.588.196.588.49.588 6.664.294 8.722c-.098.785-.49 1.177-.784 1.373-.294.196-.686.196-1.176.196Z" fill="#F97853"/><path d="M234.675 95.262c-.392 2.156-1.862 6.076-6.567 6.076-4.704 0-6.076-3.528-6.566-6.076h13.133Z" fill="#fff"/><path d="M206.448 72.427c.196 4.508.686 10.29 1.568 14.798l2.45-.196s-.588-3.822-.882-6.37c-.294-2.548-.784-7.155 1.372-7.743 2.157-.588.882-5.88 3.823-8.232 2.94-2.352 9.604-2.94 14.015-.294 4.41 2.646 9.31-.196 11.368.294s4.803 3.234 4.018 5.88c-.784 2.549 1.471 4.215 2.059 6.86.588 2.647-1.176 9.9-1.176 9.9l2.352.49c1.078-5.881 1.274-11.761 1.176-16.074-.098-4.312-2.45-8.232-6.175-10.388-10.192-5.783-20.973-3.627-28.029-.882-4.999 1.862-8.135 6.664-7.939 11.957Z" fill="#2F2F2F"/><path d="M308.962 197.776c-1.47 13.819-10.487 44.593-16.759 50.669-8.135 7.84-34.89 24.404-48.807 32.93-2.548 1.568 9.311 11.761 9.311 11.761s36.948-15.779 51.061-28.226c4.018-3.528 12.054-14.603 21.267-35.87 2.744-6.469 9.507-19.405 9.115-27.834-.392-9.801-15.779-8.134-25.188-3.43Z" fill="#0FAA61"/><path d="M280.05 277.063s-10.094 3.822-13.622 8.036c-3.529 4.215-8.233 7.743-7.155 9.409 1.176 1.666 6.371-3.136 6.371-3.136s1.47 5.292 6.468 5.88c5.096.588 14.603-9.31 14.603-9.31l-6.665-10.879Z" fill="#FFA681"/><path d="M379.33 236.292v3.038c0 1.176 0 2.451-.098 3.921 0 .98-.098 1.96-.098 3.136 0 .882-.098 1.862-.098 2.842s-.098 2.058-.098 3.136c-.686 14.407-2.353 34.4-6.077 50.375h-78.209c2.647-11.662 6.567-29.99 9.801-53.805.098-.98.294-2.058.392-3.038.098-.98.294-2.058.392-3.136.098-.588.098-1.078.196-1.666.098-.491.098-.883.196-1.373.098-1.274.294-2.548.392-3.822.098-1.078.196-2.058.294-3.038 1.372-15.975.882-28.03 2.842-35.184 2.254-8.331 28.422-17.935 28.422-17.935l16.367.882s15.681 5.096 24.012 12.447c8.33 7.35 1.372 29.205 1.568 41.652-.196.49-.196.98-.196 1.568Z" fill="#3C4145"/><path d="M379.33 239.428c-7.155.882-14.505 1.176-21.856 1.176-23.815 0-46.258-3.626-51.649-4.606.098-1.078.196-2.058.294-3.038 6.273 1.078 42.731 7.154 73.211 3.332v3.136Zm-.098 3.823c0 .98-.098 1.96-.098 3.136-7.057.882-14.407 1.176-21.66 1.176-25.187 0-48.709-4.116-52.433-4.704.098-.589.098-1.079.196-1.667.098-.49.098-.882.196-1.372 3.626.588 41.947 7.351 73.799 3.431Zm-.196 5.978c0 .98-.098 2.058-.098 3.137-7.35.98-14.995 1.274-22.541 1.274-24.404 0-47.239-3.823-52.042-4.607.098-.98.294-2.058.392-3.038 5.587.882 43.221 7.253 74.289 3.234Z" fill="#E0D5F8"/><path d="M342.087 195.522c8.134 0 15.681-8.625 15.975-9.017a.518.518 0 0 0-.098-.784.518.518 0 0 0-.784.098c-.098.098-7.939 9.213-15.877 8.625-.294 0-.588.196-.588.49s.196.588.49.588h.882Zm7.057 97.516c.294 0 .49-.196.588-.49a.737.737 0 0 0-.49-.686c-21.072-2.451-29.794-38.909-29.892-39.301-.098-.294-.392-.49-.686-.392-.294.098-.49.392-.392.686.294 1.568 8.918 37.634 30.872 40.183Z" fill="#181818"/><path d="M340.715 281.963a.539.539 0 0 0 .49-.294c.196-.294.098-.588-.196-.784-11.173-6.86-12.839-17.053-12.839-17.151 0-.294-.294-.49-.686-.49-.294 0-.49.294-.49.686.098.392 1.764 10.781 13.427 18.033h.294Z" fill="#181818"/><path d="M347.282 164.944c12.72 0 23.032-10.312 23.032-23.032s-10.312-23.031-23.032-23.031c-12.719 0-23.031 10.311-23.031 23.031 0 12.72 10.312 23.032 23.031 23.032Z" fill="#2F2F2F"/><path d="M324.643 137.796s-6.567-1.764-5.685-8.135c.687-5.39 7.057-1.862 6.469-6.076-.588-4.214-1.764-8.036 3.626-9.114 4.802-.883 4.9 2.352 11.075-2.353 7.448-5.586 13.133 7.351 19.699 7.743 9.703.588 10.977 6.076 11.957 10.487.98 4.41-2.842 7.546-2.842 7.546h-44.299v-.098Z" fill="#2F2F2F"/><path d="M328.074 148.38s-3.627-4.9-6.371-.882c-2.744 4.019 1.078 15.975 7.743 13.035l-1.372-12.153Z" fill="#F97853"/><path d="M328.073 156.907c-.294 0-.49-.196-.588-.392-1.078-3.626-4.802-5.194-4.9-5.194-.294-.098-.392-.392-.294-.686.098-.294.392-.392.686-.294.196.098 4.41 1.666 5.586 5.88.098.294-.098.588-.392.686h-.098Z" fill="#EA5143"/><path d="M324.252 155.044c-.098 0-.196 0-.294-.098-.294-.196-.294-.49-.196-.784 0 0 .686-1.078 2.156-1.666.294-.098.588 0 .784.294.098.294 0 .588-.294.784a4.65 4.65 0 0 0-1.666 1.274c-.196.098-.392.196-.49.196Z" fill="#EA5143"/><path d="M354.632 170.628v11.859s-4.9 5.194-9.605 5.586c-4.802.392-7.644-5.292-7.644-5.292V171.51l17.249-.882Z" fill="#FFA681"/><path d="M354.632 170.628v5.292c-3.234 3.528-8.918 4.411-17.347 3.234v-7.644l17.347-.882Z" fill="#F97853"/><path d="M367.557 139.77c-.196 4.606-.686 10.389-1.568 14.995-.196 1.176-.49 2.254-.784 3.234-2.45 8.723-8.723 23.718-26.168 17.445-7.742-2.744-11.271-11.369-12.839-20.091-1.078-5.88-1.274-11.957-1.176-16.171.098-4.41 2.45-8.331 6.273-10.487 10.29-5.88 21.169-3.626 28.323-.882 4.999 1.764 8.233 6.665 7.939 11.957Z" fill="#FFA681"/><path d="M346.202 148.577v.98c0 1.862.686 3.627 2.058 4.999 1.274 1.274 3.038 2.058 4.901 2.058h.196c1.568 0 3.038-.686 4.312-1.96 1.274-1.274 2.058-3.039 2.058-4.901v-1.078c0-.294-.098-.588-.196-.882-.098-.294-.294-.588-.588-.882-.49-.49-1.078-.686-1.764-.686h-8.625c-.98 0-1.862.588-2.254 1.372 0 .294-.098.588-.098.98Zm.98 0c0-.784.686-1.47 1.47-1.47h8.625c.784 0 1.47.686 1.47 1.47v1.078c0 1.568-.588 3.137-1.666 4.215a5.632 5.632 0 0 1-3.626 1.666h-.196c-1.568 0-3.039-.588-4.215-1.764-1.176-1.177-1.764-2.647-1.764-4.215v-.98h-.098Zm-18.327 0v.98c0 1.862.785 3.626 2.059 4.998 1.274 1.274 3.038 2.058 4.9 2.058h.196c1.568 0 3.038-.686 4.312-1.96 1.274-1.274 2.058-3.038 2.058-4.9v-1.078c0-.294-.098-.686-.196-.98a2.476 2.476 0 0 0-2.254-1.47h-8.624c-.784 0-1.47.392-1.862.882-.197.294-.393.588-.491.882 0 .196-.098.392-.098.588Zm1.079 0c0-.784.686-1.47 1.47-1.47h8.624c.784 0 1.47.686 1.47 1.47v1.078c0 1.568-.588 3.136-1.666 4.214a5.632 5.632 0 0 1-3.626 1.666h-.196c-1.568 0-3.038-.588-4.214-1.764-1.176-1.176-1.764-2.646-1.764-4.214v-.98h-.098Z" fill="#403657"/><path d="M365.903 145.734c-2.94-.098-4.998.686-5.88 1.177-.196.098-.882.49-.882.49l.49.882s.686-.392.98-.49c.784-.392 2.646-1.176 5.292-.98v-1.079Zm-19.014 2.94.294-.98c-.098 0-1.47-.49-3.038-.49-1.666 0-2.744.49-2.842.49l.49.882s.882-.392 2.352-.392c1.372 0 2.646.49 2.744.49Zm-21.562-2.646v.98c2.156.196 4.018 1.078 4.116 1.176l.49-.882c-.196-.098-2.254-1.176-4.606-1.274Z" fill="#403657"/><path d="M336.893 149.948c0 1.274-.686 2.254-1.47 2.254-.784 0-1.47-.98-1.47-2.254s.686-2.254 1.47-2.254c.784-.098 1.47.98 1.47 2.254Zm17.054 0c0 1.274-.686 2.254-1.47 2.254-.784 0-1.47-.98-1.47-2.254s.686-2.254 1.47-2.254c.784-.098 1.47.98 1.47 2.254Zm-23.227-7.056s6.076-2.352 10.682-.392l-.392 2.156s-5.096-1.176-9.996.686c-.294-.98-.686-1.372-.294-2.45Zm27.637 0s-6.077-2.352-10.683-.392l.392 2.156s5.096-1.176 9.996.686c.295-.98.687-1.372.295-2.45Z" fill="#2F2F2F"/><path d="M344.832 159.553c.981 0 1.863-.392 2.059-.392.294-.098.392-.49.294-.686-.098-.294-.49-.392-.686-.294-.49.196-1.765.49-2.255.196-.098-.098-.196-.196-.294-.49-.196-1.96.294-8.527.294-8.625 0-.294-.196-.588-.49-.588s-.588.196-.588.49-.588 6.763-.294 8.821c.098.784.49 1.176.784 1.372.294.098.784.196 1.176.196Z" fill="#F97853"/><path d="M337.873 162.396c.49 2.352 1.96 6.566 7.155 6.566 5.194 0 6.566-3.92 7.056-6.566h-14.211Z" fill="#fff"/><path d="M344.93 171.902c1.47 0 2.646-.784 2.744-.784.294-.196.392-.49.196-.784-.196-.294-.49-.392-.784-.196 0 0-.98.588-2.156.588-1.079 0-2.059-.588-2.059-.588-.294-.196-.588-.098-.784.196-.196.294-.098.588.196.784.098 0 1.274.784 2.647.784Z" fill="#F97853"/><path d="M328.071 151.785c-.392-2.352-.882-5.292-.588-6.86.588-2.744 2.842-4.312 2.058-6.958-.784-2.647 2.059-5.489 4.019-5.881 2.058-.49 6.762.588 11.466-1.666 4.509-2.156 12.251-.588 13.525 2.254 1.568 3.43-.588 3.822 3.626 7.547 1.667 1.47-.294 5.39-.588 7.938-.098 1.176-.098 1.764-.098 2.94v.588h4.999c.588-3.92.882-8.232 1.078-11.858.294-5.293-2.94-10.193-7.939-12.055-7.154-2.744-18.033-4.9-28.324.882a12.373 12.373 0 0 0-6.272 10.487c-.098 3.43 0 7.84.588 12.544h2.45v.098Z" fill="#2F2F2F"/><path d="M363.845 154.261c0-1.274.098-2.646.294-3.92.294-1.765.784-3.333 2.646-4.117 1.47-.588 3.038-.588 4.116 1.078 2.744 4.019-.294 16.563-6.958 13.623l-.098-6.664Z" fill="#FFA681"/><path d="M365.217 157.299c.196 0 .392-.294.49-.49.294-3.822 3.725-5.978 3.725-6.076.294-.196.294-.49.196-.784-.196-.294-.49-.294-.784-.196-.196.098-3.921 2.548-4.313 6.86 0 .294.196.588.49.588.098.098.098.098.196.098Z" fill="#F97853"/><path d="M368.647 154.751c.098 0 .196-.098.294-.196.196-.196.196-.588 0-.784 0 0-.882-.882-2.45-1.274-.294-.098-.588.098-.686.392-.098.294.098.588.392.686 1.176.294 1.862.98 1.862.98.196.196.392.196.588.196Z" fill="#F97853"/><path d="M374.43 190.523c-8.233 12.447-39.693 55.57-46.749 60.568-9.213 6.469-34.401 15.779-48.905 25.384-4.901 3.234 6.664 12.545 6.664 12.545s35.282-9.899 51.159-20.092c4.508-2.842 23.13-21.561 35.086-38.124 4.117-5.684 10.683-13.623 11.663-21.953 1.078-9.605-1.96-14.799-8.918-18.328Z" fill="#0FAA61"/><path d="M312.097 302.741h-98.006a2.218 2.218 0 0 1-2.254-2.254v-7.841c0-1.274.98-2.254 2.254-2.254h98.006c1.274 0 2.254.98 2.254 2.254v7.841c0 1.176-.98 2.254-2.254 2.254Z" fill="#181818"/><path d="m211.838 302.741-19.308-72.132c-1.078-4.018 1.961-8.037 6.175-8.037h42.436a6.382 6.382 0 0 1 6.175 4.705l21.267 75.562h-56.745v-.098Z" fill="#181818"/><path d="m247.316 227.178 21.071 74.877h4.803l-21.072-74.877c-.784-2.744-3.332-4.704-6.174-4.704h-4.802c2.842 0 5.39 1.96 6.174 4.704Z" fill="#181818"/><path d="M236.437 265.793c1.078 4.802-1.862 8.624-6.664 8.624s-9.507-3.822-10.585-8.624c-1.078-4.803 1.862-8.625 6.665-8.625 4.704 0 9.408 3.92 10.584 8.625ZM367.767 36.85c-3.528 0-6.468-2.94-6.468-6.469 0-3.528 2.94-6.468 6.468-6.468s6.469 2.94 6.469 6.468c0 3.529-2.843 6.469-6.469 6.469Zm0-10.879c-2.45 0-4.41 1.96-4.41 4.41s1.96 4.41 4.41 4.41 4.41-1.96 4.41-4.41c.098-2.45-1.96-4.41-4.41-4.41Zm23.326 33.617c-3.528 0-6.468-2.94-6.468-6.469 0-3.528 2.94-6.468 6.468-6.468 3.529 0 6.469 2.94 6.469 6.468 0 3.529-2.94 6.469-6.469 6.469Zm0-10.879c-2.45 0-4.41 1.96-4.41 4.41s1.96 4.41 4.41 4.41a4.392 4.392 0 0 0 4.411-4.41c0-2.45-1.96-4.41-4.411-4.41Zm8.037 31.949a.982.982 0 0 1-.98-.98V75.17c0-.588.49-.98.98-.98.588 0 .981.49.981.98v4.508c0 .49-.491.98-.981.98Zm0 7.841a.982.982 0 0 1-.98-.98V83.01c0-.588.49-.98.98-.98.588 0 .981.49.981.98v4.509c0 .49-.491.98-.981.98Zm6.272-6.176h-4.019a.982.982 0 0 1-.98-.98c0-.588.49-.98.98-.98h4.019c.588 0 .98.49.98.98s-.49.98-.98.98Zm-8.624.001h-4.019a.982.982 0 0 1-.98-.98c0-.588.49-.98.98-.98h4.019c.588 0 .98.49.98.98.098.49-.392.98-.98.98Zm-33.42-26.754a.982.982 0 0 1-.98-.98v-4.51c0-.588.49-.98.98-.98.588 0 .98.49.98.98v4.508c0 .49-.392.98-.98.98Zm0 7.84a.982.982 0 0 1-.98-.98v-4.508c0-.588.49-.98.98-.98.588 0 .98.49.98.98v4.508c0 .49-.392.98-.98.98Zm6.273-6.175h-4.018a.982.982 0 0 1-.98-.98c0-.588.49-.98.98-.98h4.018c.588 0 .98.49.98.98s-.392.98-.98.98Zm-8.526 0h-4.018a.982.982 0 0 1-.981-.98c0-.588.49-.98.981-.98h4.018c.588 0 .98.49.98.98s-.392.98-.98.98ZM67.477 7.155c0-3.528 2.94-6.468 6.468-6.468s6.468 2.94 6.468 6.468-2.94 6.468-6.468 6.468c-3.626 0-6.468-2.842-6.468-6.468Zm1.96 0c0 2.45 1.96 4.41 4.41 4.41s4.41-1.96 4.41-4.41-1.96-4.41-4.41-4.41c-2.352 0-4.41 1.96-4.41 4.41ZM41.505 31.852c0-3.528 2.94-6.468 6.468-6.468 3.529 0 6.469 2.94 6.469 6.468s-2.94 6.469-6.469 6.469c-3.626 0-6.468-2.94-6.468-6.469Zm1.96 0c0 2.45 1.96 4.41 4.41 4.41s4.41-1.96 4.41-4.41-1.96-4.41-4.41-4.41c-2.352 0-4.41 1.96-4.41 4.41ZM27.98 40.966c.587 0 .98-.49.98-.98v-4.508c0-.588-.49-.98-.98-.98a.982.982 0 0 0-.981.98v4.508c0 .49.49.98.98.98Zm0 7.743c.587 0 .98-.49.98-.98V43.22c0-.588-.49-.98-.98-.98a.982.982 0 0 0-.981.98v4.509c0 .588.49.98.98.98Zm-6.272-6.076h4.018c.588 0 .98-.49.98-.98 0-.589-.49-.98-.98-.98h-4.018c-.588 0-.98.49-.98.98s.392.98.98.98Zm8.526 0h4.018c.588 0 .98-.49.98-.98 0-.588-.49-.98-.98-.98h-4.018c-.588 0-.98.49-.98.98s.49.98.98.98Zm21.17-36.165c.588 0 .98-.49.98-.98V.98c0-.588-.49-.98-.98-.98-.588 0-.98.49-.98.98v4.508c0 .588.392.98.98.98Zm0 7.842c.588 0 .98-.49.98-.98V8.82c0-.587-.49-.98-.98-.98-.588 0-.98.49-.98.98v4.51c0 .587.392.98.98.98Zm-6.273-6.077h4.019c.588 0 .98-.49.98-.98s-.49-.98-.98-.98h-4.02c-.588 0-.98.49-.98.98s.392.98.98.98Zm8.527-.001h4.018c.588 0 .98-.49.98-.98s-.49-.98-.98-.98h-4.018c-.588 0-.98.49-.98.98s.392.98.98.98Zm263.44 5.783v19.7c0 2.645-2.156 4.703-4.705 4.703h-35.772l-10.78 3.92c-1.079.393-2.157-.685-1.765-1.764l4.117-10.584V14.015c0-2.646 2.156-4.704 4.704-4.704h39.496c2.647 0 4.705 2.156 4.705 4.704Z" fill="#0FAA61"/><path d="M309.55 19.6h-32.832a1.297 1.297 0 0 1-1.274-1.273c0-.686.588-1.274 1.274-1.274h32.832c.686 0 1.275.588 1.275 1.274s-.589 1.274-1.275 1.274Zm0 5.293h-32.832a1.297 1.297 0 0 1-1.274-1.274c0-.686.588-1.274 1.274-1.274h32.832c.686 0 1.275.588 1.275 1.274s-.589 1.274-1.275 1.274Zm0 5.195h-32.832a1.297 1.297 0 0 1-1.274-1.274c0-.686.588-1.274 1.274-1.274h32.832c.686 0 1.275.588 1.275 1.274s-.589 1.274-1.275 1.274Z" opacity=".5" fill="#181818"/><path d="M422.65 310.091v.686c0 4.018-3.332 7.351-7.35 7.351H33.664c-4.018 0-7.35-3.333-7.35-7.351v-.686c0-4.018 3.332-7.35 7.35-7.35H415.3c4.018 0 7.35 3.234 7.35 7.35Z" fill="#0FAA61"/><path d="M422.65 310.091v.392H26.313v-.392c0-4.018 3.333-7.35 7.35-7.35H415.3c4.018 0 7.35 3.234 7.35 7.35Z" fill="#2ECC82"/></svg>