<svg xmlns="http://www.w3.org/2000/svg" width="53" height="95" fill="none"><path fill="#fff" d="M52.3 42.177c0 .51.037 1.02.037 1.531v41.194c0 .399-.017.8-.029 1.203-.428.364-.95.334-1.467.334H1.5c-.51 0-1.032.03-1.467-.334 0-4.566-.03-9.13-.03-13.692V43.71c0-.513.027-1.024.042-1.534.707-1.556 2.101-2.037 3.627-2.286.436-.05.876-.064 1.315-.041H47.34a7.12 7.12 0 0 1 2.802.413c.951.39 1.752.925 2.157 1.914Z"/><path fill="#2ECC82" d="M52.3 42.176c-1.404-1.54-3.15-2.054-5.212-2.054-13.94.044-27.881.044-41.822 0-2.054 0-3.815.511-5.208 2.054V8.334c.425-.382.953-.332 1.467-.332h49.298c.508 0 1.036-.05 1.467.332v11.444c-.343.335-.8.311-1.223.335-.655 0-1.312-.018-1.966.017-1.509.088-2.348.819-2.348 2.321 0 3.6-.258 7.207.194 10.802-.587 2.036.273 3.228 2.394 3.363.992.067 2.034-.294 2.97.293l-.012 5.267Z"/><path fill="#0FAA61" d="M.046 86.105c7.888 0 15.776.008 23.666.023 9.531 0 19.063-.008 28.596-.023-.059 1.523.24 3.07-.229 4.569a5.241 5.241 0 0 1-5.077 3.773c-13.89.012-27.773.012-41.65 0A5.312 5.312 0 0 1 .04 89.165c-.018-1.015.003-2.039.006-3.06ZM52.284 8.334H.07c0-1.529-.255-3.073.214-4.572A5.305 5.305 0 0 1 5.386 0h41.581a5.32 5.32 0 0 1 5.347 5.37c.011.989-.018 1.975-.03 2.964ZM46.741 33.4a6.203 6.203 0 0 1-.331-2.137c.018-2.887 0-5.775 0-8.662 0-1.945.863-2.796 2.811-2.805h3.07v14.692c-1.512.587-3.052.429-4.572.08a1.215 1.215 0 0 1-.978-1.168Z"/><path fill="#50F2A6" d="M46.742 33.4a2.486 2.486 0 0 0 2.318 1.091c1.08-.053 2.162-.017 3.242-.02v2.42c-1.091 0-2.183.03-3.274 0-1.743-.067-2.847-1.358-2.641-3.028.02-.252.096-.416.355-.463ZM30.347 67.439H17.403c-.783 0-1.576-.038-1.523-1.083.05-.927.751-1.124 1.57-1.12h25.893c.652 0 1.248.081 1.547.774.214.49-.032.842-.35 1.174-.316.331-.821.25-1.246.25-4.316.009-8.632.01-12.947.005Zm.009 13.607H17.409c-.778 0-1.576-.027-1.529-1.071.044-.927.743-1.133 1.561-1.133h25.894c.651 0 1.247.076 1.552.766.217.49-.024.845-.338 1.174-.313.328-.821.252-1.247.252-4.317.014-8.633.018-12.946.012Zm-.045-27.216H17.368c-.737 0-1.485-.033-1.491-1.005-.006-.97.728-1.188 1.514-1.188h26.102c.777 0 1.467.27 1.452 1.127-.014.857-.66 1.083-1.467 1.08-4.396-.027-8.783-.015-13.167-.015Z"/><path fill="#0FAA61" d="M8.33 81.046c-3.577 0-3.254.355-3.257-3.21v-2.304c0-.707.387-1.08 1.094-1.083h4.279a1.115 1.115 0 0 1 1.212 1.148 71.53 71.53 0 0 1 0 4.275c-.018.766-.42 1.209-1.256 1.174-.684-.027-1.38-.003-2.072 0Zm.03-27.188H6.284c-.798 0-1.233-.372-1.236-1.173v-4.261a1.062 1.062 0 0 1 1.154-1.174 118.83 118.83 0 0 1 4.263 0c.787 0 1.198.475 1.203 1.256.015 1.347 0 2.697 0 4.044 0 .898-.44 1.34-1.35 1.323-.648-.014-1.302-.014-1.96-.014Zm-.062 13.584c-3.572 0-3.228.32-3.228-3.228v-2.192c0-.775.422-1.153 1.147-1.174a94.35 94.35 0 0 1 4.273 0c.783.02 1.173.517 1.173 1.288 0 1.35.018 2.703 0 4.056 0 .824-.408 1.288-1.294 1.256-.678-.027-1.376-.006-2.071-.006Z"/><path fill="#01D790" d="M19.117 49.416h-2.084c-.695 0-1.138-.338-1.173-1.039-.024-.763.454-1.133 1.174-1.145 1.467-.02 2.934-.023 4.386 0a1.03 1.03 0 0 1 1.113 1.1c0 .67-.42 1.072-1.127 1.08-.754.01-1.52.004-2.29.004Zm.161 11.421c.73 0 1.467-.024 2.192 0a1.034 1.034 0 0 1 1.08 1.13 1.01 1.01 0 0 1-1.053 1.044c-1.497.026-2.994.023-4.49 0-.675 0-1.124-.373-1.133-1.074-.009-.701.431-1.071 1.106-1.1.763-.027 1.532 0 2.298 0Zm-.047 13.609h2.192c.725 0 1.121.423 1.127 1.08a1.039 1.039 0 0 1-1.115 1.1c-1.461.024-2.923.024-4.384 0-.72 0-1.2-.384-1.174-1.144.023-.701.49-1.027 1.174-1.039.719-.005 1.444.003 2.18.003Z"/><path fill="#0FAA61" d="M27.72 32.73c0-3.393.005-6.789.015-10.185 0-1.91.834-2.74 2.74-2.743h10.186c1.858 0 2.641.798 2.641 2.673 0 3.542-.023 7.083-.038 10.625-.384 1.271-.91 1.676-2.424 1.714-2.118.053-4.237.015-6.359.018-1.388 0-2.776.023-4.164 0-1.581-.065-2.212-.584-2.596-2.101Zm-18.492.45c-.294-2.366-.08-4.742-.135-7.113a87.672 87.672 0 0 1 0-3.727c.029-1.526.842-2.468 2.33-2.488 3.653-.05 7.306-.044 10.963 0 1.361 0 2.256.88 2.268 2.174.03 3.471 0 6.943 0 10.414-.03.325-.09.646-.18.96-.384 1.044-.853 1.385-2.165 1.408-2.588.044-5.179.015-7.77 0-1.174 0-2.348.059-3.5-.035-1.154-.094-1.662-.546-1.811-1.593Z"/><path fill="#FCFDFE" d="M26.156 15.168H14.85c-.816 0-1.561-.14-1.567-1.091-.006-.951.73-1.121 1.552-1.118h22.721c.834 0 1.541.214 1.515 1.156-.027.88-.71 1.056-1.5 1.053-3.803-.012-7.609 0-11.415 0Z"/><path fill="#50F2A6" d="M27.72 32.73c.526 1.306 1.468 1.835 2.894 1.802 3.313-.073 6.629-.052 9.945 0 1.212.018 2.124-.358 2.717-1.426 0 .364.026.728.026 1.092 0 1.731-.795 2.67-2.544 2.7a295.83 295.83 0 0 1-10.49 0c-1.7-.03-2.542-1.022-2.553-2.744-.003-.49.006-.966.006-1.423Zm-18.492.45a2.21 2.21 0 0 0 2.165 1.358H22.36a2.397 2.397 0 0 0 2.11-1.15c.61 2.239-.293 3.5-2.547 3.504-3.313 0-6.632-.08-9.942.029-2.06.076-3.462-1.43-2.752-3.741Z"/><path fill="#B6C4FE" d="M26.142 4.854H22.52c-.677 0-1.13-.241-1.191-.98-.064-.799.393-1.174 1.1-1.198a265.02 265.02 0 0 1 7.46 0c.695 0 1.174.358 1.135 1.174-.038.816-.545 1.027-1.264 1.021-1.206-.038-2.413-.017-3.619-.017Z"/><path fill="#B4C2FE" d="M34.076 3.68c0-.716.502-1.027 1.133-1a1.021 1.021 0 0 1 1.024 1.064 1.063 1.063 0 0 1-1.127 1.083c-.722.027-1.027-.425-1.03-1.147Z"/><path fill="#FDFEFE" d="M36.574 32.094h-2.186c-.681 0-1.14-.294-1.174-1.004a1.015 1.015 0 0 1 1.041-1.174 66.592 66.592 0 0 1 4.593 0 .995.995 0 0 1 1.015 1.174.989.989 0 0 1-1.088.986c-.74.02-1.47.015-2.201.018Z"/><path fill="#FBFEFD" d="M38.273 26.345c.727-.035 1.467 0 1.584 1.004.088.807-.472 1.191-1.678 1.191s-1.776-.387-1.685-1.174c.12-1.091.951-1.032 1.779-1.02Z"/><path fill="#FEFCFD" d="M17.878 30.054h2.304a.97.97 0 0 1 1.068.88.978.978 0 0 1-.88 1.174c-1.63.21-3.28.22-4.913.03a.996.996 0 0 1-.91-1.174c.071-.66.497-.933 1.133-.93l2.198.02Z"/><path fill="#FEFDFD" d="M19.528 28.552c-.907.082-1.664-.053-1.664-1.03s.774-1.191 1.62-1.144a4.4 4.4 0 0 1 .968.093.989.989 0 0 1 .792 1.045 1.036 1.036 0 0 1-.95 1.03c-.255.02-.511.021-.766.006Z"/></svg>