<svg width="174" height="145" fill="none" xmlns="http://www.w3.org/2000/svg"><path d="M114.468 0H63.906c-7.864 0-14.239 6.375-14.239 14.239v115.538c0 7.864 6.375 14.239 14.24 14.239h50.561c7.864 0 14.239-6.375 14.239-14.239V14.239C128.707 6.375 122.332 0 114.468 0Z" fill="#3F3D56"/><path d="M127.373 14.24v115.537a12.92 12.92 0 0 1-12.906 12.906h-50.56A12.923 12.923 0 0 1 51 129.777V14.24A12.92 12.92 0 0 1 63.906 1.334h6.612v2.284a3.899 3.899 0 0 0 3.898 3.898h29.541a3.897 3.897 0 0 0 3.898-3.898V1.334h6.612a12.918 12.918 0 0 1 12.906 12.906Z" fill="#fff"/><path d="M49.304 29.215a.971.971 0 0 1-.97-.97v-1.94a.97.97 0 0 1 1.94 0v1.94a.971.971 0 0 1-.97.97Zm0 9.947a.971.971 0 0 1-.97-.97v-5.34a.97.97 0 0 1 1.94 0v5.34a.971.971 0 0 1-.97.97Zm0 7.996a.971.971 0 0 1-.97-.97v-5.34a.97.97 0 0 1 1.94 0v5.34a.971.971 0 0 1-.97.97Zm79.523-4.366a.97.97 0 0 1-.97-.97V28.794a.973.973 0 0 1 .97-.97.97.97 0 0 1 .97.97v13.028a.973.973 0 0 1-.97.97Z" fill="#3F3D56"/><path d="M91.27 4.449h-7.515a.606.606 0 1 1 0-1.213h7.516a.606.606 0 0 1 0 1.213Zm3.879-.122a.485.485 0 1 0 0-.97.485.485 0 0 0 0 .97Z" fill="#fff"/><path d="M153.411 137.959a.866.866 0 0 0 .612-1.503l-.062-.235c.166-.432.456-.805.834-1.071a2.327 2.327 0 0 1 3.469.989c1.047 2.387 2.396 4.856 1.762 7.502 4.266-9.268 2.676-20.731-3.833-28.561-1.788-.962-3.246-2.689-3.64-4.707.883.29 1.973-.436 1.303-1.357-.291-.352-.584-.7-.874-1.052 3.31-3.592 7.347 1.966 3.712 6.807a27.657 27.657 0 0 1 3.158 4.837 11.655 11.655 0 0 1 .644-5.417c.65-1.612 1.885-2.976 2.97-4.375 1.32-1.704 4.077-.95 4.277 1.195-1.229.417-1.372 2.199.04 2.429-.331 3.997-2.905 7.691-6.481 9.476a27.812 27.812 0 0 1 1.63 11.61c.591-4.609 5.521-5.773 8.958-7.636a1.341 1.341 0 0 1 1.47-.002 1.346 1.346 0 0 1 .594 1.346 7.802 7.802 0 0 0-1.355.731 1.171 1.171 0 0 0-.471 1.269 1.174 1.174 0 0 0 1.037.87c-1.7 4.325-6.173 7.261-10.796 7.289a28.58 28.58 0 0 1-1.867 5.625l-6.861.065c-.025-.076-.048-.154-.071-.23a7.785 7.785 0 0 0 1.897-.131c-1.699-1.974-3.008-2.976-2.056-5.763Zm-132.804 0a.87.87 0 0 1-.832-.538.862.862 0 0 1 .22-.965l.062-.235a2.324 2.324 0 0 0-2.124-1.492 2.329 2.329 0 0 0-2.18 1.41c-1.046 2.387-2.395 4.856-1.761 7.502-4.266-9.268-2.676-20.731 3.833-28.561 1.788-.962 3.246-2.689 3.64-4.707-.883.29-1.973-.436-1.303-1.357.29-.352.584-.7.874-1.052-3.31-3.592-7.347 1.966-3.712 6.807a27.7 27.7 0 0 0-3.158 4.837 11.65 11.65 0 0 0-.644-5.417c-.65-1.612-1.885-2.976-2.97-4.375-1.32-1.704-4.077-.95-4.277 1.195 1.23.417 1.372 2.199-.04 2.429.331 3.997 2.905 7.691 6.481 9.476a27.814 27.814 0 0 0-1.63 11.61c-.59-4.609-5.521-5.773-8.958-7.636a1.342 1.342 0 0 0-1.47-.002 1.35 1.35 0 0 0-.594 1.346c.474.198.928.443 1.355.731a1.175 1.175 0 0 1-.566 2.139c1.7 4.325 6.173 7.261 10.796 7.289a28.594 28.594 0 0 0 1.867 5.625l6.861.065c.025-.076.048-.154.071-.23a7.789 7.789 0 0 1-1.897-.131c1.699-1.974 3.008-2.976 2.056-5.763Z" fill="#2ECC82"/><path d="M67.63 7.048h-6.547a1.212 1.212 0 1 1 0-2.425h6.546a1.212 1.212 0 1 1 0 2.425Zm42.913-.12a1.09 1.09 0 1 0 0-2.181 1.09 1.09 0 0 0 0 2.181Zm3.395 0a1.091 1.091 0 1 0 0-2.183 1.091 1.091 0 0 0 0 2.183Zm3.394 0a1.09 1.09 0 1 0 0-2.181 1.09 1.09 0 0 0 0 2.181Z" fill="#E6E6E6"/><path d="M109.78 23.992H68.636A3.01 3.01 0 0 0 65.63 27v26.744a3.01 3.01 0 0 0 3.006 3.007h41.144a3.008 3.008 0 0 0 3.007-3.007V27a3.01 3.01 0 0 0-3.007-3.007Z" fill="#F2F2F2"/><path d="M96.9 35.408a191.899 191.899 0 0 1-12.29 19.013h-6.45c4.226-5.148 8.456-10.297 12.688-15.445 1.214-1.483 2.532-3.036 4.353-3.638l1.7.07Z" fill="#3F3D56"/><path d="M88.325 34.355a32.636 32.636 0 0 0-1.925 2.188c-1.337 1.61-2.654 3.233-3.977 4.852a694.65 694.65 0 0 0-2.461 3.021 6.013 6.013 0 0 1-.734-.555 6.585 6.585 0 0 1 8.414-10.128c.243.19.471.398.683.622Z" fill="#2ECC82"/><path d="M112.787 33.591v.977l-.437-.16-6.141-2.245c-2-.73-3.996-1.564-6.061-2.09a9.554 9.554 0 0 0-5.49.07 12.594 12.594 0 0 0-4.276 2.655 35.5 35.5 0 0 0-2.085 2.088 30.8 30.8 0 0 0-1.426 1.658c-1.336 1.61-2.655 3.234-3.976 4.852-.824 1.008-1.649 2.014-2.463 3.02a1665.26 1665.26 0 0 0-8.113 10.006 4.737 4.737 0 0 1-1.074-.135c2.742-3.407 5.497-6.804 8.265-10.193l.19-.233c.324-.405.656-.812.986-1.217 1.38-1.69 2.76-3.378 4.141-5.065 1.004-1.227 2-2.458 3.082-3.622a8.4 8.4 0 0 1 .203-.223l.316-.334c2.349-2.427 5.28-4.573 8.79-4.631 2.067-.032 4.062.623 5.982 1.314 2.068.749 4.129 1.51 6.195 2.267l3.392 1.241Z" fill="#3F3D56"/><path d="M113.754 115.798H64.619a3.011 3.011 0 0 1-3.006-3.006v-6.622a3.007 3.007 0 0 1 3.007-3.006h49.134a3.01 3.01 0 0 1 3.006 3.006v6.622a3.005 3.005 0 0 1-3.006 3.006Zm0-33.941H64.619a3.01 3.01 0 0 1-3.006-3.006v-6.622a3.01 3.01 0 0 1 3.007-3.006h49.134a3.011 3.011 0 0 1 3.006 3.006v6.622a3.012 3.012 0 0 1-3.006 3.006Zm0 16.971H64.619a3.01 3.01 0 0 1-3.006-3.006V89.2a3.01 3.01 0 0 1 3.007-3.007h49.134a3.011 3.011 0 0 1 3.006 3.007v6.622a3.012 3.012 0 0 1-3.006 3.006Z" fill="#F2F2F2"/><path d="M95.156 108.348H80.679a.646.646 0 0 1-.648-.648.65.65 0 0 1 .648-.647h14.477a.649.649 0 0 1 .648.647.647.647 0 0 1-.648.648Zm13.925 3.562H80.518a.649.649 0 0 1-.648-.647.646.646 0 0 1 .648-.648h28.563a.646.646 0 1 1 0 1.295Zm-36.092 1.915a4.342 4.342 0 1 0 0-8.684 4.342 4.342 0 0 0 0 8.684Z" fill="#fff"/><path d="M72.02 115.348a1.876 1.876 0 0 0-2.473.86c-.043.09-.079.183-.107.279l-6.538.39-.97 3.388 8.9-1.504a1.87 1.87 0 0 0 2.058-.995 1.798 1.798 0 0 0-.268-1.973 1.795 1.795 0 0 0-.557-.424l-.044-.021Z" fill="#FFB6B6"/><path d="M57.587 98.636a3.243 3.243 0 0 0-4.375 2.221l-1.797 7.26.338 12.701s9.383 1.8 10.958.643c1.576-1.158 1.428-2.019 1.576-1.158.147.862.823 1.224.833.881.01-.343.086-.284.478-.388.393-.103 2.125-.741 2.125-.741l.078-3.621s-2.864-1.086-3.56-.762c-.694.324.149.861-.694.324-.843-.538-.935-2.235-1.079-.706-.144 1.53-.566 1.814-1.198 1.134-.632-.68-3.56-.245-3.56-.245l1.864-14.118a3.244 3.244 0 0 0-1.987-3.425Z" fill="#2ECC82"/><path d="m120.779 136.3.099-2.674-10.269-1.653-.145 3.947 10.315.38Z" fill="#FFB6B6"/><path d="m118.915 137.105-.098-4.282 1.831.068 2.955-3.959a1.149 1.149 0 0 1 1.298-.394 1.145 1.145 0 0 1 .762 1.121l-.187 5.087-1.843.81 1.798.409-.071 1.918-6.445-.778Zm-55.927 5.327 32.523-3.782s14.045.811 17.34-1.332l3.475-.439.188-5.104s-2.124.015-3.346-.554c-1.222-.569-.373-1.266-1.538-.581-1.164.685-1.041.768-1.942.453-.9-.315-42.198-2.003-42.198-2.003l-4.502 13.342Z" fill="#2F2E41"/><path d="m105.845 140.218 1.891-1.894-6.403-8.195-2.791 2.794 7.303 7.295Z" fill="#FFB6B6"/><path d="m103.931 139.541 2.84-3.205 1.297 1.294 4.858-.892a1.142 1.142 0 0 1 1.22.594 1.142 1.142 0 0 1-.204 1.34l-3.597 3.602-1.902-.66 1.04 1.523-1.356 1.358-4.196-4.954Z" fill="#2F2E41"/><path d="m50.157 124.621.323 7.516c.38 8.848 10.125 14.203 17.68 9.583.14-.085.28-.173.42-.264 0 0 2.864-.77 2.777-1.988-.087-1.218.613-1.811 1.232-1.479.62.332 8.727-11.174 8.727-11.174s16.846 8.403 20.563 10.381l3.921-1.069s1.476.697.944-.311-.627-.525-.79-1.623c-.164-1.099-.581-2.46-.835-2.403-.253.057-20.84-14.352-20.84-14.352s-3.354-3.394-7.514-1.153c-.087.329-.013.341-.013.341L63.01 127.824l-1.942-3.688-10.91.485Z" fill="#2F2E41"/><path d="m59.394 97.006-5.892-2.762-1.765 3.07s-4.738 6.761-4.806 11.639c-.069 4.877.772 6.328.772 6.328s-2.043 1.527-1.022 2.46c1.022.934 3.283 1.337 1.546 1.742-1.736.404-1.296 4.502.643 5.229 1.94.727 12.357.721 12.357.721a1.856 1.856 0 0 1 .458-1.827c.807-.809 1.535-.228.807-1.489-.727-1.26-1.94-.533-.97-2.23s.97-2.204.97-2.204 1.977-3.763-1-7.844c-.182-.249-.03-.259-.03-.259l-2.404-8.058.336-4.516Z" fill="#2ECC82"/><path d="M49.898 85.394c.05 1.244-.734 3.008-1.12 4.07-.413 1.138 1.376 2.647 2.522 2.977.06-.394.256-.754.555-1.017-.083.375-.09.763-.021 1.141l9.685 2.205c1.743-2.018 3.495-4.918 3.112-8.417a3.404 3.404 0 0 0-1.639-3.394l-4.896-2.893c-2.083-.474-4.706-.76-6.21.528a5.96 5.96 0 0 0-1.988 4.8Z" fill="#2F2E41"/><path d="M58.555 93.704a5.576 5.576 0 1 0 0-11.153 5.576 5.576 0 0 0 0 11.153Z" fill="#FFB6B6"/><path d="m52.023 85.15-.27 1.181 4.705 1.071a1.735 1.735 0 0 1 .579-1.263c-.102.463-.09.944.034 1.403 2.537 1.423 4.824 1.927 6.874 1.564a1.075 1.075 0 0 0 1.286-.808c.825-3.624-1.336-7.329-4.943-8.228a6.788 6.788 0 0 0-8.265 5.08Z" fill="#2F2E41"/><path d="M54.773 77.35c.62-.134 1.277-.102 1.838-.522l-.368.844a4.273 4.273 0 0 1 3.051.305c.281.126.52.329.691.585a1.204 1.204 0 0 1 .09 1.035 1.124 1.124 0 0 1-.658.626 2.174 2.174 0 0 1-.806.084l-3.435-.08a2.568 2.568 0 0 1-1.267-.246 1.266 1.266 0 0 1-.587-1.256c.109-.768.83-1.24 1.451-1.375Z" fill="#2F2E41"/><path d="M85.022 121.056a.24.24 0 0 0-.045-.042.48.48 0 0 0-.15-.117l-.408-.219-2.709-3.007a.681.681 0 0 0-.508-.049l-.007.002-1.161.359-.998.31-1.394.432-9.496 2.94-6.242 1.933a.674.674 0 0 0-.3 1.089l.198.221.416.464.966 2.001.267.298a.67.67 0 0 0 .695.195l20.564-5.718a.685.685 0 0 0 .312-1.092Z" fill="#CCC"/><path d="m83.802 91.305-.398.064a.419.419 0 0 0-.272.169l-.175.245-1.583 3.957a.419.419 0 0 0-.072.313l.186 1.127-.7 20.125a.424.424 0 0 0 .156.263l3.072 4.11.072.057.155.121c.08.061.178.093.278.088l.261-.012a.42.42 0 0 0 .394-.489l-.891-29.794a.418.418 0 0 0-.48-.345h-.003Z" fill="#CCC"/><path d="m83.135 92.87-1.402 4.27-.543 17.057 2.183 1.939-.238-23.267Z" fill="#2ECC82"/><path d="M72.294 118.888a1.878 1.878 0 0 0-2.474.86 1.753 1.753 0 0 0-.106.278l-6.539.39-.969 3.388 8.9-1.504a1.87 1.87 0 0 0 2.057-.995 1.792 1.792 0 0 0-.869-2.417Z" fill="#FFB6B6"/><path d="M57.861 102.179a3.247 3.247 0 0 0-2.695.11 3.238 3.238 0 0 0-1.68 2.111l-1.797 7.26.338 12.701s9.383 1.8 10.958.643c1.575-1.158 1.427-2.019 1.575-1.158.148.862.825 1.224.834.881.01-.343.086-.284.478-.388.393-.103 2.125-.741 2.125-.741l.078-3.622s-2.864-1.085-3.56-.761c-.694.324.149.861-.694.324-.843-.538-.935-2.235-1.08-.706-.143 1.53-.565 1.814-1.197 1.134-.632-.68-3.56-.245-3.56-.245l1.864-14.118a3.243 3.243 0 0 0-1.987-3.425Z" fill="#2ECC82"/><path d="M0 144.292a.29.29 0 0 0 .289.289H173.71c.077 0 .15-.03.204-.085a.288.288 0 0 0-.204-.492H.289a.28.28 0 0 0-.111.022.276.276 0 0 0-.156.156.288.288 0 0 0-.022.11Z" fill="#CCC"/><path d="M153.032 81.857h-49.135a3.012 3.012 0 0 1-3.006-3.006v-6.622a3.012 3.012 0 0 1 3.006-3.006h49.135a3.007 3.007 0 0 1 3.006 3.006v6.622a3.009 3.009 0 0 1-3.006 3.006Z" fill="#E6E6E6"/><path d="M134.433 74.405h-14.477a.648.648 0 0 1 0-1.296h14.477a.646.646 0 1 1 0 1.296Zm13.925 3.562h-28.563a.648.648 0 0 1 0-1.295h28.563a.646.646 0 1 1 0 1.295Zm-36.093 1.913a4.342 4.342 0 1 0 0-8.685 4.342 4.342 0 0 0 0 8.685Z" fill="#fff"/><path d="M137.272 98.828H88.137a3.01 3.01 0 0 1-3.006-3.006V89.2a3.01 3.01 0 0 1 3.006-3.007h49.135a3.011 3.011 0 0 1 3.006 3.007v6.622a3.012 3.012 0 0 1-3.006 3.006Z" fill="#E6E6E6"/><path d="M118.675 91.377h-14.478a.65.65 0 0 1-.647-.647.649.649 0 0 1 .647-.648h14.478a.65.65 0 0 1 .647.648.649.649 0 0 1-.647.647Zm13.923 3.561h-28.563a.65.65 0 0 1-.647-.648.649.649 0 0 1 .647-.647h28.563a.646.646 0 1 1 0 1.295Zm-36.092 1.914a4.342 4.342 0 1 0 0-8.683 4.342 4.342 0 0 0 0 8.683Z" fill="#fff"/></svg>