<svg width="174" height="145" viewBox="0 0 174 145" fill="none" xmlns="http://www.w3.org/2000/svg">
<path d="M114.468 0H63.9062C56.0424 0 49.6675 6.37491 49.6675 14.2388V129.777C49.6675 137.641 56.0424 144.016 63.9062 144.016H114.468C122.332 144.016 128.707 137.641 128.707 129.777V14.2388C128.707 6.37491 122.332 0 114.468 0Z" fill="#3F3D56"/>
<path d="M127.373 14.2397V129.777C127.369 133.199 126.008 136.479 123.588 138.899C121.169 141.318 117.889 142.679 114.467 142.683H63.9062C60.4846 142.679 57.2043 141.318 54.7848 138.899C52.3654 136.479 51.0044 133.199 51.0005 129.777V14.2397C51.0044 10.8181 52.3654 7.53777 54.7848 5.11835C57.2043 2.69892 60.4846 1.33795 63.9062 1.33398H70.5178V3.61788C70.5179 4.65184 70.9286 5.64343 71.6597 6.37455C72.3909 7.10567 73.3825 7.51643 74.4164 7.51649H103.957C104.991 7.51643 105.982 7.10567 106.713 6.37455C107.444 5.64343 107.855 4.65184 107.855 3.61788V1.33398H114.467C117.889 1.33795 121.169 2.69892 123.588 5.11835C126.008 7.53777 127.369 10.8181 127.373 14.2397Z" fill="white"/>
<path d="M49.3038 29.2152C49.0467 29.2149 48.8002 29.1126 48.6184 28.9308C48.4365 28.749 48.3343 28.5025 48.334 28.2454V26.3057C48.334 26.0485 48.4362 25.8019 48.618 25.62C48.7999 25.4381 49.0466 25.3359 49.3038 25.3359C49.561 25.3359 49.8077 25.4381 49.9895 25.62C50.1714 25.8019 50.2736 26.0485 50.2736 26.3057V28.2454C50.2733 28.5025 50.171 28.749 49.9892 28.9308C49.8074 29.1126 49.5609 29.2149 49.3038 29.2152Z" fill="#3F3D56"/>
<path d="M49.3038 39.1616C49.0467 39.1613 48.8002 39.059 48.6184 38.8772C48.4365 38.6954 48.3343 38.4489 48.334 38.1918V32.8526C48.334 32.5954 48.4362 32.3487 48.618 32.1669C48.7999 31.985 49.0466 31.8828 49.3038 31.8828C49.561 31.8828 49.8077 31.985 49.9895 32.1669C50.1714 32.3487 50.2736 32.5954 50.2736 32.8526V38.1918C50.2733 38.4489 50.171 38.6954 49.9892 38.8772C49.8074 39.059 49.5609 39.1613 49.3038 39.1616Z" fill="#3F3D56"/>
<path d="M49.3038 47.1577C49.0467 47.1574 48.8002 47.0551 48.6184 46.8733C48.4365 46.6915 48.3343 46.445 48.334 46.1878V40.8487C48.334 40.5915 48.4362 40.3448 48.618 40.163C48.7999 39.9811 49.0466 39.8789 49.3038 39.8789C49.561 39.8789 49.8077 39.9811 49.9895 40.163C50.1714 40.3448 50.2736 40.5915 50.2736 40.8487V46.1878C50.2733 46.445 50.171 46.6915 49.9892 46.8733C49.8074 47.0551 49.5609 47.1574 49.3038 47.1577Z" fill="#3F3D56"/>
<path d="M128.827 42.7916C128.57 42.7913 128.324 42.689 128.142 42.5072C127.96 42.3254 127.858 42.0789 127.857 41.8218V28.794C127.857 28.5368 127.96 28.2901 128.141 28.1083C128.323 27.9264 128.57 27.8242 128.827 27.8242C129.084 27.8242 129.331 27.9264 129.513 28.1083C129.695 28.2901 129.797 28.5368 129.797 28.794V41.8218C129.797 42.0789 129.694 42.3254 129.513 42.5072C129.331 42.689 129.084 42.7913 128.827 42.7916Z" fill="#3F3D56"/>
<path d="M91.2706 4.44858H83.7546C83.5938 4.44858 83.4396 4.38472 83.326 4.27105C83.2123 4.15738 83.1484 4.00321 83.1484 3.84246C83.1484 3.6817 83.2123 3.52753 83.326 3.41386C83.4396 3.30019 83.5938 3.23633 83.7546 3.23633H91.2706C91.4313 3.23633 91.5855 3.30019 91.6992 3.41386C91.8128 3.52753 91.8767 3.6817 91.8767 3.84246C91.8767 4.00321 91.8128 4.15738 91.6992 4.27105C91.5855 4.38472 91.4313 4.44858 91.2706 4.44858Z" fill="white"/>
<path d="M95.149 4.32723C95.4168 4.32723 95.6339 4.11013 95.6339 3.84232C95.6339 3.57452 95.4168 3.35742 95.149 3.35742C94.8812 3.35742 94.6641 3.57452 94.6641 3.84232C94.6641 4.11013 94.8812 4.32723 95.149 4.32723Z" fill="white"/>
<path d="M153.411 137.959C153.588 137.965 153.763 137.917 153.911 137.821C154.06 137.725 154.176 137.585 154.243 137.421C154.309 137.257 154.324 137.077 154.285 136.904C154.245 136.731 154.154 136.575 154.023 136.456C154 136.369 153.984 136.307 153.961 136.221C154.127 135.789 154.417 135.416 154.795 135.15C155.174 134.885 155.623 134.738 156.085 134.729C156.548 134.721 157.002 134.85 157.39 135.101C157.779 135.352 158.083 135.714 158.264 136.139C159.311 138.526 160.66 140.995 160.026 143.641C164.292 134.373 162.702 122.91 156.193 115.08C154.405 114.118 152.947 112.391 152.553 110.373C153.436 110.663 154.526 109.937 153.856 109.016C153.565 108.664 153.272 108.316 152.982 107.964C156.292 104.372 160.329 109.93 156.694 114.771C157.913 116.269 158.971 117.89 159.852 119.608C159.635 117.777 159.856 115.92 160.496 114.191C161.146 112.579 162.381 111.215 163.466 109.816C164.786 108.112 167.543 108.866 167.743 111.011C166.514 111.428 166.371 113.21 167.783 113.44C167.452 117.437 164.878 121.131 161.302 122.916C162.664 126.627 163.22 130.584 162.932 134.526C163.523 129.917 168.453 128.753 171.89 126.89C172.108 126.747 172.364 126.671 172.625 126.671C172.886 126.67 173.141 126.746 173.36 126.888C173.579 127.031 173.752 127.234 173.857 127.473C173.963 127.711 173.997 127.976 173.954 128.234C173.48 128.432 173.026 128.677 172.599 128.965C172.399 129.102 172.247 129.298 172.163 129.525C172.078 129.752 172.066 130 172.128 130.234C172.19 130.468 172.323 130.677 172.509 130.833C172.695 130.989 172.924 131.083 173.165 131.104C171.465 135.429 166.992 138.365 162.369 138.393C161.943 140.327 161.318 142.213 160.502 144.018L153.641 144.083C153.616 144.007 153.593 143.929 153.57 143.853C154.205 143.887 154.843 143.843 155.467 143.722C153.768 141.748 152.459 140.746 153.411 137.959L153.411 137.959Z" fill="#2ECC82"/>
<path d="M20.6072 137.959C20.4302 137.965 20.2554 137.917 20.1066 137.821C19.9578 137.725 19.8422 137.585 19.7754 137.421C19.7087 137.257 19.6939 137.077 19.7333 136.904C19.7726 136.731 19.864 136.575 19.9953 136.456C20.0179 136.369 20.0341 136.307 20.0567 136.221C19.8915 135.789 19.601 135.416 19.2226 135.15C18.8441 134.885 18.395 134.738 17.9326 134.729C17.4703 134.721 17.0159 134.85 16.6277 135.101C16.2395 135.352 15.9351 135.714 15.7536 136.139C14.7067 138.526 13.3578 140.995 13.9918 143.641C9.72609 134.373 11.3159 122.91 17.825 115.08C19.6127 114.118 21.0708 112.391 21.4653 110.373C20.5823 110.663 19.4917 109.937 20.1623 109.016C20.4525 108.664 20.7455 108.316 21.0357 107.964C17.7262 104.372 13.6893 109.93 17.3237 114.771C16.1054 116.269 15.0471 117.89 14.166 119.608C14.3831 117.777 14.1624 115.92 13.5221 114.191C12.8718 112.579 11.6371 111.215 10.5517 109.816C9.23205 108.112 6.47536 108.866 6.27518 111.011C7.50409 111.428 7.64728 113.21 6.23482 113.44C6.56614 117.437 9.13981 121.131 12.716 122.916C11.3537 126.627 10.7979 130.584 11.0855 134.526C10.4952 129.917 5.5646 128.753 2.12833 126.89C1.90985 126.747 1.65447 126.671 1.39332 126.671C1.13218 126.67 0.876565 126.746 0.657662 126.888C0.438758 127.031 0.266029 127.234 0.160543 127.473C0.0550582 127.711 0.0213766 127.976 0.0636088 128.234C0.538442 128.432 0.992395 128.677 1.41878 128.965C1.61856 129.102 1.77104 129.298 1.85533 129.525C1.93962 129.752 1.9516 130 1.88961 130.234C1.82762 130.468 1.6947 130.677 1.50908 130.833C1.32346 130.989 1.09421 131.083 0.852774 131.104C2.55263 135.429 7.02596 138.365 11.6488 138.393C12.0746 140.327 12.7004 142.213 13.516 144.018L20.377 144.083C20.4023 144.007 20.4252 143.929 20.448 143.853C19.8126 143.887 19.1754 143.843 18.5507 143.722C20.2498 141.748 21.5589 140.746 20.6074 137.959L20.6072 137.959Z" fill="#2ECC82"/>
<path d="M67.6295 7.04756H61.0833C60.7618 7.04756 60.4535 6.91984 60.2262 6.6925C59.9988 6.46516 59.8711 6.15681 59.8711 5.8353C59.8711 5.51379 59.9988 5.20545 60.2262 4.97811C60.4535 4.75077 60.7618 4.62305 61.0833 4.62305H67.6295C67.9511 4.62305 68.2594 4.75077 68.4867 4.97811C68.7141 5.20545 68.8418 5.51379 68.8418 5.8353C68.8418 6.15681 68.7141 6.46516 68.4867 6.6925C68.2594 6.91984 67.9511 7.04756 67.6295 7.04756Z" fill="#E6E6E6"/>
<path d="M110.543 6.92815C111.146 6.92815 111.634 6.43968 111.634 5.83712C111.634 5.23456 111.146 4.74609 110.543 4.74609C109.941 4.74609 109.452 5.23456 109.452 5.83712C109.452 6.43968 109.941 6.92815 110.543 6.92815Z" fill="#E6E6E6"/>
<path d="M113.938 6.92815C114.54 6.92815 115.029 6.43968 115.029 5.83712C115.029 5.23456 114.54 4.74609 113.938 4.74609C113.335 4.74609 112.847 5.23456 112.847 5.83712C112.847 6.43968 113.335 6.92815 113.938 6.92815Z" fill="#E6E6E6"/>
<path d="M117.332 6.92815C117.935 6.92815 118.423 6.43968 118.423 5.83712C118.423 5.23456 117.935 4.74609 117.332 4.74609C116.73 4.74609 116.241 5.23456 116.241 5.83712C116.241 6.43968 116.73 6.92815 117.332 6.92815Z" fill="#E6E6E6"/>
<path d="M109.78 23.9922H68.6363C67.8393 23.9933 67.0752 24.3104 66.5116 24.874C65.9481 25.4375 65.631 26.2016 65.6299 26.9986V53.7434C65.631 54.5404 65.9481 55.3044 66.5116 55.868C67.0752 56.4316 67.8393 56.7487 68.6363 56.7498H109.78C110.577 56.7491 111.342 56.4321 111.905 55.8685C112.469 55.3048 112.786 54.5405 112.787 53.7434V26.9986C112.786 26.2014 112.469 25.4372 111.905 24.8735C111.342 24.3098 110.577 23.9929 109.78 23.9922Z" fill="#F2F2F2"/>
<path d="M96.8992 35.4085C93.181 41.9824 89.0779 48.3311 84.6114 54.4214H78.1592C82.3853 49.2729 86.6146 44.1243 90.847 38.9758C92.0612 37.4933 93.379 35.9403 95.2003 35.3379L96.8992 35.4085Z" fill="#3F3D56"/>
<path d="M88.3247 34.3546C87.6517 35.0558 87.007 35.7853 86.3999 36.543C85.0633 38.1525 83.7456 39.7761 82.4232 41.395C81.5996 42.4021 80.776 43.4093 79.9618 44.4164C79.7033 44.2503 79.4578 44.0647 79.2277 43.8611C77.9273 42.7324 77.1207 41.1392 76.9808 39.423C76.8409 37.7068 77.3787 36.004 78.4791 34.6796C79.5795 33.3552 81.1549 32.5145 82.8677 32.3376C84.5805 32.1607 86.2945 32.6618 87.6423 33.7334C87.8852 33.9228 88.1133 34.1305 88.3247 34.3546Z" fill="#2ECC82"/>
<path d="M112.787 33.591V34.5681L112.35 34.4081L106.209 32.163C104.209 31.4332 102.213 30.5992 100.148 30.0731C98.3505 29.559 96.442 29.5834 94.6586 30.1434C93.0689 30.7315 91.6142 31.6345 90.3818 32.7982C89.8363 33.3025 89.3077 33.8189 88.7962 34.3548C88.6289 34.5317 88.4616 34.7087 88.2967 34.8857C87.8021 35.424 87.3245 35.9743 86.8711 36.5441C85.5352 38.154 84.2163 39.7784 82.8949 41.3955C82.0706 42.4041 81.2462 43.4103 80.4316 44.4165C77.7113 47.7453 75.0072 51.0807 72.3192 54.4224C71.9571 54.4184 71.5968 54.3728 71.2451 54.2867C73.9872 50.8802 76.7423 47.4827 79.5103 44.094C79.5733 44.0164 79.6364 43.9388 79.6994 43.8613C80.0243 43.4564 80.3564 43.0491 80.6862 42.6442C82.0657 40.9543 83.4461 39.266 84.8272 37.5793C85.831 36.3525 86.8275 35.1209 87.9088 33.9571C87.9742 33.882 88.0421 33.8092 88.1124 33.7341C88.2167 33.6225 88.321 33.5134 88.4276 33.3995C90.777 30.9726 93.7082 28.8269 97.2189 28.7687C99.2846 28.7372 101.28 29.3918 103.2 30.0828C105.268 30.8319 107.329 31.5932 109.395 32.3497L112.787 33.591Z" fill="#3F3D56"/>
<path d="M113.754 115.798H64.6195C63.8225 115.798 63.0584 115.481 62.4948 114.917C61.9312 114.353 61.6142 113.589 61.6133 112.792V106.17C61.6142 105.373 61.9312 104.609 62.4948 104.046C63.0584 103.482 63.8225 103.165 64.6195 103.164H113.754C114.551 103.165 115.315 103.482 115.879 104.046C116.443 104.609 116.76 105.373 116.76 106.17V112.792C116.76 113.589 116.443 114.353 115.879 114.917C115.315 115.481 114.551 115.798 113.754 115.798Z" fill="#F2F2F2"/>
<path d="M113.754 81.8571H64.6195C63.8225 81.8561 63.0584 81.5391 62.4948 80.9756C61.9312 80.412 61.6142 79.6479 61.6133 78.8509V72.2289C61.6142 71.4318 61.9312 70.6677 62.4948 70.1042C63.0584 69.5406 63.8225 69.2236 64.6195 69.2227H113.754C114.551 69.2236 115.315 69.5406 115.879 70.1042C116.443 70.6677 116.76 71.4318 116.76 72.2289V78.8509C116.76 79.6479 116.443 80.412 115.879 80.9756C115.315 81.5391 114.551 81.8561 113.754 81.8571Z" fill="#F2F2F2"/>
<path d="M113.754 98.8278H64.6195C63.8225 98.8268 63.0584 98.5098 62.4948 97.9463C61.9312 97.3827 61.6142 96.6186 61.6133 95.8216V89.1996C61.6142 88.4025 61.9312 87.6384 62.4948 87.0749C63.0584 86.5113 63.8225 86.1943 64.6195 86.1934H113.754C114.551 86.1943 115.315 86.5113 115.879 87.0749C116.443 87.6384 116.76 88.4025 116.76 89.1996V95.8216C116.76 96.6186 116.443 97.3827 115.879 97.9463C115.315 98.5098 114.551 98.8268 113.754 98.8278Z" fill="#F2F2F2"/>
<path d="M95.156 108.348H80.6789C80.5071 108.348 80.3424 108.28 80.2209 108.158C80.0995 108.037 80.0312 107.872 80.0312 107.7C80.0312 107.529 80.0995 107.364 80.2209 107.242C80.3424 107.121 80.5071 107.053 80.6789 107.053H95.156C95.3278 107.053 95.4925 107.121 95.614 107.242C95.7354 107.364 95.8037 107.529 95.8037 107.7C95.8037 107.872 95.7354 108.037 95.614 108.158C95.4925 108.28 95.3278 108.348 95.156 108.348Z" fill="white"/>
<path d="M109.081 111.91H80.5178C80.346 111.91 80.1813 111.842 80.0598 111.721C79.9383 111.599 79.8701 111.435 79.8701 111.263C79.8701 111.091 79.9383 110.926 80.0598 110.805C80.1813 110.683 80.346 110.615 80.5178 110.615H109.081C109.253 110.615 109.417 110.683 109.539 110.805C109.66 110.926 109.728 111.091 109.728 111.263C109.728 111.435 109.66 111.599 109.539 111.721C109.417 111.842 109.253 111.91 109.081 111.91Z" fill="white"/>
<path d="M72.9887 113.825C75.3868 113.825 77.3308 111.881 77.3308 109.483C77.3308 107.085 75.3868 105.141 72.9887 105.141C70.5905 105.141 68.6465 107.085 68.6465 109.483C68.6465 111.881 70.5905 113.825 72.9887 113.825Z" fill="white"/>
<path d="M72.0206 115.348C71.5775 115.141 71.0711 115.115 70.6091 115.276C70.1471 115.437 69.7661 115.771 69.547 116.208C69.5038 116.298 69.4682 116.391 69.4404 116.487L62.9017 116.877L61.9326 120.265L70.832 118.761C71.2368 118.846 71.6582 118.794 72.0304 118.614C72.4027 118.434 72.7048 118.136 72.8897 117.766C72.9929 117.554 73.0534 117.324 73.0678 117.09C73.0822 116.855 73.0502 116.619 72.9737 116.397C72.8971 116.174 72.7775 115.969 72.6216 115.793C72.4657 115.616 72.2766 115.473 72.0651 115.369C72.0504 115.362 72.0355 115.355 72.0206 115.348Z" fill="#FFB6B6"/>
<path d="M57.5872 98.636C57.1564 98.4597 56.6926 98.3783 56.2274 98.3972C55.7623 98.4162 55.3066 98.5351 54.8915 98.7458C54.4764 98.9566 54.1116 99.2543 53.8218 99.6187C53.532 99.983 53.3241 100.406 53.2122 100.857L51.4146 108.117L51.7527 120.818C51.7527 120.818 61.136 122.618 62.7113 121.461C64.2865 120.303 64.1386 119.442 64.2865 120.303C64.4344 121.165 65.1105 121.527 65.1199 121.184C65.1293 120.841 65.2058 120.9 65.5983 120.796C65.9909 120.693 67.7234 120.055 67.7234 120.055L67.801 116.434C67.801 116.434 64.9368 115.348 64.2419 115.672C63.547 115.996 64.3898 116.533 63.547 115.996C62.7042 115.458 62.6121 113.761 62.468 115.29C62.3239 116.82 61.9021 117.104 61.2702 116.424C60.6383 115.744 57.7109 116.179 57.7109 116.179L59.5737 102.061C59.6674 101.351 59.5233 100.63 59.164 100.01C58.8046 99.3904 58.2501 98.9073 57.5872 98.636Z" fill="#2ECC82"/>
<path d="M120.779 136.3L120.878 133.626L110.609 131.973L110.464 135.92L120.779 136.3Z" fill="#FFB6B6"/>
<path d="M118.915 137.105L118.817 132.823L120.648 132.891L123.603 128.932C123.749 128.737 123.954 128.593 124.187 128.522C124.42 128.451 124.671 128.457 124.901 128.538C125.131 128.619 125.329 128.772 125.466 128.973C125.603 129.175 125.672 129.415 125.663 129.659L125.476 134.746L123.633 135.556L125.431 135.965L125.36 137.883L118.915 137.105Z" fill="#2F2E41"/>
<path d="M62.9883 142.432L95.5114 138.65C95.5114 138.65 109.556 139.461 112.851 137.318L116.326 136.879L116.514 131.775C116.514 131.775 114.39 131.79 113.168 131.221C111.946 130.652 112.795 129.955 111.63 130.64C110.466 131.325 110.589 131.408 109.688 131.093C108.788 130.778 67.4895 129.09 67.4895 129.09L62.9883 142.432Z" fill="#2F2E41"/>
<path d="M105.845 140.218L107.736 138.324L101.333 130.129L98.542 132.923L105.845 140.218Z" fill="#FFB6B6"/>
<path d="M103.931 139.541L106.771 136.336L108.068 137.63L112.926 136.738C113.166 136.694 113.414 136.728 113.633 136.835C113.853 136.941 114.032 137.116 114.146 137.332C114.259 137.548 114.301 137.794 114.264 138.035C114.228 138.277 114.115 138.5 113.942 138.672L110.345 142.274L108.443 141.614L109.483 143.137L108.127 144.495L103.931 139.541Z" fill="#2F2E41"/>
<path d="M50.1567 124.621L50.4801 132.137C50.8607 140.985 60.6047 146.34 68.1604 141.72C68.2996 141.635 68.4394 141.547 68.5795 141.456C68.5795 141.456 71.4439 140.686 71.357 139.468C71.27 138.25 71.9698 137.657 72.589 137.989C73.2083 138.321 81.3164 126.815 81.3164 126.815C81.3164 126.815 98.1622 135.218 101.879 137.196L105.8 136.127C105.8 136.127 107.276 136.824 106.744 135.816C106.212 134.808 106.117 135.291 105.954 134.193C105.79 133.094 105.373 131.733 105.119 131.79C104.866 131.847 84.279 117.438 84.279 117.438C84.279 117.438 80.9251 114.044 76.7647 116.285C76.6781 116.614 76.7521 116.626 76.7521 116.626L63.0089 127.824L61.067 124.136L50.1567 124.621Z" fill="#2F2E41"/>
<path d="M59.394 97.0058L53.5016 94.2441L51.7375 97.3137C51.7375 97.3137 46.9995 104.075 46.9308 108.953C46.8621 113.83 47.7029 115.281 47.7029 115.281C47.7029 115.281 45.6601 116.808 46.6815 117.741C47.7029 118.675 49.9642 119.078 48.2274 119.483C46.4907 119.887 46.9308 123.985 48.8704 124.712C50.81 125.439 61.2267 125.433 61.2267 125.433C61.1331 125.115 61.1262 124.778 61.2068 124.457C61.2873 124.136 61.4524 123.842 61.6849 123.606C62.4924 122.797 63.2198 123.378 62.4924 122.117C61.7651 120.857 60.5528 121.584 61.5226 119.887C62.4924 118.19 62.4921 117.683 62.4921 117.683C62.4921 117.683 64.4691 113.92 61.4912 109.839C61.3097 109.59 61.4623 109.58 61.4623 109.58L59.0577 101.522L59.394 97.0058Z" fill="#2ECC82"/>
<path d="M49.8983 85.3935C49.9481 86.6382 49.1637 88.4016 48.7774 89.4649C48.3645 90.6017 50.1544 92.1107 51.3001 92.4412C51.3597 92.0474 51.5561 91.6871 51.8549 91.4237C51.7724 91.799 51.7652 92.187 51.8338 92.5652L61.5192 94.7701C63.2616 92.7524 65.0136 89.8516 64.6314 86.353C64.7229 85.6887 64.6162 85.0121 64.3246 84.4082C64.0329 83.8044 63.5694 83.3001 62.9922 82.9587L58.0958 80.0661C56.0131 79.592 53.3903 79.3057 51.886 80.5944C51.2139 81.1924 50.6859 81.9348 50.3416 82.7659C49.9974 83.5971 49.8458 84.4954 49.8983 85.3935Z" fill="#2F2E41"/>
<path d="M58.5549 93.7035C61.6346 93.7035 64.1313 91.2069 64.1313 88.1272C64.1313 85.0474 61.6346 82.5508 58.5549 82.5508C55.4751 82.5508 52.9785 85.0474 52.9785 88.1272C52.9785 91.2069 55.4751 93.7035 58.5549 93.7035Z" fill="#FFB6B6"/>
<path d="M52.023 85.1491L51.7539 86.3311L56.4583 87.4021C56.4625 87.163 56.516 86.9274 56.6156 86.71C56.7152 86.4926 56.8586 86.2982 57.0368 86.1388C56.9354 86.6023 56.9469 87.0834 57.0706 87.5415C59.6077 88.9652 61.8945 89.4695 63.945 89.1065C64.2228 89.1697 64.5143 89.12 64.7555 88.9683C64.9967 88.8166 65.1677 88.5753 65.2309 88.2975C66.0559 84.6735 63.8945 80.9695 60.2883 80.0699C59.4117 79.8507 58.5002 79.8088 57.6072 79.9465C56.7142 80.0842 55.8576 80.3988 55.0878 80.8719C54.318 81.345 53.6504 81.967 53.1241 82.7014C52.5978 83.4359 52.2235 84.2681 52.023 85.1491V85.1491Z" fill="#2F2E41"/>
<path d="M54.773 77.3504C55.3933 77.2157 56.0498 77.2483 56.6107 76.8281L56.2429 77.6725C57.2626 77.3931 58.3498 77.5016 59.2942 77.9772C59.575 78.1031 59.8145 78.3058 59.985 78.562C60.0766 78.7168 60.1323 78.8901 60.1481 79.0692C60.1638 79.2484 60.1391 79.4288 60.0758 79.5971C60.0155 79.7415 59.9258 79.8718 59.8123 79.9795C59.6989 80.0873 59.5642 80.1702 59.4168 80.223C59.1557 80.3014 58.8822 80.3301 58.6105 80.3074C57.4656 80.2807 56.3207 80.254 55.1759 80.2273C54.7395 80.2544 54.3035 80.1697 53.9091 79.9812C53.6995 79.8517 53.5322 79.6638 53.4278 79.4405C53.3234 79.2173 53.2864 78.9684 53.3215 78.7245C53.4307 77.957 54.1527 77.485 54.773 77.3504Z" fill="#2F2E41"/>
<path d="M85.0223 121.056C85.0089 121.04 84.9936 121.026 84.9766 121.014C84.935 120.965 84.8842 120.926 84.8272 120.897L84.4192 120.678L81.7102 117.671C81.5534 117.589 81.3709 117.572 81.2015 117.622L81.1945 117.624L80.034 117.983L79.036 118.293L77.6419 118.725L68.146 121.665L61.9041 123.598C61.7354 123.651 61.5943 123.769 61.5114 123.925C61.4284 124.082 61.4102 124.264 61.4606 124.434C61.4899 124.527 61.5384 124.614 61.6031 124.687L61.8017 124.908L62.2183 125.372L63.1836 127.373L63.4514 127.671C63.5367 127.767 63.6474 127.835 63.7704 127.87C63.8935 127.905 64.0238 127.903 64.1462 127.866L84.7096 122.148C84.8164 122.114 84.9131 122.053 84.9911 121.973C85.0691 121.892 85.1261 121.793 85.157 121.685C85.1879 121.577 85.1917 121.463 85.1682 121.354C85.1448 121.244 85.0946 121.141 85.0223 121.056Z" fill="#CCCCCC"/>
<path d="M83.802 91.3047L83.4038 91.3693C83.2946 91.3874 83.1971 91.4479 83.1324 91.5377L82.9569 91.783L81.3744 95.7403C81.31 95.8307 81.2841 95.9431 81.3025 96.0527L81.4879 97.1801L80.7871 117.305C80.8048 117.409 80.8607 117.503 80.9439 117.568L84.0164 121.678L84.0882 121.735L84.2429 121.856C84.3223 121.917 84.4207 121.949 84.5209 121.944L84.782 121.932C84.8413 121.929 84.8994 121.914 84.9522 121.887C85.0051 121.86 85.0517 121.822 85.0889 121.776C85.1263 121.73 85.1535 121.676 85.1686 121.619C85.1836 121.562 85.1861 121.502 85.176 121.443L84.2846 91.649C84.2666 91.5396 84.2058 91.4418 84.1157 91.3772C84.0256 91.3125 83.9135 91.2864 83.8041 91.3044L83.802 91.3047Z" fill="#CCCCCC"/>
<path d="M83.1346 92.8691L81.7328 97.1394L81.1904 114.197L83.3725 116.136L83.1346 92.8691Z" fill="#2ECC82"/>
<path d="M72.294 118.888C71.8509 118.68 71.3445 118.654 70.8825 118.815C70.4206 118.976 70.0395 119.31 69.8204 119.748C69.7773 119.837 69.7416 119.93 69.7139 120.026L63.1751 120.416L62.2061 123.804L71.1054 122.3C71.5102 122.385 71.9316 122.333 72.3039 122.153C72.6761 121.973 72.9782 121.675 73.1631 121.305C73.3716 120.878 73.4018 120.385 73.2471 119.936C73.0925 119.486 72.7657 119.117 72.3386 118.908C72.3238 118.901 72.309 118.894 72.294 118.888Z" fill="#FFB6B6"/>
<path d="M57.8612 102.179C57.4303 102.003 56.9665 101.921 56.5013 101.94C56.0362 101.959 55.5806 102.078 55.1655 102.289C54.7504 102.5 54.3855 102.797 54.0957 103.162C53.806 103.526 53.5981 103.948 53.4862 104.4L51.6885 111.66L52.0266 124.361C52.0266 124.361 61.41 126.161 62.9852 125.004C64.5604 123.846 64.4125 122.985 64.5604 123.846C64.7084 124.708 65.3845 125.07 65.3939 124.727C65.4032 124.384 65.4797 124.443 65.8723 124.339C66.2648 124.236 67.9973 123.598 67.9973 123.598L68.0749 119.976C68.0749 119.976 65.2107 118.891 64.5158 119.215C63.8209 119.539 64.6637 120.076 63.8209 119.539C62.9782 119.001 62.886 117.304 62.7419 118.833C62.5978 120.363 62.176 120.647 61.5441 119.967C60.9123 119.287 57.9848 119.722 57.9848 119.722L59.8477 105.604C59.9414 104.894 59.7973 104.173 59.4379 103.553C59.0785 102.933 58.5241 102.45 57.8612 102.179Z" fill="#2ECC82"/>
<path d="M1.27699e-06 144.292C-0.000111722 144.33 0.00727569 144.368 0.0217359 144.403C0.0361961 144.438 0.057446 144.47 0.0842614 144.497C0.111077 144.524 0.142928 144.545 0.177985 144.559C0.213042 144.574 0.250612 144.581 0.288534 144.581H173.711C173.788 144.581 173.861 144.551 173.915 144.496C173.97 144.442 174 144.369 174 144.292C174 144.216 173.97 144.143 173.915 144.088C173.861 144.034 173.788 144.004 173.711 144.004H0.288519C0.250599 144.004 0.213032 144.011 0.177977 144.026C0.142922 144.04 0.111071 144.061 0.0842577 144.088C0.0574441 144.115 0.0361957 144.147 0.0217359 144.182C0.00727614 144.217 -0.000110426 144.255 1.27699e-06 144.292Z" fill="#CCCCCC"/>
<path d="M153.032 81.8571H103.897C103.1 81.8561 102.336 81.5391 101.772 80.9756C101.209 80.412 100.892 79.6479 100.891 78.8509V72.2289C100.892 71.4318 101.209 70.6677 101.772 70.1042C102.336 69.5406 103.1 69.2236 103.897 69.2227H153.032C153.829 69.2236 154.593 69.5406 155.156 70.1042C155.72 70.6677 156.037 71.4318 156.038 72.2289V78.8509C156.037 79.6479 155.72 80.412 155.156 80.9756C154.593 81.5391 153.829 81.8561 153.032 81.8571Z" fill="#E6E6E6"/>
<path d="M134.433 74.4046H119.956C119.784 74.4046 119.62 74.3364 119.498 74.2149C119.377 74.0935 119.309 73.9288 119.309 73.757C119.309 73.5852 119.377 73.4205 119.498 73.2991C119.62 73.1776 119.784 73.1094 119.956 73.1094H134.433C134.605 73.1094 134.77 73.1776 134.891 73.2991C135.013 73.4205 135.081 73.5852 135.081 73.757C135.081 73.9288 135.013 74.0935 134.891 74.2149C134.77 74.3364 134.605 74.4046 134.433 74.4046Z" fill="white"/>
<path d="M148.358 77.9671H119.795C119.623 77.9671 119.459 77.8989 119.337 77.7774C119.216 77.656 119.147 77.4913 119.147 77.3195C119.147 77.1477 119.216 76.983 119.337 76.8616C119.459 76.7401 119.623 76.6719 119.795 76.6719H148.358C148.53 76.6719 148.695 76.7401 148.816 76.8616C148.938 76.983 149.006 77.1477 149.006 77.3195C149.006 77.4913 148.938 77.656 148.816 77.7774C148.695 77.8989 148.53 77.9671 148.358 77.9671Z" fill="white"/>
<path d="M112.265 79.8797C114.663 79.8797 116.607 77.9356 116.607 75.5375C116.607 73.1394 114.663 71.1953 112.265 71.1953C109.867 71.1953 107.923 73.1394 107.923 75.5375C107.923 77.9356 109.867 79.8797 112.265 79.8797Z" fill="white"/>
<path d="M137.272 98.8278H88.1371C87.34 98.8268 86.5759 98.5098 86.0123 97.9463C85.4488 97.3827 85.1318 96.6186 85.1309 95.8216V89.1996C85.1318 88.4025 85.4488 87.6384 86.0123 87.0749C86.5759 86.5113 87.34 86.1943 88.1371 86.1934H137.272C138.069 86.1943 138.833 86.5113 139.397 87.0749C139.96 87.6384 140.277 88.4025 140.278 89.1996V95.8216C140.277 96.6186 139.96 97.3827 139.397 97.9463C138.833 98.5098 138.069 98.8268 137.272 98.8278Z" fill="#E6E6E6"/>
<path d="M118.675 91.3773H104.197C104.026 91.3773 103.861 91.3091 103.739 91.1876C103.618 91.0662 103.55 90.9014 103.55 90.7297C103.55 90.5579 103.618 90.3932 103.739 90.2717C103.861 90.1503 104.026 90.082 104.197 90.082H118.675C118.846 90.082 119.011 90.1503 119.133 90.2717C119.254 90.3932 119.322 90.5579 119.322 90.7297C119.322 90.9014 119.254 91.0662 119.133 91.1876C119.011 91.3091 118.846 91.3773 118.675 91.3773Z" fill="white"/>
<path d="M132.598 94.9378H104.035C103.864 94.9378 103.699 94.8696 103.577 94.7482C103.456 94.6267 103.388 94.462 103.388 94.2902C103.388 94.1185 103.456 93.9537 103.577 93.8323C103.699 93.7108 103.864 93.6426 104.035 93.6426H132.598C132.77 93.6426 132.935 93.7108 133.056 93.8323C133.178 93.9537 133.246 94.1185 133.246 94.2902C133.246 94.462 133.178 94.6267 133.056 94.7482C132.935 94.8696 132.77 94.9378 132.598 94.9378Z" fill="white"/>
<path d="M96.5062 96.8523C98.9043 96.8523 100.848 94.9083 100.848 92.5101C100.848 90.112 98.9043 88.168 96.5062 88.168C94.1081 88.168 92.1641 90.112 92.1641 92.5101C92.1641 94.9083 94.1081 96.8523 96.5062 96.8523Z" fill="white"/>
</svg>
