<svg width="459" height="358" viewBox="0 0 459 358" fill="none" xmlns="http://www.w3.org/2000/svg">
<path d="M106.3 346.4C106.3 346.4 154.3 371.3 209.1 345C263.9 318.7 281.7 267.8 310.2 229.5C325.1 209.5 349.5 198.3 368.1 181.4C427.6 127.5 406.1 37.4 351.7 12.7C304.5 -8.59998 250.1 -0.899982 182.7 35.3C115.3 71.5 66.6998 94.9 31.2998 167.1C-4.10021 239.4 46.5998 311.5 106.3 346.4Z" fill="#F6F6F6"/>
<path d="M397.9 315C397.9 315 394.6 300.8 397.1 288.3C399.6 275.8 405.4 284.1 412.1 275.8C418.8 267.5 415.4 251.6 422.9 244.9C430.4 238.2 441.2 239.1 443.7 226.6C446.2 214.1 447.9 204.1 452.9 205.8C457.9 207.5 448.7 222.5 448.7 231.6C448.7 240.8 453.7 246.6 450.4 255.8C447.1 265 432.9 261.6 432.9 272.5C432.9 283.4 438.7 294.2 433.7 301.7C428.7 309.2 415.4 310.9 413.7 315C412 319.2 407.9 326.7 403.7 326.7C399.6 326.7 397.9 315 397.9 315Z" fill="#0FAA61"/>
<path d="M395.199 315.2C395.999 312.7 394.399 291 386.899 286.8C379.399 282.6 371.099 284.3 366.899 276.8C362.699 269.3 362.699 266 358.599 265.1C354.399 264.3 334.399 260.9 336.899 265.1C339.399 269.3 354.399 262.6 354.399 270.9C354.399 279.2 352.699 292.6 357.699 295.9C362.699 299.2 375.999 298.4 375.199 305.9C374.399 313.4 371.899 315.9 375.999 318.4C380.199 320.9 391.799 331.7 393.499 323.4C395.199 315.2 395.199 315.2 395.199 315.2Z" fill="#73DDAB"/>
<path d="M404.5 333.6C404.5 333.6 400.6 321.5 411.3 299.1C422 276.7 429.8 259.8 434.6 251" stroke="#263238" stroke-width="1.232" stroke-miterlimit="10"/>
<path d="M395.699 335.5C395.699 335.5 394.199 329.7 389.399 313.6C384.499 297.6 378.699 293.2 370.499 287.9C362.199 282.6 361.799 273.8 360.299 271.4" stroke="#263238" stroke-width="1.232" stroke-miterlimit="10"/>
<path d="M416.1 326.8C416.1 326.8 417.1 318.1 424.8 315.6C432.6 313.2 439.9 314.1 441.3 308.8C442.8 303.5 442.8 298.1 446.2 295.2C449.6 292.3 454 290.8 454.5 292.3C455 293.8 449.6 294.7 449.6 299.6C449.6 304.5 456.9 316.6 446.2 321.5C435.5 326.4 426.8 322 422.9 325.4C419 328.8 416.6 331.2 416.6 331.2L416.1 326.8Z" fill="#73DDAB"/>
<path d="M415.199 335.5C415.199 335.5 418.599 322.9 426.899 320C435.199 317.1 444.399 323.4 448.299 317.6C452.199 311.8 449.299 305.9 448.799 302.1" stroke="#263238" stroke-width="1.232" stroke-miterlimit="10"/>
<path d="M420.6 333.6H390.5C389.2 333.6 388.1 334.7 388.1 336C388.1 337.3 389.2 338.4 390.5 338.4H390.7L393 344.5C393.4 345.5 394.3 346.1 395.4 346.1H415.6C416.6 346.1 417.6 345.5 418 344.5L420.3 338.4H420.5C421.8 338.4 422.9 337.3 422.9 336C423.1 334.6 422 333.6 420.6 333.6Z" fill="black"/>
<path d="M97.3004 129.1C114.918 129.1 129.2 114.818 129.2 97.2C129.2 79.5822 114.918 65.3 97.3004 65.3C79.6825 65.3 65.4004 79.5822 65.4004 97.2C65.4004 114.818 79.6825 129.1 97.3004 129.1Z" stroke="#263238" stroke-width="1.232" stroke-miterlimit="10" stroke-linecap="round" stroke-linejoin="round"/>
<path d="M101.406 123.283C115.809 121.013 125.644 107.497 123.374 93.0946C121.104 78.6922 107.588 68.857 93.1853 71.1272C78.7829 73.3973 68.9477 86.9131 71.2179 101.316C73.4881 115.718 87.0039 125.553 101.406 123.283Z" stroke="#263238" stroke-width="1.232" stroke-miterlimit="10" stroke-linecap="round" stroke-linejoin="round"/>
<path d="M80.5 97.2001H97.3V121.6" stroke="#263238" stroke-width="1.232" stroke-miterlimit="10" stroke-linecap="round" stroke-linejoin="round"/>
<path d="M244.4 340.8C244.4 337.8 246.8 335.4 249.8 335.4C252.8 335.4 255.2 337.8 255.2 340.8C255.2 343.8 252.8 346.2 249.8 346.2C246.8 346.2 244.4 343.8 244.4 340.8Z" fill="#263238" stroke="#181818" stroke-width="1.232" stroke-miterlimit="10" stroke-linecap="round" stroke-linejoin="round"/>
<path d="M247 340.8C247 339.3 248.2 338.1 249.7 338.1C251.2 338.1 252.4 339.3 252.4 340.8C252.4 342.3 251.2 343.5 249.7 343.5C248.2 343.5 247 342.3 247 340.8Z" fill="white" stroke="#181818" stroke-width="1.232" stroke-miterlimit="10" stroke-linecap="round" stroke-linejoin="round"/>
<path d="M187.1 340.8C187.1 337.8 189.5 335.4 192.5 335.4C195.5 335.4 197.9 337.8 197.9 340.8C197.9 343.8 195.5 346.2 192.5 346.2C189.5 346.2 187.1 343.8 187.1 340.8Z" fill="#263238" stroke="#181818" stroke-width="1.232" stroke-miterlimit="10" stroke-linecap="round" stroke-linejoin="round"/>
<path d="M189.699 340.8C189.699 339.3 190.899 338.1 192.399 338.1C193.899 338.1 195.099 339.3 195.099 340.8C195.099 342.3 193.899 343.5 192.399 343.5C190.899 343.5 189.699 342.3 189.699 340.8Z" fill="white" stroke="#181818" stroke-width="1.232" stroke-miterlimit="10" stroke-linecap="round" stroke-linejoin="round"/>
<path d="M168.301 340.8C168.301 337.8 170.701 335.4 173.701 335.4C176.701 335.4 179.101 337.8 179.101 340.8C179.101 343.8 176.701 346.2 173.701 346.2C170.701 346.2 168.301 343.8 168.301 340.8Z" fill="#263238" stroke="#181818" stroke-width="1.232" stroke-miterlimit="10" stroke-linecap="round" stroke-linejoin="round"/>
<path d="M171 340.8C171 339.3 172.2 338.1 173.7 338.1C175.2 338.1 176.4 339.3 176.4 340.8C176.4 342.3 175.2 343.5 173.7 343.5C172.2 343.5 171 342.3 171 340.8Z" fill="white" stroke="#181818" stroke-width="1.232" stroke-miterlimit="10" stroke-linecap="round" stroke-linejoin="round"/>
<path d="M200.701 334.7H212.001V276.8H200.801V334.7H200.701Z" fill="#263238" stroke="#181818" stroke-width="1.232" stroke-miterlimit="10" stroke-linecap="round" stroke-linejoin="round"/>
<path d="M197.723 334.71H215.023V293.81H197.723V334.71Z" fill="black" stroke="#181818" stroke-width="1.232" stroke-miterlimit="10" stroke-linecap="round" stroke-linejoin="round"/>
<path d="M218 267.1H232.5V236H217.9L218 267.1C217.9 267.1 217.9 267.1 218 267.1Z" fill="#263238"/>
<path d="M218 267.1H232.5V236H217.9L218 267.1ZM218 267.1C217.9 267.1 217.9 267.1 218 267.1Z" stroke="#181818" stroke-width="1.232" stroke-miterlimit="10" stroke-linecap="round" stroke-linejoin="round"/>
<path d="M196.501 235.9H253.201C258.801 235.9 263.301 231.3 263.101 225.7L261.701 170.4C261.601 165 257.201 160.7 251.801 160.7H205.001C200.101 160.7 195.901 164.3 195.201 169.1L186.701 224.4C185.801 230.5 190.501 235.9 196.501 235.9Z" fill="#0FAA61" stroke="#181818" stroke-width="1.232" stroke-miterlimit="10" stroke-linecap="round" stroke-linejoin="round"/>
<path d="M215.1 278.8L239.9 295.2" stroke="#181818" stroke-width="1.232" stroke-miterlimit="10" stroke-linecap="round" stroke-linejoin="round"/>
<path d="M240.801 292.7L245.001 295.6C246.501 296.6 246.601 298.7 245.401 299.9L245.101 300.2C244.101 301.2 242.501 301.3 241.401 300.4L237.501 297.2C236.301 296.2 236.201 294.3 237.301 293.2C238.301 292.1 239.801 292 240.801 292.7Z" fill="#263238" stroke="#181818" stroke-width="1.232" stroke-miterlimit="10" stroke-linecap="round" stroke-linejoin="round"/>
<path d="M160.3 281.6H252.5C257.4 281.6 261.4 277.6 261.4 272.7C261.4 267.8 257.4 263.8 252.5 263.8H160.3C155.4 263.8 151.4 267.8 151.4 272.7C151.4 277.6 155.4 281.6 160.3 281.6Z" fill="#0FAA61" stroke="#181818" stroke-width="1.232" stroke-miterlimit="10" stroke-linecap="round" stroke-linejoin="round"/>
<path d="M151.5 271.7C152 267.2 156.1 263.9 160.7 263.9H208.5C213.1 263.9 217.2 267.2 217.7 271.7C218.3 277.1 214.1 281.7 208.9 281.7H160.4C155 281.6 150.8 277.1 151.5 271.7Z" fill="#0FAA61" stroke="#181818" stroke-width="1.232" stroke-miterlimit="10" stroke-linecap="round" stroke-linejoin="round"/>
<path d="M166.6 337.9H255.1C255.1 335.2 252.9 333.1 250.3 333.1H171.5C168.8 333.1 166.6 335.3 166.6 337.9Z" fill="#181818" stroke="#181818" stroke-width="1.232" stroke-miterlimit="10" stroke-linecap="round" stroke-linejoin="round"/>
<path d="M182.4 337.9H211.2V333.1H187.2C184.5 333.1 182.4 335.3 182.4 337.9Z" fill="#263238" stroke="#181818" stroke-width="1.232" stroke-miterlimit="10" stroke-linecap="round" stroke-linejoin="round"/>
<path d="M176.201 226.7L169.801 237.2C169.801 237.2 147.501 239.4 134.701 242.3C122.001 245.2 119.401 259.2 118.801 262.1C118.101 265.3 114.101 332.2 115.401 332.5C116.701 332.8 126.201 333.8 126.201 333.8C126.201 333.8 142.301 268.8 147.101 267.8C151.901 266.8 222.601 268.4 233.201 262.7C243.701 257 246.301 240.4 240.201 228.9C234.201 217.4 176.201 226.7 176.201 226.7Z" fill="#181818" stroke="#181818" stroke-width="1.232" stroke-miterlimit="10" stroke-linecap="round" stroke-linejoin="round"/>
<path d="M219.501 239.4C219.501 239.4 189.901 239.4 175.501 240.7C161.201 242 152.201 252.8 152.901 262.4C153.501 272 165.101 334.7 165.101 334.7L176.301 333.7L182.301 266.5C182.301 266.5 192.301 273 231.101 263" fill="#181818"/>
<path d="M219.501 239.4C219.501 239.4 189.901 239.4 175.501 240.7C161.201 242 152.201 252.8 152.901 262.4C153.501 272 165.101 334.7 165.101 334.7L176.301 333.7L182.301 266.5C182.301 266.5 192.301 273 231.101 263" stroke="#263238" stroke-width="1.232" stroke-miterlimit="10" stroke-linecap="round" stroke-linejoin="round"/>
<path d="M289.717 137.042C288.717 136.442 285.617 144.642 285.617 144.642C285.617 144.642 281.817 144.442 279.517 144.642C276.017 144.942 273.117 149.742 273.117 152.942C273.117 156.142 258.417 181.642 258.417 181.642C258.417 181.642 245.717 160.642 241.217 157.142C236.717 153.642 220.217 150.442 220.217 150.442C212.817 149.442 207.117 149.342 199.817 150.442C199.817 150.442 183.217 153.642 178.817 157.142C174.317 160.642 161.617 181.642 161.617 181.642C161.617 181.642 146.917 156.142 146.917 152.942C146.917 149.742 144.017 144.942 140.517 144.642C138.317 144.442 134.417 144.642 134.417 144.642C134.417 144.642 131.217 136.342 130.317 137.042C129.317 137.642 130.917 147.842 131.917 150.142C132.917 152.342 140.817 153.942 140.817 153.942C140.817 153.942 150.717 191.542 153.917 196.642C157.117 201.742 160.617 208.142 169.217 204.242C177.817 200.442 188.617 187.942 188.617 187.942L206.817 188.242H208.217H209.417L231.417 187.942C231.417 187.942 242.217 200.342 250.817 204.242C259.417 208.042 262.917 201.742 266.117 196.642C269.317 191.542 279.217 153.942 279.217 153.942C279.217 153.942 287.217 152.342 288.117 150.142C289.117 147.842 290.717 137.642 289.717 137.042Z" fill="#E59E9E" stroke="#263238" stroke-width="1.232" stroke-miterlimit="10" stroke-linecap="round" stroke-linejoin="round"/>
<path d="M263.3 172.6C260.5 177.7 258.1 181.8 258.1 181.8C258.1 181.8 245.4 160.8 240.9 157.3C236.4 153.8 219.9 150.6 219.9 150.6C212.5 149.6 206.8 149.5 199.5 150.6C199.5 150.6 182.9 153.8 178.5 157.3C174 160.8 161.3 181.8 161.3 181.8C161.3 181.8 158.8 177.4 155.8 172L147 177.3C149.6 186.1 152.2 194.5 153.6 196.7C156.8 201.8 160.3 208.2 168.9 204.3C177.5 200.5 188.3 188 188.3 188L206.5 188.3H207.9H209.1L231.1 188C231.1 188 241.9 200.4 250.5 204.3C259.1 208.1 262.6 201.8 265.8 196.7C267.2 194.5 269.9 186 272.4 177.2L263.3 172.6Z" fill="white"/>
<path d="M255.599 187.6C255.399 185.5 255.299 183.5 256.099 182.3C256.599 181.6 256.999 181.1 257.399 180.6C257.099 180.1 256.699 179.4 256.099 178.6C255.499 179.2 254.799 180 254.099 181C252.799 182.9 252.999 185.4 253.199 187.8C253.399 189.9 253.499 191.9 252.699 193.1C251.999 194.2 251.299 194.1 249.299 193.7C247.799 193.4 245.799 193 243.599 193.7C241.799 194.3 240.799 195.7 240.299 197.4C240.899 198 241.599 198.5 242.199 199C242.499 197.6 243.099 196.3 244.299 195.9C245.899 195.4 247.399 195.7 248.799 196C250.699 196.4 252.899 196.9 254.599 194.4C255.999 192.5 255.799 190 255.599 187.6Z" fill="#C6FF00"/>
<path d="M230.999 188.1C230.999 188.1 231.299 188.4 231.799 189C232.699 188.6 233.399 188.3 233.699 188C233.899 187.8 234.899 187.9 235.799 188C237.499 188.2 239.899 188.4 242.899 187.5C246.799 186.4 246.899 182.2 246.999 178.5C247.099 176.4 247.099 174.3 247.799 173C248.699 171.3 250.199 171.2 251.399 171.5C250.899 170.7 250.399 169.9 249.799 169.1C248.299 169.3 246.699 170 245.699 171.9C244.699 173.7 244.699 176.1 244.599 178.4C244.499 182.3 244.199 184.7 242.099 185.3C239.499 186 237.499 185.8 235.799 185.7C234.299 185.6 232.999 185.4 231.999 186.2C231.499 186.6 229.499 187.4 227.299 188.2L230.999 188.1Z" fill="#C6FF00"/>
<path d="M176.2 193.8C174 193.1 172.1 193.5 170.5 193.8C168.6 194.2 167.8 194.3 167.1 193.2C166.3 191.9 166.4 189.9 166.6 187.9C166.8 185.5 167 183 165.7 181.1C164.9 179.8 164.1 178.9 163.4 178.3C162.9 179.1 162.5 179.8 162.1 180.3C162.6 180.8 163.2 181.5 163.8 182.4C164.6 183.7 164.5 185.7 164.3 187.7C164.1 190.1 163.9 192.6 165.2 194.5C166.8 196.9 169 196.5 171 196.1C172.4 195.8 173.9 195.5 175.5 196C176.6 196.4 177.2 197.4 177.5 198.7C178.1 198.2 178.8 197.6 179.4 197.1C178.8 195.6 177.8 194.3 176.2 193.8Z" fill="#C6FF00"/>
<path d="M183.8 185.6C182.1 185.7 180.1 185.9 177.5 185.2C175.4 184.6 175.2 182.2 175 178.3C174.9 176 174.8 173.6 173.9 171.8C172.7 169.7 170.9 169 169.2 169C168.6 169.9 168 170.7 167.5 171.6C168.7 171.2 170.8 170.9 171.9 172.9C172.6 174.2 172.7 176.3 172.7 178.4C172.8 182.1 173 186.3 176.8 187.4C179.8 188.3 182.2 188 183.9 187.9C184.8 187.8 185.8 187.7 186 187.9C186.3 188.1 186.8 188.4 187.5 188.8C187.9 188.4 188.1 188.1 188.1 188.1L192.2 188.2C190 187.4 187.9 186.6 187.4 186.1C186.7 185.3 185.3 185.4 183.8 185.6Z" fill="#C6FF00"/>
<g opacity="0.5">
<path d="M255.599 187.6C255.399 185.5 255.299 183.5 256.099 182.3C256.599 181.6 256.999 181.1 257.399 180.6C257.099 180.1 256.699 179.4 256.099 178.6C255.499 179.2 254.799 180 254.099 181C252.799 182.9 252.999 185.4 253.199 187.8C253.399 189.9 253.499 191.9 252.699 193.1C251.999 194.2 251.299 194.1 249.299 193.7C247.799 193.4 245.799 193 243.599 193.7C241.799 194.3 240.799 195.7 240.299 197.4C240.899 198 241.599 198.5 242.199 199C242.499 197.6 243.099 196.3 244.299 195.9C245.899 195.4 247.399 195.7 248.799 196C250.699 196.4 252.899 196.9 254.599 194.4C255.999 192.5 255.799 190 255.599 187.6Z" fill="white"/>
<path d="M230.999 188.1C230.999 188.1 231.299 188.4 231.799 189C232.699 188.6 233.399 188.3 233.699 188C233.899 187.8 234.899 187.9 235.799 188C237.499 188.2 239.899 188.4 242.899 187.5C246.799 186.4 246.899 182.2 246.999 178.5C247.099 176.4 247.099 174.3 247.799 173C248.699 171.3 250.199 171.2 251.399 171.5C250.899 170.7 250.399 169.9 249.799 169.1C248.299 169.3 246.699 170 245.699 171.9C244.699 173.7 244.699 176.1 244.599 178.4C244.499 182.3 244.199 184.7 242.099 185.3C239.499 186 237.499 185.8 235.799 185.7C234.299 185.6 232.999 185.4 231.999 186.2C231.499 186.6 229.499 187.4 227.299 188.2L230.999 188.1Z" fill="white"/>
<path d="M176.2 193.8C174 193.1 172.1 193.5 170.5 193.8C168.6 194.2 167.8 194.3 167.1 193.2C166.3 191.9 166.4 189.9 166.6 187.9C166.8 185.5 167 183 165.7 181.1C164.9 179.8 164.1 178.9 163.4 178.3C162.9 179.1 162.5 179.8 162.1 180.3C162.6 180.8 163.2 181.5 163.8 182.4C164.6 183.7 164.5 185.7 164.3 187.7C164.1 190.1 163.9 192.6 165.2 194.5C166.8 196.9 169 196.5 171 196.1C172.4 195.8 173.9 195.5 175.5 196C176.6 196.4 177.2 197.4 177.5 198.7C178.1 198.2 178.8 197.6 179.4 197.1C178.8 195.6 177.8 194.3 176.2 193.8Z" fill="white"/>
<path d="M183.8 185.6C182.1 185.7 180.1 185.9 177.5 185.2C175.4 184.6 175.2 182.2 175 178.3C174.9 176 174.8 173.6 173.9 171.8C172.7 169.7 170.9 169 169.2 169C168.6 169.9 168 170.7 167.5 171.6C168.7 171.2 170.8 170.9 171.9 172.9C172.6 174.2 172.7 176.3 172.7 178.4C172.8 182.1 173 186.3 176.8 187.4C179.8 188.3 182.2 188 183.9 187.9C184.8 187.8 185.8 187.7 186 187.9C186.3 188.1 186.8 188.4 187.5 188.8C187.9 188.4 188.1 188.1 188.1 188.1L192.2 188.2C190 187.4 187.9 186.6 187.4 186.1C186.7 185.3 185.3 185.4 183.8 185.6Z" fill="white"/>
</g>
<path d="M263.3 172.6C260.5 177.7 258.1 181.8 258.1 181.8C258.1 181.8 245.4 160.8 240.9 157.3C236.4 153.8 219.9 150.6 219.9 150.6C212.5 149.6 206.8 149.5 199.5 150.6C199.5 150.6 182.9 153.8 178.5 157.3C174 160.8 161.3 181.8 161.3 181.8C161.3 181.8 158.8 177.4 155.8 172L147 177.3C149.6 186.1 152.2 194.5 153.6 196.7C156.8 201.8 160.3 208.2 168.9 204.3C177.5 200.5 188.3 188 188.3 188L206.5 188.3H207.9H209.1L231.1 188C231.1 188 241.9 200.4 250.5 204.3C259.1 208.1 262.6 201.8 265.8 196.7C267.2 194.5 269.9 186 272.4 177.2L263.3 172.6Z" stroke="#263238" stroke-width="1.232" stroke-miterlimit="10" stroke-linecap="round" stroke-linejoin="round"/>
<path d="M182.201 172.8C182.201 172.8 178.101 181.7 179.001 187.5C180.001 193.2 180.001 194.5 180.001 194.5C180.001 194.5 173.901 211.1 173.001 217.1C172.001 223.2 174.901 227.9 178.401 230.5C181.901 233 229.701 233.7 237.001 231.8C244.301 229.9 243.701 222.9 243.401 216.5C243.101 210.1 240.501 196.4 240.501 196.4C240.501 196.4 241.501 177 237.301 172.2" fill="white"/>
<path d="M218.802 185.6C217.402 185.6 215.902 185 214.302 183.6C210.002 179.6 207.102 178.9 204.002 181.2C203.502 181.6 203.002 181.9 202.602 182.3C199.402 184.7 196.402 187 191.702 184.1C190.602 183.4 189.602 182.7 188.802 182.1C185.602 179.8 184.202 178.9 182.002 180.8C180.302 182.2 179.002 183 177.502 182.8C175.602 182.6 174.202 180.8 171.602 177.2L171.402 177C170.302 175.6 169.202 174.8 167.902 174.7C165.702 174.5 163.902 176.4 163.802 176.4C163.302 176.9 162.602 176.9 162.202 176.4C161.702 175.9 161.702 175.2 162.202 174.8C162.302 174.7 164.802 172.2 168.002 172.5C170.002 172.6 171.702 173.7 173.202 175.7L173.402 175.9C175.502 178.6 176.802 180.4 177.702 180.6C178.202 180.7 179.102 180.2 180.502 179.1C184.202 176 187.102 178.1 190.102 180.3C191.002 180.9 191.902 181.6 192.902 182.2C196.302 184.3 198.102 182.9 201.202 180.5C201.702 180.1 202.202 179.8 202.702 179.4C207.802 175.7 212.302 178.6 216.002 182C218.802 184.5 220.502 183.4 224.102 180.7C224.802 180.2 225.502 179.6 226.302 179.1L226.702 178.8C231.402 175.5 231.902 175.8 238.302 179.3L240.002 180.2C242.202 181.4 243.602 182.2 244.202 182.1C244.702 182.1 245.302 181.4 246.502 180C247.002 179.4 247.602 178.8 248.302 178C253.502 172.5 255.202 172.8 259.302 174.7L259.602 174.9C260.202 175.2 260.402 175.8 260.202 176.4C259.902 177 259.302 177.2 258.702 177L258.402 176.8C255.002 175.2 254.302 174.9 250.002 179.5C249.302 180.2 248.702 180.9 248.202 181.4C244.902 185.2 244.202 185 238.902 182L237.202 181.1C231.602 178 231.602 178 228.002 180.4L227.602 180.7C226.802 181.2 226.102 181.8 225.502 182.3C223.302 184 221.102 185.6 218.802 185.6ZM225.402 193.4C226.102 192.9 226.802 192.4 227.502 191.8L227.902 191.5C231.402 189 231.402 189.1 237.102 192.2L238.802 193.1C244.102 196.1 244.802 196.2 248.102 192.5C248.602 191.9 249.202 191.3 249.902 190.6C254.202 186 254.802 186.3 258.302 187.9L258.602 188.1C259.202 188.4 259.902 188.1 260.102 187.5C260.402 186.9 260.102 186.2 259.502 186L259.202 185.8C255.102 183.9 253.402 183.5 248.202 189.1C247.502 189.9 246.902 190.5 246.402 191.1C245.202 192.5 244.602 193.1 244.102 193.2C243.502 193.2 242.102 192.5 239.902 191.3L238.202 190.4C231.802 186.9 231.302 186.6 226.602 189.9L226.202 190.2C225.402 190.7 224.702 191.3 224.002 191.8C220.302 194.6 218.602 195.7 215.902 193.1C212.202 189.7 207.802 186.8 202.602 190.5C202.102 190.9 201.602 191.2 201.102 191.6C198.002 194 196.202 195.4 192.802 193.3C191.802 192.7 190.902 192 190.002 191.4C187.002 189.2 184.102 187.1 180.402 190.2C179.002 191.3 178.202 191.8 177.602 191.7C176.702 191.6 175.302 189.8 173.302 187L173.102 186.8C171.602 184.8 169.902 183.8 167.902 183.6C164.702 183.4 162.202 185.8 162.102 185.9C161.602 186.4 161.602 187.1 162.102 187.5C162.602 188 163.302 188 163.702 187.5C163.702 187.5 165.602 185.7 167.802 185.8C169.102 185.9 170.202 186.7 171.302 188.1L171.502 188.3C174.202 191.9 175.502 193.6 177.402 193.9C178.902 194.1 180.202 193.3 181.902 191.9C184.202 190 185.502 190.9 188.702 193.2C189.602 193.8 190.502 194.5 191.602 195.2C196.302 198.1 199.302 195.8 202.502 193.4C203.002 193 203.402 192.7 203.902 192.3C207.002 190.1 209.902 190.7 214.202 194.7C215.802 196.2 217.302 196.7 218.702 196.7C221.102 196.7 223.302 195.1 225.402 193.4Z" fill="#181818"/>
<path opacity="0.5" d="M218.802 185.6C217.402 185.6 215.902 185 214.302 183.6C210.002 179.6 207.102 178.9 204.002 181.2C203.502 181.6 203.002 181.9 202.602 182.3C199.402 184.7 196.402 187 191.702 184.1C190.602 183.4 189.602 182.7 188.802 182.1C185.602 179.8 184.202 178.9 182.002 180.8C180.302 182.2 179.002 183 177.502 182.8C175.602 182.6 174.202 180.8 171.602 177.2L171.402 177C170.302 175.6 169.202 174.8 167.902 174.7C165.702 174.5 163.902 176.4 163.802 176.4C163.302 176.9 162.602 176.9 162.202 176.4C161.702 175.9 161.702 175.2 162.202 174.8C162.302 174.7 164.802 172.2 168.002 172.5C170.002 172.6 171.702 173.7 173.202 175.7L173.402 175.9C175.502 178.6 176.802 180.4 177.702 180.6C178.202 180.7 179.102 180.2 180.502 179.1C184.202 176 187.102 178.1 190.102 180.3C191.002 180.9 191.902 181.6 192.902 182.2C196.302 184.3 198.102 182.9 201.202 180.5C201.702 180.1 202.202 179.8 202.702 179.4C207.802 175.7 212.302 178.6 216.002 182C218.802 184.5 220.502 183.4 224.102 180.7C224.802 180.2 225.502 179.6 226.302 179.1L226.702 178.8C231.402 175.5 231.902 175.8 238.302 179.3L240.002 180.2C242.202 181.4 243.602 182.2 244.202 182.1C244.702 182.1 245.302 181.4 246.502 180C247.002 179.4 247.602 178.8 248.302 178C253.502 172.5 255.202 172.8 259.302 174.7L259.602 174.9C260.202 175.2 260.402 175.8 260.202 176.4C259.902 177 259.302 177.2 258.702 177L258.402 176.8C255.002 175.2 254.302 174.9 250.002 179.5C249.302 180.2 248.702 180.9 248.202 181.4C244.902 185.2 244.202 185 238.902 182L237.202 181.1C231.602 178 231.602 178 228.002 180.4L227.602 180.7C226.802 181.2 226.102 181.8 225.502 182.3C223.302 184 221.102 185.6 218.802 185.6ZM225.402 193.4C226.102 192.9 226.802 192.4 227.502 191.8L227.902 191.5C231.402 189 231.402 189.1 237.102 192.2L238.802 193.1C244.102 196.1 244.802 196.2 248.102 192.5C248.602 191.9 249.202 191.3 249.902 190.6C254.202 186 254.802 186.3 258.302 187.9L258.602 188.1C259.202 188.4 259.902 188.1 260.102 187.5C260.402 186.9 260.102 186.2 259.502 186L259.202 185.8C255.102 183.9 253.402 183.5 248.202 189.1C247.502 189.9 246.902 190.5 246.402 191.1C245.202 192.5 244.602 193.1 244.102 193.2C243.502 193.2 242.102 192.5 239.902 191.3L238.202 190.4C231.802 186.9 231.302 186.6 226.602 189.9L226.202 190.2C225.402 190.7 224.702 191.3 224.002 191.8C220.302 194.6 218.602 195.7 215.902 193.1C212.202 189.7 207.802 186.8 202.602 190.5C202.102 190.9 201.602 191.2 201.102 191.6C198.002 194 196.202 195.4 192.802 193.3C191.802 192.7 190.902 192 190.002 191.4C187.002 189.2 184.102 187.1 180.402 190.2C179.002 191.3 178.202 191.8 177.602 191.7C176.702 191.6 175.302 189.8 173.302 187L173.102 186.8C171.602 184.8 169.902 183.8 167.902 183.6C164.702 183.4 162.202 185.8 162.102 185.9C161.602 186.4 161.602 187.1 162.102 187.5C162.602 188 163.302 188 163.702 187.5C163.702 187.5 165.602 185.7 167.802 185.8C169.102 185.9 170.202 186.7 171.302 188.1L171.502 188.3C174.202 191.9 175.502 193.6 177.402 193.9C178.902 194.1 180.202 193.3 181.902 191.9C184.202 190 185.502 190.9 188.702 193.2C189.602 193.8 190.502 194.5 191.602 195.2C196.302 198.1 199.302 195.8 202.502 193.4C203.002 193 203.402 192.7 203.902 192.3C207.002 190.1 209.902 190.7 214.202 194.7C215.802 196.2 217.302 196.7 218.702 196.7C221.102 196.7 223.302 195.1 225.402 193.4Z" fill="white"/>
<path d="M182.201 172.8C182.201 172.8 178.101 181.7 179.001 187.5C180.001 193.2 180.001 194.5 180.001 194.5C180.001 194.5 173.901 211.1 173.001 217.1C172.001 223.2 174.901 227.9 178.401 230.5C181.901 233 229.701 233.7 237.001 231.8C244.301 229.9 243.701 222.9 243.401 216.5C243.101 210.1 240.501 196.4 240.501 196.4C240.501 196.4 241.501 177 237.301 172.2" stroke="#263238" stroke-width="1.232" stroke-miterlimit="10" stroke-linecap="round" stroke-linejoin="round"/>
<path d="M199.401 150.5C199.401 150.5 198.901 150.6 198.001 150.8C197.901 151.4 197.801 152 197.801 152.6C197.801 158.7 204.301 163.6 212.301 163.6C220.301 163.6 226.801 158.7 226.801 152.6C226.801 152.4 226.801 152.3 226.801 152.1C222.901 151.1 219.801 150.5 219.801 150.5C212.401 149.5 206.701 149.4 199.401 150.5Z" fill="black" stroke="#263238" stroke-width="1.232" stroke-miterlimit="10" stroke-linecap="round" stroke-linejoin="round"/>
<path d="M202.601 144.4C202.601 144.4 201.601 152 202.601 154.6C203.601 157.1 209.601 161.9 215.701 160C221.801 158.1 222.701 152.4 222.701 150.8C222.701 149.2 222.701 141.9 222.701 141.9L202.901 142.5L202.601 144.4Z" fill="#E59E9E" stroke="#263238" stroke-width="1.232" stroke-miterlimit="10" stroke-linecap="round" stroke-linejoin="round"/>
<path d="M212.801 141.3C225.283 141.3 235.401 131.361 235.401 119.1C235.401 106.839 225.283 96.9 212.801 96.9C200.32 96.9 190.201 106.839 190.201 119.1C190.201 131.361 200.32 141.3 212.801 141.3Z" fill="#181818" stroke="#263238" stroke-width="1.232" stroke-miterlimit="10" stroke-linecap="round" stroke-linejoin="round"/>
<path d="M198.501 126.6C198.501 126.6 196.601 122.1 195.301 126.3C194.001 130.5 196.901 135.5 198.801 135.9C200.701 136.1 198.501 126.6 198.501 126.6Z" fill="#E59E9E" stroke="#263238" stroke-width="1.232" stroke-miterlimit="10" stroke-linecap="round" stroke-linejoin="round"/>
<path d="M226.001 126.6C226.001 126.6 227.901 122.1 229.201 126.3C230.501 130.4 227.601 135.5 225.701 135.9C223.801 136.1 226.001 126.6 226.001 126.6Z" fill="#E59E9E" stroke="#263238" stroke-width="1.232" stroke-miterlimit="10" stroke-linecap="round" stroke-linejoin="round"/>
<path d="M222.301 111.7C220.601 110.4 218.401 109.9 216.201 110.2C214.401 110.5 212.001 110.8 210.301 110.6C207.101 110.3 204.601 109 202.001 111.6C199.501 114.2 198.201 125.9 198.201 132C198.201 138.1 202.701 146.7 205.801 148.9C209.001 151.1 217.901 150.8 220.101 148.9C222.301 147 225.801 140 226.501 134.2C227.101 128.5 225.901 117.3 224.601 114.4C224.201 113.4 223.201 112.5 222.301 111.7Z" fill="#E59E9E" stroke="#263238" stroke-width="1.232" stroke-miterlimit="10" stroke-linecap="round" stroke-linejoin="round"/>
<path d="M208.102 127.5C208.765 127.5 209.302 126.649 209.302 125.6C209.302 124.551 208.765 123.7 208.102 123.7C207.44 123.7 206.902 124.551 206.902 125.6C206.902 126.649 207.44 127.5 208.102 127.5Z" fill="#263238"/>
<path d="M218.703 125.6C218.703 126.7 218.203 127.5 217.503 127.5C216.803 127.5 216.303 126.6 216.303 125.6C216.303 124.5 216.803 123.7 217.503 123.7C218.103 123.6 218.703 124.5 218.703 125.6Z" fill="#263238"/>
<path d="M214.203 136.6C214.203 137.7 213.703 138.5 213.003 138.5C212.303 138.5 211.803 137.6 211.803 136.6C211.803 135.5 212.303 134.7 213.003 134.7C213.703 134.7 214.203 135.5 214.203 136.6Z" fill="#263238"/>
<path d="M210.702 128C208.702 131.1 212.502 133.1 215.002 131.2C216.702 129.9 215.002 128 215.002 128" fill="#E59E9E"/>
<path d="M210.702 128C208.702 131.1 212.502 133.1 215.002 131.2C216.702 129.9 215.002 128 215.002 128" stroke="#263238" stroke-width="1.232" stroke-miterlimit="10" stroke-linecap="round" stroke-linejoin="round"/>
<path d="M204.002 121.3C204.002 121.3 207.202 118.3 210.502 119.8" stroke="#263238" stroke-width="1.232" stroke-miterlimit="10" stroke-linecap="round" stroke-linejoin="round"/>
<path d="M215.902 120C215.902 120 218.902 118.1 221.702 121.7" stroke="#263238" stroke-width="1.232" stroke-miterlimit="10" stroke-linecap="round" stroke-linejoin="round"/>
<path d="M115.401 332.5C115.401 332.5 96.3008 336.3 96.3008 338.2C96.3008 340.2 120.701 345.7 123.301 346C125.901 346.3 126.301 333.8 126.301 333.8L115.401 332.5Z" fill="white" stroke="#263238" stroke-width="1.232" stroke-miterlimit="10" stroke-linecap="round" stroke-linejoin="round"/>
<path d="M124.901 344.1L97.6008 337.1C96.8008 337.5 96.3008 337.8 96.3008 338.1C96.3008 340.1 120.701 345.6 123.301 345.9C123.901 346.1 124.501 345.3 124.901 344.1Z" fill="#C6FF00" stroke="#263238" stroke-width="1.232" stroke-miterlimit="10" stroke-linecap="round" stroke-linejoin="round"/>
<path d="M165.1 334.7C165.1 334.7 145.7 343.1 147 345C148.3 347 173.7 346 176.3 345.7C178.9 345.4 176.3 333.8 176.3 333.8L165.1 334.7Z" fill="white" stroke="#263238" stroke-width="1.232" stroke-miterlimit="10" stroke-linecap="round" stroke-linejoin="round"/>
<path d="M147.7 343.8C147.1 344.3 146.9 344.7 147.1 345C148.4 347 173.8 346 176.4 345.7C177 345.6 177.3 344.9 177.5 343.8H147.7Z" fill="#C6FF00" stroke="#263238" stroke-width="1.232" stroke-miterlimit="10" stroke-linecap="round" stroke-linejoin="round"/>
<path d="M85.7098 206.643H159.01V203.643H85.7098V206.643Z" fill="white" stroke="#263238" stroke-width="1.232" stroke-miterlimit="10" stroke-linecap="round" stroke-linejoin="round"/>
<path d="M65.0574 206.643H138.357V203.643H65.0574V206.643Z" fill="white" stroke="#263238" stroke-width="1.232" stroke-miterlimit="10" stroke-linecap="round" stroke-linejoin="round"/>
<path d="M73.1996 198.4H134.3L127.7 151.7H66.5996L73.1996 198.4Z" fill="white" stroke="#263238" stroke-width="1.232" stroke-miterlimit="10" stroke-linecap="round" stroke-linejoin="round"/>
<path d="M70.6996 198.4H131.8L125.2 151.7H64.0996L70.6996 198.4Z" fill="#181818" stroke="#263238" stroke-width="1.232" stroke-miterlimit="10" stroke-linecap="round" stroke-linejoin="round"/>
<path d="M89.3988 176.7L83.2988 206.6H98.9988L105.099 176.7H89.3988ZM100.099 185.6C99.9988 185.9 99.7988 186 99.5988 186L90.6988 185.9C90.2988 185.9 90.0988 185.6 90.1988 185.2L90.9988 181.8C91.0988 181.5 91.2988 181.4 91.4988 181.4L100.399 181.5C100.799 181.5 100.999 181.8 100.899 182.2L100.099 185.6Z" fill="white" stroke="#263238" stroke-width="1.232" stroke-miterlimit="10" stroke-linecap="round" stroke-linejoin="round"/>
<path d="M76.4192 150.905C77.8533 144.831 74.0923 138.745 68.0188 137.311C61.9452 135.877 55.859 139.638 54.4249 145.711C52.9907 151.785 56.7517 157.871 62.8253 159.305C68.8989 160.739 74.9851 156.978 76.4192 150.905Z" fill="#0FAA61" stroke="#263238" stroke-width="1.232" stroke-miterlimit="10" stroke-linecap="round" stroke-linejoin="round"/>
<path d="M65.2999 150.6L61.9999 154.4C61.7999 154.6 61.6999 154.8 61.4999 154.9C60.9999 155.3 60.3999 155.3 59.8999 155.2C59.3999 155 59.0999 154.8 58.9999 154.3C58.7999 153.7 58.8999 153 59.4999 152.4L63.3999 148.3L59.6999 144C59.3999 143.6 59.1999 143.2 59.1999 142.8C59.1999 142.4 59.2999 142.1 59.4999 141.8C59.6999 141.6 59.9999 141.4 60.3999 141.2C60.6999 141.1 61.0999 141.1 61.4999 141.2C61.8999 141.3 62.2999 141.6 62.5999 142L65.7999 145.7L68.7999 142.2C68.9999 142 69.1999 141.8 69.3999 141.6C69.9999 141.2 70.4999 141 71.0999 141.3C71.4999 141.5 71.7999 141.8 71.9999 142.2C72.1999 142.7 72.0999 143.2 71.7999 143.6L67.7999 148L71.7999 152.7C71.8999 152.9 71.9999 153 72.0999 153.2C72.2999 153.7 72.1999 154.2 71.8999 154.7C71.5999 155.1 71.0999 155.3 70.5999 155.3C69.8999 155.3 69.2999 155 68.7999 154.3L65.2999 150.6Z" fill="#181818"/>
<path d="M209.6 223.6L206.4 343.3C206.4 344.9 205.1 346.1 203.5 346.1C201.9 346.1 200.6 344.8 200.6 343.2L199 223.6H209.6Z" fill="white" stroke="black" stroke-width="1.232" stroke-miterlimit="10" stroke-linecap="round" stroke-linejoin="round"/>
<path d="M171 223.6L167.8 343.3C167.8 344.9 166.5 346.1 164.9 346.1C163.3 346.1 162 344.8 162 343.2L160.4 223.5H171V223.6Z" fill="white" stroke="black" stroke-width="1.232" stroke-miterlimit="10" stroke-linecap="round" stroke-linejoin="round"/>
<path d="M75.2992 223.6L72.0992 343.3C72.0992 344.9 70.7992 346.1 69.1992 346.1C67.5992 346.1 66.2992 344.8 66.2992 343.2L64.6992 223.5H75.2992V223.6Z" fill="white" stroke="black" stroke-width="1.232" stroke-miterlimit="10" stroke-linecap="round" stroke-linejoin="round"/>
<path d="M36.6996 223.6L33.4996 343.3C33.4996 344.9 32.1996 346.1 30.5996 346.1C28.9996 346.1 27.6996 344.8 27.6996 343.2L26.0996 223.5H36.6996V223.6Z" fill="white" stroke="black" stroke-width="1.232" stroke-miterlimit="10" stroke-linecap="round" stroke-linejoin="round"/>
<path d="M22.5375 224.917L213.438 224.917V210.617L22.5375 210.617V224.917Z" fill="white" stroke="black" stroke-width="1.232" stroke-miterlimit="10" stroke-linecap="round" stroke-linejoin="round"/>
<path d="M160.079 224.917H213.379V210.617H160.079V224.917Z" fill="white" stroke="black" stroke-width="1.232" stroke-miterlimit="10" stroke-linecap="round" stroke-linejoin="round"/>
<path d="M22.5375 217.754L213.438 217.754V210.554L22.5375 210.554V217.754Z" fill="#181818" stroke="black" stroke-width="1.232" stroke-miterlimit="10" stroke-linecap="round" stroke-linejoin="round"/>
<path d="M19.5359 213.519L216.336 213.519V205.619L19.5359 205.619V213.519Z" fill="#0FAA61" stroke="black" stroke-width="1.232" stroke-miterlimit="10" stroke-linecap="round" stroke-linejoin="round"/>
<path d="M19.5273 213.519L156.527 213.519V205.619L19.5273 205.619V213.519Z" fill="#0FAA61" stroke="black" stroke-width="1.232" stroke-miterlimit="10" stroke-linecap="round" stroke-linejoin="round"/>
<path d="M449.4 346.2H457.6" stroke="#263238" stroke-width="1.232" stroke-miterlimit="10" stroke-linecap="round" stroke-linejoin="round"/>
<path d="M1.59961 346.2H436" stroke="#263238" stroke-width="1.232" stroke-miterlimit="10" stroke-linecap="round" stroke-linejoin="round"/>
<path d="M356.315 133.2H362.387V164H357.767L344.567 145.168V164H338.495V133.2H343.115L356.315 151.988V133.2ZM386.58 161.272C384.322 163.501 381.564 164.616 378.308 164.616C375.052 164.616 372.295 163.501 370.036 161.272C367.807 159.013 366.692 156.256 366.692 153C366.692 149.744 367.807 147.001 370.036 144.772C372.295 142.513 375.052 141.384 378.308 141.384C381.564 141.384 384.322 142.513 386.58 144.772C388.839 147.001 389.968 149.744 389.968 153C389.968 156.256 388.839 159.013 386.58 161.272ZM374.04 157.356C375.184 158.5 376.607 159.072 378.308 159.072C380.01 159.072 381.432 158.5 382.576 157.356C383.72 156.212 384.292 154.76 384.292 153C384.292 151.24 383.72 149.788 382.576 148.644C381.432 147.5 380.01 146.928 378.308 146.928C376.607 146.928 375.184 147.5 374.04 148.644C372.926 149.788 372.368 151.24 372.368 153C372.368 154.76 372.926 156.212 374.04 157.356ZM327.416 175.2C331.64 175.2 335.16 176.681 337.976 179.644C340.822 182.607 342.244 186.259 342.244 190.6C342.244 194.941 340.822 198.593 337.976 201.556C335.16 204.519 331.64 206 327.416 206H315.184V175.2H327.416ZM327.416 200.192C330.086 200.192 332.256 199.312 333.928 197.552C335.6 195.763 336.436 193.445 336.436 190.6C336.436 187.755 335.6 185.452 333.928 183.692C332.256 181.903 330.086 181.008 327.416 181.008H321.256V200.192H327.416ZM363.007 184H368.683V206H363.007V203.404C361.306 205.545 358.915 206.616 355.835 206.616C352.902 206.616 350.379 205.501 348.267 203.272C346.185 201.013 345.143 198.256 345.143 195C345.143 191.744 346.185 189.001 348.267 186.772C350.379 184.513 352.902 183.384 355.835 183.384C358.915 183.384 361.306 184.455 363.007 186.596V184ZM352.535 199.488C353.679 200.632 355.131 201.204 356.891 201.204C358.651 201.204 360.103 200.632 361.247 199.488C362.421 198.315 363.007 196.819 363.007 195C363.007 193.181 362.421 191.7 361.247 190.556C360.103 189.383 358.651 188.796 356.891 188.796C355.131 188.796 353.679 189.383 352.535 190.556C351.391 191.7 350.819 193.181 350.819 195C350.819 196.819 351.391 198.315 352.535 199.488ZM386.414 189.456H381.442V198.608C381.442 199.371 381.633 199.928 382.014 200.28C382.396 200.632 382.953 200.837 383.686 200.896C384.42 200.925 385.329 200.911 386.414 200.852V206C382.513 206.44 379.756 206.073 378.142 204.9C376.558 203.727 375.766 201.629 375.766 198.608V189.456H371.938V184H375.766V179.556L381.442 177.84V184H386.414V189.456ZM406.449 184H412.125V206H406.449V203.404C404.747 205.545 402.357 206.616 399.277 206.616C396.343 206.616 393.821 205.501 391.709 203.272C389.626 201.013 388.585 198.256 388.585 195C388.585 191.744 389.626 189.001 391.709 186.772C393.821 184.513 396.343 183.384 399.277 183.384C402.357 183.384 404.747 184.455 406.449 186.596V184ZM395.977 199.488C397.121 200.632 398.573 201.204 400.333 201.204C402.093 201.204 403.545 200.632 404.689 199.488C405.862 198.315 406.449 196.819 406.449 195C406.449 193.181 405.862 191.7 404.689 190.556C403.545 189.383 402.093 188.796 400.333 188.796C398.573 188.796 397.121 189.383 395.977 190.556C394.833 191.7 394.261 193.181 394.261 195C394.261 196.819 394.833 198.315 395.977 199.488Z" fill="#181818"/>
</svg>
