<svg xmlns="http://www.w3.org/2000/svg" width="72" height="76" fill="none"><path fill="#3D3D3D" d="M51.422 0c1.202.287 2.435.488 3.607.878 9.301 3.112 14.82 9.535 16.527 19.247.054.311.109.628.121.946.049 1.433-.832 2.385-2.259 2.403-1.609.018-3.224.006-4.9.006-.127 1.495-.685 2.74-1.888 3.612-.844.61-1.79.86-2.83.805-2.227-.11-3.642-1.55-4.225-4.417h-2.52c-.88 0-1.76.019-2.641-.012-1.069-.037-2.01-.817-2.046-1.842-.067-1.812-.018-3.63-.018-5.49 1.347-.129 2.513-.604 3.375-1.678.638-.793.954-1.714.978-2.72.06-2.295-1.318-3.728-4.347-4.546 0-1.805-.055-3.617.024-5.429.03-.927.795-1.397 1.572-1.763h1.47Z"/><path fill="#2ECC82" d="M24.33 33.35v5.204c0 2.05.553 2.672 2.562 2.904 1.142.135 2.125 1.16 2.216 2.306.11 1.342-.63 2.483-1.851 2.825a3.934 3.934 0 0 1-.65.122c-1.621.183-2.277.909-2.277 2.556-.006 4.398 0 8.796 0 13.195v.909h-8.925c-.255-1.525-.401-3.05-.771-4.508-.869-3.398-2.72-6.21-5.313-8.553-4.038-3.66-6.673-8.162-7.881-13.494-.255-1.116-.389-2.251-.601-3.477h3.054c1.59 0 3.181.006 4.772 0 1.415-.006 2.295-.842 2.38-2.24.091-1.482 1.166-2.567 2.575-2.598 1.341-.03 2.501 1.031 2.671 2.44.225 1.837.868 2.404 2.726 2.404 1.743.012 3.473.006 5.313.006Z"/><path fill="#2ECC82" d="M28.69 31.142h5.773c.674 3.172 2.235 4.758 4.712 4.856 2.562.098 4.092-1.342 5.07-4.807h7.924c.066 2.092-.2 4.1-.693 6.082-1.257 5.13-3.837 9.48-7.735 13.018-3.127 2.837-5.1 6.296-5.768 10.48-.134.849-.182 1.709-.273 2.612h-8.975c-.012-.19-.042-.397-.042-.61 0-3.789.006-7.571-.012-11.36 0-.45.115-.664.552-.866 2.77-1.28 4.293-3.477 4.263-6.551-.03-3.008-1.555-5.13-4.263-6.418-.218-.104-.516-.372-.516-.567-.03-1.916-.018-3.831-.018-5.869Zm-2.162-7.924v5.74h-1.779c-1.269 0-2.544-.012-3.813.007-.407.006-.631-.098-.82-.519-1.263-2.745-3.394-4.283-6.436-4.283s-5.16 1.52-6.472 4.253c-.103.22-.365.512-.559.518-1.876.037-3.758.024-5.634.024C1.5 17.02 12.35 5.271 26.492 5.368v7.95c3.163.64 4.76 2.238 4.827 4.733.072 2.709-1.33 4.246-4.791 5.167Zm11.196 44.679c-.09 1.288-.054 2.55-.303 3.758-.456 2.233-2.569 3.856-4.852 3.862-4.013.012-8.026.012-12.04 0-2.793-.006-4.985-2.056-5.185-4.874-.06-.897-.012-1.806-.012-2.746h22.392Z"/></svg>