<svg xmlns="http://www.w3.org/2000/svg" width="319" height="279" fill="none"><path fill="#A4A4A4" d="m214.621 89.772-.66.285-.63.277-.6.255-.577.233-.277.112-.27.097-.263.098-.255.082-.405.128h-.33a6.6 6.6 0 0 1-.749.157 4.073 4.073 0 0 1-.645.053 2.555 2.555 0 0 1-.547-.053 1.684 1.684 0 0 1-.45-.165l-.278-.18c-.082-.06-.15-.105-.21-.157a1.522 1.522 0 0 1-.157-.15l-.15-.165-.075-.09-.075-.097-.068-.098a.812.812 0 0 1-.074-.097 4.234 4.234 0 0 1-.578-1.222 5.786 5.786 0 0 1-.232-1.357c-.035-.5-.035-1 0-1.5 0-.502.067-1.011.112-1.536.04-.35.07-.703.09-1.057 0-.353.045-.713.053-1.065.007-.352 0-.75 0-1.064a7.378 7.378 0 0 0-.143-1.057 18 18 0 0 0-.885-3 19.94 19.94 0 0 0-1.379-2.848 19.49 19.49 0 0 0-1.815-2.564 17.482 17.482 0 0 0-2.174-2.174 12.805 12.805 0 0 0-2.879-1.806 11.242 11.242 0 0 0-3.164-.893 13.504 13.504 0 0 0-3.472 0c-1.28.188-2.537.512-3.749.968a20.31 20.31 0 0 0-1.454.592c-.457.21-.892.427-1.297.66-.395.23-.778.48-1.147.75-.344.247-.672.514-.983.801l-12.828 11.957c.307-.282.63-.547.967-.794.359-.27.731-.52 1.117-.75.397-.232.817-.45 1.267-.66.45-.21.922-.412 1.417-.6a17.913 17.913 0 0 1 3.682-.996 12.742 12.742 0 0 1 3.366-.09c1.052.113 2.08.384 3.052.802.995.428 1.924.996 2.759 1.687a15.625 15.625 0 0 1 2.069 2.054 16.82 16.82 0 0 1 1.71 2.436c.512.867.946 1.778 1.297 2.721.353.94.621 1.908.802 2.894.06.335.1.673.12 1.012v1.02c0 .337 0 .69-.067 1.034-.068.345-.068.683-.105 1.02a48.34 48.34 0 0 0-.143 1.5c-.029.469-.029.94 0 1.409.017.44.084.879.203 1.304.116.414.298.806.54 1.162l.067.097.075.09.068.098.067.082c.044.056.091.109.142.158l.15.135c.065.053.133.103.203.15l.262.172c.139.067.285.117.435.15.176.031.354.046.533.045a5.11 5.11 0 0 0 .629-.06c.225-.045.473-.097.75-.172h.315l.397-.128.255-.09.255-.09.263-.105.27-.105.562-.24.592-.255.615-.277.645-.285 22.268-9.955 14.591-10.616-22.793 9.926Z"/><path fill="#D7D7D7" d="M125.629 51.456a30.341 30.341 0 0 0-1.5-3.223 205.207 205.207 0 0 0-2.152-3.898l-18.534-32.903-9.065 15.803 17.372 31.253a145.92 145.92 0 0 1 2.017 3.696c.526.995.994 2.019 1.402 3.066a7.78 7.78 0 0 1 .548 2.444 2.876 2.876 0 0 1-.563 1.852l10.497-13.614a2.872 2.872 0 0 0 .563-1.92 8.267 8.267 0 0 0-.585-2.556Z"/><path fill="url(#a)" d="M123.206 54.328a1.702 1.702 0 0 1-.172.135l-.195.127a1.535 1.535 0 0 1-.225.105c-.468.132-.955.18-1.44.143a8.006 8.006 0 0 1-1.597-.293 17.414 17.414 0 0 1-1.694-.577 26.386 26.386 0 0 1-1.74-.75l-1.297-.547c-.435-.18-.877-.352-1.304-.51a17.315 17.315 0 0 0-1.29-.412 9.653 9.653 0 0 0-1.237-.27c-.6-.09-1.185-.15-1.77-.187-.585-.038-1.162 0-1.724 0-.558.024-1.113.079-1.665.165-.531.08-1.057.192-1.574.337-.511.137-1.012.307-1.5.51-.453.19-.891.413-1.312.667a9.075 9.075 0 0 0-2.144 1.807l-.135.165c-.045.06-.09.112-.128.172-.037.06-.09.113-.127.172-.038.06-.083.12-.12.18L89.474 69.63l.12-.173.12-.172.127-.165.135-.165a8.97 8.97 0 0 1 .96-.96c.35-.296.72-.567 1.11-.81.401-.25.82-.473 1.251-.666.46-.2.93-.373 1.41-.518.493-.145.994-.263 1.5-.352a15.47 15.47 0 0 1 1.597-.195c.54 0 1.087-.045 1.65 0 .562.045 1.116.067 1.686.142.399.055.795.132 1.185.233.397.105.81.232 1.222.375a32.1 32.1 0 0 1 1.245.457l1.237.502c.547.225 1.102.45 1.657.652a16.73 16.73 0 0 0 1.612.525c.49.132.993.215 1.499.248.497.036.997-.025 1.47-.18a1.18 1.18 0 0 0 .217-.113l.188-.12.165-.135.135-.15 10.369-13.726a1.21 1.21 0 0 1-.135.165Z"/><path fill="#CACACA" d="M141.231 78.542c-.982-1.74-1.867-3.306-2.707-4.663a23.849 23.849 0 0 0-2.451-3.396 7.226 7.226 0 0 0-2.55-1.934 5.009 5.009 0 0 0-2.999-.262h-.142l-.143.037h-.127l-.135.045a3.854 3.854 0 0 0-.6.248 3.85 3.85 0 0 0-.54.33c-.17.12-.33.252-.48.397a4.141 4.141 0 0 0-.427.457l-10.789 13c.132-.158.272-.308.419-.45.145-.142.3-.273.465-.39.164-.122.337-.23.518-.323.189-.097.384-.182.585-.255h.127l.127-.037h.27a4.838 4.838 0 0 1 2.872.195 6.74 6.74 0 0 1 2.422 1.806 22.051 22.051 0 0 1 2.309 3.209c.787 1.29 1.612 2.774 2.527 4.423l18.287 32.903 12.746-10.548-19.584-34.792Z"/><path fill="#BDBDBD" d="m193.994 98.543-.173.12-.187.12-.203.112-.352.195-.263.143-.27.142-.277.135-.292.143-.608.277-.652.292-.69.308-.75.322-28.491 12.437-12.746 10.548 27.621-12.347.713-.315.675-.307.629-.285.593-.285.285-.135.27-.142.262-.135.255-.143.352-.187.188-.12.187-.113.173-.12.165-.127 13.728-10.683-.142.15Z"/><path fill="#303030" d="m126.514 79.322-10.842 12.617c.223-.266.423-.55.6-.847.181-.307.346-.622.495-.945.15-.335.292-.68.427-1.035.135-.344.262-.704.39-1.056l.36-.968c.127-.314.247-.63.382-.93a8.15 8.15 0 0 1 .435-.846c.148-.263.316-.513.502-.75l10.902-12.872a4.944 4.944 0 0 0-.517.75 9.53 9.53 0 0 0-.435.877c-.135.315-.27.637-.39.967-.12.33-.247.667-.367 1.005-.12.337-.255.75-.39 1.094-.135.345-.278.75-.435 1.072a10.35 10.35 0 0 1-.51.997c-.18.307-.385.598-.615.87"/><path fill="#CDCDCD" d="m124.346 77.313-10.722 12.744a8.823 8.823 0 0 1-1.867 1.634 10.026 10.026 0 0 1-2.249 1.14 9.557 9.557 0 0 1-2.392.532c-.406.037-.814.052-1.222.045a11.468 11.468 0 0 1-1.237-.113 9.395 9.395 0 0 1-2.872-.96 13.327 13.327 0 0 1-2.766-1.978 20.493 20.493 0 0 1-2.64-2.999 34.082 34.082 0 0 1-2.496-3.958 31.95 31.95 0 0 1-1.86-3.824 17.04 17.04 0 0 1-.922-3.38 8.914 8.914 0 0 1 0-2.82c.125-.803.422-1.57.87-2.248l9.469-14.042a5.652 5.652 0 0 0-.884 2.324 9.334 9.334 0 0 0 .052 2.947 18.357 18.357 0 0 0 1.012 3.553 34.927 34.927 0 0 0 1.965 4.16 36.897 36.897 0 0 0 2.661 4.191 22.866 22.866 0 0 0 2.812 3.171c.879.83 1.862 1.544 2.924 2.122a9.986 9.986 0 0 0 2.999 1.064c.427.071.858.117 1.29.136.427.026.855.026 1.282 0 .424-.03.845-.09 1.26-.18a10.03 10.03 0 0 0 1.237-.33 10.681 10.681 0 0 0 2.339-1.155c.36-.239.703-.502 1.027-.787.304-.28.587-.58.848-.9"/><path fill="#CECECE" d="M151.587 1.559a38.993 38.993 0 0 1 15.82.24 56.681 56.681 0 0 1 15.79 5.997 69.346 69.346 0 0 1 14.321 10.608 69.826 69.826 0 0 1 11.517 14.378l28.266 47.065-22.68 9.91-.66.285-.63.277-.6.255-.577.233-.278.112-.27.098-.262.097-.255.082-.405.128h-.33c-.246.067-.497.12-.749.157a4.07 4.07 0 0 1-.645.053 2.552 2.552 0 0 1-.548-.053 1.674 1.674 0 0 1-.449-.165l-.278-.18c-.082-.06-.15-.105-.21-.157a1.513 1.513 0 0 1-.157-.15l-.15-.165-.075-.09-.075-.097-.068-.098a.94.94 0 0 1-.075-.097 4.257 4.257 0 0 1-.577-1.222 5.784 5.784 0 0 1-.232-1.357c-.036-.5-.036-1 0-1.5 0-.502.067-1.011.112-1.536.04-.35.07-.702.09-1.057 0-.353.045-.712.053-1.065.007-.352 0-.75 0-1.064a7.378 7.378 0 0 0-.143-1.057 18.1 18.1 0 0 0-.885-2.999 19.94 19.94 0 0 0-1.379-2.849 19.498 19.498 0 0 0-1.815-2.564 17.474 17.474 0 0 0-2.174-2.174 12.824 12.824 0 0 0-2.879-1.806 11.261 11.261 0 0 0-3.164-.892 13.504 13.504 0 0 0-3.472 0c-1.28.187-2.537.512-3.749.967a16.508 16.508 0 0 0-3.434 1.671 9.658 9.658 0 0 0-2.384 2.152 7.19 7.19 0 0 0-1.297 2.616 8.308 8.308 0 0 0-.18 3.074c.114.98.34 1.943.675 2.871a17.391 17.391 0 0 0 1.342 2.909 21.304 21.304 0 0 0 1.942 2.804 23.169 23.169 0 0 0 2.459 2.556c.308.268.631.518.967.75.338.24.69.472 1.05.69.36.217.75.427 1.095.63l1.109.599c.548.292 1.087.577 1.597.87.51.292.99.592 1.432.907.423.294.817.628 1.178.997.33.343.605.735.817 1.162.052.105.097.217.135.315a3.13 3.13 0 0 1 .172.577c.008.087.008.175 0 .262-.014.171-.05.34-.105.502-.054.15-.125.293-.21.428-.092.137-.2.263-.322.374a3.638 3.638 0 0 1-.435.368l-.18.142-.202.143-.21.135-.225.127-.353.195-.262.142-.27.143-.277.135-.293.142-.607.278-.652.292-.69.307-.75.323-28.492 12.437-19.561-34.747c-.983-1.74-1.867-3.306-2.707-4.663a23.771 23.771 0 0 0-2.452-3.396 7.214 7.214 0 0 0-2.549-1.934 5.008 5.008 0 0 0-2.999-.263h-.143l-.142.038h-.128l-.135.045a4.215 4.215 0 0 0-1.499.862 6.175 6.175 0 0 0-1.095 1.342 11.36 11.36 0 0 0-.802 1.626c-.24.563-.45 1.147-.652 1.717-.12.33-.24.667-.36.982-.12.315-.248.637-.375.93a7.8 7.8 0 0 1-.42.825 4.084 4.084 0 0 1-.48.667 8.588 8.588 0 0 1-.9.914 9.514 9.514 0 0 1-1.027.787 10.681 10.681 0 0 1-2.339 1.154 10.03 10.03 0 0 1-1.237.33 8.631 8.631 0 0 1-1.26.18c-.427.027-.855.027-1.282 0a10.765 10.765 0 0 1-1.29-.134 9.986 9.986 0 0 1-2.999-1.065 14.009 14.009 0 0 1-2.924-2.121 22.866 22.866 0 0 1-2.812-3.171 36.897 36.897 0 0 1-2.661-4.191 34.038 34.038 0 0 1-2.047-4.37 17.378 17.378 0 0 1-.982-3.704 8.537 8.537 0 0 1 .082-2.999 5.403 5.403 0 0 1 1.132-2.324 6.94 6.94 0 0 1 .75-.75c.291-.242.599-.462.922-.66a9.203 9.203 0 0 1 1.05-.539 8.675 8.675 0 0 1 1.177-.412 11.597 11.597 0 0 1 2.699-.435 13.33 13.33 0 0 1 1.447 0 14.24 14.24 0 0 1 1.5.15c.327.05.65.123.967.217.338.098.69.21 1.057.345.368.135.75.285 1.133.442l1.184.495c.675.285 1.365.578 2.062.847a20.97 20.97 0 0 0 2.099.705 9.985 9.985 0 0 0 2.032.352 5.41 5.41 0 0 0 1.882-.194l.128-.038.127-.045.128-.052.127-.053a3.187 3.187 0 0 0 1.852-1.77 4.446 4.446 0 0 0-.06-2.683 19.914 19.914 0 0 0-1.499-3.628c-.698-1.365-1.56-2.901-2.512-4.596l-18.565-32.715 48.144-9.873Z"/><path fill="url(#b)" d="M141.906 78.152c-1.027-1.814-1.881-3.336-2.721-4.693a24.253 24.253 0 0 0-2.535-3.508 7.952 7.952 0 0 0-2.826-2.137 5.612 5.612 0 0 0-2.167-.427 6.94 6.94 0 0 0-1.282.127l-.323.068-.307.09a5.064 5.064 0 0 0-1.784 1.027 6.725 6.725 0 0 0-1.245 1.5 12.731 12.731 0 0 0-.862 1.73c-.233.57-.443 1.148-.645 1.718l-.038.112c-.112.3-.225.607-.337.9-.112.292-.232.607-.36.884-.106.259-.232.51-.375.75a3.403 3.403 0 0 1-.39.555 8.756 8.756 0 0 1-.832.84 8.735 8.735 0 0 1-.945.749c-.335.22-.683.42-1.042.6-.365.178-.74.333-1.125.464a8.381 8.381 0 0 1-1.132.308 8.583 8.583 0 0 1-1.169.165h-1.207a9.49 9.49 0 0 1-3.989-1.072 13.417 13.417 0 0 1-2.76-2.01 22.178 22.178 0 0 1-2.714-3.058 36.646 36.646 0 0 1-2.601-4.108 32.204 32.204 0 0 1-2.002-4.273 15.991 15.991 0 0 1-.945-3.531 7.88 7.88 0 0 1 .067-2.744c.163-.735.497-1.42.975-2.002a5.89 5.89 0 0 1 .682-.682 7.38 7.38 0 0 1 .818-.592 8.08 8.08 0 0 1 .952-.487 9.28 9.28 0 0 1 1.087-.383c.402-.114.81-.204 1.222-.27.432-.068.868-.113 1.305-.135h1.387c.472.025.943.075 1.41.15.293.045.584.107.869.188.315.09.653.202 1.005.33.352.127.75.277 1.102.434l1.102.458.165.075c.653.27 1.32.554 1.995.817a21.47 21.47 0 0 0 2.174.75 10.69 10.69 0 0 0 2.189.382h.435a6 6 0 0 0 1.71-.24l.307-.105.3-.12a3.968 3.968 0 0 0 2.249-2.204 5.147 5.147 0 0 0-.037-3.156 20.513 20.513 0 0 0-1.567-3.748c-.697-1.38-1.582-2.954-2.519-4.61L104.635 12.03l47.101-9.663a34.658 34.658 0 0 1 6.913-.682c2.888.01 5.768.32 8.593.922a55.95 55.95 0 0 1 15.572 5.93 68.707 68.707 0 0 1 14.164 10.495 69.243 69.243 0 0 1 11.389 14.244l27.809 46.307-23.16 10.12-.593.248-.832.337-.51.188-.637.21h-.098l-.195.052a7.4 7.4 0 0 1-.682.142 3.297 3.297 0 0 1-.517.046 1.96 1.96 0 0 1-.39-.038.91.91 0 0 1-.263-.097l-.195-.128a1.487 1.487 0 0 1-.157-.12.518.518 0 0 1-.097-.09l-.113-.12-.255-.337a3.27 3.27 0 0 1-.465-.99 5.413 5.413 0 0 1-.202-1.192c-.03-.459-.03-.92 0-1.379 0-.487.067-.997.112-1.5.038-.352.068-.712.09-1.071.023-.36.053-.75.053-1.102v-1.14a10.538 10.538 0 0 0-.15-1.147 18.86 18.86 0 0 0-.93-3.148 19.266 19.266 0 0 0-1.439-2.962 19.579 19.579 0 0 0-1.882-2.676 18.512 18.512 0 0 0-2.25-2.249 13.508 13.508 0 0 0-3.051-1.92 12.009 12.009 0 0 0-3.389-.951 12.758 12.758 0 0 0-1.702-.113c-.66.002-1.319.047-1.972.135a19.26 19.26 0 0 0-3.952 1.005 17.421 17.421 0 0 0-3.591 1.754 10.596 10.596 0 0 0-2.572 2.317 8.047 8.047 0 0 0-1.432 2.893 9.26 9.26 0 0 0-.202 3.366 14.27 14.27 0 0 0 .712 3.044c.376 1.053.848 2.07 1.41 3.036a21.238 21.238 0 0 0 2.016 2.901 22.33 22.33 0 0 0 2.535 2.647c.315.277.645.54 1.027.817.382.277.75.495 1.102.75.352.254.75.442 1.125.652l1.124.6a54.53 54.53 0 0 1 1.567.862c.495.284.998.592 1.38.862.382.266.739.567 1.065.9.272.283.5.606.675.959l.112.27c0 .075.06.157.083.232a.936.936 0 0 1 .044.203v.104a1.19 1.19 0 0 1-.067.263.928.928 0 0 1-.127.255 1.54 1.54 0 0 1-.21.255c-.11.104-.228.199-.353.284l-.187.15-.165.12-.188.12-.195.113-.599.33-.533.27-.877.404-2.054.915-27.84 12.16-19.232-34.253Z"/><path fill="#987BB0" d="M189.45 51.592a3.606 3.606 0 0 0-.42-1.042 4.484 4.484 0 0 0-1.739-1.642l-5.249-2.722a4.1 4.1 0 0 0-.539-.224 3.318 3.318 0 0 0-.51-.113 2.25 2.25 0 0 0-.495 0 1.652 1.652 0 0 0-.442.083l-.15.052-.135.06-.128.075-.127.09-1.77-.915c.064-.725.064-1.455 0-2.181-.069-.771-.2-1.536-.39-2.287a16.31 16.31 0 0 0-.749-2.354 19.64 19.64 0 0 0-1.193-2.384 22.133 22.133 0 0 0-3.906-4.887 22.508 22.508 0 0 0-4.926-3.539 18.573 18.573 0 0 0-5.376-1.882 12.536 12.536 0 0 0-5.248.143 8.675 8.675 0 0 0-4.087 2.249 8.696 8.696 0 0 0-2.249 3.958 11.994 11.994 0 0 0-.135 5.105 17.454 17.454 0 0 0 2.129 5.675 21.895 21.895 0 0 0 4.094 5.136 22.063 22.063 0 0 0 5.189 3.628 17.839 17.839 0 0 0 5.563 1.77c1.757.264 3.55.13 5.248-.39a9.153 9.153 0 0 0 1.942-.878 7.919 7.919 0 0 0 1.567-1.23c.46-.45.865-.953 1.208-1.498a8.63 8.63 0 0 0 .824-1.792l1.785.914c.084.244.19.48.315.705.138.229.294.447.465.652.179.205.375.396.584.57.216.168.447.316.69.442l5.316 2.722c.176.091.359.17.547.232.172.052.348.09.525.112.162.02.326.02.488 0 .152-.014.303-.044.45-.09a1.612 1.612 0 0 0 .697-.464c.095-.112.176-.236.24-.368.062-.146.108-.3.135-.457a2.47 2.47 0 0 0-.038-1.034Zm-14.56-6.478a7.186 7.186 0 0 1-1.59 3.239 6.912 6.912 0 0 1-3.157 2.01 9.595 9.595 0 0 1-4.206.291 14.36 14.36 0 0 1-4.454-1.431 18.133 18.133 0 0 1-4.146-2.91 17.784 17.784 0 0 1-3.276-4.1 14.135 14.135 0 0 1-1.71-4.543 9.657 9.657 0 0 1 .105-4.086 6.837 6.837 0 0 1 1.762-3.17 6.892 6.892 0 0 1 3.269-1.845 9.891 9.891 0 0 1 4.206-.135c1.512.27 2.972.776 4.327 1.5a17.825 17.825 0 0 1 3.973 2.848 17.756 17.756 0 0 1 3.157 3.944 14.31 14.31 0 0 1 1.71 4.37 9.996 9.996 0 0 1 .03 4.018Zm-3.045-6.274c.059.146.094.3.105.457a1.01 1.01 0 0 1-.045.405.88.88 0 0 1-.202.315.75.75 0 0 1-.33.187h-.052a1.262 1.262 0 0 1-.555 0 1.948 1.948 0 0 1-.578-.217 2.344 2.344 0 0 1-.502-.405 1.883 1.883 0 0 1-.352-.555 16.61 16.61 0 0 0-.293-.66 6.921 6.921 0 0 0-.375-.652 11.502 11.502 0 0 0-.442-.66 8.485 8.485 0 0 0-.532-.644 9.322 9.322 0 0 0-2.677-2.106 7.935 7.935 0 0 0-1.5-.616 6.613 6.613 0 0 0-1.499-.255h-.847l-.383.053-.367.082-.33.105-.308.128-.284.15-.263.172h-.262a1.076 1.076 0 0 1-.383 0 1.372 1.372 0 0 1-.405-.09 1.917 1.917 0 0 1-.412-.202 2.25 2.25 0 0 1-.78-.847 1.517 1.517 0 0 1-.165-.563 1.013 1.013 0 0 1 .06-.502.82.82 0 0 1 .308-.367 4.08 4.08 0 0 1 .382-.24l.42-.21a4.892 4.892 0 0 1 .907-.322c.113-.038.233-.06.36-.09l.375-.068.39-.045h.405a9.042 9.042 0 0 1 2.534.285c.888.23 1.745.563 2.557.99.854.452 1.661.99 2.407 1.604a14.244 14.244 0 0 1 2.069 2.264c.202.262.39.517.57.75.18.232.345.525.495.75.15.224.3.524.427.749.127.225.247.607.352.87Z" style="mix-blend-mode:multiply" opacity=".4"/><path fill="url(#c)" d="m126.192 128.38-.96.42-.915.397-.877.367c-.277.12-.555.24-.825.345l-.405.165-.39.15-.374.143-.368.127-.547.187-.338.113c-.112 0-.217.067-.329.09l-.323.082-.322.068c-.278.06-.54.112-.75.142a4.23 4.23 0 0 1-.675.045 2.874 2.874 0 0 1-.585-.052 2.05 2.05 0 0 1-.495-.15 4.988 4.988 0 0 1-.457-.293 3.609 3.609 0 0 1-.637-.607 4.172 4.172 0 0 1-.877-1.844 6.758 6.758 0 0 1-.113-1.709c.037-.624.113-1.245.225-1.859.112-.638.255-1.29.397-1.957.09-.442.195-.892.278-1.342.082-.45.172-.907.232-1.357.069-.447.111-.897.128-1.349a8.554 8.554 0 0 0 0-1.32 18.932 18.932 0 0 0-.75-3.748 19.545 19.545 0 0 0-3.621-6.597 17.848 17.848 0 0 0-2.692-2.579 13.97 13.97 0 0 0-3.712-2.077 15.018 15.018 0 0 0-4.266-.907 20.414 20.414 0 0 0-4.843.27 31.296 31.296 0 0 0-5.444 1.5 32.45 32.45 0 0 0-3.111 1.304c-.919.443-1.808.944-2.662 1.499a18.353 18.353 0 0 0-2.182 1.672c-.322.292-.63.592-.915.9-.279.3-.542.616-.787.944l-.96 1.267-.127.173-.3.397v.052l-.075.105-2.152 2.849-.09.12-.262.345-3.524 4.67-.188.255-.105.135-1.17 1.56a12.931 12.931 0 0 1 1.635-1.785 16.71 16.71 0 0 1 2.084-1.611 24.462 24.462 0 0 1 2.535-1.455 29.876 29.876 0 0 1 2.999-1.289 30.186 30.186 0 0 1 5.188-1.5 19.798 19.798 0 0 1 4.604-.337c1.38.07 2.744.337 4.049.795a13.267 13.267 0 0 1 3.516 1.919 16.35 16.35 0 0 1 2.527 2.414c.76.904 1.426 1.884 1.987 2.923a17.304 17.304 0 0 1 1.38 3.299c.354 1.16.585 2.353.689 3.561.03.417.03.835 0 1.252 0 .42-.075.847-.135 1.282-.06.435-.15.854-.24 1.289-.089.435-.187.855-.284 1.282-.143.63-.285 1.26-.398 1.867-.115.582-.192 1.17-.232 1.762a6.365 6.365 0 0 0 .082 1.619c.098.504.291.985.57 1.417.083.112.158.217.247.322a3.036 3.036 0 0 0 .6.562c.135.104.278.197.428.278.152.062.31.108.472.135.183.031.369.046.555.045.216-.004.431-.022.645-.053.232-.037.487-.082.749-.15l.308-.067.307-.075.315-.098.33-.105.517-.195.353-.127.36-.135.375-.15.382-.157.795-.338.832-.367.877-.39.93-.405 31.123-13.966 12.649-10.533-32.465 14.154Z"/><path fill="url(#d)" d="M101.238 138.246a5.193 5.193 0 0 0-.097-.555 6.288 6.288 0 0 0-.15-.57l-.068-.187-.067-.18-.068-.172-.067-.165a7.653 7.653 0 0 0-1.41-2.197 10.995 10.995 0 0 0-1.994-1.709 22.012 22.012 0 0 0-2.347-1.379 69.824 69.824 0 0 0-2.452-1.162c-.45-.21-.9-.413-1.327-.623-.427-.21-.847-.412-1.245-.622-.397-.21-.75-.42-1.124-.637a9.002 9.002 0 0 1-.96-.69 19.514 19.514 0 0 1-2.52-2.526 16.806 16.806 0 0 1-1.888-2.797 13.967 13.967 0 0 1-1.185-2.923c-.267-.95-.406-1.93-.413-2.916a7.651 7.651 0 0 1 .428-2.579c.15-.414.333-.815.547-1.2a8.2 8.2 0 0 1 .75-1.139l-9.147 11.815a8.87 8.87 0 0 0-.75 1.094 7.81 7.81 0 0 0-.525 1.147 6.733 6.733 0 0 0-.315 1.2 6.93 6.93 0 0 0-.112 1.251c-.005.93.116 1.855.36 2.752a13.12 13.12 0 0 0 1.094 2.759 15.695 15.695 0 0 0 1.762 2.616 17.209 17.209 0 0 0 2.37 2.361c.281.234.58.447.892.638.33.202.69.404 1.064.592.375.187.75.382 1.17.57l1.252.569c.75.338 1.545.69 2.31 1.072.764.373 1.503.797 2.211 1.267.69.457 1.322.996 1.882 1.605.55.605.995 1.3 1.312 2.054.024.051.044.103.06.157l.068.157c.016.059.037.117.06.173.016.061.036.121.06.18.05.18.095.36.135.54.04.18.07.352.09.517 0 .172 0 .337.037.502.038.165 0 .33 0 .487.004.073.004.145 0 .218v.21c0 .067 0 .135-.045.187a.49.49 0 0 1-.045.158c.004.052.004.105 0 .157l-.045.157a.933.933 0 0 1-.052.135.747.747 0 0 1-.06.135 1.68 1.68 0 0 1-.09.218 3.153 3.153 0 0 1-.143.262l-.225.345-.337.465-.067.09-.068.075-.037.037-.158.158-.052.052-.045.053-.053.052-.052.053 10.294-9.911a.38.38 0 0 1 .053-.053l.052-.06.053-.045.127-.127.06-.06.068-.075.067-.082.075-.09c.135-.195.255-.353.345-.495l.24-.36c.06-.105.105-.187.142-.27l.098-.232c.023-.044.043-.089.06-.135.021-.049.038-.099.052-.15l.045-.158c0-.06 0-.112.038-.172.037-.06 0-.105.045-.165.045-.06 0-.127 0-.195v-.45a4.054 4.054 0 0 0 0-.517c.015-.202 0-.382-.023-.562Z"/><path fill="url(#e)" d="m97.16 140.457-.218.18-.24.18-.262.18-.285.202-.3.195a3.206 3.206 0 0 1-.315.188l-.337.195-.533.277-.382.203-.405.202-.42.202-.427.203-.9.412-.96.427-1.027.45-1.087.48-42.737 18.682-7.46 9.296 40.442-18.067 1.028-.465.974-.435.915-.42.855-.397.412-.203.397-.195.383-.194.367-.195.51-.278.323-.18.3-.187c.097-.06.194-.12.284-.187l.27-.195c.087-.052.17-.109.248-.173l.232-.172c.068-.06.143-.113.203-.173l.195-.18 10.152-10.068-.195.21Z"/><path fill="url(#f)" d="M10.485 92.853a59.286 59.286 0 0 1-3.884-9.566 52.754 52.754 0 0 1-1.994-9.438 48.211 48.211 0 0 1-.203-9.1 45.039 45.039 0 0 1 1.5-8.577l-.277 1.012-.188.69-.232.832-.45 1.664c-.06.195-.12.42-.18.652l-.457 1.672-.038.12c0 .097-.052.203-.082.307l-.645 2.347-.068.27-.352 1.26-.09.337-.21.75-.06.217-.15.547-.472 1.717v.09l-.405 1.499A43.76 43.76 0 0 0 .13 80.311a46.172 46.172 0 0 0 .157 8.621c.32 2.999.91 5.962 1.762 8.854a56.233 56.233 0 0 0 3.599 8.996l33.215 65.829 7.423-9.296-35.802-70.462Z"/><path fill="#005E33" d="m101.149 11.904 18.572 33.045c1.005 1.792 1.807 3.239 2.407 4.423a19.32 19.32 0 0 1 1.252 2.827c.216.516.265 1.087.143 1.634a1.506 1.506 0 0 1-.908.862c-.467.132-.955.18-1.439.142a8.006 8.006 0 0 1-1.597-.292 17.431 17.431 0 0 1-1.695-.577 26.598 26.598 0 0 1-1.739-.75l-1.297-.547c-.435-.18-.878-.352-1.305-.51a17.022 17.022 0 0 0-1.29-.412 9.653 9.653 0 0 0-1.237-.27c-.6-.09-1.184-.15-1.769-.188-.585-.037-1.162 0-1.725 0-.557.024-1.113.08-1.664.165a13.04 13.04 0 0 0-1.575.338c-.51.137-1.011.307-1.499.51-.453.19-.892.413-1.312.667a9.085 9.085 0 0 0-2.145 1.806 7.256 7.256 0 0 0-1.5 2.887 10.128 10.128 0 0 0-.217 3.643 18.616 18.616 0 0 0 1.065 4.393 36.742 36.742 0 0 0 2.354 5.128c.93 1.704 1.98 3.34 3.142 4.895a26.505 26.505 0 0 0 3.396 3.749 17.472 17.472 0 0 0 3.622 2.503 13.496 13.496 0 0 0 3.816 1.282c.546.09 1.097.148 1.65.173.536.033 1.075.033 1.612 0a12.145 12.145 0 0 0 3.066-.645c.498-.174.983-.38 1.455-.615.462-.222.91-.472 1.342-.75.428-.287.836-.602 1.222-.944a12.24 12.24 0 0 0 1.08-1.08 6.28 6.28 0 0 0 .615-.87c.187-.322.358-.655.509-.996.158-.345.3-.705.435-1.072.135-.367.263-.75.39-1.095.18-.487.353-.982.54-1.447a11.4 11.4 0 0 1 .607-1.319 5.07 5.07 0 0 1 .75-1.042c.275-.28.611-.494.982-.622a2.844 2.844 0 0 1 1.65.082 4.077 4.077 0 0 1 1.559 1.215c.699.842 1.328 1.74 1.882 2.683.75 1.17 1.567 2.647 2.595 4.499l19.621 34.904-32.375 14.064-.96.42-.915.397-.877.367c-.277.12-.555.24-.825.345l-.404.165-.39.15-.375.143-.368.127-.547.187-.337.113c-.113 0-.218.067-.33.09l-.323.082-.322.068c-.278.06-.54.112-.75.142a4.23 4.23 0 0 1-.675.045 2.874 2.874 0 0 1-.585-.052 2.03 2.03 0 0 1-.494-.15 4.87 4.87 0 0 1-.458-.293 3.586 3.586 0 0 1-.637-.607 4.18 4.18 0 0 1-.877-1.844 6.758 6.758 0 0 1-.113-1.709c.038-.624.113-1.245.225-1.859.113-.638.255-1.29.398-1.957.09-.442.194-.892.277-1.342.082-.45.172-.907.232-1.357.069-.447.111-.897.128-1.349a8.554 8.554 0 0 0 0-1.32 18.932 18.932 0 0 0-.75-3.748 19.462 19.462 0 0 0-3.621-6.597 17.848 17.848 0 0 0-2.692-2.579 13.964 13.964 0 0 0-3.711-2.077 15.032 15.032 0 0 0-4.267-.907 20.79 20.79 0 0 0-4.843.27 31.386 31.386 0 0 0-5.444 1.499 30.005 30.005 0 0 0-5.076 2.354 17.253 17.253 0 0 0-3.689 2.902 11.183 11.183 0 0 0-2.249 3.418 10.149 10.149 0 0 0-.75 3.928c-.001 1.223.16 2.441.48 3.621.345 1.251.825 2.46 1.432 3.606a21.177 21.177 0 0 0 2.25 3.434 23.24 23.24 0 0 0 3.059 3.081c.391.324.802.625 1.23.899.442.285.899.548 1.371.795.473.248.96.495 1.447.75l1.463.674c.75.33 1.432.653 2.106.983.643.314 1.268.662 1.875 1.042a8.343 8.343 0 0 1 1.5 1.184 4.5 4.5 0 0 1 .967 1.417c.052.135.097.27.135.397.042.12.074.243.097.368.028.115.046.233.053.352.01.11.01.22 0 .33a3.02 3.02 0 0 1-.233.66c-.1.199-.22.387-.36.562a4.163 4.163 0 0 1-.51.51c-.21.184-.432.351-.667.502l-.285.202-.3.195-.315.195-.337.187-.532.278-.383.202-.405.203-.42.202-.427.202-.9.413-.96.427-1.027.45-1.087.48-42.737 18.681-35.825-70.468A54.72 54.72 0 0 1 4.3 69.246a44.465 44.465 0 0 1 4.581-20.938 43.4 43.4 0 0 1 13.324-15.683 51.115 51.115 0 0 1 20.004-8.637l58.94-12.084Z"/><path fill="url(#g)" d="M11.175 92.5a53.806 53.806 0 0 1-6.111-23.24 43.588 43.588 0 0 1 4.499-20.578 42.417 42.417 0 0 1 13.09-15.405 50.24 50.24 0 0 1 19.705-8.501l58.385-11.995 18.273 32.55c.809 1.447 1.732 3.097 2.399 4.394.466.871.867 1.776 1.199 2.706.158.363.208.764.143 1.154 0 .068-.075.225-.487.405a3.345 3.345 0 0 1-.75.083h-.255a6.922 6.922 0 0 1-1.44-.27 15.337 15.337 0 0 1-1.619-.547c-.548-.218-1.095-.45-1.642-.675l-1.387-.592-1.335-.518a17.25 17.25 0 0 0-1.342-.427 10.3 10.3 0 0 0-1.335-.292 22.475 22.475 0 0 0-1.837-.195h-1.807c-.585.023-1.168.08-1.747.172-.561.087-1.117.208-1.664.36-.532.144-1.053.324-1.56.54-.487.215-.958.465-1.409.75a9.91 9.91 0 0 0-1.252.892 9.757 9.757 0 0 0-1.08 1.072 8.072 8.072 0 0 0-1.65 3.193 10.972 10.972 0 0 0-.24 3.92 19.69 19.69 0 0 0 1.11 4.574 36.246 36.246 0 0 0 2.407 5.248 40.05 40.05 0 0 0 3.202 4.992 26.336 26.336 0 0 0 3.501 3.824 18.208 18.208 0 0 0 3.749 2.616 14.13 14.13 0 0 0 4.041 1.357 13.96 13.96 0 0 0 1.74.18h.622c.367 0 .75 0 1.087-.045.56-.043 1.116-.123 1.665-.24a12.5 12.5 0 0 0 1.627-.45 12.688 12.688 0 0 0 2.976-1.477 12.12 12.12 0 0 0 1.297-1.004 11.92 11.92 0 0 0 1.148-1.155c.262-.307.498-.635.704-.982.202-.35.385-.71.548-1.08.165-.36.315-.749.457-1.116.143-.368.255-.697.375-1.05.187-.532.36-1.012.547-1.5.154-.425.334-.84.54-1.244.173-.317.384-.612.63-.877a1.86 1.86 0 0 1 .682-.435c.164-.028.329-.043.495-.045.213-.001.424.037.623.113.493.23.925.574 1.259 1.004a19.38 19.38 0 0 1 1.807 2.58c.75 1.266 1.702 2.885 2.579 4.452l19.202 34.163-33.545 14.656-.87.367-.817.345-.397.157-.75.278-.907.322-.308.098-.3.09-.3.067-.284.06a8.69 8.69 0 0 1-.75.142 5.053 5.053 0 0 1-.563.038c-.153 0-.306-.012-.457-.038a1.893 1.893 0 0 1-.33-.097l-.3-.21-.285-.232c-.075-.083-.15-.158-.217-.248a3.295 3.295 0 0 1-.72-1.507 6.329 6.329 0 0 1-.097-1.499c.036-.591.106-1.179.21-1.762.112-.629.254-1.274.397-1.926.097-.458.195-.907.285-1.365.09-.457.172-.929.24-1.394.067-.465.112-.975.127-1.424.022-.475.01-.952-.037-1.425a20.094 20.094 0 0 0-.803-3.913 20.023 20.023 0 0 0-1.552-3.628 19.206 19.206 0 0 0-2.211-3.232 17.99 17.99 0 0 0-2.805-2.698 14.963 14.963 0 0 0-3.913-2.189 15.868 15.868 0 0 0-4.499-.952c-.427 0-.862-.045-1.312-.045a22.22 22.22 0 0 0-3.75.322 31.84 31.84 0 0 0-5.578 1.499 30.682 30.682 0 0 0-5.21 2.422 18.003 18.003 0 0 0-3.862 2.998 11.999 11.999 0 0 0-2.4 3.659 11.086 11.086 0 0 0-.816 4.228c.005 1.286.18 2.567.517 3.808a18.094 18.094 0 0 0 1.5 3.749 20.88 20.88 0 0 0 2.376 3.56c.946 1.161 2 2.228 3.15 3.187.417.345.855.666 1.311.959.435.278.9.547 1.425.832.525.285.982.503 1.5.75l1.5.682a68.85 68.85 0 0 1 2.076.975c.617.3 1.218.632 1.8.997a7.43 7.43 0 0 1 1.357 1.072c.341.333.614.731.802 1.169.045.113.082.225.12.33.031.098.056.199.075.3.022.086.037.174.045.262v.158a1.859 1.859 0 0 1-.158.42c-.07.15-.158.291-.262.419a3.535 3.535 0 0 1-.412.413c-.19.158-.387.306-.593.442l-.292.202-.27.18-.3.18-.307.173-.908.48-.802.397-.427.202-.892.405-1.972.877-43.173 18.862-35.464-69.764Z"/><path fill="#CC67A0" d="M78.865 80.709a5.547 5.547 0 0 0-.675-.983 5.923 5.923 0 0 0-.87-.81 6.442 6.442 0 0 0-2.092-1.072L73.28 74.18a12.452 12.452 0 0 0 2.25-3.553 12.77 12.77 0 0 0 .96-4.041 14.716 14.716 0 0 0-.36-4.326 17.407 17.407 0 0 0-1.68-4.378 21.058 21.058 0 0 0-4.446-5.592 23.993 23.993 0 0 0-6.036-3.966 23.59 23.59 0 0 0-6.92-1.994 19.497 19.497 0 0 0-7.07.367 15.146 15.146 0 0 0-5.924 2.849 12.743 12.743 0 0 0-3.681 4.775 13.124 13.124 0 0 0-1.065 6.065c.16 2.328.815 4.594 1.92 6.65a20.533 20.533 0 0 0 2.998 4.273 23.314 23.314 0 0 0 4.027 3.493 24.305 24.305 0 0 0 4.753 2.534 23.042 23.042 0 0 0 5.181 1.402l1.995 3.748a3.747 3.747 0 0 0-.398.915 3.884 3.884 0 0 0-.157 1.027 4.498 4.498 0 0 0 .555 2.181c.322.6.749 1.139 1.26 1.59.509.45 1.085.816 1.709 1.087a5.998 5.998 0 0 0 1.927.472c.653.05 1.31-.026 1.934-.225l9.822-3.201a3.921 3.921 0 0 0 1.5-.885c.396-.379.696-.846.877-1.364.183-.527.25-1.087.195-1.642a4.758 4.758 0 0 0-.54-1.731Zm-15.745-.076-2.1-3.935a1.828 1.828 0 0 0-.315-.442 2.133 2.133 0 0 0-.427-.353 2.087 2.087 0 0 0-.502-.247 2.376 2.376 0 0 0-.563-.135 18.552 18.552 0 0 1-4.416-.982 19.659 19.659 0 0 1-4.078-2.017 19.017 19.017 0 0 1-3.45-2.871 16.757 16.757 0 0 1-2.571-3.576 13.08 13.08 0 0 1-1.545-5.293 10.494 10.494 0 0 1 .825-4.835 10.061 10.061 0 0 1 2.91-3.83 12.064 12.064 0 0 1 4.723-2.31 15.467 15.467 0 0 1 5.668-.322 18.73 18.73 0 0 1 5.556 1.59 19.21 19.21 0 0 1 4.858 3.178 16.822 16.822 0 0 1 3.577 4.498 13.762 13.762 0 0 1 1.387 3.748 11.64 11.64 0 0 1 .18 3.658 10.173 10.173 0 0 1-.997 3.389 10.263 10.263 0 0 1-2.175 2.886 1.28 1.28 0 0 0-.277.367 1.44 1.44 0 0 0-.12.435 1.646 1.646 0 0 0 0 .465c.039.165.1.324.18.472l2.077 3.884-2.557.75-5.548-10.391 2.399-6.147c.072-.194.1-.402.082-.608a1.568 1.568 0 0 0-.202-.614 2.004 2.004 0 0 0-.427-.555 2.31 2.31 0 0 0-.63-.42 2.165 2.165 0 0 0-.367-.135l-.36-.067h-.353c-.11.01-.221.027-.33.052-.102.028-.2.068-.292.12-.093.046-.18.102-.263.165-.075.07-.145.145-.21.225-.06.087-.11.18-.15.277l-2.084 5.286-6.553-2.917a2.537 2.537 0 0 0-.382-.127 1.572 1.572 0 0 0-.375-.068 1.932 1.932 0 0 0-1.012.18c-.092.05-.18.108-.263.173-.082.07-.158.148-.225.232-.061.087-.114.18-.157.277a1.417 1.417 0 0 0-.083.638c.026.22.092.433.195.63.114.213.264.406.443.57.19.17.405.312.637.419l7.655 3.374 5.571 10.457-2.564.802Zm12.634 2.017a.862.862 0 0 1-.225.345c-.11.102-.24.18-.383.225l-9.844 3.141a1.16 1.16 0 0 1-.488.052 1.41 1.41 0 0 1-.487-.12 1.65 1.65 0 0 1-.435-.277 1.433 1.433 0 0 1-.322-.412 1.146 1.146 0 0 1-.143-.465 1.055 1.055 0 0 1 .053-.435 1.02 1.02 0 0 1 .63-.585l9.852-3.103a1.5 1.5 0 0 1 .48-.053c.165.017.327.06.48.128.152.071.294.165.42.277.124.114.228.248.307.398.079.14.13.296.15.457.015.144 0 .29-.045.427Zm2.879 6.95c.114.205.183.433.202.667.025.213 0 .428-.075.63a1.357 1.357 0 0 1-.33.517 1.5 1.5 0 0 1-.555.337l-6.635 2.25a1.91 1.91 0 0 1-.712.09 2.152 2.152 0 0 1-.713-.173 2.19 2.19 0 0 1-.637-.405 2.107 2.107 0 0 1-.472-.585 1.98 1.98 0 0 1-.203-.675 1.68 1.68 0 0 1 .083-.644 1.5 1.5 0 0 1 .345-.525 1.5 1.5 0 0 1 .577-.337l6.643-2.19c.225-.072.462-.1.697-.082.243.017.482.075.705.172.225.099.433.233.615.398.182.146.339.32.465.517v.038Z" style="mix-blend-mode:multiply" opacity=".3"/><path fill="#8B8B8B" d="m183.691 163.78-14.44 7.834c-.4.212-.839.339-1.29.374-.486.04-.975.018-1.455-.067a13.01 13.01 0 0 1-1.559-.352c-.525-.15-1.065-.33-1.597-.503l-1.215-.39c-.412-.119-.817-.239-1.222-.344-.405-.105-.802-.18-1.2-.24a7.463 7.463 0 0 0-1.147-.09 13.423 13.423 0 0 0-3.186.397c-.51.126-1.01.284-1.5.472-.485.193-.958.413-1.417.66l-.082.045-.083.045-.075.045-.082.045 13.683-8.029.083-.045.082-.052.083-.045.082-.045c.484-.258.985-.483 1.5-.675.51-.197 1.034-.36 1.567-.487a14.56 14.56 0 0 1 1.634-.293c.558-.06 1.119-.09 1.68-.09.404.009.808.047 1.207.113.405.067.825.157 1.252.27.427.112.847.24 1.275.374l1.274.428c.562.187 1.125.382 1.68.547.534.162 1.077.292 1.627.39.494.091.998.121 1.499.09a3.355 3.355 0 0 0 1.335-.382m-.674 34.447-14.944 5.997.465-.195c.15-.065.3-.14.45-.225l.45-.24c.15-.082.292-.172.442-.269a11.75 11.75 0 0 0 1.29-.937c.416-.347.809-.72 1.177-1.117.378-.401.731-.824 1.057-1.267.334-.45.641-.918.923-1.402.196-.351.369-.714.517-1.087.15-.39.285-.795.405-1.215.12-.412.232-.839.337-1.274l.293-1.305c.127-.577.262-1.162.404-1.716.133-.538.293-1.069.48-1.59.163-.456.374-.893.63-1.304a2.99 2.99 0 0 1 .862-.877l15.086-6.83a2.755 2.755 0 0 0-.877.907 6.684 6.684 0 0 0-.638 1.372c-.18.518-.329 1.08-.472 1.672-.142.592-.262 1.199-.39 1.814-.09.458-.18.915-.285 1.372-.105.457-.202.907-.322 1.342-.12.435-.255.87-.405 1.274a8.502 8.502 0 0 1-.517 1.147c-.28.518-.591 1.019-.93 1.5-.333.466-.694.911-1.08 1.334-.38.412-.786.8-1.214 1.162-.42.36-.863.69-1.328.99l-.457.277-.465.255-.465.225-.479.21Z"/><path fill="#ADADAD" d="M128.583 276.155a59.221 59.221 0 0 1-16.54-6.68 65.874 65.874 0 0 1-14.696-11.867 72.495 72.495 0 0 1-11.48-16.493l-37.96-74.652-7.566 9.109 35.015 69.509a66.03 66.03 0 0 0 10.67 15.308 60.394 60.394 0 0 0 13.698 10.998 55.483 55.483 0 0 0 15.475 6.177 51.204 51.204 0 0 0 16.076 1.11l14.335-1.312a53.315 53.315 0 0 1-17.027-1.207Z"/><path fill="#CECECE" d="M91.934 105.957a29.737 29.737 0 0 1 4.657-1.327 17.897 17.897 0 0 1 4.086-.322c1.202.042 2.392.259 3.531.645 1.081.37 2.094.915 2.999 1.612a13.716 13.716 0 0 1 2.182 2.106c.659.79 1.237 1.644 1.725 2.549.492.925.896 1.893 1.207 2.894.312 1.016.523 2.061.63 3.118.026.34.026.681 0 1.02 0 .36-.06.75-.12 1.109-.06.36-.128.75-.21 1.177-.083.428-.173.81-.27 1.23-.158.75-.33 1.499-.457 2.301a15.961 15.961 0 0 0-.233 2.399 9.634 9.634 0 0 0 .263 2.399c.208.826.558 1.61 1.034 2.317l.09.142c0 .053.068.098.098.143l.105.135.105.142c.135.165.262.315.397.465l.412.405a6.345 6.345 0 0 0 .87.682c.062.044.127.084.195.12l.217.12.218.105.232.105.105.045.128.052.135.045.142.045.24.067.248.06c.083.023.168.038.254.045l.27.038h1.792c.072-.008.142-.023.21-.045a.715.715 0 0 0 .173 0h.202l.233-.038.24-.06.352-.089.382-.105.398-.113.412-.135.562-.187.39-.143.405-.15.428-.172.427-.172.847-.353.885-.375.93-.412.974-.427 32.398-14.364 20.199 35.939c1.095 1.949 1.965 3.531 2.632 4.828a23.261 23.261 0 0 1 1.41 3.126c.249.607.342 1.267.27 1.919a1.94 1.94 0 0 1-.795 1.185c-.413.233-.87.376-1.342.42a5.996 5.996 0 0 1-1.537-.075 13.244 13.244 0 0 1-1.657-.39c-.563-.165-1.132-.36-1.702-.555l-1.275-.427a29.307 29.307 0 0 0-1.275-.375 13.33 13.33 0 0 0-1.252-.27 8.411 8.411 0 0 0-1.207-.112 15.194 15.194 0 0 0-1.679.09c-.55.066-1.096.164-1.635.292-.532.127-1.056.29-1.567.487a12.44 12.44 0 0 0-1.499.675c-.468.258-.919.546-1.35.862-.419.313-.818.654-1.192 1.02a10.849 10.849 0 0 0-1.89 2.518 10.728 10.728 0 0 0-1.184 3.689 15.095 15.095 0 0 0 .082 4.37 24.874 24.874 0 0 0 1.357 5.038 43.336 43.336 0 0 0 2.64 5.683 43.962 43.962 0 0 0 3.374 5.247 24.417 24.417 0 0 0 3.516 3.824 14.527 14.527 0 0 0 3.674 2.286c1.183.524 2.456.815 3.749.855.526.01 1.052-.017 1.574-.083a9.361 9.361 0 0 0 1.5-.322 10.934 10.934 0 0 0 1.499-.54c.486-.219.957-.469 1.41-.749.464-.3.908-.63 1.327-.99.429-.362.834-.75 1.215-1.162.386-.423.746-.869 1.08-1.334.339-.481.649-.982.929-1.5a8.44 8.44 0 0 0 .518-1.147c.15-.405.284-.832.404-1.274.12-.442.225-.885.323-1.342.097-.457.195-.915.285-1.372.127-.615.247-1.222.39-1.814.142-.592.292-1.155.472-1.672.16-.48.373-.94.637-1.372.219-.366.519-.677.878-.907a2.199 2.199 0 0 1 1.559-.195 3.512 3.512 0 0 1 1.575 1.177 21.308 21.308 0 0 1 1.994 2.849c.75 1.267 1.702 2.871 2.819 4.865l21.384 38.053-50.445 38.758c-.48.375-.967.75-1.455 1.087-.487.338-.974.69-1.499 1.02-.525.33-.99.645-1.5.952-.51.307-.99.6-1.499.885a50.874 50.874 0 0 1-21.264 6.597 54.291 54.291 0 0 1-22.494-2.999 62.54 62.54 0 0 1-20.791-12.43 71.132 71.132 0 0 1-15.948-20.87L47.84 166.471l42.685-18.922 1.117-.495 1.05-.465.982-.457.922-.427.472-.233.45-.217.42-.217.405-.225.562-.293.405-.232.383-.232.36-.24.344-.233.173-.112.18-.135.172-.135.165-.143.18-.142.173-.142.165-.158.157-.172.068-.053.082-.082.098-.113c.03-.041.062-.081.097-.12.135-.195.255-.352.345-.494l.24-.36c.06-.105.105-.188.142-.27l.098-.233c.023-.043.043-.088.06-.134.021-.049.038-.099.052-.15l.045-.158c0-.06 0-.112.038-.172.037-.06 0-.105.045-.165.045-.06 0-.128 0-.195v-.45a4.054 4.054 0 0 0 0-.517c0-.173 0-.352-.045-.532a4.957 4.957 0 0 0-.098-.555 5.621 5.621 0 0 0-.15-.57l-.067-.187-.068-.18-.067-.173-.068-.165a7.64 7.64 0 0 0-1.41-2.196 10.914 10.914 0 0 0-1.994-1.709 22.01 22.01 0 0 0-2.346-1.38 73.605 73.605 0 0 0-2.452-1.162c-.45-.21-.9-.412-1.327-.622-.428-.21-.848-.412-1.245-.622-.397-.21-.75-.42-1.125-.637a9.002 9.002 0 0 1-.96-.69 19.577 19.577 0 0 1-2.519-2.526 16.854 16.854 0 0 1-1.89-2.797 13.994 13.994 0 0 1-1.184-2.923 11.05 11.05 0 0 1-.412-2.917 7.58 7.58 0 0 1 .637-3.111 9.179 9.179 0 0 1 1.927-2.759 15.208 15.208 0 0 1 3.157-2.391 27.197 27.197 0 0 1 4.468-2.017Z"/><path fill="url(#h)" d="M140.887 276.815a53.998 53.998 0 0 1-17.995-3.149 61.478 61.478 0 0 1-20.536-12.272 70.349 70.349 0 0 1-15.746-20.646l-37.586-73.925 43.007-19.064 1.05-.472.997-.458.922-.434.48-.233.458-.225.442-.225.42-.232.54-.285.435-.247.404-.248.375-.24.54-.367.195-.142.203-.158.187-.165.15-.112.202-.18.195-.18.15-.157.053-.045.127-.135.12-.128.12-.157.375-.525c.105-.15.188-.277.255-.39.068-.112.135-.24.18-.345a3.03 3.03 0 0 0 .127-.292s0-.06.053-.12a1.95 1.95 0 0 0 .067-.195c0-.075.045-.15.068-.217.022-.068 0-.113 0-.165l.045-.173c.022-.083.04-.169.052-.255 0-.082 0-.172.038-.262.037-.09 0-.18 0-.27a5.19 5.19 0 0 0 0-.585c-.007-.2-.024-.4-.053-.599 0-.203-.06-.413-.105-.622a6.907 6.907 0 0 0-.165-.63l-.15-.413-.074-.194-.09-.195a8.483 8.483 0 0 0-1.5-2.392 12.156 12.156 0 0 0-2.137-1.836 22.626 22.626 0 0 0-2.43-1.425c-.824-.42-1.664-.802-2.48-1.177l-1.32-.615-1.215-.607c-.383-.202-.75-.405-1.072-.615a8.928 8.928 0 0 1-.87-.622 19.517 19.517 0 0 1-2.43-2.429 16.125 16.125 0 0 1-1.799-2.669 13.214 13.214 0 0 1-1.125-2.766 10.49 10.49 0 0 1-.382-2.714 6.928 6.928 0 0 1 .577-2.788 8.482 8.482 0 0 1 1.762-2.527 14.627 14.627 0 0 1 3-2.249 27.62 27.62 0 0 1 4.236-1.956 27.793 27.793 0 0 1 4.498-1.29 18.087 18.087 0 0 1 3.299-.33h.615c1.126.041 2.24.246 3.307.608 1 .345 1.937.852 2.774 1.499a13.184 13.184 0 0 1 2.062 1.987 14.705 14.705 0 0 1 1.634 2.421c.47.878.854 1.8 1.148 2.751.301.977.502 1.982.599 2.999a5.97 5.97 0 0 1 0 .907c0 .33-.06.675-.112 1.035-.053.359-.128.749-.203 1.132-.075.382-.172.802-.262 1.214a52.63 52.63 0 0 0-.472 2.346 16.94 16.94 0 0 0-.24 2.512c-.021.876.075 1.75.285 2.601a8.134 8.134 0 0 0 1.139 2.564l.098.15.225.307.112.143c.15.187.293.36.443.517l.449.45.473.405a6.86 6.86 0 0 0 .735.502l.24.127c.082.047.167.09.254.128l.36.157.158.068.165.052.187.06.233.068c.095.029.193.052.292.067l.3.053h.307l.525.037h1.47l.195-.037h.157l.233-.038.27-.052.622-.15.397-.105.413-.12.427-.143.57-.187.412-.15.847-.33 1.29-.532.892-.375 1.912-.847 31.753-14.079 19.855 35.332c1.244 2.249 2.031 3.659 2.624 4.798.522.966.976 1.968 1.357 2.999.2.473.282.987.24 1.499a1.122 1.122 0 0 1-.465.69 2.51 2.51 0 0 1-1.38.292 5.528 5.528 0 0 1-.944-.09 11.438 11.438 0 0 1-1.552-.367 52.545 52.545 0 0 1-1.635-.532l-1.335-.443c-.434-.142-.877-.27-1.312-.39-.435-.12-.929-.217-1.327-.284a8.336 8.336 0 0 0-1.319-.12 14.137 14.137 0 0 0-1.77.097 14.95 14.95 0 0 0-1.732.307c-.563.134-1.116.304-1.657.51a14.69 14.69 0 0 0-1.559.75c-.502.272-.983.58-1.44.922a9.988 9.988 0 0 0-1.275 1.094c-.399.392-.767.813-1.102 1.26-.343.453-.651.932-.922 1.432a11.501 11.501 0 0 0-1.275 3.95 16.16 16.16 0 0 0 .075 4.596 26.52 26.52 0 0 0 1.402 5.195 43.555 43.555 0 0 0 2.692 5.788 44.366 44.366 0 0 0 3.434 5.367 25.358 25.358 0 0 0 3.629 3.944 15.147 15.147 0 0 0 3.831 2.473c1.267.56 2.628.87 4.012.915h.24c.486.001.972-.029 1.454-.09a12.074 12.074 0 0 0 1.642-.337c.54-.16 1.069-.355 1.582-.585a13.406 13.406 0 0 0 1.5-.825c.492-.319.963-.669 1.409-1.049.46-.397.893-.823 1.298-1.275.41-.442.79-.91 1.139-1.402.36-.496.688-1.014.982-1.551.217-.404.405-.822.563-1.252.15-.405.292-.84.427-1.342.135-.502.233-.915.33-1.38.098-.464.18-.832.263-1.252v-.134c.134-.645.254-1.23.382-1.785.127-.554.3-1.154.45-1.596.143-.422.331-.827.562-1.207.147-.257.35-.477.592-.645.213-.106.446-.165.683-.173.098.001.196.014.292.038.482.2.902.526 1.215.944.71.862 1.349 1.78 1.912 2.744.847 1.38 1.852 3.141 2.804 4.843l21.054 37.484-49.876 38.323c-.479.367-.959.749-1.439 1.072-.48.322-.967.674-1.447 1.004-.48.33-.975.637-1.462.937-.488.3-.975.593-1.5.87a50.01 50.01 0 0 1-20.934 6.5 56.96 56.96 0 0 1-4.101.15Z"/><path fill="#987BB0" d="M122.525 186.854a10.093 10.093 0 0 0-3.344 2.931 11.617 11.617 0 0 0-1.897 4.071 12.986 12.986 0 0 0-.277 4.701c.201 1.665.71 3.28 1.5 4.76a13.316 13.316 0 0 0 3.074 3.883 11.945 11.945 0 0 0 3.988 2.294c1.405.48 2.893.663 4.372.54a9.899 9.899 0 0 0 4.206-1.379 10.223 10.223 0 0 0 3.232-3.066 11.606 11.606 0 0 0 1.739-4.094c.319-1.508.373-3.061.157-4.588a13.87 13.87 0 0 0-1.499-4.595 13.202 13.202 0 0 0-2.962-3.748 11.978 11.978 0 0 0-3.831-2.249 10.563 10.563 0 0 0-4.244-.645 9.893 9.893 0 0 0-4.191 1.192m8.18 7.496.982-4.265c.24.142.473.292.697.457a9.03 9.03 0 0 1 1.845 1.807l-3.524 2.001Zm1.822 11.246a7.127 7.127 0 0 1-3.044.974 7.759 7.759 0 0 1-3.142-.397 8.67 8.67 0 0 1-2.871-1.665 9.602 9.602 0 0 1-2.212-2.788 9.75 9.75 0 0 1-1.02-2.999 9.487 9.487 0 0 1 0-2.999c.15-.96.456-1.89.907-2.751a7.858 7.858 0 0 1 1.74-2.249l4.116 7.729.09.15.09.135c0 .045.067.09.105.127l.12.105c.086.073.176.14.27.203.091.052.186.097.285.135.098.032.198.057.3.075.102.007.205.007.307 0 .05.004.1.004.15 0l.15-.038.142-.052.135-.075 6.711-3.861c.325.967.497 1.979.51 2.999a9.398 9.398 0 0 1-.405 2.871 8.363 8.363 0 0 1-1.29 2.519 7.305 7.305 0 0 1-2.182 1.844m-4.836-12.295-2.159-4.055c.246-.074.497-.134.75-.18.262-.051.528-.083.795-.098s.535-.015.802 0c.262 0 .525.038.75.075l-.998 4.273m-7.842 28.6-15.558-29.657 31.895-17.107 14.996 27.738-31.318 19.041m16.03-50.317-34.655 18.329a1.612 1.612 0 0 0-.502.42 1.823 1.823 0 0 0-.285.584 1.864 1.864 0 0 0 .157 1.32l17.245 32.985c.11.21.257.398.435.555.165.147.359.257.57.322.203.068.417.091.63.068a1.59 1.59 0 0 0 .615-.217l14.298-8.802-2.962 13.622a1.971 1.971 0 0 0 0 .75c.028.231.099.455.21.659.103.2.243.378.413.525.168.15.368.26.584.322.104.037.213.06.323.068.105.011.21.011.315 0a1.379 1.379 0 0 0 .57-.218c.089-.056.172-.121.247-.194a1.658 1.658 0 0 0 .36-.548c.047-.108.082-.221.105-.337l2.917-13.607 4.101 7.617c.111.203.255.385.427.54.158.137.341.242.54.307.19.068.393.089.592.06.209-.023.409-.095.585-.21.176-.114.324-.265.435-.442a1.84 1.84 0 0 0 .24-.592 2.26 2.26 0 0 0 0-.667 2.037 2.037 0 0 0-.225-.675l-4.056-7.602 11.906 4.011.308.067c.097.008.195.008.292 0 .094-.013.187-.036.277-.067a1.6 1.6 0 0 0 .255-.128l.233-.187a1.485 1.485 0 0 0 .33-.51c.038-.105.068-.213.09-.322a2.109 2.109 0 0 0-.21-1.312 1.856 1.856 0 0 0-.405-.502 1.43 1.43 0 0 0-.547-.315l-11.817-4.063 13.219-8.134c.169-.104.313-.245.42-.413.106-.17.182-.358.224-.554a1.995 1.995 0 0 0-.217-1.267l-16.495-30.489a1.948 1.948 0 0 0-.405-.503 1.671 1.671 0 0 0-.517-.314 1.482 1.482 0 0 0-.57-.098 1.268 1.268 0 0 0-.555.15" style="mix-blend-mode:multiply" opacity=".4"/><path fill="url(#i)" d="M237.691 84.78a1.8 1.8 0 0 0 0-.18c0-.128 0-.263-.038-.405-.037-.143-.052-.278-.082-.42a5.584 5.584 0 0 0-.12-.443 5.36 5.36 0 0 0-.158-.45.747.747 0 0 0-.06-.142.744.744 0 0 0-.06-.142c0-.045-.037-.09-.06-.143l-.075-.142a7.794 7.794 0 0 0-1.199-1.792 10.81 10.81 0 0 0-1.59-1.447c-.172-.127-.345-.24-.525-.36-.412-.292-.847-.57-1.282-.824-.622-.368-1.252-.705-1.859-1.035l-1.005-.54c-.33-.18-.645-.367-.952-.547a12.64 12.64 0 0 1-.855-.555 9.087 9.087 0 0 1-.75-.584l-.045-.045a19.09 19.09 0 0 1-1.987-2.062c-.172-.21-.322-.42-.487-.637a16.305 16.305 0 0 1-1.11-1.65 13.638 13.638 0 0 1-1.109-2.353 10.367 10.367 0 0 1-.353-1.17 9.408 9.408 0 0 1-.21-1.154 6.707 6.707 0 0 1-.007-1.5 5.38 5.38 0 0 1 .337-1.379 5.755 5.755 0 0 1 .683-1.267c.139-.206.295-.402.464-.585a6.42 6.42 0 0 1 .548-.562l-12.926 11.89a7.298 7.298 0 0 0-1.005 1.117 6.006 6.006 0 0 0-.675 1.23 6.65 6.65 0 0 0-.217.66 6.712 6.712 0 0 0-.128.674c-.032.236-.05.474-.052.712v.75c.082.766.251 1.52.502 2.249.135.374.285.75.457 1.124.173.375.368.75.578 1.117.438.763.94 1.488 1.499 2.167.285.352.593.697.915 1.027.322.33.66.652 1.012.96.236.2.487.383.75.547l.307.202c.173.105.33.217.51.322l.908.503.749.39.233.12c.585.3 1.184.614 1.777.959.3.165.592.345.884.525.293.18.57.382.848.584a10 10 0 0 1 1.499 1.357c.459.51.84 1.083 1.132 1.702l.068.135c.023.044.043.089.06.135l.06.135.052.135s0 .075.038.112c.037.038.075.218.105.323.03.105.06.225.09.337v.082l.067.405v.728a.846.846 0 0 1 0 .142c.005.04.005.08 0 .12-.003.045-.003.09 0 .135v.33c0 .037 0 .105-.052.165a1.853 1.853 0 0 1-.083.202l-.135.262-.135.225c0 .045-.045.083-.075.135l-.06.09-.06.075-.097.12-.105.113-.112.105-.06.052-.053.045v.045l-.045.037-.082.075-.09.075-.09.075 13.796-10.555.09-.075.09-.075.082-.082.083-.075.119-.105.113-.113.105-.112.097-.12.045-.038.045-.06.06-.075.053-.09c.082-.142.157-.27.21-.374.051-.087.096-.177.135-.27a.657.657 0 0 0 .045-.105.56.56 0 0 0 .037-.105 1.48 1.48 0 0 0 .053-.173v-.217a.703.703 0 0 0 0-.112v-.135a.6.6 0 0 0 0-.12 1.38 1.38 0 0 0 0-.158v-.172l-.075-.008Z"/><path fill="url(#j)" d="M226.939 147.984a24.815 24.815 0 0 0-1.717-4.041c-.75-1.499-1.702-3.171-2.745-5.015l-20.139-35.767-12.843 10.406 18.789 33.817c.975 1.747 1.845 3.314 2.557 4.738a22.614 22.614 0 0 1 1.589 3.816c.321.966.391 1.998.203 2.999a3.998 3.998 0 0 1-1.59 2.309l-.112.082-.113.083-.112.075-.113.067 14.501-7.677.12-.067.113-.082.112-.075.12-.09a4.049 4.049 0 0 0 1.612-2.414 6.343 6.343 0 0 0-.232-3.164Z"/><path fill="url(#k)" d="M243.479 176.164c-1.072-1.897-2.032-3.606-2.931-5.068a25.136 25.136 0 0 0-2.595-3.606 6.133 6.133 0 0 0-2.564-1.851 3.869 3.869 0 0 0-2.864.217l-2.294 1.072h-.068l-.097.045-.593.277-.12.06-2.631 1.222h-.06l-2.587 1.207-1.245.578-.232.104-1.462.683-.45.217-.435.202-.555.255-.75.338-1.417.659a3.783 3.783 0 0 1 2.707-.164 5.734 5.734 0 0 1 2.437 1.731 23.416 23.416 0 0 1 2.429 3.396c.84 1.38 1.732 2.999 2.729 4.776l19.824 35.676 17.088-4.175-21.264-37.851Z"/><path fill="url(#l)" d="m222.133 182.604-14.853 6.199a9.905 9.905 0 0 1-.795.285 7.735 7.735 0 0 1-1.642.315 6.094 6.094 0 0 1-.833 0 7.086 7.086 0 0 1-2.811-.667 11.204 11.204 0 0 1-2.789-1.874 20.135 20.135 0 0 1-2.737-3.074 36.91 36.91 0 0 1-2.669-4.251 38.015 38.015 0 0 1-2.122-4.558 21.367 21.367 0 0 1-1.102-3.995 11.75 11.75 0 0 1-.105-3.411c.119-.986.424-1.94.899-2.812.192-.342.407-.67.645-.982.228-.31.479-.604.75-.877.281-.269.579-.519.892-.749.322-.246.66-.469 1.012-.668l13.789-7.879c-.361.208-.71.439-1.042.69a9.193 9.193 0 0 0-1.71 1.732 9.17 9.17 0 0 0-.652 1.034 8.05 8.05 0 0 0-.892 2.954 12.714 12.714 0 0 0 .165 3.606 22.304 22.304 0 0 0 1.222 4.236 40.104 40.104 0 0 0 2.294 4.842 39.674 39.674 0 0 0 2.857 4.498 21.664 21.664 0 0 0 2.916 3.276 11.9 11.9 0 0 0 2.94 2.017 7.67 7.67 0 0 0 2.954.75c.289.015.58.015.869 0 .29-.023.577-.06.863-.113.286-.051.569-.121.847-.21.28-.082.555-.18.825-.292"/><path fill="#006941" d="M228.019 57.829a16.328 16.328 0 0 1 3.231-.862 11.015 11.015 0 0 1 2.917-.098 8.995 8.995 0 0 1 4.918 2.062 13.431 13.431 0 0 1 1.755 1.762 15.88 15.88 0 0 1 1.499 2.121c.442.756.823 1.546 1.14 2.361.322.81.573 1.645.75 2.497.046.268.076.538.09.81.015.292.015.585 0 .877 0 .3 0 .607-.053.922-.052.315-.052.637-.082.967a43.479 43.479 0 0 0-.135 1.806c-.041.63-.041 1.26 0 1.89.062.65.198 1.292.405 1.911a7.53 7.53 0 0 0 .944 1.882l.135.187c.045.06.083.12.128.173l.135.165.127.157c.098.113.195.225.293.323l.292.292.293.255c.094.081.195.156.299.225l.143.097.165.105.165.09.172.09c.223.117.457.212.698.285.244.076.495.129.749.157.265.02.531.02.795 0 .287-.013.573-.048.855-.105h1.162l.405-.127.27-.097.285-.105.292-.113.3-.12.585-.24.607-.255.645-.285.667-.292 22.659-10.293 29.406 48.961a73.044 73.044 0 0 1 7.303 16.448 63.08 63.08 0 0 1 2.722 16.672 47.479 47.479 0 0 1-2.1 15.564 33.562 33.562 0 0 1-7.34 12.849c-.263.285-.54.562-.817.84-.278.277-.563.539-.848.794l-.884.75c-.3.247-.608.495-.923.75l-40.45 31.081-21.309-37.851c-1.072-1.897-2.032-3.606-2.932-5.068a25.052 25.052 0 0 0-2.594-3.606 6.133 6.133 0 0 0-2.564-1.851 3.869 3.869 0 0 0-2.864.217l-.128.06-.127.06-.128.067-.12.068a4.632 4.632 0 0 0-1.349 1.297 7.799 7.799 0 0 0-.93 1.777 17.512 17.512 0 0 0-.637 2.076c-.18.712-.33 1.44-.473 2.152-.09.42-.172.832-.262 1.237-.09.405-.187.794-.285 1.169a9.08 9.08 0 0 1-.33 1.05c-.107.303-.24.596-.397.877-.224.43-.474.845-.75 1.244a11.27 11.27 0 0 1-1.919 2.084 11.49 11.49 0 0 1-1.11.818 11.36 11.36 0 0 1-1.14.614c-.384.17-.78.313-1.184.428a8.413 8.413 0 0 1-2.452.314 7.687 7.687 0 0 1-2.954-.749 11.919 11.919 0 0 1-2.94-2.017 21.713 21.713 0 0 1-2.916-3.276 39.763 39.763 0 0 1-2.857-4.498 40.046 40.046 0 0 1-2.294-4.843 22.367 22.367 0 0 1-1.222-4.235 12.717 12.717 0 0 1-.165-3.606 8.05 8.05 0 0 1 .892-2.954c.198-.369.424-.722.675-1.057.246-.337.519-.653.817-.945a9.1 9.1 0 0 1 .952-.824 8.43 8.43 0 0 1 1.087-.697 10.614 10.614 0 0 1 3.899-1.23c.471-.055.944-.08 1.417-.075.312.003.623.031.93.083.33.06.675.134 1.035.232l1.11.33 1.154.382c.66.218 1.342.45 2.025.645.668.199 1.35.355 2.039.465.644.107 1.299.13 1.949.067a4.424 4.424 0 0 0 1.77-.555l.12-.067.112-.083.113-.075.12-.09a4.048 4.048 0 0 0 1.612-2.413 6.358 6.358 0 0 0-.27-3.172 24.68 24.68 0 0 0-1.717-4.04c-.75-1.5-1.702-3.171-2.744-5.016l-20.139-35.766 28.319-12.595.75-.337.712-.315.66-.307.622-.293.315-.157.3-.15.292-.157.27-.15.375-.21.27-.158.255-.165.232-.172.233-.165.112-.082.113-.09a.752.752 0 0 0 .112-.105l.105-.098.12-.105.113-.112.104-.113.098-.12v-.045a.436.436 0 0 0 .06-.06l.052-.082a.564.564 0 0 0 .06-.09c.083-.142.158-.27.21-.375.051-.087.096-.177.135-.27a1.45 1.45 0 0 0 .083-.21 1.48 1.48 0 0 0 .052-.172v-.217a.678.678 0 0 0 0-.128v-.135a.482.482 0 0 0 0-.12 1.034 1.034 0 0 0 0-.157v-.173c.004-.06.004-.12 0-.18 0-.127 0-.262-.037-.404-.038-.143-.053-.278-.083-.42a5.596 5.596 0 0 0-.12-.443c-.045-.15-.097-.3-.157-.45l-.06-.142a.902.902 0 0 0-.06-.142c0-.045-.038-.09-.06-.143-.023-.052-.053-.09-.075-.142a7.796 7.796 0 0 0-1.2-1.792 10.797 10.797 0 0 0-1.589-1.447 17.81 17.81 0 0 0-1.807-1.184c-.623-.367-1.252-.705-1.86-1.035l-1.004-.54c-.33-.18-.645-.367-.945-.547-.3-.18-.592-.367-.862-.554a8.944 8.944 0 0 1-.75-.585 18.541 18.541 0 0 1-2.032-2.107 16.28 16.28 0 0 1-1.597-2.286 13.643 13.643 0 0 1-1.11-2.354c-.275-.75-.464-1.53-.562-2.324a6.204 6.204 0 0 1 .18-2.43 5.851 5.851 0 0 1 1.125-2.106 8.9 8.9 0 0 1 2.046-1.769 15.513 15.513 0 0 1 3.09-1.424Z"/><path fill="url(#m)" d="M244.117 175.782c-1.103-1.95-2.04-3.621-2.947-5.091a26.08 26.08 0 0 0-2.677-3.748 6.904 6.904 0 0 0-2.902-2.062 4.222 4.222 0 0 0-1.357-.217 5.111 5.111 0 0 0-2.054.457l-.292.135-.293.165a5.435 5.435 0 0 0-1.589 1.499 8.637 8.637 0 0 0-1.028 1.95c-.268.706-.488 1.43-.659 2.166-.18.705-.33 1.425-.473 2.129-.097.465-.18.877-.27 1.282-.09.405-.18.75-.277 1.132a9.855 9.855 0 0 1-.307.982c-.094.259-.21.51-.345.75a12.46 12.46 0 0 1-.75 1.177c-.262.364-.545.711-.847 1.042-.299.319-.617.619-.953.899a8.788 8.788 0 0 1-1.019.75 9.594 9.594 0 0 1-1.05.57 7.715 7.715 0 0 1-2.174.615 7.733 7.733 0 0 1-.938.06h-.18a6.7 6.7 0 0 1-2.639-.66 11.226 11.226 0 0 1-2.751-1.882 21.72 21.72 0 0 1-2.812-3.163 39.364 39.364 0 0 1-2.804-4.438 38.703 38.703 0 0 1-2.25-4.753 22.526 22.526 0 0 1-1.184-4.086 11.656 11.656 0 0 1-.15-3.381c.09-.938.362-1.85.802-2.684.182-.331.387-.65.615-.952a7.4 7.4 0 0 1 .75-.862c.27-.272.561-.522.869-.75a9.07 9.07 0 0 1 .99-.644 9.073 9.073 0 0 1 1.132-.525c.395-.15.798-.278 1.207-.383.423-.101.851-.176 1.282-.224a9.491 9.491 0 0 1 1.238-.075h.105c.263.005.527.03.787.075.307.052.63.127.96.217.329.09.704.202 1.072.315l1.222.405a56.35 56.35 0 0 0 1.979.629c.703.213 1.419.376 2.145.488a9.2 9.2 0 0 0 1.387.112c.25.014.5.014.75 0a5.274 5.274 0 0 0 2.061-.66l.143-.082.142-.09.27-.202a4.775 4.775 0 0 0 1.897-2.864 7.141 7.141 0 0 0-.285-3.554 24.93 24.93 0 0 0-1.769-4.168c-.75-1.499-1.695-3.148-2.684-4.918l-19.795-35.152 28.357-12.572.75-.322.667-.307.945-.457.322-.166.3-.157.293-.165.352-.195.307-.187.278-.18.255-.173.367-.27.143-.12.15-.127.127-.127.083-.075.142-.135.135-.15c.032-.036.062-.073.09-.112.046-.045.088-.093.127-.143l.09-.12a9.057 9.057 0 0 0 .308-.532c.06-.113.112-.225.157-.315s.083-.202.113-.285a1.51 1.51 0 0 0 .067-.247.46.46 0 0 0 0-.105s0-.098.038-.158v-.434a1.708 1.708 0 0 0 0-.203v-.217c.003-.07.003-.14 0-.21 0-.15 0-.308-.045-.465-.045-.157-.053-.322-.09-.487a7.601 7.601 0 0 0-.135-.495 4.945 4.945 0 0 0-.173-.502l-.142-.323-.158-.337a8.605 8.605 0 0 0-1.304-1.942 11.422 11.422 0 0 0-1.702-1.544 20.1 20.1 0 0 0-1.882-1.237c-.63-.375-1.267-.712-1.882-1.05l-.997-.54-.923-.524a14.387 14.387 0 0 1-.817-.532 7.33 7.33 0 0 1-.675-.525 19.019 19.019 0 0 1-1.949-2.017 16.024 16.024 0 0 1-1.5-2.189 12.766 12.766 0 0 1-1.049-2.249 9.426 9.426 0 0 1-.518-2.151 5.368 5.368 0 0 1 .15-2.122 5.06 5.06 0 0 1 .983-1.829 7.842 7.842 0 0 1 1.866-1.612 15.203 15.203 0 0 1 2.797-1.35c1-.376 2.035-.652 3.089-.824a10.894 10.894 0 0 1 1.747-.142c.33 0 .653 0 .975.045a8.38 8.38 0 0 1 4.506 1.896 12.224 12.224 0 0 1 1.642 1.657c.527.631.998 1.306 1.41 2.017.419.72.78 1.471 1.079 2.249.303.764.534 1.554.69 2.361.044.233.072.468.083.705v.81c0 .277 0 .584-.053.892-.052.307-.082.952-.082.952a44.398 44.398 0 0 0-.135 1.844c-.032.665-.017 1.331.045 1.994.066.709.212 1.408.435 2.084a8.29 8.29 0 0 0 1.042 2.077l.292.397.143.18.15.18.307.337c.104.113.214.22.33.323a5.752 5.752 0 0 0 .675.555l.172.112.18.112.188.113.21.105c.261.13.532.24.809.33.287.085.581.148.878.187.216.024.434.036.652.037h.277a7.37 7.37 0 0 0 .96-.112l.345-.075h.097l.218-.045.36-.097.637-.203.6-.21 1.192-.48.622-.27 1.32-.577 22.006-9.745 29.106 48.338a71.641 71.641 0 0 1 7.228 16.276 62.024 62.024 0 0 1 2.692 16.492 46.896 46.896 0 0 1-2.062 15.316 32.711 32.711 0 0 1-7.175 12.55c-.255.277-.525.547-.795.817-.27.27-.547.524-.832.749-.285.225-.563.503-.855.75-.292.247-.592.487-.9.75l-39.738 30.541-20.881-37.093Z"/><path fill="#CC67A0" d="M284.139 148.973a2.141 2.141 0 0 0-.217-.532 2.145 2.145 0 0 0-.352-.442 1.562 1.562 0 0 0-.42-.277 1.005 1.005 0 0 0-.435-.09.788.788 0 0 0-.405.12l-.997.644-3.479-5.96a1.838 1.838 0 0 0-.36-.449 1.413 1.413 0 0 0-.42-.285 1.074 1.074 0 0 0-.442-.098.742.742 0 0 0-.405.113l-3.629 2.249-1.417-2.437a6.832 6.832 0 0 0 1.109-1.244 7.967 7.967 0 0 0 .833-1.612 9.94 9.94 0 0 0 .517-1.979c.123-.776.178-1.561.165-2.347.172 0 .345 0 .51-.045a3.23 3.23 0 0 0 .495-.105 3.147 3.147 0 0 0 .907-.382 2.42 2.42 0 0 0 .322-.217c.105-.076.206-.159.3-.248.098-.09.188-.187.278-.285a2.54 2.54 0 0 0 .247-.322 4.24 4.24 0 0 0 .517-1.012c.14-.375.236-.765.285-1.162.053-.425.068-.854.045-1.282a7.876 7.876 0 0 0-.195-1.349l-.322-1.335a9.45 9.45 0 0 0-2.369-4.303 8.656 8.656 0 0 0-1.237-1.049 6.691 6.691 0 0 0-1.028-.585 5.485 5.485 0 0 0-2.069-.532 4.195 4.195 0 0 0-.975.075c-.157-.315-.322-.623-.487-.945-.165-.322-.33-.63-.51-.952l-.532-.982-.578-1.005a1.753 1.753 0 0 0-.764-.719 1.36 1.36 0 0 0-.443-.105.932.932 0 0 0-.405.09l-16.96 9.138a.843.843 0 0 0-.322.308 1.093 1.093 0 0 0-.158.442c-.03.171-.03.346 0 .517.039.191.11.373.21.54.203.36.413.705.615 1.042.203.337.405.675.608.997.202.322.404.645.607.952l.607.93a4.648 4.648 0 0 0-.63.839 5.589 5.589 0 0 0-.45 1.005 6.924 6.924 0 0 0-.247 1.139 7.61 7.61 0 0 0 0 1.245 8.24 8.24 0 0 0 .277 1.694 9.41 9.41 0 0 0 1.53 3.134c.353.471.749.908 1.185 1.304l1.079.982a8.95 8.95 0 0 0 1.162.87c.388.238.797.439 1.223.599.4.147.815.253 1.237.315a4.716 4.716 0 0 0 1.649-.075l.413-.12c.133-.044.263-.097.39-.157.126-.055.248-.118.367-.187.151-.092.296-.192.435-.3a4.508 4.508 0 0 0 .75-.765c.111-.144.213-.294.307-.45.7.395 1.432.729 2.189.997a9.867 9.867 0 0 0 2.025.488 7.562 7.562 0 0 0 1.829 0c.555-.064 1.1-.2 1.62-.405l1.417 2.444-3.749 2.294a.844.844 0 0 0-.3.33 1.243 1.243 0 0 0-.142.457c-.015.181 0 .363.045.54.044.194.117.381.217.554l3.546 6.133-1.064.674a.952.952 0 0 0-.308.338 1.162 1.162 0 0 0-.135.464 1.737 1.737 0 0 0 0 .548c.047.194.12.381.218.555.1.169.223.323.367.457.129.123.279.222.443.292.144.062.3.093.457.09a.858.858 0 0 0 .427-.127l1.987-1.29 9.095-5.892 1.882-1.215a.814.814 0 0 0 .277-.322 1.12 1.12 0 0 0 .12-.457c.032-.166.037-.335.015-.503Zm-12.881-26.185c.18.014.359.047.533.097a3.8 3.8 0 0 1 1.087.532c.268.179.519.382.749.607.224.233.427.484.608.75.181.271.339.557.472.855.129.298.232.606.308.922l.322 1.357c.058.259.096.522.112.787.027.249.027.5 0 .75-.031.23-.086.456-.164.674-.077.21-.181.409-.308.593a1.64 1.64 0 0 1-.142.179l-.158.158a1.563 1.563 0 0 1-.172.142l-.18.12-.173.09-.18.075-.187.06-.188.045a27.742 27.742 0 0 0-.397-1.956 31.83 31.83 0 0 0-.592-2.115 29.55 29.55 0 0 0-.802-2.249c-.308-.749-.638-1.596-1.013-2.436.154-.028.309-.04.465-.037Zm-12.109 17.309-.157.135a1.35 1.35 0 0 1-.165.128c-.054.042-.112.08-.173.112a1.46 1.46 0 0 1-.21.113l-.224.09-.225.067-.248.045a3.26 3.26 0 0 1-.712 0 3.58 3.58 0 0 1-.75-.18 4.168 4.168 0 0 1-.75-.352 5.073 5.073 0 0 1-.667-.51l-1.087-.99a5.382 5.382 0 0 1-.69-.749 5.497 5.497 0 0 1-.892-1.814 5.537 5.537 0 0 1-.158-.982 3.921 3.921 0 0 1 0-.668 4.03 4.03 0 0 1 .113-.607c.05-.185.12-.363.21-.532.081-.167.179-.325.292-.472.57.749 1.14 1.499 1.702 2.181.562.682 1.11 1.312 1.657 1.897a33.64 33.64 0 0 0 1.627 1.612c.533.494 1.057.937 1.575 1.341l-.068.135Zm10.977-1.619a4.885 4.885 0 0 1-2.924 1.762 5.498 5.498 0 0 1-1.792 0 7.764 7.764 0 0 1-1.935-.555 12.369 12.369 0 0 1-2.046-1.117 19.399 19.399 0 0 1-2.46-1.957 32.04 32.04 0 0 1-2.534-2.638 45.338 45.338 0 0 1-2.572-3.306 64.849 64.849 0 0 1-2.579-3.944l14.996-8.201c.749 1.387 1.499 2.736 2.077 4.033.577 1.297 1.124 2.542 1.552 3.748a32.886 32.886 0 0 1 1.027 3.389c.235.986.398 1.989.487 2.999.07.748.07 1.501 0 2.249a7.788 7.788 0 0 1-.435 1.934 5.363 5.363 0 0 1-.862 1.604Zm2.114 15.743-2.789-4.82 7.326-4.566 2.751 4.723-7.288 4.663Zm-4.296-21.111a.393.393 0 0 1 0 .128.524.524 0 0 1 0 .112.386.386 0 0 1 0 .068.3.3 0 0 1 0 .06v.045l-.045.037h-.082l-2.295.075-1.222 1.979-.112.105h-.255a.252.252 0 0 1-.105-.045.48.48 0 0 1-.195-.165l-.075-.112-1.395-2.661-2.376-1.297a.527.527 0 0 1-.105-.075.35.35 0 0 1-.09-.098.841.841 0 0 1-.075-.112l-.045-.128a.76.76 0 0 1 0-.135v-.12a.24.24 0 0 1 .037-.104.187.187 0 0 1 .06-.09l1.5-1.702-.233-2.744a.345.345 0 0 1 0-.12.265.265 0 0 1 0-.105.296.296 0 0 1 .053-.082l.075-.06.097-.038h.21l.105.06 2.249 1.589 2.197-.382a.233.233 0 0 1 .105 0h.105l.105.06.098.098a.508.508 0 0 1 .082.097.447.447 0 0 1 .068.113.897.897 0 0 1 0 .127.897.897 0 0 1 0 .127l-.053 2.647 1.605 2.504a.612.612 0 0 1 .06.12.359.359 0 0 1-.053.194v.03Z" style="mix-blend-mode:multiply" opacity=".3"/><defs><linearGradient id="a" x1="89.504" x2="123.341" y1="60.475" y2="60.475" gradientUnits="userSpaceOnUse"><stop stop-color="#00AB5C"/><stop offset=".25" stop-color="#00A156"/><stop offset=".68" stop-color="#008548"/><stop offset=".99" stop-color="#006D3B"/></linearGradient><linearGradient id="b" x1="168.666" x2="168.666" y1="1.686" y2="112.405" gradientUnits="userSpaceOnUse"><stop stop-color="#FBFBFB"/><stop offset="1" stop-color="#B1B1B1"/></linearGradient><linearGradient id="c" x1="71.833" x2="158.65" y1="121.491" y2="121.491" gradientUnits="userSpaceOnUse"><stop stop-color="#006D3B"/><stop offset=".28" stop-color="#007F45"/><stop offset=".8" stop-color="#00AB5C"/></linearGradient><linearGradient id="d" x1="72.754" x2="101.283" y1="131.949" y2="131.949" gradientUnits="userSpaceOnUse"><stop offset=".03" stop-color="#00593B"/><stop offset=".29" stop-color="#006B42"/><stop offset=".82" stop-color="#009A55"/><stop offset="1" stop-color="#00AB5C"/></linearGradient><linearGradient id="e" x1="38.864" x2="97.355" y1="156.455" y2="156.455" gradientUnits="userSpaceOnUse"><stop offset=".03" stop-color="#00593B"/><stop offset=".29" stop-color="#006B42"/><stop offset=".82" stop-color="#009A55"/><stop offset="1" stop-color="#00AB5C"/></linearGradient><linearGradient id="f" x1="-.034" x2="46.31" y1="114.406" y2="114.406" gradientUnits="userSpaceOnUse"><stop offset=".03" stop-color="#00593B"/><stop offset=".29" stop-color="#006B42"/><stop offset=".82" stop-color="#009A55"/><stop offset="1" stop-color="#00AB5C"/></linearGradient><linearGradient id="g" x1="143.413" x2="23.324" y1="-14.559" y2="177.364" gradientUnits="userSpaceOnUse"><stop stop-color="#00AB5C"/><stop offset=".25" stop-color="#00A156"/><stop offset=".68" stop-color="#008548"/><stop offset=".99" stop-color="#006D3B"/></linearGradient><linearGradient id="h" x1="170.788" x2="122.958" y1="4.355" y2="264.702" gradientUnits="userSpaceOnUse"><stop stop-color="#606060"/><stop offset="1" stop-color="#fff"/></linearGradient><linearGradient id="i" x1="208.742" x2="237.691" y1="79.292" y2="79.292" gradientUnits="userSpaceOnUse"><stop stop-color="#00AB5C"/><stop offset=".14" stop-color="#00A158"/><stop offset=".37" stop-color="#00854D"/><stop offset=".66" stop-color="#00593B"/></linearGradient><linearGradient id="j" x1="185.971" x2="216.3" y1="100.8" y2="147.673" gradientUnits="userSpaceOnUse"><stop offset=".03" stop-color="#00593B"/><stop offset=".29" stop-color="#006B42"/><stop offset=".82" stop-color="#009A55"/><stop offset="1" stop-color="#00AB5C"/></linearGradient><linearGradient id="k" x1="267.697" x2="246.401" y1="241.618" y2="203.097" gradientUnits="userSpaceOnUse"><stop offset=".03" stop-color="#00593B"/><stop offset=".29" stop-color="#006B42"/><stop offset=".82" stop-color="#009A55"/><stop offset="1" stop-color="#00AB5C"/></linearGradient><linearGradient id="l" x1="196.348" x2="209.803" y1="159.791" y2="182.755" gradientUnits="userSpaceOnUse"><stop offset=".03" stop-color="#00593B"/><stop offset=".29" stop-color="#006B42"/><stop offset=".82" stop-color="#009A55"/><stop offset="1" stop-color="#00AB5C"/></linearGradient><linearGradient id="m" x1="309.295" x2="189.64" y1="51.479" y2="242.713" gradientUnits="userSpaceOnUse"><stop offset=".03" stop-color="#00593B"/><stop offset=".29" stop-color="#006B42"/><stop offset=".82" stop-color="#009A55"/><stop offset="1" stop-color="#00AB5C"/></linearGradient></defs></svg>