<svg xmlns="http://www.w3.org/2000/svg" width="36" height="39.063"><g data-name="Group 2029" fill="none" stroke="#000"><g data-name="Group 2028" stroke-linecap="round" stroke-linejoin="round"><path d="m6 4.5 1.7 3.443 3.8.557-2.75 2.677.649 3.784L6 13.174l-3.4 1.787.65-3.784L.5 8.5l3.8-.555Zm12-4 1.7 3.443 3.8.557-2.75 2.677.649 3.784L18 9.174l-3.4 1.787.65-3.784L12.5 4.5l3.8-.555Zm12 4 1.7 3.443 3.8.557-2.75 2.677.649 3.784L30 13.174l-3.4 1.787.65-3.784L24.5 8.5l3.8-.555Z" data-name="Icon feather-star"/></g><path stroke-width="1.5" d="M18 27.137a5.588 5.588 0 1 0-5.588-5.588A5.586 5.586 0 0 0 18 27.137Zm0 2.794c-3.73 0-11.176 1.872-11.176 5.588v2.794h22.352v-2.794c0-3.716-7.446-5.588-11.176-5.588Z" data-name="Icon material-person"/></g></svg>