<svg xmlns="http://www.w3.org/2000/svg" data-name="Layer 1" width="520.52" height="575.724"><path d="M297.527 123.678a10.855 10.855 0 0 1 7.89 12.922 10.413 10.413 0 0 1-.546 1.633l27.767 25.751-18.855 4.432-23.478-25.133a10.825 10.825 0 0 1-5.534-12.001 10.36 10.36 0 0 1 12.48-7.674q.138.033.276.07Z" fill="#a0616a"/><path d="m323.473 152.928-10.828 14.639 27.132 25.65a15.62 15.62 0 0 0 14.735 3.802 14.966 14.966 0 0 0 11.103-14.157l.718-59.046a16.136 16.136 0 0 0-14.947-16.4 15.303 15.303 0 0 0-16.43 14.087q-.019.237-.03.475a15.699 15.699 0 0 0 .01 1.691l3.299 42.708Z" fill="#e6e6e6"/><path d="m245.894 387.714-55.044-1.222 21.178-88.843-30.975-85.11.08-.302 22.895-87.616-26.154-79.756 50.558-20.686 29.817 103.383-.074.27-22.737 83.217 30.992 86.428-.065.284Zm-52.524-3.167 50.936 1.132 20.044-88.077-31.008-86.472 22.83-83.554-29.044-100.703-46.774 19.137 25.758 78.547-.075.285-22.89 87.599 30.966 85.089-.07.29Z" fill="#3f3d56"/><path d="M314.082 567.826a48.675 48.675 0 0 1-39.26-14.645c-6.59-6.949-11.112-15.893-15.486-24.542-1.274-2.517-2.59-5.12-3.929-7.614a15.534 15.534 0 0 1 1.612-17.332 15.272 15.272 0 0 1 16.303-5.209l.638.185 5.745 22.414c.857-3.344 2.696-10.876 3.857-18.256l.098-.619.572.255a78.133 78.133 0 0 1 16.786 10.116 80.529 80.529 0 0 1 30.112 60.643l.016.697Z" fill="#f2f2f2"/><path d="M230.39 38.09a26.132 26.132 0 0 1-12.48 22.28 19.17 19.17 0 0 1-1.77 1 25.78 25.78 0 0 1-6.9 2.4q-1.005.194-2.04.3a24.174 24.174 0 0 1-2.97.18 25.935 25.935 0 0 1-8.36-1.37v-.01a21.238 21.238 0 0 1-2.54-1 26.13 26.13 0 0 1-15.23-22.42c-.02-.45-.03-.91-.03-1.36 0-.21 0-.43.01-.64a26.159 26.159 0 0 1 52.31.64Zm27 86.5c0 .33-.01.65-.03.98a19.033 19.033 0 0 1-.15 2 26.194 26.194 0 0 1-19.47 22.36c-.8.2-1.6.37-2.42.5a26.247 26.247 0 0 1-4.09.32 25.627 25.627 0 0 1-3.74-.27c-.68-.09-1.36-.22-2.02-.37a25.762 25.762 0 0 1-9.14-4.02 22.5 22.5 0 0 1-1.66-1.25 26.148 26.148 0 0 1 1.29-41.48v-.01a20.118 20.118 0 0 1 1.74-1.15 25.779 25.779 0 0 1 9.69-3.49c.68-.1 1.37-.17 2.06-.21.59-.05 1.18-.07 1.78-.07a26.048 26.048 0 0 1 6.35.78 23.391 23.391 0 0 1 2.38.72 26.137 26.137 0 0 1 17.43 24.66Zm-23 86.5a26.13 26.13 0 0 1-10.72 21.1 18.974 18.974 0 0 1-1.68 1.13 25.25 25.25 0 0 1-6.42 2.87q-.975.3-1.98.51a26.451 26.451 0 0 1-10.78-.01 23.876 23.876 0 0 1-2.55-.68 26.18 26.18 0 0 1-18.16-23.52c-.02-.47-.03-.93-.03-1.4 0-.2 0-.4.01-.6a26.122 26.122 0 0 1 12.86-21.93 22.08 22.08 0 0 1 2.41-1.26 26.023 26.023 0 0 1 10.88-2.37c.24 0 .48 0 .72.02a20.157 20.157 0 0 1 2.06.13 25.488 25.488 0 0 1 7.35 1.89c.63.26 1.24.54 1.84.86a26.13 26.13 0 0 1 14.19 23.26Zm31 86.45v.05q0 .99-.09 1.95a26.132 26.132 0 0 1-18.91 23.2v.01a22.206 22.206 0 0 1-2.28.54 26.127 26.127 0 0 1-4.88.46 24.617 24.617 0 0 1-3.11-.19c-.67-.07-1.34-.18-2-.31a25.91 25.91 0 0 1-9.68-4.08 21.401 21.401 0 0 1-1.72-1.29 26.151 26.151 0 0 1-2.02-38.75v-.01c.51-.51 1.04-1 1.59-1.46a25.815 25.815 0 0 1 8.71-4.9c.64-.22 1.28-.41 1.94-.57a26.045 26.045 0 0 1 6.29-.76q.57 0 1.14.03c.78.03 1.56.1 2.32.2v.01h.01a26.13 26.13 0 0 1 22.69 25.87Zm-21 86.55a26.16 26.16 0 0 1-52.28 1.43c-.03-.48-.04-.95-.04-1.43 0-.19 0-.38.01-.57a26.124 26.124 0 0 1 13.64-22.41 23.41 23.41 0 0 1 2.68-1.26 25.896 25.896 0 0 1 9.83-1.92q.885 0 1.77.06c.7.05 1.39.12 2.07.22a25.44 25.44 0 0 1 6.99 2.07q.915.404 1.8.9a26.13 26.13 0 0 1 13.53 22.91Z" fill="#e6e6e6"/><path d="M437.12 19.39c34.543 68.684-34.176 59.098-44.58 58.231-20.039-1.67-37.343 3.734-35.476-42.012C357.884 15.517 379.9 0 400.01 0s28.075 1.424 37.11 19.39Z" fill="#2f2e41"/><path fill="#a0616a" d="m428.263 545.794 14.516-.001 6.906-55.992-21.425.001.003 55.992z"/><path d="M447.61 547.1v-9.84l-3.817.233-15.535.92-3.595.22-2.749 32.96-.147 1.767h10.308l.33-1.755 1.498-7.976 3.865 7.976.847 1.755h27.327a6.175 6.175 0 0 0 6.136-6.147c1.153-5.387-21.573-17.032-24.468-20.112Z" fill="#2f2e41"/><path fill="#a0616a" d="m362.977 545.794-14.516-.001-6.906-55.992 21.425.001-.003 55.992z"/><path d="M343.63 547.1v-9.84l3.817.233 15.535.92 3.595.22 2.749 32.96.147 1.767h-10.308l-.33-1.755-1.498-7.976-3.865 7.976-.847 1.755h-27.327a6.175 6.175 0 0 1-6.136-6.147c-1.153-5.387 21.573-17.032 24.468-20.112Zm-2.312-281.613s-9.985 55.897-4.608 87.388c.41 7.514-5.436 30.09-4.59 56.514 1.39 43.434 9.599 96.937 7 109l28-2s.932-11.796 2.498-29.888c.187-2.164-2.703-4.777-2.498-7.112.24-2.724 3.576-5.198 3.838-8.127q.325-3.638.671-7.463c.184-2.027-2.701-3.315-2.509-5.41.238-2.594 3.557-6.012 3.808-8.696 1.525-16.315 3.271-34.12 5.139-51.584a2243.844 2243.844 0 0 1 3.811-33.464c.283-2.312-2.043-5.011-1.758-7.256.291-2.294 3.194-4.133 3.486-6.346.412-3.11 4.1-3.733 4.514-6.654.331-2.342-2.614-7.02-2.282-9.223 3.241-21.557 6.46-36.03 9.247-35.826 2.299.168 4.941 10.136 7.676 25.707.345 1.965 4.012 4.208 4.359 6.342.36 2.215-2.598 4.327-2.236 6.707.385 2.531-1.15 5.598-.764 8.293.372 2.604 2.665 4.832 3.036 7.569 4.175 30.75 8.254 69.215 11.366 100.884.243 2.477 3.367 5.16 3.598 7.547.245 2.527-2.404 4.753-2.174 7.163.314 3.29 4.89 6.801 5.174 9.837.281 3.005-3.728 5.537-3.478 8.252 1.554 16.872 2.478 27.748 2.478 27.748l28 1s-.964-156.428 3.645-172.174 1.536-72.43-9.986-78.728-104.46 0-104.46 0Z" fill="#2f2e41"/><path d="m380.854 81.903-3.401 17.008-34.333 11.478 12.301 92.837-13.243 60.024c-3.415 3.957-4.72 7.943-2.642 11.976l112.584 1.163c2.12-4.05 2.846-8.04 0-12l-5-8-5-12 1-5-2.53-10.872-1.923-6.804-3.246-11.487 20.193-93.403-35.984-13.943-6.46-20.977Z" fill="#e6e6e6"/><circle cx="393.394" cy="45.437" r="28.089" fill="#a0616a"/><path d="M429.885 34.675c-3.37 3.333-6.087 5.602-11.203 5.602-12.94 2.96-25.254 4.668-36.13 3.566a13.458 13.458 0 0 0-1.168-8.075 10.219 10.219 0 0 1-4.2 7.272 43.415 43.415 0 0 1-8.917-2.763 18.597 18.597 0 0 1-11.1-3.66c-5.48-23.639 15.255-31.733 36.774-29.016a40.981 40.981 0 0 1 7.628-.728c16.039 0 26.411 10.027 28.316 27.802Z" fill="#2f2e41"/><path d="M226.59 152.39c-.07.16-.15.31-.23.46l-11.37 22.45a68.42 68.42 0 0 0-2.31 5.09h-2.15a62.694 62.694 0 0 1 2.67-6l11.16-22Zm1.19-58h-2.2a65.63 65.63 0 0 0-8.49-13.67 67.945 67.945 0 0 1-8.88-14.33h2.22a65.384 65.384 0 0 0 8.22 13.08 67.31 67.31 0 0 1 9.13 14.92Zm3.33 173.999h-2.22l-13.52-28h2.23l13.51 28zm1.84 58.001h2.15c-.15.39-.3.77-.46 1.16l-11 26.84h-2.16l11.31-27.6c.05-.13.11-.27.16-.4Zm10 0h2.15c-.15.39-.3.77-.46 1.16l-11 26.84h-2.16l11.31-27.6c.05-.13.11-.27.16-.4Zm-6.36-174c-.08.15-.15.31-.23.46l-11.37 22.45q-1.275 2.504-2.31 5.09h-2.16a65.366 65.366 0 0 1 2.68-6l11.16-22Zm1.18-58h-2.19a65.89 65.89 0 0 0-8.49-13.67 67.945 67.945 0 0 1-8.88-14.33h2.21a66.347 66.347 0 0 0 8.23 13.08 67.27 67.27 0 0 1 9.12 14.92Zm3.34 173.999h-2.22l-13.51-28h2.22l13.51 28zm-21.16 58.001h2.15c-.15.39-.3.77-.46 1.16l-11 26.84h-2.16l11.31-27.6c.05-.13.11-.27.16-.4Zm-6.36-174c-.08.16-.15.31-.23.46l-11.37 22.45q-1.275 2.504-2.3 5.09h-2.16a65.293 65.293 0 0 1 2.67-6l11.16-22Zm1.19-58h-2.19a65.673 65.673 0 0 0-8.5-13.67 68.198 68.198 0 0 1-8.88-14.33h2.21a66.175 66.175 0 0 0 8.23 13.08 67.77 67.77 0 0 1 9.13 14.92ZM204.6 240.389l13.51 28h-2.22l-13.52-28h2.23z" fill="#3f3d56"/><path d="M66 29.57H13a13 13 0 1 0 0 26h53a13 13 0 0 0 0-26Z" fill="#189366"/><path fill="#3f3d56" d="m91.676 38.7 102.42-1.48.029 2-102.42 1.48z"/><path d="M85 375.57H32a13 13 0 1 0 0 26h53a13 13 0 0 0 0-26Z" fill="#189366"/><path fill="#3f3d56" d="m110.675 384.7 102.42-1.478.028 2-102.42 1.479z"/><path d="M73 202.57H20a13 13 0 1 0 0 26h53a13 13 0 0 0 0-26Z" fill="#189366"/><path fill="#3f3d56" d="m98.675 211.7 102.42-1.479.03 2-102.42 1.479z"/><path d="M414.24 117.57h-53a13 13 0 0 0 0 26h53a13 13 0 0 0 0-26Z" fill="#189366"/><path fill="#3f3d56" d="m348.585 128.696-115.468-1.479.029-2 115.468 1.479-.029 2z"/><path d="M424.24 289.57h-53a13 13 0 0 0 0 26h53a13 13 0 0 0 0-26Z" fill="#189366"/><path fill="#3f3d56" d="m243.117 299.216.029-2 102.42 1.48-.03 2z"/><path d="m519.33 575.416-278.75.308a1.19 1.19 0 1 1 0-2.382l278.75-.307a1.19 1.19 0 1 1 0 2.381Z" fill="#cacaca"/><path d="M393.527 129.678a10.855 10.855 0 0 1 7.89 12.922 10.413 10.413 0 0 1-.546 1.633l27.767 25.751-18.855 4.432-23.478-25.133a10.825 10.825 0 0 1-5.534-12.001 10.36 10.36 0 0 1 12.48-7.674q.138.033.276.07Z" fill="#a0616a"/><path d="m419.473 158.928-10.828 14.639 27.132 25.65a15.62 15.62 0 0 0 14.735 3.802 14.966 14.966 0 0 0 11.103-14.157l.718-59.046a16.136 16.136 0 0 0-14.947-16.4 15.303 15.303 0 0 0-16.43 14.087q-.019.237-.03.475a15.699 15.699 0 0 0 .01 1.691l3.299 42.708Z" fill="#e6e6e6"/></svg>