<svg xmlns="http://www.w3.org/2000/svg" data-name="Layer 1" width="675.033" height="423.655"><path d="M70.72 138.058a9.646 9.646 0 0 1-5.687-1.883l-13.705-9.958a6.642 6.642 0 0 0-7.834 0l-13.706 9.958a9.675 9.675 0 0 1-14.89-10.816l5.236-16.112a6.65 6.65 0 0 0-2.42-7.452L4.008 91.837a9.675 9.675 0 0 1 5.687-17.502h16.941a6.648 6.648 0 0 0 6.338-4.605l5.235-16.112a9.675 9.675 0 0 1 18.404 0l5.235 16.112a6.649 6.649 0 0 0 6.338 4.605h16.941a9.675 9.675 0 0 1 5.688 17.502l-13.706 9.958a6.648 6.648 0 0 0-2.422 7.452l5.236 16.112a9.53 9.53 0 0 1-3.515 10.816 9.645 9.645 0 0 1-5.687 1.883Zm138.887 0a9.645 9.645 0 0 1-5.686-1.883l-13.706-9.958a6.657 6.657 0 0 0-7.835 0l-13.705 9.958a9.675 9.675 0 0 1-14.889-10.816l5.235-16.112a6.65 6.65 0 0 0-2.421-7.452l-13.706-9.958a9.675 9.675 0 0 1 5.688-17.502h16.94a6.648 6.648 0 0 0 6.339-4.605l5.235-16.112a9.675 9.675 0 0 1 18.404 0l5.235 16.112a6.648 6.648 0 0 0 6.338 4.605h16.94a9.675 9.675 0 0 1 5.688 17.502l-13.706 9.958a6.65 6.65 0 0 0-2.42 7.452l5.234 16.112a9.53 9.53 0 0 1-3.514 10.816 9.647 9.647 0 0 1-5.688 1.883Z" fill="#189366"/><path d="M300.666 138.618a10.601 10.601 0 0 1-6.246-2.066 10.472 10.472 0 0 1-3.862-11.884l5.236-16.11a5.698 5.698 0 0 0-2.075-6.387l-13.706-9.958a10.628 10.628 0 0 1 6.247-19.226h16.941a5.696 5.696 0 0 0 5.432-3.947l5.236-16.111a10.628 10.628 0 0 1 20.215 0l5.235 16.111a5.698 5.698 0 0 0 5.432 3.947h16.941a10.628 10.628 0 0 1 6.248 19.226l-13.706 9.958a5.696 5.696 0 0 0-2.076 6.386l5.236 16.111a10.628 10.628 0 0 1-16.355 11.883l-13.705-9.958a5.697 5.697 0 0 0-6.716 0l-13.705 9.958a10.593 10.593 0 0 1-6.247 2.067Zm23.31-18.037a10.606 10.606 0 0 1 6.246 2.035l13.706 9.957a5.712 5.712 0 0 0 8.79-6.385l-5.235-16.112a10.6 10.6 0 0 1 3.862-11.882l13.705-9.958a5.712 5.712 0 0 0-3.358-10.333h-16.94a10.6 10.6 0 0 1-10.108-7.343l-5.235-16.112a5.712 5.712 0 0 0-10.865 0l-5.236 16.112a10.599 10.599 0 0 1-10.107 7.343h-16.94a5.712 5.712 0 0 0-3.359 10.333l13.707 9.958a10.602 10.602 0 0 1 3.86 11.882l-5.236 16.112a5.712 5.712 0 0 0 8.79 6.385l13.707-9.957a10.61 10.61 0 0 1 6.246-2.035Z" fill="#3f3d56"/><path d="m558.53 163.327-33.67 28.945-52.772 45.349-7.132 6.132a6.47 6.47 0 0 0-2.259 4.455 6.555 6.555 0 0 0 .758 3.58 6.49 6.49 0 0 0 .8 1.159l3.825 4.455 5.824 6.775c.108.12.209.232.324.346a6.53 6.53 0 0 0 8.872.342l59.84-51.417 33.74-29.001a6.53 6.53 0 0 0 .688-9.196l-2.036-2.367-7.608-8.856a6.512 6.512 0 0 0-9.194-.701Z" fill="#189366"/><circle cx="584.19" cy="85.293" r="53.681" fill="#189366"/><path d="M588.135 293.753v123.382a6.526 6.526 0 0 0 6.52 6.52h14.804a6.526 6.526 0 0 0 6.52-6.52V293.753a6.526 6.526 0 0 0-6.52-6.52h-14.804a6.526 6.526 0 0 0-6.52 6.52Zm-31.285 0v123.382a6.52 6.52 0 0 0 6.52 6.52h14.805a6.526 6.526 0 0 0 6.52-6.52V293.753a6.526 6.526 0 0 0-6.52-6.52H563.37a6.52 6.52 0 0 0-6.52 6.52Z" fill="#2f2e41"/><path d="M562.86 310.656a37.102 37.102 0 0 1-36.137-45.354l16.747-73.412a41.311 41.311 0 0 1 65.4-33.499 41.41 41.41 0 0 1 17.26 33.576c.023.663 2.358 68.934 3.337 100.483a16.391 16.391 0 0 1-15.96 16.892l-49.451 1.295c-.4.012-.798.019-1.195.019Zm-24.002-201.633.056-2.006c-3.732-.104-7.022-.338-9.495-2.144a6.167 6.167 0 0 1-2.388-4.542 3.525 3.525 0 0 1 1.156-2.904c1.641-1.386 4.282-.937 6.207-.054l1.66.76-3.183-23.26-1.988.272 2.708 19.787c-2.616-.77-5.039-.438-6.699.963a5.488 5.488 0 0 0-1.866 4.506 8.157 8.157 0 0 0 3.21 6.092c3.177 2.321 7.305 2.437 10.622 2.53Zm5.495-32.171h10.804v2.006h-10.804z" fill="#2f2e41"/><path d="m598.215 173.35 1.846 44.364 2.878 69.52.392 9.398a6.47 6.47 0 0 0 2.096 4.534 6.555 6.555 0 0 0 3.28 1.625 6.488 6.488 0 0 0 1.404.09l5.868-.24 8.926-.372c.161-.01.311-.02.472-.04a6.53 6.53 0 0 0 5.767-6.75l-3.26-78.828-1.845-44.454a6.53 6.53 0 0 0-6.79-6.239l-3.12.13-11.665.482a6.512 6.512 0 0 0-6.249 6.78Z" fill="#189366"/><path d="M593.712 177.102v34.103a6.515 6.515 0 0 0 6.349 6.51.923.923 0 0 0 .17.01h24.073a6.248 6.248 0 0 0 1.153-.111 6.426 6.426 0 0 0 2.428-.963 6.547 6.547 0 0 0 2.939-5.446v-34.103a18.578 18.578 0 0 0-18.556-18.556 18.143 18.143 0 0 0-3.792.391 18.585 18.585 0 0 0-14.764 18.165Zm-70.332 14.233a6.447 6.447 0 0 0 1.193 2.217l15.246 18.626a5.403 5.403 0 0 0 .933.922 6.516 6.516 0 0 0 8.245-.01l26.39-21.595a18.557 18.557 0 1 0-23.512-28.716l-26.389 21.595a6.555 6.555 0 0 0-2.106 6.96Zm52.59-137.606c-8.942 3.723-18.573 7.842-28.484 6.701-8.119-.935-15.921-5.682-17.791-14.07-1.787-8.016 1.907-16.378 7.795-21.748 6.66-6.073 15.854-9.012 24.63-10.251 5.301-.75 11.192-.798 16.08 1.684 3.913 1.987 7.43 5.578 8.035 10.093l3.76-1.018c-2.657-4.505-1.386-9.964 1.554-14.01 3.535-4.865 9.47-6.891 15.298-7.06 11.854-.345 23.982 5.156 33.527 11.813a73.867 73.867 0 0 1 22.6 25.353c6.126 11.336 9.5 24.891 7.439 37.754-2.097 13.092-10.566 25.515-23.675 29.455-2.48.746-1.424 4.642 1.073 3.892 12.514-3.762 21.758-14.599 25.308-26.956 4.08-14.201 1.274-29.754-4.985-42.884a77.867 77.867 0 0 0-24.119-28.947C633.731 5.95 620.402-.15 607.411.003 599.947.09 592.717 2.75 588.2 8.89c-3.857 5.243-5.095 12.491-1.688 18.265.935 1.586 4.039 1.066 3.76-1.018-1.417-10.565-11.641-15.996-21.487-16.23a55.233 55.233 0 0 0-16.398 2.424 47.283 47.283 0 0 0-13.817 6.315c-7.951 5.504-13.544 14.294-13.32 24.192.223 9.875 6.875 17.46 16.095 20.38 12.168 3.854 24.507-.94 35.7-5.599a2.088 2.088 0 0 0 1.408-2.482 2.029 2.029 0 0 0-2.482-1.41Z" fill="#2f2e41"/><path d="M412.17 251.526a10.601 10.601 0 0 1-6.247-2.066 10.472 10.472 0 0 1-3.862-11.884l5.236-16.111a5.698 5.698 0 0 0-2.075-6.386l-13.706-9.958a10.628 10.628 0 0 1 6.247-19.226h16.941a5.696 5.696 0 0 0 5.432-3.947l5.236-16.111a10.628 10.628 0 0 1 20.215 0l5.235 16.111a5.698 5.698 0 0 0 5.432 3.947h16.941a10.628 10.628 0 0 1 6.247 19.226l-13.705 9.958a5.696 5.696 0 0 0-2.076 6.386l5.236 16.111a10.628 10.628 0 0 1-16.355 11.883l-13.705-9.958a5.697 5.697 0 0 0-6.716 0l-13.705 9.958a10.593 10.593 0 0 1-6.247 2.067Zm23.31-18.037a10.606 10.606 0 0 1 6.245 2.035l13.706 9.957a5.712 5.712 0 0 0 8.79-6.385l-5.235-16.112a10.6 10.6 0 0 1 3.861-11.882l13.706-9.958a5.712 5.712 0 0 0-3.358-10.333h-16.94a10.6 10.6 0 0 1-10.108-7.343l-5.236-16.112a5.712 5.712 0 0 0-10.865 0l-5.235 16.112a10.599 10.599 0 0 1-10.107 7.343h-16.94a5.712 5.712 0 0 0-3.359 10.333l13.707 9.958a10.602 10.602 0 0 1 3.86 11.882l-5.236 16.112a5.712 5.712 0 0 0 8.79 6.385l13.707-9.957a10.61 10.61 0 0 1 6.246-2.035Z" fill="#3f3d56"/></svg>