<svg width="115" height="93" fill="none" xmlns="http://www.w3.org/2000/svg"><path d="M1.574 89.437c.375-.315.828-.186 1.26-.186 2.86 0 5.725-.063 8.583.019 1.159.035 1.52-.24 1.517-1.473-.05-12.424-.031-24.848-.031-37.272v-9.29c.418-.48.995-.418 1.533-.418 14.718-.012 29.435-.012 44.15 0 .51 0 1.026 0 1.473.315.396.507.34 1.111.34 1.697v44.744c0 1.832-.199 2.005-2.043 2.012-1.845.006-3.61 0-5.414 0-.47 0-.945.05-1.376-.214-.557-.63-.393-1.41-.393-2.138-.013-9.684-.013-19.368 0-29.05V56.89c0-1.259-.51-2.112-1.77-2.433-1.573-.409-3.223-.315-4.793-.132-2.04.242-4.067.176-6.1.208-2.31.031-4.624 0-6.925 0-2.021 0-2.48.463-2.484 2.518-.013 10.154-.013 20.309 0 30.463 0 .693.129 1.423-.334 2.046-.522.362-1.123.315-1.709.315H3.41c-.676-.019-1.34.101-1.835-.437Z" fill="#F3F3F3"/><path d="M59.981 41.236c-1.486 0-2.974-.038-4.46-.038H14.286c-.47 0-.944.022-1.407.038l-2.471-.041a2.57 2.57 0 0 1-2.437-1.542 2.398 2.398 0 0 1 .39-2.833c1.014-1.093 2.103-2.112 3.148-3.148L36.666 8.72c2.417 2.291 4.722 4.678 7.082 7.038 6.743 6.78 13.73 13.312 20.404 20.146.579.591 1.164 1.158 1.259 2.052.204 1.712-.491 2.833-2.248 3.522-1.054.025-2.15.302-3.182-.242ZM48.683 13.69l20.992-.04c1.259 0 2.502-.02 3.752-.032.894-.592 1.889-.268 2.849-.33.66-.042 1.323-.032 1.983.028.127.014.252.04.374.079.327.135.618.344.85.61 2.518 2.518 5.106 4.96 7.643 7.457 4.158 4.092 8.458 8.03 12.528 12.213.868.894 1.92 1.609 2.745 2.556 1.718 1.983 1.12 4.316-1.341 5.244-1.63.148-3.261.066-4.892.066-8.35.026-16.702.114-25.046-.04-.523-.145-.78-.315-.258-.847 1.728-1.7 1.725-2.594.025-4.294-7.089-7.088-14.174-14.18-21.257-21.272-.396-.397-.979-.699-.947-1.398Z" fill="#2ECC82"/><path d="M1.436 89.42h24.676a1.916 1.916 0 0 1 1.228-.344c4.76 0 9.518-.047 14.279.029 1.82.066 3.653-.285 5.462.218 2.362.04 4.728.095 7.089 0 13.088-.512 26.182-.155 39.27-.13 3.597 0 7.214-.057 10.813.221 1.112.399 1.635 1.145 1.472 2.09-.164.946-.863 1.496-2.013 1.496H1.948C.829 92.978.068 92.396.01 91.42c-.092-1.11.454-1.762 1.426-2Z" fill="#2D2B2B"/><path d="M114.148 89.44c-6.392.013-12.785.023-19.18.032H51.53c-.07-.057-.091-.108-.063-.155.028-.047.057-.069.082-.069 2.392 0 4.785-.038 7.174.019.944.025 1.28-.211 1.278-1.225-.032-15.6-.041-31.2-.029-46.8l3.557-.066c2.119-.504 4.237-.607 6.355 0-.097.667-.664.605-1.089.63-.878.031-1.158.494-1.13 1.287v43.615c0 2.153 0 2.153 2.204 2.153h24.933c.472 0 .944 0 1.413.031 1.999-.06 3.998-.022 5.981-.019.473-.054.95.078 1.328.369 3.116 0 6.236 0 9.352.015.453.004.9-.138 1.272.183Z" fill="#DEDEDE"/><path d="M103.562 89.242h-7.303c-.484-.57-.374-1.26-.374-1.917 0-8.046-.032-16.091 0-24.137a2.12 2.12 0 0 0-.057-.466 111.5 111.5 0 0 0 0-7.68c.107-4.001 0-8.005.05-12.006 0-.63-.116-1.259.366-1.794l5.2-.07c1.816-.629 3.679-.314 5.527-.27a.755.755 0 0 1 .589.33c-.857.422-1.779.212-2.654.168-1.073-.05-1.385.273-1.382 1.372.038 13.923.046 27.846.025 41.767l.013 4.703Z" fill="#DEDEDE"/><path d="m69.877 41.23-6.34-.06c2.131-1.344 2.125-3.541.315-5.254-3.903-3.68-7.533-7.652-11.442-11.331-5.112-4.8-9.937-9.884-14.955-14.795-.315-.314-.768-.576-.777-1.12 2.077-1.977 4.74-1.983 6.887.034 1.731 1.63 3.418 3.305 5.125 4.961 3.315 3.34 6.632 6.678 9.95 10.013 4.158 4.168 8.32 8.329 12.483 12.484 1.983 1.983 1.823 3.484-.538 4.976a.482.482 0 0 1-.708.092Zm37.693 0-6.116-.06c2.128-1.66 2.289-3.33.315-5.16-2.877-2.653-5.537-5.527-8.423-8.161-2.575-2.349-4.901-4.952-7.489-7.271-2.452-2.204-4.746-4.54-7.02-6.907.14-.075-.065-.047.083-.082a14.503 14.503 0 0 1 6.94.035l22.765 22.088c.223.22.447.44.673.657.882.844 1.351 1.798.879 3.047-.473 1.25-1.345 1.776-2.607 1.814Z" fill="#126F43"/><path d="m85.856 13.618-7.022.047-.233-.063c-.45-.485-.368-1.095-.372-1.678v-8.12c0-1.02.054-2.04-.478-2.985-.24-.428-.17-.749.44-.73 1.955.06 3.916-.11 5.871.094 1.26.315 1.813.98 1.816 2.314.004 3.714-.012 7.422-.022 11.12Z" fill="#2D2B2B"/><path d="M84.059.19h-6.5c1.12.979 1.05 2.03 1.045 3.085-.02 3.443 0 6.89 0 10.333l-5.163.01V2.708c0-1.772.724-2.436 2.456-2.565 2.304-.174 4.608-.104 6.925-.12.403-.003.85-.11 1.237.167ZM45.62 89.478l-17.028-.022c.016-3.529.038-7.06.04-10.59V56.739c0-1.954.662-2.619 2.598-2.631h4.12c4.271-.038 8.546-.085 12.82-.117.422 0 .866-.104 1.26.148-.907.705-1.965.315-2.953.39-1.114.067-1.127.029-.768 1.07a5.91 5.91 0 0 1 .274 1.971v30.234c.006.564.072 1.171-.362 1.675Z" fill="#575757"/><path d="M45.62 89.478V58.12c0-1.382-.028-2.72-1.227-3.988h5.036c1.495.208 2.068.91 2.071 2.572v31.143c0 .47.028.945.044 1.407a.45.45 0 0 0-.019.224H45.62Z" fill="#2D2B2B"/><path d="m69.875 41.23.702-.066 23.923.034c.585 0 1.17.025 1.756.041v12.657c0 .41.154.872-.252 1.206-.667-.101-1.083-.746-1.772-.806-5.575-.098-11.146-.05-16.717.028-2.122.028-2.783.844-2.796 2.927v3.18c0 2.279.74 3 3.063 3.012 3.777.022 7.536-.028 11.304.022.856 0 1.715-.038 2.571 0 1.536.079 3.028-.019 4.385-.84.362.358.21.815.214 1.227v25.38c-9.26 0-18.521 0-27.778.028-1.036 0-1.212-.368-1.212-1.293.025-15.065.025-30.131 0-45.198 0-1.083.29-1.498 1.375-1.366.39.056.863.157 1.234-.173Z" fill="#F3F3F3"/><path d="M94.619 54.145c.658.034 1.02.497 1.385.944.406.63.277 1.37.245 2.059-.082 1.822.27 3.663-.207 5.47-.558.882-1.392 1.184-2.393 1.171-1.48-.019-2.962-.019-4.441-.025a.564.564 0 0 1-.016-.658c1.26-2.713 1.146-5.464.154-8.209-.248-.69-.167-.922.589-.881 1.558.097 3.126-.107 4.684.129Z" fill="#2ECC82"/><path d="M37.613 72.647a1.72 1.72 0 0 1-1.766 1.756 1.807 1.807 0 0 1-1.763-1.794 1.82 1.82 0 0 1 1.74-1.734 1.807 1.807 0 0 1 1.789 1.772Z" fill="#7E8A95"/><path d="M94.619 54.145h-5.1c1.111 3.276 1.543 6.484-.315 9.632-4.113 0-8.23.025-12.345 0-1.485 0-2.477-1.03-2.496-2.519a189.524 189.524 0 0 1 0-4.822c.019-1.31.705-2.093 1.999-2.316.496-.101.999-.16 1.505-.177a2112.36 2112.36 0 0 1 15.518 0c.418-.015.875-.157 1.234.202Z" fill="#85F5C1"/></svg>