<svg width="93" height="101" viewBox="0 0 93 101" fill="none" xmlns="http://www.w3.org/2000/svg">
<g clip-path="url(#clip0_430_276)">
<path opacity="0.9" d="M80.5663 0.00793457C81.1985 0.511168 81.4092 1.14662 81.4033 1.96956C81.3659 6.50853 81.3836 11.0317 81.3816 15.5628C80.9877 16.0187 80.4284 15.916 79.9203 15.9239C77.5747 15.9595 75.231 15.8884 72.8854 15.9713C69.9312 15.8568 66.977 15.997 64.0327 15.8884C61.1415 16.0048 58.2444 15.847 55.3532 15.9812C52.399 15.8411 49.4448 16.0029 46.4906 15.8924C43.6133 15.9654 40.7359 15.9456 37.8565 15.9062C34.9023 15.9338 31.9698 15.9733 29.0255 15.8943C26.538 15.9634 24.0506 15.916 21.5612 15.922C21.2009 15.9515 20.8387 15.8961 20.5036 15.7601C20.4465 15.733 20.3979 15.6907 20.3631 15.6378C20.3284 15.5849 20.3089 15.5235 20.3066 15.4602C21.3465 14.9964 21.3977 14.1222 21.3879 13.1236C21.3465 9.2852 21.3682 5.44483 21.376 1.60447C21.376 1.05584 21.2913 0.477619 21.7049 0.00793457H80.5663Z" fill="#575757"/>
<path d="M81.3544 93.0923C82.2092 93.418 83.0935 93.2028 83.964 93.2325C85.1358 93.2739 86.3116 93.2325 87.4854 93.2482C88.6592 93.264 89.1338 93.7337 89.1476 94.9316C89.1693 96.5972 89.1476 98.2628 89.1476 99.9304C89.1476 100.288 89.1831 100.645 89.2028 101.002H14.0166C13.7816 100.724 13.6636 100.365 13.6876 100.001C13.6666 98.0714 13.6666 96.1413 13.6876 94.2113C13.6706 93.8813 13.7604 93.5545 13.9437 93.2798C14.2307 93.0575 14.5906 92.9512 14.9521 92.9818C16.4173 92.9818 17.8846 92.9167 19.3479 93.0154C26.95 93.0331 34.5541 93.0687 42.1543 93.0154C54.8691 92.9187 67.582 93.0154 80.2949 92.9621C80.6529 92.9457 81.011 92.9897 81.3544 93.0923Z" fill="#686868"/>
<path d="M21.6954 0.00793457C21.6954 4.65347 21.6815 9.29901 21.7071 13.9445C21.7071 14.8306 21.7485 15.6102 20.5078 15.4483C20.4369 15.4483 20.3502 15.551 20.2695 15.6062C20.0252 15.8726 19.6944 15.9141 19.3655 15.918C17.0691 15.9476 14.7746 15.9555 12.4723 15.918C12.1454 15.918 11.8126 15.8647 11.5861 15.5746C11.5861 11.0357 11.5861 6.48682 11.5703 1.9439C11.5703 1.13873 11.7358 0.471697 12.4369 0.0118793L21.6954 0.00793457Z" fill="#2D2B2B"/>
<path d="M14.0185 93.3055C14.0185 95.871 14.0185 98.4365 14.0185 101.002H3.77734C3.77734 99.0285 3.77731 97.0551 3.79307 95.0915C3.79307 93.7278 4.33272 93.1752 5.68771 93.1614C7.3913 93.1437 9.09685 93.1397 10.8083 93.1614C11.3539 93.1614 11.6118 93.0055 11.535 92.4391C11.5331 92.4069 11.5331 92.3746 11.535 92.3424C11.5272 75.3312 11.5186 58.3212 11.5095 41.3126C11.5095 40.4265 11.4818 39.5365 11.4661 38.6523C11.2435 38.3011 11.1451 37.9873 11.7142 37.8945C11.8438 38.0363 11.9191 38.2195 11.927 38.4116C12.0963 45.7746 11.9821 53.1376 11.9979 60.4986C12.0195 70.5909 11.9979 80.6812 11.9979 90.7735C11.9979 91.1682 11.9978 91.5629 12.0136 91.9576C12.0274 92.4826 12.2775 92.7095 12.8014 92.7628C13.2465 92.8121 13.8137 92.67 14.0185 93.3055Z" fill="#2D2B2B"/>
<path d="M81.3549 93.0924C81.0969 93.3844 80.7483 93.2897 80.4313 93.2897C60.1931 93.2976 39.9555 93.3022 19.7186 93.3035C19.5886 93.3035 19.4567 93.3035 19.3247 93.2877C19.311 93.2594 19.3031 93.2286 19.3013 93.1971C19.2996 93.1657 19.304 93.1342 19.3144 93.1045C19.3249 93.0747 19.3411 93.0474 19.3621 93.024C19.3831 93.0006 19.4086 92.9816 19.437 92.968C20.2858 92.6227 21.1741 92.7983 22.0446 92.7825C23.181 92.7628 24.3212 92.7352 25.4596 92.8062C30.2789 92.7135 35.11 92.8062 39.9214 92.7628C42.4522 92.745 42.2079 93.0312 42.2099 90.5091C42.2178 78.2526 42.2178 65.9947 42.2099 53.7355C42.2099 51.2983 42.1449 51.243 39.7421 51.2312C35.0154 51.2095 30.2986 51.2884 25.5778 51.1937C24.3081 51.2187 23.0372 51.2187 21.7649 51.1937C20.9633 51.1779 20.209 51.2904 19.5197 51.7167C18.986 51.6594 19.0785 51.2115 19.0667 50.8918C19.0273 49.6445 19.047 48.3953 19.0549 47.1422C19.0417 46.8775 19.1102 46.6151 19.2512 46.3909C19.3922 46.1666 19.5987 45.9914 19.8427 45.889C21.2213 45.2299 22.1096 44.1445 22.6669 42.7433C22.7792 42.4611 22.8048 42.0131 23.2203 42.0309C23.6024 42.0467 23.6674 42.4591 23.7934 42.7552C25.0047 45.595 27.6969 46.9567 30.5802 46.1811C31.3478 45.9898 32.0621 45.6267 32.6696 45.1191C33.2771 44.6116 33.762 43.9727 34.0878 43.2505C34.2001 43.0137 34.2848 42.7631 34.4206 42.5361C34.7338 42.0092 35.0489 42.0053 35.3502 42.546C35.4763 42.7769 35.5472 43.0374 35.6614 43.2702C36.7249 45.3345 38.4699 46.4278 40.7348 46.4159C42.9996 46.4041 44.7288 45.2773 45.7648 43.2012C45.8101 43.1124 45.8357 43.0157 45.879 42.9288C46.0326 42.617 46.0759 42.1513 46.5269 42.1651C46.9208 42.1789 46.9819 42.5894 47.1178 42.8854C48.1025 45.1825 49.8987 46.4199 52.329 46.412C54.7593 46.4041 56.5574 45.1707 57.5264 42.8598C57.6485 42.5677 57.7135 42.1651 58.1172 42.1592C58.521 42.1533 58.6175 42.5539 58.7376 42.8361C59.5372 44.7878 60.9592 45.9443 63.035 46.3311C65.3708 46.7672 67.9586 45.4588 68.9985 43.2781C69.1265 43.0097 69.1955 42.7216 69.3451 42.4611C69.5953 42.0053 69.8828 42.0349 70.1546 42.4434C70.3241 42.7245 70.4722 43.0181 70.5977 43.3216C71.5824 45.3759 73.3116 46.3567 75.482 46.4219C77.7331 46.489 79.4071 45.3601 80.5573 43.4242C80.772 43.0611 80.7542 42.4888 81.3451 42.4118C81.3589 42.6723 81.3844 42.9348 81.3844 43.2012C81.3844 59.6678 81.3844 76.1344 81.3844 92.601C81.3785 92.7608 81.3687 92.9286 81.3549 93.0924Z" fill="#2ECC82"/>
<path d="M19.3429 93.1002C19.3386 93.166 19.3386 93.2319 19.3429 93.2976L14.0253 93.3114C13.6196 92.9779 13.1312 93.1141 12.6999 93.1496C11.851 93.2305 11.6777 92.8812 11.6777 92.0879C11.6961 74.3188 11.6961 56.5497 11.6777 38.7806C11.6777 38.6168 11.6896 38.453 11.6974 38.2892C12.1406 38.3346 12.1169 38.7431 12.2371 39.0194C13.8914 42.8242 18.8367 43.6787 21.6117 40.6297C22.1701 39.9798 22.5783 39.2142 22.8072 38.3879C22.882 38.1451 22.9155 37.8511 23.27 37.8393C23.6068 38.0484 23.6934 38.4116 23.8037 38.749C24.5817 41.1389 26.7993 42.4769 29.1508 42.4789C31.5851 42.4789 33.5033 41.0165 34.3404 38.674C34.4506 38.3622 34.3916 37.9162 34.88 37.8373C35.2739 38.0919 35.333 38.5418 35.4846 38.9326C35.8993 39.9768 36.6162 40.873 37.543 41.506C38.4698 42.139 39.5643 42.4798 40.686 42.4848C41.8255 42.4844 42.9377 42.1353 43.8739 41.4843C44.8101 40.8333 45.5256 39.9113 45.9247 38.8418C46.0449 38.5181 46.0449 38.1037 46.484 37.9853C46.9075 38.0425 46.9292 38.4155 47.0394 38.7115C47.908 41.0382 49.8932 42.4611 52.2861 42.4848C53.4435 42.4894 54.5736 42.133 55.5198 41.465C56.4659 40.7971 57.1811 39.8506 57.5662 38.7569C57.6745 38.4589 57.6962 38.0938 58.0882 37.9853C58.5608 38.0465 58.5825 38.4708 58.6967 38.7905C60.223 43.065 65.7139 43.5978 68.3018 40.4048C68.6564 39.9738 68.9348 39.4852 69.125 38.9602C69.2668 38.5655 69.322 38.1215 69.7021 37.8412C70.1826 37.8412 70.1393 38.2537 70.2397 38.5359C71.1102 41.0007 72.9773 42.4947 75.5435 42.4828C77.895 42.467 79.6498 41.2987 80.7015 39.1516C80.7924 38.9029 80.9256 38.6718 81.0954 38.4688C81.1346 38.4385 81.1828 38.4221 81.2323 38.4221C81.2818 38.4221 81.3299 38.4385 81.3692 38.4688C81.4673 39.7868 81.4601 41.1107 81.3475 42.4276C80.6306 44.0912 79.6419 45.4904 77.9009 46.2482C74.992 47.5132 71.3879 46.1179 70.3027 43.361C70.1629 43.0058 69.9699 42.6683 69.7336 42.1769C68.802 45.1095 66.805 46.6981 63.9315 46.7041C61.0581 46.71 59.1004 45.1115 58.1531 42.0191C57.1782 45.0523 55.2285 46.7001 52.3452 46.706C49.4619 46.712 47.4767 45.1016 46.5097 42.0487C45.5407 45.1134 43.5554 46.7218 40.6643 46.706C37.8105 46.6883 35.8529 45.0898 34.8898 42.0092C33.9051 45.1667 31.8628 46.8087 28.883 46.6981C26.0607 46.5935 24.0834 45.0069 23.2602 41.9342C22.624 44.0221 21.6018 45.5042 19.7446 46.264C19.3153 46.4396 19.3508 46.8047 19.3508 47.1718C19.3586 48.6834 19.3646 50.1964 19.3685 51.7107C19.7309 52.0798 19.6915 52.5574 19.6915 53.0093C19.702 65.9434 19.702 78.8762 19.6915 91.8076C19.6737 92.2576 19.6895 92.7273 19.3429 93.1002Z" fill="#1AAB67"/>
<path d="M72.8174 15.7265C73.1365 15.4818 73.5067 15.5785 73.8553 15.5765C76.3625 15.5627 78.8696 15.5607 81.3748 15.5548L92.7641 30.7761C92.6657 31.3425 92.1989 31.2419 91.8444 31.2419C88.4589 31.2419 85.0734 31.2991 81.6918 31.2222C81.1758 31.1353 80.9572 30.7268 80.7308 30.3242C78.2177 25.8859 75.7756 21.4061 73.2153 16.9935C72.9947 16.6126 72.6894 16.2337 72.8174 15.7265Z" fill="#DCEAFC"/>
<path d="M92.9577 31.1709C92.9577 33.3299 93.0464 35.4928 92.9577 37.6478C92.8612 40.0338 90.8623 42.1868 88.5107 42.6151C85.7042 43.1341 83.1577 41.9638 81.9878 39.5917C81.8067 39.1765 81.647 38.7524 81.5093 38.3208C81.3706 38.1777 81.291 37.9874 81.2867 37.788C81.2375 35.7908 81.2434 33.7937 81.2867 31.7965C81.2867 31.3505 81.4837 31.0644 82.0036 31.0703C85.6255 31.1078 89.2512 31.0032 92.8731 31.1275C92.9037 31.1367 92.9324 31.1514 92.9577 31.1709Z" fill="#ECF5FE"/>
<path d="M92.9589 31.1709C89.5143 31.1709 86.0658 31.2045 82.6291 31.1453C81.6857 31.1275 81.4809 31.4433 81.5046 32.3155C81.5577 34.3147 81.5046 36.3177 81.5046 38.3208L81.3529 38.455C81.2974 38.4682 81.2406 38.4754 81.1835 38.4767C81.1305 38.4379 81.0867 38.3879 81.055 38.3303C81.0234 38.2727 81.0047 38.2088 81.0004 38.1432C81.0811 35.8402 80.8665 33.5312 81.1323 31.2361C81.1784 31.1168 81.2594 31.0143 81.3647 30.942L92.1357 30.9736C92.3602 30.9736 92.6005 31.0071 92.758 30.7762C92.8342 30.8056 92.8969 30.8622 92.934 30.935C92.9711 31.0079 92.9799 31.0919 92.9589 31.1709Z" fill="#ABB4BC"/>
<path d="M11.5922 15.5627L20.2716 15.5983L20.2913 15.6417C20.4351 15.9949 20.246 16.2791 20.0944 16.5613C17.5341 21.2286 14.897 25.8623 12.2815 30.5019C12.1378 30.7584 12.0058 31.0248 11.7143 31.1571C11.6057 31.1997 11.4917 31.227 11.3755 31.238C8.03928 31.2774 4.70497 31.2557 1.37067 31.238C0.966928 31.238 0.409576 31.4353 0.244141 30.7762L10.5287 16.9797C10.8812 16.5021 11.2416 16.0324 11.5922 15.5627Z" fill="#126F43"/>
<path d="M11.6486 37.8708C11.4122 38.0918 11.493 38.3878 11.4516 38.6602C9.84847 41.946 7.68006 43.1853 4.52301 42.6189C2.14784 42.1946 0.127205 40.0534 0.0307014 37.6695C-0.0559549 35.4987 0.0307014 33.3278 0.0307014 31.1709C0.333999 30.9893 0.668781 31.0801 0.987833 31.0781C4.21644 31.0702 7.44508 31.0702 10.6737 31.0781C10.9947 31.0781 11.3275 31.0051 11.6367 31.161C11.9105 31.3978 11.9577 31.7293 11.9656 32.0569C12.0037 33.6975 12.0037 35.3375 11.9656 36.9768C11.9696 37.3064 11.9243 37.634 11.6486 37.8708Z" fill="#2ECC82"/>
<path d="M11.6346 31.1768H0.0502259C0.0341921 31.0984 0.0449025 31.0169 0.0806141 30.9453C0.116326 30.8738 0.17497 30.8163 0.247172 30.7821C0.507141 31.0742 0.855771 30.9696 1.16892 30.9696C4.66537 30.9696 8.16117 30.9696 11.6563 30.9696L11.7291 31.084L11.6346 31.1768Z" fill="#9C4E59"/>
<path d="M81.3698 30.938L81.3028 31.157C81.1877 31.2746 81.0479 31.365 80.8936 31.4216C80.7393 31.4783 80.5743 31.4998 80.4107 31.4846C76.9838 31.4846 73.5569 31.5754 70.1301 31.4412C70.0125 31.4181 69.899 31.3775 69.7933 31.3208C69.6038 31.1914 69.4505 31.0154 69.3482 30.8097C67.5206 26.1484 65.7776 21.4535 64.0858 16.7369C63.9578 16.3797 63.751 16.0067 63.9991 15.6101C66.7564 15.5982 69.5038 15.5824 72.2571 15.5785C72.4492 15.6034 72.6371 15.6531 72.8164 15.7265L81.3698 30.938Z" fill="#126F43"/>
<path d="M28.9855 15.5983L37.789 15.6239C38.0214 15.989 37.9445 16.3857 37.8776 16.7685C37.0721 21.4042 36.1819 26.0241 35.3015 30.6479C35.2325 30.8751 35.104 31.0795 34.9293 31.24C34.828 31.3098 34.7164 31.3631 34.5984 31.3978C32.4438 31.5952 30.2853 31.463 28.1287 31.4768C26.626 31.4768 25.1214 31.5695 23.6207 31.4136C23.5061 31.3856 23.3974 31.3375 23.2996 31.2715C23.215 31.1983 23.1528 31.1025 23.1204 30.9952C23.0259 30.5157 23.2464 30.1013 23.406 29.677C25.0308 25.363 26.626 21.0391 28.2686 16.731C28.434 16.3127 28.5837 15.8805 28.9855 15.5983Z" fill="#126F43"/>
<path d="M46.4947 15.5983L54.5695 15.5707C54.8334 15.5707 55.0914 15.5707 55.3002 15.768C55.6567 15.9772 55.7059 16.3601 55.7729 16.7015C56.6513 21.2194 57.5001 25.7413 58.3194 30.2671C58.3561 30.4627 58.3561 30.6635 58.3194 30.8591C58.2946 30.9777 58.2457 31.0899 58.1756 31.1887C58.0874 31.2753 57.9821 31.3426 57.8664 31.386C57.0609 31.5834 56.2396 31.4926 55.4263 31.4965C52.9093 31.5084 50.3943 31.4965 47.8773 31.4965C47.4849 31.521 47.0912 31.4817 46.7114 31.3801C46.5889 31.3349 46.4788 31.2612 46.3903 31.165C46.3171 31.0567 46.2631 30.9365 46.2308 30.8098C46.0752 29.9651 46.152 29.1146 46.1501 28.266C46.1396 24.5743 46.1396 20.8806 46.1501 17.185C46.1658 16.6383 46.0772 16.0621 46.4947 15.5983Z" fill="#126F43"/>
<path d="M46.4954 15.5983C46.4875 20.7174 46.479 25.8373 46.4698 30.9578C46.196 31.2538 45.8317 31.2498 45.4732 31.2518C42.3221 31.2518 39.1591 31.2696 36.0021 31.24C35.6279 31.24 35.0961 31.3761 35.043 30.717C35.6128 27.5765 36.182 24.4374 36.7505 21.2996C37.0932 19.409 37.4378 17.5184 37.7844 15.6279L46.4954 15.5983Z" fill="#DCEAFC"/>
<path d="M28.9842 15.5982C27.066 20.7135 25.1483 25.8293 23.2314 30.9459C22.8985 31.309 22.4554 31.2478 22.0359 31.2478C19.0253 31.2557 16.014 31.2557 13.002 31.2478C12.5884 31.2478 12.1354 31.3307 11.8203 30.934C13.3631 28.1422 14.9045 25.3504 16.4446 22.5586C17.7234 20.2497 19.0062 17.9434 20.2929 15.6397C23.1881 15.5114 26.0871 15.5706 28.9842 15.5982Z" fill="#DCEAFC"/>
<path d="M58.1446 30.9518C57.4526 27.2022 56.7594 23.4527 56.0649 19.7031C55.8207 18.3887 55.5626 17.0764 55.3105 15.7561C55.478 15.5489 55.7044 15.5588 55.9427 15.5588L63.9998 15.5943C65.6876 20.5655 67.6295 25.4439 69.4513 30.3657C69.4876 30.4894 69.5159 30.6153 69.536 30.7426C69.4986 31.2853 69.0534 31.2182 68.7324 31.2202C65.469 31.2538 62.2076 31.2478 58.9462 31.2202C58.8012 31.2357 58.6545 31.2198 58.5162 31.1735C58.3779 31.1272 58.2512 31.0516 58.1446 30.9518Z" fill="#DCEAFC"/>
<path d="M11.6487 37.8708L11.625 31.1768H11.6703C11.8672 31.0209 12.1115 31.0742 12.336 31.0742C15.7497 31.0742 19.1635 31.0742 22.5772 31.0742C22.7998 31.0742 23.04 31.0091 23.233 31.1946L23.2882 31.1748C23.7845 32.1734 23.7589 36.9808 23.2527 37.8629C22.8588 39.3509 22.2404 40.683 20.9465 41.6125C17.8722 43.8386 12.9682 42.7729 11.7038 38.2754L11.6487 37.8708Z" fill="#ECF5FE"/>
<path d="M25.4385 50.9016C30.6221 50.9016 35.8084 50.9016 40.9973 50.9016C42.1592 50.9016 42.5728 51.3338 42.5728 52.5238C42.5728 65.7697 42.5787 79.0156 42.5905 92.2615C42.5905 92.972 42.3404 93.1436 41.6767 93.1397C36.2646 93.114 30.8447 93.118 25.4405 93.114C25.0939 92.7411 25.1056 92.2733 25.1037 91.8155C25.0958 88.9934 25.0958 86.172 25.1037 83.3513C25.1037 82.927 25.1037 82.4928 25.3735 82.1278C25.8068 81.8613 26.0195 82.2797 26.3051 82.4435C27.3016 83.0158 28.2194 82.6053 28.2587 81.4568C28.3454 78.9623 28.3336 76.4619 28.2587 73.9675C28.2253 72.7834 27.4139 72.3749 26.3543 72.8959C26.051 73.0459 25.7871 73.3912 25.3696 73.1465C25.0643 72.7518 25.0879 72.2782 25.0879 71.8223C25.0801 65.3165 25.0801 58.8106 25.0879 52.3047C25.0978 51.8094 25.0643 51.3042 25.4385 50.9016Z" fill="#ECF5FE"/>
<path d="M56.54 50.9016C61.6842 50.9016 66.8291 50.9016 71.9747 50.9016C73.0894 50.9016 73.6566 51.4522 73.6566 52.5929C73.6566 58.4041 73.65 64.2159 73.6369 70.0284C73.2981 70.3758 72.8491 70.3166 72.4375 70.3166C67.5374 70.3245 62.6374 70.3245 57.7374 70.3166C57.3179 70.3166 56.8807 70.36 56.5281 70.0442C56.1717 69.6357 56.1973 69.1325 56.1953 68.6431C56.1953 63.1963 56.1953 57.7489 56.1953 52.3008C56.2012 51.8094 56.1677 51.3022 56.54 50.9016Z" fill="#ECF5FE"/>
<path d="M25.4373 50.9016C25.4373 57.9877 25.4373 65.0751 25.4373 72.1638C25.4373 72.5091 25.3132 72.8939 25.6342 73.186C25.9828 73.5176 25.9651 73.9576 25.969 74.38C25.9848 76.5468 25.9848 78.713 25.969 80.8786C25.969 81.3009 25.9828 81.743 25.6204 82.0627C25.325 82.3626 25.4432 82.7435 25.4432 83.0889C25.434 86.428 25.434 89.7664 25.4432 93.1042H19.3477C19.3477 79.3057 19.3477 65.5066 19.3477 51.7068C19.7415 51.0911 20.2832 50.8622 21.006 50.8819C22.485 50.9233 23.9602 50.8977 25.4373 50.9016Z" fill="#DCEAFC"/>
<path d="M73.6732 70.2219C73.6732 72.1243 73.6732 74.0287 73.6732 75.9311C73.6732 77.1389 73.1257 77.7072 71.9618 77.7072C66.8215 77.7072 61.6812 77.6954 56.5389 77.6875C56.2573 77.4073 56.2277 77.0441 56.2238 76.681C56.2015 74.8747 56.2015 73.0689 56.2238 71.2639C56.2238 70.9047 56.2455 70.5357 56.5468 70.2653V70.1844C57.1278 70.0502 57.7166 70.1271 58.3016 70.1252C63.0742 70.1173 67.845 70.1173 72.6137 70.1252C72.9583 70.135 73.3246 70.0502 73.6732 70.2219Z" fill="#686868"/>
<path d="M56.5386 50.9017L56.5268 70.0443C54.7267 70.0443 52.9247 70.0265 51.1246 70.0443C50.5337 70.0443 50.2324 69.9377 50.2344 69.243C50.258 63.7312 50.2344 58.2193 50.2561 52.7074C50.2561 51.3812 50.8095 50.8898 52.1192 50.8859C53.5963 50.8859 55.0694 50.8977 56.5386 50.9017Z" fill="#DCEAFC"/>
<path d="M56.5392 70.2752C56.5392 72.7486 56.5359 75.2226 56.5293 77.6974C54.9911 77.6974 53.451 77.7309 51.9129 77.7171C50.9282 77.7171 50.4397 77.2533 50.424 76.2883C50.3964 74.5122 50.424 72.7361 50.4043 70.9718C50.4043 70.4251 50.5776 70.212 51.1369 70.2239C52.937 70.2633 54.7391 70.2633 56.5392 70.2752Z" fill="#2D2B2B"/>
<path d="M73.6734 70.2218L56.5391 70.1942C56.5391 70.1428 56.5391 70.0915 56.5391 70.0402L73.6478 70.0225C73.6498 70.0896 73.6576 70.1547 73.6734 70.2218Z" fill="#DCEAFC"/>
<path d="M46.5056 38.0148C46.025 39.6627 45.2313 41.1013 43.6734 41.9618C40.3864 43.7813 35.7956 42.392 34.8778 37.8629C34.608 37.6221 34.5706 37.2925 34.5647 36.9669C34.5312 35.3368 34.5351 33.7048 34.5647 32.0747C34.5514 31.7446 34.6578 31.4207 34.864 31.163L34.9074 31.1788C34.9645 31.1472 35.0196 31.086 35.0768 31.086C38.8227 31.0623 42.5693 31.0623 46.3165 31.086C46.3736 31.086 46.4307 31.1472 46.4878 31.1788L46.5292 31.1649C46.988 32.1517 46.9743 37.109 46.5056 38.0148Z" fill="#ECF5FE"/>
<path d="M46.5059 38.0149C46.5137 35.7323 46.5203 33.4496 46.5255 31.167H58.0941C58.3837 31.392 58.427 31.7215 58.4349 32.0452C58.4743 33.7364 58.4684 35.4277 58.4349 37.119C58.4349 37.4426 58.3896 37.7722 58.1237 38.0129C57.5565 39.9864 56.5087 41.5652 54.5117 42.3388C51.1282 43.6393 47.6383 41.8632 46.6674 38.3622C46.6227 38.2424 46.5687 38.1263 46.5059 38.0149Z" fill="#2ECC82"/>
<path d="M58.1253 38.0149C58.1148 35.7323 58.1043 33.4503 58.0938 31.169L58.1391 31.1848C61.9992 30.9874 65.8593 31.0032 69.7195 31.1848L69.7648 31.1709C70.2138 32.1458 70.202 36.9473 69.7471 37.859C69.0952 40.5824 67.5157 42.2835 64.6383 42.6762C63.2654 42.8702 61.8688 42.5601 60.7062 41.8032C59.5435 41.0462 58.6933 39.8935 58.3124 38.5576C58.2671 38.3721 58.1903 38.1945 58.1253 38.0149Z" fill="#ECF5FE"/>
<path d="M69.7461 37.8551L69.7638 31.167H81.3029C81.3029 33.6082 81.486 36.0513 81.1886 38.4866C80.8611 39.732 80.1258 40.8313 79.1006 41.6081C78.0753 42.385 76.8195 42.7945 75.5343 42.771C72.6766 42.694 70.5063 40.9396 69.8997 38.2182C69.8607 38.0923 69.8093 37.9707 69.7461 37.8551Z" fill="#2ECC82"/>
<path d="M34.8599 31.1649L34.8777 37.8747C34.47 39.4752 33.759 40.8803 32.3174 41.8078C31.5487 42.3142 30.672 42.6325 29.7581 42.737C28.8441 42.8414 27.9184 42.7291 27.0557 42.4092C26.193 42.0892 25.4175 41.5705 24.7916 40.8949C24.1658 40.2194 23.7072 39.4059 23.4528 38.52C23.3878 38.301 23.3169 38.0819 23.2559 37.8629L23.2913 31.1748L34.8599 31.1649Z" fill="#2ECC82"/>
<path d="M23.2249 31.1887L11.6701 31.1709C11.6701 31.0999 11.6563 31.0308 11.6484 30.9598C11.7042 30.9461 11.7607 30.9362 11.8178 30.9302L23.2407 30.944L23.2249 31.1887Z" fill="#B3CBE5"/>
<path d="M69.7191 31.1886H58.1387V30.9557L68.8171 30.9735C69.0731 30.9735 69.3488 31.0248 69.53 30.7623C69.5977 30.809 69.6512 30.8735 69.6846 30.9487C69.718 31.024 69.7299 31.107 69.7191 31.1886Z" fill="#B5C7DA"/>
<path d="M46.4824 31.1886H34.902C34.8782 31.1057 34.8791 31.0176 34.9046 30.9352C34.9302 30.8528 34.9793 30.7797 35.0458 30.7249C35.2664 31.0682 35.6189 30.9755 35.9321 30.9755C39.4456 30.9755 42.9591 30.9755 46.4726 30.9755C46.4765 31.0327 46.4785 31.1077 46.4824 31.1886Z" fill="#B5C7DA"/>
<path d="M25.6191 82.0666C25.6191 79.1064 25.6237 76.1462 25.6329 73.186C26.1548 72.5387 26.7378 72.0473 27.6477 72.3966C28.5044 72.7301 28.6226 73.4366 28.6167 74.2457C28.597 76.5764 28.5891 78.909 28.6167 81.2397C28.6285 82.0942 28.3724 82.7731 27.5335 83.0158C26.6945 83.2585 26.013 82.8934 25.6191 82.0666Z" fill="#2D2B2B"/>
</g>
<defs>
<clipPath id="clip0_430_276">
<rect width="93" height="101" fill="white"/>
</clipPath>
</defs>
</svg>
