<svg width="93" height="101" fill="none" xmlns="http://www.w3.org/2000/svg"><g clip-path="url(#a)"><path opacity=".9" d="M80.566.008c.632.503.843 1.139.837 1.962-.037 4.539-.02 9.062-.021 13.593-.394.456-.954.353-1.462.36-2.345.037-4.689-.035-7.035.048-2.954-.114-5.908.026-8.852-.083-2.892.117-5.789-.041-8.68.093-2.954-.14-5.908.022-8.862-.089-2.878.073-5.755.054-8.635.014-2.954.028-5.886.067-8.83-.012-2.488.07-4.975.022-7.465.028a2.31 2.31 0 0 1-1.057-.162.346.346 0 0 1-.197-.3c1.04-.464 1.09-1.338 1.08-2.336-.04-3.839-.019-7.68-.011-11.52 0-.548-.085-1.126.329-1.596h58.861Z" fill="#575757"/><path d="M81.354 93.092c.855.326 1.74.11 2.61.14 1.172.042 2.348 0 3.521.016 1.174.016 1.649.486 1.663 1.684.021 1.665 0 3.33 0 4.998 0 .358.035.715.055 1.072H14.017a1.407 1.407 0 0 1-.33-1.001c-.02-1.93-.02-3.86 0-5.79-.016-.33.073-.656.257-.931a1.447 1.447 0 0 1 1.008-.298c1.465 0 2.933-.065 4.396.033 7.602.018 15.206.054 22.806 0 12.715-.096 25.428 0 38.14-.053a3.19 3.19 0 0 1 1.06.13Z" fill="#686868"/><path d="M21.695.008c0 4.645-.014 9.291.012 13.937 0 .886.041 1.665-1.2 1.503-.07 0-.157.103-.238.158-.244.267-.575.308-.903.312-2.297.03-4.591.038-6.894 0-.327 0-.66-.053-.886-.343 0-4.54 0-9.088-.016-13.631 0-.805.166-1.472.867-1.932l9.258-.004Zm-7.677 93.297v7.697H3.778c0-1.974 0-3.947.015-5.91 0-1.364.54-1.917 1.895-1.93a218.46 218.46 0 0 1 5.12 0c.546 0 .804-.157.727-.723a667036.292 667036.292 0 0 0-.026-51.126c0-.887-.027-1.777-.043-2.66-.223-.352-.32-.666.248-.758a.81.81 0 0 1 .213.517c.17 7.363.055 14.726.07 22.087.023 10.092 0 20.182 0 30.274 0 .395 0 .79.017 1.185.013.525.264.752.787.805.445.05 1.013-.093 1.217.542Z" fill="#2D2B2B"/><path d="M81.355 93.092c-.258.292-.607.198-.924.198-20.238.008-40.475.012-60.712.013-.13 0-.262 0-.394-.015a.24.24 0 0 1 .112-.32c.849-.345 1.737-.17 2.608-.186 1.136-.02 2.276-.047 3.415.024 4.819-.093 9.65 0 14.461-.043 2.531-.018 2.287.268 2.289-2.254.008-12.256.008-24.514 0-36.773 0-2.438-.065-2.493-2.468-2.505-4.727-.022-9.443.057-14.164-.037a96.93 96.93 0 0 1-3.813 0c-.802-.016-1.556.096-2.245.523-.534-.058-.442-.505-.453-.825-.04-1.248-.02-2.497-.012-3.75a1.29 1.29 0 0 1 .788-1.253c1.378-.66 2.267-1.745 2.824-3.146.112-.282.138-.73.553-.712.382.016.447.428.573.724 1.212 2.84 3.904 4.202 6.787 3.426a5.232 5.232 0 0 0 3.508-2.93c.112-.237.197-.488.333-.715.313-.527.628-.53.93.01.125.23.196.491.31.724 1.064 2.064 2.809 3.158 5.074 3.146 2.265-.012 3.994-1.139 5.03-3.215.045-.089.07-.185.114-.272.154-.312.197-.778.648-.764.394.014.455.424.59.72.986 2.297 2.782 3.535 5.212 3.527 2.43-.008 4.228-1.241 5.197-3.552.122-.292.188-.695.591-.7.404-.007.5.394.62.676.8 1.952 2.222 3.108 4.298 3.495 2.336.436 4.924-.872 5.964-3.053.127-.268.197-.556.346-.817.25-.456.538-.426.81-.018.17.282.317.575.443.879.984 2.054 2.714 3.035 4.884 3.1 2.251.067 3.925-1.062 5.075-2.998.215-.363.197-.935.788-1.012.014.26.04.523.04.79V92.6c-.007.16-.016.328-.03.491Z" fill="#2ECC82"/><path d="M19.343 93.1a1.512 1.512 0 0 0 0 .198l-5.318.013c-.405-.333-.894-.197-1.325-.161-.849.08-1.022-.269-1.022-1.062.018-17.77.018-35.538 0-53.307 0-.164.012-.328.02-.492.443.046.419.454.54.73 1.653 3.805 6.599 4.66 9.374 1.61a5.827 5.827 0 0 0 1.195-2.241c.075-.243.109-.537.463-.549.337.21.423.573.534.91.778 2.39 2.995 3.728 5.347 3.73 2.434 0 4.352-1.462 5.19-3.805.11-.312.05-.758.539-.837.394.255.453.705.605 1.096a5.635 5.635 0 0 0 2.058 2.573 5.617 5.617 0 0 0 3.143.979 5.59 5.59 0 0 0 3.188-1 5.605 5.605 0 0 0 2.05-2.643c.12-.324.12-.738.56-.857.423.057.445.43.555.727.869 2.326 2.854 3.75 5.247 3.773a5.568 5.568 0 0 0 3.234-1.02 5.585 5.585 0 0 0 2.046-2.708c.108-.298.13-.663.522-.772.473.062.495.486.609.806 1.526 4.274 7.017 4.807 9.605 1.614.354-.431.633-.92.823-1.445.142-.395.197-.839.577-1.119.48 0 .437.413.538.695.87 2.465 2.737 3.959 5.303 3.947 2.352-.016 4.107-1.184 5.158-3.331.091-.25.225-.48.394-.683a.224.224 0 0 1 .274 0 24.801 24.801 0 0 1-.022 3.959c-.716 1.663-1.705 3.062-3.446 3.82-2.909 1.265-6.513-.13-7.598-2.887-.14-.355-.333-.693-.57-1.184-.931 2.932-2.928 4.521-5.802 4.527-2.873.006-4.83-1.593-5.778-4.685-.975 3.033-2.925 4.681-5.808 4.687-2.883.006-4.868-1.604-5.835-4.657-.97 3.064-2.955 4.673-5.846 4.657-2.854-.018-4.811-1.616-5.774-4.697-.985 3.158-3.027 4.8-6.007 4.69-2.822-.105-4.8-1.692-5.623-4.765-.636 2.088-1.658 3.57-3.515 4.33-.43.176-.394.54-.394.908.008 1.511.014 3.024.018 4.539.362.369.323.846.323 1.298.01 12.934.01 25.867 0 38.799-.018.45-.003.92-.35 1.292Z" fill="#1AAB67"/><path d="M72.817 15.726c.32-.244.69-.148 1.038-.15 2.507-.013 5.015-.015 7.52-.021l11.39 15.221c-.1.567-.566.466-.92.466-3.386 0-6.772.057-10.153-.02-.516-.087-.735-.495-.961-.898-2.513-4.438-4.955-8.918-7.516-13.33-.22-.381-.526-.76-.398-1.268Z" fill="#DCEAFC"/><path d="M92.958 31.17c0 2.16.088 4.323 0 6.478-.097 2.386-2.096 4.539-4.447 4.967-2.807.52-5.353-.651-6.523-3.023-.181-.416-.341-.84-.479-1.271a.79.79 0 0 1-.222-.533 129.38 129.38 0 0 1 0-5.991c0-.447.197-.733.717-.727 3.621.038 7.247-.067 10.87.058.03.009.058.023.084.043Z" fill="#ECF5FE"/><path d="M92.959 31.17c-3.445 0-6.893.034-10.33-.025-.943-.017-1.148.298-1.124 1.17.053 2 0 4.003 0 6.006l-.152.134a.812.812 0 0 1-.17.022.45.45 0 0 1-.183-.334c.081-2.303-.133-4.612.132-6.907a.634.634 0 0 1 .233-.294l10.77.032c.225 0 .465.033.623-.198a.332.332 0 0 1 .2.395Z" fill="#ABB4BC"/><path d="m11.592 15.563 8.68.035.02.044c.143.353-.046.637-.198.92-2.56 4.667-5.197 9.3-7.813 13.94-.143.256-.275.523-.567.655a1.25 1.25 0 0 1-.338.081c-3.337.04-6.671.018-10.005 0-.404 0-.961.197-1.127-.462L10.53 16.98c.352-.478.713-.948 1.063-1.417Z" fill="#126F43"/><path d="M11.649 37.87c-.237.222-.156.518-.197.79-1.604 3.286-3.772 4.525-6.929 3.959-2.375-.424-4.396-2.566-4.492-4.95-.087-2.17 0-4.341 0-6.498.303-.182.638-.09.957-.093 3.228-.008 6.457-.008 9.686 0 .32 0 .654-.073.963.083.274.237.32.568.329.896a105.9 105.9 0 0 1 0 4.92c.004.33-.042.657-.317.894Z" fill="#2ECC82"/><path d="M11.635 31.177H.05a.358.358 0 0 1 .197-.395c.26.292.609.188.922.188h10.487l.073.114-.094.093Z" fill="#9C4E59"/><path d="m81.37 30.938-.067.219a1.105 1.105 0 0 1-.892.328c-3.427 0-6.854.09-10.28-.044a1.203 1.203 0 0 1-.338-.12 1.343 1.343 0 0 1-.445-.511 513.415 513.415 0 0 1-5.262-14.073c-.128-.357-.335-.73-.087-1.127 2.757-.012 5.505-.028 8.258-.031.192.024.38.074.56.147l8.553 15.212Zm-52.385-15.34 8.804.026c.232.365.155.762.089 1.144-.806 4.636-1.696 9.256-2.577 13.88a1.328 1.328 0 0 1-.372.592 1.16 1.16 0 0 1-.33.158c-2.155.197-4.314.065-6.47.079-1.503 0-3.008.093-4.508-.063a.997.997 0 0 1-.321-.143.591.591 0 0 1-.18-.276c-.094-.48.126-.894.286-1.318 1.625-4.314 3.22-8.638 4.863-12.946.165-.418.315-.85.716-1.133Zm17.51 0 8.075-.027c.263 0 .521 0 .73.197.357.21.406.592.473.933.878 4.518 1.727 9.04 2.546 13.566.037.196.037.396 0 .592a.881.881 0 0 1-.143.33.885.885 0 0 1-.31.197c-.805.197-1.626.107-2.44.11-2.517.012-5.032 0-7.549 0a3.635 3.635 0 0 1-1.166-.116.824.824 0 0 1-.32-.215 1.135 1.135 0 0 1-.16-.355c-.156-.845-.079-1.695-.08-2.544-.011-3.692-.011-7.385 0-11.081.015-.547-.074-1.123.344-1.587Z" fill="#126F43"/><path d="m46.495 15.598-.025 15.36c-.274.296-.638.292-.997.294-3.15 0-6.314.018-9.47-.012-.375 0-.907.136-.96-.523l1.708-9.417c.342-1.891.687-3.782 1.033-5.672l8.711-.03Zm-17.511 0-5.753 15.348c-.333.363-.776.302-1.195.302-3.01.008-6.022.008-9.034 0-.414 0-.867.083-1.182-.314 1.543-2.792 3.085-5.584 4.625-8.375 1.278-2.31 2.561-4.616 3.848-6.92 2.895-.128 5.794-.068 8.691-.04Zm29.161 15.354c-.692-3.75-1.386-7.5-2.08-11.249-.244-1.314-.502-2.627-.755-3.947.168-.207.394-.197.633-.197l8.057.035c1.688 4.972 3.63 9.85 5.451 14.772a3 3 0 0 1 .085.377c-.037.542-.483.475-.804.477-3.263.034-6.524.028-9.786 0a1.015 1.015 0 0 1-.801-.268Z" fill="#DCEAFC"/><path d="m11.649 37.87-.024-6.693h.045c.197-.156.441-.103.666-.103h10.241c.223 0 .463-.065.656.12l.055-.02c.497 1 .47 5.807-.035 6.689-.394 1.488-1.013 2.82-2.306 3.75-3.075 2.226-7.979 1.16-9.243-3.338l-.055-.404Zm13.79 13.032h15.558c1.162 0 1.576.432 1.576 1.622 0 13.246.006 26.492.017 39.737 0 .711-.25.883-.913.879-5.412-.026-10.832-.022-16.236-.026-.347-.373-.335-.84-.337-1.299-.008-2.822-.008-5.643 0-8.464 0-.424 0-.858.27-1.223.433-.267.646.152.931.316.997.572 1.914.161 1.954-.987a116.18 116.18 0 0 0 0-7.49c-.034-1.184-.845-1.592-1.905-1.071-.303.15-.567.495-.984.25-.306-.394-.282-.868-.282-1.324-.008-6.505-.008-13.011 0-19.517.01-.496-.024-1 .35-1.403Zm31.101 0h15.435c1.114 0 1.682.55 1.682 1.69 0 5.812-.007 11.624-.02 17.436-.339.348-.788.289-1.2.289-4.9.008-9.8.008-14.7 0-.42 0-.856.043-1.209-.273-.356-.408-.33-.912-.333-1.4V52.3c.006-.492-.027-.999.345-1.4Z" fill="#ECF5FE"/><path d="M25.437 50.902v21.262c0 .345-.124.73.197 1.022.349.332.331.772.335 1.194a445.49 445.49 0 0 1 0 6.499c0 .422.014.864-.349 1.184-.295.3-.177.68-.177 1.026-.009 3.339-.009 6.677 0 10.015h-6.095V51.707c.393-.616.935-.845 1.658-.825 1.479.041 2.954.016 4.431.02Z" fill="#DCEAFC"/><path d="M73.673 70.222v5.71c0 1.207-.547 1.775-1.711 1.775-5.14 0-10.28-.012-15.423-.02-.282-.28-.311-.643-.315-1.006a219.328 219.328 0 0 1 0-5.417c0-.36.022-.728.323-.999v-.08c.58-.135 1.17-.058 1.755-.06 4.772-.008 9.543-.008 14.312 0 .344.01.71-.075 1.06.097Z" fill="#686868"/><path d="m56.539 50.902-.012 19.142c-1.8 0-3.602-.017-5.402 0-.591 0-.893-.106-.89-.801.023-5.512 0-11.024.021-16.536 0-1.326.553-1.817 1.863-1.821 1.477 0 2.95.012 4.42.016Z" fill="#DCEAFC"/><path d="M56.54 70.275c0 2.474-.004 4.948-.01 7.422-1.539 0-3.079.034-4.617.02-.985 0-1.473-.464-1.489-1.429-.028-1.776 0-3.552-.02-5.316 0-.547.174-.76.733-.748 1.8.04 3.602.04 5.402.051Z" fill="#2D2B2B"/><path d="m73.673 70.222-17.134-.028v-.154l17.109-.018c.002.068.01.133.025.2Z" fill="#DCEAFC"/><path d="M46.506 38.015c-.481 1.648-1.275 3.086-2.833 3.947-3.287 1.82-7.877.43-8.795-4.1-.27-.24-.307-.57-.313-.895-.034-1.63-.03-3.262 0-4.892a1.37 1.37 0 0 1 .299-.912l.043.016c.058-.032.113-.093.17-.093 3.746-.024 7.492-.024 11.24 0 .057 0 .114.061.17.093l.042-.014c.459.987.445 5.944-.023 6.85Z" fill="#ECF5FE"/><path d="M46.506 38.015c.008-2.283.014-4.565.02-6.848h11.568c.29.225.333.554.34.878.04 1.691.034 3.383 0 5.074 0 .324-.044.653-.31.894-.568 1.973-1.615 3.552-3.612 4.326-3.384 1.3-6.874-.476-7.845-3.977a2.454 2.454 0 0 0-.161-.347Z" fill="#2ECC82"/><path d="m58.125 38.015-.031-6.846.045.016a117.7 117.7 0 0 1 11.58 0l.046-.014c.449.975.437 5.776-.018 6.688-.652 2.723-2.231 4.424-5.109 4.817a5.736 5.736 0 0 1-3.932-.873 5.755 5.755 0 0 1-2.394-3.245c-.045-.186-.122-.364-.187-.543Z" fill="#ECF5FE"/><path d="m69.746 37.855.018-6.688h11.539c0 2.441.183 4.884-.114 7.32a5.751 5.751 0 0 1-2.088 3.121 5.731 5.731 0 0 1-3.567 1.163c-2.857-.077-5.028-1.831-5.634-4.553a1.975 1.975 0 0 0-.154-.363Zm-34.886-6.69.018 6.71c-.408 1.6-1.119 3.005-2.56 3.933a5.863 5.863 0 0 1-8.865-3.288c-.065-.219-.136-.438-.197-.657l.035-6.688 11.569-.01Z" fill="#2ECC82"/><path d="M23.225 31.189 11.67 31.17c0-.071-.014-.14-.022-.211.056-.014.113-.024.17-.03l11.423.014-.016.245Z" fill="#B3CBE5"/><path d="M69.72 31.189H58.138v-.233l10.678.018c.256 0 .532.05.713-.212a.447.447 0 0 1 .19.427Zm-23.238 0h-11.58a.443.443 0 0 1 .144-.464c.22.343.573.25.886.25h10.54c.005.058.006.133.01.214Z" fill="#B5C7DA"/><path d="M25.62 82.067c0-2.96.004-5.92.013-8.881.522-.647 1.105-1.139 2.015-.79.856.334.975 1.04.969 1.85a344.73 344.73 0 0 0 0 6.994c.011.854-.245 1.533-1.084 1.776-.838.242-1.52-.123-1.914-.95Z" fill="#2D2B2B"/></g><defs><clipPath id="a"><path fill="#fff" d="M0 0h93v101H0z"/></clipPath></defs></svg>