<svg xmlns="http://www.w3.org/2000/svg" width="76" height="74" fill="none"><path fill="#2ECC82" d="m13.681 43.016 2.618 4.597c.66 1.158 1.306 2.322 1.979 3.48.626 1.084 1.358 1.212 2.33.429.527-.429 1.053-.864 1.573-1.292.02-.013.046-.02.18-.074.266.536.552 1.071.806 1.627.046.093-.014.247-.054.368-.033.1-.1.2-.173.274-1.865 2.041-2.331 4.45-2.138 7.16.173 2.417.033 4.853.033 7.282v.837H10.418v-3.24c0-.983.006-1.96 0-2.944-.014-1.01-.54-1.64-1.333-1.62-.766.02-1.265.636-1.272 1.6-.006 2.041 0 4.089 0 6.19H.04c-.013-.207-.04-.421-.04-.629V52.74c0-1.593.68-2.798 2.065-3.547 3.763-2.048 7.553-4.056 11.33-6.084.067-.047.147-.053.287-.093ZM44.302 67.73H33.884v-.93c0-3.44.02-6.873-.02-10.313-.007-.562-.24-1.157-.506-1.66a12.989 12.989 0 0 0-1.399-2.107c-.473-.582-.473-1.084-.067-1.667.18-.26.293-.575.5-.983.566.475 1.079.896 1.592 1.325 1.132.95 1.805.843 2.538-.429 1.352-2.362 2.69-4.724 4.043-7.087.146-.254.3-.508.493-.85 1.898 1.044 3.77 2.061 5.621 3.105.134.074.214.355.22.543.08 4.43 1.626 8.231 4.756 11.377.173.174.253.595.173.836-.952 2.777-1.958 5.535-2.924 8.312-.14.401-.313.582-.746.549-.373-.034-.752-.007-1.245-.007v-3.032c0-1.037.006-2.074 0-3.112-.007-1.077-.52-1.726-1.332-1.706-.787.02-1.273.65-1.28 1.673-.006 2.008 0 4.022 0 6.164ZM21.848 10.718c4.343 4.772 9.412 7.134 16.08 5.2-.154 2.798-.014 5.642-.534 8.352-.759 3.995-4.529 6.78-8.572 6.793-2.052.007-4.11.187-6.101-.616-3.43-1.385-5.756-4.704-5.782-8.425-.014-2.236.013-4.47-.014-6.706-.006-.489.16-.79.54-1.084 1.479-1.158 2.924-2.343 4.383-3.514Z"/><path fill="#2ECC82" d="M16.28 11.87c-.574-2.102-1.02-4.063-.494-6.084a3.9 3.9 0 0 1 5.629-2.462c.772.415 1.352.194 1.885-.368C25.984.13 31.812.03 34.717 2.426c.499.416.972.864 1.458 1.306 1.752 1.58 3.797 2.483 6.275 2.67-1.173 2.724-2.518 5.207-5.123 6.72-2.484 1.445-5.082 1.09-7.62.18-2.597-.93-4.662-2.623-6.254-4.886-.8-1.13-1.386-1.197-2.478-.314a3787.8 3787.8 0 0 1-4.696 3.768Z"/><path fill="#181818" d="M75.575 46.763c-.007 7.308-5.815 13.117-13.089 13.103-7.227-.013-12.982-5.882-12.962-13.237.02-7.194 5.875-12.95 13.175-12.943 7.067.013 12.882 5.916 12.876 13.077Zm-23.453.027c0 5.722 4.689 10.44 10.41 10.473 5.662.027 10.438-4.752 10.438-10.447 0-5.748-4.696-10.5-10.37-10.507-5.756-.013-10.478 4.712-10.478 10.48Z"/><path fill="#2ECC82" d="M31.273 67.69h-7.814v-.91c0-3.078.027-6.157-.02-9.229-.013-.856.287-1.526.66-2.275.786-1.586 1.885-2.142 3.657-2.008 1.145.087 1.805.395 2.45 1.352.787 1.165 1.127 2.302 1.087 3.7-.08 3.106-.02 6.211-.02 9.37Z"/><path fill="#181818" d="M54.086 60.295c2.252.797 4.423 1.56 6.721 2.37-.892 3.299-1.838 6.792-2.857 10.553-.78-.843-1.426-1.539-2.065-2.235-.48-.522-1.026-.703-1.752-.522-1.232.301-2.485.502-3.923.783 1.339-3.801 2.637-7.462 3.876-10.949ZM74.888 71.23c-1.445-.28-2.724-.481-3.976-.782-.7-.168-1.213.026-1.679.515-.653.683-1.319 1.359-2.105 2.175-.992-3.66-1.945-7.147-2.844-10.474 2.271-.796 4.463-1.572 6.721-2.369 1.232 3.48 2.531 7.128 3.883 10.936Z"/><path fill="#2ECC82" d="M22.154 33.064c3.497.89 6.914.883 10.418 0 0 1.265.007 2.51-.007 3.754 0 .148-.06.335-.166.435a880.468 880.468 0 0 1-5.036 5.066c-1.718-1.726-3.384-3.393-5.035-5.066a.678.678 0 0 1-.167-.435c-.007-1.244-.007-2.49-.007-3.754Z"/><path fill="#2ECC82" stroke="#2ECC82" stroke-width=".863" d="m12.339 44.303 10.78-8.11 4.512-.507 15.04 8.617-6.016 9.377-3.51-2.281-6.267-5.069-4.762 4.055-4.262 3.295-5.515-9.377Z"/><path fill="#2ECC82" d="M19.903 48.724c-1.34-2.349-2.638-4.638-3.977-6.993 1.492-.797 2.937-1.587 4.41-2.343.14-.073.466.027.599.16 1.492 1.466 2.964 2.959 4.523 4.518-1.859 1.56-3.67 3.085-5.555 4.658Zm9.438-4.591 4.843-4.865c1.459.797 2.99 1.633 4.59 2.51-1.32 2.322-2.619 4.597-3.95 6.946-1.86-1.566-3.664-3.071-5.483-4.59Zm.953 4.177c-.02.133-.02.193-.04.233-.38.717-.62 1.848-1.186 2.042-1 .341-2.185.12-3.297.1-.133 0-.313-.194-.393-.335-.347-.642-.66-1.305-1-1.994.907-.763 1.766-1.506 2.652-2.208.14-.107.486-.14.612-.04.913.716 1.792 1.479 2.652 2.201Z"/><path fill="#181818" d="M54.733 46.777c0-4.357 3.477-7.85 7.793-7.85 4.37 0 7.833 3.493 7.833 7.897a7.796 7.796 0 0 1-7.84 7.803c-4.33 0-7.793-3.494-7.786-7.85Zm9.118 2.55c0-2.088.014-4.156-.006-6.224-.007-1.044-.526-1.44-1.552-1.586-1.719-.248-2.565.916-3.444 2-.406.503-.253 1.105.2 1.553.426.422.94.522 1.485.215.22-.121.42-.275.673-.449v4.49c-.173.074-.326.128-.473.195-.58.274-.872.75-.766 1.378.107.63.54 1.038 1.166 1.078.919.053 1.845.053 2.764.007.666-.034 1.12-.456 1.212-1.118.094-.63-.213-1.098-.806-1.359a5.26 5.26 0 0 1-.453-.18Z"/></svg>