<svg xmlns="http://www.w3.org/2000/svg" width="87" height="77" fill="none"><circle cx="43.2" cy="36.033" r="19.538" fill="#fff"/><circle cx="42.125" cy="36.391" r="24.916" fill="#fff"/><path fill="#2ECC82" d="M26.196 65.088c-8.188 1.279-15.82.661-23.135-2.578-3.064-1.354-3.986-5.164-2.041-8.008 1.17-1.71 2.83-2.733 4.754-3.333 2.052-.639 4.154-1.11 6.192-1.795 2.218-.74 2.573-1.929 1.407-3.95a16.315 16.315 0 0 1-1.134-2.435c-.513-1.383-.922-2.758-1.934-3.95-.682-.809-1.388-1.965-.251-3.19.506-.545.064-1.393 0-2.09-.502-6.162 4.266-9.961 10.186-8.13.98.302 1.159.661.796 1.652-2.974 8.16-2.07 15.859 2.95 22.983.491.7.57 1.146 0 1.843-2.419 2.873-2.178 6.202-1.518 9.545.344 1.81 2.128 2.302 3.728 3.436Z"/><path fill="#0FAA61" d="M22.181 35.961c.28-12.091 9.881-21.27 21.95-20.98 11.191.27 20.49 10.056 20.28 21.371-.223 12.077-9.918 21.188-22.199 20.872-10.9-.28-20.29-10.245-20.031-21.263Zm21.208 18.584a18.339 18.339 0 0 0 13.04-5.428 18.371 18.371 0 0 0 5.326-13.091 18.372 18.372 0 0 0-5.444-13.04 18.34 18.34 0 0 0-13.087-5.304 18.318 18.318 0 0 0-13.042 5.423 18.351 18.351 0 0 0-5.32 13.093A18.366 18.366 0 0 0 30.3 49.241a18.332 18.332 0 0 0 13.088 5.304Z"/><path fill="#2ECC82" d="M76.476 33.885c.05.718-.143 1.562.33 2.457.416.782.13 1.939-.437 2.546-1.999 2.154-1.583 5.318-3.441 7.541-.65.776-.118 1.842.843 2.413 1.144.683 2.425.977 3.706 1.275 2.268.528 4.546 1.038 6.498 2.42 2.336 1.649 3.451 5.438 2.372 8.041-.819 1.972-3.624 2.56-5.117 1.077-3.674-3.673-7.359-7.34-11.015-11.032-1.363-1.375-2.759-2.65-4.815-2.85-1.155-.116-.739-.784-.455-1.394 2.655-5.746 2.96-11.61 1.13-17.63a15.75 15.75 0 0 0-.553-1.507c-.757-1.835-.681-1.957 1.367-1.94 2.73.022 5.124 1.207 7.33 2.564 2.074 1.257 2.358 3.58 2.257 6.02Z"/><path fill="#0FAA61" d="M84.251 70.27a3.977 3.977 0 0 1-1.076 2.471c-.75.769-1.496 1.548-2.286 2.273-1.97 1.796-3.731 1.818-5.64-.071-4.165-4.112-8.288-8.26-12.428-12.404-1.015-1.013-1.97-2.097-3.064-3.013-1.536-1.282-.983-3.34-1.93-4.83-.087-.14.265-.632.495-.883a21.193 21.193 0 0 1 1.772-1.775c.797-.693 1.407-2.154 2.407-1.935 1.712.398 3.588.359 5.024 1.864 5.073 5.228 10.257 10.35 15.427 15.492a4.311 4.311 0 0 1 1.3 2.812Z"/><path fill="#2ECC82" d="M39.697 8.722c.032.718-.309 1.613.405 2.514.384.488 0 1.102-.789 1.235a23.375 23.375 0 0 0-13.085 6.823c-.574.586-.872.439-1.126-.24-.768-2.043-1.504-4.087-2.806-5.897-.474-.66-.768-1.612.161-2.406.456-.388.119-1.012.047-1.53C21.554 2.46 27.032-1.807 33.375.75c.99.399 1.984.797 2.967 1.217 2.279.977 3.495 3.337 3.355 6.755Zm24.326.058c.161.7-.162 1.544.423 2.417.452.668.1 1.795-.391 2.359-1.374 1.562-1.643 3.512-2.228 5.35-.341 1.078-.7 1.14-1.51.317a23.357 23.357 0 0 0-12.788-6.716c-1.076-.194-1.812-.506-.717-1.659.434-.46.193-1.009.122-1.53C46 2.568 51.139-1.627 57.547.671c1.173.42 2.332.898 3.462 1.436 2.163 1.01 3.186 3.272 3.014 6.673Zm-8.654 48.43c.262 2.309 1.593 3.95 3.229 5.587-10.545 3.767-20.842 3.79-31.05-.614-2.637-1.138-3.412-5.825-1.38-7.9.788-.808 1.154 0 1.6.359 7.326 5.89 15.427 7.096 24.246 4.072 1.102-.398 2.153-.966 3.355-1.504Zm-4.739-7.502c-4.877 2.463-9.498 2.46-14.352.172.56-.284 1.004-.474 1.413-.718 1.353-.83 1.676-1.979.876-3.325a18.803 18.803 0 0 1-2.035-4.755 3.668 3.668 0 0 0-.775-1.365c-.904-1.145-1.962-2.276-.739-3.921.276-.36 0-1.153-.021-1.742-.449-6.992 5.095-10.658 11.48-7.606.59.285 1.198.53 1.82.736 1.6.525 2.583 1.656 3.168 3.178.865 2.252.118 4.698.793 6.978a.695.695 0 0 1-.118.517c-1.618 2.187-1.848 4.967-3.104 7.294-1.324 2.456-1.18 3.174 1.593 4.557Z"/></svg>