<svg xmlns="http://www.w3.org/2000/svg" width="84" height="87" fill="none"><g clip-path="url(#a)"><path fill="#0FAA61" d="M78.068 72.816H5.69V24.133c0-3.53 1.439-4.953 5-4.957h18.896c.67 3-.14 4.027-3.088 4.027h-14.42c-2.105 0-2.347.239-2.347 2.28v41.1c0 1.97.275 2.249 2.22 2.249h59.843c2.059 0 2.307-.255 2.307-2.332V25.555c0-2.155-.218-2.35-2.445-2.366H57.572c-3.034 0-3.688-.708-3.527-3.91.411-.06.825-.1 1.24-.117H73.73c2.76 0 4.396 1.62 4.399 4.363.013 16.109.013 32.217 0 48.326-.01.296-.044.564-.06.963ZM41.802 86.313H6.616c-4.92 0-7.89-4.222-6.08-8.876.336-.82 1.617-1.769 2.479-1.786 7.762-.137 15.525-.09 23.291-.05a1.463 1.463 0 0 1 1.084.735c1.616 3.896 4.446 5.034 8.587 4.698 5.168-.392 10.396-.14 15.576-.084 1.258 0 2.177-.288 2.743-1.436.024-.05.07-.09.09-.14 1.299-3.32 3.69-4.099 7.167-3.914 6.126.336 12.283.09 18.443.097 2.619 0 3.494.893 3.508 3.528v1.174c-.02 3.9-2.123 6.041-5.993 6.041-11.908.018-23.811.022-35.709.013Z"/><path fill="#fff" d="M12.468 25.999h11.84c-1.472 1.118-2.609 2.084-3.85 2.89-1.07.694-1.455 1.564-1.381 2.802a41.69 41.69 0 0 1 0 4.195c-.067 1.49.526 2.148 2.059 2.11 2.568-.063 5.14 0 7.712 0a4.294 4.294 0 0 1 4.024 3.212c.513 1.994 1.006 3.99 1.556 6.082l2.012.188v6.88a6.672 6.672 0 0 0-5.55.926c-.278.188-.932-.04-1.34-.229-4.813-2.245-9.705-.157-11.469 4.89-.15.423-.453 1.007-.808 1.114-2.284.719-3.752 2.266-4.829 4.863L12.468 26ZM47.355 47.44l2.012-.137c.525-2.056 1.052-4.105 1.58-6.148A4.362 4.362 0 0 1 55 37.98c2.568 0 5.137-.033 7.712 0 1.412.027 2.113-.53 2.012-1.977a.703.703 0 0 1 0-.167c.721-4.363-.456-7.81-5.19-9.454l.361-.336h11.448v39.759c-1.06-2.598-2.628-4.165-5.006-4.846-.265-.078-.453-.594-.577-.94-1.898-5.279-6.478-7.185-11.693-4.89a1.8 1.8 0 0 1-1.34 0c-2.442-1.154-2.75-1.228-5.447-.829v-5.53c-.01-.427.04-.853.074-1.33Z"/><path fill="#0FAA61" d="M68.427 66.103H15.445a3.614 3.614 0 0 1 3.23-2.567c1.257-.13 1.676-.695 1.817-1.906.45-3.692 4.181-5.913 7.377-4.393.406.191.627.94.765 1.473.1.403-.242.953-.08 1.296.25.543.757.966 1.156 1.44.483-.437 1.07-.8 1.422-1.323.57-.846.774-2.04 1.502-2.648 1.881-1.57 4.671-.423 5.167 2.044.212 1.07.363 2.215 1.734 1.85 1.372-.367 1.291-1.74.795-2.652-1.959-3.598-.721-7.424-1.207-11.236h5.455c0 2.836.02 5.618-.02 8.39 0 .41-.335.802-.473 1.218-.291.893-.767 1.8-.754 2.685 0 .557.771 1.104 1.194 1.658.462-.46.942-.906 1.381-1.39.09-.097.024-.335.057-.49.37-1.678 1.677-2.785 3.297-2.792a3.284 3.284 0 0 1 3.306 2.762c.174 1.007.335 2.05 1.62 1.816 1.34-.245 1.314-1.453.985-2.423-.375-1.108.068-1.497 1.006-1.836a5.314 5.314 0 0 1 6.37 2.204 5.31 5.31 0 0 1 .766 2.29c.161 1.302.634 1.846 1.942 1.987 1.438.154 2.518.99 3.172 2.543Z"/><path fill="#2ECC82" d="M48.938 8.917c1.676 2.799 2.24 5.796 2.297 8.863.107 5.752.067 11.508.047 17.26 0 1.88-1.04 2.92-2.904 2.933a848.37 848.37 0 0 1-13.078 0c-1.677-.017-2.797-1.05-2.783-2.701.057-6.756.07-13.515.365-20.26.09-2.034 1.043-4.028 1.677-6.276 4.976 3.124 9.657 3.164 14.379.181Zm-7.022 10.28a6.704 6.704 0 0 0-4.735 1.958 6.715 6.715 0 0 0-1.972 4.733c0 1.776.704 3.48 1.956 4.738a6.705 6.705 0 0 0 4.727 1.974 6.704 6.704 0 0 0 4.736-1.958 6.715 6.715 0 0 0 1.971-4.733c0-1.777-.703-3.48-1.956-4.738a6.704 6.704 0 0 0-4.727-1.975ZM36.54 44.652c-.439-1.735-.868-3.45-1.32-5.246h13.369l-1.341 5.246H36.54Zm16.905 30.993c-.671 1.993-1.788 2.738-3.87 2.684-5.188-.17-10.395-.198-15.573 0-2.15.088-2.9-1.006-3.739-2.684h23.182ZM29.707 35.221h-7.75c-.59-2.493-.231-4.423 2.2-5.806 1.915-1.087 3.581-2.61 5.55-4.084v9.89Zm32.319.034h-7.951v-9.94c2.642 1.986 5.164 3.785 7.545 5.762.436.362.335 1.43.392 2.174.06.591.014 1.205.014 2.004Z"/><path fill="#2ECC82" d="M41.882.017c2.15 2.248 4.004 4.195 5.865 6.145-3.202 2.97-8.024 3.02-11.736.094l5.871-6.24Zm4.041 25.905a4.053 4.053 0 0 1-4.07 4.004 4.05 4.05 0 0 1-3.958-3.96 4.048 4.048 0 0 1 3.998-4.088"/></g><defs><clipPath id="a"><path fill="#fff" d="M0 0h83.487v86.317H0z"/></clipPath></defs></svg>