<svg width="449" height="545" fill="none" xmlns="http://www.w3.org/2000/svg"><path d="M89.963 443.454c-15.823-24.977-1.566-59.447 21.23-78.275 22.797-18.829 52.13-27.386 78.309-41.132 31.363-16.465 59.795-41.085 94.805-46.465 28.252-4.346 57.996 5.216 79.507 24.034 21.512 18.818 34.793 46.341 37.757 74.77 5.88 56.379-31.825 114.318-85.757 131.773-53.933 17.454-118.433-7.403-146.703-56.535" fill="#181818"/><path d="M122.984 431.825s24.767-99.067 126.524-85.607c101.758 13.461 96.823 100.908 96.823 100.908l-54.832 4.081 1.71 61.784c-30.505 3.437-76.954-6.402-132.388-14.826l2.006-44.801-39.843-21.539Z" fill="#2ECC82"/><path d="M346.424 445.283s-.029.654-.092 1.839c-.635 11.891-4.953 77.264-22.819 75.805-19.652-1.604-33.133-10.699-32.006-71.726l54.888-5.267" fill="#F5AC8E"/><path d="M301.769 509.131s37.411-84.34 57.172-106.766l22.892 20.104s-34.79 103.662-57.628 100.415c-22.839-3.246-22.443-13.753-22.443-13.753m-176.123-75.873-13.549 40.288 44.771 27.028 5.955-47.216-37.177-20.1Z" fill="#F5AC8E"/><path d="m221.779 332.462-3.602 26.301s32.97 19.591 52.507-5.866l14.65-98.476c-19.691-20.562-40.838-23.877-63.555-8.572 0 0-32.813 76.269 0 86.613Z" fill="#F5AD8C"/><path d="M220.886 271.534a10.683 10.683 0 0 1 4.166-4.722 4.056 4.056 0 0 1 6.185 2.878c.089.408.776.432.836 0 .468-2.882-2.468-5.015-5.132-4.822-3.526.257-5.744 3.271-6.871 6.325-.177.475.565.772.807.335" fill="#222221"/><path d="M239.262 287.906c.137.119-.049.633-.584 1.456a7.137 7.137 0 0 1-3.343 2.842 5.11 5.11 0 0 1-3.395.037 4.04 4.04 0 0 1-1.747-1.222 4.19 4.19 0 0 1-.861-2.102 9.815 9.815 0 0 1 .588-3.937c.334-1.18.744-2.388 1.17-3.619 3.464-9.886 8.446-16.845 9.046-16.453.669.395-3.145 7.77-6.495 17.354-.416 1.199-.825 2.367-1.192 3.511a8.495 8.495 0 0 0-.638 2.898 1.631 1.631 0 0 0 .964 1.493 3.346 3.346 0 0 0 2.016.211 8.401 8.401 0 0 0 3.11-1.719c.74-.568 1.21-.864 1.354-.738m-7.127 12.618c4.361.789 10.364-.453 12.651-4.731a.528.528 0 0 0-.824-.637 19.617 19.617 0 0 1-4.958 3.562 12.311 12.311 0 0 1-6.595.811c-.645-.102-.933.876-.274 1.003" fill="#CD9914"/><path d="M242.723 294.472a2.713 2.713 0 0 1 2.25.903c.479.649.82 1.388 1.003 2.173a.448.448 0 0 0 .803.104 2.767 2.767 0 0 0-.836-3.242 3.723 3.723 0 0 0-3.344-.983.535.535 0 0 0 .141 1.042" fill="#CD9914"/><path d="M256.163 275.31a5.726 5.726 0 0 1 6.077-3.144 5.983 5.983 0 0 1 4.47 5.149c.125.598 1.003.434 1.033-.141a6.49 6.49 0 0 0-1.481-4.109 6.491 6.491 0 0 0-3.748-2.243 6.635 6.635 0 0 0-7.188 3.995c-.268.557.563 1.047.836.487" fill="#222221"/><path d="M222.833 246.513a95.37 95.37 0 0 1 15.926-6.806 31.934 31.934 0 0 1 17.115-.668c6.352 1.723 11.701 5.981 16.521 10.455 3.062 2.841 6.122 6.001 7.203 10.03 1.284 4.782-.446 9.786-1.86 14.532a118.045 118.045 0 0 0-3.456 15.179 13.887 13.887 0 0 0-.139 5.06 5.091 5.091 0 0 0 3.009 3.83l3.33-1.032a106.243 106.243 0 0 0 16.978-29.789c1.786-4.813 3.237-9.974 2.357-15.03-.879-5.057-4.702-9.924-9.804-10.469-3.297-.351-6.662 1.08-9.892.343-3.57-.817-5.993-4.012-8.443-6.728a48.6 48.6 0 0 0-33.829-15.873 29.45 29.45 0 0 0-14.562 2.698 16.705 16.705 0 0 0-9.05 11.276 11.754 11.754 0 0 0 .857 7.273 11.76 11.76 0 0 0 4.994 5.358l2.745.361Z" fill="#111"/><path d="M279.405 288.021a5.895 5.895 0 0 1 7.577-1.566 7.26 7.26 0 0 1 3.306 7.29 9.522 9.522 0 0 1-4.848 6.642 7.978 7.978 0 0 1-8.557-.092" fill="#F5AD8C"/><path d="M222.249 257.031a28.642 28.642 0 0 0 6.229-.943 38.1 38.1 0 0 1 6.872 0 1.864 1.864 0 0 0 .494-3.645c-4.104-.917-11.427-.758-14.322 2.841a1.044 1.044 0 0 0 .727 1.754m38.978 1.8a16.512 16.512 0 0 1 5.111 2.656 50.289 50.289 0 0 1 4.195 3.77 1.97 1.97 0 0 0 2.545.121 1.968 1.968 0 0 0 .528-2.492 12.683 12.683 0 0 0-5.406-4.585 16.28 16.28 0 0 0-3.16-1.137 27.832 27.832 0 0 0-3.557-.231c-1.073-.13-1.319 1.685-.256 1.898Z" fill="#111"/><path d="M287.33 291.957a2.94 2.94 0 0 0-.841-2.529 2.952 2.952 0 0 0-2.537-.815c-2.466.217-3.783 2.508-4.245 4.681a.696.696 0 0 0 .255.721.705.705 0 0 0 .763.058 2.61 2.61 0 0 1 3.949.889c.742 1.757-.766 2.983-2.449 2.702-.669-.112-1.242.859-.502 1.21a3.3 3.3 0 0 0 4.561-3.521c-.43-3.074-3.859-3.883-6.251-2.472l1.015.779a4.766 4.766 0 0 1 1.897-3.236 2.277 2.277 0 0 1 3.017.51c.232.294.388.641.454 1.009.12.431.836.477.921 0" fill="#CD9914"/><path d="M225.449 265.127a5.088 5.088 0 0 0-1.419 2.768 3.577 3.577 0 0 0 .871 2.931 2.785 2.785 0 0 0 2.89.744 3.01 3.01 0 0 0 1.65-1.672 3.484 3.484 0 0 0-.47-3.532 2.937 2.937 0 0 0-3.39-.803m34.495 5.414a5.073 5.073 0 0 0-1.417 2.766 3.58 3.58 0 0 0 .869 2.932 2.784 2.784 0 0 0 2.892.744 3.022 3.022 0 0 0 1.65-1.671 3.49 3.49 0 0 0-.47-3.533 2.94 2.94 0 0 0-3.39-.804" fill="#222221"/><path d="M340.066 433.092c.669.442-8.203 14.489-17.552 32.652-9.419 18.141-15.753 33.494-16.497 33.206-.334-.128.826-4.142 3.237-10.443a251.602 251.602 0 0 1 24.167-46.737c3.748-5.608 6.353-8.875 6.652-8.678" fill="#CD9914"/><path d="M314.774 476.704c.208.734-2.045 1.994-4.649 3.609-2.625 1.587-4.77 3.023-5.33 2.508-.546-.483.94-2.994 3.917-4.81 2.977-1.815 5.881-2.006 6.062-1.302" fill="#CD9914"/><path d="M388.949 410.079c-2.405 3.594-7.11 12.39-7.11 12.39l-31.952-6.586 11.77-23.101-2.753-22.045c4.42-2.61 9.388 14.544 9.388 14.544s19.377-8.977 21.204-2.974a4.937 4.937 0 0 1-1.409 4.908s4.49-1.652 5.456.782c.812 2.046-2.173 4.527-2.173 4.527a4.346 4.346 0 0 1 5.067 2.954c1.056 3.352-7.481 14.594-7.481 14.594" fill="#F5AC8E"/><path d="M387.094 387.288c.11.186-1.003 1.134-2.971 2.441a25.377 25.377 0 0 1-8.577 3.781 4.005 4.005 0 0 1-3.101-.585 2.884 2.884 0 0 1-1.003-1.337 2.34 2.34 0 0 1 .064-1.699 5.404 5.404 0 0 1 1.636-1.902c.51-.424 1.048-.815 1.608-1.17 2.071-1.284 3.561-1.58 3.631-1.393.099.224-1.197.893-2.96 2.324-.44.359-.906.767-1.378 1.234a4.602 4.602 0 0 0-1.148 1.451.834.834 0 0 0 0 .625c.105.237.274.44.489.585a2.56 2.56 0 0 0 1.908.266 36.114 36.114 0 0 0 8.266-3.176c2.085-1.035 3.421-1.642 3.539-1.445" fill="#CD9914"/><path d="M389.918 392.634c.12.183-.76 1.032-2.34 2.209a24.973 24.973 0 0 1-6.873 3.677 7.276 7.276 0 0 1-2.378.428 3.328 3.328 0 0 1-2.388-.902 2.834 2.834 0 0 1-.779-2.22 3.68 3.68 0 0 1 .619-1.789 5.426 5.426 0 0 1 1.866-1.642c.501-.269.804-.356.871-.269.066.087-.117.355-.477.764a7.847 7.847 0 0 0-1.269 1.727 2.057 2.057 0 0 0 .209 2.355c.58.557 1.928.467 3.223 0a43.797 43.797 0 0 0 6.766-3.102c1.716-.913 2.831-1.428 2.955-1.237" fill="#CD9914"/><path d="M393.696 398.844c.152.136-.358 1.075-1.659 2.173a11.955 11.955 0 0 1-6.088 2.642 5.205 5.205 0 0 1-2.105-.194 2.989 2.989 0 0 1-1.711-1.379 3.392 3.392 0 0 1 .235-3.369 5.29 5.29 0 0 1 1.433-1.481c.389-.266.642-.365.72-.286.079.079-.025.334-.262.721a10.746 10.746 0 0 0-.874 1.574 2.378 2.378 0 0 0 .038 2.09 2.447 2.447 0 0 0 2.372.709 15.488 15.488 0 0 0 5.584-1.966c1.352-.776 2.143-1.404 2.317-1.237m-26.484-5.869a10.964 10.964 0 0 1 7.139 3.495c1.515 2 2.521 4.338 2.932 6.813.168.563 1.161.668 1.249 0 .856-6.33-5.627-11.164-11.32-11.36-.688-.025-.669.985 0 1.052Z" fill="#CD9914"/><path d="M228.303 268.764a7.247 7.247 0 0 0 1.907-.015.35.35 0 0 0 .183-.544.354.354 0 0 0-.183-.125 7.334 7.334 0 0 0-1.907 0 .334.334 0 0 0 0 .669m34.594 5.84c.599.104 1.206.16 1.814.167.414-.049.605-.717.108-.804a11.86 11.86 0 0 0-1.922.043.298.298 0 0 0-.212.511.301.301 0 0 0 .212.088" fill="#F2E7E2"/><path d="M277.444 297.225a35.768 35.768 0 0 1 9.976-19.925c3.974-3.95 8.451-7.138 10.323-12.631.369-1.079-1.294-1.505-1.688-.467-2.598 6.854-9.459 10.468-13.583 16.272a33.545 33.545 0 0 0-5.908 16.634c-.046.501.801.617.88.117Zm-50.027-75.628c-5.336 10.563 8.412 16.068 16.383 17.399.787.13 1.14-1.023.334-1.22-7.474-1.839-19.995-5.494-16.433-16.059a.156.156 0 0 0-.198-.183.156.156 0 0 0-.086.063Z" fill="#4444AD"/><path d="M276.899 296.517c-2.73-11.955 3.532-21.288 7.974-31.836 2.842-6.749 4.565-14.21 1.799-21.264-.348-.888-1.769-.545-1.465.404 6.084 18.991-16.436 34.307-9.406 52.993a.569.569 0 0 0 1.033.118.573.573 0 0 0 .065-.421m-3.898-47.338a25.913 25.913 0 0 0-8.923-16.911c-5.624-4.947-14.564-5.349-19.133-11.2-.473-.607-1.443.167-1.055.814 3.121 5.152 9.556 5.563 14.454 8.228 7.497 4.077 11.722 11.157 13.922 19.169.108.395.774.334.735-.1Z" fill="#4444AD"/><path d="M266.666 291.139a8.948 8.948 0 0 1-4.778 4.9 9.421 9.421 0 0 1-6.956.351c-5.416-1.373-8.845-6.262-7.664-10.926 1.18-4.664 6.519-7.324 11.941-5.953a12.364 12.364 0 0 1 6.614 4.863 7.443 7.443 0 0 1 .836 6.765" fill="#CD9914" opacity=".39"/><path d="M103.322 180.295c-25.458 26.826-48.02 57.061-61.59 91.467-13.569 34.405-17.616 73.387-6.352 108.608 13.347 41.735 47.041 74.744 85.758 95.274 38.716 20.53 82.32 29.88 125.661 36.321 4.012.595 8.408 1.097 11.869-1.028 7.158-4.396 3.993-16.443-3.26-20.68-7.254-4.238-16.216-3.536-24.591-4.213a71.265 71.265 0 0 1-52.93-31.328c-5.766-8.744-10.326-19.483-19.987-23.53-11.276-4.724-24.006 1.941-36.217 1.387-20.449-.927-34.016-20.867-44.197-38.626-9.374-16.352-18.928-33.208-21.643-51.862-2.118-14.544.06-29.325 2.237-43.859 5.981-39.967 19.77-85.803 45.251-117.931M205.269 544.26a10.056 10.056 0 0 0 10.097-15.559 10.053 10.053 0 1 0-10.29 15.523" fill="#EDEDEB"/><path d="M216.247 506.588c-23.193-2.842-47.17 7.982-67.222-3.021-6.585-3.613-11.383-9.995-18.145-13.268-10.831-5.244-23.611-1.354-35.645-1.369a54.974 54.974 0 0 1-49.16-32.274c-2.42-5.57-3.786-12.33-.593-17.499 3.575-5.784 11.778-7.23 18.2-4.994 6.42 2.237 11.42 7.274 15.982 12.319 4.562 5.045 9.08 10.383 15.092 13.556 13.74 7.247 31.89 1.556 45.128 9.682 9.572 5.876 14.284 17.72 23.947 23.447 11.76 6.973 52.269-.958 52.416 13.421Z" fill="#126F43"/><path d="M70.219 205.933c-.91 7.523-8.802 11.904-15.881 14.613-7.08 2.708-15.17 5.785-17.847 12.872-1.685 4.458-.776 9.679-2.95 13.921-2.996 5.851-11.014 8.203-13.047 14.456-1.884 5.795 3.096 12.273 9.104 13.3 6.008 1.026 12.115-2.341 15.893-7.125 3.778-4.785 5.624-10.783 7.08-16.7 1.417-5.761 2.582-11.702 5.587-16.823 2.193-3.738 5.285-6.882 7.48-10.618 2.195-3.736 6.52-14.022 4.576-17.897M3.85 317.482c-.611.592-4.553 6.677-2.005 11.455a10.237 10.237 0 0 0 13.985 3.654 10.151 10.151 0 0 0 4.033-10.599 10.147 10.147 0 0 0-1.649-3.627 10.073 10.073 0 0 0-6.997-3.463 10.064 10.064 0 0 0-7.368 2.58" fill="#2D2D2D"/><path d="M56.672 303.278c3.997-2.329 8.553.461 10.418 4.696 1.866 4.234 1.06 9.145-.244 13.585-1.304 4.44-3.09 8.844-3.107 13.469-.044 12.083 11.427 20.746 16.243 31.828 1.682 3.868 2.573 8.109 4.848 11.656 3.073 4.79 8.258 7.712 12.605 11.386 4.346 3.675 8.176 9.126 6.894 14.671-1.471 6.352-9.345 9.505-15.685 7.957-6.341-1.548-11.286-6.428-15.474-11.434a104.356 104.356 0 0 1-22.86-46.64 81.079 81.079 0 0 1 6.352-51.176" fill="gray"/><path d="M124.753 438.315a10.32 10.32 0 0 0-4.058 8.21 8.415 8.415 0 0 0 3.402 6.464 13.012 13.012 0 0 0 7.036 2.466c3.566.252 7.488-.776 9.599-3.659a8.87 8.87 0 0 0-.209-10.056 12.282 12.282 0 0 0-9.194-4.848 11.364 11.364 0 0 0-6.026 1.099 7.617 7.617 0 0 0-3.907 4.592" fill="#126F43"/><path d="M339.883 465.044c8.248 5.851 44.509-21.369 58.659-42.416 14.151-21.046 18.255-50.129 5.22-71.883-2.954-4.926-6.712-9.43-8.785-14.786-2.073-5.356-2.063-12.078 1.969-16.17 4.41-4.475 12.081-4.059 17.439-.776 5.358 3.284 8.945 8.738 12.356 14.016 7.464 11.555 15.013 23.286 19.179 36.398 4.166 13.111 4.614 27.994-1.856 40.135-6.118 11.48-17.439 19.057-26.603 28.287-7.857 7.914-14.221 17.187-21.943 25.226-7.721 8.039-17.305 15.028-28.357 16.501-11.051 1.473-23.552-4.024-27.278-14.53m-22.937-193.218c4.666-2.648 10.605-1.14 15.359 1.337 4.755 2.478 9.133 5.9 14.344 7.18 5.21 1.281 11.79-.501 13.555-5.573 1.272-3.648-.426-7.8-3.176-10.505a30.866 30.866 0 0 0-9.992-5.749c-5.896-2.478-12.111-5.015-18.47-4.325-6.359.691-12.728 5.804-12.406 12.19m78.171 9.486a13.117 13.117 0 0 0 6.94 15.809 12.69 12.69 0 0 0 15.979-6.223 12.296 12.296 0 0 0-6.352-15.793c-5.88-2.35-14.756.139-16.57 6.207" fill="#2ECC82"/><path d="M208.788 397.406c-1.353 13.226-2.675 26.436-3.691 39.692a1.425 1.425 0 0 0 1.922 1.505 704.8 704.8 0 0 0 18.492-7.282c6.097-2.507 12.078-5.57 18.28-7.778a1.748 1.748 0 0 0 1.051-1.373 1.744 1.744 0 0 0-.648-1.603c-5.545-4.091-11.232-7.991-16.884-11.936-5.652-3.945-11.187-8.094-16.999-11.777-2.383-1.504-5.076 1.811-2.72 3.537 11.073 8.115 22.87 15.607 34.487 22.921l.401-2.977a175.966 175.966 0 0 1-18.099 8.221 492.917 492.917 0 0 1-18.424 7.442l1.921 1.505c.971-13.293 1.64-26.58 2.28-39.895.042-.878-1.281-1.098-1.374-.197" fill="#EDEDEB"/><path d="M217.845 422.337c11.976 5.824 23.948 11.612 36.068 17.136a1.43 1.43 0 0 0 1.381-.185 1.42 1.42 0 0 0 .561-1.276 712.055 712.055 0 0 0-.484-19.874c-.254-6.593-1.077-13.269-1.023-19.86.011-1.438-1.811-1.809-2.777-1.17-11.444 7.573-23.069 15.331-33.947 23.691-2.295 1.764.348 5.119 2.72 3.537 5.727-3.814 11.18-8.094 16.73-12.161 5.55-4.068 11.157-8.105 16.61-12.321l-2.778-1.17a174.473 174.473 0 0 1 1.504 19.803c.352 6.613.571 13.231.655 19.853l1.946-1.461c-12.13-5.47-24.363-10.657-36.623-15.823a.709.709 0 0 0-.531-.003.711.711 0 0 0-.226.149.69.69 0 0 0-.155.756.701.701 0 0 0 .374.377m-14.952 25.863v-.805c.092.081.202.155.329.22.13.065.266.12.407.166.143.044.287.077.431.102.143.024.276.036.398.036.42 0 .733-.077.939-.231.208-.157.313-.382.313-.675a.78.78 0 0 0-.106-.41 1.127 1.127 0 0 0-.284-.318 2.674 2.674 0 0 0-.435-.276 22.658 22.658 0 0 0-.537-.28 9.517 9.517 0 0 1-.569-.313 2.453 2.453 0 0 1-.459-.35 1.497 1.497 0 0 1-.309-.431 1.375 1.375 0 0 1-.11-.569c0-.265.058-.496.175-.691.116-.197.27-.36.459-.487.19-.128.405-.223.646-.285a3.01 3.01 0 0 1 .744-.093c.575 0 .993.069 1.256.207v.768c-.344-.238-.786-.358-1.325-.358-.149 0-.298.017-.447.049-.149.03-.282.08-.398.151a.873.873 0 0 0-.285.272.722.722 0 0 0-.109.406c0 .149.027.278.081.386a.955.955 0 0 0 .248.297c.108.09.24.176.394.26.157.084.337.176.541.277.208.103.406.211.593.325.187.114.351.24.492.378.141.138.252.291.333.459.084.168.126.36.126.577 0 .287-.057.531-.171.732a1.36 1.36 0 0 1-.455.484c-.19.124-.409.214-.658.268-.25.057-.512.085-.789.085-.092 0-.206-.008-.341-.024a3.914 3.914 0 0 1-.415-.065 3.372 3.372 0 0 1-.402-.102 1.306 1.306 0 0 1-.301-.142Zm7.718.236h-3.024v-5.829h.683v5.211h2.341v.618Zm2.959.097c-.826 0-1.489-.272-1.987-.817-.496-.544-.744-1.253-.744-2.126 0-.937.253-1.685.76-2.243.507-.558 1.196-.837 2.069-.837.805 0 1.452.271 1.943.813.493.541.739 1.25.739 2.125 0 .951-.252 1.703-.756 2.256-.504.553-1.178.829-2.024.829Zm.049-5.406c-.612 0-1.109.221-1.492.663-.382.442-.573 1.021-.573 1.74 0 .718.186 1.296.557 1.735.374.436.861.654 1.459.654.64 0 1.144-.208 1.512-.626.369-.417.553-1.001.553-1.751 0-.77-.179-1.365-.536-1.785-.358-.42-.851-.63-1.48-.63Zm8.235 4.91a3.896 3.896 0 0 1-1.951.496c-.832 0-1.505-.268-2.02-.805-.512-.536-.768-1.246-.768-2.129 0-.903.284-1.642.853-2.22.572-.579 1.295-.869 2.171-.869.634 0 1.166.103 1.597.309v.756c-.472-.299-1.03-.448-1.675-.448-.653 0-1.188.225-1.605.675-.417.45-.626 1.032-.626 1.748 0 .737.194 1.317.581 1.739.388.42.913.63 1.577.63.455 0 .85-.09 1.183-.272v-1.634H219.9v-.618h1.959v2.642Zm5.869.399h-.756l-.618-1.634h-2.471l-.581 1.634h-.76l2.235-5.829h.707l2.244 5.829Zm-1.598-2.248-.914-2.483a2.312 2.312 0 0 1-.089-.391h-.017a2.194 2.194 0 0 1-.093.391l-.907 2.483h2.02Zm7.158 2.248h-.837l-3-4.646a1.975 1.975 0 0 1-.187-.366h-.024c.021.125.032.392.032.801v4.211h-.683v-5.829h.887l2.918 4.573c.122.189.2.319.236.39h.016a6.171 6.171 0 0 1-.041-.858v-4.105h.683v5.829Z" fill="#EDEDEB"/><path d="M127.241 381.391c3.845-9.074 8.098-17.536 11.11-26.964 3.125-9.773 5.452-19.763 9.246-29.322 6.483-16.321 16.717-30.134 32.729-37.93 3.636-1.769 1.083-7.944-2.775-6.582-16.55 5.839-28.125 20.956-35.35 36.353a194.962 194.962 0 0 0-9.99 27.917c-1.608 5.453-2.969 10.991-4.361 16.508-1.505 5.943-2.234 11.981-4.643 17.668-1.158 2.737 2.864 5.117 4.034 2.355" fill="#2ECC82"/><path d="M157.343 142.088a50.933 50.933 0 0 0-74.74 12.336l13.471-1.192c-3.746 3.818-7.601 7.81-9.361 12.862-1.76 5.052-.746 11.488 3.73 14.41 3.608 2.357 8.34 1.865 12.537.872 4.197-.993 8.482-2.41 12.718-1.623 4.236.788 8.26 4.835 7.168 9.002-1.809 6.896-14.333 6.617-15.266 13.685-.538 4.077 3.579 7.268 7.508 8.482 14.042 4.346 29.452-5.237 36.354-18.221 6.903-12.985 7.232-28.377 6.638-43.068m-60.287 58.59c1.652-2.797-1.86-5.898-4.333-6.353a6.123 6.123 0 0 0-6.34 2.871 6.117 6.117 0 0 0-.815 2.312 5.776 5.776 0 0 0 3.862 5.866 5.767 5.767 0 0 0 2.479.294 6.05 6.05 0 0 0 4.323-2.634 6.051 6.051 0 0 0 .804-4.999 2.837 2.837 0 0 0-2.287-1.796 3.043 3.043 0 0 0-2.412.815 3.047 3.047 0 0 0-.951 2.362c0 .03-.256.516-.049.269a.158.158 0 0 1 .157.035c.144.095.05.06-.277-.102.028-.02.167.095.147.112a1.024 1.024 0 0 1 1.003-.262c1.153.28 1.86 1.461 2.94 1.904a1.37 1.37 0 0 0 1.749-.682m13.222 14.134a1.068 1.068 0 0 0 2.113.31 1.069 1.069 0 0 0-2.113-.31Z" fill="#171717"/><path d="M220.304 154.992s14.308 80.43-71.132 74.752c0 0 40.936-18.068 35.403-44.434l35.729-30.318Z" fill="#2ECC82"/><path d="M319.652 4.25S231.141-9.86 115.43 99.228l71.214 87.678s131.908-88.909 133-182.656" fill="#EDEDEB"/><path d="m186.652 186.906-72.973-89.834-5.781 3.511 74.769 91.473 3.985-5.15Z" fill="#000"/><path d="m182.431 112.502-33.459 19.631-47.421 48.082s38.261-18.928 55.93-34.291c5.496-4.779 20.16-20.752 24.95-33.417M147.838 71.14s-79.98-23.935-82.379 61.657c0 0 21.846-39.05 47.573-31.055l34.806-30.602Z" fill="#2ECC82"/><path d="M182.428 112.496s-46.974.873-52.713 4.31l18.225 22.437 34.488-26.747Z" fill="#9797DB" opacity=".1"/><path d="M256.582 10.682s20.58 41.948 44.251 57.381L322.797.83h-3.344l-62.685 8.594M238.08 46.848c-15.174-1.84-24.09 12.465-23.54 26.228.52 13.14 13.477 23.461 26.304 21.398a24.376 24.376 0 0 0 16.194-9.706 24.386 24.386 0 0 0 4.409-18.358c-2.318-14.15-17.119-26.04-31.656-21.043a3.564 3.564 0 0 0-1.338 6.052 3.565 3.565 0 0 0 2.279.913c9.114.298 16.895 1.935 21.842 10.422 5.279 9.065-.361 20.562-9.432 24.09-25.075 9.743-31.469-36.673-5.058-37.215a1.391 1.391 0 0 0 .94-2.35 1.391 1.391 0 0 0-.94-.431" fill="#2ECC82"/><path d="M238.076 48.232c-7.608-1.015-14.94 4.499-18.239 11.426a24.135 24.135 0 0 0-1.735 16.117 21.076 21.076 0 0 0 9.561 12.959 20.804 20.804 0 0 0 25.23-4.198 22.08 22.08 0 0 0 1.884-25.744 23.526 23.526 0 0 0-24.054-10.005" fill="#2ECC82" opacity=".32"/></svg>