<svg width="449" height="545" viewBox="0 0 449 545" fill="none" xmlns="http://www.w3.org/2000/svg">
<path d="M89.9629 443.454C74.1404 418.477 88.3966 384.007 111.193 365.179C133.99 346.35 163.323 337.793 189.502 324.047C220.865 307.582 249.297 282.962 284.307 277.582C312.559 273.236 342.303 282.798 363.814 301.616C385.326 320.434 398.607 347.957 401.571 376.386C407.451 432.765 369.746 490.704 315.814 508.159C261.881 525.613 197.381 500.756 169.111 451.624" fill="#181818"/>
<path d="M122.984 431.825C122.984 431.825 147.751 332.758 249.508 346.218C351.266 359.679 346.331 447.126 346.331 447.126L291.499 451.207L293.209 512.991C262.704 516.428 216.255 506.589 160.821 498.165L162.827 453.364L122.984 431.825Z" fill="#2ECC82"/>
<path d="M346.424 445.283C346.424 445.283 346.395 445.937 346.332 447.122C345.697 459.013 341.379 524.386 323.513 522.927C303.861 521.323 290.38 512.228 291.507 451.201L346.395 445.934" fill="#F5AC8E"/>
<path d="M301.769 509.131C301.769 509.131 339.18 424.791 358.941 402.365L381.833 422.469C381.833 422.469 347.043 526.131 324.205 522.884C301.366 519.638 301.762 509.131 301.762 509.131" fill="#F5AC8E"/>
<path d="M125.639 433.258L112.09 473.546L156.861 500.574L162.816 453.358L125.639 433.258Z" fill="#F5AC8E"/>
<path d="M221.779 332.462L218.177 358.763C218.177 358.763 251.147 378.354 270.684 352.897L285.334 254.421C265.643 233.859 244.496 230.544 221.779 245.849C221.779 245.849 188.966 322.118 221.779 332.462Z" fill="#F5AD8C"/>
<path d="M220.886 271.534C221.769 269.577 223.22 267.932 225.052 266.812C225.626 266.449 226.281 266.237 226.959 266.193C227.636 266.15 228.314 266.278 228.929 266.564C229.545 266.851 230.079 267.287 230.482 267.833C230.885 268.379 231.145 269.018 231.237 269.69C231.326 270.098 232.013 270.122 232.073 269.69C232.541 266.808 229.605 264.675 226.941 264.868C223.415 265.125 221.197 268.139 220.07 271.193C219.893 271.668 220.635 271.965 220.877 271.528" fill="#222221"/>
<path d="M239.262 287.906C239.399 288.025 239.213 288.539 238.678 289.362C237.89 290.637 236.72 291.631 235.335 292.204C234.24 292.603 233.042 292.616 231.94 292.241C231.258 291.997 230.655 291.575 230.193 291.019C229.718 290.411 229.42 289.684 229.332 288.917C229.257 287.579 229.457 286.239 229.92 284.98C230.254 283.8 230.664 282.592 231.09 281.361C234.554 271.475 239.536 264.516 240.136 264.908C240.805 265.303 236.991 272.678 233.641 282.262C233.225 283.461 232.816 284.629 232.449 285.773C232.068 286.694 231.852 287.675 231.811 288.671C231.81 288.987 231.9 289.296 232.071 289.561C232.243 289.826 232.487 290.036 232.775 290.164C233.409 290.441 234.114 290.515 234.791 290.375C235.939 290.03 236.999 289.444 237.901 288.656C238.641 288.088 239.111 287.792 239.255 287.918" fill="#CD9914"/>
<path d="M232.128 300.536C236.489 301.325 242.492 300.083 244.779 295.805C244.841 295.695 244.861 295.566 244.835 295.443C244.81 295.319 244.741 295.209 244.641 295.131C244.542 295.054 244.417 295.016 244.291 295.022C244.165 295.029 244.046 295.081 243.955 295.168C242.498 296.607 240.825 297.809 238.997 298.73C236.914 299.6 234.633 299.88 232.402 299.541C231.757 299.439 231.469 300.417 232.128 300.544" fill="#CD9914"/>
<path d="M242.723 294.472C243.143 294.438 243.564 294.502 243.955 294.658C244.345 294.815 244.694 295.06 244.973 295.375C245.452 296.024 245.793 296.763 245.976 297.548C246.002 297.629 246.05 297.701 246.116 297.756C246.181 297.81 246.26 297.845 246.344 297.856C246.429 297.867 246.514 297.853 246.591 297.817C246.668 297.781 246.733 297.724 246.779 297.652C247.013 297.095 247.058 296.476 246.907 295.89C246.756 295.305 246.418 294.785 245.943 294.41C245.508 293.986 244.977 293.674 244.394 293.502C243.811 293.331 243.195 293.305 242.599 293.427C242.48 293.465 242.377 293.544 242.31 293.65C242.242 293.756 242.215 293.883 242.231 294.007C242.248 294.132 242.308 294.246 242.401 294.331C242.494 294.415 242.614 294.464 242.74 294.469" fill="#CD9914"/>
<path d="M256.163 275.31C256.703 274.202 257.585 273.297 258.68 272.731C259.775 272.164 261.023 271.966 262.24 272.166C263.421 272.467 264.481 273.121 265.28 274.041C266.079 274.962 266.578 276.104 266.71 277.315C266.835 277.913 267.713 277.749 267.743 277.174C267.739 275.675 267.216 274.223 266.262 273.065C265.309 271.907 263.985 271.114 262.514 270.822C261.041 270.583 259.531 270.847 258.227 271.572C256.923 272.297 255.901 273.44 255.326 274.817C255.058 275.374 255.889 275.864 256.162 275.304" fill="#222221"/>
<path d="M222.833 246.513C227.924 243.766 233.255 241.488 238.759 239.707C244.296 237.93 250.214 237.699 255.874 239.039C262.226 240.762 267.575 245.02 272.395 249.494C275.457 252.335 278.517 255.495 279.598 259.524C280.882 264.306 279.152 269.31 277.738 274.056C276.253 279.034 275.099 284.105 274.282 289.235C273.926 290.899 273.879 292.614 274.143 294.295C274.285 295.134 274.634 295.924 275.16 296.593C275.685 297.262 276.371 297.789 277.152 298.125L280.482 297.093C287.717 288.148 293.451 278.087 297.46 267.304C299.246 262.491 300.697 257.33 299.817 252.274C298.938 247.217 295.115 242.35 290.013 241.805C286.716 241.454 283.351 242.885 280.121 242.148C276.551 241.331 274.128 238.136 271.678 235.42C267.365 230.673 262.156 226.827 256.35 224.103C250.544 221.378 244.256 219.83 237.849 219.547C232.845 219.191 227.832 220.12 223.287 222.245C221.03 223.326 219.045 224.901 217.478 226.852C215.912 228.804 214.804 231.083 214.237 233.521C213.741 235.975 214.041 238.523 215.094 240.794C216.146 243.066 217.895 244.943 220.088 246.152L222.833 246.513Z" fill="#111111"/>
<path d="M279.405 288.021C280.267 286.89 281.508 286.109 282.901 285.821C284.293 285.533 285.742 285.759 286.982 286.455C288.187 287.212 289.143 288.307 289.731 289.603C290.319 290.899 290.513 292.34 290.288 293.745C290.028 295.144 289.457 296.467 288.618 297.617C287.779 298.766 286.693 299.713 285.44 300.387C284.153 301.186 282.664 301.602 281.148 301.586C279.633 301.57 278.153 301.122 276.883 300.295" fill="#F5AD8C"/>
<path d="M222.249 257.031C224.354 256.947 226.443 256.63 228.478 256.088C230.764 255.881 233.064 255.881 235.35 256.088C235.792 256.076 236.216 255.907 236.545 255.612C236.874 255.316 237.087 254.913 237.146 254.475C237.206 254.037 237.107 253.592 236.869 253.219C236.63 252.847 236.267 252.572 235.844 252.443C231.74 251.526 224.417 251.685 221.522 255.284C221.386 255.431 221.294 255.613 221.259 255.81C221.223 256.007 221.245 256.21 221.322 256.395C221.398 256.58 221.527 256.739 221.691 256.853C221.856 256.967 222.049 257.031 222.249 257.038" fill="#111111"/>
<path d="M261.227 258.838C263.073 259.417 264.803 260.316 266.338 261.494C267.806 262.671 269.206 263.93 270.533 265.264C270.874 265.582 271.317 265.77 271.783 265.792C272.249 265.814 272.708 265.67 273.078 265.385C273.447 265.1 273.703 264.693 273.8 264.236C273.897 263.78 273.828 263.304 273.606 262.893C272.276 260.882 270.401 259.291 268.2 258.308C267.188 257.821 266.13 257.44 265.04 257.171C263.861 257.018 262.672 256.941 261.483 256.94C260.41 256.81 260.164 258.625 261.227 258.838Z" fill="#111111"/>
<path d="M287.33 291.957C287.399 291.499 287.358 291.031 287.212 290.592C287.066 290.152 286.818 289.754 286.489 289.428C286.16 289.102 285.758 288.859 285.318 288.717C284.877 288.576 284.409 288.54 283.952 288.613C281.486 288.83 280.169 291.121 279.707 293.294C279.675 293.426 279.682 293.564 279.728 293.693C279.773 293.821 279.854 293.933 279.962 294.015C280.07 294.098 280.2 294.147 280.335 294.158C280.471 294.168 280.606 294.138 280.725 294.073C281.03 293.834 281.384 293.665 281.762 293.58C282.14 293.495 282.533 293.495 282.911 293.58C283.289 293.665 283.643 293.833 283.948 294.072C284.253 294.311 284.501 294.615 284.674 294.962C285.416 296.719 283.908 297.945 282.225 297.664C281.556 297.552 280.983 298.523 281.723 298.874C282.263 299.104 282.855 299.186 283.437 299.112C284.019 299.037 284.571 298.809 285.035 298.45C285.5 298.091 285.86 297.616 286.08 297.071C286.299 296.527 286.37 295.934 286.284 295.353C285.854 292.279 282.425 291.47 280.033 292.881L281.048 293.66C281.129 293.02 281.34 292.404 281.666 291.848C281.992 291.292 282.427 290.807 282.945 290.424C283.261 290.222 283.622 290.102 283.995 290.073C284.368 290.044 284.743 290.107 285.086 290.257C285.429 290.408 285.73 290.64 285.962 290.934C286.194 291.228 286.35 291.575 286.416 291.943C286.536 292.374 287.252 292.42 287.337 291.943" fill="#CD9914"/>
<path d="M225.449 265.127C224.699 265.879 224.202 266.847 224.03 267.895C223.95 268.418 223.986 268.951 224.137 269.458C224.287 269.965 224.548 270.432 224.901 270.826C225.262 271.212 225.726 271.487 226.237 271.618C226.749 271.75 227.288 271.733 227.791 271.57C228.164 271.416 228.502 271.189 228.786 270.901C229.069 270.614 229.292 270.273 229.441 269.898C229.688 269.321 229.774 268.689 229.692 268.067C229.609 267.445 229.36 266.858 228.971 266.366C228.566 265.888 228.018 265.552 227.408 265.408C226.798 265.263 226.158 265.318 225.581 265.563" fill="#222221"/>
<path d="M260.076 270.977C259.326 271.728 258.83 272.696 258.659 273.743C258.578 274.266 258.615 274.8 258.765 275.307C258.915 275.813 259.176 276.281 259.528 276.675C259.889 277.061 260.354 277.336 260.866 277.468C261.378 277.6 261.917 277.583 262.42 277.419C262.793 277.265 263.131 277.038 263.415 276.751C263.698 276.464 263.921 276.123 264.07 275.748C264.317 275.171 264.403 274.539 264.321 273.917C264.238 273.295 263.989 272.707 263.6 272.215C263.195 271.737 262.647 271.401 262.037 271.256C261.427 271.112 260.787 271.166 260.21 271.411" fill="#222221"/>
<path d="M340.066 433.092C340.735 433.534 331.863 447.581 322.514 465.744C313.095 483.885 306.761 499.238 306.017 498.95C305.683 498.822 306.843 494.808 309.254 488.507C315.654 472.126 323.754 456.462 333.421 441.77C337.169 436.162 339.774 432.895 340.073 433.092" fill="#CD9914"/>
<path d="M314.774 476.704C314.982 477.438 312.729 478.698 310.125 480.313C307.5 481.9 305.355 483.336 304.795 482.821C304.249 482.338 305.735 479.827 308.712 478.011C311.689 476.196 314.593 476.005 314.774 476.709" fill="#CD9914"/>
<path d="M388.949 410.079C386.544 413.673 381.839 422.469 381.839 422.469L349.887 415.883L361.657 392.782L358.904 370.737C363.324 368.127 368.292 385.281 368.292 385.281C368.292 385.281 387.669 376.304 389.496 382.307C389.731 383.176 389.724 384.092 389.476 384.957C389.227 385.823 388.747 386.603 388.087 387.215C388.087 387.215 392.577 385.563 393.543 387.997C394.355 390.043 391.37 392.524 391.37 392.524C392.431 392.295 393.539 392.471 394.477 393.018C395.414 393.564 396.113 394.442 396.437 395.478C397.493 398.83 388.956 410.072 388.956 410.072" fill="#F5AC8E"/>
<path d="M387.094 387.288C387.204 387.474 386.091 388.422 384.123 389.729C381.524 391.511 378.615 392.793 375.546 393.51C375.016 393.627 374.469 393.636 373.936 393.535C373.403 393.435 372.895 393.227 372.445 392.925C371.986 392.588 371.637 392.123 371.442 391.588C371.25 391.034 371.272 390.428 371.506 389.889C371.894 389.136 372.455 388.484 373.142 387.987C373.652 387.563 374.19 387.172 374.75 386.817C376.821 385.533 378.311 385.237 378.381 385.424C378.48 385.648 377.184 386.317 375.421 387.748C374.981 388.107 374.515 388.515 374.043 388.982C373.566 389.383 373.176 389.876 372.895 390.433C372.814 390.633 372.814 390.857 372.895 391.058C373 391.295 373.169 391.498 373.384 391.643C373.961 391.977 374.646 392.072 375.292 391.909C378.167 391.193 380.944 390.127 383.558 388.733C385.643 387.698 386.979 387.091 387.097 387.288" fill="#CD9914"/>
<path d="M389.918 392.634C390.038 392.817 389.158 393.666 387.578 394.843C385.493 396.421 383.174 397.662 380.705 398.52C379.942 398.794 379.138 398.939 378.327 398.948C377.889 398.962 377.453 398.89 377.043 398.735C376.633 398.58 376.258 398.346 375.939 398.046C375.658 397.753 375.442 397.404 375.308 397.021C375.173 396.638 375.123 396.23 375.16 395.826C375.207 395.186 375.42 394.569 375.779 394.037C376.265 393.353 376.904 392.791 377.645 392.395C378.146 392.126 378.449 392.039 378.516 392.126C378.582 392.213 378.399 392.481 378.039 392.89C377.539 393.405 377.112 393.986 376.77 394.617C376.558 394.983 376.465 395.406 376.502 395.828C376.54 396.249 376.706 396.649 376.979 396.972C377.559 397.529 378.907 397.439 380.202 396.972C382.541 396.132 384.805 395.094 386.968 393.87C388.684 392.957 389.799 392.442 389.923 392.633" fill="#CD9914"/>
<path d="M393.696 398.844C393.848 398.98 393.338 399.919 392.037 401.017C390.298 402.455 388.187 403.37 385.949 403.659C385.242 403.739 384.525 403.673 383.844 403.465C383.119 403.239 382.507 402.746 382.133 402.086C381.874 401.552 381.76 400.961 381.801 400.37C381.843 399.779 382.038 399.209 382.368 398.717C382.744 398.134 383.231 397.631 383.801 397.236C384.19 396.97 384.443 396.871 384.521 396.95C384.6 397.029 384.496 397.284 384.259 397.671C383.924 398.17 383.632 398.697 383.385 399.245C383.232 399.574 383.156 399.932 383.163 400.295C383.17 400.657 383.259 401.012 383.423 401.335C383.72 401.653 384.096 401.887 384.513 402.011C384.93 402.136 385.373 402.147 385.795 402.044C387.766 401.754 389.661 401.086 391.379 400.078C392.731 399.302 393.522 398.674 393.696 398.841" fill="#CD9914"/>
<path d="M367.212 392.972C369.945 393.203 372.492 394.45 374.351 396.467C375.866 398.467 376.872 400.805 377.283 403.28C377.451 403.843 378.444 403.948 378.532 403.28C379.388 396.95 372.905 392.116 367.212 391.92C366.524 391.895 366.543 392.905 367.212 392.972Z" fill="#CD9914"/>
<path d="M228.303 268.764C228.937 268.843 229.578 268.838 230.21 268.749C230.283 268.728 230.347 268.684 230.393 268.624C230.438 268.564 230.463 268.49 230.463 268.415C230.463 268.339 230.438 268.266 230.393 268.205C230.347 268.145 230.283 268.101 230.21 268.08C229.577 267.997 228.936 267.997 228.303 268.08C228.214 268.08 228.129 268.115 228.067 268.178C228.004 268.241 227.969 268.326 227.969 268.415C227.969 268.503 228.004 268.588 228.067 268.651C228.129 268.714 228.214 268.749 228.303 268.749" fill="#F2E7E2"/>
<path d="M262.897 274.589C263.496 274.693 264.103 274.749 264.711 274.756C265.125 274.707 265.316 274.039 264.819 273.952C264.178 273.914 263.535 273.929 262.897 273.995C262.818 273.995 262.741 274.027 262.685 274.083C262.629 274.139 262.598 274.215 262.598 274.294C262.598 274.374 262.629 274.45 262.685 274.506C262.741 274.562 262.818 274.594 262.897 274.594" fill="#F2E7E2"/>
<path d="M277.444 297.225C278.563 289.69 282.058 282.71 287.42 277.3C291.394 273.35 295.871 270.162 297.743 264.669C298.112 263.59 296.449 263.164 296.055 264.202C293.457 271.056 286.596 274.67 282.472 280.474C279.053 285.392 277.013 291.135 276.564 297.108C276.518 297.609 277.365 297.725 277.444 297.225Z" fill="#4444AD"/>
<path d="M227.417 221.597C222.081 232.16 235.829 237.665 243.8 238.996C244.587 239.126 244.94 237.973 244.134 237.776C236.66 235.937 224.139 232.282 227.701 221.717C227.709 221.682 227.704 221.644 227.687 221.612C227.67 221.58 227.643 221.554 227.609 221.54C227.575 221.526 227.538 221.523 227.503 221.534C227.468 221.544 227.437 221.567 227.417 221.597Z" fill="#4444AD"/>
<path d="M276.899 296.517C274.169 284.562 280.431 275.229 284.873 264.681C287.715 257.932 289.438 250.471 286.672 243.417C286.324 242.529 284.903 242.872 285.207 243.821C291.291 262.812 268.771 278.128 275.801 296.814C275.845 296.954 275.943 297.072 276.072 297.142C276.202 297.213 276.353 297.23 276.495 297.191C276.637 297.152 276.759 297.059 276.834 296.932C276.909 296.806 276.932 296.655 276.899 296.511" fill="#4444AD"/>
<path d="M273.001 249.173C272.291 242.604 269.099 236.555 264.078 232.262C258.454 227.315 249.514 226.913 244.945 221.062C244.472 220.455 243.502 221.229 243.89 221.876C247.011 227.028 253.446 227.439 258.344 230.104C265.841 234.181 270.066 241.261 272.266 249.273C272.374 249.668 273.04 249.607 273.001 249.173Z" fill="#4444AD"/>
<g opacity="0.39">
<path d="M266.666 291.139C265.786 293.341 264.067 295.103 261.888 296.039C259.7 297.04 257.211 297.166 254.932 296.39C249.516 295.017 246.087 290.128 247.268 285.464C248.448 280.8 253.787 278.14 259.209 279.511C261.903 280.331 264.236 282.047 265.823 284.374C266.491 285.354 266.915 286.479 267.06 287.655C267.205 288.832 267.068 290.026 266.659 291.139" fill="#CD9914"/>
</g>
<path d="M103.322 180.295C77.8642 207.121 55.3014 237.356 41.7323 271.762C28.1631 306.167 24.116 345.149 35.3798 380.37C48.7266 422.105 82.4212 455.114 121.138 475.644C159.854 496.174 203.458 505.524 246.799 511.965C250.811 512.56 255.207 513.062 258.668 510.937C265.826 506.541 262.661 494.494 255.408 490.257C248.154 486.019 239.192 486.721 230.817 486.044C220.215 485.106 209.958 481.805 200.799 476.384C191.639 470.963 183.81 463.559 177.887 454.716C172.121 445.972 167.561 435.233 157.9 431.186C146.624 426.462 133.894 433.127 121.683 432.573C101.234 431.646 87.667 411.706 77.4864 393.947C68.1116 377.595 58.5578 360.739 55.843 342.085C53.725 327.541 55.9032 312.76 58.0797 298.226C64.061 258.259 77.8508 212.423 103.331 180.295" fill="#EDEDEB"/>
<path d="M205.269 544.26C207.884 544.734 210.58 544.153 212.769 542.645C214.957 541.136 216.458 538.822 216.945 536.209C217.432 533.596 216.864 530.897 215.366 528.701C213.868 526.506 211.561 524.993 208.95 524.494C206.34 523.994 203.638 524.549 201.435 526.036C199.232 527.524 197.708 529.823 197.196 532.431C196.684 535.039 197.226 537.744 198.702 539.954C200.179 542.164 202.471 543.699 205.076 544.224" fill="#EDEDEB"/>
<path d="M216.247 506.588C193.054 503.746 169.077 514.57 149.025 503.567C142.44 499.954 137.642 493.572 130.88 490.299C120.049 485.055 107.269 488.945 95.2345 488.93C84.8255 488.756 74.6795 485.631 65.9769 479.918C57.2743 474.205 50.3727 466.138 46.0751 456.656C43.6545 451.086 42.2887 444.326 45.4816 439.157C49.0574 433.373 57.2604 431.927 63.6813 434.163C70.1023 436.4 75.1023 441.437 79.6644 446.482C84.2264 451.527 88.7434 456.865 94.7564 460.038C108.496 467.285 126.646 461.594 139.884 469.72C149.456 475.596 154.168 487.44 163.831 493.167C175.591 500.14 216.1 492.209 216.247 506.588Z" fill="#126F43"/>
<path d="M70.2187 205.933C69.3093 213.456 61.4173 217.837 54.3377 220.546C47.258 223.254 39.1671 226.331 36.4907 233.418C34.8056 237.876 35.715 243.097 33.5418 247.339C30.5445 253.19 22.527 255.542 20.4943 261.795C18.6103 267.59 23.5902 274.068 29.5983 275.095C35.6064 276.121 41.713 272.754 45.4911 267.97C49.2691 263.185 51.1146 257.187 52.5707 251.27C53.9883 245.509 55.1534 239.568 58.1575 234.447C60.3507 230.709 63.4434 227.565 65.6383 223.829C67.8332 220.093 72.1579 209.807 70.2137 205.932" fill="#2D2D2D"/>
<path d="M3.8508 317.482C3.23896 318.074 -0.702892 324.159 1.84477 328.937C3.21779 331.273 5.46083 332.969 8.08232 333.654C10.7038 334.339 13.4899 333.957 15.8301 332.591C16.9262 331.818 17.8581 330.835 18.572 329.7C19.2859 328.564 19.7676 327.298 19.9893 325.975C20.211 324.652 20.1682 323.299 19.8635 321.992C19.5588 320.686 18.9981 319.453 18.214 318.365C17.3371 317.351 16.2666 316.522 15.0651 315.927C13.8636 315.333 12.5554 314.984 11.2172 314.902C9.87912 314.82 8.53806 315.005 7.27278 315.449C6.00751 315.892 4.84351 316.583 3.84912 317.482" fill="#2D2D2D"/>
<path d="M56.6724 303.278C60.6694 300.949 65.2247 303.739 67.0904 307.974C68.956 312.208 68.1502 317.119 66.8463 321.559C65.5424 325.999 63.7553 330.403 63.7386 335.028C63.6951 347.111 75.1663 355.774 79.9824 366.856C81.6642 370.724 82.5552 374.965 84.8303 378.512C87.9029 383.302 93.0885 386.224 97.4349 389.898C101.781 393.573 105.611 399.024 104.329 404.569C102.858 410.921 94.9842 414.074 88.6435 412.526C82.3027 410.978 77.3579 406.098 73.1703 401.092C61.741 387.72 53.8773 371.677 50.3099 354.452C46.8014 337.156 49.0318 319.189 56.6623 303.276" fill="#808080"/>
<path d="M124.753 438.315C123.49 439.279 122.467 440.521 121.763 441.945C121.059 443.369 120.694 444.936 120.695 446.525C120.74 447.789 121.07 449.026 121.659 450.145C122.248 451.264 123.081 452.236 124.097 452.989C126.152 454.48 128.598 455.337 131.133 455.455C134.699 455.707 138.621 454.679 140.732 451.796C141.719 450.295 142.228 448.531 142.19 446.735C142.153 444.94 141.572 443.198 140.523 441.74C139.439 440.309 138.053 439.133 136.465 438.295C134.876 437.458 133.123 436.979 131.329 436.892C129.257 436.7 127.173 437.08 125.303 437.991C124.373 438.45 123.548 439.095 122.876 439.884C122.204 440.674 121.701 441.592 121.396 442.583" fill="#126F43"/>
<path d="M339.883 465.044C348.131 470.895 384.392 443.675 398.542 422.628C412.693 401.582 416.797 372.499 403.762 350.745C400.808 345.819 397.05 341.315 394.977 335.959C392.904 330.603 392.914 323.881 396.946 319.789C401.356 315.314 409.027 315.73 414.385 319.013C419.743 322.297 423.33 327.751 426.741 333.029C434.205 344.584 441.754 356.315 445.92 369.427C450.086 382.538 450.534 397.421 444.064 409.562C437.946 421.042 426.625 428.619 417.461 437.849C409.604 445.763 403.24 455.036 395.518 463.075C387.797 471.114 378.213 478.103 367.161 479.576C356.11 481.049 343.609 475.552 339.883 465.046" fill="#2ECC82"/>
<path d="M316.946 271.828C321.612 269.18 327.551 270.688 332.305 273.165C337.06 275.643 341.438 279.065 346.649 280.345C351.859 281.626 358.439 279.844 360.204 274.772C361.476 271.124 359.778 266.972 357.028 264.267C354.088 261.74 350.698 259.79 347.036 258.518C341.14 256.04 334.925 253.503 328.566 254.193C322.207 254.884 315.838 259.997 316.16 266.383" fill="#2ECC82"/>
<path d="M394.331 275.869C393.378 278.898 393.556 282.169 394.832 285.077C396.109 287.984 398.396 290.33 401.271 291.678C404.23 292.827 407.512 292.825 410.47 291.673C413.428 290.521 415.847 288.302 417.25 285.455C418.433 282.511 418.433 279.224 417.249 276.281C416.065 273.338 413.789 270.967 410.898 269.662C405.018 267.312 396.142 269.801 394.328 275.869" fill="#2ECC82"/>
<path d="M208.788 397.406C207.435 410.632 206.113 423.842 205.097 437.098C205.067 437.342 205.1 437.59 205.194 437.817C205.288 438.044 205.439 438.243 205.632 438.394C205.826 438.546 206.055 438.645 206.298 438.681C206.541 438.718 206.79 438.691 207.019 438.603C213.217 436.263 219.381 433.835 225.511 431.321C231.608 428.814 237.589 425.751 243.791 423.543C244.071 423.425 244.315 423.236 244.499 422.996C244.683 422.755 244.801 422.47 244.842 422.17C244.883 421.869 244.844 421.564 244.731 421.283C244.617 421.001 244.432 420.755 244.194 420.567C238.649 416.476 232.962 412.576 227.31 408.631C221.658 404.686 216.123 400.537 210.311 396.854C207.928 395.35 205.235 398.665 207.591 400.391C218.664 408.506 230.461 415.998 242.078 423.312L242.479 420.335C236.606 423.414 230.563 426.159 224.38 428.556C218.288 431.161 212.147 433.641 205.956 435.998L207.877 437.503C208.848 424.21 209.517 410.923 210.157 397.608C210.199 396.73 208.876 396.51 208.783 397.411" fill="#EDEDEB"/>
<path d="M217.845 422.337C229.821 428.161 241.793 433.949 253.913 439.473C254.14 439.563 254.386 439.593 254.628 439.561C254.87 439.528 255.099 439.434 255.294 439.288C255.489 439.141 255.643 438.947 255.741 438.723C255.84 438.5 255.879 438.255 255.855 438.012C255.786 431.386 255.625 424.761 255.371 418.138C255.117 411.545 254.294 404.869 254.348 398.278C254.359 396.84 252.537 396.469 251.571 397.108C240.127 404.681 228.502 412.439 217.624 420.799C215.329 422.563 217.972 425.918 220.344 424.336C226.071 420.522 231.524 416.242 237.074 412.175C242.624 408.107 248.231 404.07 253.684 399.854L250.906 398.684C251.783 405.251 252.285 411.863 252.41 418.487C252.762 425.1 252.981 431.718 253.065 438.34L255.011 436.879C242.881 431.409 230.648 426.222 218.388 421.056C218.304 421.021 218.214 421.003 218.123 421.002C218.032 421.002 217.941 421.019 217.857 421.053C217.773 421.088 217.696 421.138 217.631 421.202C217.566 421.267 217.515 421.343 217.479 421.427C217.444 421.511 217.425 421.601 217.425 421.692C217.424 421.783 217.442 421.873 217.476 421.958C217.511 422.042 217.561 422.119 217.625 422.184C217.689 422.248 217.766 422.3 217.85 422.335" fill="#EDEDEB"/>
<path d="M202.898 448.198V447.393C202.99 447.474 203.1 447.548 203.227 447.613C203.357 447.678 203.493 447.733 203.634 447.779C203.777 447.823 203.921 447.856 204.065 447.881C204.208 447.905 204.341 447.917 204.463 447.917C204.883 447.917 205.196 447.84 205.402 447.686C205.61 447.529 205.715 447.304 205.715 447.011C205.715 446.854 205.679 446.717 205.609 446.601C205.541 446.484 205.446 446.378 205.325 446.283C205.203 446.186 205.058 446.094 204.89 446.007C204.724 445.918 204.546 445.824 204.353 445.727C204.15 445.624 203.96 445.519 203.784 445.414C203.608 445.308 203.455 445.192 203.325 445.064C203.195 444.937 203.092 444.793 203.016 444.633C202.943 444.471 202.906 444.281 202.906 444.064C202.906 443.799 202.964 443.568 203.081 443.373C203.197 443.176 203.351 443.013 203.54 442.886C203.73 442.758 203.945 442.663 204.186 442.601C204.43 442.539 204.678 442.508 204.93 442.508C205.505 442.508 205.923 442.577 206.186 442.715V443.483C205.842 443.245 205.4 443.125 204.861 443.125C204.712 443.125 204.563 443.142 204.414 443.174C204.265 443.204 204.132 443.254 204.016 443.325C203.899 443.395 203.804 443.486 203.731 443.597C203.658 443.708 203.622 443.843 203.622 444.003C203.622 444.152 203.649 444.281 203.703 444.389C203.76 444.498 203.842 444.597 203.951 444.686C204.059 444.776 204.191 444.862 204.345 444.946C204.502 445.03 204.682 445.122 204.886 445.223C205.094 445.326 205.292 445.434 205.479 445.548C205.666 445.662 205.83 445.788 205.971 445.926C206.112 446.064 206.223 446.217 206.304 446.385C206.388 446.553 206.43 446.745 206.43 446.962C206.43 447.249 206.373 447.493 206.259 447.694C206.148 447.892 205.997 448.053 205.804 448.178C205.614 448.302 205.395 448.392 205.146 448.446C204.896 448.503 204.634 448.531 204.357 448.531C204.265 448.531 204.151 448.523 204.016 448.507C203.88 448.493 203.742 448.472 203.601 448.442C203.46 448.415 203.326 448.381 203.199 448.34C203.074 448.297 202.974 448.249 202.898 448.198ZM210.616 448.434H207.592V442.605H208.275V447.816H210.616V448.434ZM213.575 448.531C212.749 448.531 212.086 448.259 211.588 447.714C211.092 447.17 210.844 446.461 210.844 445.588C210.844 444.651 211.097 443.903 211.604 443.345C212.111 442.787 212.8 442.508 213.673 442.508C214.478 442.508 215.125 442.779 215.616 443.321C216.109 443.862 216.355 444.571 216.355 445.446C216.355 446.397 216.103 447.149 215.599 447.702C215.095 448.255 214.421 448.531 213.575 448.531ZM213.624 443.125C213.012 443.125 212.515 443.346 212.132 443.788C211.75 444.23 211.559 444.809 211.559 445.528C211.559 446.246 211.745 446.824 212.116 447.263C212.49 447.699 212.977 447.917 213.575 447.917C214.215 447.917 214.719 447.709 215.087 447.291C215.456 446.874 215.64 446.29 215.64 445.54C215.64 444.77 215.461 444.175 215.104 443.755C214.746 443.335 214.253 443.125 213.624 443.125ZM221.859 448.035C221.273 448.366 220.623 448.531 219.908 448.531C219.076 448.531 218.403 448.263 217.888 447.726C217.376 447.19 217.12 446.48 217.12 445.597C217.12 444.694 217.404 443.955 217.973 443.377C218.545 442.798 219.268 442.508 220.144 442.508C220.778 442.508 221.31 442.611 221.741 442.817V443.573C221.269 443.274 220.711 443.125 220.066 443.125C219.413 443.125 218.878 443.35 218.461 443.8C218.044 444.25 217.835 444.832 217.835 445.548C217.835 446.285 218.029 446.865 218.416 447.287C218.804 447.707 219.329 447.917 219.993 447.917C220.448 447.917 220.843 447.827 221.176 447.645V446.011H219.9V445.393H221.859V448.035ZM227.728 448.434H226.972L226.354 446.8H223.883L223.302 448.434H222.542L224.777 442.605H225.484L227.728 448.434ZM226.13 446.186L225.216 443.703C225.186 443.621 225.156 443.491 225.127 443.312H225.11C225.083 443.478 225.052 443.608 225.017 443.703L224.11 446.186H226.13ZM233.288 448.434H232.451L229.451 443.788C229.375 443.671 229.313 443.549 229.264 443.422H229.24C229.261 443.547 229.272 443.814 229.272 444.223V448.434H228.589V442.605H229.476L232.394 447.178C232.516 447.367 232.594 447.497 232.63 447.568H232.646C232.619 447.4 232.605 447.114 232.605 446.71V442.605H233.288V448.434Z" fill="#EDEDEB"/>
<path d="M127.241 381.391C131.086 372.317 135.339 363.855 138.351 354.427C141.476 344.654 143.803 334.664 147.597 325.105C154.08 308.784 164.314 294.971 180.326 287.175C183.962 285.406 181.409 279.231 177.551 280.593C161.001 286.432 149.426 301.549 142.201 316.946C138.167 325.984 134.828 335.317 132.211 344.863C130.603 350.316 129.242 355.854 127.85 361.371C126.345 367.314 125.616 373.352 123.207 379.039C122.049 381.776 126.071 384.156 127.241 381.394" fill="#2ECC82"/>
<path d="M157.343 142.088C151.765 137.625 145.311 134.384 138.399 132.578C131.488 130.771 124.273 130.438 117.225 131.602C110.176 132.765 103.451 135.398 97.4864 139.33C91.5218 143.262 86.451 148.404 82.6035 154.424L96.074 153.232C92.3278 157.05 88.4728 161.042 86.7125 166.094C84.9522 171.146 85.967 177.582 90.4421 180.504C94.0513 182.861 98.7822 182.369 102.98 181.376C107.177 180.383 111.462 178.966 115.698 179.753C119.934 180.541 123.958 184.588 122.866 188.755C121.057 195.651 108.533 195.372 107.6 202.44C107.062 206.517 111.179 209.708 115.108 210.922C129.15 215.268 144.56 205.685 151.462 192.701C158.365 179.716 158.694 164.324 158.1 149.633" fill="#171717"/>
<path d="M97.813 208.223C99.4646 205.426 95.9524 202.325 93.4799 201.87C92.6679 201.723 91.8343 201.741 91.0294 201.923C90.2245 202.106 89.4649 202.45 88.7964 202.934C88.128 203.419 87.5644 204.033 87.1397 204.741C86.7149 205.449 86.4379 206.235 86.3251 207.053C86.2654 207.893 86.3899 208.735 86.6901 209.522C86.9902 210.309 87.4586 211.021 88.0626 211.608C88.6666 212.194 89.3915 212.642 90.1867 212.919C90.9818 213.197 91.8279 213.297 92.6658 213.213C93.5341 213.112 94.3703 212.825 95.1167 212.37C95.8631 211.915 96.502 211.304 96.9894 210.579C97.4767 209.853 97.801 209.03 97.9397 208.167C98.0784 207.304 98.0283 206.422 97.7929 205.58C97.6087 205.102 97.299 204.684 96.8965 204.368C96.4939 204.052 96.0136 203.85 95.506 203.784C95.069 203.738 94.6273 203.787 94.211 203.928C93.7947 204.069 93.4137 204.298 93.0943 204.599C92.7748 204.901 92.5243 205.268 92.3601 205.676C92.1958 206.083 92.1216 206.522 92.1426 206.961C92.1426 206.991 91.8868 207.477 92.0941 207.23C92.121 207.221 92.1499 207.22 92.1775 207.226C92.2052 207.232 92.2307 207.245 92.2512 207.265C92.395 207.36 92.3014 207.325 91.9737 207.163C92.0022 207.143 92.1409 207.258 92.1209 207.275C92.2498 207.146 92.4106 207.054 92.5869 207.008C92.7631 206.962 92.9484 206.963 93.1239 207.013C94.2773 207.293 94.9845 208.474 96.0644 208.917C96.3879 209.047 96.749 209.049 97.0739 208.922C97.3989 208.796 97.6632 208.55 97.813 208.235" fill="#171717"/>
<path d="M111.035 222.369C111.002 222.645 111.079 222.923 111.248 223.144C111.417 223.364 111.666 223.51 111.941 223.55C112.216 223.591 112.496 223.522 112.721 223.359C112.946 223.197 113.099 222.952 113.148 222.679C113.18 222.403 113.103 222.125 112.934 221.904C112.765 221.684 112.516 221.538 112.241 221.498C111.966 221.457 111.686 221.526 111.461 221.689C111.236 221.851 111.083 222.096 111.035 222.369Z" fill="#171717"/>
<path d="M220.304 154.992C220.304 154.992 234.612 235.422 149.172 229.744C149.172 229.744 190.108 211.676 184.575 185.31L220.304 154.992Z" fill="#2ECC82"/>
<path d="M319.652 4.25038C319.652 4.25038 231.141 -9.86036 115.43 99.2276L186.644 186.906C186.644 186.906 318.552 97.9972 319.644 4.25038" fill="#EDEDEB"/>
<path d="M186.652 186.906L113.679 97.0723L107.898 100.583L182.667 192.056L186.652 186.906Z" fill="black"/>
<path d="M182.431 112.502L148.972 132.133L101.551 180.215C101.551 180.215 139.812 161.287 157.481 145.924C162.977 141.145 177.641 125.172 182.431 112.507" fill="#2ECC82"/>
<path d="M147.838 71.1399C147.838 71.1399 67.8579 47.2046 65.459 132.797C65.459 132.797 87.3046 93.7478 113.032 101.742L147.838 71.1399Z" fill="#2ECC82"/>
<g opacity="0.1">
<path d="M182.428 112.496C182.428 112.496 135.454 113.369 129.715 116.806L147.94 139.243L182.428 112.496Z" fill="#9797DB"/>
</g>
<path d="M256.582 10.6824C256.582 10.6824 277.162 52.6302 300.833 68.0632L322.797 0.830078H319.453L256.768 9.42362" fill="#2ECC82"/>
<path d="M238.08 46.8476C222.906 45.0088 213.99 59.3134 214.54 73.0765C215.06 86.216 228.017 96.537 240.844 94.4741C244.053 94.014 247.138 92.9185 249.918 91.2519C252.699 89.5852 255.119 87.3808 257.038 84.7676C258.956 82.1545 260.334 79.185 261.091 76.0328C261.849 72.8807 261.97 69.6092 261.447 66.4098C259.129 52.2606 244.328 40.3698 229.791 45.3665C228.984 45.6145 228.291 46.1409 227.836 46.8519C227.382 47.5628 227.194 48.4122 227.307 49.2486C227.42 50.085 227.826 50.8542 228.453 51.4189C229.081 51.9837 229.888 52.3074 230.732 52.3324C239.846 52.63 247.627 54.2666 252.574 62.7538C257.853 71.8194 252.213 83.3156 243.142 86.8445C218.067 96.5871 211.673 50.171 238.084 49.6293C238.441 49.6118 238.778 49.4576 239.024 49.1987C239.271 48.9398 239.408 48.596 239.408 48.2385C239.408 47.881 239.271 47.5372 239.024 47.2782C238.778 47.0193 238.441 46.8651 238.084 46.8476" fill="#2ECC82"/>
<g opacity="0.32">
<path d="M238.076 48.2321C230.468 47.2174 223.136 52.7307 219.837 59.6582C217.418 64.6697 216.805 70.3633 218.102 75.7749C219.448 81.1898 222.886 85.8501 227.663 88.7339C231.735 90.9435 236.429 91.7305 240.999 90.9701C245.57 90.2097 249.756 87.9454 252.893 84.5363C255.868 80.9851 257.651 76.5883 257.989 71.9682C258.327 67.3481 257.204 62.7386 254.777 58.7922C252.199 54.9405 248.541 51.9362 244.262 50.1562C239.982 48.3762 235.273 47.8999 230.723 48.7871" fill="#2ECC82"/>
</g>
</svg>
