<svg xmlns="http://www.w3.org/2000/svg" width="24" height="24" fill="none"><path fill="#E01E5A" d="M5.048 15.124a2.512 2.512 0 0 1-2.515 2.514A2.512 2.512 0 0 1 .02 15.124a2.512 2.512 0 0 1 2.514-2.514h2.515v2.514Zm1.257 0a2.512 2.512 0 0 1 2.514-2.514 2.512 2.512 0 0 1 2.514 2.514v6.286a2.512 2.512 0 0 1-2.514 2.514 2.512 2.512 0 0 1-2.514-2.514v-6.286Z"/><path fill="#36C5F0" d="M8.82 5.029a2.512 2.512 0 0 1-2.515-2.515A2.512 2.512 0 0 1 8.819 0a2.512 2.512 0 0 1 2.514 2.514V5.03H8.82Zm0 1.276a2.512 2.512 0 0 1 2.513 2.514 2.512 2.512 0 0 1-2.514 2.514H2.514A2.512 2.512 0 0 1 0 8.82a2.512 2.512 0 0 1 2.514-2.514H8.82Z"/><path fill="#2EB67D" d="M18.895 8.82a2.512 2.512 0 0 1 2.514-2.515 2.512 2.512 0 0 1 2.515 2.514 2.512 2.512 0 0 1-2.515 2.514h-2.514V8.82Zm-1.257 0a2.512 2.512 0 0 1-2.514 2.513 2.512 2.512 0 0 1-2.515-2.514V2.514A2.512 2.512 0 0 1 15.124 0a2.512 2.512 0 0 1 2.514 2.514V8.82Z"/><path fill="#ECB22E" d="M15.124 18.895a2.512 2.512 0 0 1 2.514 2.515 2.512 2.512 0 0 1-2.514 2.514 2.512 2.512 0 0 1-2.515-2.514v-2.515h2.515Zm0-1.257a2.512 2.512 0 0 1-2.515-2.514 2.512 2.512 0 0 1 2.515-2.514h6.304a2.512 2.512 0 0 1 2.515 2.514 2.512 2.512 0 0 1-2.515 2.514h-6.304Z"/></svg>