<svg xmlns="http://www.w3.org/2000/svg" width="23" height="17" fill="none"><g clip-path="url(#a)"><path fill="#4285F4" d="M5.227 16.916V8.204L2.471 5.732 0 4.36v11.02c0 .85.703 1.537 1.568 1.537h3.66Z"/><path fill="#34A853" d="M17.773 16.916h3.659c.868 0 1.568-.69 1.568-1.537V4.36l-2.799 1.572-2.428 2.272v8.712Z"/><path fill="#EA4335" d="M5.228 8.204 4.853 4.8l.375-3.258L11.5 6.154l6.273-4.612.42 3.082-.42 3.58-6.273 4.612-6.272-4.612Z"/><path fill="#FBBC04" d="M17.773 1.542v6.662L23 4.36V2.31c0-1.9-2.213-2.985-3.763-1.844l-1.464 1.076Z"/><path fill="#C5221F" d="m0 4.36 2.404 1.768 2.823 2.076V1.542L3.764.465C2.21-.675 0 .41 0 2.31v2.05Z"/></g><defs><clipPath id="a"><path fill="#fff" d="M0 0h23v17H0z"/></clipPath></defs></svg>