<svg xmlns="http://www.w3.org/2000/svg" width="806.631" height="698.766"><defs><linearGradient id="a" x1=".5" x2=".5" y2="1" gradientUnits="objectBoundingBox"><stop offset="0" stop-color="#202020"/><stop offset="1" stop-color="#2e2e2e"/></linearGradient><linearGradient id="b" x1=".5" x2=".5" y2="1" gradientUnits="objectBoundingBox"><stop offset="0" stop-color="#1db27b"/><stop offset="1" stop-color="#0f593e"/></linearGradient><linearGradient id="c" x1=".5" x2=".5" y2="1" gradientUnits="objectBoundingBox"><stop offset="0" stop-color="#383838"/><stop offset="1" stop-color="#020202"/></linearGradient></defs><path fill="#b0eedb" d="M554.462 215.989a79.621 79.621 0 1 1-23.22-56.549 79.828 79.828 0 0 1 23.22 56.549Z" data-name="Path 36978"/><path fill="#9e616a" d="m687.321 262.523 11.224-21.432c-10.065-12.154-43.089-26.9-43.089-26.9l-44.7-40.681a10.681 10.681 0 1 0-13.119 13.021l48.286 57.911Z" data-name="Path 36979"/><path fill="url(#a)" d="m878.568 361.661 15.849 5.046a54.393 54.393 0 0 0 35.295-.786 19.641 19.641 0 0 0 12.685-16.4 19.6 19.6 0 0 0-16.312-21.205c-14.863-2.443-34.014-3.647-40.846 4.483l-.069.082Z" data-name="Path 36980" transform="translate(-196.684 -100.617)"/><circle cx="79.828" cy="79.828" r="79.828" fill="#fff" data-name="Ellipse 717" transform="translate(488.058 167)"/><path fill="url(#a)" d="M731.991 316.22a75 75 0 0 1-5.351 17.08c-14.082 29.79 26.02 20.08 40.351 20.08 15.669 0 30.661 8.239 28.371-28.371-.978-15.638-12.7-28.371-28.371-28.371-13.384 0-32.201 5.948-35 19.582Z" data-name="Path 36981" transform="translate(-196.684 -100.617)"/><circle cx="23.055" cy="23.055" r="23.055" fill="#ffb6b6" data-name="Ellipse 718" transform="translate(544.905 206.646)"/><path fill="url(#a)" d="M748.987 306.817a26.409 26.409 0 0 1 40.15 23.048c-11.748 2.949-24.089 5.207-36.617.705l-2.959-7.241-1.744 7.246c-3.815 1.559-7.64 2.879-11.465-.015a26.965 26.965 0 0 1 12.635-23.743Z" data-name="Path 36982" transform="translate(-196.684 -100.617)"/><path fill="#189366" d="M629.956 299.908a79.8 79.8 0 0 1-111.684 8.075l6.847-19.105a20.546 20.546 0 0 1 17.452-11.984l4.356-.267 10.389-8.963s27.986-1 27.571-1.478l16.949 10.197-.014-.07 6.664.408a20.537 20.537 0 0 1 17.452 11.984Z" data-name="Path 36983"/><path fill="#b0eedb" d="m560.883 628.845-1.984-27.588a89.244 89.244 0 0 0-41.9-9.4c20.432 15.793 18.8 47.358 32.945 68.96a53.681 53.681 0 0 0 40.028 23.721l17 9.783a89.952 89.952 0 0 0-20.939-72.338 86.883 86.883 0 0 0-16.368-14.4c-3.717 10.671-8.782 21.262-8.782 21.262Z" data-name="Path 36984"/><path fill="#b0eedb" d="m43.883 139.845-1.984-27.588a89.244 89.244 0 0 0-41.9-9.4c20.432 15.793 18.8 47.358 32.945 68.96a53.681 53.681 0 0 0 40.028 23.721l17 9.783a89.952 89.952 0 0 0-20.939-72.338 86.89 86.89 0 0 0-16.368-14.4c-3.717 10.671-8.782 21.262-8.782 21.262Z" data-name="Path 36985"/><path fill="#9e616a" d="M635.268 685H622l-6.31-51.159h19.58Z" data-name="Path 36986"/><path fill="#2f2e41" d="M638.65 697.854h-42.768v-.541a16.647 16.647 0 0 1 16.645-16.646l7.812-5.927 14.576 5.928h3.733Z" data-name="Path 36987"/><path fill="#9e616a" d="M752.165 685H738.9l-6.31-51.159h19.576Z" data-name="Path 36988"/><path fill="#2f2e41" d="M755.548 697.854H712.78v-.541a16.647 16.647 0 0 1 16.645-16.646l7.812-5.926 14.576 5.928h3.733Z" data-name="Path 36989"/><path fill="url(#a)" d="m928.676 511.8 11.156 105.981s14.851 106.119 12.062 120.762.7 16.734.7 16.734l-25.448-1.813s.7-9.064-3.486-13.248-2.092-16.734-2.092-16.734L872.2 550.848l-29.982 90.642s-4.881 99.706-5.578 101.1-2.789 20.22-2.789 20.22h-25.8s3.486-11.156-1.395-14.642-9.064-.7-4.881-6.972 5.578-13.945 4.183-17.431-1.395-17.431-1.395-17.431 2.092-188.255 13.945-194.53 110.168-.004 110.168-.004Z" data-name="Path 36990" transform="translate(-196.684 -100.617)"/><circle cx="27.439" cy="27.439" r="27.439" fill="#9e616a" data-name="Ellipse 719" transform="translate(651.721 141.724)"/><path fill="url(#b)" d="M938.159 523.354c-53.139 10.974-123.559-7.893-123.559-7.893l18.785-81.43-6.679-85.217c-.816-10.421 5.12-20.19 14.354-23.651l12.75-4.776 10.54-15.087 30.1.988 12.034 15.84 9.5 5.038 20.589 10.919.091.045v.045l-6.464 62.672-3.9 37.788s11.835 42.5 9.406 48.137-.317 2.909.272 5.917 2.392 3.2 2.664 9.125-.483 21.54-.483 21.54Z" data-name="Path 36991" transform="translate(-196.684 -100.617)"/><path fill="#ccc" d="M805.716 698.766H395.241a.92.92 0 1 1 0-1.839h410.475a.92.92 0 1 1 0 1.839Z" data-name="Path 36992"/><path fill="#2f2e41" d="M677.826 195.283a84.516 84.516 0 0 0 14.346-1.375c4.687-1.08 15.027-9.076 17.846-13.8 2.094-3.51 3.351-8.938 4.036-12.874a37.779 37.779 0 0 0-7.379-29.811 11.936 11.936 0 0 0-4.926-3.989 6.107 6.107 0 0 0-.534-.165 14.727 14.727 0 0 1-7.44-4.342 12.142 12.142 0 0 0-1.25-1.222 18.14 18.14 0 0 0-7.664-3.6c-4.529-1.088-11.006.275-19.253 4.054-4.143 1.9-8.742 1.369-12.286.7a1.154 1.154 0 0 0-1.076.4 8.144 8.144 0 0 1-5.477 2.349c-1.258.088-2.535 1.866-4.074 4.182-.349.526-.757 1.139-1.052 1.514l-.059-.7-.692.8a9.883 9.883 0 0 0 4.875 15.979 19.272 19.272 0 0 0 3.891.517c.795.051 1.617.1 2.407.22a14.9 14.9 0 0 1 11.318 9.38 3.9 3.9 0 0 0 5.933 1.735 6.438 6.438 0 0 1 5.837-1.219 4.273 4.273 0 0 1 1.944 2.093 5.57 5.57 0 0 0 2.176 2.41c3.235 1.564 3.644 8.85 2.654 14.959-.954 5.888-3.03 10.184-5.047 10.445-1.553.2-1.729.317-1.834.595l-.094.249.181.226a6.364 6.364 0 0 0 2.7.29Z" data-name="Path 36993"/><path fill="#3f3d56" d="M567.886 327.655a80.828 80.828 0 1 1 80.83-80.828 80.828 80.828 0 0 1-80.828 80.828Zm0-159.655a78.828 78.828 0 1 0 78.83 78.828A78.827 78.827 0 0 0 567.888 168Z" data-name="Path 36994"/><circle cx="79.828" cy="79.828" r="79.828" fill="#fff" data-name="Ellipse 720" transform="translate(209.058 1)"/><circle cx="26.03" cy="26.03" r="26.03" fill="#ffb8b8" data-name="Ellipse 721" transform="translate(266.551 36.91)"/><path fill="url(#a)" d="M512.184 146.361s6.777-12.956-8.133-14.134c0 0-12.711-11.531-25.668-2.108 0 0-7.067 0-10.932 8 0 0-5.558-2.108-6.78 3.534 0 0-4.067 11.779 0 22.379s5.418 11.779 5.418 11.779-2.854-13.155 13.414-14.333 31.191-11.369 32.547 1.588 2.846 7.1 2.846 7.1 12.876-18.505-2.712-23.805Z" transform="translate(-196.684 -100.617)"/><path fill="#189366" d="M348.916 133.908a79.8 79.8 0 0 1-111.68 8.075l6.847-19.106a20.546 20.546 0 0 1 17.452-11.984l4.356-.267 10.387-8.958s27.986-1 27.571-1.478l16.952 10.193-.014-.07 6.664.408a20.537 20.537 0 0 1 17.452 11.984Z" data-name="Path 36995"/><path fill="#3f3d56" d="M288.886 161.655a80.828 80.828 0 1 1 80.83-80.828 80.828 80.828 0 0 1-80.828 80.828Zm0-159.655a78.828 78.828 0 1 0 78.83 78.828A78.827 78.827 0 0 0 288.886 2Z" data-name="Path 36996"/><circle cx="79.828" cy="79.828" r="79.828" fill="#fff" data-name="Ellipse 722" transform="translate(22.735 127)"/><path fill="url(#a)" d="M262.247 281.477c3.3-10.52 10.807-20.168 21.188-23.724s25.583 1.861 33.387 9.639c14.276 14.228 17.76 63.106 7.952 78.552-1.951-.1-8.683-.18-10.657-.254l-2.793-9.31v9.22q-4.719-.146-9.511-.2a41.392 41.392 0 0 1-40.867-40.371c-.255-10.249.001-19.407 1.301-23.552Z" data-name="Path 36997" transform="translate(-196.684 -100.617)"/><circle cx="22.75" cy="22.75" r="22.75" fill="#9e616a" data-name="Ellipse 723" transform="translate(78.629 170.224)"/><path fill="url(#a)" d="m278.429 273.611 26.195-13.116a32.924 32.924 0 0 1 19.284 27.278l.653 7.821-10.97-2.794-1.2-10-1.863 9.22-5.062-1.288.048-15.526-5.066 15.514-18.08-4.154Z" data-name="Path 36998" transform="translate(-196.684 -100.617)"/><path fill="#189366" d="M161.8 259.654a79.8 79.8 0 0 1-111.684 8.071l6.847-19.105a20.546 20.546 0 0 1 17.453-11.984l4.356-.267 10.387-8.958s27.986-1 27.571-1.478l16.952 10.2-.014-.07 6.664.408a20.537 20.537 0 0 1 17.452 11.984Z" data-name="Path 36999"/><path fill="#3f3d56" d="M102.563 287.655a80.828 80.828 0 1 1 80.828-80.828 80.828 80.828 0 0 1-80.828 80.828Zm0-159.655a78.828 78.828 0 1 0 78.828 78.828A78.828 78.828 0 0 0 102.563 128Z" data-name="Path 37000"/><path fill="#9e616a" d="m641.616 288.241-12.088-20.958c-15.655 1.989-45.792 21.978-45.792 21.978l-58.294 15.95a10.681 10.681 0 1 0 3.968 18.052l74.767-9.753Z" data-name="Path 37001"/><path fill="url(#a)" d="m834.136 392.657 27.057-22.663 3.936-18.242a19.642 19.642 0 0 0-7.052-19.5 19.6 19.6 0 0 0-26.644 2.415c-10.024 11.242-21.3 26.768-18.094 36.893l.032.1Z" data-name="Path 37002" transform="translate(-196.684 -100.617)"/><path fill="url(#a)" d="M419.43 471.387H317.765a10.288 10.288 0 0 1-10.277-10.277v-62.616a10.288 10.288 0 0 1 10.277-10.277H419.43a10.288 10.288 0 0 1 10.277 10.277v62.616a10.288 10.288 0 0 1-10.277 10.277Z" data-name="Path 37003" transform="translate(-196.684 -100.617)"/><path fill="#fff" d="M182.353 362.705h-54.125a9.636 9.636 0 0 1-9.625-9.625v-47.79a9.636 9.636 0 0 1 9.625-9.625h87.373a9.635 9.635 0 0 1 9.624 9.624v14.544a42.92 42.92 0 0 1-42.872 42.871Z" data-name="Path 37004"/><path fill="#189366" d="M206.884 321.834h-69.94a2.281 2.281 0 0 1 0-4.562h69.94a2.281 2.281 0 0 1 0 4.562Z" data-name="Path 37005"/><path fill="#189366" d="M147.884 330.848h-10.94a2.281 2.281 0 1 1 0-4.562h10.94a2.281 2.281 0 1 1 0 4.562Z" data-name="Path 37006"/><path fill="#189366" d="M167.261 339.861h-30.317a2.281 2.281 0 1 1 0-4.562h30.318a2.281 2.281 0 1 1 0 4.562Z" data-name="Path 37007"/><circle cx="21.506" cy="21.506" r="21.506" fill="url(#a)" data-name="Ellipse 724" transform="translate(85.751 264.847)"/><path fill="url(#a)" d="M683.43 187.387H581.765a10.288 10.288 0 0 1-10.277-10.277v-62.616a10.288 10.288 0 0 1 10.277-10.277H683.43a10.288 10.288 0 0 1 10.277 10.277v62.616a10.289 10.289 0 0 1-10.277 10.277Z" data-name="Path 37008" transform="translate(-196.684 -100.617)"/><path fill="#fff" d="M446.353 78.705h-54.125a9.636 9.636 0 0 1-9.625-9.624v-47.79a9.636 9.636 0 0 1 9.625-9.625h87.373a9.635 9.635 0 0 1 9.624 9.625v14.543a42.92 42.92 0 0 1-42.872 42.871Z" data-name="Path 37009"/><path fill="#189366" d="M470.884 37.834h-69.94a2.281 2.281 0 0 1 0-4.562h69.94a2.281 2.281 0 1 1 0 4.562Z" data-name="Path 37010"/><path fill="#189366" d="M411.884 46.848h-10.94a2.281 2.281 0 1 1 0-4.562h10.94a2.281 2.281 0 1 1 0 4.562Z" data-name="Path 37011"/><path fill="#189366" d="M431.261 55.861h-30.317a2.281 2.281 0 1 1 0-4.562h30.318a2.281 2.281 0 1 1 0 4.562Z" data-name="Path 37012"/><circle cx="21.506" cy="21.506" r="21.506" fill="url(#c)" data-name="Ellipse 725" transform="translate(349.751 55.847)"/></svg>