<svg width="420" height="389" viewBox="0 0 420 389" fill="none" xmlns="http://www.w3.org/2000/svg">
<path d="M82.3505 101.646C59.829 113.34 42.327 132.991 28.5015 154.236C8.91908 184.494 -4.30098 220.763 1.29085 256.351C6.88269 291.939 35.3372 325.329 71.2989 328.164C117.376 331.802 154.879 288.29 200.847 283.487C218.36 281.663 235.895 285.63 253.463 286.784C305.429 290.082 358.398 266.693 390.892 226.061C412.17 199.452 424.883 164.348 418.224 130.958C411.3 96.2495 383.825 67.5857 350.957 54.3529C318.088 41.1201 280.663 42.0543 246.594 51.8031C215.035 60.8374 189.861 78.1808 161.572 93.6887C150.168 99.9644 137.223 91.4905 124.465 91.3806C109.797 91.3093 95.3357 94.8342 82.3505 101.646Z" fill="#DEF7E5"/>
<path opacity="0.25" d="M203.539 0H197.571C196.473 0 195.584 0.889435 195.584 1.98661V7.95551C195.584 9.05268 196.473 9.94212 197.571 9.94212H203.539C204.637 9.94212 205.526 9.05268 205.526 7.95551V1.98661C205.526 0.889435 204.637 0 203.539 0Z" fill="#111111"/>
<path opacity="0.25" d="M355.811 179.021H349.842C348.745 179.021 347.855 179.911 347.855 181.008V186.977C347.855 188.074 348.745 188.964 349.842 188.964H355.811C356.908 188.964 357.798 188.074 357.798 186.977V181.008C357.798 179.911 356.908 179.021 355.811 179.021Z" fill="#111111"/>
<path opacity="0.25" d="M118.559 88.8442H112.59C111.493 88.8442 110.604 89.7337 110.604 90.8308V96.7997C110.604 97.8969 111.493 98.7864 112.59 98.7864H118.559C119.656 98.7864 120.546 97.8969 120.546 96.7997V90.8308C120.546 89.7337 119.656 88.8442 118.559 88.8442Z" fill="#111111"/>
<path opacity="0.25" d="M69.5304 188.964H53.6194C52.5222 188.964 51.6328 189.853 51.6328 190.95V206.861C51.6328 207.959 52.5222 208.848 53.6194 208.848H69.5304C70.6276 208.848 71.517 207.959 71.517 206.861V190.95C71.517 189.853 70.6276 188.964 69.5304 188.964Z" fill="#111111"/>
<path opacity="0.25" d="M59.5878 169.088H33.7347C32.6375 169.088 31.748 169.978 31.748 171.075V196.928C31.748 198.025 32.6375 198.915 33.7347 198.915H59.5878C60.685 198.915 61.5744 198.025 61.5744 196.928V171.075C61.5744 169.978 60.685 169.088 59.5878 169.088Z" fill="#111111"/>
<path opacity="0.25" d="M198.569 21.5078H182.658C181.561 21.5078 180.672 22.3972 180.672 23.4944V39.4054C180.672 40.5026 181.561 41.392 182.658 41.392H198.569C199.667 41.392 200.556 40.5026 200.556 39.4054V23.4944C200.556 22.3972 199.667 21.5078 198.569 21.5078Z" fill="#111111"/>
<path opacity="0.25" d="M375.54 266.369H359.629C358.532 266.369 357.643 267.259 357.643 268.356V284.267C357.643 285.364 358.532 286.253 359.629 286.253H375.54C376.637 286.253 377.527 285.364 377.527 284.267V268.356C377.527 267.259 376.637 266.369 375.54 266.369Z" fill="#111111"/>
<path opacity="0.25" d="M76.1981 325.423H92.1091C93.2063 325.423 94.0957 324.533 94.0957 323.436V307.525C94.0957 306.428 93.2063 305.539 92.1091 305.539H76.1981C75.1009 305.539 74.2115 306.428 74.2115 307.525V323.436C74.2115 324.533 75.1009 325.423 76.1981 325.423Z" fill="#111111"/>
<path opacity="0.25" d="M311.125 305.548H305.157C304.059 305.548 303.17 306.437 303.17 307.534V313.503C303.17 314.601 304.059 315.49 305.157 315.49H311.125C312.223 315.49 313.112 314.601 313.112 313.503V307.534C313.112 306.437 312.223 305.548 311.125 305.548Z" fill="#111111"/>
<g opacity="0.25">
<path d="M254.031 72.2987C256.186 72.2987 257.932 69.5695 257.932 66.2028C257.932 62.8362 256.186 60.1069 254.031 60.1069C251.877 60.1069 250.131 62.8362 250.131 66.2028C250.131 69.5695 251.877 72.2987 254.031 72.2987Z" fill="#111111"/>
<path d="M379.778 34.5438C381.932 34.5438 383.678 31.8146 383.678 28.4479C383.678 25.0813 381.932 22.3521 379.778 22.3521C377.623 22.3521 375.877 25.0813 375.877 28.4479C375.877 31.8146 377.623 34.5438 379.778 34.5438Z" fill="#111111"/>
<path d="M122.635 296.667C124.789 296.667 126.536 293.942 126.536 290.58C126.536 287.219 124.789 284.494 122.635 284.494C120.481 284.494 118.734 287.219 118.734 290.58C118.734 293.942 120.481 296.667 122.635 296.667Z" fill="#111111"/>
<path d="M50.563 99.5033C47.9596 100.628 47.379 101.535 46.6624 105.599C45.9457 101.535 45.3652 100.628 42.7617 99.5033C45.3652 98.3785 45.9457 97.4714 46.6624 93.4165C47.379 97.4714 47.9596 98.3785 50.563 99.5033Z" fill="#111111"/>
<path d="M261.832 219.38C263.987 219.38 265.733 216.651 265.733 213.284C265.733 209.917 263.987 207.188 261.832 207.188C259.678 207.188 257.932 209.917 257.932 213.284C257.932 216.651 259.678 219.38 261.832 219.38Z" fill="#111111"/>
</g>
<g opacity="0.6">
<path d="M277.398 344.854H386.771L386.063 343.947C384.113 341.484 381.631 339.494 378.804 338.124C375.977 336.754 372.877 336.041 369.735 336.037H359.339L354.368 328.716C352.351 325.761 349.607 323.375 346.402 321.787C343.196 320.198 339.635 319.461 336.062 319.645C332.882 319.81 329.781 320.701 326.998 322.25C324.215 323.799 321.823 325.964 320.006 328.58L315.888 334.522L297.627 333.95C294.791 333.864 291.968 334.356 289.329 335.398C286.69 336.44 284.291 338.009 282.279 340.01L277.398 344.854Z" fill="#111111"/>
<path d="M108.264 268.51H41.7266L42.6337 266.152C43.1389 264.964 43.942 263.927 44.9654 263.14C45.9888 262.353 47.1978 261.844 48.4756 261.662L59.3611 260.083L61.0484 255.883C61.9912 253.526 63.6186 251.506 65.7206 250.083C67.8226 248.66 70.3027 247.9 72.841 247.9C75.789 247.896 78.6467 248.917 80.924 250.789C83.2014 252.661 84.7567 255.267 85.3231 258.16L86.5205 264.22L100.245 262.959C102.024 262.778 103.809 263.238 105.279 264.256C106.748 265.274 107.807 266.782 108.264 268.51Z" fill="#111111"/>
<path d="M340.869 134.518H407.443L406.663 132.704C406.096 131.37 405.194 130.204 404.045 129.319C402.897 128.434 401.54 127.86 400.105 127.651L389.7 126.091L387.423 120.431C386.632 118.465 385.316 116.756 383.618 115.489C381.921 114.221 379.907 113.446 377.798 113.246C375.321 113.012 372.834 113.585 370.709 114.88C368.583 116.174 366.934 118.121 366.006 120.431L362.976 127.942L348.825 128.25C347.003 128.289 345.243 128.918 343.809 130.041C342.375 131.165 341.343 132.723 340.869 134.482V134.518Z" fill="#111111"/>
</g>
<path d="M362.52 66.5453C367.623 52.9419 360.731 37.778 347.128 32.6756C333.524 27.5733 318.36 34.4648 313.258 48.0681C308.156 61.6715 315.047 76.8355 328.651 81.9378C342.254 87.0402 357.418 80.1487 362.52 66.5453Z" stroke="#111111" stroke-width="1.18" stroke-linecap="round" stroke-linejoin="round"/>
<path d="M354.014 52.6862C358.014 66.6469 353.107 80.3173 345.133 82.6214C337.159 84.9255 329.286 74.9018 325.24 60.932C321.194 46.9623 322.682 34.2988 330.628 32.0219C338.575 29.745 350.004 38.7165 354.014 52.6862Z" stroke="#111111" stroke-width="1.18" stroke-linecap="round" stroke-linejoin="round"/>
<path d="M330.629 32.0215C338.091 48.0129 342.989 65.0792 345.143 82.5938" stroke="#111111" stroke-width="1.18" stroke-linecap="round" stroke-linejoin="round"/>
<path d="M312.158 62.8187C330.014 62.8775 347.517 57.8426 362.613 48.3047" stroke="#111111" stroke-width="1.18" stroke-linecap="round" stroke-linejoin="round"/>
<path d="M312.777 49.4476C327.613 48.7912 342.084 44.642 355.013 37.3374" stroke="#111111" stroke-width="1.18" stroke-linecap="round" stroke-linejoin="round"/>
<path d="M317.811 74.3299C334.063 73.9676 349.946 69.4117 363.92 61.104" stroke="#111111" stroke-width="1.18" stroke-linecap="round" stroke-linejoin="round"/>
<path d="M328.142 61.1586C327.994 60.6412 327.696 60.1793 327.286 59.8314C326.875 59.4834 326.37 59.265 325.836 59.2037C325.301 59.1425 324.76 59.2411 324.282 59.4872C323.803 59.7333 323.408 60.1158 323.147 60.5863C322.886 61.0569 322.77 61.5943 322.814 62.1307C322.858 62.667 323.06 63.1783 323.395 63.5997C323.73 64.0212 324.182 64.334 324.694 64.4985C325.207 64.663 325.756 64.6719 326.274 64.5241C326.617 64.4259 326.938 64.2609 327.218 64.0386C327.498 63.8163 327.732 63.541 327.905 63.2285C328.079 62.916 328.189 62.5723 328.23 62.2172C328.27 61.862 328.241 61.5023 328.142 61.1586Z" fill="#111111"/>
<path d="M348.999 42.991C350.379 42.397 351.017 40.7962 350.423 39.4156C349.829 38.035 348.228 37.3973 346.847 37.9913C345.467 38.5854 344.829 40.1861 345.423 41.5667C346.017 42.9473 347.618 43.585 348.999 42.991Z" fill="#111111"/>
<path d="M358.168 64.4057C358.02 63.8883 357.722 63.4264 357.311 63.0784C356.9 62.7305 356.396 62.512 355.861 62.4508C355.327 62.3895 354.786 62.4882 354.307 62.7343C353.828 62.9804 353.433 63.3629 353.172 63.8334C352.911 64.3039 352.795 64.8414 352.839 65.3777C352.883 65.9141 353.086 66.4254 353.42 66.8468C353.755 67.2683 354.207 67.5811 354.72 67.7456C355.232 67.9101 355.782 67.919 356.299 67.7712C356.643 67.6729 356.964 67.508 357.244 67.2857C357.524 67.0634 357.757 66.7881 357.931 66.4756C358.104 66.163 358.214 65.8194 358.255 65.4642C358.296 65.1091 358.266 64.7494 358.168 64.4057Z" fill="#111111"/>
<path d="M109.343 75.7362C126.878 75.7362 141.093 61.5215 141.093 43.9868C141.093 26.452 126.878 12.2373 109.343 12.2373C91.8085 12.2373 77.5938 26.452 77.5938 43.9868C77.5938 61.5215 91.8085 75.7362 109.343 75.7362Z" fill="#2ECC82"/>
<g style="mix-blend-mode:multiply" opacity="0.6">
<path d="M109.342 12.2369C102.854 12.2273 96.5204 14.213 91.1992 17.9245C91.6619 24.4468 97.5491 30.7423 103.373 28.8101C110.34 26.4788 107.074 19.7388 110.267 18.496C113.46 17.2533 117.86 15.5479 117.923 13.4252C115.131 12.6345 112.243 12.2346 109.342 12.2369Z" fill="#C4C4C4"/>
<path d="M92.4687 43.7047C92.1512 36.0032 92.6138 29.3721 82.9439 26.3423C79.4474 31.5615 77.5842 37.7037 77.5918 43.9859C77.5918 45.02 77.6462 46.036 77.737 47.0339C80.8303 58.4637 92.251 57.3479 98.6644 59.9876C105.078 62.6274 103.064 71.1725 105.921 71.8347C108.779 72.4969 109.958 59.1349 106.829 54.4904C103.699 49.846 92.7227 50.0546 92.4687 43.7047Z" fill="#C4C4C4"/>
<path d="M122.458 15.0674C128.808 27.4134 123.883 28.7831 115.691 32.6838C106.892 36.8747 109.341 43.9866 119.637 45.8734C125.651 46.9801 124.554 59.1991 129.543 57.6661C138.007 55.0626 126.695 40.8207 141.054 45.3564C141.054 44.9028 141.054 44.4492 141.054 43.9685C141.055 37.8745 139.302 31.909 136.005 26.7843C132.707 21.6595 128.005 17.592 122.458 15.0674Z" fill="#C4C4C4"/>
</g>
<g style="mix-blend-mode:multiply" opacity="0.3">
<path d="M139.243 33.3009C138.711 31.8313 138.072 30.4032 137.329 29.0283C128.999 35.613 120.174 41.5451 110.931 46.7717C101.782 52.159 92.2357 56.8412 82.375 60.7778C83.2045 62.112 84.1323 63.3825 85.1508 64.5786C94.8203 60.6154 104.194 55.9651 113.199 50.6633C122.283 45.5046 130.987 39.7023 139.243 33.3009Z" fill="#2ECC82"/>
<path d="M116.827 56.9496C125.183 52.1754 133.241 46.8983 140.957 41.1474C140.808 39.4431 140.523 37.7534 140.104 36.0947C131.98 42.3066 123.446 47.9618 114.559 53.0217C105.734 58.1677 96.5726 62.7136 87.1367 66.6286C88.3604 67.8225 89.6769 68.9175 91.0737 69.9034C99.9114 66.1085 108.512 61.7827 116.827 56.9496Z" fill="#2ECC82"/>
</g>
<path d="M144.567 33.6362C137.165 39.9135 126.669 47.0798 115.013 53.8107C103.356 60.5416 91.8989 66.0478 82.7642 69.3226C76.4143 71.5995 72.2143 72.4068 69.4566 72.4068C66.1093 72.4068 64.8303 71.2185 64.168 70.0664C62.9525 67.971 62.6713 64.0522 74.1464 54.3459C75.4709 53.2301 76.8678 52.0781 78.3918 50.9079C78.7512 52.499 79.2303 54.0607 79.8251 55.5796C72.314 61.5848 68.4588 66.0025 68.2138 67.7442C71.1529 68.9869 87.8894 64.2427 112.79 49.8738C137.691 35.5049 150.155 23.3675 150.563 20.2107C148.957 19.5304 143.179 20.6643 134.235 24.1839C133.218 22.909 132.105 21.7142 130.905 20.6098C132.72 19.8932 134.371 19.231 136.003 18.6504C150.137 13.5887 153.384 15.8021 154.591 17.8975C155.797 19.993 156.024 23.9299 144.567 33.6362Z" fill="#2ECC82"/>
<path d="M253.765 9.10734L242.393 13.7017C240.219 14.58 239.169 17.0543 240.047 19.2282L244.642 30.5995C245.52 32.7735 247.994 33.8237 250.168 32.9454L261.54 28.3511C263.713 27.4728 264.764 24.9985 263.885 22.8245L259.291 11.4532C258.413 9.27931 255.938 8.22902 253.765 9.10734Z" fill="#2ECC82"/>
<path d="M240.225 15.7207L240.152 15.9021C240.161 15.8296 240.198 15.7751 240.225 15.7207Z" fill="#111111"/>
<path d="M261.551 28.3572L250.176 32.9473C249.133 33.3687 247.965 33.3589 246.929 32.9201C245.893 32.4813 245.074 31.6493 244.651 30.6069L240.052 19.2315C239.643 18.2189 239.643 17.0873 240.052 16.0747L237.666 21.6354C237.383 22.1757 237.22 22.7708 237.189 23.3799C237.158 23.989 237.259 24.5977 237.485 25.1641L242.084 36.5395C242.291 37.0616 242.6 37.5374 242.993 37.9392C243.386 38.3411 243.854 38.6609 244.372 38.8803C244.889 39.0997 245.445 39.2142 246.006 39.2173C246.568 39.2203 247.125 39.1118 247.645 38.898L259.02 34.2989C259.559 34.0801 260.047 33.752 260.453 33.3351C260.859 32.9182 261.174 32.4217 261.379 31.8769L263.837 26.1075C263.396 27.1258 262.576 27.9326 261.551 28.3572Z" fill="#111111"/>
<path d="M263.883 26.044L263.983 25.8081C263.974 25.8807 263.91 25.9623 263.883 26.044Z" fill="#111111"/>
<path d="M256.453 16.5368C253.831 13.634 249.849 14.9857 249.849 14.9857L253.777 24.701C254.007 25.2712 254.002 25.9095 253.762 26.4758C253.522 27.0421 253.067 27.4902 252.498 27.7217L251.11 28.2751C250.828 28.3889 250.527 28.4461 250.223 28.4434C249.919 28.4408 249.619 28.3783 249.339 28.2595C249.059 28.1407 248.806 27.968 248.593 27.7512C248.38 27.5344 248.212 27.2778 248.098 26.996V26.996C247.984 26.7143 247.927 26.4129 247.93 26.1091C247.932 25.8052 247.995 25.5049 248.114 25.2252C248.233 24.9455 248.405 24.692 248.622 24.4791C248.839 24.2662 249.095 24.0981 249.377 23.9844L252.906 22.5602" stroke="#FBFBFB" stroke-width="1.18" stroke-linecap="round" stroke-linejoin="round"/>
<path opacity="0.6" d="M398.002 203.868L269.544 280.066C269.264 280.231 268.953 280.339 268.631 280.382C268.309 280.426 267.981 280.405 267.667 280.321C267.352 280.236 267.058 280.09 266.801 279.891C266.544 279.691 266.329 279.443 266.17 279.159C266.005 278.88 265.898 278.57 265.854 278.248C265.811 277.927 265.832 277.599 265.916 277.286C266.001 276.973 266.147 276.679 266.346 276.423C266.545 276.167 266.794 275.953 267.077 275.794L397.322 202.689C397.477 202.606 397.658 202.586 397.827 202.633C397.996 202.68 398.14 202.791 398.229 202.942C398.32 203.096 398.347 203.278 398.305 203.451C398.262 203.624 398.154 203.774 398.002 203.868Z" fill="#2ECC82"/>
<path opacity="0.4" d="M317.812 154.81V201.074C317.812 188.065 301.257 177.071 278.424 173.37C277.573 173.234 276.798 172.8 276.238 172.145C275.678 171.49 275.369 170.658 275.367 169.796V130.889C275.366 130.357 275.483 129.831 275.708 129.349C275.933 128.867 276.262 128.44 276.67 128.099C277.079 127.758 277.558 127.511 278.072 127.375C278.587 127.24 279.125 127.219 279.649 127.315C301.846 131.207 317.812 142.047 317.812 154.81Z" fill="#111111"/>
<path d="M283.004 142.437V158.847L288.474 150.111L289.862 167.111L294.969 154.81L297.699 161.378L302.271 150.764L304.367 162.122L310.762 153.132V167.111" stroke="#2ECC82" stroke-width="1.18" stroke-linecap="round" stroke-linejoin="round"/>
<path d="M313.275 172.745V177.235C311.115 179.132 308.78 180.818 306.299 182.269V177.734C308.778 176.297 311.114 174.626 313.275 172.745Z" fill="#2ECC82"/>
<path d="M313.275 181.725V186.215C311.115 188.112 308.78 189.798 306.299 191.25V186.714C308.778 185.277 311.114 183.606 313.275 181.725Z" fill="#2ECC82"/>
<path d="M295.459 211.433C298.546 210.244 301.527 208.794 304.367 207.097V178.876C301.496 180.404 298.519 181.722 295.459 182.822V211.433Z" fill="#2ECC82"/>
<path opacity="0.6" d="M317.811 154.811V201.074C317.811 210.445 309.212 218.772 295.859 224.088C295.308 224.3 294.715 224.375 294.129 224.306C293.543 224.237 292.983 224.027 292.497 223.693C292.011 223.359 291.613 222.911 291.339 222.389C291.065 221.866 290.923 221.285 290.924 220.695V182.179C290.926 181.43 291.16 180.7 291.594 180.089C292.028 179.478 292.64 179.017 293.346 178.768C308.123 173.534 317.811 164.753 317.811 154.811Z" fill="#111111"/>
<path d="M207.73 330.276L192.953 358.316C192.953 358.316 185.877 355.957 175.219 348.065L188.218 318.039L207.73 330.276Z" fill="#E7B7B7"/>
<path d="M167.672 360.293L214.189 386.074C214.189 386.074 219.451 378.209 211.64 372.231C203.286 365.881 194.759 360.22 194.822 358.515C194.886 356.81 195.675 356.764 195.548 355.857C195.357 354.505 193.516 353.063 192.654 353.444C191.43 353.979 191.747 355.258 189.751 354.832C184.109 353.571 178.775 348.827 177.215 346.251C176.126 344.436 173.759 345.253 173.251 349.326C172.67 353.916 168.407 356.501 167.672 360.293Z" fill="#2ECC82"/>
<path d="M214.198 386.08L167.674 360.291L166.407 362.576L212.932 388.365L214.198 386.08Z" fill="#193B59"/>
<path d="M214.19 386.073C214.19 386.073 219.451 378.208 211.641 372.23C210.806 371.586 209.963 370.96 209.128 370.335C204.592 369.291 200.692 372.566 197.916 377.056L214.19 386.073Z" fill="#FBFBFB"/>
<path d="M185.452 360.129C181.822 360.819 178.135 361.169 174.439 361.173L177.333 362.769C181.025 362.77 184.709 362.424 188.337 361.735L185.452 360.129Z" fill="#FBFBFB"/>
<path d="M191.401 363.422C187.771 364.112 184.084 364.462 180.389 364.466L183.282 366.062C186.978 366.063 190.665 365.717 194.295 365.028L191.401 363.422Z" fill="#FBFBFB"/>
<path d="M194.586 359.767C200.936 358.397 205.471 361.137 204.138 363.395C202.287 366.616 194.586 359.767 194.586 359.767Z" stroke="#FBFBFB" stroke-width="1.18" stroke-linecap="round" stroke-linejoin="round"/>
<path d="M194.586 359.767C198.94 359.821 203.657 367.096 201.163 367.259C197.752 367.486 194.586 359.767 194.586 359.767Z" stroke="#FBFBFB" stroke-width="1.18" stroke-linecap="round" stroke-linejoin="round"/>
<path d="M204.501 357.027C202.764 356.448 200.895 356.397 199.13 356.882C197.365 357.366 195.783 358.364 194.586 359.748C194.586 359.748 200.872 356.065 204.818 359.984" stroke="#FBFBFB" stroke-width="1.18" stroke-linecap="round" stroke-linejoin="round"/>
<path d="M155.888 325.894L138.698 352.5C138.698 352.5 130.062 352.845 120.129 344.046L137.482 311.961L155.888 325.894Z" fill="#E7B7B7"/>
<path d="M140.187 351.965C140.124 350.605 139.734 350.024 138.89 350.432C138.441 350.686 137.943 350.839 137.429 350.879C136.915 350.92 136.398 350.848 135.915 350.668C136.146 350.348 136.258 349.957 136.231 349.563C136.205 349.168 136.041 348.796 135.77 348.509C133.898 346.961 131.741 345.796 129.42 345.08C128.323 345.337 127.357 345.981 126.698 346.895C125.622 346.414 124.652 345.723 123.845 344.863C123.039 344.004 122.411 342.992 121.999 341.887C121.092 340.009 119.577 341.18 117.827 344.899C116.076 348.618 115.822 348.527 113.291 352.328C113.291 352.328 115.105 363.758 117.137 372.149C117.255 372.675 117.382 373.192 117.509 373.691C117.7 374.471 117.899 375.215 118.099 375.904V376.013C118.19 376.304 118.271 376.585 118.344 376.857C118.598 377.664 118.834 378.381 119.069 378.98C120.231 381.891 125.211 384.422 130.309 384.731H130.445C137.557 384.731 137.493 381.102 137.393 373.981V373.882C137.094 366.942 136.994 358.088 138.174 355.258C138.908 353.671 140.233 352.872 140.187 351.965Z" fill="#2ECC82"/>
<path d="M111.875 354.469C111.875 354.469 115.186 375.424 116.819 379.76C119.395 386.627 132.975 388.423 136.05 384.867C137.111 383.643 137.211 380.413 137.211 380.413C133.837 382.445 121.953 384.949 119.159 378.971C117.463 375.342 113.335 352.301 113.335 352.301L111.875 354.469Z" fill="#193B59"/>
<path d="M137.473 373.972C137.573 381.066 137.636 384.722 130.525 384.722H130.389C125.29 384.45 120.573 381.764 119.149 378.971C118.306 377.32 117.271 372.104 117.271 372.104C122.088 367.441 135.695 368.666 137.473 373.872V373.972Z" fill="#FBFBFB"/>
<path d="M115.549 355.312L115.939 357.236L120.856 360.247L120.456 358.324L115.549 355.312Z" fill="#FBFBFB"/>
<path d="M116.393 359.613L116.783 361.545L121.699 364.548L121.3 362.624L116.393 359.613Z" fill="#FBFBFB"/>
<path d="M130.869 353.97C127.704 353.97 122.705 360.03 125.109 361.227C129.572 363.549 130.869 353.97 130.869 353.97Z" stroke="#FBFBFB" stroke-width="1.18" stroke-linecap="round" stroke-linejoin="round"/>
<path d="M130.87 353.97C134.19 355.331 138.009 361.617 134.961 362.724C130.362 364.402 130.87 353.97 130.87 353.97Z" stroke="#FBFBFB" stroke-width="1.18" stroke-linecap="round" stroke-linejoin="round"/>
<path d="M122.787 358.406C126.76 353.435 130.87 353.97 130.87 353.97C136.585 354.823 138.626 360.247 138.626 360.247" stroke="#FBFBFB" stroke-width="1.18" stroke-linecap="round" stroke-linejoin="round"/>
<path d="M206.697 343.429C206.697 343.429 189.606 344.01 180.934 331.419C180.934 331.419 198.496 290.009 199.213 281.173C200.251 266.935 199.599 252.623 197.271 238.538C197.271 238.538 186.758 267.049 182.023 280.937C174.076 304.251 152.278 340.908 152.278 340.908C132.203 337.66 128.811 326.212 128.811 326.212C145.039 289.646 153.539 271.131 153.539 271.131C163.055 235.191 159.716 224.378 170.139 202.607H235.325C235.325 202.607 235.325 236.234 231.026 275.694C228.794 295.842 206.697 343.429 206.697 343.429Z" fill="#2F2F2F"/>
<g style="mix-blend-mode:multiply">
<path d="M138.627 328.988C138.627 328.988 160.87 284.539 163.809 276.375C166.748 268.211 176.436 219.77 176.436 219.77" stroke="#222222" stroke-width="1.18" stroke-linecap="round" stroke-linejoin="round"/>
<path d="M185.908 210.399C182.025 220.242 166.967 223.29 166.967 223.29" stroke="#222222" stroke-width="1.18" stroke-linecap="round" stroke-linejoin="round"/>
<path d="M197.273 238.575L201.628 228.451C203.999 227.455 206.077 225.869 207.664 223.845C209.252 221.821 210.296 219.426 210.699 216.885" stroke="#222222" stroke-width="1.18" stroke-linecap="round" stroke-linejoin="round"/>
<path d="M194.506 334.259C194.506 334.259 210.635 288.204 211.923 280.929C213.882 269.88 205.691 225.857 205.691 225.857" stroke="#222222" stroke-width="1.18" stroke-linecap="round" stroke-linejoin="round"/>
</g>
<path d="M282.014 95.5752C282.404 94.668 284.155 92.3549 281.415 88.7989C280.046 86.9847 278.776 81.4875 278.522 80.8253C277.705 78.6935 278.05 75.2555 277.914 74.4754C277.85 74.1307 279.51 73.2054 280.944 74.9652C281.506 75.6546 281.851 76.7795 282.041 78.7752C282.15 79.8365 283.329 82.449 284.128 82.4762C285.153 82.4762 285.842 82.0862 286.196 80.7436C287.103 77.3147 284.745 65.141 285.37 64.2158C285.58 63.9499 285.862 63.7511 286.183 63.644C286.504 63.5368 286.849 63.526 287.176 63.6128C287.504 63.6996 287.798 63.8803 288.024 64.1325C288.249 64.3848 288.396 64.6975 288.446 65.0322C288.736 66.3203 289.353 71.0646 290.26 71.0827C290.759 71.0827 291.367 66.7376 291.893 62.7009C291.896 62.3183 292.038 61.95 292.293 61.6651C292.549 61.3802 292.899 61.1983 293.279 61.1538C293.659 61.1092 294.042 61.2049 294.357 61.423C294.671 61.6411 294.895 61.9665 294.986 62.338C294.986 64.9596 294.986 67.2093 295.322 67.5358C295.657 67.8624 296.156 65.8395 296.41 65.3406C296.562 65.0481 296.806 64.8136 297.105 64.6731C297.403 64.5326 297.739 64.4938 298.061 64.5629C298.384 64.6319 298.675 64.8048 298.889 65.0551C299.104 65.3054 299.23 65.6192 299.25 65.9484C299.25 66.411 298.642 73.532 299.467 73.7225C300.03 73.8495 300.374 71.5726 300.492 71.3458C301.3 69.8037 303.549 70.4387 303.15 72.5069C302.805 74.3212 301.336 81.941 300.873 83.8279C299.457 89.9209 297.48 95.8698 294.968 101.598L282.014 95.5752Z" fill="#E7B7B7"/>
<path d="M294.969 101.598C290.433 112.847 280.654 155.246 272.363 157.559C263.872 159.927 249.113 150.529 249.113 150.529L253.939 124.984L265.977 130.227C270.567 118.045 282.006 95.5659 282.006 95.5659L294.969 101.598Z" fill="#E7B7B7"/>
<path d="M265.832 130.236C265.186 134.402 265.186 138.643 265.832 142.809" stroke="#7A1F0C" stroke-width="1.18" stroke-linecap="round" stroke-linejoin="round"/>
<path d="M288.303 82.4854C292.584 84.7532 293.555 89.9692 293.555 89.9692" stroke="#7A1F0C" stroke-width="0.59" stroke-linecap="round" stroke-linejoin="round"/>
<path d="M290.279 71.0645C290.533 73.042 290.579 76.6614 290.579 76.6614" stroke="#7A1F0C" stroke-width="0.59" stroke-linecap="round" stroke-linejoin="round"/>
<path d="M295.296 67.5176C295.142 71.9262 294.443 77.3508 294.443 77.3508" stroke="#7A1F0C" stroke-width="0.59" stroke-linecap="round" stroke-linejoin="round"/>
<path d="M299.44 73.7041C299.286 74.9559 298.533 78.6661 298.533 78.6661" stroke="#7A1F0C" stroke-width="0.59" stroke-linecap="round" stroke-linejoin="round"/>
<path d="M263.065 127.606C264.293 137.362 262.255 147.251 257.269 155.727L235.498 148.07C235.498 176.464 235.969 208.54 235.969 208.54C195.811 214.436 168.062 204.285 168.062 204.285C175.056 166.821 175.074 147.073 175.074 147.073L156.215 158.784C144.975 148.116 148.413 132.25 148.413 132.25C148.413 132.25 171.999 110.869 180.562 110.869H227.025C235.679 110.887 263.065 127.606 263.065 127.606Z" fill="#2ECC82"/>
<path d="M175.129 147.091C176.172 143.254 176.871 131.742 176.871 131.742" stroke="#193B59" stroke-width="1.18" stroke-linecap="round" stroke-linejoin="round"/>
<path d="M235.553 148.089C235.026 142.945 233.738 131.243 233.738 131.243" stroke="#193B59" stroke-width="1.18" stroke-linecap="round" stroke-linejoin="round"/>
<path d="M178.703 196.947C212.494 205.437 227.606 192.039 227.606 192.039" stroke="#193B59" stroke-width="1.18" stroke-linecap="round" stroke-linejoin="round"/>
<path d="M191.402 110.888C188.925 118.145 196.255 126.436 206.614 125.402C222.371 123.805 216.493 110.888 216.493 110.888H191.402Z" fill="#FBFBFB"/>
<path d="M256.853 123.95C257.624 135.988 253.224 147.835 250.721 153.432L257.288 155.745C262.274 147.269 264.313 137.381 263.085 127.624C263.085 127.624 260.581 126.091 256.853 123.95Z" fill="#FBFBFB"/>
<path d="M199.058 141.753L198.321 152.275L195.411 152.069L195.829 146.099L193.456 151.931L190.933 151.753L189.396 145.644L188.978 151.614L186.038 151.407L186.775 140.884L190.372 141.139L192.49 148.158L195.491 141.501L199.058 141.753Z" fill="#FBFBFB"/>
<path d="M203.231 145.167L203.182 146.921L206.615 147.018L206.552 149.252L203.119 149.155L203.064 151.074L206.948 151.184L206.881 153.538L200.044 153.345L200.344 142.729L207.181 142.922L207.115 145.276L203.231 145.167Z" fill="#FBFBFB"/>
<path d="M217.024 142.806L217.06 145.161L214.195 145.204L214.32 153.468L211.381 153.513L211.255 145.249L208.421 145.292L208.385 142.937L217.024 142.806Z" fill="#FBFBFB"/>
<path d="M225.731 149.988L221.985 150.291L221.544 152.099L218.455 152.349L221.478 141.514L224.866 141.241L229.558 151.452L226.454 151.703L225.731 149.988ZM224.823 147.839L223.414 144.497L222.54 148.023L224.823 147.839Z" fill="#FBFBFB"/>
<path d="M188.554 154.896L190.258 161.769L193.086 155.274L194.892 155.424L191.199 163.618L189.035 163.438L186.748 154.746L188.554 154.896Z" fill="#FBFBFB"/>
<path d="M198.461 156.908L198.369 159.102L201.366 159.228L201.311 160.523L198.314 160.397L198.218 162.675L201.575 162.816L201.518 164.171L196.471 163.958L196.827 155.494L201.874 155.706L201.818 157.049L198.461 156.908Z" fill="#FBFBFB"/>
<path d="M208.778 164.227L206.798 160.927H206.054V164.227H204.362V155.755H207.59C208.574 155.755 209.322 155.995 209.834 156.475C210.354 156.955 210.614 157.587 210.614 158.371C210.614 159.011 210.434 159.547 210.074 159.979C209.722 160.411 209.21 160.699 208.538 160.843L210.65 164.227H208.778ZM206.054 159.763H207.446C208.414 159.763 208.898 159.335 208.898 158.479C208.898 158.071 208.778 157.755 208.538 157.531C208.306 157.299 207.942 157.183 207.446 157.183H206.054V159.763Z" fill="#FBFBFB"/>
<path d="M218.913 161.616C218.931 162.048 218.839 162.452 218.638 162.828C218.437 163.197 218.129 163.502 217.715 163.743C217.3 163.976 216.789 164.105 216.181 164.129C215.582 164.154 215.042 164.076 214.562 163.895C214.082 163.706 213.691 163.426 213.387 163.054C213.092 162.682 212.914 162.241 212.853 161.731L214.652 161.658C214.706 162 214.853 162.282 215.094 162.504C215.343 162.718 215.664 162.817 216.055 162.801C216.407 162.787 216.671 162.684 216.847 162.493C217.031 162.293 217.117 162.046 217.105 161.75C217.095 161.486 217.01 161.273 216.851 161.112C216.692 160.942 216.495 160.81 216.259 160.716C216.023 160.621 215.698 160.514 215.285 160.395C214.75 160.24 214.311 160.086 213.969 159.932C213.626 159.77 213.328 159.53 213.075 159.212C212.83 158.893 212.696 158.47 212.675 157.943C212.645 157.216 212.882 156.633 213.384 156.197C213.895 155.751 214.582 155.511 215.445 155.476C216.34 155.44 217.06 155.627 217.605 156.037C218.159 156.447 218.486 157.01 218.587 157.726L216.764 157.801C216.704 157.499 216.566 157.256 216.351 157.073C216.135 156.881 215.847 156.793 215.487 156.808C215.175 156.82 214.927 156.914 214.742 157.09C214.557 157.258 214.47 157.498 214.483 157.809C214.493 158.057 214.573 158.262 214.724 158.424C214.883 158.578 215.076 158.702 215.304 158.797C215.54 158.891 215.856 158.994 216.253 159.106C216.805 159.276 217.251 159.438 217.594 159.592C217.945 159.746 218.247 159.986 218.5 160.312C218.753 160.638 218.891 161.073 218.913 161.616Z" fill="#FBFBFB"/>
<path d="M223.078 156.455L223.274 158.642L226.262 158.375L226.377 159.666L223.389 159.933L223.593 162.204L226.939 161.904L227.06 163.255L222.029 163.706L221.273 155.268L226.304 154.817L226.424 156.155L223.078 156.455Z" fill="#FBFBFB"/>
<path d="M181.287 167.111C197.625 169.175 214.141 169.433 230.535 167.882" stroke="#FBFBFB" stroke-width="3" stroke-miterlimit="10"/>
<path d="M226.344 76.8247C224.53 82.9206 222.271 84.7167 217.654 86.6126L195.883 95.6839C189.46 88.7353 188.181 85.524 188.181 76.0809C187.111 72.6852 187.413 69.0052 189.025 65.8303C188.562 65.8846 188.116 66.0425 187.722 66.2921C187.328 66.5418 186.995 66.8769 186.748 67.2726C189.469 55.2351 197.942 57.1945 197.942 57.1945C198.671 55.8097 199.725 54.6229 201.015 53.7364C202.304 52.8498 203.79 52.2901 205.344 52.1055C204.94 52.7 204.634 53.3554 204.437 54.0467C207.749 53.0286 211.25 52.7829 214.672 53.3285C218.094 53.8742 221.345 55.1967 224.176 57.1945H219.64C228.793 61.3037 231.406 71.2459 226.344 76.8247Z" fill="#193B59"/>
<path d="M214.234 113.799C214.234 118.226 209.508 120.149 204.501 120.149C197.198 120.149 193.615 114.099 193.615 111.631L196.273 81.4873L211.812 84.626C211.585 86.8666 213.554 107.086 214.234 113.799Z" fill="#E7B7B7"/>
<path d="M212.465 95.0305L199.883 93.8149C199.883 93.8149 200.472 103.893 213.39 105.227L212.465 95.0305Z" fill="#7A1F0C"/>
<path d="M222.571 70.8739C225.583 75.6545 223.551 78.2579 223.551 83.0204C223.551 88.1275 225.511 95.3845 221.41 99.1672C217.165 103.077 207.341 103.267 200.619 94.7858C193.897 86.3042 195.376 71.9353 202.751 68.2433C209.064 65.0955 218.408 64.2519 222.571 70.8739Z" fill="#E7B7B7"/>
<path d="M225.511 76.8246C220.068 77.5775 213.655 77.2146 210.906 70.6743C210.562 74.3028 207.586 75.5637 204.475 75.8902C199.123 78.4665 199.994 85.2881 198.125 85.2881C197.054 85.2881 197.145 80.7524 196.22 79.2285C192.392 73.1416 194.66 66.8099 201.291 63.8708C207.922 60.9317 216.159 59.9974 220.776 63.8708C225.393 67.7442 225.511 76.8246 225.511 76.8246Z" fill="#193B59"/>
<path d="M218.408 90.3859C220.749 90.3859 221.211 89.9141 221.574 89.3064C221.81 88.9163 221.574 88.1725 221.102 86.5215C220.736 85.329 220.433 84.1177 220.195 82.893C220.19 82.8573 220.177 82.823 220.158 82.7924C220.139 82.7618 220.114 82.7355 220.084 82.7151C220.054 82.6946 220.02 82.6806 219.985 82.6737C219.949 82.6669 219.913 82.6674 219.878 82.6753C219.843 82.6807 219.81 82.6931 219.78 82.7117C219.75 82.7303 219.724 82.7547 219.704 82.7834C219.683 82.8122 219.669 82.8447 219.662 82.8791C219.654 82.9135 219.653 82.9491 219.66 82.9837C219.894 84.2092 220.197 85.4206 220.567 86.6122C220.845 87.358 221.03 88.1348 221.12 88.9254C220.866 89.3427 220.612 89.7781 218.399 89.7781C218.327 89.7781 218.258 89.8068 218.207 89.8578C218.156 89.9088 218.127 89.978 218.127 90.0502C218.127 90.1224 218.156 90.1916 218.207 90.2426C218.258 90.2937 218.327 90.3224 218.399 90.3224L218.408 90.3859Z" fill="#7A1F0C"/>
<path d="M203.068 84.3087C202.885 84.7797 202.843 85.2935 202.946 85.788C203.049 86.2824 203.293 86.7364 203.649 87.0949C204.005 87.4533 204.457 87.7009 204.951 87.8077C205.445 87.9144 205.959 87.8757 206.431 87.6963C206.903 87.5168 207.313 87.2043 207.612 86.7966C207.91 86.389 208.084 85.9035 208.112 85.3992C208.14 84.8948 208.021 84.3931 207.77 83.9549C207.518 83.5166 207.146 83.1606 206.696 82.9299C206.031 82.6376 205.278 82.6183 204.6 82.8762C203.921 83.1342 203.371 83.6487 203.068 84.3087Z" fill="#E3A2A2"/>
<path d="M213.836 80.6712C213.836 81.669 214.308 82.4854 214.888 82.4854C215.469 82.4854 215.95 81.6781 215.95 80.6712C215.95 79.6643 215.469 78.8569 214.888 78.8569C214.308 78.8569 213.836 79.6824 213.836 80.6712Z" fill="#193B59"/>
<path d="M216.802 77.3869C216.585 78.1398 214.698 76.7882 213.591 76.897C211.704 77.0875 211.632 78.0309 210.942 77.8586C210.852 76.9515 212.058 75.8901 213.664 75.7813C214.29 75.6765 214.933 75.7761 215.498 76.0652C216.064 76.3544 216.521 76.8178 216.802 77.3869Z" fill="#193B59"/>
<path d="M221.709 81.4511C221.709 82.2766 222.099 82.9388 222.616 82.9388C223.133 82.9388 223.523 82.2766 223.523 81.4511C223.523 80.6256 223.133 79.9634 222.616 79.9634C222.099 79.9634 221.709 80.6256 221.709 81.4511Z" fill="#193B59"/>
<path d="M221.283 78.4665C221.283 79.0561 222.871 78.4665 223.56 78.7477C224.703 79.2557 224.739 80.1719 225.057 80.0358C225.147 79.5946 225.069 79.1357 224.84 78.7485C224.61 78.3612 224.244 78.0731 223.814 77.9404C223.39 77.7545 222.918 77.7054 222.465 77.7996C222.011 77.8939 221.598 78.127 221.283 78.4665Z" fill="#193B59"/>
<path d="M212.594 90.9663C214.102 92.2974 215.891 93.271 217.828 93.8147C217.828 93.8147 215.479 96.2549 213.583 95.9283C211.687 95.6017 212.594 90.9663 212.594 90.9663Z" fill="#7A1F0C"/>
<path d="M212.385 93.0439C212.385 94.323 212.566 95.7653 213.582 95.9286C214.425 95.9922 215.264 95.7649 215.959 95.2846C215.589 94.6495 215.071 94.1138 214.448 93.7235C213.826 93.3332 213.117 93.1 212.385 93.0439Z" fill="#BF504C"/>
<path d="M196.237 79.2287C195.809 78.6751 195.234 78.253 194.578 78.0102C193.921 77.7675 193.21 77.714 192.524 77.8558C191.839 77.9976 191.207 78.329 190.701 78.8123C190.195 79.2956 189.834 79.9113 189.661 80.5894C189.053 82.6939 189.661 88.6537 195.657 88.2546C195.657 88.2546 197.616 81.0248 196.237 79.2287Z" fill="#E7B7B7"/>
<path d="M195.412 84.9162H195.33C195.289 84.9067 195.25 84.8889 195.215 84.864C195.181 84.8391 195.152 84.8075 195.13 84.7711C195.108 84.7347 195.093 84.6943 195.087 84.6522C195.081 84.6101 195.084 84.5673 195.094 84.5262C195.484 82.9478 195.094 81.2696 194.133 80.6164C193.856 80.4406 193.53 80.3573 193.202 80.3785C192.874 80.3997 192.562 80.5243 192.309 80.7344C192.238 80.7835 192.151 80.8025 192.066 80.7872C191.981 80.7719 191.905 80.7236 191.856 80.6527C191.832 80.617 191.815 80.5769 191.807 80.5348C191.799 80.4926 191.799 80.4493 191.807 80.4071C191.816 80.365 191.832 80.3249 191.856 80.2892C191.88 80.2536 191.911 80.2229 191.947 80.1992C192.309 79.9013 192.758 79.7281 193.227 79.7052C193.696 79.6824 194.16 79.811 194.55 80.0722C195.711 80.8795 196.228 82.7935 195.775 84.6713C195.755 84.7498 195.707 84.8183 195.64 84.8636C195.573 84.9088 195.492 84.9276 195.412 84.9162Z" fill="#7A1F0C"/>
<path d="M205.036 85.5513H219.087C221.678 85.5513 223.777 83.4516 223.777 80.8614V78.521C223.777 75.9309 221.678 73.8312 219.087 73.8312H205.036C202.446 73.8312 200.346 75.9309 200.346 78.521V80.8614C200.346 83.4516 202.446 85.5513 205.036 85.5513Z" fill="#FBFBFB"/>
<path d="M209.718 85.5513H223.769C226.359 85.5513 228.459 83.4516 228.459 80.8614V78.521C228.459 75.9309 226.359 73.8312 223.769 73.8312H209.718C207.128 73.8312 205.028 75.9309 205.028 78.521V80.8614C205.028 83.4516 207.128 85.5513 209.718 85.5513Z" fill="#E58A45"/>
<path d="M227.289 80.8703V78.5208C227.289 76.582 225.717 75.0103 223.778 75.0103H209.709C207.77 75.0103 206.198 76.582 206.198 78.5208V80.8703C206.198 82.8091 207.77 84.3809 209.709 84.3809H223.778C225.717 84.3809 227.289 82.8091 227.289 80.8703Z" fill="#FBFBFB"/>
<path d="M187.773 80.6709H202.732V76.8247H188.681C188.44 76.8247 188.209 76.9203 188.039 77.0904C187.869 77.2605 187.773 77.4912 187.773 77.7318V80.6709Z" fill="#FBFBFB"/>
<g opacity="0.35">
<path d="M224.866 88.1539L226.539 87.1924L215.15 67.3755L213.477 68.3371L224.866 88.1539Z" fill="#111111"/>
<path d="M218.529 92.8284L221.672 91.0142L210.283 71.2879L207.141 73.1021L218.529 92.8284Z" fill="#111111"/>
</g>
<path d="M214.988 80.2805H218.499C218.653 80.2806 218.802 80.2197 218.912 80.1111C219.023 80.0024 219.086 79.8548 219.088 79.7C219.088 79.5436 219.026 79.3936 218.916 79.2831C218.805 79.1725 218.655 79.1104 218.499 79.1104H214.988C214.832 79.1104 214.682 79.1725 214.571 79.2831C214.461 79.3936 214.398 79.5436 214.398 79.7C214.401 79.8548 214.464 80.0024 214.574 80.1111C214.685 80.2197 214.833 80.2806 214.988 80.2805Z" fill="#E58A45"/>
<path d="M193.59 88.8258C196.846 88.8258 199.486 85.9828 199.486 82.4759C199.486 78.9689 196.846 76.126 193.59 76.126C190.333 76.126 187.693 78.9689 187.693 82.4759C187.693 85.9828 190.333 88.8258 193.59 88.8258Z" fill="#FBFBFB"/>
<path d="M191.775 88.8258C195.032 88.8258 197.672 85.9828 197.672 82.4759C197.672 78.9689 195.032 76.126 191.775 76.126C188.519 76.126 185.879 78.9689 185.879 82.4759C185.879 85.9828 188.519 88.8258 191.775 88.8258Z" fill="#FBFBFB" stroke="#E58A45" stroke-width="0.75" stroke-miterlimit="10"/>
<path d="M191.774 85.1884C193.026 85.1884 194.041 83.97 194.041 82.467C194.041 80.964 193.026 79.7456 191.774 79.7456C190.521 79.7456 189.506 80.964 189.506 82.467C189.506 83.97 190.521 85.1884 191.774 85.1884Z" stroke="#E58A45" stroke-width="0.75" stroke-miterlimit="10"/>
<path d="M149.674 158.258C140.367 154.529 144.068 129.946 169.467 89.7422L178.248 96.9992C162.374 129.075 169.522 166.195 149.674 158.258Z" fill="#E7B7B7"/>
<path d="M169.451 89.742C169.451 89.742 176.808 81.85 178.423 80.3623C179.52 79.3554 184.065 76.5706 186.65 76.0807C189.063 75.6271 195.259 74.7382 195.522 75.3913C196.429 77.4868 194.08 77.4233 194.08 77.4233C194.14 77.6677 194.125 77.9244 194.038 78.1605C193.95 78.3965 193.794 78.601 193.59 78.7477C192.875 78.9952 192.131 79.1477 191.376 79.2012C191.376 79.2012 192.138 80.1084 191.44 80.7978C190.578 81.6414 186.632 80.9429 184.328 82.6574C183.965 82.9733 183.673 83.3635 183.474 83.8017C183.274 84.2399 183.171 84.7158 183.171 85.1973C183.171 85.6789 183.274 86.1548 183.474 86.593C183.673 87.0312 183.965 87.4214 184.328 87.7373C184.905 88.1809 185.589 88.464 186.311 88.558C187.032 88.652 187.766 88.5535 188.437 88.2725C188.437 88.2725 192.655 87.6919 193.309 89.098C193.962 90.504 189.508 91.1209 189.508 91.1209C189.508 91.1209 183.992 92.028 183.757 92.1459C181.942 92.9624 178.259 96.9628 178.259 96.9628L169.451 89.742Z" fill="#E7B7B7"/>
<path d="M191.402 79.2015C190.885 78.7933 186.921 79.0019 186.15 79.0654C184.504 79.3971 182.913 79.959 181.424 80.7345" stroke="#7A1F0C" stroke-width="0.59" stroke-linecap="round" stroke-linejoin="round"/>
<path d="M194.123 77.4234C194.086 77.2652 194.001 77.1225 193.879 77.0151C193.757 76.9078 193.605 76.8412 193.443 76.8247C193.189 76.8247 188.971 76.988 187.864 77.1241C185.453 77.6517 183.128 78.5191 180.961 79.7003" stroke="#7A1F0C" stroke-width="0.59" stroke-linecap="round" stroke-linejoin="round"/>
<path d="M185.959 81.8682C185.959 81.8682 182.576 83.9364 182.449 84.1451C182.322 84.3537 181.542 86.5489 181.206 87.1204C180.87 87.6919 181.496 89.3701 179.609 91.9373" stroke="#7A1F0C" stroke-width="0.59" stroke-linecap="round" stroke-linejoin="round"/>
<path opacity="0.4" d="M111.177 127.968V173.842C111.177 174.565 110.961 175.271 110.557 175.871C110.153 176.471 109.579 176.936 108.909 177.207C94.8936 182.849 86.1035 190.968 86.1035 199.994V146.238C86.1035 137.847 93.7052 130.227 106.06 124.666C106.612 124.418 107.218 124.312 107.821 124.357C108.425 124.403 109.007 124.599 109.516 124.927C110.024 125.255 110.442 125.705 110.733 126.236C111.023 126.768 111.175 127.363 111.177 127.968Z" fill="#111111"/>
<path d="M154.146 197.835V210.78C154.146 211.268 154.048 211.751 153.857 212.201C153.666 212.65 153.387 213.056 153.035 213.395C152.684 213.734 152.268 213.998 151.811 214.172C151.355 214.346 150.869 214.427 150.381 214.408C136.375 213.919 123.521 211.605 113.062 208.004C112.344 207.76 111.721 207.297 111.28 206.68C110.84 206.063 110.603 205.324 110.604 204.566V192.011C110.604 191.441 110.739 190.879 110.997 190.37C111.255 189.862 111.63 189.422 112.09 189.085C112.551 188.748 113.084 188.525 113.647 188.433C114.209 188.341 114.786 188.383 115.33 188.555C126.797 192.018 138.678 193.922 150.653 194.216C151.59 194.251 152.477 194.647 153.128 195.322C153.779 195.997 154.144 196.898 154.146 197.835Z" fill="#2ECC82"/>
<path opacity="0.6" d="M185.906 178.495V224.877C185.907 225.727 185.61 226.55 185.066 227.203C184.522 227.856 183.766 228.298 182.93 228.451C174.029 230.066 164.999 230.865 155.952 230.836C117.372 230.836 86.1035 217.03 86.1035 199.994V146.238C86.1035 163.274 117.372 177.08 155.952 177.08C164.559 177.106 173.151 176.387 181.633 174.93C182.155 174.836 182.692 174.858 183.205 174.993C183.718 175.129 184.194 175.375 184.602 175.715C185.009 176.055 185.337 176.48 185.562 176.96C185.788 177.441 185.905 177.965 185.906 178.495Z" fill="#111111"/>
<path d="M155.952 177.08C117.372 177.08 86.1035 163.274 86.1035 146.238V155.309C86.1035 172.345 117.372 186.151 155.952 186.151C166.006 186.191 176.038 185.194 185.888 183.176V178.495C185.887 177.965 185.769 177.441 185.544 176.96C185.319 176.48 184.991 176.055 184.584 175.715C184.176 175.375 183.699 175.129 183.186 174.993C182.674 174.858 182.137 174.836 181.615 174.93C173.139 176.385 164.553 177.105 155.952 177.08Z" fill="#111111"/>
<path d="M126.471 198.851V205.337C126.47 205.484 126.505 205.629 126.573 205.759C126.641 205.889 126.739 206.001 126.859 206.085C126.98 206.169 127.119 206.222 127.264 206.24C127.41 206.259 127.558 206.241 127.695 206.19L133.991 203.877C134.148 203.819 134.286 203.719 134.39 203.588C134.493 203.456 134.559 203.299 134.578 203.132C134.598 202.966 134.571 202.798 134.501 202.646C134.431 202.494 134.32 202.364 134.181 202.271L127.831 198.098C127.696 198.02 127.542 197.978 127.386 197.977C127.229 197.975 127.075 198.014 126.938 198.09C126.801 198.166 126.686 198.276 126.604 198.409C126.522 198.543 126.476 198.695 126.471 198.851Z" fill="#FBFBFB"/>
<path d="M98.6406 208.548C111.268 216.54 132.204 221.765 155.953 221.765C159.708 221.765 163.379 221.635 166.965 221.375" stroke="#FBFBFB" stroke-width="2" stroke-linecap="round" stroke-linejoin="round"/>
<path d="M98.6406 208.548C108.084 214.526 122.226 218.953 138.627 220.813" stroke="#2ECC82" stroke-width="2" stroke-linecap="round" stroke-linejoin="round"/>
<path d="M138.626 223.534C140.129 223.534 141.347 222.316 141.347 220.813C141.347 219.31 140.129 218.091 138.626 218.091C137.123 218.091 135.904 219.31 135.904 220.813C135.904 222.316 137.123 223.534 138.626 223.534Z" fill="#2ECC82"/>
<path opacity="0.6" d="M141.339 220.813C141.338 221.484 141.089 222.13 140.641 222.629C140.193 223.127 139.576 223.443 138.909 223.515C138.243 223.587 137.573 223.41 137.029 223.019C136.484 222.627 136.103 222.048 135.959 221.394C120.72 219.398 107.367 215.143 98.1595 209.311C97.9865 209.171 97.8709 208.973 97.8345 208.753C97.7981 208.534 97.8436 208.309 97.9622 208.121C98.0809 207.933 98.2644 207.795 98.478 207.733C98.6917 207.672 98.9205 207.691 99.121 207.787C108.111 213.474 121.21 217.638 136.186 219.579C136.461 219.033 136.912 218.595 137.467 218.336C138.021 218.077 138.647 218.013 139.242 218.154C139.838 218.294 140.369 218.631 140.749 219.11C141.129 219.59 141.337 220.183 141.339 220.795V220.813Z" fill="#111111"/>
<path d="M180.517 177.87V181.426C179.32 181.634 178.113 181.825 176.889 181.997V178.414C178.104 178.26 179.311 178.078 180.517 177.87Z" fill="#2ECC82"/>
<path d="M173.259 178.868V182.496C172.062 182.632 170.855 182.75 169.631 182.859V179.231C170.837 179.122 172.044 179.004 173.259 178.868Z" fill="#2ECC82"/>
<path d="M166.004 179.493V183.122C164.797 183.203 163.591 183.267 162.375 183.321V179.693C163.581 179.611 164.788 179.611 166.004 179.493Z" fill="#2ECC82"/>
<g opacity="0.6">
<path d="M180.517 177.87V181.426C179.32 181.634 178.113 181.825 176.889 181.997V178.414C178.104 178.26 179.311 178.078 180.517 177.87Z" fill="#111111"/>
<path d="M173.261 178.868V182.496C172.064 182.632 170.857 182.75 169.633 182.859V179.231C170.839 179.122 172.046 179.004 173.261 178.868Z" fill="#111111"/>
<path d="M166.004 179.494V183.122C164.797 183.204 163.591 183.267 162.375 183.322V179.693C163.581 179.612 164.788 179.612 166.004 179.494Z" fill="#111111"/>
</g>
<path d="M105.47 137.103C105.416 137.544 105.236 137.959 104.951 138.3C104.666 138.64 104.29 138.891 103.866 139.023C103.442 139.154 102.989 139.161 102.562 139.041C102.135 138.921 101.751 138.681 101.457 138.348C101.163 138.016 100.971 137.606 100.905 137.167C100.838 136.728 100.9 136.28 101.083 135.875C101.265 135.471 101.56 135.127 101.933 134.887C102.306 134.646 102.74 134.518 103.184 134.518C103.829 134.56 104.431 134.855 104.86 135.34C105.288 135.824 105.507 136.458 105.47 137.103Z" fill="#FBFBFB"/>
<path opacity="0.6" d="M105.47 146.238C105.416 146.678 105.236 147.094 104.951 147.434C104.666 147.775 104.29 148.026 103.866 148.157C103.442 148.289 102.989 148.295 102.562 148.175C102.135 148.056 101.751 147.815 101.457 147.483C101.163 147.15 100.971 146.74 100.905 146.301C100.838 145.863 100.9 145.414 101.083 145.009C101.265 144.605 101.56 144.262 101.933 144.021C102.306 143.78 102.74 143.652 103.184 143.652C103.829 143.694 104.431 143.99 104.86 144.474C105.288 144.958 105.507 145.592 105.47 146.238Z" fill="#2ECC82"/>
<path d="M103.184 157.967C104.447 157.967 105.47 156.81 105.47 155.382C105.47 153.954 104.447 152.796 103.184 152.796C101.922 152.796 100.898 153.954 100.898 155.382C100.898 156.81 101.922 157.967 103.184 157.967Z" fill="#2ECC82"/>
</svg>
