<svg width="420" height="389" fill="none" xmlns="http://www.w3.org/2000/svg"><path d="M82.35 101.646c-22.521 11.694-40.023 31.345-53.848 52.59C8.919 184.494-4.301 220.763 1.29 256.351c5.592 35.588 34.046 68.978 70.008 71.813 46.077 3.638 83.58-39.874 129.548-44.677 17.513-1.824 35.048 2.143 52.616 3.297 51.966 3.298 104.935-20.091 137.429-60.723 21.278-26.609 33.991-61.713 27.332-95.103-6.924-34.709-34.399-63.372-67.267-76.605-32.869-13.233-70.294-12.299-104.363-2.55-31.559 9.034-56.733 26.378-85.022 41.886-11.404 6.275-24.349-2.198-37.107-2.308a89.722 89.722 0 0 0-42.115 10.265Z" fill="#DEF7E5"/><path opacity=".25" d="M203.539 0h-5.968c-1.098 0-1.987.89-1.987 1.987v5.969c0 1.097.889 1.986 1.987 1.986h5.968c1.098 0 1.987-.89 1.987-1.986v-5.97A1.986 1.986 0 0 0 203.539 0Zm152.272 179.021h-5.969c-1.097 0-1.987.89-1.987 1.987v5.969c0 1.097.89 1.987 1.987 1.987h5.969c1.097 0 1.987-.89 1.987-1.987v-5.969c0-1.097-.89-1.987-1.987-1.987ZM118.559 88.844h-5.969c-1.097 0-1.986.89-1.986 1.987V96.8c0 1.097.889 1.986 1.986 1.986h5.969c1.097 0 1.987-.89 1.987-1.986v-5.97c0-1.096-.89-1.986-1.987-1.986ZM69.53 188.964H53.62a1.986 1.986 0 0 0-1.987 1.986v15.911c0 1.098.89 1.987 1.986 1.987H69.53a1.986 1.986 0 0 0 1.987-1.987V190.95c0-1.097-.89-1.986-1.987-1.986Z" fill="#111"/><path opacity=".25" d="M59.588 169.088H33.735c-1.097 0-1.987.89-1.987 1.987v25.853c0 1.097.89 1.987 1.987 1.987h25.853c1.097 0 1.986-.89 1.986-1.987v-25.853a1.987 1.987 0 0 0-1.986-1.987Zm138.981-147.58h-15.911c-1.097 0-1.986.89-1.986 1.986v15.911c0 1.098.889 1.987 1.986 1.987h15.911c1.098 0 1.987-.89 1.987-1.987v-15.91a1.986 1.986 0 0 0-1.987-1.987ZM375.54 266.369h-15.911c-1.097 0-1.986.89-1.986 1.987v15.911c0 1.097.889 1.986 1.986 1.986h15.911a1.987 1.987 0 0 0 1.987-1.986v-15.911c0-1.097-.89-1.987-1.987-1.987ZM76.198 325.423H92.11c1.097 0 1.987-.89 1.987-1.987v-15.911c0-1.097-.89-1.986-1.987-1.986H76.2a1.986 1.986 0 0 0-1.987 1.986v15.911c0 1.097.889 1.987 1.986 1.987Zm234.927-19.875h-5.968a1.986 1.986 0 0 0-1.987 1.986v5.969c0 1.098.889 1.987 1.987 1.987h5.968a1.986 1.986 0 0 0 1.987-1.987v-5.969a1.986 1.986 0 0 0-1.987-1.986ZM254.031 72.299c2.155 0 3.901-2.73 3.901-6.096 0-3.367-1.746-6.096-3.901-6.096-2.154 0-3.9 2.73-3.9 6.096 0 3.367 1.746 6.096 3.9 6.096Zm125.747-37.755c2.154 0 3.9-2.73 3.9-6.096 0-3.367-1.746-6.096-3.9-6.096-2.155 0-3.901 2.73-3.901 6.096 0 3.367 1.746 6.096 3.901 6.096ZM122.635 296.667c2.154 0 3.901-2.725 3.901-6.087 0-3.361-1.747-6.086-3.901-6.086s-3.901 2.725-3.901 6.086c0 3.362 1.747 6.087 3.901 6.087ZM50.563 99.503c-2.603 1.125-3.184 2.032-3.9 6.096-.717-4.064-1.298-4.971-3.901-6.096 2.603-1.124 3.184-2.032 3.9-6.087.717 4.055 1.298 4.963 3.901 6.087ZM261.832 219.38c2.155 0 3.901-2.729 3.901-6.096s-1.746-6.096-3.901-6.096c-2.154 0-3.9 2.729-3.9 6.096s1.746 6.096 3.9 6.096Z" fill="#111"/><path d="M277.398 344.854h109.373l-.708-.907a20.862 20.862 0 0 0-16.328-7.91h-10.396l-4.971-7.321a20.855 20.855 0 0 0-18.306-9.071 20.861 20.861 0 0 0-16.056 8.935l-4.118 5.942-18.261-.572a20.87 20.87 0 0 0-15.348 6.06l-4.881 4.844ZM108.264 268.51H41.727l.907-2.358a7.504 7.504 0 0 1 5.842-4.49l10.885-1.579 1.687-4.2a12.7 12.7 0 0 1 11.793-7.983 12.701 12.701 0 0 1 12.482 10.26l1.198 6.06 13.724-1.261a7.507 7.507 0 0 1 8.019 5.551Zm232.605-133.992h66.574l-.78-1.814a8.442 8.442 0 0 0-6.558-5.053l-10.405-1.56-2.277-5.66a11.543 11.543 0 0 0-16.714-5.551 11.527 11.527 0 0 0-4.703 5.551l-3.03 7.511-14.151.308a8.429 8.429 0 0 0-7.956 6.232v.036Z" opacity=".6" fill="#111"/><path d="M362.52 66.545c5.103-13.603-1.789-28.767-15.392-33.87-13.604-5.102-28.768 1.79-33.87 15.393-5.102 13.604 1.789 28.767 15.393 33.87 13.603 5.102 28.767-1.79 33.869-15.393Z" stroke="#111" stroke-width="1.18" stroke-linecap="round" stroke-linejoin="round"/><path d="M354.014 52.686c4 13.96-.907 27.631-8.881 29.935-7.974 2.305-15.847-7.72-19.893-21.689-4.046-13.97-2.558-26.633 5.388-28.91 7.947-2.277 19.376 6.695 23.386 20.664Z" stroke="#111" stroke-width="1.18" stroke-linecap="round" stroke-linejoin="round"/><path d="M330.629 32.022a168.13 168.13 0 0 1 14.514 50.572" stroke="#111" stroke-width="1.18" stroke-linecap="round" stroke-linejoin="round"/><path d="M312.158 62.819a93.883 93.883 0 0 0 50.455-14.514m-49.836 1.143a94.34 94.34 0 0 0 42.236-12.11M317.811 74.33a94.344 94.344 0 0 0 46.109-13.226" stroke="#111" stroke-width="1.18" stroke-linecap="round" stroke-linejoin="round"/><path d="M328.142 61.159a2.723 2.723 0 0 0-2.306-1.955 2.72 2.72 0 0 0-2.441 4.396 2.724 2.724 0 0 0 3.823.439 2.714 2.714 0 0 0 1.012-1.822 2.72 2.72 0 0 0-.088-1.058Zm20.857-18.168a2.722 2.722 0 1 0-2.153-5 2.722 2.722 0 0 0 2.153 5Zm9.169 21.415a2.718 2.718 0 0 0-2.307-1.955 2.722 2.722 0 1 0 2.307 1.955Z" fill="#111"/><path d="M109.343 75.736c17.535 0 31.75-14.215 31.75-31.75 0-17.534-14.215-31.749-31.75-31.749s-31.75 14.215-31.75 31.75 14.215 31.75 31.75 31.75Z" fill="#2ECC82"/><path d="M109.342 12.237a31.632 31.632 0 0 0-18.143 5.687c.463 6.523 6.35 12.818 12.174 10.886 6.967-2.331 3.701-9.071 6.894-10.314 3.193-1.243 7.593-2.948 7.656-5.07a31.401 31.401 0 0 0-8.581-1.19ZM92.469 43.705c-.318-7.702.145-14.333-9.525-17.363a31.632 31.632 0 0 0-5.352 17.644c0 1.034.054 2.05.145 3.048 3.093 11.43 14.514 10.314 20.927 12.954 6.414 2.64 4.4 11.184 7.257 11.847 2.858.662 4.037-12.7.908-17.345-3.13-4.644-14.106-4.435-14.36-10.785Zm29.989-28.638c6.35 12.346 1.425 13.716-6.767 17.617-8.799 4.19-6.35 11.303 3.946 13.19 6.014 1.106 4.917 13.325 9.906 11.792 8.464-2.603-2.848-16.845 11.511-12.31v-1.388a31.751 31.751 0 0 0-18.596-28.9Z" style="mix-blend-mode:multiply" opacity=".6" fill="#C4C4C4"/><path d="M139.243 33.3a31.634 31.634 0 0 0-1.914-4.272 206.378 206.378 0 0 1-26.398 17.744 208.986 208.986 0 0 1-28.556 14.006 31.588 31.588 0 0 0 2.776 3.8 218.94 218.94 0 0 0 28.048-13.915 218.98 218.98 0 0 0 26.044-17.362Zm-22.416 23.65a237.712 237.712 0 0 0 24.13-15.803 32.015 32.015 0 0 0-.853-5.052 226.798 226.798 0 0 1-25.545 16.927 227.565 227.565 0 0 1-27.422 13.607 32.354 32.354 0 0 0 3.937 3.274 238.536 238.536 0 0 0 25.753-12.953Z" style="mix-blend-mode:multiply" opacity=".3" fill="#2ECC82"/><path d="M144.567 33.636c-7.402 6.277-17.898 13.444-29.554 20.175-11.657 6.73-23.114 12.237-32.249 15.512-6.35 2.277-10.55 3.084-13.307 3.084-3.348 0-4.627-1.188-5.289-2.34-1.216-2.096-1.497-6.015 9.978-15.721a119.39 119.39 0 0 1 4.246-3.438c.36 1.591.838 3.153 1.433 4.672-7.511 6.005-11.366 10.422-11.611 12.164 2.939 1.243 19.675-3.501 44.576-17.87 24.901-14.37 37.365-26.507 37.773-29.663-1.606-.68-7.384.453-16.328 3.973a31.85 31.85 0 0 0-3.33-3.574c1.815-.717 3.466-1.379 5.098-1.96 14.134-5.061 17.381-2.848 18.588-.752 1.206 2.095 1.433 6.032-10.024 15.738ZM253.765 9.107l-11.372 4.595a4.246 4.246 0 0 0-2.346 5.526l4.595 11.371a4.245 4.245 0 0 0 5.526 2.346l11.372-4.594a4.245 4.245 0 0 0 2.345-5.526l-4.594-11.372a4.245 4.245 0 0 0-5.526-2.346Z" fill="#2ECC82"/><path d="m240.225 15.72-.073.182c.009-.072.046-.127.073-.181Zm21.326 12.637-11.375 4.59a4.247 4.247 0 0 1-5.525-2.34l-4.599-11.375a4.214 4.214 0 0 1 0-3.157l-2.386 5.56a4.223 4.223 0 0 0-.181 3.53l4.599 11.374a4.233 4.233 0 0 0 2.288 2.341 4.245 4.245 0 0 0 3.273.018l11.375-4.6a4.211 4.211 0 0 0 2.359-2.421l2.458-5.77a4.274 4.274 0 0 1-2.286 2.25Zm2.332-2.313.1-.236c-.009.073-.073.154-.1.236Z" fill="#111"/><path d="M256.453 16.537c-2.622-2.903-6.604-1.551-6.604-1.551l3.928 9.715a2.322 2.322 0 0 1-1.279 3.02l-1.388.554a2.314 2.314 0 0 1-3.012-1.279v0a2.303 2.303 0 0 1 .016-1.77 2.312 2.312 0 0 1 1.263-1.242l3.529-1.424" stroke="#FBFBFB" stroke-width="1.18" stroke-linecap="round" stroke-linejoin="round"/><path opacity=".6" d="m398.002 203.868-128.458 76.198a2.449 2.449 0 0 1-3.374-.907 2.438 2.438 0 0 1 .907-3.365l130.245-73.105a.683.683 0 0 1 .907.253.682.682 0 0 1-.227.926Z" fill="#2ECC82"/><path opacity=".4" d="M317.812 154.81v46.264c0-13.009-16.555-24.003-39.388-27.704a3.63 3.63 0 0 1-3.057-3.574v-38.907a3.626 3.626 0 0 1 2.705-3.514 3.634 3.634 0 0 1 1.577-.06c22.197 3.892 38.163 14.732 38.163 27.495Z" fill="#111"/><path d="M283.004 142.437v16.41l5.47-8.736 1.388 17 5.107-12.301 2.73 6.568 4.572-10.614 2.096 11.358 6.395-8.99v13.979" stroke="#2ECC82" stroke-width="1.18" stroke-linecap="round" stroke-linejoin="round"/><path d="M313.275 172.745v4.49a44.995 44.995 0 0 1-6.976 5.034v-4.535a44.997 44.997 0 0 0 6.976-4.989Zm0 8.98v4.49a45.068 45.068 0 0 1-6.976 5.035v-4.536a44.997 44.997 0 0 0 6.976-4.989Zm-17.816 29.708a58.027 58.027 0 0 0 8.908-4.336v-28.221a67.715 67.715 0 0 1-8.908 3.946v28.611Z" fill="#2ECC82"/><path opacity=".6" d="M317.811 154.811v46.263c0 9.371-8.599 17.698-21.952 23.014a3.632 3.632 0 0 1-4.52-1.699 3.635 3.635 0 0 1-.415-1.694v-38.516a3.626 3.626 0 0 1 2.422-3.411c14.777-5.234 24.465-14.015 24.465-23.957Z" fill="#111"/><path d="m207.73 330.276-14.777 28.04s-7.076-2.359-17.734-10.251l12.999-30.026 19.512 12.237Z" fill="#E7B7B7"/><path d="m167.672 360.293 46.517 25.781s5.262-7.865-2.549-13.843c-8.354-6.35-16.881-12.011-16.818-13.716.064-1.705.853-1.751.726-2.658-.191-1.352-2.032-2.794-2.894-2.413-1.224.535-.907 1.814-2.903 1.388-5.642-1.261-10.976-6.005-12.536-8.581-1.089-1.815-3.456-.998-3.964 3.075-.581 4.59-4.844 7.175-5.579 10.967Z" fill="#2ECC82"/><path d="m214.198 386.08-46.524-25.789-1.267 2.285 46.525 25.789 1.266-2.285Z" fill="#193B59"/><path d="M214.19 386.073s5.261-7.865-2.549-13.843c-.835-.644-1.678-1.27-2.513-1.895-4.536-1.044-8.436 2.231-11.212 6.721l16.274 9.017Zm-28.738-25.944a59.32 59.32 0 0 1-11.013 1.044l2.894 1.596a58.89 58.89 0 0 0 11.004-1.034l-2.885-1.606Zm5.949 3.293c-3.63.69-7.317 1.04-11.012 1.044l2.893 1.596a58.97 58.97 0 0 0 11.013-1.034l-2.894-1.606Z" fill="#FBFBFB"/><path d="M194.586 359.767c6.35-1.37 10.885 1.37 9.552 3.628-1.851 3.221-9.552-3.628-9.552-3.628Z" stroke="#FBFBFB" stroke-width="1.18" stroke-linecap="round" stroke-linejoin="round"/><path d="M194.586 359.767c4.354.054 9.071 7.329 6.577 7.492-3.411.227-6.577-7.492-6.577-7.492Z" stroke="#FBFBFB" stroke-width="1.18" stroke-linecap="round" stroke-linejoin="round"/><path d="M204.501 357.027a9.24 9.24 0 0 0-9.915 2.721s6.286-3.683 10.232.236" stroke="#FBFBFB" stroke-width="1.18" stroke-linecap="round" stroke-linejoin="round"/><path d="m155.888 325.894-17.19 26.606s-8.636.345-18.569-8.454l17.353-32.085 18.406 13.933Z" fill="#E7B7B7"/><path d="M140.187 351.965c-.063-1.36-.453-1.941-1.297-1.533a3.532 3.532 0 0 1-2.975.236 1.698 1.698 0 0 0-.145-2.159 18.54 18.54 0 0 0-6.35-3.429 4.666 4.666 0 0 0-2.722 1.815 8.886 8.886 0 0 1-4.699-5.008c-.907-1.878-2.422-.707-4.172 3.012-1.751 3.719-2.005 3.628-4.536 7.429 0 0 1.814 11.43 3.846 19.821.118.526.245 1.043.372 1.542.191.78.39 1.524.59 2.213v.109c.091.291.172.572.245.844.254.807.49 1.524.725 2.123 1.162 2.911 6.142 5.442 11.24 5.751h.136c7.112 0 7.048-3.629 6.948-10.75v-.099c-.299-6.94-.399-15.794.781-18.624.734-1.587 2.059-2.386 2.013-3.293Z" fill="#2ECC82"/><path d="M111.875 354.469s3.311 20.955 4.944 25.291c2.576 6.867 16.156 8.663 19.231 5.107 1.061-1.224 1.161-4.454 1.161-4.454-3.374 2.032-15.258 4.536-18.052-1.442-1.696-3.629-5.824-26.67-5.824-26.67l-1.46 2.168Z" fill="#193B59"/><path d="M137.473 373.972c.1 7.094.163 10.75-6.948 10.75h-.136c-5.099-.272-9.816-2.958-11.24-5.751-.843-1.651-1.878-6.867-1.878-6.867 4.817-4.663 18.424-3.438 20.202 1.768v.1Zm-21.924-18.66.39 1.924 4.917 3.011-.4-1.923-4.907-3.012Zm.844 4.301.39 1.932 4.916 3.003-.399-1.924-4.907-3.011Z" fill="#FBFBFB"/><path d="M130.869 353.97c-3.165 0-8.164 6.06-5.76 7.257 4.463 2.322 5.76-7.257 5.76-7.257Zm.001 0c3.32 1.361 7.139 7.647 4.091 8.754-4.599 1.678-4.091-8.754-4.091-8.754Z" stroke="#FBFBFB" stroke-width="1.18" stroke-linecap="round" stroke-linejoin="round"/><path d="M122.787 358.406c3.973-4.971 8.083-4.436 8.083-4.436 5.715.853 7.756 6.277 7.756 6.277" stroke="#FBFBFB" stroke-width="1.18" stroke-linecap="round" stroke-linejoin="round"/><path d="M206.697 343.429s-17.091.581-25.763-12.01c0 0 17.562-41.41 18.279-50.246a180.83 180.83 0 0 0-1.942-42.635s-10.513 28.511-15.248 42.399c-7.947 23.314-29.745 59.971-29.745 59.971-20.075-3.248-23.467-14.696-23.467-14.696 16.228-36.566 24.728-55.081 24.728-55.081 9.516-35.94 6.177-46.753 16.6-68.524h65.186s0 33.627-4.299 73.087c-2.232 20.148-24.329 67.735-24.329 67.735Z" fill="#2F2F2F"/><g style="mix-blend-mode:multiply" stroke="#222" stroke-width="1.18" stroke-linecap="round" stroke-linejoin="round"><path d="M138.627 328.988s22.243-44.449 25.182-52.613c2.939-8.164 12.627-56.605 12.627-56.605"/><path d="M185.908 210.399c-3.883 9.843-18.941 12.891-18.941 12.891m30.306 15.285 4.355-10.124a15.106 15.106 0 0 0 9.071-11.566"/><path d="M194.506 334.259s16.129-46.055 17.417-53.33c1.959-11.049-6.232-55.072-6.232-55.072"/></g><path d="M282.014 95.575c.39-.907 2.141-3.22-.599-6.776-1.369-1.814-2.639-7.312-2.893-7.974-.817-2.132-.472-5.57-.608-6.35-.064-.344 1.596-1.27 3.03.49.562.69.907 1.814 1.097 3.81.109 1.061 1.288 3.674 2.087 3.701 1.025 0 1.714-.39 2.068-1.732.907-3.43-1.451-15.603-.826-16.528a1.736 1.736 0 0 1 2.654-.084c.225.253.372.566.422.9.29 1.288.907 6.033 1.814 6.05.499 0 1.107-4.344 1.633-8.381a1.571 1.571 0 0 1 1.386-1.547 1.571 1.571 0 0 1 1.707 1.184c0 2.622 0 4.871.336 5.198.335.326.834-1.697 1.088-2.195a1.503 1.503 0 0 1 1.651-.778 1.502 1.502 0 0 1 1.189 1.385c0 .463-.608 7.584.217 7.775.563.127.907-2.15 1.025-2.377.808-1.542 3.057-.907 2.658 1.16-.345 1.815-1.814 9.435-2.277 11.322a101.403 101.403 0 0 1-5.905 17.77l-12.954-6.023Z" fill="#E7B7B7"/><path d="M294.969 101.598c-4.536 11.249-14.315 53.648-22.606 55.961-8.491 2.368-23.25-7.03-23.25-7.03l4.826-25.545 12.038 5.243c4.59-12.182 16.029-34.661 16.029-34.661l12.963 6.032Z" fill="#E7B7B7"/><path d="M265.832 130.236a41.027 41.027 0 0 0 0 12.573" stroke="#7A1F0C" stroke-width="1.18" stroke-linecap="round" stroke-linejoin="round"/><path d="M288.303 82.485c4.281 2.268 5.252 7.484 5.252 7.484m-3.276-18.905c.254 1.978.3 5.597.3 5.597m4.717-9.143c-.154 4.408-.853 9.833-.853 9.833m4.997-3.647c-.154 1.252-.907 4.962-.907 4.962" stroke="#7A1F0C" stroke-width=".59" stroke-linecap="round" stroke-linejoin="round"/><path d="M263.065 127.606a44.502 44.502 0 0 1-5.796 28.121l-21.771-7.657c0 28.394.471 60.47.471 60.47-40.158 5.896-67.907-4.255-67.907-4.255 6.994-37.464 7.012-57.212 7.012-57.212l-18.859 11.711c-11.24-10.668-7.802-26.534-7.802-26.534s23.586-21.381 32.149-21.381h46.463c8.654.018 36.04 16.737 36.04 16.737Z" fill="#2ECC82"/><path d="M175.129 147.091c1.043-3.837 1.742-15.349 1.742-15.349m58.682 16.347c-.527-5.144-1.815-16.846-1.815-16.846m-55.035 65.704c33.791 8.49 48.903-4.908 48.903-4.908" stroke="#193B59" stroke-width="1.18" stroke-linecap="round" stroke-linejoin="round"/><path d="M191.402 110.888c-2.477 7.257 4.853 15.548 15.212 14.514 15.757-1.597 9.879-14.514 9.879-14.514h-25.091Zm65.451 13.062c.771 12.038-3.629 23.885-6.132 29.482l6.567 2.313a44.501 44.501 0 0 0 5.797-28.121s-2.504-1.533-6.232-3.674Zm-57.795 17.803-.737 10.522-2.91-.206.418-5.97-2.373 5.832-2.523-.178-1.537-6.109-.418 5.97-2.94-.207.737-10.523 3.597.255 2.118 7.019 3.001-6.657 3.567.252Zm4.173 3.414-.049 1.754 3.433.097-.063 2.234-3.433-.097-.055 1.919 3.884.11-.067 2.354-6.837-.193.3-10.616 6.837.193-.066 2.354-3.884-.109Zm13.793-2.361.036 2.355-2.865.043.125 8.264-2.939.045-.126-8.264-2.834.043-.036-2.355 8.639-.131Zm8.707 7.182-3.746.303-.441 1.808-3.089.25 3.023-10.835 3.388-.273 4.692 10.211-3.104.251-.723-1.715Zm-.908-2.149-1.409-3.342-.874 3.526 2.283-.184Zm-36.269 7.057 1.704 6.873 2.828-6.495 1.806.15-3.693 8.194-2.164-.18-2.287-8.692 1.806.15Zm9.907 2.012-.092 2.194 2.997.126-.055 1.295-2.997-.126-.096 2.278 3.357.141-.057 1.355-5.047-.213.356-8.464 5.047.212-.056 1.343-3.357-.141Zm10.317 7.319-1.98-3.3h-.744v3.3h-1.692v-8.472h3.228c.984 0 1.732.24 2.244.72.52.48.78 1.112.78 1.896 0 .64-.18 1.176-.54 1.608-.352.432-.864.72-1.536.864l2.112 3.384h-1.872Zm-2.724-4.464h1.392c.968 0 1.452-.428 1.452-1.284 0-.408-.12-.724-.36-.948-.232-.232-.596-.348-1.092-.348h-1.392v2.58Zm12.859 1.853a2.32 2.32 0 0 1-.275 1.212c-.201.369-.509.674-.923.915-.415.233-.926.362-1.534.386-.599.025-1.139-.053-1.619-.234a2.816 2.816 0 0 1-1.175-.841 2.575 2.575 0 0 1-.534-1.323l1.799-.073c.054.342.201.624.442.846.249.214.57.313.961.297.352-.014.616-.117.792-.308.184-.2.27-.447.258-.743-.01-.264-.095-.477-.254-.638a1.615 1.615 0 0 0-.592-.396 10.58 10.58 0 0 0-.974-.321 10.193 10.193 0 0 1-1.316-.463 2.5 2.5 0 0 1-.894-.72c-.245-.319-.379-.742-.4-1.269-.03-.727.207-1.31.709-1.746.511-.446 1.198-.686 2.061-.721.895-.036 1.615.151 2.16.561.554.41.881.973.982 1.689l-1.823.075a1.242 1.242 0 0 0-.413-.728c-.216-.192-.504-.28-.864-.265-.312.012-.56.106-.745.282-.185.168-.272.408-.259.719.01.248.09.453.241.615.159.154.352.278.58.373.236.094.552.197.949.309.552.17.998.332 1.341.486.351.154.653.394.906.72.253.326.391.761.413 1.304Zm4.165-5.161.196 2.187 2.988-.267.115 1.291-2.988.267.204 2.271 3.346-.3.121 1.351-5.031.451-.756-8.438 5.031-.451.12 1.338-3.346.3Z" fill="#FBFBFB"/><path d="M181.287 167.111a224.345 224.345 0 0 0 49.248.771" stroke="#FBFBFB" stroke-width="3" stroke-miterlimit="10"/><path d="M226.344 76.825c-1.814 6.096-4.073 7.892-8.69 9.788l-21.771 9.07c-6.423-6.948-7.702-10.159-7.702-19.602a13.608 13.608 0 0 1 .844-10.25 3.114 3.114 0 0 0-2.277 1.442c2.721-12.038 11.194-10.078 11.194-10.078a9.648 9.648 0 0 1 7.402-5.09 6.74 6.74 0 0 0-.907 1.942 22.68 22.68 0 0 1 19.739 3.148h-4.536c9.153 4.109 11.766 14.05 6.704 19.63Z" fill="#193B59"/><path d="M214.234 113.799c0 4.427-4.726 6.35-9.733 6.35-7.303 0-10.886-6.05-10.886-8.518l2.658-30.144 15.539 3.139c-.227 2.24 1.742 22.46 2.422 29.173Z" fill="#E7B7B7"/><path d="m212.465 95.03-12.582-1.215s.589 10.078 13.507 11.412l-.925-10.197Z" fill="#7A1F0C"/><path d="M222.571 70.874c3.012 4.78.98 7.384.98 12.146 0 5.108 1.96 12.365-2.141 16.147-4.245 3.91-14.069 4.1-20.791-4.381-6.722-8.482-5.243-22.85 2.132-26.543 6.313-3.147 15.657-3.991 19.82 2.63Z" fill="#E7B7B7"/><path d="M225.511 76.825c-5.443.752-11.856.39-14.605-6.15-.344 3.628-3.32 4.889-6.431 5.215-5.352 2.576-4.481 9.398-6.35 9.398-1.071 0-.98-4.536-1.905-6.06-3.828-6.086-1.56-12.418 5.071-15.357 6.631-2.94 14.868-3.874 19.485 0 4.617 3.873 4.735 12.954 4.735 12.954Z" fill="#193B59"/><path d="M218.408 90.386c2.341 0 2.803-.472 3.166-1.08.236-.39 0-1.133-.472-2.784a35.353 35.353 0 0 1-.907-3.629.26.26 0 0 0-.21-.22.262.262 0 0 0-.107.002.26.26 0 0 0-.216.204.246.246 0 0 0-.002.105 33.28 33.28 0 0 0 .907 3.628 9.8 9.8 0 0 1 .553 2.313c-.254.418-.508.853-2.721.853a.272.272 0 0 0 0 .544l.009.064Z" fill="#7A1F0C"/><path d="M203.068 84.309a2.613 2.613 0 1 0 3.628-1.38 2.766 2.766 0 0 0-3.628 1.38Z" fill="#E3A2A2"/><path d="M213.836 80.671c0 .998.472 1.814 1.052 1.814.581 0 1.062-.807 1.062-1.814 0-1.007-.481-1.814-1.062-1.814-.58 0-1.052.825-1.052 1.814Zm2.966-3.284c-.217.753-2.104-.599-3.211-.49-1.887.19-1.959 1.134-2.649.962-.09-.907 1.116-1.969 2.722-2.078a2.955 2.955 0 0 1 3.138 1.606Zm4.907 4.064c0 .826.39 1.488.907 1.488s.907-.662.907-1.488c0-.825-.39-1.488-.907-1.488s-.907.663-.907 1.488Zm-.426-2.985c0 .59 1.588 0 2.277.282 1.143.508 1.179 1.424 1.497 1.288a1.816 1.816 0 0 0-1.243-2.096 2.23 2.23 0 0 0-2.531.526Z" fill="#193B59"/><path d="M212.594 90.966a13.368 13.368 0 0 0 5.234 2.849s-2.349 2.44-4.245 2.113c-1.896-.326-.989-4.962-.989-4.962Z" fill="#7A1F0C"/><path d="M212.385 93.044c0 1.279.181 2.721 1.197 2.885a3.692 3.692 0 0 0 2.377-.644 4.535 4.535 0 0 0-3.574-2.241Z" fill="#BF504C"/><path d="M196.237 79.229a3.736 3.736 0 0 0-6.576 1.36c-.608 2.105 0 8.065 5.996 7.666 0 0 1.959-7.23.58-9.026Z" fill="#E7B7B7"/><path d="M195.412 84.916h-.082a.321.321 0 0 1-.236-.39c.39-1.578 0-3.256-.961-3.91a1.55 1.55 0 0 0-1.824.118.325.325 0 0 1-.502-.2.336.336 0 0 1 .049-.246.326.326 0 0 1 .091-.089 2.182 2.182 0 0 1 2.603-.127c1.161.807 1.678 2.721 1.225 4.6a.33.33 0 0 1-.363.244Z" fill="#7A1F0C"/><path d="M205.036 85.551h14.051a4.69 4.69 0 0 0 4.69-4.69v-2.34a4.69 4.69 0 0 0-4.69-4.69h-14.051a4.69 4.69 0 0 0-4.69 4.69v2.34c0 2.59 2.1 4.69 4.69 4.69Z" fill="#FBFBFB"/><path d="M209.718 85.551h14.051c2.59 0 4.69-2.1 4.69-4.69v-2.34c0-2.59-2.1-4.69-4.69-4.69h-14.051a4.69 4.69 0 0 0-4.69 4.69v2.34c0 2.59 2.1 4.69 4.69 4.69Z" fill="#E58A45"/><path d="M227.289 80.87v-2.35a3.51 3.51 0 0 0-3.511-3.51h-14.069a3.51 3.51 0 0 0-3.511 3.51v2.35a3.51 3.51 0 0 0 3.511 3.51h14.069a3.51 3.51 0 0 0 3.511-3.51Zm-39.516-.2h14.959v-3.845h-14.051a.908.908 0 0 0-.908.907v2.939Z" fill="#FBFBFB"/><path d="m224.866 88.154 1.673-.962-11.389-19.816-1.673.961 11.389 19.817Zm-6.337 4.674 3.143-1.814-11.389-19.726-3.142 1.814 11.388 19.726Z" opacity=".35" fill="#111"/><path d="M214.988 80.28h3.511a.588.588 0 0 0 .589-.58.591.591 0 0 0-.589-.59h-3.511a.591.591 0 0 0-.59.59.594.594 0 0 0 .59.58Z" fill="#E58A45"/><path d="M193.59 88.826c3.256 0 5.896-2.843 5.896-6.35 0-3.507-2.64-6.35-5.896-6.35-3.257 0-5.897 2.843-5.897 6.35 0 3.507 2.64 6.35 5.897 6.35Z" fill="#FBFBFB"/><path d="M191.775 88.826c3.257 0 5.897-2.843 5.897-6.35 0-3.507-2.64-6.35-5.897-6.35-3.256 0-5.896 2.843-5.896 6.35 0 3.507 2.64 6.35 5.896 6.35Z" fill="#FBFBFB" stroke="#E58A45" stroke-width=".75" stroke-miterlimit="10"/><path d="M191.774 85.188c1.252 0 2.267-1.218 2.267-2.721 0-1.503-1.015-2.721-2.267-2.721-1.253 0-2.268 1.218-2.268 2.721 0 1.503 1.015 2.721 2.268 2.721Z" stroke="#E58A45" stroke-width=".75" stroke-miterlimit="10"/><path d="M149.674 158.258c-9.307-3.729-5.606-28.312 19.793-68.516L178.248 97c-15.874 32.076-8.726 69.196-28.574 61.259Z" fill="#E7B7B7"/><path d="M169.451 89.742s7.357-7.892 8.972-9.38c1.097-1.007 5.642-3.791 8.227-4.281 2.413-.454 8.609-1.343 8.872-.69.907 2.096-1.442 2.032-1.442 2.032a1.262 1.262 0 0 1-.49 1.325c-.715.247-1.459.4-2.214.453 0 0 .762.907.064 1.597-.862.843-4.808.145-7.112 1.86a3.36 3.36 0 0 0-1.157 2.54 3.36 3.36 0 0 0 1.157 2.54 4.127 4.127 0 0 0 4.109.534s4.218-.58 4.872.826c.653 1.406-3.801 2.023-3.801 2.023s-5.516.907-5.751 1.025c-1.815.816-5.498 4.817-5.498 4.817l-8.808-7.221Z" fill="#E7B7B7"/><path d="M191.402 79.201c-.517-.408-4.481-.2-5.252-.136a17.876 17.876 0 0 0-4.726 1.67m12.699-3.312a.78.78 0 0 0-.68-.598c-.254 0-4.472.163-5.579.3a26.07 26.07 0 0 0-6.903 2.575m4.998 2.168s-3.383 2.068-3.51 2.277c-.127.209-.907 2.404-1.243 2.975-.336.572.29 2.25-1.597 4.817" stroke="#7A1F0C" stroke-width=".59" stroke-linecap="round" stroke-linejoin="round"/><path opacity=".4" d="M111.177 127.968v45.874a3.632 3.632 0 0 1-2.268 3.365c-14.015 5.642-22.806 13.761-22.806 22.787v-53.756c0-8.391 7.602-16.011 19.957-21.572a3.639 3.639 0 0 1 1.761-.309 3.638 3.638 0 0 1 2.912 1.879c.29.532.442 1.127.444 1.732Z" fill="#111"/><path d="M154.146 197.835v12.945a3.636 3.636 0 0 1-1.111 2.615 3.616 3.616 0 0 1-2.654 1.013c-14.006-.489-26.86-2.803-37.319-6.404a3.623 3.623 0 0 1-2.458-3.438v-12.555a3.63 3.63 0 0 1 3.043-3.578 3.636 3.636 0 0 1 1.683.122 133.517 133.517 0 0 0 35.323 5.661 3.626 3.626 0 0 1 3.493 3.619Z" fill="#2ECC82"/><path opacity=".6" d="M185.906 178.495v46.382a3.626 3.626 0 0 1-2.976 3.574 148.45 148.45 0 0 1-26.978 2.385c-38.58 0-69.849-13.806-69.849-30.842v-53.756c0 17.036 31.269 30.842 69.849 30.842a149.03 149.03 0 0 0 25.681-2.15 3.636 3.636 0 0 1 3.929 2.03c.226.481.343 1.005.344 1.535Z" fill="#111"/><path d="M155.952 177.08c-38.58 0-69.849-13.806-69.849-30.842v9.071c0 17.036 31.269 30.842 69.849 30.842 10.054.04 20.086-.957 29.936-2.975v-4.681a3.64 3.64 0 0 0-1.304-2.78 3.64 3.64 0 0 0-2.969-.785 149.12 149.12 0 0 1-25.663 2.15Z" fill="#111"/><path d="M126.471 198.851v6.486a.897.897 0 0 0 .388.748.906.906 0 0 0 .836.105l6.296-2.313a.908.908 0 0 0 .19-1.606l-6.35-4.173a.903.903 0 0 0-.893-.008.913.913 0 0 0-.467.761Z" fill="#FBFBFB"/><path d="M98.64 208.548c12.628 7.992 33.564 13.217 57.313 13.217 3.755 0 7.426-.13 11.012-.39" stroke="#FBFBFB" stroke-width="2" stroke-linecap="round" stroke-linejoin="round"/><path d="M98.64 208.548c9.444 5.978 23.586 10.405 39.987 12.265" stroke="#2ECC82" stroke-width="2" stroke-linecap="round" stroke-linejoin="round"/><path d="M138.626 223.534a2.72 2.72 0 1 0 0-5.441 2.72 2.72 0 0 0 0 5.441Z" fill="#2ECC82"/><path opacity=".6" d="M141.339 220.813a2.724 2.724 0 0 1-2.43 2.702 2.722 2.722 0 0 1-2.95-2.121c-15.239-1.996-28.592-6.251-37.8-12.083a.908.908 0 0 1 .962-1.524c8.99 5.687 22.089 9.851 37.065 11.792a2.724 2.724 0 0 1 4.563-.469c.38.48.588 1.073.59 1.685v.018Z" fill="#111"/><path d="M180.517 177.87v3.556c-1.197.208-2.404.399-3.628.571v-3.583a81.967 81.967 0 0 0 3.628-.544Zm-7.258.998v3.628c-1.197.136-2.404.254-3.628.363v-3.628a170.64 170.64 0 0 0 3.628-.363Zm-7.255.625v3.629c-1.207.081-2.413.145-3.629.199v-3.628c1.206-.082 2.413-.082 3.629-.2Z" fill="#2ECC82"/><path d="M180.517 177.87v3.556c-1.197.208-2.404.399-3.628.571v-3.583a81.967 81.967 0 0 0 3.628-.544Zm-7.256.998v3.628c-1.197.136-2.404.254-3.628.363v-3.628a170.64 170.64 0 0 0 3.628-.363Zm-7.257.626v3.628c-1.207.082-2.413.145-3.629.2v-3.629c1.206-.081 2.413-.081 3.629-.199Z" opacity=".6" fill="#111"/><path d="M105.47 137.103a2.301 2.301 0 0 1-2.908 1.938 2.305 2.305 0 0 1 .622-4.523 2.45 2.45 0 0 1 2.286 2.585Z" fill="#FBFBFB"/><path opacity=".6" d="M105.47 146.238a2.298 2.298 0 0 1-1.604 1.919 2.304 2.304 0 1 1-.682-4.505 2.453 2.453 0 0 1 2.286 2.586Z" fill="#2ECC82"/><path d="M103.184 157.967c1.263 0 2.286-1.157 2.286-2.585s-1.023-2.586-2.286-2.586c-1.262 0-2.286 1.158-2.286 2.586s1.024 2.585 2.286 2.585Z" fill="#2ECC82"/></svg>