<svg width="128" height="91" fill="none" xmlns="http://www.w3.org/2000/svg"><g clip-path="url(#a)"><path d="m84.493 79.992-38.097.09c-1.66 0-3.324 0-5 .04-.924-.25-.904-1.08-1.08-1.784-1.219-4.787-4.999-8.11-9.383-8.21-5.225-.115-8.715 2.448-10.37 7.575-.275.844-.275 1.834-1.13 2.419-5.074 0-10.149-.095-15.223 0-1.675 0-2.125-.545-2.12-2.15.04-21.616.04-43.233 0-64.85 0-1.739.5-2.259 2.26-2.254 25.961.047 51.924.047 77.889 0 1.914 0 2.5.59 2.33 2.414-.14 1.4-.066 2.823-.08 4.237-1.35 1.16-3 .855-4.545.855-21.972.02-43.945.02-65.92 0a17.51 17.51 0 0 0-3.235.14c-.625.115-1.13.385-1.06 1.13.06.599.535.794 1.045.894a17.51 17.51 0 0 0 3.235.14h65.92c1.55 0 3.195-.31 4.55.839l.054 4.357c.76 1 .785 2.164.785 3.333v36.188c0 3.813-.5 4.248-4.394 4.253H50.2c-1 0-2-.13-2.95.26-1.335.9-1.35 1.899-.225 2.998.955.5 1.97.305 2.955.305h30.67c4.66.03 5.994 2.388 3.844 6.78Z" fill="#2ECC82"/><path d="M127.88 73.585c.345 6.497.345 6.497-6.164 6.497-2.22 0-4.44.025-6.66.04-.97-.725-.935-1.904-1.275-2.899-1.66-4.867-5.194-7.285-10.454-7.095-4.135.154-8.034 3.563-9.11 7.95-.189.774-.094 1.719-1.114 2.044l-4.115-.125c-.94-.925-.835-2.134-.835-3.278-.03-15.787-.03-31.571 0-47.352 0-1.15-.08-2.353.84-3.283 6 0 11.964 0 17.949-.1a2.5 2.5 0 0 1 2.425 1.334c1.47 2.409 3 4.773 4.499 7.156-.999 1.035-2.299.815-3.499.83-4.405.045-8.81 0-13.21.03-2.61.03-2.794.234-2.83 2.893-.064 4.232.07 8.465-.08 12.697.08 2.094 1.536 2.224 3.13 2.224h25.059c1.389 0 2.839-.16 3.999.91a5.724 5.724 0 0 1 1.575 4.462c-.125 3.602-.075 7.205-.095 10.813-1.195 1.264-2.765.735-4.189.855a17.176 17.176 0 0 0-2.21.124c-.61.125-1.065.405-1.065 1.13 0 .724.465 1 1.08 1.114 1.22.21 2.46.055 3.684.135.965.07 1.995-.065 2.665.894Z" fill="#126F43"/><path d="M93.103 80.126c.456-2.438.896-4.872 2.63-6.835 3.1-3.498 6.955-4.772 11.424-3.498 5.075 1.469 7.41 5.237 7.9 10.319-.445 4.997-2.73 8.714-7.655 10.288-4.464 1.43-8.344.195-11.524-3.238-1.845-1.974-2.335-4.492-2.775-7.036Zm-73.653-.004c.684-5.767 3.999-9.764 8.849-10.624a11.033 11.033 0 0 1 11.953 6.086c.715 1.46.64 3.063 1.165 4.538-.5 3.777-1.844 7.055-5.22 9.179-6.604 4.153-16.148.35-16.748-9.18Z" fill="#353535"/><path d="M84.488 21.532H11.14c-1.155 0-2.555.46-2.62-1.634-.055-1.834.5-2.453 2.38-2.433 9.56.084 19.124.034 28.688.04h44.911l-.01 4.027Z" fill="#126F43"/><path d="M126.42 54.072c-10.074 0-20.148-.075-30.218.08-2.6.04-3.24-.9-2.75-3.173 1.535-1.499 3.645-1.884 5.43-2.898a55.525 55.525 0 0 0 13.059-10.154c.795-.844 1.445-2.104 2.97-1.889l11.509 18.034Z" fill="#B1B1B1"/><path d="M88.988 26.09v53.912c-1.5.5-3 .3-4.5 0 0-6.047 0-6.047-6.179-6.047H48.101c-.87 0-1.855.34-2.58-.5 1.195-1.029 2.66-.804 4.05-.809 9.963-.02 19.929-.02 29.898 0 .912.042 1.826-.002 2.73-.13.605-.11 1.155-.31 1.13-1.07-.025-.759-.595-.914-1.195-.999a16.117 16.117 0 0 0-2.735-.115H50c-1.37 0-2.86.305-4-.864.86-.765 1.91-.43 2.87-.43 11.044 0 22.089-.06 33.133.025 2 0 2.534-.57 2.5-2.533-.066-13.522 0-27.049 0-40.57l4.484.13Z" fill="#126F43"/><path d="M114.911 36.038c-4.025 3.498-7.465 7.706-12.164 10.434-3 1.739-5.83 3.768-9.294 4.497-.025-4.822 0-9.644-.1-14.466-.03-1.574.58-1.969 2.05-1.959 6.159.03 12.313-.04 18.473-.075l1.035 1.57Z" fill="#DFDFDF"/><path d="M23.893 4.532c-4.324 0-8.644-.06-12.963.03-1.91.04-2.395-.784-2.425-2.543C8.475.259 9.35.02 10.805.02c8.644.045 17.283.06 25.928 0 1.664 0 2.324.395 2.354 2.204 0 1.938-.69 2.388-2.5 2.338-4.22-.105-8.459-.03-12.694-.03Z" fill="#DADADA"/><path d="M127.881 73.585c-2.245 0-4.5-.124-6.739 0-1.795.08-1.735-.999-1.77-2.233-.035-1.234.275-1.999 1.79-1.954 2.239.09 4.499 0 6.739 0-.005 1.364-.015 2.773-.02 4.188Z" fill="#D9D9D9"/><path d="M4.49 2.014c.3 2.054-.685 2.528-2.435 2.563C.305 4.612.02 3.857 0 2.35 0 .719.35-.105 2.195.015 3.69.11 4.985.075 4.49 2.014Z" fill="#DADADA"/><path d="M46.006 69.398c12.049 0 24.098.012 36.147.035 1.35 0 2.38 0 2.395 1.884.015 1.884-.755 2.179-2.38 2.174-12.214-.06-24.428-.045-36.642-.055.195-1.345-.485-2.789.48-4.038ZM8.82 73.476c-1.405 0-2.82-.085-4.214 0-1.65.124-2.14-.545-2.135-2.144.005-1.6.63-1.999 2.075-1.944 2.894.075 5.79.095 8.684 0 1.67-.055 1.86.8 1.86 2.144s-.33 1.999-1.805 1.944c-1.475-.055-2.98 0-4.465 0Z" fill="#126F43"/><path d="M104.261 78.003c2.12-.5 2.035.81 2.14 2.254.15 2.123-1.06 2.058-2.595 2.168-2.22.155-1.725-1.29-1.865-2.543-.225-1.994.885-2.164 2.32-1.88Zm-71.763 1.749c.16 1.609.205 2.768-1.875 2.678-1.645-.07-2.6-.23-2.53-2.249.06-1.608.32-2.453 2.165-2.273 1.365.135 2.88-.16 2.24 1.844Z" fill="#D0D3D6"/></g><defs><clipPath id="a"><path fill="#fff" d="M0 0h128v91H0z"/></clipPath></defs></svg>