<svg width="178" height="139" fill="none" xmlns="http://www.w3.org/2000/svg"><path d="M177.141 2.627H80.423v45.73h96.718V2.628Z" fill="#E6E6E6"/><path d="M174.25 6.57H83.314v38.372h90.936V6.57Z" fill="#fff"/><path d="M177.141 0H80.423v4.205h96.718V0Z" fill="#2ECC82"/><path d="M83.576 3.153a.788.788 0 1 0 0-1.577.788.788 0 0 0 0 1.577Zm2.892 0a.788.788 0 1 0 0-1.577.788.788 0 0 0 0 1.577Zm2.891 0a.788.788 0 1 0 0-1.577.788.788 0 0 0 0 1.577Z" fill="#fff"/><path d="M152.962 12.879h-15.244v25.756h15.244V12.88Z" fill="#F2F2F2"/><path d="M135.352 12.879h-30.487v7.096h30.487V12.88Z" fill="#2ECC82"/><path d="M135.352 21.814h-30.487v7.622h30.487v-7.622Zm0 9.727h-30.487v7.096h30.487v-7.096Z" fill="#F2F2F2"/><path d="M58.137 74.142a4.697 4.697 0 0 0-5.201-4.694 4.533 4.533 0 0 0-.617.113l-15.891-13.62.95-5.12-7.833-2.538-2.362 8.203a4.758 4.758 0 0 0 2.019 5.31L48.75 74.16c0 .154.008.308.024.46a4.694 4.694 0 0 0 5.7 4.075c.188-.041.373-.095.554-.16a4.71 4.71 0 0 0 3.108-4.393Z" fill="#9F616A"/><path d="M18.63 89.94h20.488c0 .588 21.117 1.066 21.117 1.066.331.25.633.536.9.854a5.296 5.296 0 0 1 1.238 3.414v.854a5.336 5.336 0 0 1-5.334 5.334h-38.41a5.336 5.336 0 0 1-5.334-5.334v-.854a5.342 5.342 0 0 1 5.335-5.335Z" fill="#3F3D56"/><path d="M40.917 101.25h-5.548v35.848h5.548V101.25Z" fill="#3F3D56"/><path d="M56.707 137.545c0 .671-8.407.259-18.778.259-10.37 0-18.778.412-18.778-.259 0-.672 8.407-5.994 18.778-5.994 10.37 0 18.778 5.322 18.778 5.994Z" fill="#3F3D56"/><path d="M51.698 132.701h5.232l2.49-13.57h-7.723l.001 13.57Z" fill="#9F616A"/><path d="m50.364 137.773 16.87-.001v-.213a6.562 6.562 0 0 0-4.053-6.067c-.797-.33-1.65-.5-2.513-.5l-10.304.001v6.78Z" fill="#2F2E41"/><path d="m59.524 124.289 10.43-23.39a8.571 8.571 0 0 0-3.763-11.004L43.566 77.763l-10.324-.878-9.523-.866-.068.117c-.088.148-2.136 3.685-.752 7.563 1.05 2.941 3.781 5.239 8.117 6.829 10.12 3.71 21.812 6.882 26.368 8.073a1.473 1.473 0 0 1 .944.752 1.491 1.491 0 0 1 .084 1.194l-9.69 21.771a1.925 1.925 0 0 0 .799 2.299c.25.153.533.247.826.274l7.24.528a1.917 1.917 0 0 0 1.936-1.13Z" fill="#CBCBCB"/><path d="M48.284 132.701h5.232l2.49-13.57h-7.723l.001 13.57Z" fill="#9F616A"/><path d="m46.95 137.773 16.87-.001v-.213a6.562 6.562 0 0 0-4.053-6.067 6.56 6.56 0 0 0-2.512-.5h-.001l-10.304.001v6.78Z" fill="#2F2E41"/><path d="m55.683 125.568 10.43-23.391a8.57 8.57 0 0 0-3.763-11.004L39.727 79.041l-10.324-.878-7.459-.647.001-.102c-.088.148-2.135 3.685-.751 7.563 1.05 2.942 1.647 5.24 5.982 6.83 10.121 3.71 21.812 6.882 26.369 8.073a1.478 1.478 0 0 1 1.11 1.339 1.49 1.49 0 0 1-.083.606l-9.69 21.772a1.919 1.919 0 0 0 1.626 2.573l7.24.527a1.918 1.918 0 0 0 1.936-1.129Z" fill="#CBCBCB"/><path d="M36.026 77.943c.5-.354 7.682 3.414 8.962.427-5.975-14.937-1.857-21.387-5.517-29.953a10.666 10.666 0 0 0-7.07-6.051l-9.496-.48-.049.024a11.098 11.098 0 0 0-6.068 11.774c.034 9.322 5.611 16.432 3.66 23.193a2.185 2.185 0 0 0 .207 1.7 2.084 2.084 0 0 0 1.33.986l12.538-1.673a2.12 2.12 0 0 0 1.714-.331l-.21.384Z" fill="#2F2E41"/><path d="M26.074 38.339c5.79 0 10.482-4.693 10.482-10.482 0-5.79-4.693-10.482-10.482-10.482s-10.482 4.693-10.482 10.482 4.693 10.482 10.482 10.482Z" fill="#9F616A"/><path d="M22.735 37.48c.557.243 1.698-4.195 1.187-5.082-.76-1.32-.715-1.31-1.22-2.184-.504-.873-.617-2.069.036-2.837.654-.768 2.165-.666 2.463.297-.192-1.83 1.618-3.3 3.411-3.714 1.793-.413 3.684-.157 5.487-.525 2.092-.427 4.269-2.18 3.434-4.481a3.24 3.24 0 0 0-.632-1.039c-.964-1.084-2.313-1.547-3.632-1.995-2.745-.931-5.564-1.874-8.46-1.772-4.758.17-9.256 3.459-10.86 7.942-.2.56-.354 1.134-.462 1.718-.994 5.345 2.11 10.617 7.151 12.653l2.097 1.018Z" fill="#2F2E41"/><path d="m77.704 54.333 1.202 7.137a.44.44 0 0 1-.025.237l-9.43 23.562a.44.44 0 0 1-.847-.144l-.4-9.47a.438.438 0 0 1 .032-.183l8.628-21.231a.439.439 0 0 1 .84.092Z" fill="#3F3D56"/><path d="m77.036 54.885 1.143 6.131-8.369 21.502-1.086-6.917 8.312-20.716Z" fill="#2ECC82"/><path d="M40.423 85.163c.206.804 27.239 1.674 27.52 1.431.25-.311.469-.648.65-1.006.283-.506.545-1.013.545-1.013l-.444-8.55-26.63-2.845s-1.178 7.134-1.548 10.412a7.874 7.874 0 0 0-.093 1.572Z" fill="#3F3D56"/><path opacity=".1" d="m65.21 76.927.002 7.366-11.778-.838.52-7.328 11.255.8Zm-15.348 1.28.071-.01-.556 3.132-6.544-.465.224-3.141 6.805.484Zm-9.439 6.955c.206.803 27.239 1.673 27.52 1.43.25-.311.469-.648.65-1.006L40.515 83.59a7.876 7.876 0 0 0-.093 1.572Z" fill="#000"/><path d="m29.568 72.396 22.803 4.255c.057.143.122.283.193.42a4.705 4.705 0 0 0 4.987 2.423 4.657 4.657 0 0 0 1.818-.751 4.695 4.695 0 0 0-4.856-8.02 4.55 4.55 0 0 0-.53.335l-19.807-6.766-1.014-5.107-8.216.544.852 8.56a4.67 4.67 0 0 0 3.77 4.107Z" fill="#9F616A"/><path d="m24.668 63.546 11.938-3.924-2.785-7.996a4.766 4.766 0 0 0-5.284-3.133 4.767 4.767 0 0 0-3.982 4.754l.113 10.299Z" fill="#2F2E41"/><path d="M100.398 138.192H.263a.264.264 0 0 1-.263-.263.262.262 0 0 1 .263-.263h100.135a.263.263 0 0 1 0 .526Z" fill="#CBCBCB"/><path d="M119.375 129.963c4.803 2.486 6.938 7.898 6.938 7.898s-5.651 1.382-10.454-1.104c-4.803-2.485-6.938-7.897-6.938-7.897s5.651-1.382 10.454 1.103Z" fill="#2ECC82"/><path d="M117.839 131.752c2.866 4.586 8.433 6.277 8.433 6.277s.92-5.745-1.946-10.331c-2.866-4.586-8.433-6.276-8.433-6.276s-.92 5.745 1.946 10.33Z" fill="#2ECC82"/><path d="M135.09 138.139h-29.962a.263.263 0 0 1 0-.526h29.962a.263.263 0 0 1 0 .526Z" fill="#CBCBCB"/></svg>