<svg xmlns="http://www.w3.org/2000/svg" width="99" height="79" fill="none"><path fill="#FEFEFE" d="M1.682 78.528C.566 78.26.114 77.474.02 76.408c-.028-.35-.018-.702-.018-1.056V16.55c0-.386.043-.774.068-1.163.533-.436 1.176-.373 1.797-.376H95.79c.805 0 1.655-.176 2.382.373a175.46 175.46 0 0 1 0 11.285c-.874.401-1.774.063-2.646.022-2.74-.125-4.906 1.047-6.896 2.755-1.15.997-2.245 2.06-3.449 2.979a3.01 3.01 0 0 1-1.103.627c-.605-.113-.734-.662-.94-1.098-2.1-4.147-6.424-6.41-11.5-5.601-4.523.72-7.908 4.388-8.595 9.056-.066.43-.09.862-.432 1.182-4.483 1.947-6.606 5.834-8.33 10.069-1.254 3.103-2.326 6.292-3.88 9.27-.465.89-.847 1.85-1.684 2.508-.546.275-1.138.24-1.721.244h-6.793c-1.671 0-1.95.298-1.975 2.003v2.577c-.022 1.665-.094 1.746-1.712 1.984-.191.029-.376.107-.567.141-1.56.125-3.127.15-4.69.076-.887 0-1.229-.527-1.254-1.355-.053-1.21.056-2.423-.081-3.63-.167-1.467-.464-1.768-1.916-1.774-6.019-.025-12.035-.025-18.05 0-1.65 0-1.966.348-1.972 2.04-.019 5.12 0 10.236 0 15.361 0 .47 0 .94-.019 1.408-.028.818-.385 1.166-1.254 1.116-1.677-.107-3.354.075-5.031-.1Z"/><path fill="#0FAA61" d="M98.175 15.386H.074c0-4.26-.044-8.517-.025-12.778C.049 1.21.936.395 2.34.33h93.571c1.405.066 2.286.878 2.293 2.28.015 4.26-.016 8.517-.029 12.777Z"/><path fill="#2ECC82" d="M84.028 32.96c1.592-1.36 3.194-2.712 4.774-4.076 2.74-2.376 5.887-2.984 9.364-2.194 0 1.135.034 2.266.034 3.398v45.386c0 2.587-.677 3.27-3.244 3.264-1.445 0-2.894-.025-4.339-.038-.46-.533-.338-1.185-.341-1.796V61.07c0-2.104-.248-2.348-2.373-2.351H71.014c-2.473 0-2.724.228-2.737 2.77-.028 5.28 0 10.559 0 15.835 0 .464.085.94-.128 1.386h-7.775c-.46-.53-.341-1.182-.341-1.794v-15.58c0-2.508-.097-2.611-2.665-2.614-2.342 0-4.702.019-7.028-.016-.546 0-1.204.132-1.48-.599 2.308-3.608 3.583-7.68 5.213-11.599.94-2.27 1.982-4.476 3.527-6.43a11.176 11.176 0 0 1 4.934-3.595c.728.784.505 1.762.555 2.684-.338 2.457-.09 4.815 1.094 7.047 1.934 3.633 6.477 6.15 10.308 5.67 4.743-.589 8.498-3.79 9.595-8.103.254-.997-.028-2.038.364-3.006.15-.194.392-.245.586-.367.796-.495.806-1.066.022-1.614-.254-.176-.573-.264-.699-.593-.075-1.765-.483-3.486-.332-5.241Z"/><path fill="#0FAA61" d="M1.682 78.528c1.52 0 3.044-.085 4.561 0 1.044.05 1.401-.226 1.389-1.342-.06-5.658-.028-11.314-.025-16.972 0-1.423.435-1.88 1.88-1.88H28.45c1.05 0 1.618.313 1.771 1.488.192 1.445.1 2.878.107 4.314 0 .758.241 1.09.994 1.031-.627.83-.608 1.796-.602 2.771 0 3.041.015 6.082 0 9.123 0 .598.119 1.282-.599 1.64l-27.546.043c-.313-.019-.64.031-.893-.216Zm66.452.153c-.285-.42-.216-.9-.216-1.363V61.15c-.008-.35.01-.702.056-1.05.25-1.627.42-1.765 2.12-1.765h18.391c1.881 0 2.157.314 2.157 2.195l-.028 18.16-22.48-.01ZM48.836 58.076c.333.404.796.25 1.204.254 2.894.013 5.788.013 8.68 0 1.013 0 1.68.345 1.678 1.464 0 6.295-.013 12.588-.038 18.881H37.89c-.468-.47-.386-1.078-.39-1.649 0-3.028-.05-6.056.02-9.09.028-1.311 0-2.452-1.546-2.857.031-.025.056-.062.09-.072 1.797-.426 1.797-.426 1.797-2.398v-2.46c0-1.474.376-1.835 1.881-1.835h7.73c.477.007.957.075 1.364-.238Z"/><path fill="#2ECC82" d="M35.961 65.089c1.881.084 1.881.084 1.881 1.987 0 3.869.014 7.735.041 11.6h-7.774c.282-.418.213-.894.213-1.355 0-3.574.028-7.148-.019-10.721 0-.812.172-1.32 1.012-1.458l4.646-.053Z"/><path fill="#0FAA61" d="M62.758 39.248c-.084-.928-.166-1.857-.248-2.787.195-.94.314-1.928.596-2.852 1.291-4.198 5.113-7.352 9.27-7.68 4.893-.393 8.996 1.827 11.116 6.009.172.341.357.68.536 1.022.517 1.75.695 3.584.523 5.401-.436.696-.652 1.423-.313 2.232-.204.919-.492 1.79-1.308 2.373-1.567.389-1.567.389-1.526 1.847-.558 1.188-1.702 1.699-2.762 2.222a11.392 11.392 0 0 1-15.12-4.99c-.463-.888-.573-1.847-.764-2.797Z"/><path fill="#2ECC82" d="M28.6 46.822h15.596c1.881 0 2.79.912 2.822 2.802.019 2.233-.806 3.26-2.727 3.264-10.477.013-20.953.013-31.427 0-1.837 0-2.668-.912-2.684-2.778-.022-2.664.609-3.291 3.31-3.291l15.11.003Zm-5.034-5.64H12.09c-.35.02-.7-.003-1.044-.072a1.091 1.091 0 0 1-.869-1.22 1.031 1.031 0 0 1 1.047-1.04c.232-.019.467 0 .703 0h23.771c.727 0 1.21.292 1.254 1.069.05.843-.458 1.235-1.213 1.254-1.442.044-2.887 0-4.332 0-2.607.01-5.22.014-7.84.01Z"/><path fill="#0FAA61" d="M20.62 36.546h-8.907c-.818 0-1.545-.12-1.523-1.144.022-1.025.77-1.198 1.567-1.198a3874.74 3874.74 0 0 1 18.041 0c.79 0 1.527.245 1.527 1.232 0 1.038-.759 1.11-1.568 1.107-3.047-.003-6.094.003-9.138.003Z"/><path fill="#2ECC82" d="M19.66 23.141h-7.837c-.85 0-1.646-.106-1.646-1.175 0-1.07.793-1.179 1.643-1.176h15.812c.878 0 1.624.176 1.59 1.235-.035.988-.769 1.126-1.587 1.123-2.646-.007-5.307-.007-7.975-.007Z"/><path fill="#0FAA61" d="M12.579 31.104h-1.286a1.052 1.052 0 0 1-1.119-1.085 1.003 1.003 0 0 1 .88-1.182 10.659 10.659 0 0 1 3.249 0c.601.1.896.577.837 1.217a1.026 1.026 0 0 1-1.047 1.034c-.505.041-1.016.016-1.514.016Z"/><path fill="#2ECC82" d="m58.504 4.843 30.793.032c2.217 0 2.32.103 2.323 2.3 0 3.584.367 3.502-3.483 3.493-8.702-.019-17.405-.019-26.11 0-.467 0-.94.034-1.401.056-.407-.642-.627-1.401-1.194-1.946a.627.627 0 0 1-.192-.533c.276-1.254-.3-2.31-.736-3.402Z"/><path fill="#FEFEFE" d="M58.504 4.843c.859.828 1.386 1.762.99 3.004-.153.489.095.843.449 1.116a1.8 1.8 0 0 1 .683 1.758c-.752.94-1.285 1.028-2.081.235-.536-.533-1.004-.78-1.825-.608-1.326.276-2.705-.668-3.222-1.984a3.172 3.172 0 0 1 1.03-3.668c1.16-.887 2.606-.834 3.976.147Z"/><path fill="#96FED1" d="M25.541 5.273a2.42 2.42 0 0 1 2.474 2.508c0 1.482-1.113 2.508-2.65 2.467A2.564 2.564 0 0 1 22.9 7.784a2.566 2.566 0 0 1 2.642-2.511Z"/><path fill="#FEFEFE" d="M19.839 7.78a2.444 2.444 0 0 1-2.508 2.493 2.442 2.442 0 0 1-2.508-2.599 2.443 2.443 0 0 1 2.57-2.433 2.442 2.442 0 0 1 2.446 2.54Z"/><path fill="#2ECC82" d="M9.177 10.289a2.462 2.462 0 0 1-2.539-2.47A2.458 2.458 0 0 1 9.196 5.25a2.461 2.461 0 0 1 2.486 2.53 2.469 2.469 0 0 1-2.505 2.508Zm53.581 28.959c.918 3 2.508 5.483 5.279 7.135a11.016 11.016 0 0 0 13.25-1.611c.029-.025.06-.072.088-.07 1.881.089 1.634-.441 1.483-1.79l1.22-2.41c.26-.132.376.022.46.235.587 5.145-3.583 9.831-8.043 11.091-6.31 1.787-13.305-2.975-13.794-9.476a23.276 23.276 0 0 1 .057-3.104Z"/><path fill="#F9FDFD" d="m84.551 40.74-.46-.235c-.656-.893-.455-1.602.476-2.144.809.047 1.46.314 1.414 1.27-.054.9-.665 1.128-1.43 1.11Z"/><path fill="#FAFBFE" d="M85.978 48.32c-.057.684-.405 1.094-1.116 1.085-.712-.01-1.201-.473-1.166-1.175a1.107 1.107 0 0 1 1.253-1.104 1.035 1.035 0 0 1 1.029 1.194Z"/><path fill="#FCFCFE" d="M87.247 42.825c1.01-.047 1.42.364 1.464 1.013a1.08 1.08 0 0 1-1.116 1.247 1.074 1.074 0 0 1-1.163-1.19c0-.69.424-1.042.815-1.07Z"/><path fill="#FEFEFE" d="M18.87 74.035h-4.338c-.721 0-1.254-.238-1.283-1.028a1.159 1.159 0 0 1 1.21-1.297 351.38 351.38 0 0 1 8.91 0c.686 0 1.181.379 1.15 1.188-.031.808-.526 1.14-1.31 1.134-1.445-.006-2.894.004-4.339.004Zm2.58-8.313c0 1.536-1.05 2.677-2.467 2.68a2.574 2.574 0 0 1-2.7-2.72c.02-1.412 1.17-2.446 2.712-2.44 1.486.003 2.452.985 2.455 2.48Zm57.882 8.313H74.99c-.73 0-1.197-.278-1.254-1.062-.066-.862.445-1.254 1.191-1.254a390.59 390.59 0 0 1 8.794 0A1.178 1.178 0 0 1 85 72.954c.015.865-.558 1.107-1.326 1.1-1.452-.028-2.885-.019-4.342-.019Zm.009-10.793c1.524 0 2.646 1.098 2.62 2.53a2.566 2.566 0 0 1-2.673 2.63c-1.461 0-2.508-1.17-2.49-2.784.023-1.523.95-2.388 2.543-2.376ZM49.128 74.035h-4.33c-.78 0-1.282-.27-1.313-1.122-.031-.852.517-1.204 1.254-1.21a475.54 475.54 0 0 1 8.777 0c.73 0 1.289.33 1.254 1.204-.034.874-.526 1.135-1.31 1.129-1.448-.01-2.89 0-4.332 0Zm-2.583-8.295a2.49 2.49 0 0 1 2.649-2.507 2.49 2.49 0 0 1 2.508 2.643 2.541 2.541 0 0 1-2.653 2.507 2.537 2.537 0 0 1-2.504-2.642Z"/><path fill="#F8FEFC" d="M79.407 40.737c-.715-.106-1.157-.52-1.129-1.232a1.075 1.075 0 0 1 1.126-1.097 1.06 1.06 0 0 1 1.17 1.15c.002.756-.459 1.095-1.167 1.18Z"/><path fill="#F9FEFC" d="M77.915 43.97c-.138.68-.514 1.134-1.192 1.1-.677-.035-1.169-.446-1.119-1.22.05-.774.536-1.103 1.254-1.05.718.053.988.555 1.057 1.17Z"/><path fill="#FBFCFE" d="M82.859 42.916c.438.542.699 1.113.169 1.74-.53.627-1.135.464-1.74.119-.314-.53-.448-1.082-.022-1.599.426-.517 1.022-.417 1.593-.26Z"/><path fill="#12ECAA" d="M57.278 7.154c-.044.51-.313.84-.793.862a.74.74 0 0 1-.821-.774.712.712 0 0 1 .758-.819c.508-.012.753.295.856.73Z"/><path fill="#FAFBFE" d="M80.58 48.37c-.076.628-.436 1.05-1.138 1.041a1.065 1.065 0 0 1-1.16-1.19 1.09 1.09 0 0 1 1.254-1.095c.67.063 1.047.505 1.043 1.245Z"/></svg>