<svg xmlns="http://www.w3.org/2000/svg" width="99" height="79" fill="none" viewBox="0 0 99 79"><path fill="#FEFEFE" d="M1.68179 78.5277C0.565791 78.2612 0.114358 77.4744 0.0203133 76.4086C-0.00790029 76.0575 0.00150499 75.7064 0.00150499 75.3521C0.00150499 55.7531 0.00150499 36.152 0.00150499 16.5488C0.00150499 16.1632 0.0454027 15.7745 0.0704814 15.3858C0.603404 14.95 1.24604 15.0127 1.86674 15.0096C5.00158 15.0096 8.12805 15.0096 11.2462 15.0096C39.4284 15.0096 67.6095 15.0096 95.7896 15.0096C96.5953 15.0096 97.4448 14.8341 98.1721 15.3827C98.285 19.1445 98.3007 22.9063 98.1721 26.6681C97.2975 27.0693 96.3978 26.7308 95.5263 26.69C92.7865 26.5646 90.6203 27.7371 88.6297 29.4455C87.4792 30.4424 86.3851 31.5051 85.1814 32.4236C84.8623 32.7087 84.4861 32.9224 84.0779 33.0506C83.4729 32.9378 83.3443 32.3892 83.1374 31.9534C81.0371 27.806 76.7142 25.5427 71.6389 26.3515C67.1153 27.0725 63.7297 30.7402 63.0431 35.408C62.9773 35.8375 62.9522 36.2701 62.6105 36.5898C58.1277 38.5366 56.0054 42.4238 54.2812 46.6589C53.0273 49.7624 51.9552 52.9506 50.4003 55.9287C49.9364 56.819 49.5539 57.7782 48.7169 58.4365C48.1714 58.7124 47.579 58.6779 46.9959 58.681C44.7325 58.681 42.4661 58.681 40.2027 58.681C38.5318 58.681 38.2528 58.9789 38.2277 60.6842C38.2277 61.5432 38.2277 62.4021 38.2277 63.261C38.2058 64.9256 38.1337 65.0072 36.5161 65.2454C36.3249 65.2736 36.1399 65.352 35.9487 65.3865C34.3886 65.5109 32.8222 65.536 31.259 65.4617C30.3718 65.4617 30.0301 64.935 30.0051 64.1075C29.9518 62.8974 30.0615 61.6842 29.9235 60.4773C29.7574 59.0102 29.4596 58.7093 28.0082 58.703C21.9893 58.6779 15.9725 58.6779 9.95776 58.703C8.30883 58.703 7.99222 59.051 7.98595 60.7438C7.96714 65.863 7.98595 70.979 7.98595 76.1045C7.98595 76.5747 7.98595 77.0449 7.96714 77.512C7.93893 78.3302 7.58156 78.6782 6.71321 78.628C5.03607 78.5214 3.35893 78.7033 1.68179 78.5277Z"/><path fill="#0FAA61" d="M98.1753 15.3859H0.0736108C0.0736108 11.1256 0.0297177 6.8685 0.0485268 2.60825C0.0485268 1.21011 0.935685 0.395055 2.34009 0.329224C2.65358 0.329224 2.96706 0.329224 3.28054 0.329224H94.9714C95.2849 0.329224 95.5984 0.329224 95.9119 0.329224C97.3163 0.395055 98.1972 1.20698 98.2035 2.60825C98.2191 6.8685 98.1878 11.1256 98.1753 15.3859Z"/><path fill="#2ECC82" d="M84.0278 32.9597C85.6203 31.5992 87.2222 30.2481 88.8022 28.8844C91.542 26.5082 94.6894 25.9 98.166 26.69C98.166 27.8248 98.2004 28.9565 98.2004 30.0882C98.2004 45.2169 98.2004 60.3457 98.2004 75.4744C98.2004 78.0606 97.5233 78.744 94.9559 78.7377C93.5107 78.7377 92.0624 78.7127 90.6173 78.7001C90.1564 78.1672 90.2787 77.5152 90.2756 76.9039C90.2756 71.6279 90.2756 66.3489 90.2756 61.0698C90.2756 58.9663 90.0279 58.7218 87.9025 58.7187C82.2765 58.7187 76.6474 58.7187 71.0151 58.7187C68.5417 58.7187 68.2909 58.9475 68.2784 61.4899C68.2502 66.7689 68.2784 72.048 68.2784 77.3239C68.2784 77.7879 68.363 78.2644 68.1499 78.7095H60.3755C59.9146 78.1797 60.0338 77.5277 60.0338 76.9164C60.0338 71.722 60.0338 66.5276 60.0338 61.3363C60.0338 58.8284 59.9366 58.7249 57.3691 58.7218C55.0274 58.7218 52.6669 58.7406 50.3408 58.7061C49.7954 58.7061 49.1371 58.8378 48.8612 58.1074C51.1685 54.4992 52.4443 50.427 54.0744 46.5085C55.0149 44.2388 56.0557 42.0319 57.6011 40.0789C58.8803 38.4456 60.5888 37.2006 62.5354 36.4833C63.2627 37.267 63.0401 38.245 63.0902 39.1667C62.7517 41.6244 62.9993 43.9818 64.1843 46.2138C66.1185 49.8471 70.6609 52.3644 74.4916 51.8847C79.2347 51.2954 82.9902 48.0947 84.0874 43.7812C84.3413 42.7843 84.0592 41.7435 84.451 40.7749C84.6015 40.5805 84.8429 40.5303 85.0372 40.4081C85.8335 39.9128 85.8429 39.3422 85.0592 38.7936C84.8053 38.6181 84.4855 38.5303 84.3601 38.2012C84.2849 36.4362 83.8774 34.7152 84.0278 32.9597Z"/><path fill="#0FAA61" d="M1.68179 78.5277C3.20219 78.5277 4.72573 78.4431 6.24299 78.5277C7.2869 78.5779 7.64427 78.302 7.63173 77.186C7.57216 71.5277 7.60351 65.8724 7.60664 60.214C7.60664 58.7908 8.04238 58.3331 9.48755 58.3331C15.8074 58.3331 22.1272 58.3331 28.4502 58.3331C29.5004 58.3331 30.0678 58.6466 30.2214 59.8222C30.4126 61.2673 30.3217 62.7 30.328 64.1357C30.328 64.8943 30.5693 65.2266 31.3217 65.1671C30.6947 65.9978 30.7136 66.9633 30.7198 67.9383C30.7198 70.9791 30.7355 74.0199 30.7198 77.0606C30.7198 77.6594 30.8389 78.3428 30.1211 78.7002L2.57523 78.7441C2.26175 78.7252 1.93572 78.7754 1.68179 78.5277Z"/><path fill="#0FAA61" d="M68.134 78.6814C67.8488 78.2613 67.9177 77.7817 67.9177 77.3177C67.9177 71.93 67.9177 66.5412 67.9177 61.1513C67.9098 60.8004 67.9286 60.4493 67.9742 60.1012C68.2249 58.4742 68.3942 58.3363 70.0933 58.3363H88.4854C90.3663 58.3363 90.6422 58.6497 90.6422 60.5306L90.614 78.6908L68.134 78.6814Z"/><path fill="#0FAA61" d="M48.8362 58.0761C49.1685 58.4805 49.6324 58.3268 50.0399 58.33C52.9344 58.3425 55.8279 58.3425 58.7203 58.33C59.7329 58.33 60.4006 58.6748 60.3975 59.794C60.3975 66.0887 60.3849 72.3824 60.3598 78.6751H37.8893C37.4222 78.2049 37.5037 77.5967 37.5006 77.0262C37.5006 73.9979 37.4504 70.9697 37.5194 67.9351C37.5476 66.6248 37.5194 65.4837 35.9739 65.0793C36.0053 65.0542 36.0304 65.0166 36.0648 65.0072C37.8611 64.5809 37.8611 64.5809 37.8611 62.609C37.8611 61.7877 37.8611 60.9695 37.8611 60.1482C37.8611 58.6748 38.2373 58.3143 39.742 58.3143C42.3188 58.3143 44.8957 58.3143 47.4725 58.3143C47.949 58.3206 48.4286 58.3895 48.8362 58.0761Z"/><path fill="#2ECC82" d="M35.9613 65.0887C37.8422 65.1734 37.8422 65.1734 37.8422 67.0762C37.8422 70.9446 37.8558 74.8109 37.883 78.6751H30.1086C30.3907 78.2582 30.3218 77.7817 30.3218 77.3209C30.3218 73.7471 30.35 70.1734 30.303 66.5997C30.303 65.7878 30.4754 65.2799 31.3155 65.142L35.9613 65.0887Z"/><path fill="#0FAA61" d="M62.7578 39.2482C62.6742 38.3203 62.5917 37.3913 62.5102 36.4613C62.7046 35.5209 62.8237 34.5334 63.1058 33.6086C64.3974 29.4111 68.2187 26.2574 72.3755 25.9283C77.269 25.5364 81.3725 27.7559 83.4917 31.9378C83.6641 32.2795 83.8491 32.618 84.0278 32.9597C84.5455 34.7102 84.7231 36.5437 84.5512 38.3611C84.1155 39.057 83.8992 39.7843 84.2378 40.5931C84.034 41.5116 83.7456 42.3831 82.9305 42.9661C81.3631 43.3549 81.3631 43.3549 81.4039 44.8126C80.8459 46.0007 79.7017 46.5116 78.6421 47.0352C75.9693 48.3425 72.8912 48.5522 70.0658 47.6196C67.2404 46.687 64.892 44.686 63.5227 42.0445C63.0588 41.1573 62.9491 40.1981 62.7578 39.2482Z"/><path fill="#2ECC82" d="M28.6007 46.822C33.8003 46.822 38.9989 46.822 44.1965 46.822C46.0774 46.822 46.9865 47.7342 47.0179 49.6245C47.0367 51.8566 46.2122 52.8848 44.2905 52.8879C33.8139 52.9005 23.3383 52.9005 12.8638 52.8879C11.0268 52.8879 10.196 51.9757 10.1804 50.1104C10.1584 47.4458 10.7885 46.8189 13.4908 46.8189L28.6007 46.822Z"/><path fill="#2ECC82" d="M23.5663 41.1824C19.7376 41.1824 15.912 41.1824 12.0896 41.1824C11.74 41.2028 11.3892 41.1786 11.0457 41.1103C10.7728 41.0561 10.5308 40.8997 10.3694 40.673C10.208 40.4463 10.1393 40.1665 10.1774 39.8908C10.1761 39.7533 10.2024 39.6168 10.2546 39.4896C10.3069 39.3623 10.384 39.2468 10.4816 39.1498C10.5792 39.0528 10.6952 38.9764 10.8227 38.9249C10.9503 38.8734 11.0869 38.848 11.2244 38.8501C11.4564 38.8313 11.6915 38.8501 11.9266 38.8501H35.6981C36.4254 38.8501 36.9081 39.1416 36.952 39.919C37.0022 40.7623 36.4943 41.1542 35.7389 41.173C34.2968 41.2169 32.8517 41.173 31.4065 41.173C28.8004 41.1834 26.187 41.1866 23.5663 41.1824Z"/><path fill="#0FAA61" d="M20.6193 36.546C17.6506 36.546 14.6819 36.546 11.7132 36.546C10.8951 36.546 10.1678 36.4269 10.1897 35.4018C10.2116 34.3767 10.9609 34.2043 11.7571 34.2043C17.7697 34.1896 23.7834 34.1896 29.7981 34.2043C30.5881 34.2043 31.3248 34.4488 31.3248 35.4363C31.3248 36.4739 30.5662 36.546 29.7574 36.5429C26.7103 36.5397 23.6632 36.546 20.6193 36.546Z"/><path fill="#2ECC82" d="M19.6599 23.1414C17.0455 23.1414 14.4279 23.1414 11.8228 23.1414C10.9733 23.1414 10.1771 23.0348 10.1771 21.9658C10.1771 20.8969 10.9702 20.7871 11.8197 20.7903C17.0925 20.7903 22.3632 20.7903 27.6318 20.7903C28.5096 20.7903 29.2557 20.9658 29.2212 22.0254C29.1867 23.0129 28.4532 23.1508 27.635 23.1477C24.9892 23.1414 22.3277 23.1414 19.6599 23.1414Z"/><path fill="#0FAA61" d="M12.5785 31.1039C12.149 31.1039 11.7227 31.1039 11.2932 31.1039C11.1467 31.1132 11 31.0917 10.8623 31.0409C10.7247 30.9902 10.5991 30.9112 10.4938 30.8091C10.3884 30.7069 10.3055 30.5839 10.2505 30.4479C10.1954 30.3119 10.1694 30.1659 10.174 30.0193C10.1486 29.8832 10.1516 29.7433 10.1829 29.6084C10.2142 29.4735 10.2731 29.3466 10.3558 29.2355C10.4386 29.1245 10.5434 29.0318 10.6637 28.9633C10.784 28.8948 10.9172 28.8519 11.0549 28.8374C12.1311 28.6715 13.2264 28.6715 14.3026 28.8374C14.9045 28.9377 15.1992 29.4142 15.1396 30.0537C15.1409 30.191 15.1146 30.3271 15.0623 30.4541C15.01 30.581 14.9327 30.6961 14.835 30.7926C14.7374 30.8891 14.6214 30.965 14.4938 31.0157C14.3663 31.0665 14.2298 31.0912 14.0926 31.0882C13.5879 31.129 13.0769 31.1039 12.5785 31.1039Z"/><path fill="#2ECC82" d="M58.5037 4.84335L89.2972 4.8747C91.5136 4.8747 91.617 4.97815 91.6201 7.17567C91.6201 10.7588 91.9869 10.6773 88.1373 10.6679C79.435 10.6491 70.7317 10.6491 62.0273 10.6679C61.5602 10.6679 61.0868 10.7024 60.626 10.7243C60.2185 10.0817 59.999 9.32303 59.4316 8.77757C59.3602 8.70997 59.3056 8.6265 59.2724 8.53393C59.2392 8.44135 59.2282 8.34225 59.2404 8.24465C59.5163 6.99071 58.9394 5.93427 58.5037 4.84335Z"/><path fill="#FEFEFE" d="M58.5037 4.84335C59.3626 5.67095 59.8895 6.60511 59.4945 7.84651C59.3409 8.33554 59.5886 8.68978 59.9428 8.96251C60.2083 9.16366 60.4128 9.43458 60.5335 9.74508C60.6542 10.0556 60.6862 10.3935 60.6262 10.7212C59.8738 11.6616 59.3409 11.7494 58.5447 10.9563C58.0086 10.4233 57.5415 10.1757 56.7202 10.3481C55.3941 10.624 54.0148 9.68039 53.4976 8.36376C53.2491 7.72317 53.2154 7.01924 53.4014 6.35781C53.5873 5.69638 53.983 5.11322 54.5289 4.696C55.6888 3.80884 57.1338 3.86214 58.5037 4.84335Z"/><path fill="#96FED1" d="M25.5414 5.27284C25.8712 5.26536 26.199 5.32537 26.5048 5.4492C26.8105 5.57304 27.0878 5.75807 27.3194 5.99293C27.551 6.2278 27.7322 6.50754 27.8518 6.81498C27.9714 7.12242 28.0269 7.45106 28.0148 7.78071C28.0148 9.26349 26.9019 10.2886 25.3659 10.2478C24.7197 10.2238 24.1065 9.95659 23.6491 9.49969C23.1916 9.04279 22.9236 8.42993 22.8987 7.78385C22.906 7.44504 22.9803 7.11103 23.1174 6.80107C23.2544 6.49112 23.4514 6.21136 23.6971 5.97793C23.9428 5.7445 24.2322 5.56201 24.5488 5.441C24.8653 5.31998 25.2027 5.26283 25.5414 5.27284Z"/><path fill="#FEFEFE" d="M19.8388 7.78071C19.8453 8.11109 19.7847 8.43936 19.6607 8.74568C19.5368 9.05201 19.3521 9.33003 19.1177 9.56296C18.8833 9.79589 18.6041 9.97889 18.297 10.1009C17.9899 10.2229 17.6613 10.2814 17.3309 10.2729C16.9911 10.2828 16.653 10.2216 16.3382 10.0933C16.0234 9.96494 15.7388 9.7723 15.5028 9.52767C15.2667 9.28304 15.0843 8.99182 14.9673 8.67264C14.8502 8.35347 14.8011 8.01337 14.8231 7.67412C14.8239 7.34311 14.892 7.01573 15.0232 6.71185C15.1545 6.40797 15.3461 6.13395 15.5865 5.90643C15.827 5.67891 16.1111 5.50264 16.4218 5.38833C16.7324 5.27403 17.0631 5.22407 17.3936 5.24149C17.7229 5.24081 18.049 5.30673 18.3521 5.4353C18.6553 5.56387 18.9293 5.75242 19.1577 5.98962C19.3862 6.22683 19.5643 6.50777 19.6813 6.81557C19.7983 7.12337 19.8519 7.45167 19.8388 7.78071Z"/><path fill="#2ECC82" d="M9.17726 10.2886C8.84676 10.2991 8.51755 10.2429 8.20925 10.1234C7.90096 10.0039 7.6199 9.82342 7.38289 9.59285C7.14589 9.36228 6.95778 9.08631 6.8298 8.78142C6.70182 8.47654 6.63661 8.14898 6.63804 7.81833C6.62253 7.47785 6.67799 7.13786 6.80093 6.81997C6.92387 6.50208 7.11158 6.21323 7.35215 5.97178C7.59271 5.73033 7.88087 5.54156 8.19831 5.41745C8.51575 5.29335 8.85553 5.23663 9.19606 5.25089C9.52722 5.24739 9.85567 5.31076 10.1618 5.43721C10.4678 5.56367 10.7452 5.7506 10.9774 5.98681C11.2095 6.22303 11.3915 6.50366 11.5126 6.81191C11.6337 7.12015 11.6913 7.44967 11.682 7.78071C11.6871 8.11118 11.6258 8.43931 11.5017 8.74566C11.3777 9.05201 11.1934 9.33036 10.9599 9.56421C10.7263 9.79806 10.4482 9.98267 10.142 10.1071C9.83579 10.2315 9.50773 10.2932 9.17726 10.2886Z"/><path fill="#2ECC82" d="M62.7578 39.2482C63.6764 42.2483 65.2655 44.731 68.0367 46.383C70.1174 47.6018 72.5404 48.1041 74.934 47.8131C77.3277 47.522 79.5597 46.4536 81.2877 44.7717C81.3159 44.7467 81.3472 44.6996 81.3754 44.7028C83.2563 44.7905 83.0087 44.2608 82.8582 42.9128L84.0777 40.5021C84.3379 40.3704 84.4539 40.524 84.5385 40.7372C85.1247 45.8815 80.9554 50.5681 76.4945 51.8283C70.1841 53.6151 63.1902 48.8533 62.7012 42.3516C62.6509 41.317 62.67 40.2803 62.7578 39.2482Z"/><path fill="#F9FDFD" d="M84.5512 40.7404L84.0904 40.5053C83.4352 39.6119 83.6358 38.9034 84.5669 38.3611C85.3757 38.4081 86.0277 38.6745 85.9807 39.6307C85.9274 40.5304 85.3161 40.7592 84.5512 40.7404Z"/><path fill="#FAFBFE" d="M85.9777 48.3204C85.9212 49.0038 85.5733 49.4145 84.8616 49.4051C84.15 49.3957 83.661 48.9317 83.6955 48.2295C83.6945 48.0712 83.7276 47.9145 83.7923 47.77C83.8571 47.6256 83.9522 47.4967 84.071 47.3921C84.1899 47.2875 84.3298 47.2096 84.4814 47.1637C84.6329 47.1178 84.7925 47.105 84.9494 47.1261C85.0993 47.1252 85.2476 47.1569 85.3841 47.219C85.5205 47.281 85.6418 47.372 85.7396 47.4856C85.8374 47.5992 85.9093 47.7327 85.9504 47.8769C85.9915 48.021 86.0008 48.1724 85.9777 48.3204Z"/><path fill="#FCFCFE" d="M87.2474 42.8251C88.2568 42.7781 88.6675 43.1887 88.7113 43.8376C88.7361 43.9959 88.7254 44.1577 88.68 44.3113C88.6346 44.4649 88.5557 44.6065 88.4489 44.7259C88.3421 44.8453 88.2102 44.9394 88.0625 45.0016C87.9149 45.0637 87.7554 45.0923 87.5953 45.0853C87.4366 45.0993 87.2768 45.0779 87.1274 45.0225C86.978 44.9672 86.8427 44.8794 86.7314 44.7654C86.6201 44.6514 86.5356 44.5141 86.4838 44.3634C86.4321 44.2127 86.4145 44.0524 86.4323 43.8941C86.4323 43.2044 86.8555 42.8533 87.2474 42.8251Z"/><path fill="#FEFEFE" d="M18.8702 74.0355C17.425 74.0355 15.9768 74.0355 14.5316 74.0355C13.8106 74.0355 13.2777 73.7973 13.2494 73.0073C13.2286 72.8394 13.2448 72.6689 13.2969 72.508C13.3491 72.347 13.4359 72.1995 13.5513 72.0757C13.6667 71.952 13.8078 71.855 13.9647 71.7917C14.1216 71.7285 14.2905 71.7004 14.4595 71.7095C17.4282 71.6687 20.4157 71.675 23.3687 71.7095C24.0552 71.7095 24.5505 72.0888 24.5192 72.8976C24.4878 73.7064 23.9925 74.0386 23.2088 74.0324C21.7637 74.0261 20.3154 74.0355 18.8702 74.0355Z"/><path fill="#FEFEFE" d="M21.4501 65.7219C21.4501 67.258 20.3999 68.3991 18.983 68.4022C18.6218 68.4204 18.2609 68.3624 17.9237 68.2318C17.5865 68.1012 17.2806 67.901 17.0259 67.6443C16.7713 67.3876 16.5736 67.08 16.4457 66.7418C16.3179 66.4035 16.2627 66.0422 16.2839 65.6812C16.3027 64.2705 17.4532 63.236 18.9955 63.2423C20.4814 63.2454 21.447 64.2266 21.4501 65.7219Z"/><path fill="#FEFEFE" d="M79.3318 74.0355C77.8835 74.0355 76.4383 74.0355 74.9901 74.0355C74.2596 74.0355 73.7925 73.7565 73.7361 72.9728C73.6703 72.1107 74.1813 71.7189 74.9274 71.7189C77.8584 71.6844 80.7895 71.6875 83.7206 71.7189C83.8884 71.7043 84.0575 71.7259 84.2163 71.7822C84.3751 71.8385 84.52 71.9282 84.6413 72.0453C84.7625 72.1623 84.8572 72.304 84.919 72.4608C84.9808 72.6175 85.0083 72.7857 84.9996 72.954C85.0153 73.8192 84.4416 74.0606 83.6736 74.0543C82.2221 74.0261 80.7895 74.0355 79.3318 74.0355Z"/><path fill="#FEFEFE" d="M79.3412 63.2423C80.8647 63.2423 81.987 64.3395 81.9619 65.7721C81.9712 66.1238 81.9081 66.4736 81.7765 66.7999C81.6449 67.1261 81.4475 67.4218 81.1967 67.6685C80.9458 67.9152 80.647 68.1076 80.3186 68.2339C79.9902 68.3601 79.6394 68.4174 79.2879 68.4022C77.827 68.4022 76.78 67.2329 76.7988 65.6185C76.8208 64.095 77.7487 63.2297 79.3412 63.2423Z"/><path fill="#FEFEFE" d="M49.1277 74.0355C47.6825 74.0355 46.2405 74.0355 44.7984 74.0355C44.0179 74.0355 43.5163 73.7659 43.4849 72.9132C43.4536 72.0605 44.0022 71.7094 44.7389 71.7031C47.6647 71.676 50.5906 71.676 53.5164 71.7031C54.2468 71.7031 54.8048 72.0323 54.7704 72.9069C54.7359 73.7815 54.2437 74.0417 53.46 74.0355C52.0117 74.0261 50.5697 74.0355 49.1277 74.0355Z"/><path fill="#FEFEFE" d="M46.5447 65.7407C46.5414 65.3984 46.6087 65.059 46.7425 64.7439C46.8764 64.4288 47.0737 64.1446 47.3224 63.9092C47.571 63.6739 47.8655 63.4923 48.1875 63.3759C48.5094 63.2595 48.852 63.2108 49.1936 63.2328C49.5354 63.2296 49.8742 63.2968 50.1889 63.4302C50.5035 63.5637 50.7874 63.7605 51.0226 64.0084C51.2579 64.2563 51.4396 64.5501 51.5564 64.8713C51.6732 65.1925 51.7226 65.5343 51.7015 65.8755C51.6972 66.2159 51.6246 66.552 51.4879 66.8638C51.3513 67.1756 51.1535 67.4567 50.9061 67.6906C50.6588 67.9245 50.367 68.1064 50.048 68.2254C49.7291 68.3444 49.3895 68.3981 49.0494 68.3834C48.7098 68.3795 48.3745 68.3074 48.0633 68.1715C47.7521 68.0356 47.4714 67.8385 47.2378 67.5921C47.0042 67.3456 46.8225 67.0547 46.7034 66.7367C46.5844 66.4187 46.5304 66.08 46.5447 65.7407Z"/><path fill="#F8FEFC" d="M79.407 40.7373C78.6923 40.6307 78.2503 40.2169 78.2785 39.5053C78.2753 39.3579 78.3025 39.2115 78.3583 39.075C78.4141 38.9386 78.4973 38.8151 78.6029 38.7122C78.7084 38.6093 78.834 38.5292 78.9718 38.4769C79.1096 38.4246 79.2567 38.4012 79.4039 38.4081C79.5599 38.3912 79.7178 38.4091 79.8661 38.4607C80.0143 38.5122 80.1493 38.5961 80.2612 38.7062C80.3731 38.8163 80.4591 38.9499 80.5131 39.0973C80.567 39.2447 80.5876 39.4022 80.5732 39.5586C80.5763 40.3141 80.1155 40.6526 79.407 40.7373Z"/><path fill="#F9FEFC" d="M77.9147 43.9693C77.7768 44.6496 77.4006 45.1041 76.7235 45.0696C76.0464 45.0351 75.5542 44.6245 75.6044 43.8502C75.6545 43.0759 76.1404 42.7467 76.8583 42.8C77.5762 42.8533 77.8458 43.3549 77.9147 43.9693Z"/><path fill="#FBFCFE" d="M82.8585 42.916C83.2973 43.4583 83.5575 44.0288 83.0277 44.6558C82.498 45.2828 81.8929 45.1197 81.2879 44.7749C80.9744 44.2451 80.8396 43.6934 81.266 43.1761C81.6923 42.6589 82.2879 42.7592 82.8585 42.916Z"/><path fill="#12ECAA" d="M57.2783 7.15375C57.2344 7.66473 56.9648 7.99388 56.4852 8.01583C56.3784 8.02781 56.2704 8.01641 56.1685 7.98241C56.0666 7.94841 55.9733 7.89263 55.8952 7.81894C55.817 7.74526 55.7558 7.65543 55.7159 7.55572C55.6759 7.45601 55.6582 7.34879 55.6639 7.24152C55.6475 7.13546 55.6553 7.02707 55.6867 6.92445C55.7181 6.82183 55.7723 6.72765 55.8453 6.64895C55.9183 6.57025 56.0081 6.50908 56.108 6.47001C56.208 6.43093 56.3155 6.41498 56.4225 6.42333C56.9303 6.41079 57.1749 6.718 57.2783 7.15375Z"/><path fill="#FAFBFE" d="M80.5795 48.3706C80.5043 48.9976 80.1438 49.4208 79.4416 49.4114C79.2827 49.4267 79.1225 49.4061 78.9726 49.3511C78.8228 49.2962 78.6872 49.2083 78.5759 49.094C78.4646 48.9796 78.3803 48.8418 78.3294 48.6905C78.2785 48.5393 78.2622 48.3785 78.2817 48.2201C78.2794 48.0618 78.3117 47.9049 78.3762 47.7603C78.4407 47.6157 78.536 47.4868 78.6553 47.3827C78.7746 47.2786 78.9151 47.2017 79.0672 47.1574C79.2192 47.1131 79.3791 47.1024 79.5356 47.1261C80.2065 47.1888 80.5827 47.6308 80.5795 48.3706Z"/></svg>