<svg width="502" height="475" viewBox="0 0 502 475" fill="none" xmlns="http://www.w3.org/2000/svg">
<g opacity="0.3">
<path d="M76.4459 386.463C76.3686 386.937 76.1187 387.366 75.7442 387.667C75.3697 387.967 74.8972 388.119 74.4176 388.092C72.2202 387.971 70.0026 387.754 67.8154 387.443C67.3049 387.371 66.8441 387.099 66.5341 386.687C66.2241 386.275 66.0904 385.756 66.1623 385.246V385.209C66.2431 384.705 66.5188 384.253 66.9299 383.951C67.3411 383.648 67.8546 383.52 68.3596 383.593C70.437 383.887 72.5465 384.1 74.6306 384.211C75.1438 384.24 75.6249 384.47 75.9688 384.852C76.3127 385.234 76.4916 385.737 76.4662 386.25C76.4632 386.321 76.4564 386.392 76.4459 386.463ZM59.7324 383.635C59.7201 383.711 59.7038 383.787 59.6834 383.862C59.5418 384.357 59.2091 384.777 58.7584 385.028C58.3077 385.278 57.7758 385.34 57.2798 385.199C55.1585 384.595 53.0406 383.894 50.9886 383.114C50.7431 383.029 50.5172 382.895 50.3243 382.721C50.1314 382.547 49.9754 382.336 49.8654 382.1C49.7554 381.865 49.6937 381.61 49.684 381.35C49.6743 381.09 49.7167 380.831 49.8088 380.588C49.9008 380.345 50.0406 380.123 50.22 379.935C50.3993 379.747 50.6145 379.596 50.8529 379.493C51.0913 379.389 51.348 379.334 51.608 379.332C51.8679 379.329 52.1257 379.378 52.3662 379.477C54.3184 380.217 56.3282 380.883 58.3464 381.458C58.8038 381.588 59.1974 381.882 59.4528 382.283C59.7083 382.684 59.8077 383.165 59.7324 383.635ZM44.0618 377.212C44.0271 377.433 43.9533 377.647 43.8437 377.842C43.721 378.066 43.5552 378.264 43.3561 378.424C43.1569 378.584 42.9282 378.703 42.683 378.774C42.4378 378.846 42.1809 378.868 41.9271 378.84C41.6732 378.812 41.4274 378.734 41.2035 378.612C39.2732 377.553 37.3649 376.397 35.5326 375.175C35.3193 375.033 35.1361 374.85 34.9934 374.638C34.8506 374.425 34.7513 374.186 34.7009 373.934C34.6505 373.683 34.6501 373.424 34.6997 373.173C34.7493 372.922 34.848 372.682 34.99 372.469C35.1321 372.256 35.3148 372.072 35.5277 371.93C35.7406 371.787 35.9795 371.688 36.2307 371.637C36.482 371.587 36.7408 371.586 36.9922 371.636C37.2437 371.686 37.4829 371.784 37.6962 371.926C39.4372 373.086 41.2458 374.185 43.0814 375.19C43.4338 375.384 43.7177 375.682 43.8941 376.043C44.0705 376.405 44.1309 376.812 44.0669 377.209L44.0618 377.212ZM30.2184 367.44C30.1617 367.784 30.014 368.106 29.7908 368.372C29.5676 368.639 29.2769 368.841 28.9491 368.958C28.6212 369.074 28.2681 369.101 27.9266 369.035C27.585 368.968 27.2674 368.812 27.0068 368.581C25.3605 367.116 23.7598 365.561 22.2453 363.962C21.8905 363.586 21.6996 363.084 21.7147 362.567C21.7297 362.05 21.9495 361.561 22.3256 361.206C22.7017 360.851 23.2034 360.66 23.7202 360.675C24.2371 360.69 24.7268 360.91 25.0816 361.286C26.5183 362.807 28.0396 364.281 29.6031 365.672C29.8464 365.891 30.0308 366.167 30.1393 366.475C30.2477 366.784 30.2766 367.114 30.2234 367.437L30.2184 367.44ZM18.9019 354.826C18.8403 355.207 18.667 355.56 18.404 355.842C18.141 356.124 17.8001 356.322 17.4246 356.41C17.0491 356.497 16.656 356.472 16.2951 356.336C15.9343 356.2 15.622 355.959 15.398 355.646C14.1218 353.857 12.9048 351.988 11.7808 350.09C11.5178 349.646 11.4419 349.116 11.5696 348.617C11.6974 348.117 12.0184 347.689 12.4619 347.426C12.9055 347.163 13.4354 347.087 13.935 347.215C14.4345 347.342 14.8629 347.663 15.1258 348.107C16.1941 349.911 17.3519 351.687 18.5639 353.387C18.8631 353.802 18.9864 354.318 18.907 354.822L18.9019 354.826ZM10.6584 340.024C10.5926 340.443 10.3919 340.829 10.0866 341.123C9.78135 341.417 9.38834 341.604 8.96738 341.654C8.54641 341.704 8.12052 341.616 7.75452 341.402C7.38851 341.188 7.10243 340.86 6.93978 340.469C6.09464 338.44 5.31542 336.346 4.641 334.25C4.48185 333.758 4.52449 333.224 4.75954 332.764C4.99459 332.304 5.40279 331.956 5.89434 331.797C6.38589 331.637 6.92053 331.68 7.38064 331.915C7.84075 332.15 8.18864 332.558 8.34779 333.05C8.9901 335.041 9.72537 337.029 10.5333 338.966C10.6745 339.298 10.7195 339.664 10.6635 340.021L10.6584 340.024ZM17.4195 268.927C17.3755 269.201 17.2729 269.462 17.1187 269.693C15.9625 271.434 14.8672 273.243 13.8632 275.087C13.7486 275.324 13.5871 275.536 13.3883 275.709C13.1895 275.882 12.9576 276.013 12.7067 276.093C12.4558 276.174 12.1911 276.203 11.9287 276.178C11.6663 276.153 11.4117 276.076 11.1802 275.95C10.9488 275.823 10.7454 275.652 10.5824 275.445C10.4193 275.238 10.3001 274.999 10.2318 274.745C10.1636 274.49 10.1478 274.225 10.1854 273.964C10.223 273.703 10.3132 273.452 10.4505 273.227C11.5069 271.292 12.6614 269.38 13.8784 267.548C14.1222 267.173 14.488 266.893 14.9142 266.756C15.3403 266.619 15.8007 266.633 16.2177 266.795C16.6347 266.958 16.9828 267.26 17.2033 267.649C17.4237 268.039 17.5031 268.493 17.428 268.934L17.4195 268.927ZM5.90702 323.77C5.83365 324.224 5.60176 324.638 5.25251 324.937C4.90326 325.236 4.45924 325.402 3.99927 325.405C3.5393 325.408 3.09312 325.248 2.73995 324.954C2.38677 324.659 2.14944 324.249 2.07007 323.796C1.69314 321.625 1.4041 319.414 1.21479 317.22C1.17856 316.711 1.34401 316.208 1.67543 315.82C2.00686 315.431 2.47769 315.189 2.98635 315.144C3.49501 315.1 4.00073 315.257 4.3944 315.582C4.78806 315.908 5.03812 316.374 5.09061 316.882C5.26978 318.965 5.54361 321.066 5.90195 323.125C5.9403 323.338 5.94202 323.556 5.90702 323.77ZM9.70002 284.005C9.67971 284.134 9.6463 284.261 9.60029 284.383C8.86332 286.339 8.20073 288.354 7.63111 290.369C7.56457 290.618 7.44917 290.851 7.29163 291.055C7.13408 291.259 6.93753 291.43 6.7134 291.558C6.48928 291.685 6.24204 291.767 5.98607 291.798C5.7301 291.829 5.4705 291.809 5.22237 291.739C4.97424 291.669 4.74252 291.55 4.54069 291.389C4.33886 291.229 4.17095 291.03 4.0467 290.804C3.92246 290.578 3.84437 290.33 3.81698 290.073C3.78958 289.817 3.81343 289.558 3.88713 289.31C4.48718 287.189 5.18527 285.07 5.95942 283.011C6.13022 282.561 6.46178 282.19 6.89001 281.97C7.31823 281.75 7.81272 281.697 8.27791 281.821C8.7431 281.944 9.14595 282.236 9.40862 282.639C9.67128 283.043 9.7751 283.529 9.70002 284.005ZM4.89792 306.866C4.8165 307.356 4.55079 307.796 4.15525 308.096C3.7597 308.397 3.26427 308.534 2.77047 308.481C2.27668 308.428 1.82191 308.188 1.49936 307.81C1.1768 307.433 1.01089 306.946 1.03562 306.45C1.15225 304.253 1.37368 302.033 1.67286 299.858C1.67203 299.844 1.67203 299.83 1.67286 299.816C1.74974 299.306 2.02604 298.847 2.44098 298.541C2.85592 298.235 3.37551 298.106 3.88544 298.183C4.39537 298.26 4.85387 298.536 5.16008 298.951C5.4663 299.366 5.59514 299.885 5.51825 300.395C5.22922 302.469 5.02638 304.579 4.91482 306.665C4.9136 306.732 4.90909 306.799 4.9013 306.866H4.89792Z" fill="#BCBCBC"/>
<path d="M25.9785 258.278C25.9162 258.669 25.735 259.032 25.4596 259.317C24.7632 260.039 24.0701 260.788 23.3991 261.542C23.0564 261.927 22.5746 262.161 22.0599 262.191C21.5451 262.221 21.0394 262.045 20.6541 261.702C20.2688 261.36 20.0354 260.878 20.0053 260.363C19.9752 259.848 20.1508 259.343 20.4935 258.957C21.1983 258.163 21.9269 257.377 22.6588 256.618C22.946 256.319 23.3213 256.12 23.7298 256.05C24.1382 255.979 24.5585 256.041 24.9292 256.227C25.3 256.412 25.6018 256.711 25.7905 257.08C25.9793 257.449 26.0451 257.869 25.9785 258.278Z" fill="#BCBCBC"/>
</g>
<g opacity="0.3">
<path d="M80.539 235.067C80.4652 235.523 80.2314 235.938 79.8796 236.238C79.5278 236.537 79.0809 236.702 78.6189 236.702C77.6165 236.702 76.5905 236.72 75.5882 236.761C75.0759 236.776 74.5782 236.589 74.2032 236.239C73.8282 235.89 73.6063 235.407 73.5856 234.895C73.5649 234.383 73.7471 233.883 74.0926 233.504C74.4382 233.126 74.9191 232.899 75.431 232.873C76.4925 232.831 77.5658 232.811 78.6223 232.811C78.8777 232.811 79.1305 232.861 79.3664 232.959C79.6023 233.057 79.8165 233.201 79.9969 233.382C80.1772 233.563 80.3202 233.777 80.4176 234.013C80.5149 234.249 80.5648 234.502 80.5644 234.758C80.5645 234.861 80.556 234.965 80.539 235.067Z" fill="#BCBCBC"/>
<path d="M155.329 322.789C155.187 323.672 155.029 324.557 154.856 325.441C154.809 325.694 154.713 325.936 154.573 326.152C154.432 326.367 154.25 326.553 154.038 326.698C153.825 326.843 153.585 326.944 153.333 326.996C153.081 327.048 152.821 327.049 152.568 327C152.316 326.95 152.075 326.851 151.861 326.708C151.647 326.565 151.464 326.381 151.321 326.167C151.179 325.952 151.08 325.712 151.032 325.459C150.983 325.206 150.985 324.946 151.037 324.694C151.436 322.652 151.754 320.597 151.979 318.565C152 318.306 152.073 318.053 152.194 317.823C152.314 317.592 152.48 317.388 152.681 317.223C152.882 317.057 153.114 316.934 153.363 316.86C153.612 316.786 153.874 316.762 154.133 316.791C154.391 316.82 154.641 316.9 154.868 317.027C155.095 317.154 155.294 317.325 155.454 317.531C155.614 317.736 155.731 317.972 155.798 318.223C155.865 318.474 155.881 318.737 155.844 318.994C155.706 320.252 155.532 321.528 155.329 322.789ZM152.197 335.36C152.179 335.469 152.153 335.576 152.117 335.681C151.416 337.735 150.62 339.781 149.751 341.766C149.649 342 149.501 342.211 149.317 342.388C149.133 342.565 148.916 342.704 148.678 342.797C148.44 342.889 148.186 342.935 147.931 342.929C147.676 342.924 147.424 342.869 147.19 342.766C146.956 342.664 146.745 342.517 146.568 342.332C146.391 342.148 146.252 341.931 146.16 341.693C146.067 341.456 146.021 341.202 146.027 340.947C146.032 340.691 146.087 340.44 146.19 340.206C147.014 338.323 147.77 336.377 148.438 334.427C148.595 333.966 148.919 333.581 149.347 333.347C149.774 333.114 150.274 333.05 150.747 333.168C151.219 333.285 151.63 333.576 151.899 333.982C152.168 334.388 152.274 334.88 152.197 335.361V335.36ZM156.267 308.768C156.188 309.245 155.934 309.675 155.555 309.975C155.176 310.275 154.699 310.424 154.217 310.391C153.735 310.359 153.282 310.148 152.946 309.8C152.611 309.451 152.417 308.991 152.403 308.508C152.349 306.454 152.207 304.375 151.979 302.326C151.943 302.069 151.959 301.807 152.027 301.556C152.094 301.305 152.211 301.07 152.37 300.865C152.53 300.66 152.729 300.489 152.955 300.362C153.182 300.235 153.432 300.154 153.69 300.126C153.949 300.097 154.21 300.12 154.459 300.194C154.708 300.268 154.94 300.391 155.141 300.556C155.342 300.721 155.507 300.924 155.628 301.154C155.749 301.385 155.823 301.636 155.844 301.895C156.084 304.052 156.235 306.243 156.292 308.406C156.296 308.528 156.287 308.649 156.267 308.768ZM145.111 350.454C145.07 350.704 144.98 350.944 144.847 351.16C143.713 353.008 142.481 354.83 141.202 356.569C140.891 356.973 140.435 357.238 139.931 357.309C139.427 357.38 138.916 357.251 138.506 356.949C138.096 356.647 137.821 356.197 137.74 355.695C137.658 355.192 137.776 354.678 138.069 354.262C139.29 352.606 140.454 350.882 141.533 349.12C141.769 348.736 142.13 348.446 142.556 348.299C142.982 348.153 143.445 348.158 143.868 348.315C144.29 348.472 144.645 348.77 144.872 349.159C145.098 349.548 145.183 350.004 145.111 350.449V350.454ZM153.994 292.262C153.922 292.704 153.701 293.108 153.367 293.406C153.033 293.703 152.606 293.877 152.159 293.897C151.712 293.917 151.272 293.782 150.913 293.515C150.553 293.248 150.297 292.865 150.187 292.432C149.68 290.44 149.085 288.442 148.412 286.494C148.324 286.251 148.284 285.993 148.297 285.735C148.309 285.476 148.372 285.223 148.483 284.99C148.594 284.757 148.751 284.548 148.944 284.376C149.136 284.203 149.362 284.071 149.606 283.987C149.85 283.903 150.109 283.868 150.367 283.885C150.625 283.902 150.877 283.97 151.108 284.085C151.339 284.201 151.545 284.361 151.714 284.557C151.883 284.753 152.011 284.98 152.09 285.226C152.799 287.276 153.426 289.379 153.95 291.48C154.014 291.736 154.027 292.002 153.987 292.262H153.994ZM148.145 276.656C148.08 277.062 147.888 277.436 147.597 277.726C147.305 278.015 146.93 278.205 146.524 278.269C146.118 278.332 145.703 278.265 145.337 278.078C144.972 277.89 144.675 277.592 144.489 277.226C143.559 275.388 142.54 273.568 141.462 271.817C141.199 271.378 141.119 270.853 141.24 270.355C141.362 269.858 141.674 269.428 142.11 269.16C142.546 268.891 143.07 268.806 143.569 268.921C144.068 269.037 144.501 269.344 144.775 269.777C145.909 271.621 146.981 273.536 147.959 275.47C148.141 275.837 148.201 276.252 148.132 276.656H148.145ZM139.035 262.694C138.975 263.064 138.81 263.408 138.559 263.686C138.309 263.965 137.983 264.164 137.622 264.262C137.261 264.36 136.879 264.352 136.522 264.238C136.166 264.124 135.85 263.91 135.612 263.621C134.302 262.027 132.907 260.472 131.477 258.998C131.283 258.818 131.127 258.601 131.019 258.359C130.911 258.118 130.854 257.856 130.85 257.592C130.847 257.327 130.898 257.065 130.999 256.82C131.101 256.576 131.251 256.355 131.441 256.17C131.631 255.986 131.857 255.843 132.104 255.749C132.352 255.654 132.616 255.612 132.88 255.623C133.145 255.635 133.404 255.7 133.642 255.815C133.881 255.931 134.093 256.093 134.266 256.293C135.776 257.845 137.24 259.481 138.617 261.156C138.79 261.369 138.916 261.616 138.987 261.881C139.058 262.146 139.072 262.424 139.028 262.694H139.035ZM127.096 251.055C127.042 251.388 126.901 251.702 126.689 251.964C126.477 252.227 126.2 252.43 125.885 252.553C125.571 252.676 125.23 252.715 124.896 252.667C124.562 252.619 124.246 252.484 123.979 252.277C122.355 251.009 120.658 249.798 118.935 248.675C118.713 248.54 118.521 248.361 118.369 248.149C118.217 247.938 118.109 247.698 118.052 247.444C117.995 247.19 117.989 246.928 118.035 246.671C118.08 246.415 118.177 246.171 118.319 245.953C118.461 245.735 118.646 245.547 118.862 245.402C119.077 245.256 119.32 245.156 119.575 245.106C119.831 245.056 120.094 245.057 120.348 245.111C120.603 245.164 120.845 245.268 121.058 245.416C122.874 246.599 124.662 247.876 126.371 249.209C126.645 249.425 126.856 249.709 126.982 250.034C127.108 250.359 127.146 250.711 127.089 251.055H127.096ZM112.888 242.316C112.84 242.614 112.723 242.896 112.547 243.141C112.372 243.385 112.141 243.586 111.875 243.727C111.608 243.867 111.313 243.944 111.012 243.951C110.711 243.958 110.412 243.895 110.139 243.767C108.28 242.891 106.358 242.076 104.426 241.366C104.178 241.284 103.949 241.153 103.753 240.98C103.557 240.808 103.397 240.598 103.284 240.362C103.171 240.127 103.107 239.871 103.095 239.61C103.082 239.349 103.123 239.088 103.214 238.843C103.305 238.598 103.444 238.374 103.623 238.184C103.803 237.994 104.018 237.842 104.258 237.737C104.497 237.633 104.755 237.577 105.016 237.574C105.278 237.571 105.537 237.621 105.778 237.72C107.807 238.476 109.835 239.326 111.792 240.256C112.172 240.436 112.483 240.734 112.679 241.105C112.875 241.476 112.946 241.901 112.881 242.316H112.888ZM97.1172 236.907C97.1172 236.946 97.1037 236.987 97.0953 237.026C96.9823 237.529 96.6739 237.967 96.2381 238.243C95.8022 238.519 95.2746 238.611 94.7711 238.498C93.2921 238.16 91.7861 237.876 90.2919 237.634C89.751 237.547 89.2107 237.467 88.6709 237.393C88.4175 237.357 88.1736 237.273 87.953 237.143C87.7324 237.014 87.5395 236.842 87.3853 236.638C87.2311 236.434 87.1187 236.201 87.0545 235.954C86.9903 235.706 86.9755 235.448 87.011 235.195C87.0435 234.941 87.1265 234.695 87.2552 234.473C87.3839 234.251 87.5556 234.057 87.7604 233.903C87.9651 233.748 88.1986 233.636 88.4473 233.573C88.696 233.51 88.9547 233.497 89.2084 233.535C89.7718 233.615 90.3403 233.7 90.9139 233.791C92.4842 234.044 94.0714 234.35 95.6264 234.698C96.1099 234.809 96.5327 235.1 96.8086 235.513C97.0844 235.925 97.1924 236.427 97.1105 236.916L97.1172 236.907Z" fill="#BCBCBC"/>
<path d="M134.827 363.647C134.763 364.042 134.579 364.408 134.3 364.694C133.564 365.448 132.8 366.201 132.028 366.932C131.844 367.115 131.625 367.261 131.384 367.358C131.143 367.456 130.885 367.505 130.625 367.501C130.365 367.497 130.108 367.441 129.87 367.337C129.632 367.232 129.418 367.081 129.239 366.892C129.06 366.703 128.921 366.481 128.83 366.237C128.739 365.993 128.698 365.734 128.709 365.474C128.72 365.214 128.782 364.959 128.894 364.724C129.005 364.489 129.162 364.279 129.356 364.105C130.089 363.411 130.816 362.696 131.514 361.979C131.803 361.683 132.178 361.487 132.586 361.419C132.993 361.351 133.412 361.415 133.781 361.6C134.15 361.786 134.451 362.085 134.639 362.453C134.827 362.821 134.893 363.239 134.827 363.647Z" fill="#BCBCBC"/>
</g>
<g opacity="0.3">
<path d="M116.486 460.133C116.445 460.389 116.322 460.625 116.135 460.805C115.948 460.986 115.708 461.101 115.45 461.133C114.436 461.26 113.41 461.36 112.391 461.427C112.08 461.436 111.777 461.324 111.547 461.115C111.317 460.906 111.177 460.615 111.157 460.305C111.137 459.994 111.237 459.688 111.438 459.45C111.639 459.213 111.924 459.062 112.234 459.03C113.204 458.966 114.184 458.872 115.151 458.75C115.307 458.73 115.466 458.741 115.618 458.783C115.77 458.824 115.913 458.895 116.037 458.992C116.162 459.088 116.266 459.208 116.345 459.345C116.423 459.482 116.473 459.633 116.493 459.789C116.507 459.904 116.505 460.019 116.486 460.133Z" fill="#BCBCBC"/>
<path d="M107.25 460.445C107.204 460.74 107.05 461.007 106.818 461.194C106.587 461.382 106.293 461.476 105.996 461.459C104.236 461.357 102.482 461.165 100.742 460.885C100.377 460.826 100.011 460.764 99.6451 460.697C99.3367 460.63 99.0654 460.448 98.8862 460.188C98.707 459.928 98.6332 459.61 98.68 459.298C98.7082 459.142 98.7668 458.995 98.8523 458.862C98.9378 458.73 99.0485 458.615 99.1781 458.526C99.3078 458.436 99.4538 458.373 99.6079 458.34C99.762 458.307 99.9211 458.304 100.076 458.332C100.427 458.397 100.776 458.457 101.124 458.513C102.784 458.779 104.456 458.962 106.134 459.061C106.452 459.08 106.75 459.224 106.962 459.462C107.174 459.7 107.283 460.012 107.265 460.33C107.262 460.364 107.256 460.406 107.25 460.445ZM94.9816 458.202C94.9719 458.259 94.959 458.316 94.9427 458.371C94.8474 458.675 94.6353 458.929 94.353 459.077C94.0706 459.225 93.7411 459.255 93.4367 459.161C91.4002 458.525 89.4047 457.765 87.4615 456.884C87.3179 456.819 87.1886 456.726 87.0808 456.611C86.973 456.496 86.889 456.36 86.8336 456.213C86.7781 456.065 86.7522 455.908 86.7574 455.75C86.7627 455.593 86.7989 455.438 86.864 455.294C86.9292 455.15 87.022 455.021 87.1371 454.913C87.2523 454.806 87.3875 454.722 87.5351 454.666C87.6828 454.611 87.8399 454.585 87.9975 454.59C88.1551 454.595 88.3101 454.631 88.4537 454.697C90.3077 455.535 92.2112 456.26 94.1534 456.867C94.4285 456.953 94.6635 457.136 94.8155 457.381C94.9675 457.626 95.0265 457.917 94.9816 458.202ZM83.6229 453.05C83.5912 453.245 83.5121 453.429 83.3926 453.585C83.2731 453.742 83.1169 453.867 82.9377 453.949C82.7585 454.032 82.5618 454.068 82.365 454.057C82.1682 454.045 81.9774 453.985 81.8092 453.882C79.9881 452.766 78.2381 451.537 76.5694 450.204C76.3301 450.002 76.1792 449.714 76.1488 449.403C76.1184 449.091 76.2108 448.78 76.4064 448.535C76.6021 448.29 76.8855 448.132 77.1962 448.093C77.507 448.054 77.8206 448.139 78.0703 448.328C79.6595 449.599 81.3265 450.77 83.0617 451.833C83.2652 451.958 83.4272 452.14 83.5271 452.357C83.627 452.573 83.6603 452.815 83.6229 453.05ZM73.8784 445.263C73.843 445.483 73.7473 445.688 73.6019 445.857C73.4564 446.025 73.2671 446.15 73.0549 446.217C72.8427 446.284 72.6161 446.29 72.4004 446.236C72.1847 446.182 71.9883 446.068 71.8332 445.909C70.343 444.38 68.9482 442.761 67.6565 441.061C67.4637 440.807 67.3797 440.487 67.423 440.171C67.4663 439.855 67.6333 439.569 67.8872 439.377C68.1412 439.184 68.4613 439.1 68.7772 439.143C69.0931 439.186 69.3788 439.353 69.5716 439.607C70.8021 441.228 72.1315 442.772 73.5522 444.229C73.6841 444.363 73.7824 444.527 73.839 444.707C73.8957 444.887 73.9092 445.077 73.8784 445.263ZM66.3313 435.331C66.2918 435.575 66.1778 435.802 66.0048 435.979C65.8318 436.156 65.6083 436.276 65.3648 436.321C65.1214 436.366 64.8699 436.335 64.6447 436.232C64.4195 436.129 64.2317 435.959 64.1069 435.745C63.0341 433.902 62.0745 431.995 61.2334 430.035C61.1079 429.743 61.1038 429.412 61.222 429.116C61.3403 428.821 61.5712 428.584 61.8639 428.458C62.1566 428.333 62.4872 428.329 62.783 428.447C63.0787 428.565 63.3154 428.796 63.4409 429.089C64.2432 430.959 65.1588 432.778 66.1826 434.537C66.3218 434.776 66.3744 435.057 66.3313 435.331ZM61.4295 423.873C61.386 424.142 61.252 424.389 61.0496 424.572C60.8471 424.755 60.5883 424.864 60.3158 424.881C60.0433 424.897 59.7732 424.82 59.5501 424.663C59.327 424.506 59.1642 424.277 59.0884 424.015C58.4963 421.966 58.0317 419.883 57.6973 417.777C57.6733 417.476 57.7637 417.176 57.9508 416.939C58.1378 416.701 58.4076 416.542 58.7063 416.495C59.005 416.447 59.3106 416.514 59.5623 416.682C59.8139 416.85 59.993 417.106 60.0637 417.4C60.3817 419.408 60.8248 421.394 61.3906 423.347C61.438 423.518 61.4473 423.697 61.4177 423.873H61.4295ZM59.4721 411.564C59.4255 411.859 59.2703 412.127 59.0369 412.313C58.8035 412.5 58.5087 412.593 58.2103 412.574C57.912 412.555 57.6314 412.426 57.4237 412.211C57.2159 411.995 57.0959 411.711 57.0871 411.412C57.0165 409.279 57.0769 407.144 57.268 405.019C57.2795 404.86 57.3227 404.705 57.3949 404.562C57.4671 404.42 57.567 404.293 57.6886 404.19C57.8103 404.087 57.9513 404.009 58.1035 403.96C58.2556 403.912 58.4159 403.895 58.5749 403.909C58.7338 403.923 58.8883 403.969 59.0294 404.044C59.1704 404.119 59.2952 404.221 59.3963 404.344C59.4975 404.468 59.573 404.61 59.6186 404.763C59.6641 404.916 59.6787 405.077 59.6614 405.236C59.4794 407.262 59.423 409.297 59.4924 411.331C59.4926 411.409 59.4841 411.487 59.4671 411.564H59.4721ZM62.2882 393.126C62.2777 393.197 62.2601 393.266 62.2358 393.333C61.6545 395.003 61.1625 396.704 60.7618 398.427C60.6993 398.689 60.6418 398.946 60.5928 399.203C60.5255 399.515 60.3372 399.787 60.0692 399.96C59.8012 400.133 59.4754 400.192 59.1637 400.125C58.8519 400.058 58.5796 399.869 58.4066 399.601C58.2337 399.333 58.1744 399.008 58.2416 398.696C58.3025 398.422 58.3633 398.148 58.4275 397.874C58.8453 396.074 59.3582 394.296 59.964 392.55C60.0619 392.265 60.263 392.028 60.5275 391.885C60.792 391.742 61.1006 391.703 61.3923 391.777C61.684 391.85 61.9374 392.031 62.1023 392.282C62.2673 392.534 62.3318 392.838 62.2831 393.135L62.2882 393.126Z" fill="#BCBCBC"/>
</g>
<g opacity="0.3">
<path d="M160.277 417.203C160.206 417.496 160.027 417.751 159.777 417.918C159.527 418.085 159.223 418.152 158.925 418.106C158.628 418.059 158.358 417.903 158.171 417.668C157.983 417.432 157.89 417.135 157.911 416.835C158.204 414.855 158.377 412.86 158.428 410.86C158.428 410.699 158.46 410.54 158.522 410.392C158.585 410.244 158.676 410.11 158.791 409.998C158.906 409.886 159.042 409.798 159.192 409.74C159.341 409.681 159.501 409.653 159.661 409.657C159.822 409.661 159.98 409.698 160.126 409.764C160.272 409.83 160.404 409.925 160.513 410.043C160.622 410.161 160.706 410.299 160.76 410.45C160.815 410.601 160.839 410.762 160.83 410.922C160.775 413.019 160.594 415.111 160.288 417.186L160.277 417.203ZM159.015 423.217C159.008 423.26 158.998 423.302 158.986 423.344C158.434 425.369 157.76 427.359 156.968 429.302C156.912 429.453 156.826 429.591 156.715 429.708C156.605 429.825 156.472 429.918 156.324 429.983C156.177 430.048 156.018 430.082 155.857 430.084C155.696 430.086 155.537 430.056 155.388 429.995C155.239 429.934 155.104 429.844 154.99 429.73C154.877 429.616 154.787 429.48 154.727 429.331C154.667 429.182 154.637 429.022 154.64 428.861C154.643 428.7 154.678 428.542 154.743 428.395C155.498 426.54 156.142 424.642 156.67 422.71C156.754 422.416 156.946 422.166 157.208 422.008C157.47 421.851 157.782 421.8 158.08 421.864C158.379 421.929 158.642 422.105 158.815 422.356C158.989 422.607 159.06 422.915 159.015 423.217ZM160.588 404.942C160.541 405.23 160.391 405.49 160.166 405.675C159.94 405.86 159.656 405.957 159.364 405.948C159.073 405.938 158.795 405.823 158.582 405.624C158.369 405.425 158.236 405.156 158.207 404.866C158.012 402.874 157.697 400.896 157.264 398.941C157.201 398.633 157.262 398.312 157.434 398.048C157.605 397.784 157.874 397.598 158.181 397.529C158.489 397.461 158.811 397.516 159.078 397.683C159.345 397.85 159.536 398.115 159.61 398.421C160.064 400.47 160.394 402.544 160.599 404.633C160.609 404.736 160.605 404.84 160.588 404.942ZM154.385 434.579C154.364 434.718 154.317 434.852 154.248 434.975C153.225 436.808 152.09 438.577 150.849 440.271C150.656 440.515 150.376 440.675 150.068 440.718C149.759 440.76 149.447 440.681 149.195 440.497C148.944 440.313 148.774 440.039 148.721 439.732C148.668 439.426 148.736 439.11 148.91 438.852C150.093 437.237 151.175 435.55 152.151 433.802C152.289 433.556 152.509 433.367 152.773 433.267C153.036 433.167 153.327 433.163 153.593 433.256C153.86 433.348 154.085 433.532 154.23 433.774C154.374 434.016 154.429 434.301 154.385 434.579ZM157.935 392.97C157.892 393.233 157.763 393.475 157.568 393.657C157.373 393.839 157.123 393.951 156.857 393.976C156.591 394 156.325 393.935 156.1 393.791C155.875 393.647 155.705 393.433 155.616 393.181C154.948 391.294 154.166 389.449 153.275 387.657C153.204 387.516 153.163 387.362 153.152 387.204C153.141 387.047 153.161 386.889 153.212 386.739C153.262 386.589 153.341 386.451 153.445 386.332C153.549 386.213 153.675 386.116 153.816 386.045C153.958 385.975 154.112 385.933 154.269 385.923C154.427 385.912 154.585 385.932 154.734 385.983C154.884 386.033 155.022 386.112 155.141 386.216C155.26 386.32 155.358 386.446 155.428 386.587C156.36 388.467 157.179 390.401 157.881 392.378C157.948 392.568 157.966 392.771 157.935 392.97ZM152.478 381.983C152.442 382.224 152.332 382.448 152.165 382.625C151.998 382.803 151.78 382.925 151.542 382.976C151.304 383.027 151.055 383.004 150.83 382.911C150.605 382.817 150.413 382.658 150.281 382.453C149.18 380.781 147.98 379.176 146.688 377.647C146.486 377.404 146.389 377.09 146.417 376.775C146.445 376.46 146.596 376.169 146.837 375.965C147.079 375.76 147.391 375.659 147.706 375.683C148.021 375.708 148.314 375.855 148.522 376.094C149.877 377.697 151.135 379.379 152.289 381.133C152.454 381.384 152.519 381.688 152.472 381.985L152.478 381.983ZM144.548 372.62C144.51 372.854 144.404 373.071 144.242 373.244C144.026 373.476 143.727 373.614 143.41 373.626C143.093 373.639 142.785 373.525 142.551 373.31C141.083 371.949 139.533 370.679 137.91 369.507C137.665 369.316 137.503 369.037 137.459 368.729C137.415 368.421 137.493 368.108 137.675 367.856C137.857 367.603 138.13 367.432 138.436 367.376C138.742 367.321 139.058 367.387 139.316 367.56C141.019 368.789 142.645 370.121 144.186 371.547C144.329 371.683 144.436 371.853 144.498 372.04C144.56 372.228 144.575 372.428 144.541 372.622L144.548 372.62Z" fill="#BCBCBC"/>
<path d="M147.095 444.525C147.056 444.762 146.948 444.982 146.784 445.156C146.079 445.906 145.35 446.637 144.615 447.331C144.501 447.443 144.366 447.53 144.218 447.589C144.069 447.647 143.911 447.676 143.752 447.672C143.592 447.669 143.435 447.634 143.29 447.57C143.144 447.505 143.012 447.412 142.903 447.297C142.793 447.181 142.708 447.044 142.652 446.895C142.595 446.746 142.569 446.587 142.575 446.428C142.581 446.269 142.618 446.112 142.685 445.968C142.751 445.823 142.846 445.693 142.964 445.585C143.665 444.923 144.361 444.225 145.034 443.511C145.211 443.325 145.442 443.199 145.695 443.154C145.947 443.108 146.208 443.145 146.438 443.258C146.669 443.372 146.857 443.556 146.975 443.784C147.093 444.012 147.135 444.272 147.095 444.525Z" fill="#BCBCBC"/>
</g>
<path d="M117.529 411.018C117.152 413.343 115.888 415.432 114.003 416.844C112.118 418.256 109.759 418.883 107.422 418.592C105.085 418.301 102.951 417.116 101.47 415.285C99.9889 413.453 99.2754 411.119 99.4796 408.773C99.6838 406.426 100.79 404.25 102.565 402.702C104.34 401.154 106.646 400.355 108.999 400.472C111.351 400.589 113.567 401.614 115.179 403.331C116.792 405.048 117.676 407.323 117.646 409.678C117.639 410.127 117.6 410.575 117.529 411.018ZM101.961 408.483C101.813 409.391 101.854 410.32 102.081 411.212C102.308 412.103 102.717 412.938 103.282 413.665C103.847 414.391 104.556 414.993 105.364 415.433C106.172 415.872 107.063 416.141 107.979 416.22C108.896 416.3 109.819 416.19 110.691 415.896C111.563 415.603 112.366 415.133 113.048 414.515C113.729 413.897 114.276 413.145 114.654 412.306C115.032 411.467 115.233 410.559 115.244 409.639C115.263 407.953 114.645 406.322 113.513 405.072C112.381 403.823 110.819 403.047 109.139 402.901C107.459 402.754 105.786 403.248 104.455 404.284C103.124 405.319 102.233 406.819 101.961 408.483Z" fill="#2ECC82"/>
<path d="M130.796 412.981C130.675 413.732 130.515 414.482 130.316 415.231C129.92 416.72 129.372 418.165 128.683 419.543L128.59 419.727C128.475 419.953 128.291 420.137 128.065 420.252C127.839 420.367 127.582 420.407 127.331 420.368C127.206 420.347 127.085 420.307 126.973 420.25C126.69 420.104 126.476 419.852 126.378 419.549C126.281 419.246 126.307 418.917 126.452 418.634C127.107 417.352 127.624 416.004 127.994 414.612C128.014 414.536 128.034 414.459 128.053 414.383C128.891 411.135 128.9 407.729 128.08 404.477C127.633 402.71 126.951 401.011 126.052 399.425C126.052 399.412 126.036 399.398 126.03 399.385L125.96 399.266C124.062 395.989 121.282 393.31 117.936 391.536C114.59 389.761 110.813 388.962 107.035 389.229C103.257 389.496 99.6298 390.819 96.5668 393.047C93.5037 395.274 91.1278 398.317 89.7096 401.829C88.2914 405.341 87.8879 409.181 88.5451 412.911C89.2023 416.64 90.8938 420.111 93.4269 422.927C95.9599 425.742 99.2328 427.79 102.873 428.837C106.513 429.883 110.373 429.887 114.015 428.846C114.317 428.771 114.637 428.816 114.907 428.971C115.177 429.127 115.375 429.381 115.461 429.681C115.547 429.98 115.514 430.301 115.367 430.576C115.221 430.851 114.974 431.059 114.678 431.155C111.492 432.067 108.145 432.266 104.874 431.738C104.117 431.617 103.367 431.457 102.626 431.26C97.0203 429.767 92.2023 426.177 89.167 421.233C86.1317 416.29 85.1109 410.369 86.3156 404.694C87.5203 399.019 90.8584 394.024 95.6404 390.74C100.422 387.455 106.283 386.133 112.012 387.046C112.779 387.169 113.539 387.331 114.289 387.531C125.59 390.551 132.618 401.667 130.796 412.981Z" fill="#2ECC82"/>
<path d="M163.114 24.3622C161.561 97.6241 156.522 350.332 158.931 439.885C159.184 449.371 165.692 456.985 173.795 457.295C213.904 458.829 360.941 462.722 426.546 459.502C440.212 458.826 451.077 445.884 451.361 429.887C452.725 352.989 455.733 136.705 448.584 37.6258C447.727 25.7634 439.763 16.2978 429.629 15.1146C385.958 10.0049 238.279 -2.49138 181.602 1.81208C171.378 2.58792 163.368 12.3831 163.114 24.3622Z" fill="url(#paint0_linear_1252_1010)"/>
<path d="M181.008 46.8386C178.849 105.972 172.039 302.693 174.199 375.43C174.515 386.062 181.679 394.658 190.764 395.28C228.145 397.84 355.675 403.482 410.501 398.347C420.374 397.422 428.12 388.082 428.655 376.512C431.423 316.192 439.403 133.016 437.339 61.0894C437.01 49.6158 429.412 40.2448 419.637 39.2188C379.197 34.9711 243.678 24.8633 197.092 27.8382C188.337 28.3926 181.381 36.6006 181.008 46.8386Z" fill="#181818" fill-opacity="0.35"/>
<path opacity="0.66" d="M262.238 14.6063C262.238 16.8544 263.736 18.7087 265.654 18.8321C275.128 19.4135 301.816 21.0548 313.743 21.8644C316.094 22.0335 317.94 19.5521 317.494 16.846L317.418 16.3845C317.113 14.537 315.805 13.1476 314.206 12.9769C306.143 12.1115 281.817 9.71635 265.695 10.3891C263.761 10.4685 262.238 12.3447 262.238 14.6063Z" fill="white"/>
<path opacity="0.54" d="M364.889 293.904H248.618C247.428 293.904 246.463 294.869 246.463 296.059V327.507C246.463 328.697 247.428 329.662 248.618 329.662H364.889C366.079 329.662 367.044 328.697 367.044 327.507V296.059C367.044 294.869 366.079 293.904 364.889 293.904Z" fill="white"/>
<path opacity="0.54" d="M365.426 339H249.155C247.965 339 247 339.965 247 341.155V354.725C247 355.915 247.965 356.88 249.155 356.88H365.426C366.617 356.88 367.581 355.915 367.581 354.725V341.155C367.581 339.965 366.617 339 365.426 339Z" fill="white"/>
<path d="M320.491 249.975C335.099 235.367 335.099 211.683 320.491 197.075C305.883 182.467 282.199 182.467 267.591 197.075C252.983 211.683 252.983 235.367 267.591 249.975C282.199 264.583 305.883 264.583 320.491 249.975Z" fill="url(#paint1_linear_1252_1010)"/>
<path opacity="0.7" d="M262.893 209.902C262.68 209.906 262.469 209.855 262.281 209.755C262.092 209.654 261.933 209.508 261.817 209.328C261.701 209.149 261.634 208.943 261.62 208.73C261.606 208.517 261.647 208.305 261.738 208.112C264.579 202.12 269.036 197.04 274.606 193.443C280.177 189.846 286.641 187.876 293.271 187.752C295.435 187.706 297.599 187.854 299.736 188.195C299.901 188.218 300.06 188.273 300.203 188.358C300.347 188.443 300.472 188.556 300.571 188.69C300.67 188.823 300.742 188.976 300.781 189.138C300.821 189.3 300.828 189.468 300.801 189.632C300.775 189.797 300.716 189.954 300.628 190.096C300.54 190.237 300.424 190.36 300.288 190.456C300.152 190.552 299.998 190.62 299.835 190.656C299.673 190.692 299.504 190.695 299.341 190.665C297.352 190.348 295.338 190.211 293.325 190.254C287.159 190.368 281.147 192.201 275.965 195.545C270.784 198.89 266.638 203.613 263.995 209.185C263.896 209.395 263.74 209.573 263.546 209.7C263.351 209.826 263.125 209.896 262.893 209.902Z" fill="white"/>
<path opacity="0.78" d="M317.259 246.709C329.622 234.345 329.622 214.3 317.259 201.936C304.895 189.572 284.85 189.572 272.486 201.936C260.122 214.3 260.122 234.345 272.486 246.709C284.85 259.072 304.895 259.072 317.259 246.709Z" fill="white"/>
<path d="M292.27 247.922L292.196 244.479C288.602 244.412 285.034 243.634 282.489 242.591C282.05 242.405 281.692 242.067 281.481 241.639C281.269 241.212 281.219 240.722 281.338 240.26L282.144 237.035C282.214 236.756 282.343 236.496 282.522 236.271C282.701 236.046 282.927 235.862 283.183 235.732C283.439 235.602 283.721 235.529 284.008 235.517C284.295 235.505 284.582 235.555 284.848 235.663C287.372 236.658 290.479 237.421 293.807 237.353C297.265 237.279 299.819 236.052 299.767 233.648C299.721 231.481 297.701 230.234 292.867 229.047C285.971 227.32 280.983 224.436 280.854 218.398C280.737 212.947 284.634 208.701 291.525 207.44L291.45 203.995C291.445 203.732 291.491 203.47 291.587 203.224C291.683 202.979 291.826 202.754 292.008 202.564C292.191 202.374 292.409 202.221 292.65 202.116C292.891 202.01 293.151 201.952 293.415 201.947L295.443 201.903C295.706 201.897 295.968 201.944 296.214 202.039C296.46 202.135 296.684 202.278 296.874 202.46C297.064 202.643 297.217 202.861 297.323 203.102C297.429 203.344 297.486 203.603 297.492 203.867L297.559 206.958C300.884 207.021 303.306 207.537 305.247 208.17C305.724 208.331 306.123 208.666 306.363 209.107C306.604 209.549 306.67 210.066 306.546 210.554L305.804 213.537C305.738 213.809 305.615 214.063 305.444 214.284C305.273 214.505 305.057 214.688 304.811 214.821C304.565 214.954 304.294 215.033 304.015 215.055C303.736 215.076 303.456 215.039 303.193 214.945C300.775 214.084 298.219 213.676 295.653 213.742C291.55 213.829 290.413 215.555 290.446 217.078C290.487 218.954 292.982 220.19 298.343 221.716C306.012 223.839 309.244 226.936 309.366 232.62C309.477 237.837 305.71 242.608 298.234 243.945L298.316 247.799C298.328 248.331 298.127 248.846 297.759 249.231C297.391 249.615 296.885 249.838 296.352 249.849L294.324 249.892C294.06 249.898 293.797 249.852 293.55 249.757C293.303 249.661 293.078 249.518 292.887 249.335C292.696 249.152 292.544 248.933 292.438 248.69C292.332 248.448 292.275 248.187 292.27 247.922Z" fill="#3E3E3E"/>
<path d="M375.775 209.406C394.418 190.762 394.418 160.535 375.775 141.891C357.131 123.247 326.903 123.247 308.259 141.891C289.616 160.535 289.616 190.762 308.259 209.406C326.903 228.05 357.131 228.05 375.775 209.406Z" fill="url(#paint2_linear_1252_1010)"/>
<path opacity="0.7" d="M302.261 157.88C302.071 157.884 301.883 157.844 301.711 157.761C301.567 157.693 301.438 157.596 301.331 157.478C301.225 157.359 301.142 157.22 301.089 157.07C301.036 156.919 301.013 156.76 301.021 156.6C301.03 156.441 301.069 156.285 301.138 156.14C308.562 140.614 323.856 130.741 341.048 130.372C343.786 130.313 346.525 130.5 349.23 130.932C349.393 130.951 349.549 131.004 349.691 131.086C349.833 131.167 349.957 131.277 350.055 131.408C350.153 131.538 350.225 131.687 350.264 131.846C350.303 132.005 350.31 132.17 350.285 132.332C350.259 132.493 350.201 132.648 350.114 132.786C350.027 132.925 349.913 133.045 349.779 133.138C349.644 133.232 349.493 133.297 349.332 133.331C349.172 133.364 349.007 133.365 348.847 133.333C346.286 132.925 343.693 132.748 341.1 132.804C324.831 133.153 310.359 142.497 303.332 157.188C303.235 157.392 303.084 157.564 302.895 157.686C302.705 157.808 302.486 157.875 302.261 157.88Z" fill="white"/>
<path opacity="0.78" d="M371.654 205.238C387.434 189.458 387.434 163.874 371.654 148.095C355.874 132.315 330.291 132.315 314.511 148.094C298.731 163.874 298.731 189.458 314.511 205.238C330.291 221.017 355.874 221.017 371.654 205.238Z" fill="white"/>
<path d="M339.76 206.792L339.665 202.397C335.08 202.311 330.524 201.327 327.276 199.987C326.714 199.75 326.257 199.32 325.988 198.774C325.718 198.228 325.654 197.603 325.807 197.014L326.834 192.896C326.924 192.541 327.088 192.21 327.317 191.924C327.545 191.638 327.832 191.404 328.158 191.238C328.484 191.072 328.842 190.978 329.208 190.962C329.573 190.946 329.938 191.008 330.277 191.145C333.499 192.414 337.465 193.39 341.716 193.298C346.129 193.204 349.388 191.637 349.322 188.566C349.263 185.797 346.685 184.206 340.515 182.693C331.712 180.486 325.349 176.806 325.183 169.102C325.034 162.146 330.007 156.727 338.803 155.116L338.709 150.722C338.694 150.043 338.95 149.386 339.419 148.895C339.889 148.404 340.535 148.12 341.214 148.105L343.796 148.049C344.476 148.035 345.133 148.291 345.624 148.761C346.114 149.231 346.398 149.877 346.413 150.556L346.497 154.503C350.74 154.582 353.842 155.24 356.301 156.05C356.911 156.254 357.42 156.681 357.728 157.245C358.035 157.809 358.118 158.469 357.959 159.092L357.013 162.9C356.928 163.247 356.771 163.572 356.553 163.854C356.334 164.136 356.059 164.369 355.745 164.539C355.431 164.708 355.085 164.81 354.729 164.837C354.373 164.864 354.016 164.816 353.679 164.697C350.593 163.599 347.33 163.079 344.055 163.162C338.815 163.274 337.37 165.475 337.412 167.42C337.463 169.814 340.639 171.392 347.491 173.336C357.276 176.041 361.402 179.996 361.558 187.252C361.7 193.909 356.891 199.999 347.349 201.699L347.456 206.618C347.47 207.297 347.214 207.954 346.744 208.445C346.274 208.936 345.628 209.22 344.949 209.234L342.366 209.288C341.69 209.301 341.037 209.045 340.549 208.577C340.06 208.11 339.777 207.468 339.76 206.792Z" fill="#3E3E3E"/>
<path d="M455.504 153.705C481.183 128.026 481.183 86.392 455.504 60.7129C429.825 35.0338 388.191 35.0338 362.512 60.7129C336.833 86.392 336.833 128.026 362.512 153.705C388.191 179.384 429.825 179.384 455.504 153.705Z" fill="url(#paint3_linear_1252_1010)"/>
<path d="M453.956 152.158C478.781 127.334 478.781 87.0844 453.956 62.2595C429.131 37.4346 388.882 37.4346 364.057 62.2595C339.232 87.0844 339.232 127.334 364.057 152.158C388.882 176.983 429.131 176.983 453.956 152.158Z" fill="url(#paint4_linear_1252_1010)"/>
<path opacity="0.7" d="M356.058 83.1173C355.873 83.1223 355.689 83.0829 355.522 83.0023C355.381 82.9356 355.255 82.8415 355.15 82.7258C355.046 82.61 354.965 82.4747 354.913 82.3276C354.861 82.1806 354.839 82.0247 354.847 81.869C354.856 81.7133 354.895 81.5608 354.963 81.4202C364.776 60.8951 384.994 47.8427 407.723 47.3559C411.344 47.2775 414.965 47.5253 418.541 48.0963C418.852 48.1461 419.13 48.3172 419.314 48.572C419.499 48.8269 419.575 49.1446 419.525 49.4553C419.475 49.7659 419.304 50.0441 419.049 50.2286C418.794 50.4131 418.476 50.4888 418.166 50.439C414.73 49.8911 411.252 49.6529 407.774 49.7274C385.946 50.1956 366.531 62.7308 357.104 82.4429C357.01 82.6414 356.862 82.8097 356.677 82.9288C356.492 83.0479 356.278 83.1132 356.058 83.1173Z" fill="white"/>
<path opacity="0.78" d="M448.466 146.607C469.478 125.596 469.478 91.5293 448.466 70.5177C427.455 49.5062 393.388 49.5062 372.377 70.5177C351.365 91.5293 351.365 125.596 372.377 146.607C393.388 167.619 427.455 167.619 448.466 146.607Z" fill="white"/>
<path d="M406 148.667L405.875 142.814C399.768 142.701 393.705 141.391 389.378 139.602C388.631 139.287 388.023 138.714 387.663 137.987C387.304 137.26 387.218 136.429 387.42 135.644L388.791 130.161C388.91 129.688 389.129 129.247 389.433 128.866C389.737 128.485 390.119 128.174 390.554 127.953C390.988 127.732 391.464 127.607 391.951 127.586C392.438 127.564 392.923 127.648 393.375 127.83C397.665 129.52 402.944 130.818 408.605 130.703C414.48 130.578 418.819 128.491 418.733 124.408C418.654 120.724 415.221 118.604 407.008 116.589C395.285 113.652 386.812 108.751 386.592 98.4931C386.393 89.2303 393.015 82.0145 404.726 79.8695L404.601 74.0178C404.58 73.1136 404.92 72.2384 405.544 71.5845C406.169 70.9306 407.028 70.5515 407.932 70.5307L411.37 70.458C411.819 70.4472 412.265 70.5251 412.683 70.687C413.102 70.849 413.484 71.0919 413.808 71.4018C414.133 71.7117 414.393 72.0826 414.574 72.4932C414.755 72.9038 414.853 73.3461 414.862 73.7946L414.974 79.0497C420.624 79.1545 424.754 80.0318 428.04 81.1085C428.852 81.381 429.531 81.9506 429.941 82.703C430.351 83.4555 430.461 84.335 430.249 85.1652L428.99 90.236C428.876 90.6974 428.667 91.1299 428.376 91.5056C428.085 91.8813 427.719 92.1918 427.3 92.4172C426.882 92.6425 426.421 92.7777 425.947 92.8139C425.473 92.8502 424.997 92.7868 424.549 92.6278C420.439 91.1658 416.095 90.4731 411.734 90.5842C404.763 90.733 402.833 93.6639 402.888 96.2534C402.956 99.4413 407.187 101.542 416.309 104.137C429.34 107.744 434.833 113.006 435.039 122.668C435.229 131.531 428.827 139.64 416.122 141.905L416.262 148.454C416.271 148.902 416.193 149.347 416.03 149.765C415.868 150.182 415.625 150.563 415.315 150.887C415.005 151.21 414.635 151.469 414.224 151.649C413.814 151.829 413.373 151.927 412.925 151.936L409.485 152.011C409.037 152.021 408.591 151.942 408.173 151.78C407.754 151.617 407.372 151.373 407.049 151.063C406.725 150.752 406.466 150.381 406.286 149.97C406.106 149.559 406.009 149.116 406 148.667Z" fill="url(#paint5_linear_1252_1010)"/>
<path d="M257.755 1.06641H32.4456C30.4973 1.06641 28.918 2.64578 28.918 4.59403V114.539C28.918 116.487 30.4973 118.066 32.4456 118.066H257.755C259.704 118.066 261.283 116.487 261.283 114.539V4.59403C261.283 2.64578 259.704 1.06641 257.755 1.06641Z" fill="#2ECC82"/>
<path opacity="0.41" d="M250.656 15.5566H37.3518C35.4036 15.5566 33.8242 17.136 33.8242 19.0843V112.52C33.8242 114.468 35.4036 116.047 37.3518 116.047H250.656C252.604 116.047 254.183 114.468 254.183 112.52V19.0843C254.183 17.136 252.604 15.5566 250.656 15.5566Z" fill="white"/>
<g opacity="0.67">
<path d="M54.3549 34.418H41.0371V111.255H54.3549V34.418Z" fill="white"/>
</g>
<g opacity="0.67">
<path d="M72.2396 34.418H58.9219V111.255H72.2396V34.418Z" fill="white"/>
</g>
<g opacity="0.67">
<path d="M89.7533 34.418H76.4355V111.255H89.7533V34.418Z" fill="white"/>
</g>
<g opacity="0.67">
<path d="M107.634 34.418H94.3164V111.255H107.634V34.418Z" fill="white"/>
</g>
<g opacity="0.67">
<path d="M124.619 34.418H111.301V111.255H124.619V34.418Z" fill="white"/>
</g>
<g opacity="0.67">
<path d="M142.499 34.418H129.182V111.255H142.499V34.418Z" fill="white"/>
</g>
<g opacity="0.67">
<path d="M160.009 34.418H146.691V111.255H160.009V34.418Z" fill="white"/>
</g>
<g opacity="0.67">
<path d="M177.898 34.418H164.58V111.255H177.898V34.418Z" fill="white"/>
</g>
<g opacity="0.67">
<path d="M195.724 34.418H182.406V111.255H195.724V34.418Z" fill="white"/>
</g>
<g opacity="0.67">
<path d="M213.607 34.418H200.289V111.255H213.607V34.418Z" fill="white"/>
</g>
<g opacity="0.67">
<path d="M231.12 34.418H217.803V111.255H231.12V34.418Z" fill="white"/>
</g>
<g opacity="0.67">
<path d="M249.007 34.418H235.689V111.255H249.007V34.418Z" fill="white"/>
</g>
<path d="M261.341 25.5263V8.24313C261.329 6.29574 260.547 4.43217 259.166 3.0591C257.785 1.68602 255.917 0.914918 253.969 0.914062H36.2371C35.2783 0.917161 34.3296 1.10929 33.4452 1.47946C32.5608 1.84962 31.7581 2.39056 31.083 3.0713C30.4079 3.75205 29.8737 4.55925 29.5109 5.44669C29.1482 6.33414 28.964 7.28441 28.9688 8.24313V25.5263H261.341Z" fill="#2ECC82"/>
<path d="M54.4349 74.1602H41.1172V111.253H54.4349V74.1602Z" fill="#2ECC82"/>
<path d="M72.3216 62.8066H59.0039V111.257H72.3216V62.8066Z" fill="#2ECC82"/>
<path d="M89.8334 83.1914H76.5156V111.253H89.8334V83.1914Z" fill="#2ECC82"/>
<path d="M107.718 52.6426H94.4004V111.257H107.718V52.6426Z" fill="#2ECC82"/>
<path d="M124.697 42.8281H111.379V111.254H124.697V42.8281Z" fill="#2ECC82"/>
<path d="M142.583 90.4043H129.266V111.256H142.583V90.4043Z" fill="#2ECC82"/>
<path d="M160.093 69.582H146.775V111.259H160.093V69.582Z" fill="#2ECC82"/>
<path d="M177.98 62.8066H164.662V111.257H177.98V62.8066Z" fill="#2ECC82"/>
<path d="M195.802 72.834H182.484V111.252H195.802V72.834Z" fill="#2ECC82"/>
<path d="M213.689 47.3848H200.371V111.256H213.689V47.3848Z" fill="#2ECC82"/>
<path d="M231.201 52.6426H217.883V111.257H231.201V52.6426Z" fill="#2ECC82"/>
<path d="M249.085 60H235.768V111.256H249.085V60Z" fill="#2ECC82"/>
<path d="M150.909 458.98C144.283 459.553 132.784 460.483 123.718 460.882C118.268 461.122 115.131 460.59 113.324 459.868C113.324 460.071 113.324 460.263 113.341 460.443C113.366 460.906 113.562 461.343 113.891 461.67C114.221 461.997 114.659 462.19 115.123 462.212C132.254 463.169 145.886 462.55 150.727 462.249C150.956 462.238 151.178 462.168 151.372 462.046C151.566 461.923 151.725 461.753 151.834 461.552C151.943 461.35 151.999 461.124 151.995 460.895C151.992 460.666 151.929 460.441 151.814 460.243C151.543 459.801 151.241 459.379 150.909 458.98Z" fill="#2ECC82"/>
<path d="M123.719 460.884C132.786 460.485 144.285 459.555 150.911 458.982C144.397 450.99 123.719 445.604 123.719 445.604H117.878C113.86 451.393 113.278 456.905 113.314 459.868C115.133 460.591 118.27 461.124 123.719 460.884Z" fill="url(#paint6_linear_1252_1010)"/>
<path d="M116.896 436.068L117.442 446.886C117.471 447.458 117.696 448.002 118.081 448.425C118.466 448.849 118.986 449.126 119.552 449.209C121.022 449.429 122.524 449.305 123.938 448.845C124.437 448.682 124.883 448.388 125.229 447.993C125.574 447.598 125.807 447.117 125.902 446.601L127.79 436.072L116.896 436.068Z" fill="url(#paint7_linear_1252_1010)"/>
<path d="M49.1194 471.459C46.2459 470.94 44.946 469.011 44.4018 466.949C44.4018 466.968 44.4018 466.986 44.3899 467.005C43.9674 469.18 44.9477 471.435 46.9068 472.507C49.2732 473.803 51.8644 474.028 53.8741 473.917C54.934 473.868 55.9655 473.558 56.8769 473.015C57.7884 472.472 58.5516 471.712 59.0988 470.803L59.1157 470.774C56.9504 472.165 53.9113 472.323 49.1194 471.459Z" fill="#2ECC82"/>
<path d="M62.6676 439.402H57.8519C50.5161 439.207 45.9101 459.203 44.4023 466.953C44.9466 469.016 46.2464 470.944 49.1199 471.463C53.9119 472.327 56.951 472.163 59.1163 470.779C63.0783 464.039 65.0441 454.166 65.9873 448.406C67.0623 441.849 62.6676 439.402 62.6676 439.402Z" fill="url(#paint8_linear_1252_1010)"/>
<path d="M58.4698 429.363L55.7958 440C55.6384 440.635 55.7012 441.304 55.9739 441.898C56.2466 442.492 56.713 442.976 57.2968 443.271C58.7944 444.04 60.9004 444.846 62.8358 444.613C63.2809 444.554 63.7008 444.372 64.0483 444.088C64.3959 443.804 64.6573 443.428 64.8033 443.004L68.7298 431.814L58.4698 429.363Z" fill="url(#paint9_linear_1252_1010)"/>
<path d="M152.54 289.277C152.54 289.277 128.643 438.661 129.046 439.482C129.046 439.482 122.453 442.483 115.249 439.864C115.249 439.864 117.41 360.009 122.474 329.389C122.474 329.389 81.6872 400.765 68.7362 436.33C68.7362 436.33 61.9751 435.525 56.3887 431.846C56.3887 431.846 100.304 303.371 112.019 286.26L152.54 289.277Z" fill="url(#paint10_linear_1252_1010)"/>
<path d="M123.422 328.868C123.25 328.867 123.082 328.821 122.935 328.733C122.787 328.646 122.666 328.521 122.583 328.371C122.5 328.221 122.459 328.052 122.463 327.881C122.468 327.709 122.518 327.542 122.608 327.397L131.54 313.133C131.609 313.022 131.7 312.926 131.807 312.852C131.914 312.778 132.036 312.726 132.164 312.7L138.737 311.378C138.987 311.328 139.246 311.379 139.458 311.52C139.67 311.661 139.818 311.881 139.868 312.13C139.918 312.38 139.867 312.64 139.726 312.852C139.585 313.064 139.365 313.211 139.116 313.261L132.948 314.502L124.236 328.416C124.15 328.555 124.03 328.669 123.887 328.748C123.745 328.827 123.585 328.868 123.422 328.868Z" fill="url(#paint11_linear_1252_1010)"/>
<path d="M262.21 142.998C262.21 142.998 246.083 146.548 236.274 151.083C234.329 151.98 232.77 153.545 231.879 155.493C228.947 161.916 220.169 178.033 203.145 185.722C205.597 188.975 209.544 195.743 211.258 207.117C221.481 199.511 230.306 186.802 234.543 165.962C234.543 165.962 237.77 167.717 241.795 165.761C243.921 164.728 246.375 163.265 248.218 162.112C250.061 160.981 251.398 159.185 251.953 157.095C252.655 154.343 252.241 151.923 252.241 149.32L260.523 146.752C260.523 146.752 263.041 145.819 262.21 142.998Z" fill="url(#paint12_linear_1252_1010)"/>
<path d="M211.277 207.12C209.558 195.746 205.611 188.978 203.164 185.724C192.591 190.502 178.837 192.029 161.323 185.961C159.707 185.403 158.022 185.07 156.316 184.972C146.992 184.426 116.268 183.429 90.8427 191.828C88.2054 192.697 85.7811 194.113 83.7277 195.982C81.6744 197.852 80.0384 200.133 78.9262 202.678C72.0434 218.455 60.9163 254.404 91.8197 272.544C93.8078 267.591 96.3077 262.86 99.2789 258.427C94.3011 250.031 92.8272 238.562 101.661 223.629C108.102 241.022 111.126 266.393 111.755 277.63C111.961 281.328 111.314 285.024 109.864 288.432L109.705 288.804C109.632 288.977 109.598 289.163 109.605 289.35C109.612 289.537 109.66 289.721 109.745 289.887C109.831 290.054 109.952 290.199 110.1 290.314C110.248 290.428 110.42 290.509 110.602 290.55C128.012 294.458 146.098 293.397 151.507 292.951C151.976 292.912 152.421 292.727 152.778 292.421C153.135 292.115 153.387 291.704 153.497 291.247C161.958 255.592 161.977 231.27 159.906 215.896C167.825 217.67 192.03 221.445 211.277 207.12Z" fill="#3E3E3E"/>
<path d="M159.944 217.115C159.711 217.115 159.486 217.03 159.311 216.876C159.136 216.723 159.023 216.511 158.992 216.28C157.006 201.275 152.997 194.814 152.956 194.756C152.82 194.541 152.774 194.281 152.83 194.032C152.885 193.784 153.037 193.567 153.252 193.431C153.467 193.294 153.727 193.249 153.976 193.304C154.224 193.36 154.441 193.512 154.577 193.727C154.746 194 158.855 200.606 160.897 216.028C160.93 216.281 160.862 216.536 160.707 216.738C160.552 216.941 160.323 217.073 160.071 217.107C160.029 217.112 159.986 217.115 159.944 217.115Z" fill="url(#paint13_linear_1252_1010)"/>
<path d="M116.995 164.195C116.995 164.195 115.236 182.809 113.686 188.316C113.571 188.721 113.597 189.153 113.757 189.543C113.918 189.932 114.205 190.257 114.571 190.464C117.203 191.968 123.513 194.419 132.15 190.19C132.831 189.853 133.399 189.325 133.784 188.671C134.17 188.016 134.357 187.264 134.322 186.505L133.563 168.519L116.995 164.195Z" fill="url(#paint14_linear_1252_1010)"/>
<path d="M133.936 140.391C133.936 140.391 139.566 153.325 139.945 160.113C140.323 166.901 141.785 171.308 133.936 172.673C126.086 174.039 119.473 170.138 115.892 163.368C115.892 163.368 110.278 152.948 111.538 148.681C112.797 144.415 133.936 140.391 133.936 140.391Z" fill="url(#paint15_linear_1252_1010)"/>
<path d="M118.578 158.507L119.024 158.31C119.159 158.25 119.28 158.164 119.38 158.057C119.48 157.949 119.557 157.822 119.607 157.683C119.656 157.544 119.676 157.397 119.666 157.25C119.657 157.103 119.617 156.96 119.549 156.829C118.444 154.691 116.286 149.791 119.073 148.646C122.666 147.172 136.897 144.272 139.966 139.221C142.918 134.368 140.304 128.104 136.373 126.323C136.248 126.263 136.105 126.253 135.973 126.296C135.842 126.339 135.732 126.431 135.666 126.553L135.338 127.173C135.289 127.267 135.212 127.345 135.119 127.395C135.025 127.445 134.918 127.466 134.812 127.455C134.706 127.445 134.606 127.402 134.525 127.334C134.443 127.265 134.384 127.174 134.355 127.071C134.327 126.973 134.271 126.884 134.193 126.817C134.116 126.749 134.021 126.706 133.919 126.691C133.817 126.677 133.714 126.692 133.621 126.735C133.528 126.778 133.449 126.848 133.395 126.935C132.45 128.444 129.902 130.893 123.084 132.151C113.4 133.939 106.997 137.857 106.839 144.549C106.838 144.645 106.811 144.738 106.761 144.82C106.712 144.902 106.641 144.969 106.556 145.013C106.472 145.058 106.377 145.08 106.282 145.075C106.186 145.071 106.094 145.041 106.014 144.988C105.299 144.554 104.154 144.35 102.633 145.634C99.9743 147.87 101.063 153.671 106.893 158.443C106.958 158.494 107.011 158.56 107.046 158.636C107.082 158.711 107.099 158.794 107.097 158.877C107.094 158.96 107.072 159.042 107.032 159.115C106.992 159.188 106.936 159.251 106.867 159.298C105.811 159.986 104.234 161.623 108.318 163.806C112.543 166.063 115.694 165.879 116.908 165.678C116.979 165.666 117.047 165.64 117.108 165.6C117.169 165.561 117.221 165.51 117.261 165.45C117.302 165.39 117.329 165.323 117.343 165.252C117.356 165.181 117.355 165.107 117.339 165.037L116.042 159.155C116.025 159.077 116.026 158.996 116.044 158.919C116.063 158.841 116.098 158.769 116.148 158.707C116.198 158.645 116.261 158.595 116.333 158.56C116.405 158.526 116.483 158.508 116.563 158.507H118.578Z" fill="#3E3E3E"/>
<path d="M118.817 159.747C118.817 159.747 116.669 151.484 112.963 153.8C109.258 156.116 114.887 163.058 117.865 163.367L118.817 159.747Z" fill="url(#paint16_linear_1252_1010)"/>
<path d="M238.863 164.297C238.682 164.296 238.504 164.244 238.351 164.147C238.198 164.05 238.076 163.912 237.998 163.748C237.92 163.584 237.89 163.402 237.912 163.222C237.933 163.042 238.005 162.871 238.119 162.73C238.731 161.976 244.172 155.325 246.297 154.125C246.983 153.736 247.404 153.341 247.48 153.008C247.504 152.904 247.5 152.796 247.468 152.695L241.383 153.914L237.834 156.956C237.64 157.122 237.389 157.204 237.135 157.185C236.881 157.166 236.646 157.046 236.48 156.853C236.314 156.66 236.231 156.409 236.251 156.155C236.27 155.901 236.39 155.665 236.583 155.499L240.325 152.288C240.449 152.18 240.6 152.106 240.761 152.075L247.801 150.663C247.987 150.626 248.18 150.645 248.355 150.717C248.53 150.789 248.68 150.912 248.785 151.069C249.336 151.885 249.524 152.685 249.344 153.444C249.133 154.341 248.442 155.109 247.235 155.792C245.873 156.561 241.826 161.201 239.602 163.937C239.513 164.048 239.401 164.138 239.273 164.2C239.145 164.263 239.005 164.296 238.863 164.297Z" fill="url(#paint17_linear_1252_1010)"/>
<path d="M118.66 285.262L144.077 284.714C144.077 284.714 121.919 278.45 120.543 280.15C120.543 280.15 106.811 271.126 99.2843 258.432C96.3111 262.863 93.8088 267.593 91.8184 272.544C98.5643 276.511 107.425 283.39 118.66 285.262Z" fill="url(#paint18_linear_1252_1010)"/>
<path d="M117.944 280.861C117.944 280.861 117.42 290.984 130.709 289.514C137.932 288.716 149.591 281.982 149.591 281.982C149.591 281.982 119.2 281.901 117.944 280.861Z" fill="url(#paint19_linear_1252_1010)"/>
<path d="M123.147 283.576H123.293L186.469 283.507C186.836 283.507 187.2 283.435 187.539 283.294C187.879 283.153 188.187 282.947 188.447 282.688C188.706 282.428 188.912 282.119 189.053 281.78C189.194 281.441 189.266 281.077 189.266 280.71C189.266 280.342 189.194 279.978 189.053 279.639C188.912 279.3 188.706 278.991 188.447 278.731C188.187 278.472 187.879 278.266 187.539 278.125C187.2 277.984 186.836 277.912 186.469 277.912L123.293 277.98C122.551 277.961 121.832 278.238 121.295 278.75C120.757 279.261 120.445 279.965 120.427 280.707C120.408 281.449 120.685 282.167 121.197 282.705C121.708 283.242 122.412 283.554 123.154 283.573L123.147 283.576Z" fill="url(#paint20_linear_1252_1010)"/>
<path d="M243.262 226.822H190.648C188.754 226.818 186.897 227.35 185.292 228.357C183.687 229.363 182.4 230.804 181.58 232.512L157.262 283.543H222.645C223.863 283.546 225.053 283.185 226.063 282.505C227.074 281.825 227.857 280.859 228.313 279.73L247.175 232.507C248.26 229.779 246.226 226.822 243.262 226.822Z" fill="url(#paint21_linear_1252_1010)"/>
<path d="M206.192 252.988C205.051 256.492 205.895 259.896 208.073 260.594C210.252 261.293 212.943 259.009 214.084 255.503C215.225 251.998 214.382 248.595 212.203 247.897C210.024 247.199 207.331 249.483 206.192 252.988Z" fill="#2ECC82"/>
<defs>
<linearGradient id="paint0_linear_1252_1010" x1="158.29" y1="230.834" x2="453.165" y2="230.834" gradientUnits="userSpaceOnUse">
<stop stop-color="#126F43"/>
<stop offset="1" stop-color="#2ECC82"/>
</linearGradient>
<linearGradient id="paint1_linear_1252_1010" x1="320.268" y1="180.111" x2="172.165" y2="414.538" gradientUnits="userSpaceOnUse">
<stop stop-color="#2ECC82"/>
<stop offset="1"/>
</linearGradient>
<linearGradient id="paint2_linear_1252_1010" x1="375.49" y1="120.239" x2="186.469" y2="419.434" gradientUnits="userSpaceOnUse">
<stop stop-color="#2ECC82"/>
<stop offset="1"/>
</linearGradient>
<linearGradient id="paint3_linear_1252_1010" x1="319.699" y1="212.884" x2="405.47" y2="108.937" gradientUnits="userSpaceOnUse">
<stop stop-color="#126F43"/>
<stop offset="1" stop-color="#126F43"/>
</linearGradient>
<linearGradient id="paint4_linear_1252_1010" x1="453.577" y1="33.4293" x2="201.889" y2="431.819" gradientUnits="userSpaceOnUse">
<stop stop-color="#2ECC82"/>
<stop offset="1"/>
</linearGradient>
<linearGradient id="paint5_linear_1252_1010" x1="362.063" y1="286.448" x2="395.718" y2="165.531" gradientUnits="userSpaceOnUse">
<stop stop-color="#2ECC82"/>
<stop offset="1" stop-color="#3E3E3E"/>
</linearGradient>
<linearGradient id="paint6_linear_1252_1010" x1="113.324" y1="453.272" x2="150.911" y2="453.272" gradientUnits="userSpaceOnUse">
<stop stop-color="#126F43"/>
<stop offset="1" stop-color="#2ECC82"/>
</linearGradient>
<linearGradient id="paint7_linear_1252_1010" x1="116.896" y1="442.689" x2="127.79" y2="442.689" gradientUnits="userSpaceOnUse">
<stop stop-color="#FEBBBA"/>
<stop offset="1" stop-color="#FF928E"/>
</linearGradient>
<linearGradient id="paint8_linear_1252_1010" x1="44.4023" y1="455.694" x2="66.158" y2="455.694" gradientUnits="userSpaceOnUse">
<stop stop-color="#126F43"/>
<stop offset="1" stop-color="#2ECC82"/>
</linearGradient>
<linearGradient id="paint9_linear_1252_1010" x1="55.7096" y1="437.008" x2="68.7298" y2="437.008" gradientUnits="userSpaceOnUse">
<stop stop-color="#FEBBBA"/>
<stop offset="1" stop-color="#FF928E"/>
</linearGradient>
<linearGradient id="paint10_linear_1252_1010" x1="161.021" y1="296.506" x2="49.8591" y2="478.601" gradientUnits="userSpaceOnUse">
<stop stop-color="#121212"/>
<stop offset="1"/>
</linearGradient>
<linearGradient id="paint11_linear_1252_1010" x1="94.9487" y1="49.0462" x2="119.847" y2="235.342" gradientUnits="userSpaceOnUse">
<stop stop-color="#4F52FF"/>
<stop offset="1" stop-color="#4042E2"/>
</linearGradient>
<linearGradient id="paint12_linear_1252_1010" x1="198.863" y1="220.175" x2="246.081" y2="143.767" gradientUnits="userSpaceOnUse">
<stop stop-color="#FEBBBA"/>
<stop offset="1" stop-color="#FF928E"/>
</linearGradient>
<linearGradient id="paint13_linear_1252_1010" x1="244.862" y1="25.6635" x2="73.1531" y2="375.953" gradientUnits="userSpaceOnUse">
<stop stop-color="white"/>
<stop offset="1" stop-color="#737373"/>
</linearGradient>
<linearGradient id="paint14_linear_1252_1010" x1="119.852" y1="206.113" x2="125.492" y2="176.496" gradientUnits="userSpaceOnUse">
<stop stop-color="#FEBBBA"/>
<stop offset="1" stop-color="#FF928E"/>
</linearGradient>
<linearGradient id="paint15_linear_1252_1010" x1="135.119" y1="151.775" x2="102.931" y2="176.404" gradientUnits="userSpaceOnUse">
<stop stop-color="#FEBBBA"/>
<stop offset="1" stop-color="#FF928E"/>
</linearGradient>
<linearGradient id="paint16_linear_1252_1010" x1="131.124" y1="146.556" x2="98.9358" y2="171.185" gradientUnits="userSpaceOnUse">
<stop stop-color="#FEBBBA"/>
<stop offset="1" stop-color="#FF928E"/>
</linearGradient>
<linearGradient id="paint17_linear_1252_1010" x1="280.267" y1="45.793" x2="261.379" y2="100.737" gradientUnits="userSpaceOnUse">
<stop stop-color="#FF928E"/>
<stop offset="1" stop-color="#FE7062"/>
</linearGradient>
<linearGradient id="paint18_linear_1252_1010" x1="139.87" y1="29.2258" x2="146.737" y2="-48.8974" gradientUnits="userSpaceOnUse">
<stop stop-color="#FEBBBA"/>
<stop offset="1" stop-color="#FF928E"/>
</linearGradient>
<linearGradient id="paint19_linear_1252_1010" x1="111.687" y1="30.4816" x2="104.819" y2="-47.6433" gradientUnits="userSpaceOnUse">
<stop stop-color="#FEBBBA"/>
<stop offset="1" stop-color="#FF928E"/>
</linearGradient>
<linearGradient id="paint20_linear_1252_1010" x1="112.04" y1="267.165" x2="162.24" y2="283.66" gradientUnits="userSpaceOnUse">
<stop stop-color="#126F43"/>
<stop offset="1" stop-color="#2ECC82"/>
</linearGradient>
<linearGradient id="paint21_linear_1252_1010" x1="181.455" y1="234.344" x2="217.355" y2="272.289" gradientUnits="userSpaceOnUse">
<stop stop-color="#126F43"/>
<stop offset="1" stop-color="#2ECC82"/>
</linearGradient>
</defs>
</svg>
